<?xml version="1.0" encoding="UTF-8" standalone="no"?>
<svg
   xmlns:dc="http://purl.org/dc/elements/1.1/"
   xmlns:cc="http://creativecommons.org/ns#"
   xmlns:rdf="http://www.w3.org/1999/02/22-rdf-syntax-ns#"
   xmlns:svg="http://www.w3.org/2000/svg"
   xmlns="http://www.w3.org/2000/svg"
   viewBox="0 0 734.88 800.20001"
   height="800.20001"
   width="734.88"
   xml:space="preserve"
   id="svg2"
   version="1.1"><metadata
     id="metadata8"><rdf:RDF><cc:Work
         rdf:about=""><dc:format>image/svg+xml</dc:format><dc:type
           rdf:resource="http://purl.org/dc/dcmitype/StillImage" /></cc:Work></rdf:RDF></metadata><defs
     id="defs6"><clipPath
       id="clipPath20"
       clipPathUnits="userSpaceOnUse"><path
         id="path18"
         d="M 0,0 H 5511.56 V 6001 H 0 Z" /></clipPath></defs><g
     transform="matrix(1.3333333,0,0,-1.3333333,0,800.2)"
     id="g10"><g
       transform="scale(0.1)"
       id="g12"><g
         id="g14"><g
           clip-path="url(#clipPath20)"
           id="g16"><path
             id="path22"
             style="fill:#cb8e4c;fill-opacity:1;fill-rule:nonzero;stroke:none"
             d="m 5451.38,5444.57 c 77,-278.5 -23.2,-578.6 -253.8,-752.8 -783.4,315.2 -1612.6,472.7 -2441.7,472.7 -64,0 -128.1,-0.9 -192.1,-2.8 -4.4,-0.1 -8.8,-0.21 -13.3,-0.5 -628.2,-19.6 -1254.3,-129.8 -1858.199,-330.6 -127.101,-42.3 -253.203,-88.5 -378.203,-138.8 -230.5975,174.2 -330.7968,474.3 -253.7967,752.8 860.8007,346.3 1767.6987,521.89 2695.5987,521.89 927.8,0 1834.7,-175.59 2695.5,-521.89" /><path
             id="path24"
             style="fill:#f6cb53;fill-opacity:1;fill-rule:nonzero;stroke:none"
             d="m 4394.18,4127.57 c -66.2,-285.8 -322.3,-498.7 -628.2,-498.7 -356.1,0 -644.7,288.6 -644.7,644.7 0,40.3 3.7,79.7 10.8,118 55.4,299.7 318.1,526.7 633.9,526.7 356.1,0 644.8,-288.6 644.8,-644.7 0,-50.2 -5.7,-99.1 -16.6,-146 m -1638.3,1036.9 c -64,0 -128.1,-0.9 -192.1,-2.8 -4.4,-0.1 -8.8,-0.21 -13.3,-0.5 -100.6,-5.4 -213,-54.6 -340.1,-115.5 -8.6,-4.21 -17.3,-8.4 -26.1,-12.6 -228.6,-110.6 -503.5,-251.1 -838.6,-242.7 -151.3,3.8 -279.1,10.2 -380.399,16.8 -34.5,2.2 -66,4.5 -94.203,6.7 -116.496,8.9 -178.797,16.7 -178.797,16.7 -74.801,-24.9 -149.199,-51.1 -223.203,-78.8 h -0.195 c -51.801,-19.3 -103.403,-39.3 -154.805,-60 0,0 19,-37.3 48.902,-95.8 75.5,-147.6 220.102,-430.6 302.301,-591.5 19.199,-37.4 34.899,-68.3 45.598,-89.3 25.902,-50.6 40.402,-125.8 51.601,-207 v -0.2 c 21.2,-155.2 29.903,-332.5 81,-402.8 23.7,-32.5 59,-43.5 96.801,-38.9 15.602,1.9 31.5,6.5 47.301,13.3 34.098,14.7 66.998,39.8 92.198,71.2 27.7,34.4 45.9,76.3 45.9,119.9 v 2.2 c 0.8,144.4 78.5,206.8 204.4,156 85.9,-34.8 185.3,-32.5 221.8,45.8 4.6,9.9 8.3,20.9 10.7,33.3 h 0.1 c 5.4,0.1 10.9,0.2 16.5,0.2 291.6,0 538,-193.7 617.6,-459.3 l 0.1,-0.1 c 17.6,-58.7 27,-120.9 27,-185.3 0,-356.1 -288.6,-644.8 -644.7,-644.8 -35.5,0 -70.4,2.9 -104.5,8.4 l -1.1,-4.4 c 0,0 345.1,-730.5 404.7,-983 l 0.1,-0.1 c 5.5,-23.8 8.6,-43.3 8.6,-57.6 0,-85.7 104.9,-157.4 194.2,-148.8 l 5.1,-9.9 574,-1123.3012 c 44.3,-86.7969 168.5,-86.5977 212.6,0.4022 l 59.4,117.301 388.8,768 46.8,92.298 c -32.4,1.8 -66.8,6.8 -95.1,6.8 -356,0 -644.7,288.7 -644.7,644.8 0,356 288.7,644.7 644.7,644.7 13.4,0 26.8,-0.4 40,-1.2 233.1,-14.3 432.7,-152.4 533.9,-349.3 l 342.8,677.3 57.1,112.7 2.6,5.1 c 15.2,-5.1 30.6,-8.5 46,-10.4 36.9,-4.4 73.3,0.8 105.6,16.8 53.6,26.5 95.7,82.9 109.2,174.9 l 0.1,0.5 c 3.5,23.5 5.1,49.3 4.5,77.6 -0.9,46.5 7.9,106.5 22,170.3 31.6,142.8 89.5,305 122.9,380.5 9.1,20.7 352.5,697.2 485.9,959.9 32.2,63.5 52.2,102.8 52.2,102.8 -783.4,315.2 -1612.6,472.7 -2441.7,472.7" /><path
             id="path26"
             style="fill:#e53e47;fill-opacity:1;fill-rule:nonzero;stroke:none"
             d="m 4410.78,4273.57 c 0,-50.2 -5.7,-99.1 -16.6,-146 -66.2,-285.8 -322.3,-498.7 -628.2,-498.7 -356.1,0 -644.7,288.6 -644.7,644.7 0,356.1 288.6,644.7 644.7,644.7 10.8,0 21.5,-0.3 32.2,-0.8 341.1,-16.8 612.6,-298.6 612.6,-643.9" /><path
             id="path28"
             style="fill:#e53e47;fill-opacity:1;fill-rule:nonzero;stroke:none"
             d="m 3886.78,1926.97 c 0,0 -213.7,-304.2 -379.6,-719.8 -11.9,-29.7 -23.5,-60.1 -34.8,-90.9 -13.5,-36.9 -56.9,-41 -104.5,-38.3 -32.4,1.8 -66.8,6.8 -95.1,6.8 -356,0 -644.7,288.7 -644.7,644.8 0,144.4 47.5,277.7 127.7,385.1 l 0.1,0.2 c 117.6,157.4 305.3,259.4 516.9,259.4 204.3,0 386.3,-95 504.4,-243.1 26.6,-33.3 49.9,-69.2 69.5,-107.4 15.9,-30.9 29.3,-63.3 40.1,-96.8" /><path
             id="path30"
             style="fill:#e53e47;fill-opacity:1;fill-rule:nonzero;stroke:none"
             d="m 2223.88,3063.47 c 0,-77.9 -13.8,-152.5 -39.1,-221.7 -21.2,-57.9 -50.4,-111.9 -86.3,-160.6 -117.5,-159.2 -306.3,-262.5 -519.3,-262.5 -35.5,0 -70.4,2.9 -104.5,8.4 -43.6,7.1 -85.9,18.6 -126.2,34.1 0,0 -252.4,545.7 -408.199,805.1 86.499,10.6 185.399,102.8 185.399,204.4 0,146 77.9,209.3 204.4,158.2 96.7,-39.2 210.6,-31.3 232.5,79.1 h 0.1 c 5.4,0.1 10.9,0.2 16.5,0.2 35.5,0 70.3,-2.9 104.3,-8.4 l 0.2,-0.1 c 19.1,-3.1 38,-7.1 56.6,-11.9 278.1,-71.5 483.6,-324 483.6,-624.3" /><path
             id="path32"
             style="fill:#e53e47;fill-opacity:1;fill-rule:nonzero;stroke:none"
             d="m 2550.48,5161.17 c -105.3,-5.71 -223.6,-59.3 -358,-124.2 -230.3,-111.1 -507.7,-255.1 -846.8,-246.6 -163.3,4.1 -299.3,11.2 -404.098,18.3 -36,2.4 -68.301,4.9 -96.699,7.2 -99.602,8 -152.602,14.7 -152.602,14.7 36.899,12.3 73.899,24.2 111,35.8 569.399,178.1 1157.399,276.4 1747.199,294.8" /><path
             id="path34"
             style="fill:#e8816a;fill-opacity:1;fill-rule:nonzero;stroke:none"
             d="m 4116.23,4440.27 c -2.66,2.26 -5.26,4.6 -7.69,7.12 -0.99,1.02 -1.92,2.09 -2.87,3.14 -1.65,2.56 -3.37,5.05 -4.85,7.73 -0.85,1.52 -1.53,3.16 -2.41,4.66 l -0.17,0.23 c -4.17,10.08 -9.68,18.57 -19.56,24.36 -9.65,5.64 -23.86,8.03 -34.68,4.53 -21.37,-6.91 -40.43,-31.81 -31.43,-55.35 8.77,-22.94 21.08,-43.97 40.03,-60.06 9.25,-7.87 19.3,-13.18 31.81,-13.18 11.04,0 24.23,4.9 31.82,13.18 15.39,16.76 19.16,47.36 0,63.64" /><path
             id="path36"
             style="fill:#e8816a;fill-opacity:1;fill-rule:nonzero;stroke:none"
             d="m 3460.08,4421.18 c -16.43,14.58 -37.04,19.05 -58.48,17.41 -21.65,-1.66 -35.82,-13.16 -43.4,-33.04 -4.17,-10.93 -8.33,-21.86 -12.5,-32.8 -8.41,-22.04 9.29,-50.31 31.43,-55.35 13.9,-3.17 26.25,-0.46 36.16,6.3 3.55,-0.84 7.1,-1.47 10.58,-1.63 24.31,-1.09 47,15.43 53.85,38.67 6.29,21.38 -0.99,45.67 -17.64,60.44" /><path
             id="path38"
             style="fill:#e8816a;fill-opacity:1;fill-rule:nonzero;stroke:none"
             d="m 3761.64,4222.48 c -15.39,3.51 -30.42,-0.37 -41.3,-9.74 -11.02,-2.82 -20.96,-9.82 -27.89,-20.49 -11.1,-17.11 -19.16,-36.74 -22.83,-56.81 -3.48,-19.12 2.12,-41.01 20.68,-50.82 18.76,-9.91 38.66,-6.45 54.53,7.04 23.21,19.71 39.32,46.54 48.24,75.47 6.94,22.49 -8.23,50.07 -31.43,55.35" /><path
             id="path40"
             style="fill:#e8816a;fill-opacity:1;fill-rule:nonzero;stroke:none"
             d="m 3772.1,4629.05 c -6.45,15 -23.16,26.9 -38.62,31.09 -16.69,4.52 -35.39,2.87 -50.23,-6.47 -9.78,-6.15 -17.58,-15.62 -20.68,-26.89 -2.97,-10.77 -1.63,-25.11 4.53,-34.67 8.71,-13.51 24.1,-22.07 39.75,-22.15 4.74,-3.27 9.96,-5.79 14.43,-7.02 10.77,-2.97 25.12,-1.63 34.68,4.54 9.61,6.19 18.06,15.42 20.68,26.89 l 1.6,11.96 c -0.02,8.13 -2.07,15.7 -6.14,22.72" /><path
             id="path42"
             style="fill:#e8816a;fill-opacity:1;fill-rule:nonzero;stroke:none"
             d="m 4108.64,4054.5 c -21.32,8.57 -43.67,0.83 -56.2,-18.41 -16.92,-25.99 -40.23,-44.21 -68.07,-57.38 -16.17,-7.64 -23.43,-26.7 -21.61,-44.09 -4.37,-12.81 -3.54,-27.8 2.96,-38.9 13.52,-23.11 39.13,-25.74 61.57,-16.15 4.99,2.14 9.66,4.68 14.09,7.49 44.19,25.12 76.22,66.41 93.31,114.35 7.44,20.86 -6.69,45.3 -26.05,53.09" /><path
             id="path44"
             style="fill:#e8816a;fill-opacity:1;fill-rule:nonzero;stroke:none"
             d="m 1497.82,3378.29 c -14.98,7.92 -36.1,7.66 -50.24,-2.56 -2.03,0.95 -4.08,1.89 -6.43,2.54 -10.77,2.96 -25.11,1.62 -34.67,-4.54 -18.66,-12.03 -31.15,-41.35 -16.15,-61.57 15.05,-20.28 36.71,-34.29 63.05,-32.39 24.3,1.76 49.71,13.88 60.59,36.95 10.02,21.25 6.63,49.53 -16.15,61.57" /><path
             id="path46"
             style="fill:#e8816a;fill-opacity:1;fill-rule:nonzero;stroke:none"
             d="m 1869.3,3385.04 c -21.12,12.03 -49.21,4.99 -61.57,-16.14 -12.21,-20.87 -5.04,-49.5 16.14,-61.57 l 1.11,-0.66 0.16,-0.31 c 0.2,-1.18 1.74,-6.75 1.74,-6.74 0.42,-1.78 0.71,-3.59 1.03,-5.39 l 0.08,-1.86 c 0.2,-6.44 0.48,-12.84 0.41,-19.29 -0.24,-23.54 20.88,-46.08 45,-45 24.59,1.1 44.74,19.77 45,45 0.45,42.88 -8.81,89.01 -49.1,111.96" /><path
             id="path48"
             style="fill:#e8816a;fill-opacity:1;fill-rule:nonzero;stroke:none"
             d="m 1744.02,3014.81 c -7.28,17.26 -23.91,27.41 -41.93,27.3 -4.66,20.42 -20.96,38.27 -43.74,37.25 -22.79,-1.02 -46.98,-19.87 -45,-45 0.57,-7.19 0.47,-14.27 0.23,-21.48 l -0.03,-1.58 -0.16,-0.67 c -0.8,-3.5 -1.47,-7.01 -2.36,-10.49 -5.45,-21.48 6.95,-51.6 31.43,-55.36 29.36,-4.49 57.11,-1.46 83.15,13.84 19.38,11.38 27.03,35.75 18.41,56.19" /><path
             id="path50"
             style="fill:#e8816a;fill-opacity:1;fill-rule:nonzero;stroke:none"
             d="m 1839.37,2805.7 c -5.74,1.31 -11.27,1.5 -16.53,0.93 -2.2,1.94 -4.59,3.63 -7.18,5 -22.65,11.96 -47.59,4.8 -61.57,-16.14 -11.27,-16.88 -23.48,-32.79 -23.48,-54.22 0,-30.91 27.6,-51.73 56.49,-52.47 39.08,-1 71.12,26.1 83.7,61.54 7.89,22.22 -8.91,50.23 -31.43,55.36" /><path
             id="path52"
             style="fill:#e8816a;fill-opacity:1;fill-rule:nonzero;stroke:none"
             d="m 1375.34,3028.83 c -1.71,0.28 -3.32,0.72 -4.94,1.12 l -0.86,0.72 -0.7,1.54 c -2.18,22.55 -20.57,43.54 -44.65,42.46 -23.56,-1.05 -46.04,-19.8 -45,-45 1.66,-40.46 30.43,-80.8 72.23,-87.62 12.31,-2.01 23.52,-1.99 34.67,4.53 9.34,5.47 18.24,16.17 20.68,26.9 4.94,21.66 -6.58,51.3 -31.43,55.35" /><path
             id="path54"
             style="fill:#e8816a;fill-opacity:1;fill-rule:nonzero;stroke:none"
             d="m 3321.69,2147.28 c -2.7,23.33 -21.98,36.73 -44.46,39.53 -26.34,3.28 -52.38,4.2 -76.82,0.57 -19.91,-0.89 -39.8,-2.46 -59.69,-5.01 -24.1,-3.1 -45,-18.47 -45,-45 0,-5.86 1.52,-12.02 4.15,-17.85 -4.11,-15.14 1.13,-33.34 11.75,-43.96 15.27,-15.27 35.92,-15.07 54.53,-7.04 36.76,15.88 76.12,18.52 115.42,13.67 24.16,-2.98 45,22.82 45,45 0,7.7 -1.87,14.32 -4.88,20.09" /><path
             id="path56"
             style="fill:#e8816a;fill-opacity:1;fill-rule:nonzero;stroke:none"
             d="m 2983.42,1864.48 c -10.81,0.05 -21.61,0.09 -32.41,0.14 -2.99,16.48 -14.09,30.8 -31.64,35.62 -22.44,6.17 -50.22,-7.56 -55.35,-31.43 -9.08,-42.17 -23.76,-115.83 32.46,-131.07 22.14,-6 48.87,3.86 68.91,12.97 18.82,8.55 36.05,21.6 49.85,36.95 25.57,28.47 8.59,76.66 -31.82,76.82" /><path
             id="path58"
             style="fill:#e8816a;fill-opacity:1;fill-rule:nonzero;stroke:none"
             d="m 3407.08,1701.13 c -12.36,28.17 -32.26,49.48 -56.52,67.85 -2.72,2.06 -5.68,3.55 -8.77,4.63 -3.58,2.29 -7.4,4.07 -11.34,5.15 -25.4,6.98 -46.59,-8.66 -55.36,-31.43 -11.48,-29.8 -25.53,-74.08 -9.75,-104.24 18.52,-35.44 64.94,-36.17 99.54,-30.21 18.01,3.1 34.87,11.36 44.43,27.71 11.6,19.82 6.35,41.01 -2.23,60.54" /><path
             id="path60"
             style="fill:#e8816a;fill-opacity:1;fill-rule:nonzero;stroke:none"
             d="m 3655.54,1929.56 c -13.27,46.18 -51.74,84.49 -99.54,93.75 -23.03,4.46 -49.67,-6.48 -55.35,-31.43 -5.07,-22.25 6.71,-50.58 31.43,-55.36 3.88,-0.75 7.54,-1.7 11.34,-2.78 l 0.85,-0.29 c 3.14,-1.78 6.25,-3.44 9.34,-5.35 l 1.13,-0.67 0.48,-0.72 c 1.69,-2.15 4.12,-4.28 6.13,-6.27 0.58,-0.7 1.24,-1.57 1.82,-2.48 1.19,-1.88 2.2,-3.85 3.25,-5.81 0.19,-0.75 1.76,-4.52 2.34,-6.52 6.5,-22.6 32.04,-38.97 55.35,-31.43 22.99,7.44 38.4,31.12 31.43,55.36" /><path
             id="path62"
             style="fill:#e8816a;fill-opacity:1;fill-rule:nonzero;stroke:none"
             d="m 3122.75,1466.26 c -0.74,2.28 -1.76,4.44 -2.81,6.57 0.39,4.59 0.39,9.21 -0.12,13.82 -1.37,12.29 -4.11,22.75 -13.18,31.82 -7.8,7.8 -20.61,13.68 -31.82,13.18 -11.64,-0.52 -23.71,-4.35 -31.82,-13.18 -7.55,-8.23 -14.47,-20.2 -13.18,-31.82 0.23,-2.09 0.32,-4.15 0.33,-6.21 -0.29,-1.04 -0.69,-2.07 -1.04,-3.1 -3.45,-8.21 -5.05,-15.88 -3.81,-25.07 1.43,-10.67 6.43,-20.99 14.34,-28.52 13.54,-12.87 33.62,-18.37 51.68,-12.85 22.49,6.88 39.06,31.78 31.43,55.36" /><path
             id="path64"
             style="fill:#e8816a;fill-opacity:1;fill-rule:nonzero;stroke:none"
             d="m 3359.98,1438.75 c -8.8,8.08 -19.62,13.18 -31.82,13.18 h -14.07 c -11.53,0 -23.66,-5.02 -31.82,-13.18 -7.8,-7.81 -13.68,-20.61 -13.18,-31.82 0.52,-11.64 4.35,-23.71 13.18,-31.82 8.81,-8.08 19.63,-13.18 31.82,-13.18 h 14.07 c 11.54,0 23.66,5.02 31.82,13.18 7.81,7.8 13.69,20.61 13.18,31.82 -0.52,11.64 -4.34,23.71 -13.18,31.82" /><path
             id="path66"
             style="fill:#a21f26;fill-opacity:1;fill-rule:nonzero;stroke:none"
             d="m 1694.33,3439.03 c -7.45,0 -13.42,-2.26 -18,-5.86 l -0.83,0.32 c -7.18,1.98 -16.74,1.09 -23.11,-3.02 -6.41,-4.13 -12.05,-10.28 -13.79,-17.93 -1.67,-7.35 -1.71,-16.8 3.02,-23.11 4.47,-5.96 8.94,-11.92 13.4,-17.87 4.87,-6.49 9.8,-11.55 17.93,-13.79 7.18,-1.97 16.75,-1.08 23.12,3.03 6.41,4.13 12.04,10.28 13.79,17.93 0.36,1.59 0.6,3.31 0.78,5.04 21.1,14.09 15.76,55.26 -16.31,55.26" /><path
             id="path68"
             style="fill:#a21f26;fill-opacity:1;fill-rule:nonzero;stroke:none"
             d="m 1578.49,3178.99 c -5.27,11.19 -15.49,18.96 -25.83,25.22 -13.44,8.13 -33.56,3.41 -41.04,-10.77 -4.11,-7.77 -4.76,-16.44 -2.37,-24.18 -2.18,-6.86 -3.08,-13.77 -1.35,-21.54 2.18,-9.81 8.18,-18.57 16.93,-23.72 15.06,-8.86 34.3,-4.96 46.37,7.08 13.16,13.14 14.99,31.54 7.29,47.91" /><path
             id="path70"
             style="fill:#a21f26;fill-opacity:1;fill-rule:nonzero;stroke:none"
             d="m 1292.35,3211.25 c -2.38,0 -4.61,-0.24 -6.69,-0.67 -2.09,0.43 -4.33,0.67 -6.71,0.67 -38.61,0 -38.67,-60 0,-60 2.38,0 4.61,0.23 6.7,0.66 2.09,-0.43 4.32,-0.66 6.7,-0.66 38.61,0 38.67,60 0,60" /><path
             id="path72"
             style="fill:#a21f26;fill-opacity:1;fill-rule:nonzero;stroke:none"
             d="m 1533.54,2786.94 c -16.26,-0.73 -30,-13.18 -30,-30 v -26.8 c 0,-15.69 13.79,-30.73 30,-30 16.25,0.73 30,13.18 30,30 v 26.8 c 0,15.69 -13.8,30.72 -30,30" /><path
             id="path74"
             style="fill:#a21f26;fill-opacity:1;fill-rule:nonzero;stroke:none"
             d="m 1970.29,3017.85 c -2.53,3.92 -5.69,7.01 -9.2,9.38 l -0.04,2.16 c -0.31,15.68 -13.58,30.74 -30,30 -15.99,-0.71 -30.33,-13.19 -30,-30 0.21,-11.09 0.43,-22.17 0.65,-33.26 0.46,-23.48 24.93,-36.4 45.14,-25.91 4.23,2.2 8.46,4.39 12.69,6.58 13.95,7.24 19.23,27.9 10.76,41.05" /><path
             id="path76"
             style="fill:#a21f26;fill-opacity:1;fill-rule:nonzero;stroke:none"
             d="m 3297.28,1942.18 c -3.71,13.51 -15.65,20.79 -28.93,22.02 -20.57,1.91 -41.15,3.82 -61.72,5.72 -16.16,1.5 -30,-14.86 -30,-30 0,-9.82 4.45,-17.51 11.15,-22.72 l -0.13,-0.9 c -3.57,-25.89 18.96,-46.43 44.07,-33.88 l 51.77,25.88 c 11.76,5.87 17.14,21.7 13.79,33.88" /><path
             id="path78"
             style="fill:#a21f26;fill-opacity:1;fill-rule:nonzero;stroke:none"
             d="m 3549.45,1821.31 -5.71,0.64 c -2,0.47 -3.99,0.97 -5.95,1.62 l -1.15,0.32 -1.56,0.9 c -0.79,0.45 -7.76,4.97 -4.14,2.14 -5.86,4.58 -12.67,7.47 -19.52,8.16 l -1.68,0.23 -0.19,0.01 c -1.49,0.2 -2.98,0.4 -4.53,0.33 -16.08,-0.72 -30.2,-13.19 -30,-30 0.2,-16.11 0.4,-32.21 0.6,-48.32 0.34,-27.17 32,-38.03 51.22,-21.21 13.14,11.51 23.33,19.42 37.75,29.28 24.27,16.6 15.7,54.91 -15.14,55.9" /><path
             id="path80"
             style="fill:#a21f26;fill-opacity:1;fill-rule:nonzero;stroke:none"
             d="m 3150.34,1671.21 c -4.07,6.25 -8.14,12.49 -12.21,18.74 -1.57,2.42 -3.51,4.48 -5.58,6.36 0.24,3.29 0.39,6.58 0.36,9.88 -0.16,15.68 -13.69,30.73 -30,30 -16.13,-0.72 -30.17,-13.19 -30,-30 0.13,-13.35 -2.57,-22.28 -11.61,-35.04 -9.08,-12.81 -2.67,-34.01 10.76,-41.05 21.78,-11.41 45.74,-11.43 67.52,0.07 13.84,7.3 19.33,27.88 10.76,41.04" /><path
             id="path82"
             style="fill:#a21f26;fill-opacity:1;fill-rule:nonzero;stroke:none"
             d="m 2940.91,1519.93 c -1.14,9.3 -2.29,18.6 -3.43,27.91 -1.01,8.24 -2.67,15.1 -8.78,21.21 -5.21,5.2 -13.74,9.12 -21.22,8.79 -3.72,-0.17 -7.5,-0.88 -11.03,-2.19 -13.69,4.35 -29.61,-0.33 -37.5,-13.8 -9.1,-15.56 -3.12,-34.35 9.82,-45.47 6.92,-5.95 13.95,-11.78 20.93,-17.66 9.44,-7.98 20.9,-11.21 32.77,-6.21 9.88,4.18 19.87,15.8 18.44,27.42" /><path
             id="path84"
             style="fill:#a21f26;fill-opacity:1;fill-rule:nonzero;stroke:none"
             d="m 2985.66,2069.39 c -6.96,4.92 -14.92,8.74 -23.19,11.24 -1.54,8.6 -6.42,16.63 -14.16,20.72 -14.74,7.79 -32.14,3.45 -41.04,-10.77 -14.09,-22.51 -10.84,-54.83 9.67,-72.45 20.75,-17.84 56.72,-18.38 74.79,4.14 12.79,15.94 10.94,35.09 -6.07,47.12" /><path
             id="path86"
             style="fill:#a21f26;fill-opacity:1;fill-rule:nonzero;stroke:none"
             d="m 3432.82,2183.81 c -16.25,-0.73 -30,-13.19 -30,-30 v -27.13 c 0,-15.69 13.8,-30.73 30,-30 16.26,0.73 30,13.18 30,30 v 27.13 c 0,15.69 -13.8,30.72 -30,30" /><path
             id="path88"
             style="fill:#a21f26;fill-opacity:1;fill-rule:nonzero;stroke:none"
             d="m 3514.21,1505.6 c -16.26,-0.72 -30,-13.18 -30,-30 v -9.04 c 0,-15.69 13.79,-30.72 30,-30 16.25,0.73 30,13.18 30,30 v 9.04 c 0,15.7 -13.8,30.73 -30,30" /><path
             id="path90"
             style="fill:#a21f26;fill-opacity:1;fill-rule:nonzero;stroke:none"
             d="m 3781.29,3888.99 c 3.82,10.34 1.42,22.42 -6.55,31.99 -18.73,22.5 -55.3,8.64 -62.77,-16.74 l -0.08,-0.35 c -12.3,-13.2 -21.67,-28.83 -28.08,-46.47 -5.54,-15.23 6.21,-32.86 20.95,-36.91 16.27,-4.47 30.55,5.21 36.4,19.86 4.97,-4.6 11.42,-7.53 19.29,-7.53 14.92,0 31.69,13.78 30,30 -1.05,10.14 -3.74,18.41 -9.16,26.15" /><path
             id="path92"
             style="fill:#a21f26;fill-opacity:1;fill-rule:nonzero;stroke:none"
             d="m 3548.98,4108.4 -0.76,0.52 c 0.86,6.89 1.15,13.84 0.75,20.73 -0.95,16.18 -13.11,30 -30,30 -14.81,0 -29.39,-12.56 -29.87,-27.84 -12.11,-1.17 -23.02,-8.94 -26.48,-21.52 -3,-10.93 1.08,-23.44 9.55,-30.91 -6.08,-20.11 16.52,-43.86 37.52,-36.72 10.7,3.64 21.41,7.27 32.12,10.91 26.28,8.93 27.52,39.21 7.17,54.83" /><path
             id="path94"
             style="fill:#a21f26;fill-opacity:1;fill-rule:nonzero;stroke:none"
             d="m 3711.83,4390.57 c -19.52,15.32 -40.8,21.24 -65.38,16.4 -15.42,-3.04 -25.68,-22.29 -20.95,-36.91 5.31,-16.41 20.38,-24.21 36.9,-20.95 l 0.28,0.06 0.73,-0.13 1.99,-0.1 0.14,-0.04 c 0.61,-0.25 3.32,-1.42 4.46,-1.77 1.84,-1.27 3.84,-2.47 -0.6,1.02 6.53,-5.13 12.55,-8.79 21.22,-8.79 7.35,0 16.14,3.27 21.21,8.79 9.9,10.79 13.18,32.08 0,42.42" /><path
             id="path96"
             style="fill:#a21f26;fill-opacity:1;fill-rule:nonzero;stroke:none"
             d="m 3518.54,4628.47 c -6.5,1.48 -12.4,1.11 -17.57,-0.74 -5.53,6.9 -13.74,11.58 -22.93,11.17 -16.13,-0.72 -30.17,-13.18 -30,-30 0.14,-14.6 0.28,-29.21 0.43,-43.81 0.24,-23.9 25,-35.83 45.14,-25.91 22.17,10.93 36.75,29.97 45.88,52.39 5.93,14.58 -6.44,33.6 -20.95,36.9" /><path
             id="path98"
             style="fill:#a21f26;fill-opacity:1;fill-rule:nonzero;stroke:none"
             d="m 3948.26,4656.98 c -16.26,-0.72 -30,-13.18 -30,-30 v -31.65 c 0,-15.69 13.79,-30.72 30,-30 16.25,0.73 30,13.19 30,30 v 31.65 c 0,15.7 -13.8,30.73 -30,30" /><path
             id="path100"
             style="fill:#a21f26;fill-opacity:1;fill-rule:nonzero;stroke:none"
             d="m 3771.92,4815.23 h -13.56 c -15.69,0 -30.73,-13.8 -30,-30 0.73,-16.25 13.18,-30 30,-30 h 13.56 c 15.7,0 30.73,13.8 30,30 -0.72,16.26 -13.18,30 -30,30" /><path
             id="path102"
             style="fill:#a21f26;fill-opacity:1;fill-rule:nonzero;stroke:none"
             d="m 4009.96,4232.08 c 0.88,13.28 -9.67,27.63 -22.28,30.5 -17.22,3.92 -30.77,-5.26 -36.9,-20.95 -4.28,-10.99 -8.57,-21.97 -12.86,-32.96 -7.02,-17.98 10.91,-38.69 28.93,-37.97 13.39,0.53 26.78,1.07 40.18,1.6 15.66,0.62 30.74,13.35 30,30 -0.67,14.77 -11.8,28.69 -27.07,29.78" /><path
             id="path104"
             style="fill:#a21f26;fill-opacity:1;fill-rule:nonzero;stroke:none"
             d="m 4284.32,4232.8 c -1.92,6.96 -7.3,14.5 -13.79,17.93 -4.52,2.39 -9.66,3.85 -14.83,4 -4.77,10.48 -15.05,18.48 -27.12,17.94 -15.96,-0.72 -30.37,-13.19 -30,-30 l 0.57,-26.42 c 0.3,-13.52 9.16,-25.01 22.03,-28.93 9.85,-3 21.36,-3 31.15,0.29 12.52,4.21 21.12,11.6 28.97,22.07 4.36,5.83 4.86,16.45 3.02,23.12" /><path
             id="path106"
             style="fill:#a21f26;fill-opacity:1;fill-rule:nonzero;stroke:none"
             d="m 4163.89,4621.07 -9.05,9.04 c -11.11,11.11 -31.46,11.94 -42.42,0 -11,-11.97 -11.86,-30.57 0,-42.42 3.01,-3.02 6.03,-6.03 9.04,-9.05 11.11,-11.11 31.47,-11.94 42.43,0 10.99,11.98 11.85,30.57 0,42.43" /><path
             id="path108"
             style="fill:#ffffff;fill-opacity:1;fill-rule:nonzero;stroke:none"
             d="m 2703.02,3598.58 c 0,-383.6 -251.4,-694.6 -561.5,-694.6 -305.2,0 -553.5,301.2 -561.3,676.5 -0.1,6 -0.2,12 -0.2,18.1 0,116.3 23.1,226 64,322.3 24.4,57.6 55.2,110.5 91.3,157.2 l 0.4,0.5 c 16.5,-5.5 33.2,-11 50.2,-16.4 -2.1,-2.5 -4.2,-5 -6.2,-7.5 212.5,-109.3 527.3,-231.6 866.5,-227.4 -1.1,3.7 -2.3,7.3 -3.5,11 9.9,-1.6 19,-3 27.2,-4.2 0.6,-2 1.2,-4.1 1.7,-6.2 19.8,-69.7 30.7,-144.6 31.3,-222.5 0.1,-2.2 0.1,-4.5 0.1,-6.8" /><path
             id="path110"
             style="fill:#ffffff;fill-opacity:1;fill-rule:nonzero;stroke:none"
             d="m 3936.08,3529.77 c 0,-341.9 -226.5,-619 -505.9,-619 -279.3,0 -505.8,277.1 -505.8,619 0,21.9 0.8,43.5 2.7,64.8 7.1,82.5 27.3,160.1 58,229.6 1.7,3.9 3.5,7.7 5.3,11.5 17.3,3 37,6.7 58.8,11.1 -3.8,-7.1 -7.5,-14.3 -11.1,-21.6 257.2,9.7 496.8,87.9 683.9,172.1 -6.7,6 -13.6,11.8 -20.6,17.4 11,3.3 21.9,6.5 32.8,9.8 5.2,-4.7 10.4,-9.6 15.3,-14.6 45.1,-44.9 83.6,-99 113.8,-160 40.5,-81.8 65.9,-176 71.4,-276.9 1,-14.3 1.4,-28.7 1.4,-43.2" /><path
             id="path112"
             style="fill:#d9933b;fill-opacity:1;fill-rule:nonzero;stroke:none"
             d="m 1554.97,3680.48 c -8.2,-24 -25.5,-44.8 -56.7,-57.6 -125.2,-51.1 -184,64 -294,15.4 -53.4,-23.6 -60.9,-79.2 -72.1,-141.5 -1.1,-6 -2.2,-12 -3.4,-18.1 -8.1,-41.1 -19.7,-84 -48.3,-121.9 l 2.4,-0.2 c -25.2,-31.4 -58.1,-56.5 -92.194,-71.2 -15.801,-6.8 -31.703,-11.4 -47.301,-13.3 -24.902,-3 -48.699,0.7 -68.902,13 -10.399,6.3 -19.797,14.8 -27.899,25.9 -35.601,49 -50.601,150.1 -63.601,259.4 l -0.098,0.5 c -5.602,47.3 -10.902,96.1 -17.301,142.9 v 0.2 c -11.199,81.2 -25.699,156.4 -51.601,207 -10.7,21 -26.399,51.9 -45.598,89.3 -114.801,224.7 -351.199,687.3 -351.199,687.3 35.5,14.3 71.097,28.1 106.797,41.8 2.5,-4.4 377.5,-662.9 425,-831.4 24.203,-85.8 6.902,-449.1 118.5,-459.6 87.097,69.1 101.697,366.9 261.497,330.6 159.8,-36.3 307,-115.4 294.5,75.2 0,0 56.4,-101.4 31.5,-173.7" /><path
             id="path114"
             style="fill:#d9933b;fill-opacity:1;fill-rule:nonzero;stroke:none"
             d="m 423.938,4739.45 0.054,-0.1 c 15.988,6.1 31.957,12.26 47.981,18.23 l -48.035,-18.13" /><path
             id="path116"
             style="fill:#d9933b;fill-opacity:1;fill-rule:nonzero;stroke:none"
             d="m 2778.17,180.781 -559.1,1152.399 -16.1,33.2 -13.9,28.6 c -20.9,57.1 -65.29,109.1 -68.1,112.21 2.3,-6.41 50.2,-144.21 -63.29,-163.91 -84.01,30.8 -75.31,229.5 -100.8,304.4 -40.4,118.6 -278.91,636.9 -278.91,636.9 475.65,176.76 587.22,450.18 590.65,661.77 -17.74,-15.57 -38.64,-27.02 -60.87,-33.56 -69.93,-280.47 -323.36,-488.31 -625.47,-488.31 -35.51,0 -70.4,2.9 -104.51,8.4 l -1.09,-4.4 c 0,0 345.09,-730.5 404.69,-983 l 0.11,-0.1 c 1.2,-5.29 2.3,-10.4 3.3,-15.2 3.39,-17 5.29,-31.3 5.29,-42.4 0,-85.7 104.9,-157.4 194.2,-148.8 l 5.11,-9.9 50.09,-98 523.9,-1025.299 c 44.31,-86.8005 168.51,-86.6013 212.6,0.399 l 59.4,117.3 c -106.59,-101.601 -157.2,-42.699 -157.2,-42.699" /><path
             id="path118"
             style="fill:#d9933b;fill-opacity:1;fill-rule:nonzero;stroke:none"
             d="m 695.375,4836.38 c 0,0 96.301,-12 273,-23.4 -267.5,-77.2 -472.699,-156.2 -602.301,-211.2 -29.898,58.5 -48.898,95.8 -48.898,95.8 51.398,20.7 103,40.7 154.797,60 h 0.203 c 74,27.7 148.398,53.9 223.199,78.8" /><path
             id="path120"
             style="fill:#d9933b;fill-opacity:1;fill-rule:nonzero;stroke:none"
             d="m 5200.67,4697.58 c 0,0 -20,-39.3 -52.2,-102.8 -1105.5,446.3 -2132.7,516.7 -2961.1,444.1 137.8,66.6 258.8,122.3 366.2,128.1 4.5,0.31 8.9,0.4 13.3,0.5 64,1.9 128.1,2.81 192.1,2.81 829.1,0 1658.3,-157.5 2441.7,-472.71" /><path
             id="path122"
             style="fill:#bb5f2f;fill-opacity:1;fill-rule:nonzero;stroke:none"
             d="m 4507.77,2989.28 c -12.2,-35.2 -45.1,-115.3 -103.9,-158.2 -39.4,-28.8 -90.2,-40.8 -154.2,-11.5 -5.1,2.3 -10.3,4.9 -15.6,7.8 -135.1,73.7 -120,199.5 -92,296.2 l 14.3,34.7 c -1.6,-7.8 -37.8,-191.8 118.8,-247.3 117.3,-41.7 191.7,4 232.6,78.3" /><path
             id="path124"
             style="fill:#bb5f2f;fill-opacity:1;fill-rule:nonzero;stroke:none"
             d="m 783.176,3569.88 9.797,-30.7 c -5.7,15.7 -8.899,27.3 -9.797,30.7" /><path
             id="path126"
             style="fill:#bb5f2f;fill-opacity:1;fill-rule:nonzero;stroke:none"
             d="m 1132.17,3496.78 c -1.1,-6 -2.2,-12 -3.4,-18.1 -8.1,-41.1 -19.7,-84 -48.3,-121.9 l 2.4,-0.2 c -25.2,-31.4 -58.1,-56.5 -92.194,-71.2 -15.801,-6.8 -31.703,-11.4 -47.301,-13.3 -24.902,-3 -48.699,0.7 -68.902,13 l -81.098,253 c 17.898,-48.5 59.5,-135.1 132.199,-149.7 101.796,-20.3 200.196,98.5 200.196,152.8 0,15.1 2.6,-6 6.4,-44.4" /><path
             id="path128"
             style="fill:#bb5f2f;fill-opacity:1;fill-rule:nonzero;stroke:none"
             d="m 2139.47,1131.08 -50.1,98 -5.1,9.9 c -89.3,-8.6 -194.2,63.1 -194.2,148.8 0,11.1 -1.9,25.4 -5.3,42.4 l 31.8,-34.7 c 0,0 63.4,-103.7 156.3,-82.9 93,20.9 101.9,114.5 101.9,114.5 l 28.2,-60.7 3,14.4 c 0,0 8.3,-18.9 13.1,-47.6 8.9,-52.6 6.2,-138.3 -79.6,-202.1" /><path
             id="path130"
             style="fill:#bd2d35;fill-opacity:1;fill-rule:nonzero;stroke:none"
             d="m 1424.67,2542.28 -315.2,672 c 152.01,130.81 103.7,283.8 155.6,324.9 51.81,41.1 88.5,-31.99 247.21,-25.8 40.2,1.55 71.21,14.66 95.13,33.36 -10.36,49.71 -14.93,101.41 -13.06,155.15 0.13,4.01 0.54,7.92 0.95,11.83 -4.34,0.09 -8.66,0.26 -13.02,0.26 -5.6,0 -11.11,-0.1 -16.51,-0.2 h -0.1 c -21.89,-110.4 -135.8,-118.3 -232.5,-79.09 -126.49,51.09 -204.39,-12.21 -204.39,-158.21 0,-101.6 -98.91,-193.8 -185.405,-204.4 155.805,-259.4 408.195,-805.1 408.195,-805.1 40.31,-15.5 82.61,-27 126.2,-34.1 34.11,-5.5 69,-8.4 104.51,-8.4 278.19,0 515.19,176.2 605.59,423.11 -318.2,-460.51 -763.2,-305.31 -763.2,-305.31" /><path
             id="path132"
             style="fill:#bd2d35;fill-opacity:1;fill-rule:nonzero;stroke:none"
             d="m 3510.27,1212.98 c -11.9,-29.7 -23.5,-60.1 -34.8,-90.9 -13.5,-36.9 -56.9,-41 -104.5,-38.3 -32.4,1.8 -66.8,6.8 -95.1,6.8 -356,0 -644.7,288.7 -644.7,644.8 0,144.4 47.5,277.7 127.7,385.1 -2.3,-8.4 -151.12,-531.92 125.3,-750.5 224.45,-177.48 457.4,-177.48 626.1,-157" /><path
             id="path134"
             style="fill:#bd2d35;fill-opacity:1;fill-rule:nonzero;stroke:none"
             d="m 3764.38,4916.36 c -358.65,0 -649.44,-290.79 -649.44,-649.44 0,-147.56 49.27,-283.53 132.14,-392.57 l 0.22,0.07 c 53.63,16.84 107.22,34.12 161.84,47.54 -102.87,103.3 -166.47,245.72 -166.47,403 0,315.43 255.75,571.18 571.19,571.18 315.43,0 571.18,-255.75 571.18,-571.18 0,-279.67 -201.1,-512.26 -466.53,-561.45 18.64,-36.51 31.61,-76.2 38.45,-117.01 264.7,82.03 456.96,328.72 456.96,620.42 0,358.65 -290.79,649.44 -649.54,649.44" /><path
             id="path136"
             style="fill:#bd2d35;fill-opacity:1;fill-rule:nonzero;stroke:none"
             d="m 2553.57,5166.98 c -105.3,-5.69 -223.6,-59.3 -358,-124.19 -449.3,-39.71 -1043.4,-177.81 -1250.894,-228.31 -48.102,-11.7 -75.403,-18.7 -75.403,-18.7 l -21.3,25.9 -41.598,50.5 c 569.395,178.11 1157.395,276.4 1747.195,294.8" /><path
             id="path138"
             style="fill:#fdfbc2;fill-opacity:1;fill-rule:nonzero;stroke:none"
             d="m 1253.07,3795.8 c 0,0 143.36,-57.65 190.03,-43.93 46.67,13.73 49.42,57.66 49.42,57.66 0,0 -56.13,-38.44 -239.45,-13.73" /><path
             id="path140"
             style="fill:#fdfbc2;fill-opacity:1;fill-rule:nonzero;stroke:none"
             d="m 4040.15,2694.59 c 0,0 -242.53,-387.65 -223.09,-431.71 19.44,-44.05 202.48,278.03 223.09,431.71" /><path
             id="path142"
             style="fill:#fdfbc2;fill-opacity:1;fill-rule:nonzero;stroke:none"
             d="m 1804.79,2146.06 c 0,0 125.28,-332.84 172.67,-414.46 47.39,-81.63 -64.3,297.87 -114.27,379.39 -49.97,81.53 -75.51,80 -58.4,35.07" /><path
             id="path144"
             style="fill:#fdfbc2;fill-opacity:1;fill-rule:nonzero;stroke:none"
             d="m 3030.44,680.332 c 0,0 -181.21,-338.613 -172.07,-380.941 9.15,-42.321 114.97,173.148 144.79,230.871 29.81,57.718 123.13,253.957 124.57,269.347 1.44,15.391 -72.89,-23.089 -97.29,-119.277" /><path
             id="path146"
             style="fill:#fdfbc2;fill-opacity:1;fill-rule:nonzero;stroke:none"
             d="m 642.773,4444.73 c 0,0 125.633,-266.26 163.602,-338.41 37.969,-72.14 108.453,-56.91 62.91,50.84 -45.543,107.75 -123.832,247.84 -156.793,305.53 -32.961,57.68 -126.906,102.47 -69.719,-17.96" /><path
             id="path148"
             style="fill:#fdfbc2;fill-opacity:1;fill-rule:nonzero;stroke:none"
             d="m 3127.75,4791.05 c 0,0 -136.49,-143.7 -134.86,-323.11 1.64,-179.4 32.35,-145.03 37.55,-98.67 5.2,46.35 100.76,365.73 183.8,426.55 83.03,60.83 -56.31,32.13 -86.49,-4.77" /><path
             id="path150"
             style="fill:#fdfbc2;fill-opacity:1;fill-rule:nonzero;stroke:none"
             d="m 3003.16,4254.62 c 0,0 -24.39,-57.35 0,-89.15 24.38,-31.8 40.88,-2.5 40.88,25.45 0,27.96 3.45,132.42 -40.88,63.7" /><path
             id="path152"
             style="fill:#fdfbc2;fill-opacity:1;fill-rule:nonzero;stroke:none"
             d="m 884.102,4005.24 c -16.75,-30.84 -7.692,-112.71 22.339,-123.56 30.028,-10.85 37.832,40.2 36.934,76.23 -0.898,36.04 -33.562,94.66 -59.273,47.33" /><path
             id="path154"
             style="fill:#d9933b;fill-opacity:1;fill-rule:nonzero;stroke:none"
             d="m 3247.3,3874.42 c 5.41,1.7 10.82,3.4 16.23,5.1 -87.05,109.91 -139.15,248.75 -139.15,399.86 0,40.3 3.69,79.71 10.8,118 -26.71,-71.2 -41.31,-148.4 -41.31,-228.9 0,-114.58 29.65,-222.18 81.53,-315.74 24.11,6.75 48.02,14.18 71.9,21.68" /><path
             id="path156"
             style="fill:#d9933b;fill-opacity:1;fill-rule:nonzero;stroke:none"
             d="m 3954.06,3661.72 c 7.37,-35.75 10.13,-72.48 7.82,-108.76 243.59,85.37 421.15,311.18 435.4,580.42 -52.29,-225.71 -223.06,-405.85 -443.22,-471.66" /><path
             id="path158"
             style="fill:#d9933b;fill-opacity:1;fill-rule:nonzero;stroke:none"
             d="m 3370.97,1083.78 -46.8,-92.3 c -26.7,-3.199 -53.9,-4.8 -81.5,-4.8 -385.5,0 -698,312.5 -698,698 0,385.5 312.5,698 698,698 24.7,0 49.1,-1.3 73.2,-3.8 -13.2,0.8 -26.6,1.2 -40,1.2 -356,0 -644.7,-288.7 -644.7,-644.7 0,-356.1 288.7,-644.8 644.7,-644.8 28.3,0 62.7,-5 95.1,-6.8" /><path
             id="path160"
             style="fill:#fdfbc2;fill-opacity:1;fill-rule:nonzero;stroke:none"
             d="m 2285.67,5046.79 c 0,0 -230.9,-166.61 -422.5,-251.01 -191.5,-84.3 -503.6,-107.1 -731,-76.7 -227.397,30.4 -262.897,76.7 -262.897,76.7 l 4.903,23.9 c 28.199,-2.2 59.699,-4.5 94.199,-6.7 101.295,-6.6 229.095,-13 380.395,-16.8 335.1,-8.4 610,132.1 838.6,242.7 8.8,4.2 17.5,8.41 26.1,12.6 l 72.2,-4.69" /><path
             id="path162"
             style="fill:#b97135;fill-opacity:1;fill-rule:nonzero;stroke:none"
             d="m 5200.67,4697.58 c -783.4,315.21 -1612.6,472.71 -2441.7,472.71 -64,0 -128.1,-0.91 -192.1,-2.81 -4.4,-0.1 -8.8,-0.19 -13.3,-0.5 -628.2,-19.6 -1254.3,-129.8 -1858.195,-330.6 -127.102,-42.3 -253.199,-88.5 -378.199,-138.8 -230.6018,174.2 -330.801,474.3 -253.801,752.8 40.598,16.3 81.301,32.3 122.098,47.91 -37.899,-200.91 -34.301,-391.5 131.703,-516.91 125,50.3 251.097,96.5 378.199,138.8 603.895,200.8 1229.995,311 1858.195,330.61 4.5,0.29 8.9,0.39 13.3,0.5 64,1.89 128.1,2.79 192.1,2.79 829.1,0 1658.3,-157.5 2441.7,-472.7 166,125.41 169.6,316 131.7,516.91 40.8,-15.61 81.5,-31.61 122.1,-47.91 77,-278.5 -23.2,-578.6 -253.8,-752.8" /><path
             id="path164"
             style="fill:#b97135;fill-opacity:1;fill-rule:nonzero;stroke:none"
             d="m 5200.67,4697.58 c -783.4,315.21 -1612.6,472.71 -2441.7,472.71 -64,0 -128.1,-0.91 -192.1,-2.81 -4.4,-0.1 -8.8,-0.19 -13.3,-0.5 -628.2,-19.6 -1254.3,-129.8 -1858.195,-330.6 -127.102,-42.3 -253.199,-88.5 -378.199,-138.8 -230.6018,174.2 -330.801,474.3 -253.801,752.8 40.598,16.3 81.301,32.3 122.098,47.91 -37.899,-200.91 -34.301,-391.5 131.703,-516.91 125,50.3 251.097,96.5 378.199,138.8 603.895,200.8 1229.995,311 1858.195,330.61 4.5,0.29 8.9,0.39 13.3,0.5 64,1.89 128.1,2.79 192.1,2.79 829.1,0 1658.3,-157.5 2441.7,-472.7 166,125.41 169.6,316 131.7,516.91 40.8,-15.61 81.5,-31.61 122.1,-47.91 77,-278.5 -23.2,-578.6 -253.8,-752.8" /><path
             id="path166"
             style="fill:#9f5825;fill-opacity:1;fill-rule:nonzero;stroke:none"
             d="m 5298.83,4804.2 c -814.89,327.87 -1677.43,491.7 -2539.85,491.7 -66.58,0 -133.25,-0.94 -199.83,-2.92 -4.57,-0.1 -9.15,-0.2 -13.83,-0.52 -653.45,-20.38 -1304.72,-135.01 -1932.894,-343.88 -132.211,-44 -263.379,-92.06 -393.406,-144.38 -13.965,10.55 -27.426,21.59 -40.465,33 38.847,-52.06 85.183,-99.25 138.621,-139.62 125,50.3 251.097,96.5 378.199,138.8 603.895,200.8 1229.995,311 1858.195,330.6 4.5,0.31 8.9,0.4 13.3,0.5 64,1.9 128.1,2.81 192.1,2.81 829.1,0 1658.3,-157.5 2441.7,-472.71 53.44,40.37 99.77,87.56 138.62,139.62 -13.03,-11.41 -26.49,-22.45 -40.46,-33" /><path
             id="path168"
             style="fill:#f8d7ba;fill-opacity:1;fill-rule:nonzero;stroke:none"
             d="m 5479.92,5276.28 c -1.19,58.08 -9.54,116.56 -25.45,174.1 -40.6,16.3 -81.3,32.3 -122.1,47.91 v 0 c 0.48,-2.53 0.95,-5.06 1.41,-7.59 -825.65,315.77 -1692.23,475.76 -2577.9,475.76 -883.39,0 -1747.69,-159.13 -2571.349,-473.21 0.313,1.67 0.625,3.35 0.942,5.04 v 0 c -40.797,-15.61 -81.5,-31.61 -122.098,-47.91 -0.4766,-1.71 -0.9375,-3.42 -1.3984,-5.13 -0.2657,-0.11 -0.4375,-0.18 -0.7032,-0.29 0.6993,2.65 1.4102,5.28 2.1407,7.92 860.8009,346.3 1767.6959,521.9 2695.5959,521.9 927.8,0 1834.7,-175.6 2695.5,-521.9 16.14,-58.38 24.44,-117.69 25.41,-176.6" /><path
             id="path170"
             style="fill:#e1b169;fill-opacity:1;fill-rule:nonzero;stroke:none"
             d="m 38.582,5295.51 c 2.1758,49.9 9.6368,99.99 22.6914,149.45 0.2657,0.11 0.4375,0.18 0.7032,0.29 -13.293,-49.53 -21.0078,-99.73 -23.3946,-149.74 m 128.992,69.4 c 2.84,41.9 8.903,84.87 16.957,128.34 823.659,314.08 1687.959,473.21 2571.349,473.21 885.67,0 1752.25,-159.99 2577.9,-475.76 7.82,-42.59 13.7,-84.68 16.49,-125.76 -829.65,319.15 -1700.83,480.89 -2591.26,480.89 -890.57,0 -1761.74,-161.74 -2591.436,-480.92" /><path
             id="path172"
             style="fill:#d79b4f;fill-opacity:1;fill-rule:nonzero;stroke:none"
             d="m 5477.07,5199.79 c -3.8,41.53 -11.2,83.07 -22.56,124.14 -34.67,13.95 -69.42,27.62 -104.24,41.01 -2.79,41.08 -8.67,83.17 -16.49,125.76 -0.46,2.53 -0.93,5.06 -1.41,7.59 v 0 c 40.8,-15.61 81.5,-31.61 122.1,-47.91 15.91,-57.54 24.26,-116.02 25.45,-174.1 0.42,-25.61 -0.54,-51.15 -2.85,-76.49 m -5436.2106,0 c -2.8867,31.68 -3.6719,63.67 -2.2774,95.72 2.4688,51.74 10.6368,103.67 24.793,154.87 40.598,16.3 81.301,32.3 122.098,47.91 v 0 c -0.317,-1.69 -0.629,-3.37 -0.942,-5.04 -8.054,-43.47 -14.117,-86.44 -16.957,-128.34 -34.769,-13.37 -69.5388,-27.05 -104.1599,-40.98 -11.3555,-41.07 -18.7539,-82.61 -22.5547,-124.14" /><path
             id="path174"
             style="fill:#f68c60;fill-opacity:1;fill-rule:nonzero;stroke:none"
             d="m 2148,2907.29 c -5.94,-46.84 -15.5,-96.23 -29.43,-148.41 -6.89,-26 -12.6,-49.9 -17,-71.9 35.9,48.7 65.11,102.71 86.3,160.61 7.77,21.22 14.3,43 19.83,65.18 -19.34,-5.69 -39.64,-7.68 -59.7,-5.48" /><path
             id="path176"
             style="fill:#f68c60;fill-opacity:1;fill-rule:nonzero;stroke:none"
             d="m 3780.27,2136.98 c -512.5,421.2 -1021.4,-16.5 -1021.4,-16.5 l 0.1,0.2 c 117.6,157.4 305.3,259.4 516.9,259.4 204.3,0 386.3,-95 504.4,-243.1" /><path
             id="path178"
             style="fill:#f68c60;fill-opacity:1;fill-rule:nonzero;stroke:none"
             d="m 4413.87,4279.38 c 0,-50.2 -5.7,-99.1 -16.6,-146 -43.8,682.2 -632.9,783 -632.9,783 l 36.9,6.9 c 341.1,-16.8 612.6,-298.6 612.6,-643.9" /><path
             id="path180"
             style="fill:#bb5f2f;fill-opacity:1;fill-rule:nonzero;stroke:none"
             d="m 4132.67,2965.68 c 0,125.4 101.78,364.16 -9.42,416.16 -3.98,1.86 -7.87,3.36 -11.73,4.67 12.51,-71.4 -24.5,-210.2 -24.5,-210.2 l -0.04,-0.04 c -8.02,-24.78 -19.41,-57.1 -33.11,-100.6 -34.6,-109.9 -17.3,-300.79 138.7,-368.79 l 57.1,112.7 2.6,5.1 c 15.2,-5.1 30.6,-8.5 46,-10.4 -48.9,12.4 -165.6,52.4 -165.6,151.4" /><path
             id="path182"
             style="fill:#d9933b;fill-opacity:1;fill-rule:nonzero;stroke:none"
             d="m 4539.67,3254.38 c -24.2,7.9 -39.1,6.1 -37.9,-11.4 5.5,-81.3 -88.6,-290.8 -162.99,-290.8 -68.46,0 -114.83,53.28 -86.41,135.15 l -0.17,-0.12 c 101.68,307.62 -140.68,299.3 -140.68,299.3 57.4,-29.84 65.77,-94.93 65.88,-129.64 0.41,-7.77 0.05,-15.47 -1.23,-22.89 -4.1,-24 -20.6,-63.8 -34.1,-110.4 -28,-96.7 -43.09,-222.5 92,-296.2 5.3,-2.9 10.5,-5.5 15.6,-7.8 64,-29.3 114.8,-17.3 154.2,11.5 58.8,42.9 91.7,123 103.9,158.2 3.1,8.9 4.8,14.9 5.3,16.7 l 0.1,0.5 c 3.5,23.5 5.1,49.3 4.5,77.6 -0.9,46.5 7.9,106.5 22,170.3" /><path
             id="path184"
             style="fill:#a21f26;fill-opacity:1;fill-rule:nonzero;stroke:none"
             d="m 3802.05,4942.46 c -11.7,0.55 -22.46,0.82 -32.9,0.82 -363.76,0 -659.71,-295.94 -659.71,-659.7 0,-153.91 53.13,-295.57 141.81,-407.92 10.19,3.2 20.38,6.42 30.57,9.63 -88.92,108.59 -142.38,247.3 -142.38,398.29 0,347.21 282.49,629.7 629.71,629.7 9.96,0 20.26,-0.26 31.45,-0.78 335.52,-16.53 598.34,-292.78 598.34,-628.92 0,-48.37 -5.46,-96.35 -16.21,-142.62 -52.31,-225.83 -219.93,-397.95 -432.76,-460.95 2.46,-9.71 4.61,-19.5 6.37,-29.38 224.03,65.45 400.63,246.17 455.61,483.55 11.28,48.48 16.99,98.74 16.99,149.4 0,352.15 -275.35,641.57 -626.89,658.88" /><path
             id="path186"
             style="fill:#a21f26;fill-opacity:1;fill-rule:nonzero;stroke:none"
             d="m 2771.86,2116.98 -0.9,-1.27 c -81.59,-109.27 -124.71,-239.34 -124.71,-376.13 0,-347.27 282.48,-629.8 629.69,-629.8 17.54,0 36.55,-1.78 56.67,-3.65 12.99,-1.21 26.42,-2.46 39.26,-3.17 55.11,-3.14 81.06,5.12 89.58,28.47 11.74,31.98 23.5,62.7 34.97,91.33 151.73,380.09 345.77,670.92 376.95,716.6 -10.15,30.3 -22.54,59.72 -36.87,87.55 -18.95,36.95 -41.79,72.24 -67.87,104.91 -120.35,150.91 -299.92,237.46 -492.69,237.46 -200.08,0 -383.75,-91.95 -504.08,-252.3 m 621.61,-1044.79 c -8.97,0 -17.01,0.46 -23.28,0.81 -13.39,0.75 -27.1,2.03 -40.36,3.26 -19.41,1.81 -37.74,3.52 -53.89,3.52 -363.76,0 -659.69,295.98 -659.69,659.8 0,142.84 44.88,278.68 129.82,392.94 l 0.96,1.34 c 126.03,168.68 318.81,265.42 528.91,265.42 201.95,0 390.07,-90.66 516.14,-248.75 27.32,-34.22 51.25,-71.2 71.11,-109.91 16.16,-31.39 29.97,-64.72 41.03,-99.04 l 2.3,-7.11 -4.3,-6.11 c -2.13,-3.03 -214.65,-307.69 -377.94,-716.74 -11.37,-28.38 -23.03,-58.82 -34.66,-90.51 -15.52,-42.47 -62.42,-48.92 -96.15,-48.92" /><path
             id="path188"
             style="fill:#a21f26;fill-opacity:1;fill-rule:nonzero;stroke:none"
             d="m 2190.27,2908.72 c -4.71,-17.46 -10.17,-34.73 -16.41,-51.78 -20.52,-56.05 -48.88,-108.83 -84.28,-156.85 -118.5,-160.56 -308.13,-256.41 -507.24,-256.41 -33.98,0 -68.34,2.76 -102.08,8.2 -40.19,6.55 -79.71,17.02 -117.58,31.16 -26.46,56.91 -249.03,533.59 -395.465,782.6 86.055,22.57 176.625,113.9 176.625,215.04 0,70.92 18.71,121.04 54.11,144.91 31.4,21.19 76.24,20.96 129.66,-0.61 69.79,-28.29 139.69,-29.93 187.01,-4.39 31.25,16.88 52.89,45.27 63.05,82.57 5.54,0.05 11.16,-0.11 16.76,-0.22 0.42,10.32 1.7,20.32 3.84,29.92 -5.31,0.13 -10.63,0.32 -15.93,0.32 -5.53,0 -10.96,-0.1 -16.59,-0.2 h -12.32 l -2.4,-12.08 c -6.86,-34.6 -23.91,-59.47 -50.66,-73.91 -39.55,-21.34 -99.91,-19.17 -161.51,5.8 -63.08,25.49 -117.63,24.68 -157.68,-2.32 -44.06,-29.72 -67.34,-88.43 -67.34,-169.79 0,-94.84 -92.57,-179.75 -172.223,-189.52 l -22.929,-2.8 11.894,-19.81 c 153.608,-255.73 404.928,-798.22 407.448,-803.67 l 2.55,-5.52 5.69,-2.18 c 41.5,-15.97 84.96,-27.71 129.18,-34.91 35.36,-5.7 71.31,-8.59 106.89,-8.59 208.6,0 407.25,100.41 531.38,268.6 37.1,50.33 66.8,105.62 88.32,164.35 8.6,23.52 15.68,47.47 21.52,71.7 -10.74,-4.42 -21.91,-7.63 -33.29,-9.61" /><path
             id="path190"
             style="fill:#e1dabc;fill-opacity:1;fill-rule:nonzero;stroke:none"
             d="m 2302.55,3027.05 c -305.21,0 -553.5,301.2 -561.3,676.5 -0.1,6 -0.2,12 -0.2,18.1 0,97.45 42.02,231.04 71.34,315.22 -23.89,10.78 -71.73,-16.46 -91.99,-0.39 -21.79,-33.97 -41.15,-70.43 -57.55,-109.13 -40.91,-96.3 -64,-206 -64,-322.3 0,-6.1 0.1,-12.1 0.2,-18.1 7.8,-375.3 256.1,-676.5 561.3,-676.5 145.2,0 277.6,68.2 377.3,180.3 -71.5,-40.9 -151.21,-63.7 -235.1,-63.7" /><path
             id="path192"
             style="fill:#e1dabc;fill-opacity:1;fill-rule:nonzero;stroke:none"
             d="m 3581.78,3014.09 c -291.8,0 -529.19,267.72 -536.65,601.3 -0.09,5.33 -0.19,10.66 -0.19,16.08 0,58.37 18.25,131.28 38.73,195.54 -7.52,0.1 -15.03,0.07 -22.54,-0.1 -22.86,-0.51 -45.66,-2.02 -68.52,-2.25 -5.79,-0.06 -11.45,0.27 -17.02,0.86 -1.8,-3.75 -3.69,-7.42 -5.42,-11.21 -39.11,-85.6 -61.19,-183.1 -61.19,-286.48 0,-5.42 0.1,-10.75 0.2,-16.08 7.45,-333.58 244.85,-601.3 536.65,-601.3 138.82,0 265.41,60.62 360.72,160.26 -68.35,-36.36 -144.56,-56.62 -224.77,-56.62" /><path
             id="path194"
             style="fill:#d1ac39;fill-opacity:1;fill-rule:nonzero;stroke:none"
             d="m 2678.96,3800.14 c -2.29,9.33 -4.74,18.58 -7.34,27.74 -0.5,2.1 -1.1,4.2 -1.7,6.2 -8.2,1.2 -17.3,2.6 -27.2,4.2 1.2,-3.7 2.4,-7.3 3.5,-11 -5.69,-0.07 -11.35,-0.11 -17.03,-0.11 -135.08,0 -266.05,19.79 -387.98,50.49 -159.82,52.1 -322.6,122 -455.45,184.33 0.05,0.07 0.11,0.13 0.16,0.19 -0.58,0.18 -1.15,0.37 -1.73,0.55 -171.62,80.59 -292.98,148.36 -292.98,148.36 36.52,120.05 147.37,161.48 290.16,161.48 232.85,0 550.55,-110.25 768.78,-169.6 30.37,-8.26 56.99,-11.9 80.37,-11.9 173.16,0 167.11,199.73 167.11,199.73 0,0 117.63,-540.29 -56.44,-581.44 -19.46,-4.6 -40.23,-7.62 -62.23,-9.22" /><path
             id="path196"
             style="fill:#dee3df;fill-opacity:1;fill-rule:nonzero;stroke:none"
             d="m 2639.38,3798.75 c -114.78,0 -255.29,32.34 -398.17,78.91 121.93,-30.7 252.9,-50.49 387.98,-50.49 5.68,0 11.34,0.04 17.03,0.11 -1.1,3.7 -2.3,7.3 -3.5,11 9.9,-1.6 19,-3 27.2,-4.2 0.6,-2 1.2,-4.1 1.7,-6.2 2.6,-9.16 5.05,-18.41 7.34,-27.74 -12.82,-0.93 -26.01,-1.39 -39.58,-1.39 m -853.62,263.24 c -0.51,0.24 -1.06,0.5 -1.57,0.74 0.58,-0.18 1.15,-0.37 1.73,-0.55 -0.05,-0.06 -0.11,-0.12 -0.16,-0.19" /><path
             id="path198"
             style="fill:#d1ac39;fill-opacity:1;fill-rule:nonzero;stroke:none"
             d="m 2985.34,3824.79 c -1,0.04 -1.99,0.09 -2.99,0.16 -100.74,124.6 -8.12,550 -8.12,550 0,0 -1.97,-65.19 28.62,-121.08 -2.75,-6.84 -22.44,-58.74 0.31,-88.4 7.53,-9.83 14.32,-13.82 20.09,-13.82 12.91,0 20.79,19.96 20.79,39.27 0,3.59 0.05,8.44 0.06,14.02 13.75,-10.43 30.21,-18.8 49.89,-23.97 -0.08,-4.15 -0.12,-8.31 -0.12,-12.49 0,-114.58 29.65,-222.18 81.53,-315.74 24.04,6.73 47.87,14.14 71.68,21.61 v 0 l 0.22,0.07 v 0 c 3.3,1.03 6.6,2.07 9.9,3.11 6.45,-8.27 13.08,-16.37 19.92,-24.31 -65.34,-12.66 -132.75,-21.78 -201.57,-26.15 -0.07,0 -0.14,0 -0.22,0 -4.73,0 -9.47,-0.06 -14.2,-0.16 -7.53,-0.17 -15.05,-0.45 -22.56,-0.75 3.44,6.96 6.98,13.83 10.61,20.61 -21.8,-4.4 -41.5,-8.1 -58.8,-11.1 -1.71,-3.6 -3.41,-7.2 -5.04,-10.88" /><path
             id="path200"
             style="fill:#c22c2c;fill-opacity:1;fill-rule:nonzero;stroke:none"
             d="m 3277.12,3853.22 c -6.84,7.94 -13.47,16.04 -19.92,24.31 50.33,15.85 100.68,31.84 151.94,44.43 -74.07,74.38 -127.79,169.06 -152.05,274.96 216.16,60.88 512.84,159.8 733.39,159.8 107.6,0 197.07,-23.54 250.27,-86.51 -3.38,1.59 -7.1,2.48 -11.02,2.48 -0.38,0 -0.76,0 -1.15,-0.02 -15.96,-0.72 -30.37,-13.19 -30,-30 l 0.57,-26.42 c 0.3,-13.52 9.16,-25.01 22.03,-28.93 4.81,-1.46 10.01,-2.21 15.22,-2.21 5.46,0 10.92,0.82 15.93,2.5 10.53,3.54 18.28,9.33 25.15,17.31 1.12,-3.17 2.17,-6.39 3.17,-9.68 0,0 -220.39,-123.07 -487.16,-234.73 -13.85,17.47 -28.54,33.96 -44.01,49.36 -4.9,5 -10.1,9.9 -15.3,14.6 -10.9,-3.3 -21.8,-6.5 -32.8,-9.8 7,-5.6 13.9,-11.4 20.6,-17.4 -127.57,-57.41 -279.55,-112.03 -444.86,-144.05 m 241.85,306.43 c -14.81,0 -29.39,-12.56 -29.87,-27.84 -12.11,-1.17 -23.02,-8.94 -26.48,-21.52 -3,-10.93 1.08,-23.44 9.55,-30.91 -5.33,-17.62 11.35,-38.02 29.68,-38.02 2.6,0 5.23,0.41 7.84,1.3 10.7,3.64 21.41,7.27 32.12,10.91 26.28,8.93 27.52,39.21 7.17,54.83 l -0.76,0.52 c 0.86,6.89 1.15,13.84 0.75,20.73 -0.95,16.18 -13.11,30 -30,30 m 231.47,64.11 c -11.31,0 -21.89,-3.95 -30.1,-11.02 -11.02,-2.82 -20.96,-9.82 -27.89,-20.49 -11.1,-17.11 -19.16,-36.74 -22.83,-56.81 -3.48,-19.12 2.12,-41.01 20.68,-50.82 7.31,-3.86 14.79,-5.69 22.14,-5.69 11.52,0 22.7,4.49 32.39,12.73 23.21,19.71 39.32,46.54 48.24,75.47 6.94,22.49 -8.23,50.07 -31.43,55.35 -3.77,0.86 -7.53,1.28 -11.2,1.28 m 229.48,39.72 c -13.5,0 -23.97,-8.61 -29.14,-21.85 -4.28,-10.99 -8.57,-21.97 -12.86,-32.96 -6.9,-17.67 10.31,-37.99 28.02,-37.99 0.3,0 0.61,0.01 0.91,0.02 13.39,0.53 26.78,1.07 40.18,1.6 15.66,0.62 30.74,13.35 30,30 -0.67,14.77 -11.8,28.69 -27.07,29.78 0.88,13.28 -9.67,27.63 -22.28,30.5 -2.68,0.61 -5.27,0.9 -7.76,0.9" /><path
             id="path202"
             style="fill:#c4634b;fill-opacity:1;fill-rule:nonzero;stroke:none"
             d="m 3712.44,4078.93 c -7.35,0 -14.83,1.83 -22.14,5.69 -18.56,9.81 -24.16,31.7 -20.68,50.82 3.67,20.07 11.73,39.7 22.83,56.81 6.93,10.67 16.87,17.67 27.89,20.49 8.21,7.07 18.79,11.02 30.1,11.02 3.67,0 7.43,-0.42 11.2,-1.28 23.2,-5.28 38.37,-32.86 31.43,-55.35 -8.92,-28.93 -25.03,-55.76 -48.24,-75.47 -9.69,-8.24 -20.87,-12.73 -32.39,-12.73" /><path
             id="path204"
             style="fill:#7d161a;fill-opacity:1;fill-rule:nonzero;stroke:none"
             d="m 3501.85,4041.36 c -18.33,0 -35.01,20.4 -29.68,38.02 -8.47,7.47 -12.55,19.98 -9.55,30.91 3.46,12.58 14.37,20.35 26.48,21.52 0.48,15.28 15.06,27.84 29.87,27.84 16.89,0 29.05,-13.82 30,-30 0.4,-6.89 0.11,-13.84 -0.75,-20.73 l 0.76,-0.52 c 20.35,-15.62 19.11,-45.9 -7.17,-54.83 -10.71,-3.64 -21.42,-7.27 -32.12,-10.91 -2.61,-0.89 -5.24,-1.3 -7.84,-1.3" /><path
             id="path206"
             style="fill:#7d161a;fill-opacity:1;fill-rule:nonzero;stroke:none"
             d="m 3965.94,4170.68 c -17.71,0 -34.92,20.32 -28.02,37.99 4.29,10.99 8.58,21.97 12.86,32.96 5.17,13.24 15.64,21.85 29.14,21.85 2.49,0 5.08,-0.29 7.76,-0.9 12.61,-2.87 23.16,-17.22 22.28,-30.5 15.27,-1.09 26.4,-15.01 27.07,-29.78 0.74,-16.65 -14.34,-29.38 -30,-30 -13.4,-0.53 -26.79,-1.07 -40.18,-1.6 -0.3,-0.01 -0.61,-0.02 -0.91,-0.02" /><path
             id="path208"
             style="fill:#7d161a;fill-opacity:1;fill-rule:nonzero;stroke:none"
             d="m 4236.4,4185.11 c -5.21,0 -10.41,0.75 -15.22,2.21 -12.87,3.92 -21.73,15.41 -22.03,28.93 l -0.57,26.42 c -0.37,16.81 14.04,29.28 30,30 0.39,0.02 0.77,0.02 1.15,0.02 3.92,0 7.64,-0.89 11.02,-2.48 15.46,-18.3 27.85,-39.93 36.73,-65.29 -6.87,-7.98 -14.62,-13.77 -25.15,-17.31 -5.01,-1.68 -10.47,-2.5 -15.93,-2.5" /><path
             id="path210"
             style="fill:#dee3df;fill-opacity:1;fill-rule:nonzero;stroke:none"
             d="m 3132.48,3782.9 c -21.32,0 -41.66,1.11 -61.05,3.46 3.89,13.78 8.02,27.4 12.24,40.65 -2.71,0.04 -5.41,0.06 -8.12,0.06 68.82,4.37 136.23,13.49 201.57,26.15 165.31,32.02 317.29,86.64 444.86,144.05 -6.7,6 -13.6,11.8 -20.6,17.4 11,3.3 21.9,6.5 32.8,9.8 5.2,-4.7 10.4,-9.6 15.3,-14.6 15.47,-15.4 30.16,-31.89 44.01,-49.36 -221.52,-92.72 -475.11,-177.58 -661.01,-177.61 m -141.19,41.75 c -2,0 -3.98,0.05 -5.95,0.14 1.63,3.68 3.33,7.28 5.04,10.88 17.3,3 37,6.7 58.8,11.1 -3.63,-6.78 -7.17,-13.65 -10.61,-20.61 -15.32,-0.62 -30.63,-1.35 -45.96,-1.5 -0.44,0 -0.88,-0.01 -1.32,-0.01" /><path
             id="path212"
             style="fill:#971c1f;fill-opacity:1;fill-rule:nonzero;stroke:none"
             d="m 3247.08,3874.35 v 0 c 0.07,0.02 0.14,0.04 0.22,0.07 l -0.22,-0.07 m 0.22,0.07 c 5.41,1.7 10.82,3.4 16.23,5.1 v 0 c 6.09,1.93 12.19,3.85 18.29,5.77 -67.19,82.05 -114.14,181.3 -133.07,290.05 21.56,0.69 45.75,4.38 72.96,11.78 11.52,3.13 23.33,6.41 35.38,9.8 24.26,-105.9 77.98,-200.58 152.05,-274.96 -51.26,-12.59 -101.61,-28.58 -151.94,-44.43 -3.3,-1.04 -6.6,-2.08 -9.9,-3.11" /><path
             id="path214"
             style="fill:#dadd9e;fill-opacity:1;fill-rule:nonzero;stroke:none"
             d="m 3023.25,4151.65 c -5.77,0 -12.56,3.99 -20.09,13.82 -22.75,29.66 -3.06,81.56 -0.31,88.4 9.93,-18.14 23.28,-35.29 41.25,-48.93 -0.01,-5.58 -0.06,-10.43 -0.06,-14.02 0,-19.31 -7.88,-39.27 -20.79,-39.27" /><path
             id="path216"
             style="fill:#b47420;fill-opacity:1;fill-rule:nonzero;stroke:none"
             d="m 3175.4,3852.74 c -51.88,93.56 -81.53,201.16 -81.53,315.74 0,4.18 0.04,8.34 0.12,12.49 7.56,-1.99 15.61,-3.5 24.16,-4.47 18.45,-112.29 65.43,-215.1 133.1,-300.84 4.09,1.29 8.18,2.58 12.28,3.87 0,-0.01 0,-0.01 0,-0.01 -5.41,-1.7 -10.82,-3.4 -16.23,-5.1 v 0 c -0.08,-0.03 -0.15,-0.05 -0.22,-0.07 -23.81,-7.47 -47.64,-14.88 -71.68,-21.61" /><path
             id="path218"
             style="fill:#7d161a;fill-opacity:1;fill-rule:nonzero;stroke:none"
             d="m 3251.25,3875.66 c -67.67,85.74 -114.65,188.55 -133.1,300.84 7.35,-0.84 15.07,-1.28 23.19,-1.28 2.44,0 4.91,0.04 7.41,0.12 18.93,-108.75 65.88,-208 133.07,-290.05 -6.1,-1.92 -12.2,-3.84 -18.29,-5.76 -4.1,-1.29 -8.19,-2.58 -12.28,-3.87" /><path
             id="path220"
             style="fill:#bbb89a;fill-opacity:1;fill-rule:nonzero;stroke:none"
             d="m 3071.43,3786.36 c -14.16,1.71 -27.77,4.08 -40.76,7.15 -19.61,4.64 -35.52,15.61 -48.32,31.44 1,-0.07 1.99,-0.12 2.99,-0.16 1.97,-0.09 3.95,-0.14 5.95,-0.14 0.44,0 0.88,0.01 1.32,0.01 15.33,0.15 30.64,0.88 45.96,1.5 7.51,0.3 15.03,0.58 22.56,0.75 4.73,0.1 9.47,0.16 14.2,0.16 0.08,0 0.15,0 0.22,0 2.71,0 5.41,-0.02 8.12,-0.06 -4.22,-13.25 -8.35,-26.87 -12.24,-40.65" /><path
             id="path222"
             style="fill:#d1ac39;fill-opacity:1;fill-rule:nonzero;stroke:none"
             d="m 2100.76,2399.28 -47.12,71.98 c 298.04,148.39 563.96,198.01 786.54,198.01 450.26,0 722.85,-203.25 722.85,-203.25 l -17.87,-47.35 c -337.89,85.08 -606.9,114.09 -816.73,114.09 -450.03,0 -627.67,-133.48 -627.67,-133.48" /><path
             id="path224"
             style="fill:#d1ac39;fill-opacity:1;fill-rule:nonzero;stroke:none"
             d="m 2572.95,2231.43 c 0,0 95.04,129.04 262.62,129.04 42.9,0 90.52,-8.45 142.55,-29.67 -26.98,-11.06 -53.14,-23.77 -78.3,-37.98 -21.26,1.73 -43.33,2.74 -65.85,2.74 -87.65,0 -181.98,-15.39 -261.02,-64.13" /><path
             id="path226"
             style="fill:#b47420;fill-opacity:1;fill-rule:nonzero;stroke:none"
             d="m 2913.77,2291.57 c -4.6,0.45 -9.26,0.87 -13.95,1.25 25.16,14.21 51.32,26.92 78.3,37.98 0.69,-0.28 1.39,-0.57 2.09,-0.85 -22.85,-11.46 -45.04,-24.27 -66.44,-38.38" /><path
             id="path228"
             style="fill:#c22c2c;fill-opacity:1;fill-rule:nonzero;stroke:none"
             d="m 3114.94,2250.28 c 0,0 -31.6,10.95 -81.56,22.08 11.12,3.94 22.52,7.73 34.15,11.34 15.49,-9.98 31.31,-21.1 47.41,-33.42" /><path
             id="path230"
             style="fill:#d46d43;fill-opacity:1;fill-rule:nonzero;stroke:none"
             d="m 3033.38,2272.36 c -21.06,4.69 -45.38,9.4 -71.97,13.35 17.62,10.18 35.73,19.49 54.26,27.88 16.88,-8.58 34.15,-18.49 51.86,-29.89 -11.63,-3.61 -23.03,-7.4 -34.15,-11.34" /><path
             id="path232"
             style="fill:#7d161a;fill-opacity:1;fill-rule:nonzero;stroke:none"
             d="m 2961.41,2285.71 c -15.2,2.26 -31.13,4.26 -47.64,5.86 21.4,14.11 43.59,26.92 66.44,38.38 11.61,-4.81 23.42,-10.24 35.46,-16.36 -18.53,-8.39 -36.64,-17.7 -54.26,-27.88" /><path
             id="path234"
             style="fill:#fdfbc2;fill-opacity:1;fill-rule:nonzero;stroke:none"
             d="m 4482.29,4769.54 c 0,0 -22.76,-337.34 221.02,-336.06 0,0 -280.83,-100.83 -221.02,336.06" /><path
             id="path236"
             style="fill:#fdfbc2;fill-opacity:1;fill-rule:nonzero;stroke:none"
             d="m 4588.62,4390.8 c 0,0 -103.69,-163.98 29.4,-332.83 0,0 -205.85,113.36 -29.4,332.83" /><path
             id="path238"
             style="fill:#100f0d;fill-opacity:1;fill-rule:nonzero;stroke:none"
             d="m 2428.74,3560.17 c -36.39,0 -65.89,29.5 -65.89,65.8 0,36.4 29.5,65.9 65.89,65.9 36.41,0 65.91,-29.5 65.91,-65.9 0,-36.3 -29.5,-65.8 -65.91,-65.8 z m -65.89,189.2 c -104.5,0 -189.21,-84.7 -189.21,-189.2 0,-104.6 84.71,-189.3 189.21,-189.3 104.6,0 189.3,84.7 189.3,189.3 0,104.5 -84.7,189.2 -189.3,189.2" /><path
             id="path240"
             style="fill:#100f0d;fill-opacity:1;fill-rule:nonzero;stroke:none"
             d="m 3305.15,3560.17 c -36.41,0 -65.8,29.5 -65.8,65.8 0,36.4 29.39,65.9 65.8,65.9 36.39,0 65.9,-29.5 65.9,-65.9 0,-36.3 -29.51,-65.8 -65.9,-65.8 z m -65.8,189.2 c -104.6,0 -189.3,-84.7 -189.3,-189.2 0,-104.6 84.7,-189.3 189.3,-189.3 104.49,0 189.2,84.7 189.2,189.3 0,104.5 -84.71,189.2 -189.2,189.2" /><path
             id="path242"
             style="fill:#100f0d;fill-opacity:1;fill-rule:nonzero;stroke:none"
             d="m 2707.75,3831.57 c -3.71,0 -8,0.3 -12.9,0.7 v 0.1 c -13.41,1.1 -30.91,3.6 -52.1,7.1 25.3,-76 39.3,-159.1 39.3,-246.1 0,-359.2 -237.7,-651.5 -529.8,-651.5 -292.1,0 -529.8,292.3 -529.8,651.5 0,184.5 62.8,351.4 163.5,470 -30.7,9.8 -60.7,19.7 -89.61,29.5 -98.09,-128.5 -157.89,-299.8 -157.89,-487.8 0,-398.4 268.5,-721.4 599.8,-721.4 331.2,0 599.6,323 599.6,721.4 0,79.1 -10.6,155.3 -30.1,226.5" /><path
             id="path244"
             style="fill:#100f0d;fill-opacity:1;fill-rule:nonzero;stroke:none"
             d="m 3776.95,4042.27 c -25.51,-7.9 -51.2,-15.7 -77.2,-23.4 130.8,-104.3 217.6,-285.8 217.6,-491.8 0,-322.7 -213,-585.2 -474.7,-585.2 -261.7,0 -474.6,262.5 -474.6,585.2 0,119.7 29.3,231.1 79.5,323.9 -40.4,-8.2 -73.71,-14 -98,-17 -2.7,-0.3 -5.31,-0.6 -7.7,-0.9 -37,-88.5 -57.91,-188.5 -57.91,-294.3 0,-361.8 243.91,-655.1 544.61,-655.1 300.8,0 544.7,293.3 544.7,655.1 0,202.4 -76.3,383.4 -196.3,503.5" /><path
             id="path246"
             style="fill:#100f0d;fill-opacity:1;fill-rule:nonzero;stroke:none"
             d="m 1505.9,4221.92 c 0,0 18.96,-9.76 52.15,-26.84 16.5,-8.54 36.87,-18.31 59.9,-29.83 23.2,-11.27 49.2,-24.1 77.84,-37.45 28.49,-13.59 59.59,-27.73 92.45,-42.5 32.98,-14.55 67.68,-29.82 103.95,-44.65 18.04,-7.6 36.62,-14.75 55.23,-22.39 18.77,-7.21 37.77,-14.51 56.92,-21.87 38.53,-13.99 77.55,-28.48 117.19,-40.96 19.66,-6.76 39.5,-12.89 59.32,-18.81 19.75,-6.18 39.59,-11.6 59.24,-17.26 9.8,-2.93 19.66,-5.41 29.48,-7.85 9.79,-2.59 19.53,-5.17 29.21,-7.73 19.39,-5.03 38.76,-8.97 57.66,-13.77 18.97,-4.39 37.8,-7.73 56.12,-11.91 18.37,-3.8 36.5,-6.55 54.08,-10.03 35.26,-5.82 68.79,-11.29 99.94,-14.79 15.56,-2.15 30.52,-4.02 44.79,-5.17 14.3,-1.44 27.87,-2.8 40.63,-4.08 25.7,-1.81 48.1,-3.39 66.55,-4.69 18.49,-0.42 33.17,-1.48 43.18,-1.88 10.05,-0.62 15.4,-0.95 15.4,-0.95 0,0 -5.19,-1.26 -14.94,-3.63 -9.78,-2.14 -24.13,-5.75 -42.58,-9.42 -18.47,-3.27 -41.03,-6.82 -67.09,-10.35 -26.06,-2.18 -55.68,-5.75 -88.03,-6.15 -32.4,-1.39 -67.52,-0.54 -104.67,1.26 -18.53,1.31 -37.62,2.63 -57.06,4.55 -19.38,2.19 -39.21,4.61 -59.3,7.48 -40.1,6.22 -81.4,13.82 -122.77,23.97 -41.42,9.9 -83.07,21.71 -124.11,35.22 -82.1,27.01 -161.87,60.43 -233.87,96.91 -36.17,17.9 -70.15,37.08 -102.04,55.67 -31.73,18.91 -61.23,37.55 -87.81,55.73 -53.3,36.11 -95.26,69.63 -123.63,94.19 -14.35,12.05 -24.99,22.34 -32.34,29.16 -7.3,6.91 -10.99,10.82 -10.99,10.82" /><path
             id="path248"
             style="fill:#100f0d;fill-opacity:1;fill-rule:nonzero;stroke:none"
             d="m 4107.29,4221.92 c 0,0 -3.6,-3.86 -10.76,-10.66 -7.2,-6.72 -17.62,-16.86 -31.68,-28.73 -27.78,-24.2 -68.89,-57.22 -121.12,-92.84 -26.05,-17.91 -54.93,-36.34 -86.03,-54.98 -31.23,-18.4 -64.56,-37.27 -99.97,-55.03 -35.25,-18.08 -72.45,-35.34 -110.84,-51.54 -38.44,-16.11 -78.02,-31.3 -118.26,-44.72 -40.21,-13.48 -81,-25.37 -121.58,-35.4 -40.53,-10.25 -81,-18.06 -120.29,-24.53 -19.7,-2.95 -39.12,-5.58 -58.13,-7.91 -19.07,-2.02 -37.77,-3.58 -55.94,-5.06 -36.45,-2.15 -70.9,-3.39 -102.72,-2.46 -31.76,-0.01 -60.88,3.08 -86.49,4.86 -25.64,3.09 -47.84,6.22 -66.02,9.16 -18.17,3.3 -32.32,6.62 -41.96,8.57 -9.61,2.16 -14.73,3.32 -14.73,3.32 0,0 5.26,0.44 15.1,1.26 9.82,0.61 24.22,1.96 42.36,2.75 18.09,1.62 40.06,3.59 65.26,5.85 12.5,1.48 25.8,3.06 39.83,4.72 13.99,1.38 28.64,3.42 43.89,5.79 30.53,3.94 63.37,9.78 97.93,15.95 17.22,3.62 34.97,6.62 52.98,10.51 17.96,4.02 36.31,8.13 54.97,12.31 18.51,4.9 37.47,9.04 56.48,14.09 9.48,2.61 19.02,5.23 28.61,7.87 9.61,2.52 19.29,4.98 28.89,7.94 38.49,11.34 77.6,22.86 116.16,36.24 19.44,6.19 38.68,13 57.81,19.93 19.2,6.71 38.15,13.94 57.04,20.89 18.77,7.29 37.4,14.52 55.8,21.66 18.24,7.59 36.47,14.63 54.16,22.15 35.54,14.7 69.63,29.68 101.96,44.05 32.26,14.51 62.76,28.44 90.74,41.77 28.12,13.11 53.65,25.72 76.43,36.75 22.62,11.3 42.65,20.85 58.85,29.22 32.63,16.71 51.27,26.25 51.27,26.25" /><path
             id="path250"
             style="fill:#100f0d;fill-opacity:1;fill-rule:nonzero;stroke:none"
             d="m 2852.66,4439.19 c 0,0 -38.2,-462.46 205.69,-392.76 208.32,59.53 753.83,293.25 873.6,289.42 119.78,-3.83 203.93,-24.31 203.93,-24.31 0,0 -169.03,240.35 -322.5,224.83 -266.4,-26.95 -731.55,-232 -856,-229.36 -52.63,1.12 -104.72,132.18 -104.72,132.18" /><path
             id="path252"
             style="fill:#100f0d;fill-opacity:1;fill-rule:nonzero;stroke:none"
             d="m 2778.24,4439.19 c 0,0 38.19,-462.46 -205.7,-392.76 -208.32,59.53 -753.82,293.25 -873.6,289.42 -119.78,-3.83 -203.93,-24.31 -203.93,-24.31 0,0 169.03,240.35 322.51,224.83 266.4,-26.95 731.55,-232 856,-229.36 52.63,1.12 104.72,132.18 104.72,132.18" /><path
             id="path254"
             style="fill:#100f0d;fill-opacity:1;fill-rule:nonzero;stroke:none"
             d="m 4544.19,4875.4 c 0,0 0.53,-2.65 1.53,-7.61 0.84,-4.95 2.52,-12.19 4.03,-21.32 3.31,-18.03 8.04,-43.8 13.72,-74.71 5.81,-30.45 12.39,-65.67 21.88,-101.53 4.77,-17.9 10.28,-35.93 16.85,-53.11 6.74,-17.07 14.49,-33.43 24.02,-46.48 9.2,-13.53 19.95,-22.55 31.45,-27.74 l 2.17,-1.02 1.09,-0.52 0.27,-0.14 c -2.78,0.8 -0.64,0.18 -1.2,0.34 l 0.23,-0.07 0.92,-0.27 7.36,-2.19 c 4.86,-1.55 9.71,-3.09 14.52,-4.62 8.64,-1.96 16.12,-4 24.79,-5.78 8.74,-1.45 17.33,-3.23 25.97,-4.05 4.32,-0.53 8.59,-1.05 12.81,-1.56 4.27,-0.27 8.5,-0.53 12.66,-0.79 16.74,-1.27 32.85,-1 47.93,-0.75 15.04,0.65 29.06,1.52 41.53,2.82 12.47,1.27 23.56,2.41 32.63,3.82 18.21,2.62 28.93,4.65 28.93,4.65 0,0 -1.98,-1.88 -5.99,-5.02 -4.06,-3 -9.94,-7.78 -18.05,-12.67 -8.04,-5.09 -18.03,-11.05 -30.06,-16.78 -11.99,-5.89 -26.02,-11.46 -41.78,-16.75 -15.87,-4.78 -33.46,-9.43 -52.67,-11.97 -4.79,-0.72 -9.67,-1.32 -14.63,-1.88 -5,-0.3 -10.06,-0.59 -15.17,-0.89 -10.27,-0.99 -20.82,-0.02 -31.6,0.19 -10.79,0.45 -22.88,2.5 -34.07,4.13 -4.94,1.04 -9.91,2.1 -14.91,3.16 l -7.47,1.74 -0.94,0.21 -1.89,0.53 -0.62,0.21 -2.5,0.88 -5.01,1.81 c -13.52,4.58 -25.73,12.25 -36.59,20.89 -10.38,8.97 -19.63,18.86 -27,29.33 -14.71,21.09 -24.39,43.22 -31.17,64.97 -6.9,21.73 -10.99,43.18 -13.61,63.77 -5.25,41.22 -4.26,79.2 -1.42,111.38 2.98,32.19 8.2,58.58 12.78,76.88 2.04,9.15 4.45,16.27 5.81,21.12 1.49,4.84 2.47,7.39 2.47,7.39" /><path
             id="path256"
             style="fill:#100f0d;fill-opacity:1;fill-rule:nonzero;stroke:none"
             d="m 4309.68,4846.29 c 0,0 1.67,-1.86 4.53,-5.55 2.73,-3.73 7.11,-9.08 11.75,-16.33 9.74,-14.33 22.49,-35.52 34.75,-62.58 6.01,-13.57 12.12,-28.52 17.45,-44.85 5.45,-16.26 10.12,-33.93 13.76,-52.64 3.45,-18.77 6.17,-38.59 6.2,-59.39 0.64,-20.69 -1.65,-42.39 -6.73,-64.16 -4.99,-21.65 -14.6,-43.62 -28.21,-62.67 -3.59,-4.69 -6.96,-9.49 -10.8,-13.88 -4.24,-4.06 -8.46,-8.1 -12.66,-12.11 -4.01,-4.2 -9.02,-7.1 -13.57,-10.46 -4.71,-3.1 -9.14,-6.74 -14.2,-8.84 -9.9,-4.61 -19.36,-9.84 -29.3,-12.03 -4.87,-1.38 -9.68,-2.73 -14.43,-4.08 -4.76,-0.94 -9.46,-1.54 -14.1,-2.14 -4.6,-0.57 -9.14,-1.14 -13.62,-1.7 -4.43,-0.23 -8.77,-0.21 -13.03,-0.17 -8.5,0.29 -16.7,-0.32 -24.32,1.03 -7.58,1.05 -14.85,2.06 -21.76,3.02 -6.85,1.05 -13.13,2.97 -19.07,4.45 -5.9,1.64 -11.4,2.99 -16.42,4.59 -5.02,1.52 -9.48,3.53 -13.56,5.02 -8.13,3 -14.34,5.99 -18.59,7.75 -4.21,1.95 -6.46,2.99 -6.46,2.99 0,0 2.48,0.34 7.12,0.98 4.6,0.45 11.37,1.52 19.76,2.08 8.39,0.4 18.56,2.1 29.93,3.59 5.67,0.92 11.72,1.04 17.92,2.42 6.13,1.15 12.58,2.37 19.31,3.64 6.75,0.85 13.28,3.25 20.14,4.96 3.38,1.01 6.89,1.67 10.31,2.72 3.28,1.27 6.61,2.56 9.99,3.87 3.33,1.24 6.7,2.49 10.12,3.76 3.12,1.63 6.27,3.28 9.47,4.96 6.63,2.9 12.08,7.25 17.93,11.09 10.76,8.77 20.67,18.14 27.65,30.54 7.01,12.18 13.32,25.67 16.5,41.35 3.9,15.29 6.04,31.79 6.88,48.66 0.63,8.36 0.53,16.92 0.76,25.36 -0.08,8.48 -0.38,16.94 -0.61,25.34 -0.89,16.78 -1.94,33.28 -3.62,49.04 -1.46,15.78 -3.31,30.82 -4.97,44.84 -3.67,28.44 -6.72,52.13 -8.86,68.72 -1.26,8.37 -1.83,15.18 -2.51,19.72 -0.54,4.62 -0.83,7.09 -0.83,7.09" /><path
             id="path258"
             style="fill:#100f0d;fill-opacity:1;fill-rule:nonzero;stroke:none"
             d="m 4670.73,3966.77 c 0,0 -1.66,2.16 -4.47,6.38 -2.7,4.25 -7.04,10.38 -11.63,18.57 -9.62,16.21 -22.2,40.01 -34.28,69.99 -11.94,30.01 -23.78,66.11 -30.56,107.11 -3.39,20.48 -5.62,42.2 -5.24,64.99 0.26,22.78 3.19,46.76 11.23,71.18 4.06,12.14 10.09,24.27 17.47,35.84 7.92,11.4 17.42,22.24 29.06,30.51 l 4.28,3.16 2.14,1.56 0.54,0.39 1.66,1.04 0.84,0.48 6.66,3.8 c 4.48,2.45 8.94,4.89 13.38,7.31 10.25,4.76 21.24,10.19 31.45,13.71 10.28,3.29 20.1,7.25 30.22,9.25 4.98,1.18 9.91,2.34 14.79,3.49 4.91,0.88 9.76,1.71 14.56,2.39 19.12,3.08 37.31,3.66 53.88,3.63 16.62,-0.54 31.66,-1.86 44.83,-4.06 13.17,-2.05 24.45,-4.89 33.61,-7.47 9.17,-2.36 16.18,-5.25 20.92,-6.97 4.75,-1.85 7.18,-3.08 7.18,-3.08 0,0 -10.85,-1.14 -29.05,-3.84 -9.09,-1.25 -20.04,-3.34 -32.35,-5.7 -12.32,-2.32 -26,-5.51 -40.59,-9.2 -14.52,-4.08 -30.04,-8.44 -45.71,-14.45 -3.91,-1.45 -7.88,-2.91 -11.9,-4.39 -3.9,-1.7 -7.84,-3.43 -11.82,-5.17 -8.05,-3.26 -15.76,-7.43 -23.72,-11.32 -7.81,-4.19 -14.39,-8.29 -22.1,-12.64 -4.17,-2.85 -8.37,-5.72 -12.59,-8.6 l -6.42,-4.2 -0.8,-0.53 -0.2,-0.13 c 0.49,0.31 -1.39,-0.89 1.05,0.67 l -0.22,-0.2 -0.89,-0.82 -1.79,-1.6 c -9.53,-8.27 -17.25,-19.99 -22.18,-35.59 -5.39,-15.23 -8.12,-33.13 -9.68,-51.41 -1.39,-18.35 -1.49,-37.2 -0.93,-55.72 1.19,-37.07 4.97,-72.71 8.14,-103.54 3.42,-31.24 6.28,-57.28 8.27,-75.5 1.18,-9.18 1.64,-16.61 2.25,-21.59 0.46,-5.03 0.71,-7.73 0.71,-7.73" /><path
             id="path260"
             style="fill:#100f0d;fill-opacity:1;fill-rule:nonzero;stroke:none"
             d="m 4461.87,3944.6 c 0,0 -0.39,2.31 -1.14,6.63 -0.6,4.29 -1.9,10.61 -2.98,18.5 -2.46,15.54 -5.98,37.73 -10.2,64.36 -2.21,13.07 -4.43,27.12 -7.26,41.73 -2.55,14.66 -5.97,29.79 -9.32,45.24 -3.9,15.27 -7.73,30.96 -12.83,46.06 -4.92,15.22 -10.63,30.01 -17.56,43.67 -6.33,14.13 -14.95,25.99 -23.36,37.45 -9.27,10.49 -18.81,20.31 -29.98,27.67 -5.28,4.21 -11.58,6.5 -17.11,10.29 -6.21,2.43 -12.18,5.34 -18.41,7.57 -6.38,1.8 -12.57,4.01 -18.88,5.55 -6.49,1.31 -12.76,2.58 -18.77,3.79 -6.18,0.95 -12.24,1.32 -18.05,2.13 -2.94,0.37 -5.8,0.73 -8.58,1.09 -2.81,0.1 -5.54,0.21 -8.2,0.31 -10.62,0.29 -20.32,1.64 -28.17,1.21 -7.88,-0.19 -14.33,0.26 -18.69,0.29 -4.42,0.21 -6.78,0.32 -6.78,0.32 0,0 1.98,1.24 5.69,3.55 3.78,2.14 9.27,5.67 16.59,9.4 7.19,4.19 16.49,7.78 27.35,11.98 2.74,1.02 5.57,2.07 8.48,3.15 3.01,0.79 6.11,1.61 9.28,2.44 6.41,1.6 13.2,3.29 20.45,4.7 7.33,0.9 15.06,1.6 23.17,2.4 8.13,0.43 16.69,-0.38 25.56,-0.65 8.87,-0.74 17.94,-3.06 27.36,-4.78 4.59,-1.43 9.22,-3.01 13.88,-4.7 4.67,-1.69 9.48,-3.23 13.91,-5.74 4.53,-2.31 9.16,-4.6 13.7,-7.15 4.57,-2.49 8.58,-5.83 12.94,-8.8 8.95,-5.79 16.22,-13.42 23.94,-20.82 14.21,-15.57 26.55,-33.18 35.41,-51.63 4.68,-9.2 8.13,-18.68 11.81,-28.02 3.17,-9.41 6.18,-18.91 8.28,-28.3 2.55,-9.38 4.15,-18.75 5.58,-28 1.59,-9.22 2.36,-18.32 3.2,-27.27 2.6,-35.77 0.16,-68.66 -4.25,-96.28 -2.29,-13.82 -4.94,-26.34 -7.81,-37.33 -2.8,-11 -5.94,-20.44 -8.58,-28.15 -2.47,-7.73 -5.24,-13.67 -6.84,-17.72 -1.73,-4.05 -2.83,-6.14 -2.83,-6.14" /><path
             id="path262"
             style="fill:#100f0d;fill-opacity:1;fill-rule:nonzero;stroke:none"
             d="m 5191.87,4731.79 c -778.36,310.38 -1597.84,467.73 -2436.09,467.73 -64.3,0 -128.47,-1.04 -192.54,-2.89 v 0.01 l -0.5,-0.02 C 1791.74,5174.3 1038.19,5018.3 319.688,4731.79 117.793,4893.99 26.6914,5165.69 89.6016,5418.69 941.371,5758.95 1838.3,5931.46 2755.78,5931.46 c 917.48,0 1814.41,-172.51 2666.18,-512.77 62.91,-253 -28.19,-524.7 -230.09,-686.9 z M 866.137,4849.31 c 456.793,138.94 925.603,226.58 1402.153,262.06 -40.98,-18.62 -83.36,-39.12 -127.45,-60.5 -225.61,-109.39 -481.3,-233.35 -794.33,-225.51 -206.08,5.17 -369.104,15.23 -480.373,23.95 z M 4627.43,3643.28 c -51.5,-116.4 -151,-411.4 -147.8,-565.7 2.1,-106.2 -28.7,-183.2 -86.7,-216.9 -49.4,-28.6 -117.8,-23.8 -178.4,12.6 -93.1,55.8 -56.2,192.1 -13.6,304.7 1.8,5 3.6,9.5 5,13.5 25,67.8 -1.2,144.3 -60.9,177.9 -8.78,4.96 -18.43,9 -28.8,11.86 41.73,-43.17 35.2,-112.08 28.76,-145.73 -0.74,-6.64 -2.26,-13.3 -4.66,-19.83 -1.5,-3.8 -3.1,-8.2 -4.9,-13 -30.7,-81 -112.2,-296.3 43.1,-389.5 7.4,-4.4 14.8,-8.4 22.4,-12.1 l -358.9,-708.8 -32.1,-63.4 c 17.1,-30.7 31.8,-63.2 43.6,-97.3 -45.3,-67.1 -258.8,-393.8 -409.4,-805 -7.9,-21.6 -47.3,-21.3 -99.4,-16.8 l -29.2,-57.6 -473.9,-936 c -14.6,-28.8011 -42.7,-46.098 -75,-46.1995 h -0.2 c -32.3,0 -60.4,17.1992 -75,45.8985 l -559.2,1094.201 c 13,5.3 25.2,12.2 36.2,20.8 47.1,36.6 93.7,203.2 -50.3,267.2 0,0 80.5,-155 7.4,-211.9 -37.4,-29.1 -90.5,-20 -127.7,-1.9 -46.1,22.6 -75.9,61 -75.9,97.7 0,151.9 -303.3,812.7 -394.8,1008.8 l -28.7,63.1 c -43.7,5.8 -86.5,16.1 -127.9,31.1 -35.1,75.3 -239.1,510.5 -381.6,757.7 85.7,31.4 171.7,123 171.7,228 0,63 16.1,108.6 45.3,128.3 32.4,21.8 78.2,10.7 111,-2.6 43.36,-17.54 85.52,-25.37 123.57,-23.91 15,1.31 60.77,11.83 60.93,91.61 -31.9,-27.7 -94,-28.8 -158.3,-2.8 -87.9,35.5 -144.4,17.3 -176.3,-4.2 -34.8,-23.5 -76.2,-74.8 -76.2,-186.4 0,-75.2 -67.9,-143.7 -130.696,-164.2 -27.403,-8.9 -64.903,-12.7 -88.204,19.3 -34.699,47.7 -48.597,167.8 -62,284 -13.898,120.1 -28.3,244.2 -67.699,321.4 l -379.301,742.3 c 110.098,43.5 221.098,84.1 332.797,121.5 43.903,-5.1 277.606,-30.3 649.203,-39.6 9.9,-0.2 19.6,-0.4 29.3,-0.4 317,0 582.7,128.8 797.3,232.9 151.4,73.4 282.1,136.7 392,138.7 64,1.9 128.2,2.9 192.4,2.9 823.3,0 1628.2,-153.5 2393.2,-456.1 -101.1,-198.9 -510.9,-1006.1 -521.5,-1030.1 z m 857.64,1810.67 c -2.91,10.51 -10.55,19.07 -20.67,23.14 -864.98,347.95 -1776.29,524.37 -2708.62,524.37 -932.33,0 -1843.647,-176.42 -2708.6159,-524.37 -10.1211,-4.07 -17.7696,-12.63 -20.6758,-23.14 -79.7891,-288.7 24.6367,-602.91 259.8597,-784.86 l 393.34,-769.81 c 33.652,-65.85 47.296,-183.64 60.484,-297.54 15.168,-130.92 29.488,-254.58 74.961,-317.1 25.832,-35.52 64.652,-54.25 109.258,-54.25 l 2.265,0.1 c 153.844,-262.4 392.134,-776.64 394.594,-781.95 3.28,-7.09 9.2,-12.62 16.49,-15.42 34.76,-13.31 70.4,-23.49 106.66,-30.84 115.83,-245.58 407.49,-891.76 407.49,-1020.3 0,-64.25 44.15,-125.76 115.22,-160.55 30.74,-15.05 62.49,-22.87 92.9,-23.77 L 2629.05,84.0586 C 2655.56,32.1914 2708.17,0 2766.42,0 h 0.3 c 58.35,0.109375 110.97,32.5195 137.33,84.582 l 487.54,962.808 c 47.54,0.42 91.73,11.65 108.91,58.56 v 0 c 165.61,452.09 408.34,800.28 410.78,803.74 5.4,7.7 6.88,17.48 4.01,26.42 -9.1,28.31 -19.99,55.63 -32.39,81.96 l 384.51,759.41 c 17.61,-3.8 35.19,-5.72 52.47,-5.72 38.42,0 75.4,9.42 108.14,28.4 46.97,27.23 125.2,99.66 121.55,278.88 -2.8,136.86 89.43,417.35 141.8,535.84 10.91,23.99 351.9,695.99 533.86,1054.22 235.21,181.95 339.63,496.15 259.84,784.85" /><path
             id="path264"
             style="fill:#100f0d;fill-opacity:1;fill-rule:nonzero;stroke:none"
             d="m 2062.7,2440.82 -34.55,60.87 c 8.12,4.62 202.27,113.65 492.07,169.18 268.21,51.38 670.99,63.69 1066.91,-169.46 l -35.53,-60.31 c -376.27,221.56 -760.11,210.12 -1015.87,161.47 -279.05,-53.08 -471.12,-160.68 -473.03,-161.75" /><path
             id="path266"
             style="fill:#100f0d;fill-opacity:1;fill-rule:nonzero;stroke:none"
             d="m 2066.84,2620.56 c 0,0 0.5,-4.87 0.97,-12.92 0.55,-8.07 1.15,-19.34 1.66,-32.33 0.53,-13 1.09,-27.77 2.1,-42.99 0.45,-7.63 1.24,-15.33 1.94,-23.03 1.06,-7.63 1.72,-15.37 3.35,-22.73 1.13,-7.51 3.08,-14.63 4.9,-21.62 2.22,-6.8 4.18,-13.62 7.03,-19.78 2.6,-6.32 5.68,-12.2 8.97,-17.78 3.31,-5.54 6.81,-10.84 10.56,-15.52 3.44,-5.04 7.54,-8.94 10.87,-13.07 3.7,-3.58 6.78,-7.39 9.66,-10.07 5.78,-5.35 9.18,-9.09 9.18,-9.09 0,0 -4.74,-0.43 -13.22,0 -4.21,0.3 -9.26,1.14 -15.15,2.34 -5.62,1.71 -12.36,3.42 -19.01,6.91 -6.84,3.17 -13.88,7.63 -20.76,13.2 -6.8,5.65 -13.56,12.42 -19.19,20.38 -3.07,3.87 -5.58,8.12 -8,12.51 -2.69,4.3 -4.54,8.94 -6.6,13.6 -3.86,9.35 -6.6,19.23 -8.43,29.06 -3.51,19.77 -3.14,39.48 -0.25,57.13 2.81,17.71 7.98,33.45 13.79,46.27 5.76,12.86 12.11,22.83 17.13,29.48 4.93,6.68 8.5,10.05 8.5,10.05" /><path
             id="path268"
             style="fill:#100f0d;fill-opacity:1;fill-rule:nonzero;stroke:none"
             d="m 3571.86,2620.56 c 0,0 3.58,-3.37 8.5,-10.05 5.03,-6.65 11.37,-16.62 17.14,-29.48 5.8,-12.82 10.97,-28.56 13.78,-46.27 2.89,-17.65 3.27,-37.36 -0.25,-57.13 -1.83,-9.83 -4.57,-19.71 -8.43,-29.06 -2.06,-4.66 -3.91,-9.3 -6.59,-13.6 -2.43,-4.39 -4.94,-8.64 -8.01,-12.51 -5.63,-7.96 -12.38,-14.73 -19.19,-20.38 -6.88,-5.57 -13.92,-10.03 -20.77,-13.2 -6.64,-3.49 -13.38,-5.2 -19,-6.91 -5.89,-1.2 -10.94,-2.04 -15.14,-2.34 -8.48,-0.43 -13.23,0 -13.23,0 0,0 3.4,3.74 9.18,9.09 2.88,2.68 5.97,6.49 9.66,10.07 3.33,4.13 7.42,8.03 10.87,13.07 3.75,4.68 7.25,9.98 10.56,15.52 3.28,5.58 6.38,11.46 8.96,17.78 2.86,6.16 4.82,12.98 7.04,19.78 1.82,6.99 3.77,14.11 4.91,21.62 1.63,7.36 2.29,15.1 3.35,22.73 0.69,7.7 1.49,15.4 1.93,23.03 1.01,15.22 1.58,29.99 2.09,42.99 0.52,12.99 1.13,24.26 1.67,32.33 0.47,8.05 0.97,12.92 0.97,12.92" /><path
             id="path270"
             style="fill:#100f0d;fill-opacity:1;fill-rule:nonzero;stroke:none"
             d="m 2656.69,2308.44 c 0,0 3.82,5.38 12.1,13.18 4.13,3.93 9.3,8.51 15.57,13.4 6.35,4.67 13.6,10.05 22.07,14.89 8.33,5.22 17.86,9.82 28.11,14.55 10.32,4.45 21.53,8.61 33.38,12.1 11.94,3.07 24.35,6.57 37.34,7.9 6.47,0.76 12.97,2 19.57,2.37 6.61,0.17 13.25,0.35 19.89,0.53 13.3,0.58 26.54,-1.43 39.51,-2.79 6.53,-0.45 12.84,-2.06 19.06,-3.57 6.22,-1.48 12.37,-2.89 18.34,-4.53 11.97,-3.08 22.88,-8.34 33.34,-12.41 10.54,-3.91 19.49,-10.02 27.93,-14.87 8.24,-5.31 16.07,-9.38 21.99,-14.85 6.14,-5.05 11.23,-9.74 15.42,-13.52 8.34,-7.61 12.65,-12.38 12.65,-12.38 0,0 -6.62,1.06 -17.41,3.65 -5.38,1.32 -11.91,2.81 -19.1,4.87 -7.04,2.4 -15.69,3.27 -24.47,5.38 -8.93,1.72 -18.1,4.76 -28.34,5.81 -5,0.82 -10.13,1.67 -15.38,2.54 -5.24,0.76 -10.41,2.24 -15.93,2.42 -10.93,0.73 -21.93,2.86 -33.29,3.24 -11.36,0.05 -22.76,1.88 -34.28,1.02 l -17.23,-0.01 c -5.73,-0.35 -11.44,-0.71 -17.09,-1.05 -11.4,-0.31 -22.48,-2.08 -33.41,-3.02 -10.82,-1.45 -21.4,-2.97 -31.44,-4.66 -9.99,-1.9 -19.66,-3.41 -28.45,-5.5 -8.96,-1.65 -17,-3.82 -24.4,-5.4 -7.22,-1.87 -13.81,-3.24 -19.08,-4.72 -10.8,-2.9 -16.97,-4.57 -16.97,-4.57" /></g></g></g></g></svg>