<?xml version="1.0" encoding="UTF-8" standalone="no"?>
<svg
   xmlns:dc="http://purl.org/dc/elements/1.1/"
   xmlns:cc="http://creativecommons.org/ns#"
   xmlns:rdf="http://www.w3.org/1999/02/22-rdf-syntax-ns#"
   xmlns:svg="http://www.w3.org/2000/svg"
   xmlns="http://www.w3.org/2000/svg"
   viewBox="0 0 734.8667 857.62665"
   height="857.62665"
   width="734.8667"
   xml:space="preserve"
   id="svg2"
   version="1.1"><metadata
     id="metadata8"><rdf:RDF><cc:Work
         rdf:about=""><dc:format>image/svg+xml</dc:format><dc:type
           rdf:resource="http://purl.org/dc/dcmitype/StillImage" /></cc:Work></rdf:RDF></metadata><defs
     id="defs6" /><g
     transform="matrix(1.3333333,0,0,-1.3333333,0,857.62667)"
     id="g10"><g
       transform="scale(0.1)"
       id="g12"><path
         id="path14"
         style="fill:#cb8e4c;fill-opacity:1;fill-rule:nonzero;stroke:none"
         d="m 5451.3,5884.6 c 77,-278.5 -23.2,-578.6 -253.8,-752.8 -783.4,315.2 -1612.6,472.7 -2441.7,472.7 -64,0 -128.1,-0.9 -192.1,-2.8 -4.4,-0.1 -8.8,-0.2 -13.3,-0.5 C 1922.2,5581.6 1296.1,5471.4 692.199,5270.6 565.098,5228.3 438.996,5182.1 313.996,5131.8 83.3984,5306 -16.8008,5606.1 60.1992,5884.6 920.996,6230.9 1827.9,6406.5 2755.8,6406.5 c 927.8,0 1834.7,-175.6 2695.5,-521.9" /><path
         id="path16"
         style="fill:#f6cb53;fill-opacity:1;fill-rule:nonzero;stroke:none"
         d="m 4394.1,4567.6 c -66.2,-285.8 -322.3,-498.7 -628.2,-498.7 -356.1,0 -644.7,288.6 -644.7,644.7 0,40.3 3.7,79.7 10.8,118 55.4,299.7 318.1,526.7 633.9,526.7 356.1,0 644.8,-288.6 644.8,-644.7 0,-50.2 -5.7,-99.1 -16.6,-146 M 2755.8,5604.5 c -64,0 -128.1,-0.9 -192.1,-2.8 -4.4,-0.1 -8.8,-0.2 -13.3,-0.5 -100.6,-5.4 -213,-54.6 -340.1,-115.5 -8.6,-4.2 -17.3,-8.4 -26.1,-12.6 -228.6,-110.6 -503.5,-251.1 -838.6,-242.7 -151.3,3.8 -279.1,10.2 -380.401,16.8 -34.5,2.2 -66,4.5 -94.203,6.7 -116.5,8.9 -178.797,16.7 -178.797,16.7 C 617.398,5245.7 542.996,5219.5 469,5191.8 h -0.203 c -51.801,-19.3 -103.399,-39.3 -154.801,-60 0,0 19.004,-37.3 48.902,-95.8 75.5,-147.6 220.098,-430.6 302.301,-591.5 19.199,-37.4 34.899,-68.3 45.598,-89.3 25.898,-50.6 40.402,-125.8 51.601,-207 v -0.2 c 21.2,-155.2 29.903,-332.5 81,-402.8 23.7,-32.5 59,-43.5 96.801,-38.9 15.598,1.9 31.5,6.5 47.301,13.3 34.1,14.7 67,39.8 92.2,71.2 27.7,34.4 45.9,76.3 45.9,119.9 v 2.2 c 0.8,144.4 78.5,206.8 204.4,156 85.9,-34.8 185.3,-32.5 221.8,45.8 4.6,9.9 8.3,20.9 10.7,33.3 h 0.1 c 5.4,0.1 10.9,0.2 16.5,0.2 291.6,0 538,-193.7 617.6,-459.3 l 0.1,-0.1 c 17.6,-58.7 27,-120.9 27,-185.3 0,-356.1 -288.6,-644.8 -644.7,-644.8 -35.5,0 -70.4,2.9 -104.5,8.4 l -1.1,-4.4 c 0,0 345.1,-730.5 404.7,-983 l 0.1,-0.1 c 5.5,-23.8 8.6,-43.3 8.6,-57.6 0,-85.7 104.9,-157.4 194.2,-148.8 l 5.1,-9.9 574,-1123.3 c 44.3,-86.801 168.5,-86.602 212.6,0.398 l 59.4,117.301 388.8,768.001 46.8,92.3 c -32.4,1.8 -66.8,6.8 -95.1,6.8 -356,0 -644.7,288.7 -644.7,644.8 0,356 288.7,644.7 644.7,644.7 13.4,0 26.8,-0.4 40,-1.2 233.1,-14.3 432.7,-152.4 533.9,-349.3 l 342.8,677.3 57.1,112.7 2.6,5.1 c 15.2,-5.1 30.6,-8.5 46,-10.4 36.9,-4.4 73.3,0.8 105.6,16.8 53.6,26.5 95.7,82.9 109.2,174.9 l 0.1,0.5 c 3.5,23.5 5.1,49.3 4.5,77.6 -0.9,46.5 7.9,106.5 22,170.3 31.6,142.8 89.5,305 122.9,380.5 9.1,20.7 352.5,697.2 485.9,959.9 32.2,63.5 52.2,102.8 52.2,102.8 -783.4,315.2 -1612.6,472.7 -2441.7,472.7" /><path
         id="path18"
         style="fill:#e53e47;fill-opacity:1;fill-rule:nonzero;stroke:none"
         d="m 4410.7,4713.6 c 0,-50.2 -5.7,-99.1 -16.6,-146 -66.2,-285.8 -322.3,-498.7 -628.2,-498.7 -356.1,0 -644.7,288.6 -644.7,644.7 0,356.1 288.6,644.7 644.7,644.7 10.8,0 21.5,-0.3 32.2,-0.8 341.1,-16.8 612.6,-298.6 612.6,-643.9" /><path
         id="path20"
         style="fill:#e53e47;fill-opacity:1;fill-rule:nonzero;stroke:none"
         d="m 3886.7,2367 c 0,0 -213.7,-304.2 -379.6,-719.8 -11.9,-29.7 -23.5,-60.1 -34.8,-90.9 -13.5,-36.9 -56.9,-41 -104.5,-38.3 -32.4,1.8 -66.8,6.8 -95.1,6.8 -356,0 -644.7,288.7 -644.7,644.8 0,144.4 47.5,277.7 127.7,385.1 l 0.1,0.2 c 117.6,157.4 305.3,259.4 516.9,259.4 204.3,0 386.3,-95 504.4,-243.1 26.6,-33.3 49.9,-69.2 69.5,-107.4 15.9,-30.9 29.3,-63.3 40.1,-96.8" /><path
         id="path22"
         style="fill:#e53e47;fill-opacity:1;fill-rule:nonzero;stroke:none"
         d="m 2223.8,3503.5 c 0,-77.9 -13.8,-152.5 -39.1,-221.7 -21.2,-57.9 -50.4,-111.9 -86.3,-160.6 -117.5,-159.2 -306.3,-262.5 -519.3,-262.5 -35.5,0 -70.4,2.9 -104.5,8.4 -43.6,7.1 -85.9,18.6 -126.2,34.1 0,0 -252.4,545.7 -408.201,805.1 86.501,10.6 185.401,102.8 185.401,204.4 0,146 77.9,209.3 204.4,158.2 96.7,-39.2 210.6,-31.3 232.5,79.1 h 0.1 c 5.4,0.1 10.9,0.2 16.5,0.2 35.5,0 70.3,-2.9 104.3,-8.4 l 0.2,-0.1 c 19.1,-3.1 38,-7.1 56.6,-11.9 278.1,-71.5 483.6,-324 483.6,-624.3" /><path
         id="path24"
         style="fill:#e53e47;fill-opacity:1;fill-rule:nonzero;stroke:none"
         d="m 2550.4,5601.2 c -105.3,-5.7 -223.6,-59.3 -358,-124.2 -230.3,-111.1 -507.7,-255.1 -846.8,-246.6 -163.3,4.1 -299.3,11.2 -404.1,18.3 -36.004,2.4 -68.301,4.9 -96.703,7.2 -99.598,8 -152.598,14.7 -152.598,14.7 36.899,12.3 73.899,24.2 111,35.8 569.401,178.1 1157.401,276.4 1747.201,294.8" /><path
         id="path26"
         style="fill:#e8816a;fill-opacity:1;fill-rule:nonzero;stroke:none"
         d="m 4116.15,4880.3 c -2.67,2.27 -5.26,4.6 -7.69,7.12 -0.99,1.02 -1.92,2.09 -2.87,3.14 -1.65,2.56 -3.37,5.05 -4.86,7.73 -0.84,1.53 -1.52,3.17 -2.41,4.66 l -0.16,0.23 c -4.18,10.09 -9.68,18.57 -19.57,24.36 -9.64,5.64 -23.86,8.03 -34.67,4.54 -21.37,-6.92 -40.43,-31.82 -31.43,-55.36 8.77,-22.93 21.08,-43.97 40.02,-60.06 9.26,-7.86 19.3,-13.18 31.82,-13.18 11.04,0 24.22,4.9 31.82,13.18 15.39,16.76 19.16,47.37 0,63.64" /><path
         id="path28"
         style="fill:#e8816a;fill-opacity:1;fill-rule:nonzero;stroke:none"
         d="m 3460,4861.21 c -16.43,14.59 -37.04,19.05 -58.49,17.41 -21.64,-1.66 -35.81,-13.16 -43.39,-33.04 -4.17,-10.93 -8.34,-21.86 -12.51,-32.79 -8.4,-22.04 9.29,-50.32 31.43,-55.36 13.91,-3.16 26.25,-0.46 36.17,6.3 3.54,-0.84 7.1,-1.47 10.58,-1.62 24.31,-1.09 46.99,15.42 53.84,38.66 6.3,21.38 -0.99,45.67 -17.63,60.44" /><path
         id="path30"
         style="fill:#e8816a;fill-opacity:1;fill-rule:nonzero;stroke:none"
         d="m 3761.56,4662.51 c -15.4,3.51 -30.43,-0.37 -41.31,-9.74 -11.02,-2.82 -20.95,-9.82 -27.88,-20.49 -11.1,-17.1 -19.17,-36.74 -22.83,-56.81 -3.49,-19.12 2.12,-41.01 20.68,-50.82 18.76,-9.91 38.66,-6.45 54.53,7.04 23.21,19.71 39.32,46.54 48.24,75.47 6.94,22.49 -8.23,50.07 -31.43,55.35" /><path
         id="path32"
         style="fill:#e8816a;fill-opacity:1;fill-rule:nonzero;stroke:none"
         d="m 3772.02,5069.08 c -6.46,15.01 -23.17,26.9 -38.62,31.09 -16.7,4.53 -35.4,2.88 -50.24,-6.46 -9.77,-6.16 -17.57,-15.62 -20.68,-26.9 -2.96,-10.77 -1.62,-25.11 4.54,-34.67 8.71,-13.51 24.1,-22.06 39.74,-22.15 4.75,-3.27 9.97,-5.79 14.44,-7.02 10.77,-2.96 25.12,-1.62 34.67,4.54 9.61,6.19 18.07,15.42 20.68,26.89 l 1.61,11.96 c -0.02,8.13 -2.07,15.7 -6.14,22.72" /><path
         id="path34"
         style="fill:#e8816a;fill-opacity:1;fill-rule:nonzero;stroke:none"
         d="m 4108.56,4494.53 c -21.32,8.58 -43.67,0.83 -56.2,-18.41 -16.92,-25.98 -40.23,-44.21 -68.08,-57.37 -16.16,-7.65 -23.43,-26.71 -21.6,-44.09 -4.37,-12.82 -3.54,-27.81 2.95,-38.91 13.52,-23.11 39.14,-25.74 61.57,-16.14 5,2.14 9.66,4.67 14.09,7.48 44.2,25.12 76.23,66.41 93.32,114.36 7.44,20.85 -6.69,45.3 -26.05,53.08" /><path
         id="path36"
         style="fill:#e8816a;fill-opacity:1;fill-rule:nonzero;stroke:none"
         d="m 1497.74,3818.32 c -14.99,7.92 -36.1,7.66 -50.24,-2.55 -2.04,0.95 -4.08,1.88 -6.43,2.53 -10.77,2.96 -25.12,1.62 -34.68,-4.54 -18.65,-12.03 -31.14,-41.35 -16.14,-61.57 15.04,-20.27 36.71,-34.29 63.05,-32.39 24.29,1.76 49.71,13.88 60.59,36.95 10.01,21.25 6.63,49.53 -16.15,61.57" /><path
         id="path38"
         style="fill:#e8816a;fill-opacity:1;fill-rule:nonzero;stroke:none"
         d="m 1869.21,3825.07 c -21.11,12.03 -49.21,4.99 -61.57,-16.14 -12.2,-20.87 -5.03,-49.5 16.15,-61.57 l 1.11,-0.65 0.16,-0.32 c 0.2,-1.18 1.74,-6.75 1.73,-6.73 0.42,-1.79 0.72,-3.6 1.04,-5.4 l 0.07,-1.85 c 0.21,-6.45 0.49,-12.84 0.42,-19.3 -0.25,-23.54 20.87,-46.08 45,-45 24.59,1.1 44.73,19.77 45,45 0.45,42.88 -8.81,89.01 -49.11,111.96" /><path
         id="path40"
         style="fill:#e8816a;fill-opacity:1;fill-rule:nonzero;stroke:none"
         d="m 1743.94,3454.84 c -7.29,17.26 -23.91,27.41 -41.93,27.3 -4.66,20.42 -20.96,38.28 -43.74,37.26 -22.79,-1.02 -46.99,-19.87 -45,-45 0.57,-7.2 0.47,-14.28 0.23,-21.48 l -0.03,-1.58 -0.16,-0.68 c -0.8,-3.5 -1.48,-7.01 -2.36,-10.49 -5.45,-21.48 6.95,-51.6 31.43,-55.35 29.36,-4.5 57.1,-1.46 83.14,13.83 19.38,11.38 27.04,35.75 18.42,56.19" /><path
         id="path42"
         style="fill:#e8816a;fill-opacity:1;fill-rule:nonzero;stroke:none"
         d="m 1839.29,3245.73 c -5.75,1.31 -11.27,1.51 -16.54,0.93 -2.19,1.94 -4.59,3.63 -7.17,5 -22.65,11.97 -47.59,4.8 -61.57,-16.14 -11.27,-16.88 -23.48,-32.79 -23.48,-54.22 0,-30.91 27.6,-51.73 56.49,-52.47 39.08,-1 71.12,26.11 83.7,61.55 7.89,22.21 -8.91,50.22 -31.43,55.35" /><path
         id="path44"
         style="fill:#e8816a;fill-opacity:1;fill-rule:nonzero;stroke:none"
         d="m 1375.26,3468.87 c -1.71,0.27 -3.32,0.71 -4.95,1.11 l -0.85,0.72 -0.7,1.54 c -2.18,22.55 -20.57,43.54 -44.66,42.47 -23.55,-1.06 -46.03,-19.81 -45,-45 1.67,-40.47 30.44,-80.81 72.24,-87.63 12.3,-2.01 23.51,-1.99 34.67,4.54 9.33,5.46 18.24,16.16 20.68,26.89 4.93,21.66 -6.59,51.3 -31.43,55.36" /><path
         id="path46"
         style="fill:#e8816a;fill-opacity:1;fill-rule:nonzero;stroke:none"
         d="m 3321.6,2587.32 c -2.69,23.33 -21.97,36.72 -44.46,39.52 -26.33,3.28 -52.37,4.2 -76.81,0.57 -19.91,-0.88 -39.8,-2.45 -59.7,-5.01 -24.1,-3.1 -45,-18.47 -45,-45 0,-5.86 1.52,-12.02 4.16,-17.85 -4.11,-15.13 1.12,-33.33 11.75,-43.96 15.27,-15.27 35.92,-15.07 54.53,-7.03 36.75,15.88 76.11,18.52 115.41,13.66 24.16,-2.98 45,22.82 45,45 0,7.7 -1.86,14.33 -4.88,20.1" /><path
         id="path48"
         style="fill:#e8816a;fill-opacity:1;fill-rule:nonzero;stroke:none"
         d="m 2983.33,2304.52 c -10.8,0.04 -21.6,0.08 -32.4,0.13 -3,16.48 -14.09,30.8 -31.64,35.63 -22.44,6.16 -50.22,-7.57 -55.36,-31.43 -9.08,-42.18 -23.75,-115.84 32.47,-131.08 22.14,-6 48.87,3.86 68.91,12.97 18.81,8.55 36.05,21.6 49.84,36.96 25.58,28.46 8.6,76.65 -31.82,76.82" /><path
         id="path50"
         style="fill:#e8816a;fill-opacity:1;fill-rule:nonzero;stroke:none"
         d="m 3407,2141.16 c -12.37,28.17 -32.26,49.49 -56.52,67.85 -2.72,2.06 -5.68,3.56 -8.77,4.63 -3.58,2.29 -7.4,4.07 -11.34,5.16 -25.4,6.98 -46.59,-8.67 -55.36,-31.43 -11.48,-29.81 -25.53,-74.09 -9.76,-104.25 18.53,-35.44 64.94,-36.17 99.55,-30.21 18,3.1 34.86,11.36 44.43,27.71 11.6,19.82 6.35,41.02 -2.23,60.54" /><path
         id="path52"
         style="fill:#e8816a;fill-opacity:1;fill-rule:nonzero;stroke:none"
         d="m 3655.46,2369.59 c -13.28,46.18 -51.74,84.5 -99.54,93.75 -23.04,4.46 -49.67,-6.48 -55.36,-31.43 -5.06,-22.25 6.72,-50.57 31.44,-55.36 3.88,-0.75 7.53,-1.69 11.34,-2.78 l 0.85,-0.28 c 3.13,-1.79 6.25,-3.45 9.33,-5.36 l 1.14,-0.67 0.47,-0.72 c 1.7,-2.15 4.13,-4.28 6.14,-6.27 0.58,-0.7 1.24,-1.57 1.81,-2.48 1.2,-1.88 2.21,-3.85 3.25,-5.81 0.2,-0.74 1.77,-4.52 2.35,-6.51 6.49,-22.61 32.04,-38.98 55.35,-31.43 22.99,7.44 38.4,31.12 31.43,55.35" /><path
         id="path54"
         style="fill:#e8816a;fill-opacity:1;fill-rule:nonzero;stroke:none"
         d="m 3122.67,1906.29 c -0.74,2.28 -1.76,4.44 -2.81,6.57 0.39,4.59 0.39,9.21 -0.12,13.82 -1.37,12.3 -4.11,22.75 -13.18,31.82 -7.81,7.81 -20.61,13.68 -31.82,13.18 -11.64,-0.52 -23.71,-4.34 -31.82,-13.18 -7.56,-8.23 -14.47,-20.2 -13.18,-31.82 0.23,-2.09 0.32,-4.15 0.32,-6.21 -0.28,-1.04 -0.68,-2.07 -1.03,-3.1 -3.45,-8.21 -5.05,-15.88 -3.81,-25.07 1.43,-10.67 6.43,-20.99 14.34,-28.51 13.54,-12.88 33.62,-18.37 51.68,-12.85 22.48,6.87 39.06,31.77 31.43,55.35" /><path
         id="path56"
         style="fill:#e8816a;fill-opacity:1;fill-rule:nonzero;stroke:none"
         d="m 3359.9,1878.78 c -8.8,8.08 -19.63,13.18 -31.82,13.18 h -14.07 c -11.54,0 -23.66,-5.02 -31.82,-13.18 -7.8,-7.8 -13.68,-20.61 -13.18,-31.82 0.52,-11.64 4.35,-23.71 13.18,-31.82 8.81,-8.08 19.63,-13.18 31.82,-13.18 h 14.07 c 11.54,0 23.66,5.02 31.82,13.18 7.81,7.81 13.68,20.61 13.18,31.82 -0.52,11.64 -4.34,23.71 -13.18,31.82" /><path
         id="path58"
         style="fill:#a21f26;fill-opacity:1;fill-rule:nonzero;stroke:none"
         d="m 1694.24,3879.06 c -7.44,0 -13.42,-2.26 -17.99,-5.86 l -0.83,0.33 c -7.18,1.97 -16.74,1.08 -23.12,-3.03 -6.4,-4.13 -12.04,-10.28 -13.78,-17.93 -1.68,-7.34 -1.71,-16.8 3.02,-23.11 4.47,-5.96 8.93,-11.91 13.4,-17.87 4.87,-6.49 9.79,-11.54 17.93,-13.79 7.18,-1.97 16.74,-1.08 23.12,3.03 6.4,4.13 12.04,10.28 13.78,17.93 0.37,1.59 0.61,3.31 0.78,5.05 21.11,14.08 15.77,55.25 -16.31,55.25" /><path
         id="path60"
         style="fill:#a21f26;fill-opacity:1;fill-rule:nonzero;stroke:none"
         d="m 1578.41,3619.02 c -5.27,11.19 -15.5,18.96 -25.83,25.22 -13.44,8.13 -33.56,3.41 -41.05,-10.77 -4.11,-7.77 -4.75,-16.44 -2.36,-24.17 -2.18,-6.87 -3.08,-13.77 -1.35,-21.55 2.17,-9.81 8.17,-18.57 16.93,-23.72 15.06,-8.86 34.3,-4.95 46.36,7.08 13.17,13.14 15,31.54 7.3,47.91" /><path
         id="path62"
         style="fill:#a21f26;fill-opacity:1;fill-rule:nonzero;stroke:none"
         d="m 1292.27,3651.28 c -2.38,0 -4.61,-0.24 -6.7,-0.67 -2.09,0.43 -4.32,0.67 -6.7,0.67 -38.61,0 -38.67,-60 0,-60 2.38,0 4.61,0.23 6.69,0.66 2.09,-0.43 4.32,-0.66 6.71,-0.66 38.6,0 38.67,60 0,60" /><path
         id="path64"
         style="fill:#a21f26;fill-opacity:1;fill-rule:nonzero;stroke:none"
         d="m 1533.45,3226.97 c -16.25,-0.73 -30,-13.18 -30,-30 v -26.8 c 0,-15.69 13.8,-30.72 30,-30 16.26,0.73 30,13.18 30,30 v 26.8 c 0,15.69 -13.79,30.73 -30,30" /><path
         id="path66"
         style="fill:#a21f26;fill-opacity:1;fill-rule:nonzero;stroke:none"
         d="m 1970.21,3457.88 c -2.53,3.93 -5.69,7.01 -9.2,9.38 l -0.05,2.16 c -0.3,15.68 -13.57,30.74 -30,30 -15.99,-0.71 -30.33,-13.19 -30,-30 0.22,-11.08 0.44,-22.17 0.66,-33.26 0.46,-23.48 24.93,-36.39 45.14,-25.91 4.23,2.2 8.46,4.39 12.68,6.59 13.96,7.24 19.24,27.9 10.77,41.04" /><path
         id="path68"
         style="fill:#a21f26;fill-opacity:1;fill-rule:nonzero;stroke:none"
         d="m 3297.2,2382.21 c -3.71,13.51 -15.65,20.8 -28.93,22.02 -20.57,1.91 -41.15,3.82 -61.73,5.72 -16.15,1.5 -30,-14.86 -30,-30 0,-9.82 4.45,-17.51 11.15,-22.71 l -0.12,-0.9 c -3.58,-25.9 18.96,-46.43 44.07,-33.88 l 51.77,25.87 c 11.76,5.87 17.14,21.7 13.79,33.88" /><path
         id="path70"
         style="fill:#a21f26;fill-opacity:1;fill-rule:nonzero;stroke:none"
         d="m 3549.37,2261.35 -5.71,0.63 c -2,0.48 -3.99,0.97 -5.95,1.62 l -1.15,0.32 -1.57,0.91 c -0.78,0.44 -7.76,4.96 -4.14,2.13 -5.85,4.58 -12.66,7.47 -19.51,8.17 l -1.69,0.22 -0.19,0.01 c -1.48,0.2 -2.97,0.4 -4.52,0.33 -16.09,-0.72 -30.21,-13.18 -30,-30 0.2,-16.1 0.4,-32.21 0.6,-48.32 0.34,-27.16 32,-38.03 51.22,-21.21 13.14,11.51 23.32,19.42 37.75,29.28 24.26,16.6 15.69,54.91 -15.14,55.91" /><path
         id="path72"
         style="fill:#a21f26;fill-opacity:1;fill-rule:nonzero;stroke:none"
         d="m 3150.26,2111.24 c -4.07,6.25 -8.14,12.49 -12.21,18.74 -1.57,2.42 -3.51,4.48 -5.58,6.37 0.24,3.28 0.39,6.58 0.35,9.87 -0.15,15.69 -13.69,30.73 -30,30 -16.12,-0.72 -30.16,-13.19 -30,-30 0.13,-13.35 -2.57,-22.28 -11.61,-35.04 -9.07,-12.81 -2.66,-34.01 10.77,-41.04 21.78,-11.42 45.74,-11.44 67.51,0.06 13.84,7.31 19.34,27.88 10.77,41.04" /><path
         id="path74"
         style="fill:#a21f26;fill-opacity:1;fill-rule:nonzero;stroke:none"
         d="m 2940.83,1959.96 c -1.15,9.31 -2.29,18.61 -3.43,27.91 -1.01,8.24 -2.68,15.1 -8.79,21.21 -5.2,5.21 -13.74,9.12 -21.21,8.79 -3.72,-0.17 -7.5,-0.88 -11.04,-2.19 -13.68,4.35 -29.61,-0.33 -37.49,-13.8 -9.1,-15.55 -3.12,-34.35 9.82,-45.47 6.92,-5.95 13.95,-11.78 20.92,-17.66 9.45,-7.97 20.91,-11.21 32.77,-6.2 9.89,4.17 19.87,15.79 18.45,27.41" /><path
         id="path76"
         style="fill:#a21f26;fill-opacity:1;fill-rule:nonzero;stroke:none"
         d="m 2985.57,2509.42 c -6.95,4.92 -14.91,8.74 -23.18,11.24 -1.54,8.6 -6.42,16.63 -14.16,20.72 -14.74,7.79 -32.14,3.46 -41.04,-10.76 -14.09,-22.52 -10.85,-54.84 9.66,-72.46 20.76,-17.84 56.73,-18.37 74.8,4.14 12.79,15.94 10.93,35.1 -6.08,47.12" /><path
         id="path78"
         style="fill:#a21f26;fill-opacity:1;fill-rule:nonzero;stroke:none"
         d="m 3432.74,2623.84 c -16.26,-0.73 -30,-13.18 -30,-30 v -27.13 c 0,-15.69 13.8,-30.73 30,-30 16.25,0.73 30,13.18 30,30 v 27.13 c 0,15.69 -13.8,30.72 -30,30" /><path
         id="path80"
         style="fill:#a21f26;fill-opacity:1;fill-rule:nonzero;stroke:none"
         d="m 3514.12,1945.64 c -16.25,-0.73 -30,-13.19 -30,-30 v -9.05 c 0,-15.69 13.8,-30.72 30,-30 16.26,0.73 30,13.18 30,30 v 9.05 c 0,15.69 -13.79,30.72 -30,30" /><path
         id="path82"
         style="fill:#a21f26;fill-opacity:1;fill-rule:nonzero;stroke:none"
         d="m 3781.21,4329.03 c 3.81,10.34 1.42,22.41 -6.55,31.98 -18.73,22.5 -55.3,8.64 -62.77,-16.74 l -0.08,-0.35 c -12.3,-13.2 -21.68,-28.83 -28.09,-46.47 -5.53,-15.23 6.22,-32.86 20.96,-36.91 16.27,-4.47 30.55,5.21 36.4,19.86 4.96,-4.6 11.42,-7.53 19.29,-7.53 14.92,0 31.69,13.78 30,30 -1.06,10.14 -3.74,18.41 -9.16,26.16" /><path
         id="path84"
         style="fill:#a21f26;fill-opacity:1;fill-rule:nonzero;stroke:none"
         d="m 3548.89,4548.44 -0.75,0.51 c 0.86,6.89 1.15,13.84 0.74,20.73 -0.94,16.18 -13.11,30 -30,30 -14.8,0 -29.38,-12.56 -29.86,-27.84 -12.11,-1.17 -23.02,-8.94 -26.48,-21.52 -3,-10.92 1.08,-23.44 9.55,-30.9 -6.09,-20.12 16.52,-43.87 37.51,-36.73 10.71,3.64 21.42,7.28 32.13,10.91 26.28,8.93 27.52,39.21 7.16,54.84" /><path
         id="path86"
         style="fill:#a21f26;fill-opacity:1;fill-rule:nonzero;stroke:none"
         d="m 3711.75,4830.61 c -19.53,15.31 -40.8,21.23 -65.38,16.39 -15.42,-3.04 -25.68,-22.28 -20.95,-36.91 5.31,-16.41 20.37,-24.2 36.9,-20.95 l 0.27,0.07 0.74,-0.14 1.99,-0.1 0.14,-0.04 c 0.6,-0.25 3.31,-1.42 4.45,-1.77 1.85,-1.26 3.85,-2.46 -0.59,1.02 6.53,-5.12 12.55,-8.79 21.21,-8.79 7.36,0 16.15,3.27 21.22,8.79 9.9,10.79 13.18,32.08 0,42.43" /><path
         id="path88"
         style="fill:#a21f26;fill-opacity:1;fill-rule:nonzero;stroke:none"
         d="m 3518.45,5068.51 c -6.49,1.48 -12.39,1.1 -17.56,-0.75 -5.53,6.9 -13.74,11.58 -22.94,11.17 -16.12,-0.72 -30.16,-13.18 -30,-30 0.15,-14.6 0.29,-29.21 0.44,-43.81 0.23,-23.9 25,-35.83 45.14,-25.9 22.16,10.92 36.74,29.96 45.88,52.38 5.93,14.58 -6.44,33.6 -20.96,36.91" /><path
         id="path90"
         style="fill:#a21f26;fill-opacity:1;fill-rule:nonzero;stroke:none"
         d="m 3948.17,5097.02 c -16.25,-0.73 -30,-13.19 -30,-30 v -31.65 c 0,-15.7 13.8,-30.73 30,-30 16.26,0.72 30,13.18 30,30 v 31.65 c 0,15.69 -13.8,30.72 -30,30" /><path
         id="path92"
         style="fill:#a21f26;fill-opacity:1;fill-rule:nonzero;stroke:none"
         d="m 3771.84,5255.26 h -13.56 c -15.7,0 -30.73,-13.8 -30,-30 0.72,-16.25 13.18,-30 30,-30 h 13.56 c 15.69,0 30.73,13.8 30,30 -0.73,16.26 -13.18,30 -30,30" /><path
         id="path94"
         style="fill:#a21f26;fill-opacity:1;fill-rule:nonzero;stroke:none"
         d="m 4009.88,4672.11 c 0.88,13.28 -9.67,27.63 -22.28,30.5 -17.22,3.92 -30.78,-5.26 -36.9,-20.95 -4.29,-10.99 -8.57,-21.97 -12.86,-32.95 -7.02,-17.99 10.91,-38.7 28.93,-37.98 13.39,0.53 26.78,1.07 40.17,1.6 15.66,0.62 30.75,13.35 30,30 -0.66,14.77 -11.79,28.69 -27.06,29.78" /><path
         id="path96"
         style="fill:#a21f26;fill-opacity:1;fill-rule:nonzero;stroke:none"
         d="m 4284.24,4672.83 c -1.92,6.96 -7.3,14.5 -13.79,17.93 -4.52,2.39 -9.66,3.85 -14.83,4.01 -4.77,10.47 -15.05,18.47 -27.12,17.93 -15.97,-0.71 -30.37,-13.19 -30,-30 l 0.57,-26.42 c 0.3,-13.52 9.16,-25.01 22.03,-28.93 9.84,-3 21.36,-2.99 31.15,0.29 12.52,4.21 21.11,11.6 28.96,22.08 4.36,5.82 4.86,16.44 3.03,23.11" /><path
         id="path98"
         style="fill:#a21f26;fill-opacity:1;fill-rule:nonzero;stroke:none"
         d="m 4163.8,5061.1 -9.04,9.04 c -11.11,11.12 -31.46,11.94 -42.42,0 -11,-11.97 -11.86,-30.56 0,-42.42 3.01,-3.02 6.02,-6.03 9.04,-9.05 11.11,-11.11 31.46,-11.93 42.42,0 11,11.98 11.86,30.57 0,42.43" /><path
         id="path100"
         style="fill:#959dd7;fill-opacity:1;fill-rule:nonzero;stroke:none"
         d="m 3552.6,858.488 c 0,0 60,-258.797 -25.9,-291.797 -85.8,-33 -141.8,150.899 -228.5,208.899 -8.8,5.898 -17.4,9.5 -25.8,11.199 -74.2,15.801 -130.4,-115.5 -140.6,-140.598 -11.5,-27.8 -11.1,-237.601 -74.8,-300.203 -63.7,-62.597 -153.4,107.203 -167.4,146.203 -9.9,27.598 -16.3,96.5 -59.3,131.598 -17.7,14.402 -41.6,23.199 -74.6,20.902 -112.9,-7.8 -117.8,-317.3 -123,-410 -3.4,-60.703 -71.8,-162.4019 -146,-202.691 -24.6,-13.2109 -49.8,-19.8086 -73.5,-16.0117 -14.2,2.3008 -27.8,8.4023 -40.5,18.9023 -87.6,73.3004 -21.4,488.5974 5,645.5004 3,17.699 5.5,32.101 7.2,42.398 16.8,101.402 16.3,259 -56.2,321.401 -72.5,62.3 -90.1,-58.299 -194.4,-142.202 -104.3,-83.797 -131.2,189.402 -131.2,189.402 l 189.3,1438.8 5.1,38.4 34.5,262.6 33.5,254.4 c 103.3,71.9 214.8,113 325.9,133.4 89.5,16.4 178.7,19.4 263.2,14.1 95,-5.8 183.9,-22 260.4,-41 154.5,-38.4 258.1,-88.5 258.1,-88.5 0,0 28.8,-115.8 68.8,-282.9 19.1,-79.6 40.8,-170.8 63.1,-266.7 4.9,-20.9 9.8,-42.1 14.7,-63.4 76.5,-331.1 155.9,-698.1 164.4,-828.3 16.8,-257.6 -47.3,-276.8 -157.4,-269.4 -110,7.4 25.9,-534.402 25.9,-534.402" /><path
         id="path102"
         style="fill:#1d1312;fill-opacity:1;fill-rule:nonzero;stroke:none"
         d="m 3367.85,3062.07 48.67,-173.54 c 3.73,1.47 7.44,2.95 11.37,4.22 2.89,0.94 5.89,1.55 8.86,2.26 -0.25,1.02 -0.5,2.02 -0.75,3.04 68.7,6 241.6,41.8 241.6,94.4 0,162.7 -375.6,443.7 -839,443.7 -463.5,0 -839.1,-281 -839.1,-443.7 0,-60 139.5,-80.4 227.2,-82.4 l 71.97,223.51 c 0,0 498.44,251.52 1046.89,2.5 l 22.29,-73.99" /><path
         id="path104"
         style="fill:#f46777;fill-opacity:1;fill-rule:nonzero;stroke:none"
         d="m 2003.06,751.77 c 0,0 -111.84,-198.622 -27.49,-282.739 84.35,-84.121 170.91,2.957 153.23,88.43 -17.68,85.469 -27.9,186.32 -125.74,194.309" /><path
         id="path106"
         style="fill:#959dd7;fill-opacity:1;fill-rule:nonzero;stroke:none"
         d="m 3484.12,433.219 c 0,0 -145.09,-135.43 -67.67,-245.078 77.42,-109.6527 178.75,-88.6215 176.03,0 -2.72,88.621 -52.65,198.179 -108.36,245.078" /><path
         id="path108"
         style="fill:#a5da50;fill-opacity:1;fill-rule:nonzero;stroke:none"
         d="m 3272.4,786.789 c -74.2,15.801 -130.4,-115.5 -140.6,-140.598 -11.5,-27.8 -11.1,-237.601 -74.8,-300.203 -63.7,-62.597 -153.4,107.203 -167.4,146.203 -9.9,27.598 -16.3,96.5 -59.3,131.598 -17.7,14.402 -41.6,23.199 -74.6,20.902 -112.9,-7.8 -117.8,-317.3 -123,-410 -3.4,-60.703 -71.8,-162.4019 -146,-202.691 -24.8,-5.4102 -49.3,-10.8086 -73.5,-16.0117 -14.2,2.3008 -27.8,8.4023 -40.5,18.9023 -87.6,73.3004 -21.4,488.5974 5,645.5004 3,17.699 5.5,32.101 7.2,42.398 16.8,101.402 16.3,259 -56.2,321.401 -72.5,62.3 -90.1,-58.299 -194.4,-142.202 -104.3,-83.797 -131.2,189.402 -131.2,189.402 l 262.4,1994.2 c 103.3,71.9 214.8,113 325.9,133.4 89.5,16.4 178.7,19.4 263.2,14.1 95,-5.8 183.9,-22 260.4,-41 28.2,-427 113.8,-1722.8 157.4,-2405.301" /><path
         id="path110"
         style="fill:#f3d121;fill-opacity:1;fill-rule:nonzero;stroke:none"
         d="m 2830.3,623.789 c -17.7,14.402 -41.6,23.199 -74.6,20.902 -112.9,-7.8 -117.8,-317.3 -123,-410 -5.2,-92.8 -162.4,-281.4019 -260,-199.8004 -87.6,73.3004 -21.4,488.5974 5,645.5004 3,17.699 5.5,32.101 7.2,42.398 16.8,101.402 16.3,259 -56.2,321.401 -72.5,62.3 -90.1,-58.299 -194.4,-142.202 -104.3,-83.797 -131.2,189.402 -131.2,189.402 l 262.4,1994.2 c 103.3,71.9 214.8,113 325.9,133.4 89.5,16.4 178.7,19.4 263.2,14.1 -4.3,-262 -29,-1809.1 -24.3,-2609.301" /><path
         id="path112"
         style="fill:#f46777;fill-opacity:1;fill-rule:nonzero;stroke:none"
         d="m 2591.4,3218.99 c -22.6,-257.8 -151.5,-1741.7 -179.7,-2353.099 -3.1,-66.602 -15,-128.301 -34,-185.5 3,17.699 5.5,32.101 7.2,42.398 16.8,101.402 16.3,259 -56.2,321.401 -72.5,62.3 -90.1,-58.299 -194.4,-142.202 -104.3,-83.797 -131.2,189.402 -131.2,189.402 l 262.4,1994.2 c 103.3,71.9 214.8,113 325.9,133.4" /><path
         id="path114"
         style="fill:#d9933b;fill-opacity:1;fill-rule:nonzero;stroke:none"
         d="m 2660.2,540 c 0,0 72.78,109.281 150.11,109.281 77.33,0 62.49,-108.883 62.49,-108.883 0,0 -74.88,-118.269 -212.6,-0.398" /><path
         id="path116"
         style="fill:#d9933b;fill-opacity:1;fill-rule:nonzero;stroke:none"
         d="m 1551.85,4104.13 c -8.2,-24 -25.5,-44.8 -56.7,-57.6 -125.2,-51.1 -184,64 -294,15.4 -53.4,-23.6 -60.9,-79.2 -72.1,-141.5 -1.1,-6 -2.2,-12 -3.4,-18.1 -8.1,-41.1 -19.7,-84 -48.3,-121.9 l 2.4,-0.2 c -25.2,-31.4 -58.1,-56.5 -92.199,-71.2 -15.801,-6.8 -31.703,-11.4 -47.301,-13.3 -24.902,-3 -48.699,0.7 -68.902,13 -10.399,6.3 -19.797,14.8 -27.899,25.9 -35.601,49 -50.601,150.1 -63.601,259.4 l -0.098,0.5 c -5.602,47.3 -10.902,96.1 -17.301,142.9 v 0.2 c -11.199,81.2 -25.699,156.4 -51.601,207 -10.7,21 -26.399,51.9 -45.598,89.3 -114.801,224.7 -351.199,687.3 -351.199,687.3 35.5,14.3 71.097,28.1 106.797,41.8 2.5,-4.4 377.5,-662.9 425,-831.4 24.203,-85.8 6.902,-449.1 118.5,-459.6 87.102,69.1 101.702,366.9 261.502,330.6 159.8,-36.3 307,-115.4 294.5,75.2 0,0 56.4,-101.4 31.5,-173.7" /><path
         id="path118"
         style="fill:#d9933b;fill-opacity:1;fill-rule:nonzero;stroke:none"
         d="m 420.813,5163.09 0.054,-0.1 c 15.988,6.11 31.957,12.27 47.981,18.24 l -48.035,-18.14" /><path
         id="path120"
         style="fill:#d9933b;fill-opacity:1;fill-rule:nonzero;stroke:none"
         d="m 2074.04,1771.96 c -5.9,-2.1 -12.38,-3.8 -19.49,-5.03 -84,30.8 -75.3,229.5 -100.8,304.4 -40.4,118.6 -278.9,636.9 -278.9,636.9 170.02,63.18 293.37,138.75 382.05,219.39 -22.24,24.82 -35.01,59.38 -37.26,94.69 -115.26,-107.96 -270.09,-174.18 -440.49,-174.18 -35.5,0 -70.4,2.9 -104.5,8.4 l -1.1,-4.4 c 0,0 345.1,-730.5 404.7,-983 l 0.1,-0.1 c 1.2,-5.3 2.3,-10.4 3.3,-15.2 3.4,-17 5.3,-31.3 5.3,-42.4 0,-77.64 86.08,-143.78 168.67,-149.15 8.39,37.36 14.52,72.88 18.42,109.68" /><path
         id="path122"
         style="fill:#d9933b;fill-opacity:1;fill-rule:nonzero;stroke:none"
         d="m 2161.18,3215.38 c 31.39,22.63 63.49,44.25 96.2,65.1 35.86,214.74 -57.91,392.97 -60.53,397.75 17.6,-58.7 27,-120.9 27,-185.3 0,-99.38 -22.52,-193.48 -62.67,-277.55" /><path
         id="path124"
         style="fill:#d9933b;fill-opacity:1;fill-rule:nonzero;stroke:none"
         d="m 692.25,5260.03 c 0,0 96.301,-12 273,-23.4 -267.5,-77.2 -472.699,-156.2 -602.301,-211.2 -29.898,58.5 -48.898,95.8 -48.898,95.8 51.398,20.7 103,40.7 154.797,60 h 0.203 c 74,27.7 148.398,53.9 223.199,78.8" /><path
         id="path126"
         style="fill:#d9933b;fill-opacity:1;fill-rule:nonzero;stroke:none"
         d="m 5197.55,5121.23 c 0,0 -20,-39.3 -52.2,-102.8 -1105.5,446.3 -2132.7,516.7 -2961.1,444.1 137.8,66.6 258.8,122.3 366.2,128.1 4.5,0.3 8.9,0.4 13.3,0.5 64,1.9 128.1,2.8 192.1,2.8 829.1,0 1658.3,-157.5 2441.7,-472.7" /><path
         id="path128"
         style="fill:#bb5f2f;fill-opacity:1;fill-rule:nonzero;stroke:none"
         d="m 4504.65,3412.93 c -12.2,-35.2 -45.1,-115.3 -103.9,-158.2 -39.4,-28.8 -90.2,-40.8 -154.2,-11.5 -5.1,2.3 -10.3,4.9 -15.6,7.8 -135.1,73.7 -120,199.5 -92,296.2 l 14.3,34.7 c -1.6,-7.8 -37.8,-191.8 118.8,-247.3 117.3,-41.7 191.7,4 232.6,78.3" /><path
         id="path130"
         style="fill:#bb5f2f;fill-opacity:1;fill-rule:nonzero;stroke:none"
         d="m 780.051,3993.53 9.797,-30.7 c -5.7,15.7 -8.899,27.3 -9.797,30.7" /><path
         id="path132"
         style="fill:#bb5f2f;fill-opacity:1;fill-rule:nonzero;stroke:none"
         d="m 1129.05,3920.43 c -1.1,-6 -2.2,-12 -3.4,-18.1 -8.1,-41.1 -19.7,-84 -48.3,-121.9 l 2.4,-0.2 c -25.2,-31.4 -58.1,-56.5 -92.199,-71.2 -15.801,-6.8 -31.703,-11.4 -47.301,-13.3 -24.902,-3 -48.699,0.7 -68.902,13 l -81.098,253 c 17.898,-48.5 59.5,-135.1 132.199,-149.7 101.801,-20.3 200.201,98.5 200.201,152.8 0,15.1 2.6,-6 6.4,-44.4" /><path
         id="path134"
         style="fill:#bb5f2f;fill-opacity:1;fill-rule:nonzero;stroke:none"
         d="m 2069.49,1736.18 c -92.76,-20.55 -156.04,82.95 -156.04,82.95 l -31.8,34.7 c 3.4,-17 5.3,-31.3 5.3,-42.4 0,-77.64 86.08,-143.78 168.67,-149.15 5.65,25.15 10.27,49.48 13.87,73.9" /><path
         id="path136"
         style="fill:#bd2d35;fill-opacity:1;fill-rule:nonzero;stroke:none"
         d="m 2161.09,3215.31 c 8.7,18.2 16.67,36.82 23.66,55.92 -23.44,-33.92 -47.58,-64.42 -72.16,-91.96 15.97,12.3 32.17,24.27 48.5,36.04" /><path
         id="path138"
         style="fill:#bd2d35;fill-opacity:1;fill-rule:nonzero;stroke:none"
         d="M 2034.84,3102.98 C 1742.99,2853.9 1421.55,2965.93 1421.55,2965.93 l -315.2,672 c 152,130.8 103.7,283.8 155.6,324.9 30.57,24.25 55.88,8.73 104.12,-6.79 33.49,-10.77 78.04,-21.55 143.08,-19.01 158.7,6.1 174.5,192.1 174.5,192.1 l -0.2,0.1 c -34,5.5 -68.8,8.4 -104.3,8.4 -5.6,0 -11.1,-0.1 -16.5,-0.2 h -0.1 c -21.9,-110.4 -135.8,-118.3 -232.5,-79.1 -126.5,51.1 -204.4,-12.2 -204.4,-158.2 0,-101.6 -98.9,-193.8 -185.4,-204.4 155.8,-259.4 408.2,-805.1 408.2,-805.1 40.3,-15.5 82.6,-27.01 126.2,-34.1 34.1,-5.5 69,-8.4 104.5,-8.4 170.38,0 325.23,66.17 440.49,174.11 -1.8,28.07 3.04,56.48 15.2,80.74" /><path
         id="path140"
         style="fill:#bd2d35;fill-opacity:1;fill-rule:nonzero;stroke:none"
         d="m 3810.73,4177.42 c -315.43,0 -571.19,255.75 -571.19,571.18 0,315.43 255.76,571.19 571.19,571.19 315.43,0 571.19,-255.76 571.19,-571.19 0,-315.43 -255.76,-571.18 -571.19,-571.18 M 3761.25,5340 c -358.65,0 -649.44,-290.79 -649.44,-649.44 0,-358.75 290.79,-649.44 649.44,-649.44 358.75,0 649.54,290.69 649.54,649.44 0,358.65 -290.79,649.44 -649.54,649.44" /><path
         id="path142"
         style="fill:#bd2d35;fill-opacity:1;fill-rule:nonzero;stroke:none"
         d="m 2550.45,5590.63 c -105.3,-5.7 -223.6,-59.3 -358,-124.2 -449.3,-39.7 -1043.4,-177.8 -1250.899,-228.3 -48.102,-11.7 -75.403,-18.7 -75.403,-18.7 l -21.3,25.9 -41.598,50.5 c 569.4,178.1 1157.4,276.4 1747.2,294.8" /><path
         id="path144"
         style="fill:#fdfbc2;fill-opacity:1;fill-rule:nonzero;stroke:none"
         d="m 1249.94,4219.44 c 0,0 143.37,-57.65 190.04,-43.92 46.67,13.72 49.41,57.65 49.41,57.65 0,0 -56.12,-38.44 -239.45,-13.73" /><path
         id="path146"
         style="fill:#fdfbc2;fill-opacity:1;fill-rule:nonzero;stroke:none"
         d="m 4037.02,3118.23 c 0,0 -242.53,-387.64 -223.09,-431.7 19.44,-44.06 202.49,278.03 223.09,431.7" /><path
         id="path148"
         style="fill:#fdfbc2;fill-opacity:1;fill-rule:nonzero;stroke:none"
         d="m 1801.66,2569.7 c 0,0 125.29,-332.83 172.68,-414.46 47.38,-81.62 -64.3,297.88 -114.27,379.4 -49.98,81.52 -75.52,80 -58.41,35.06" /><path
         id="path150"
         style="fill:#fdfbc2;fill-opacity:1;fill-rule:nonzero;stroke:none"
         d="m 639.648,4868.37 c 0,0 125.633,-266.26 163.602,-338.4 37.969,-72.15 108.453,-56.92 62.91,50.83 -45.543,107.76 -123.832,247.85 -156.793,305.53 -32.961,57.69 -126.906,102.47 -69.719,-17.96" /><path
         id="path152"
         style="fill:#fdfbc2;fill-opacity:1;fill-rule:nonzero;stroke:none"
         d="m 3124.62,5214.69 c 0,0 -136.48,-143.7 -134.85,-323.1 1.63,-179.4 32.34,-145.03 37.54,-98.68 5.2,46.35 100.77,365.73 183.8,426.56 83.03,60.82 -56.3,32.13 -86.49,-4.78" /><path
         id="path154"
         style="fill:#fdfbc2;fill-opacity:1;fill-rule:nonzero;stroke:none"
         d="m 3000.03,4678.26 c 0,0 -24.38,-57.35 0,-89.15 24.39,-31.8 40.88,-2.5 40.88,25.46 0,27.96 3.46,132.41 -40.88,63.69" /><path
         id="path156"
         style="fill:#fdfbc2;fill-opacity:1;fill-rule:nonzero;stroke:none"
         d="m 880.977,4428.88 c -16.75,-30.84 -7.692,-112.71 22.339,-123.56 30.028,-10.85 37.832,40.2 36.934,76.24 -0.898,36.03 -33.562,94.65 -59.273,47.32" /><path
         id="path158"
         style="fill:#d9933b;fill-opacity:1;fill-rule:nonzero;stroke:none"
         d="m 4394.15,4557.03 c -18.2,-343.9 -302.8,-617 -651.2,-617 -360.2,0 -652.2,291.9 -652.2,652.1 0,80.5 14.6,157.7 41.3,228.9 -7.1,-38.3 -10.8,-77.7 -10.8,-118 0,-356.1 288.6,-644.7 644.7,-644.7 305.9,0 562,212.9 628.2,498.7" /><path
         id="path160"
         style="fill:#fdfbc2;fill-opacity:1;fill-rule:nonzero;stroke:none"
         d="m 2282.55,5470.43 c 0,0 -230.9,-166.6 -422.5,-251 -191.5,-84.3 -503.6,-107.1 -731,-76.7 -227.402,30.4 -262.902,76.7 -262.902,76.7 l 4.903,23.9 c 28.199,-2.2 59.699,-4.5 94.199,-6.7 101.3,-6.6 229.1,-13 380.4,-16.8 335.1,-8.4 610,132.1 838.6,242.7 8.8,4.2 17.5,8.4 26.1,12.6 l 72.2,-4.7" /><path
         id="path162"
         style="fill:#b97135;fill-opacity:1;fill-rule:nonzero;stroke:none"
         d="m 5197.55,5121.23 c -783.4,315.2 -1612.6,472.7 -2441.7,472.7 -64,0 -128.1,-0.9 -192.1,-2.8 -4.4,-0.1 -8.8,-0.2 -13.3,-0.5 -628.2,-19.6 -1254.3,-129.8 -1858.204,-330.6 -127.098,-42.3 -253.199,-88.5 -378.199,-138.8 -230.5978,174.2 -330.797,474.3 -253.797,752.8 40.602,16.3 81.301,32.3 122.098,47.9 -37.899,-200.9 -34.297,-391.5 131.699,-516.9 125,50.3 251.101,96.5 378.199,138.8 603.904,200.8 1230.004,311 1858.204,330.6 4.5,0.3 8.9,0.4 13.3,0.5 64,1.9 128.1,2.8 192.1,2.8 829.1,0 1658.3,-157.5 2441.7,-472.7 166,125.4 169.6,316 131.7,516.9 40.8,-15.6 81.5,-31.6 122.1,-47.9 77,-278.5 -23.2,-578.6 -253.8,-752.8" /><path
         id="path164"
         style="fill:#b97135;fill-opacity:1;fill-rule:nonzero;stroke:none"
         d="m 5197.55,5121.23 c -783.4,315.2 -1612.6,472.7 -2441.7,472.7 -64,0 -128.1,-0.9 -192.1,-2.8 -4.4,-0.1 -8.8,-0.2 -13.3,-0.5 -628.2,-19.6 -1254.3,-129.8 -1858.204,-330.6 -127.098,-42.3 -253.199,-88.5 -378.199,-138.8 -230.5978,174.2 -330.797,474.3 -253.797,752.8 40.602,16.3 81.301,32.3 122.098,47.9 -37.899,-200.9 -34.297,-391.5 131.699,-516.9 125,50.3 251.101,96.5 378.199,138.8 603.904,200.8 1230.004,311 1858.204,330.6 4.5,0.3 8.9,0.4 13.3,0.5 64,1.9 128.1,2.8 192.1,2.8 829.1,0 1658.3,-157.5 2441.7,-472.7 166,125.4 169.6,316 131.7,516.9 40.8,-15.6 81.5,-31.6 122.1,-47.9 77,-278.5 -23.2,-578.6 -253.8,-752.8" /><path
         id="path166"
         style="fill:#9f5825;fill-opacity:1;fill-rule:nonzero;stroke:none"
         d="m 5295.7,5227.84 c -814.89,327.87 -1677.42,491.7 -2539.85,491.7 -66.57,0 -133.25,-0.93 -199.82,-2.91 -4.58,-0.1 -9.16,-0.21 -13.84,-0.52 -653.45,-20.39 -1304.72,-135.02 -1932.893,-343.89 -132.207,-44 -263.375,-92.06 -393.402,-144.38 -13.965,10.55 -27.426,21.59 -40.465,33 38.847,-52.05 85.183,-99.25 138.617,-139.61 125,50.3 251.101,96.5 378.199,138.8 603.904,200.8 1230.004,311 1858.204,330.6 4.5,0.3 8.9,0.4 13.3,0.5 64,1.9 128.1,2.8 192.1,2.8 829.1,0 1658.3,-157.5 2441.7,-472.7 53.44,40.36 99.77,87.56 138.62,139.61 -13.04,-11.41 -26.5,-22.45 -40.47,-33" /><path
         id="path168"
         style="fill:#e1b169;fill-opacity:1;fill-rule:nonzero;stroke:none"
         d="m 5476.79,5699.96 c -1.19,58.08 -9.53,116.53 -25.44,174.07 -40.6,16.3 -81.3,32.3 -122.1,47.9 v 0 c 8.52,-45.18 14.94,-89.84 17.9,-133.34 -829.65,319.14 -1700.84,480.88 -2591.26,480.88 -890.58,0 -1761.745,-161.73 -2591.441,-480.92 2.949,43.52 9.375,88.19 17.899,133.38 v 0 c -40.797,-15.6 -81.496,-31.6 -122.098,-47.9 -14.1562,-51.2 -22.3242,-103.14 -24.793,-154.89 2.2891,52.57 10.4453,105.36 24.8321,157.38 860.8009,346.3 1767.7009,521.91 2695.6009,521.91 927.8,0 1834.7,-175.61 2695.5,-521.91 16.13,-58.36 24.43,-117.66 25.4,-176.56" /><path
         id="path170"
         style="fill:#d79b4f;fill-opacity:1;fill-rule:nonzero;stroke:none"
         d="m 5473.94,5623.43 c -3.8,41.54 -11.2,83.07 -22.55,124.14 -34.68,13.95 -69.42,27.62 -104.24,41.02 -2.96,43.5 -9.38,88.16 -17.9,133.34 v 0 c 40.8,-15.6 81.5,-31.6 122.1,-47.9 15.91,-57.54 24.25,-115.99 25.44,-174.07 0.43,-25.62 -0.54,-51.17 -2.85,-76.53 m -5436.2056,0 c -2.8867,31.69 -3.6719,63.66 -2.2774,95.71 2.4688,51.75 10.6368,103.69 24.793,154.89 40.602,16.3 81.301,32.3 122.098,47.9 v 0 c -8.524,-45.19 -14.95,-89.86 -17.899,-133.38 C 129.68,5775.18 94.9102,5761.5 60.2891,5747.57 48.9336,5706.5 41.5352,5664.97 37.7344,5623.43" /><path
         id="path172"
         style="fill:#f68c60;fill-opacity:1;fill-rule:nonzero;stroke:none"
         d="m 2115.45,3182.53 -0.32,-1.25 c 15.15,11.63 30.54,22.92 46.02,34.07 8.68,18.19 16.61,36.8 23.6,55.88 25.3,69.2 39.1,143.8 39.1,221.7 0,300.3 -205.5,552.8 -483.6,624.3 l -17,-26.8 c 0,0 578.5,-209.6 392.2,-907.9" /><path
         id="path174"
         style="fill:#f68c60;fill-opacity:1;fill-rule:nonzero;stroke:none"
         d="m 3478.81,2733.86 c 0.22,-4.9 0.09,-9.73 -0.21,-14.51 96.81,-26.22 197.6,-75.76 298.55,-158.72 -77.75,97.5 -183.3,171.75 -304.57,211.26 3.41,-12.33 5.64,-25.05 6.23,-38.03" /><path
         id="path176"
         style="fill:#f68c60;fill-opacity:1;fill-rule:nonzero;stroke:none"
         d="m 4410.75,4703.03 c 0,-50.2 -5.7,-99.1 -16.6,-146 -43.8,682.2 -632.9,783 -632.9,783 l 36.9,6.9 c 341.1,-16.8 612.6,-298.6 612.6,-643.9" /><path
         id="path178"
         style="fill:#bb5f2f;fill-opacity:1;fill-rule:nonzero;stroke:none"
         d="m 4129.55,3389.33 c 0,125.4 101.77,364.15 -9.43,416.15 -3.97,1.86 -7.87,3.36 -11.72,4.68 12.51,-71.41 -24.51,-210.2 -24.51,-210.2 l -0.03,-0.04 c -8.02,-24.78 -19.42,-57.1 -33.11,-100.6 -34.6,-109.9 -17.3,-300.79 138.7,-368.79 l 57.1,112.7 2.6,5.1 c 15.2,-5.1 30.6,-8.5 46,-10.4 -48.9,12.4 -165.6,52.4 -165.6,151.4" /><path
         id="path180"
         style="fill:#d9933b;fill-opacity:1;fill-rule:nonzero;stroke:none"
         d="m 4536.55,3678.03 c -24.2,7.9 -39.1,6.1 -37.9,-11.4 5.5,-81.3 -88.6,-290.8 -163,-290.8 -68.46,0 -114.83,53.28 -86.4,135.15 l -0.18,-0.13 c 101.68,307.62 -140.68,299.31 -140.68,299.31 57.4,-29.85 65.78,-94.93 65.88,-129.65 0.42,-7.77 0.06,-15.47 -1.22,-22.88 -4.1,-24 -20.6,-63.8 -34.1,-110.4 -28,-96.7 -43.1,-222.5 92,-296.2 5.3,-2.9 10.5,-5.5 15.6,-7.8 64,-29.3 114.8,-17.3 154.2,11.5 58.8,42.9 91.7,123 103.9,158.2 3.1,8.9 4.8,14.9 5.3,16.7 l 0.1,0.5 c 3.5,23.5 5.1,49.3 4.5,77.6 -0.9,46.5 7.9,106.5 22,170.3" /><path
         id="path182"
         style="fill:#a21f26;fill-opacity:1;fill-rule:nonzero;stroke:none"
         d="m 3766.02,5336.92 c -347.22,0 -629.71,-282.48 -629.71,-629.7 0,-347.22 282.49,-629.7 629.71,-629.7 294.83,0 547.15,200.3 613.58,487.09 10.76,46.26 16.22,94.24 16.22,142.61 0,336.14 -262.83,612.4 -598.34,628.92 -11.2,0.52 -21.5,0.78 -31.46,0.78 m 0,-1289.4 c -363.76,0 -659.71,295.94 -659.71,659.7 0,363.76 295.95,659.7 659.71,659.7 10.44,0 21.2,-0.27 32.9,-0.81 351.54,-17.32 626.9,-306.73 626.9,-658.89 0,-50.65 -5.72,-100.92 -17,-149.4 -69.59,-300.45 -333.92,-510.3 -642.8,-510.3" /><path
         id="path184"
         style="fill:#a21f26;fill-opacity:1;fill-rule:nonzero;stroke:none"
         d="m 3901.1,2365.23 c -11.07,34.31 -24.88,67.64 -41.04,99.04 -19.86,38.71 -43.79,75.68 -71.11,109.9 -84.83,106.38 -197.82,182.05 -324.16,220.29 4.81,-11.14 8.35,-22.88 10.74,-34.92 112.72,-38.18 213.37,-108.02 289.97,-204.08 26.09,-32.66 48.92,-67.96 67.87,-104.91 14.33,-27.82 26.72,-57.24 36.88,-87.54 -22.75,-33.33 -132.22,-197.27 -248.69,-431.09 3.09,-17.35 5.75,-34.76 7.75,-52.23 135.88,280.31 268.11,469.93 269.79,472.31 l 4.29,6.11 -2.29,7.12" /><path
         id="path186"
         style="fill:#a21f26;fill-opacity:1;fill-rule:nonzero;stroke:none"
         d="m 2019.7,3047.47 c -116.92,-114.07 -275.37,-180.15 -440.49,-180.15 -33.98,0 -68.34,2.76 -102.08,8.2 -40.18,6.55 -79.7,17.02 -117.57,31.16 -26.47,56.92 -249.04,533.6 -395.474,782.6 86.054,22.57 176.634,113.91 176.634,215.04 0,70.93 18.71,121.04 54.11,144.92 31.39,21.18 76.24,20.95 129.66,-0.62 69.78,-28.29 139.68,-29.93 187,-4.38 31.26,16.87 52.89,45.26 63.06,82.56 34.29,0.29 69.84,-2.37 104.32,-7.83 l 2.44,-0.45 c 18.3,-2.98 36.9,-6.88 55.28,-11.62 278.1,-71.51 472.33,-322.26 472.33,-609.78 0,-74.39 -12.85,-147.24 -38.18,-216.54 -11.09,-30.29 -24.55,-59.58 -40.09,-87.73 17.22,12.95 34.65,25.62 52.28,37.97 5.73,12.97 11.09,26.11 15.98,39.45 26.54,72.61 40.01,148.94 40.01,226.85 0,301.22 -203.5,563.91 -494.85,638.83 -18.49,4.76 -37.21,8.74 -55.68,11.81 l -2.48,0.47 c -35.24,5.7 -71.14,8.59 -106.7,8.59 -5.52,0 -10.95,-0.09 -16.59,-0.2 h -12.31 l -2.41,-12.08 c -6.86,-34.6 -23.9,-59.46 -50.66,-73.9 -39.55,-21.34 -99.9,-19.18 -161.5,5.79 -63.09,25.5 -117.64,24.69 -157.69,-2.32 -44.05,-29.72 -67.33,-88.43 -67.33,-169.79 0,-94.84 -92.58,-179.75 -172.228,-189.51 l -22.929,-2.81 11.89,-19.81 c 153.607,-255.73 404.937,-798.22 407.457,-803.67 l 2.54,-5.51 5.69,-2.19 c 41.5,-15.96 84.96,-27.71 129.19,-34.91 35.35,-5.7 71.31,-8.59 106.88,-8.59 163.94,0 321.69,62.04 442,170.22 -1.97,13.22 -2.58,26.66 -1.51,39.93" /><path
         id="path188"
         style="fill:#c22c2c;fill-opacity:1;fill-rule:nonzero;stroke:none"
         d="m 1695.99,3800.83 v 0 c 6.4,4.13 12.04,10.28 13.78,17.93 0.37,1.59 0.61,3.31 0.78,5.05 21.11,14.08 15.77,55.25 -16.31,55.25 -4.59,0 -8.63,-0.86 -12.12,-2.37 -7,41.32 -15.72,97.44 -23.97,163.23 15.22,31.87 21.62,62.73 24.09,78.45 17.18,-2.82 34.6,-6.46 51.86,-10.84 l -10.85,-17.1 c 0,0 184.61,-66.91 311.67,-250.97 -56.19,-2.78 -112.98,-6.93 -168.54,-12.9 -6.19,2.95 -12.87,4.37 -19.51,4.37 -10.45,0 -20.79,-3.52 -28.97,-10.11 -42.03,-5.44 -82.96,-12.04 -121.91,-19.99" /><path
         id="path190"
         style="fill:#c4634b;fill-opacity:1;fill-rule:nonzero;stroke:none"
         d="m 1817.9,3820.82 c 8.18,6.59 18.52,10.11 28.97,10.11 6.64,0 13.32,-1.42 19.51,-4.37 -16.28,-1.76 -32.48,-3.67 -48.48,-5.74" /><path
         id="path192"
         style="fill:#7d161a;fill-opacity:1;fill-rule:nonzero;stroke:none"
         d="m 1695.99,3800.83 c 0,0 -5.77,27.97 -13.87,75.86 3.49,1.51 7.53,2.37 12.12,2.37 32.08,0 37.42,-41.17 16.31,-55.25 -0.17,-1.74 -0.41,-3.46 -0.78,-5.05 -1.74,-7.65 -7.38,-13.8 -13.78,-17.93 v 0" /><path
         id="path194"
         style="fill:#971c1f;fill-opacity:1;fill-rule:nonzero;stroke:none"
         d="m 1658.15,4039.92 c -3.3,26.27 -6.52,54.08 -9.53,83.1 10.14,-1.11 20.24,-2.46 30.25,-4.05 l 2.44,-0.45 c 0.31,-0.05 0.62,-0.1 0.93,-0.15 -2.47,-15.72 -8.87,-46.58 -24.09,-78.45" /><path
         id="path196"
         style="fill:#d1ac39;fill-opacity:1;fill-rule:nonzero;stroke:none"
         d="m 2585.42,3832.24 c 0,0 -150.87,12 -346.28,12 -31.68,0 -64.52,-0.32 -98.09,-1.05 -87.23,141.66 -227.19,249.1 -396.98,292.76 -18.49,4.76 -37.21,8.74 -55.68,11.81 l -2.48,0.47 c -13.36,2.16 -26.82,3.92 -40.32,5.27 -34.11,358.1 -30.13,874.32 255.37,978.3 85.53,31.15 171.35,49.28 252.68,49.28 342.76,0 605.79,-322.03 431.78,-1348.84" /><path
         id="path198"
         style="fill:#d46d43;fill-opacity:1;fill-rule:nonzero;stroke:none"
         d="m 2034.92,3839.46 c -127.06,184.06 -311.67,250.97 -311.67,250.97 l 10.85,17.1 c 0.83,-0.21 1.66,-0.42 2.49,-0.63 156.09,-40.14 285.76,-136.74 369.5,-264.62 -23.51,-0.72 -47.28,-1.64 -71.17,-2.82" /><path
         id="path200"
         style="fill:#7d161a;fill-opacity:1;fill-rule:nonzero;stroke:none"
         d="m 2106.09,3842.28 c -83.74,127.88 -213.41,224.48 -369.5,264.62 -0.83,0.21 -1.66,0.42 -2.49,0.63 -17.26,4.38 -34.68,8.02 -51.86,10.84 -0.31,0.05 -0.62,0.1 -0.93,0.15 l -2.44,0.45 c -10.01,1.59 -20.11,2.94 -30.25,4.05 -1.03,10 -2.05,20.2 -3.03,30.48 13.5,-1.35 26.96,-3.11 40.32,-5.27 l 2.48,-0.47 c 18.47,-3.07 37.19,-7.05 55.68,-11.81 169.79,-43.66 309.75,-151.1 396.98,-292.76 -11.58,-0.25 -23.23,-0.56 -34.96,-0.91" /><path
         id="path202"
         style="fill:#d1ac39;fill-opacity:1;fill-rule:nonzero;stroke:none"
         d="m 3936.28,3767.08 c 0,0 -162.59,122.48 -493.64,122.48 -112.12,0 -243.49,-14.03 -394.51,-51.63 0,0 -161.45,597.79 -56.54,996.8 3.61,-58.89 11.82,-78.94 19.53,-78.94 7.21,0 13.99,17.49 16.19,37.12 3.35,29.8 44.03,172.42 94.72,286.65 46.71,45.73 105.32,78.77 178.38,94.57 -113.18,-112.86 -185.7,-266.47 -193.41,-436.69 -10.64,-46.74 -16.25,-95.39 -16.25,-145.31 0,-360.2 292,-652.1 652.2,-652.1 70.87,0 139.13,11.31 203.02,32.21 -2.61,-68.07 -6,-136.63 -9.69,-205.16 m -911.88,934.18 c -5.85,0 -13.73,-6.51 -24.37,-23 0,0 -24.38,-57.35 0,-89.15 7.54,-9.82 14.32,-13.82 20.09,-13.82 12.92,0 20.79,19.96 20.79,39.28 0,21.25 2,86.69 -16.51,86.69" /><path
         id="path204"
         style="fill:#dadd9e;fill-opacity:1;fill-rule:nonzero;stroke:none"
         d="m 3011.12,4755.79 c -7.71,0 -15.92,20.05 -19.53,78.94 25.57,97.28 67,182.72 130.44,244.83 -50.69,-114.23 -91.37,-256.85 -94.72,-286.65 -2.2,-19.63 -8.98,-37.12 -16.19,-37.12" /><path
         id="path206"
         style="fill:#dadd9e;fill-opacity:1;fill-rule:nonzero;stroke:none"
         d="m 3020.12,4575.29 c -5.77,0 -12.55,4 -20.09,13.82 -24.38,31.8 0,89.15 0,89.15 10.64,16.49 18.52,23 24.37,23 18.51,0 16.51,-65.44 16.51,-86.69 0,-19.32 -7.87,-39.28 -20.79,-39.28" /><path
         id="path208"
         style="fill:#b47420;fill-opacity:1;fill-rule:nonzero;stroke:none"
         d="m 3742.95,3940.03 c -360.2,0 -652.2,291.9 -652.2,652.1 0,49.92 5.61,98.57 16.25,145.31 -0.46,-10.02 -0.69,-20.1 -0.69,-30.22 0,-363.76 295.95,-659.7 659.71,-659.7 63.38,0 124.87,8.83 183.21,25.48 -0.86,-33.38 -1.96,-67.02 -3.26,-100.76 -63.89,-20.9 -132.15,-32.21 -203.02,-32.21" /><path
         id="path210"
         style="fill:#c22c2c;fill-opacity:1;fill-rule:nonzero;stroke:none"
         d="m 3810.73,4177.42 c -315.43,0 -571.19,255.75 -571.19,571.18 0,175.6 79.25,332.69 203.94,437.48 106.61,-2.73 191.86,-32.8 259.63,-84.63 -7.03,-1.34 -13.82,-3.89 -19.95,-7.74 -9.77,-6.16 -17.57,-15.62 -20.68,-26.9 -2.96,-10.77 -1.62,-25.11 4.54,-34.67 8.71,-13.51 24.1,-22.06 39.74,-22.15 4.75,-3.27 9.97,-5.79 14.44,-7.02 3.64,-1 7.68,-1.51 11.81,-1.51 8.1,0 16.53,1.97 22.86,6.05 8.45,5.44 16,13.22 19.48,22.82 142.42,-177.6 177.31,-488.51 175.77,-835.53 -44.91,-11.35 -91.95,-17.38 -140.39,-17.38 m -60.41,194.92 c -16.52,0 -33.59,-11.61 -38.43,-28.07 l -0.08,-0.35 c -12.3,-13.2 -21.68,-28.83 -28.09,-46.47 -5.53,-15.23 6.22,-32.86 20.96,-36.91 2.72,-0.74 5.38,-1.1 7.96,-1.1 12.85,0 23.57,8.76 28.44,20.96 4.96,-4.6 11.42,-7.53 19.29,-7.53 14.92,0 31.69,13.78 30,30 -1.06,10.14 -3.74,18.41 -9.16,26.16 3.81,10.34 1.42,22.41 -6.55,31.98 -6.58,7.91 -15.38,11.33 -24.34,11.33 m -231.44,227.34 c -14.8,0 -29.38,-12.56 -29.86,-27.84 -12.11,-1.17 -23.02,-8.94 -26.48,-21.52 -3,-10.92 1.08,-23.44 9.55,-30.9 -5.33,-17.62 11.35,-38.02 29.68,-38.03 2.6,0 5.23,0.41 7.83,1.3 10.71,3.64 21.42,7.28 32.13,10.91 26.28,8.93 27.52,39.21 7.16,54.84 l -0.75,0.51 c 0.86,6.89 1.15,13.84 0.74,20.73 -0.94,16.18 -13.11,30 -30,30 m 231.48,64.11 c -11.32,0 -21.89,-3.94 -30.11,-11.02 -11.02,-2.82 -20.95,-9.82 -27.88,-20.49 -11.1,-17.1 -19.17,-36.74 -22.83,-56.81 -3.49,-19.12 2.12,-41.01 20.68,-50.82 7.31,-3.86 14.79,-5.69 22.14,-5.69 11.52,0 22.7,4.5 32.39,12.73 23.21,19.71 39.32,46.54 48.24,75.47 6.94,22.49 -8.23,50.07 -31.43,55.35 -3.77,0.86 -7.53,1.28 -11.2,1.28 m -340.6,215.15 c -2.73,0 -5.48,-0.11 -8.25,-0.32 -21.64,-1.66 -35.81,-13.16 -43.39,-33.04 -4.17,-10.93 -8.34,-21.86 -12.51,-32.79 -8.4,-22.04 9.29,-50.32 31.43,-55.36 3.92,-0.89 7.72,-1.32 11.38,-1.32 9.3,0 17.67,2.77 24.79,7.62 3.54,-0.84 7.1,-1.47 10.58,-1.62 0.76,-0.04 1.52,-0.05 2.27,-0.05 23.44,-0.01 44.94,16.19 51.57,38.71 6.3,21.38 -0.99,45.67 -17.63,60.44 -14.31,12.7 -31.79,17.73 -50.24,17.73 m 259.56,-90.76 c 6.53,-5.12 12.55,-8.79 21.21,-8.79 7.36,0 16.15,3.27 21.22,8.79 9.9,10.79 13.18,32.08 0,42.43 -15.07,11.81 -31.18,18.04 -49.05,18.04 -5.28,0 -10.72,-0.55 -16.33,-1.65 -15.42,-3.04 -25.68,-22.28 -20.95,-36.91 4.51,-13.95 16.08,-21.68 29.6,-21.68 2.39,0 4.83,0.24 7.3,0.73 l 0.27,0.07 0.74,-0.14 1.99,-0.1 0.14,-0.04 c 0.6,-0.25 3.31,-1.42 4.45,-1.77 0.94,-0.64 1.92,-1.27 2.07,-1.27 0.14,0 -0.48,0.58 -2.66,2.29 m -190.24,290.78 c -0.38,0 -0.75,-0.01 -1.13,-0.03 -16.12,-0.72 -30.16,-13.18 -30,-30 0.15,-14.6 0.29,-29.21 0.44,-43.81 0.18,-18.16 14.52,-29.41 30.23,-29.41 4.97,0 10.07,1.12 14.91,3.51 22.16,10.92 36.74,29.96 45.88,52.38 5.93,14.58 -6.44,33.6 -20.96,36.91 -2.7,0.61 -5.31,0.91 -7.79,0.91 -3.49,0 -6.75,-0.58 -9.77,-1.66 -5.31,6.62 -13.08,11.2 -21.81,11.2" /><path
         id="path212"
         style="fill:#c4634b;fill-opacity:1;fill-rule:nonzero;stroke:none"
         d="m 3388.42,4756.11 c -3.66,0 -7.46,0.43 -11.38,1.32 -22.14,5.04 -39.83,33.32 -31.43,55.36 4.17,10.93 8.34,21.86 12.51,32.79 7.58,19.88 21.75,31.38 43.39,33.04 2.77,0.21 5.52,0.32 8.25,0.32 18.45,0 35.93,-5.03 50.24,-17.73 16.64,-14.77 23.93,-39.06 17.63,-60.44 -6.63,-22.52 -28.13,-38.72 -51.57,-38.71 -0.75,0 -1.51,0.01 -2.27,0.05 -3.48,0.15 -7.04,0.78 -10.58,1.62 -7.12,-4.85 -15.49,-7.62 -24.79,-7.62" /><path
         id="path214"
         style="fill:#c4634b;fill-opacity:1;fill-rule:nonzero;stroke:none"
         d="m 3712.36,4518.96 c -7.35,0 -14.83,1.83 -22.14,5.69 -18.56,9.81 -24.17,31.7 -20.68,50.82 3.66,20.07 11.73,39.71 22.83,56.81 6.93,10.67 16.86,17.67 27.88,20.49 8.22,7.08 18.79,11.02 30.11,11.02 3.67,0 7.43,-0.42 11.2,-1.28 23.2,-5.28 38.37,-32.86 31.43,-55.35 -8.92,-28.93 -25.03,-55.76 -48.24,-75.47 -9.69,-8.23 -20.87,-12.73 -32.39,-12.73" /><path
         id="path216"
         style="fill:#c4634b;fill-opacity:1;fill-rule:nonzero;stroke:none"
         d="m 3733.01,5001.46 c -4.13,0 -8.17,0.51 -11.81,1.51 -4.47,1.23 -9.69,3.75 -14.44,7.02 -15.64,0.09 -31.03,8.64 -39.74,22.15 -6.16,9.56 -7.5,23.9 -4.54,34.67 3.11,11.28 10.91,20.74 20.68,26.9 6.13,3.85 12.92,6.4 19.95,7.74 26.71,-20.43 50.7,-44.25 72.24,-71.12 -3.48,-9.6 -11.03,-17.38 -19.48,-22.82 -6.33,-4.08 -14.76,-6.05 -22.86,-6.05" /><path
         id="path218"
         style="fill:#7d161a;fill-opacity:1;fill-rule:nonzero;stroke:none"
         d="m 3712.64,4259.44 c -2.58,0 -5.24,0.36 -7.96,1.1 -14.74,4.05 -26.49,21.68 -20.96,36.91 6.41,17.64 15.79,33.27 28.09,46.47 l 0.08,0.35 c 4.84,16.46 21.91,28.07 38.43,28.07 8.96,0 17.76,-3.42 24.34,-11.33 7.97,-9.57 10.36,-21.64 6.55,-31.98 5.42,-7.75 8.1,-16.02 9.16,-26.16 1.69,-16.22 -15.08,-30 -30,-30 -7.87,0 -14.33,2.93 -19.29,7.53 -4.87,-12.2 -15.59,-20.96 -28.44,-20.96" /><path
         id="path220"
         style="fill:#7d161a;fill-opacity:1;fill-rule:nonzero;stroke:none"
         d="m 3501.77,4481.39 c -18.33,0.01 -35.01,20.41 -29.68,38.03 -8.47,7.46 -12.55,19.98 -9.55,30.9 3.46,12.58 14.37,20.35 26.48,21.52 0.48,15.28 15.06,27.84 29.86,27.84 16.89,0 29.06,-13.82 30,-30 0.41,-6.89 0.12,-13.84 -0.74,-20.73 l 0.75,-0.51 c 20.36,-15.63 19.12,-45.91 -7.16,-54.84 -10.71,-3.63 -21.42,-7.27 -32.13,-10.91 -2.6,-0.89 -5.23,-1.3 -7.83,-1.3" /><path
         id="path222"
         style="fill:#7d161a;fill-opacity:1;fill-rule:nonzero;stroke:none"
         d="m 3690.53,4779.39 c -8.66,0 -14.68,3.67 -21.21,8.79 2.18,-1.71 2.8,-2.29 2.66,-2.29 -0.15,0 -1.13,0.63 -2.07,1.27 -1.14,0.35 -3.85,1.52 -4.45,1.77 l -0.14,0.04 -1.99,0.1 -0.74,0.14 -0.27,-0.07 c -2.47,-0.49 -4.91,-0.73 -7.3,-0.73 -13.52,0 -25.09,7.73 -29.6,21.68 -4.73,14.63 5.53,33.87 20.95,36.91 5.61,1.1 11.05,1.65 16.33,1.65 17.87,0 33.98,-6.23 49.05,-18.04 13.18,-10.35 9.9,-31.64 0,-42.43 -5.07,-5.52 -13.86,-8.79 -21.22,-8.79" /><path
         id="path224"
         style="fill:#7d161a;fill-opacity:1;fill-rule:nonzero;stroke:none"
         d="m 3478.62,4975.71 c -15.71,0 -30.05,11.25 -30.23,29.41 -0.15,14.6 -0.29,29.21 -0.44,43.81 -0.16,16.82 13.88,29.28 30,30 0.38,0.02 0.75,0.03 1.13,0.03 8.73,0 16.5,-4.58 21.81,-11.2 3.02,1.08 6.28,1.66 9.77,1.66 2.48,0 5.09,-0.3 7.79,-0.91 14.52,-3.31 26.89,-22.33 20.96,-36.91 -9.14,-22.42 -23.72,-41.46 -45.88,-52.38 -4.84,-2.39 -9.94,-3.51 -14.91,-3.51" /><path
         id="path226"
         style="fill:#971c1f;fill-opacity:1;fill-rule:nonzero;stroke:none"
         d="m 3766.02,4077.52 c -347.22,0 -629.71,282.48 -629.71,629.7 0,189.4 84.05,359.53 216.81,475.06 25.8,2.68 50.6,4 74.3,4 5.42,0 10.75,-0.07 16.06,-0.2 -124.69,-104.79 -203.94,-261.88 -203.94,-437.48 0,-315.43 255.76,-571.18 571.19,-571.18 48.44,0 95.48,6.03 140.39,17.38 -0.13,-29.89 -0.54,-59.94 -1.17,-90.3 -58.35,-17.61 -120.14,-26.98 -183.93,-26.98" /><path
         id="path228"
         style="fill:#7d161a;fill-opacity:1;fill-rule:nonzero;stroke:none"
         d="m 3766.02,4047.52 c -363.76,0 -659.71,295.94 -659.71,659.7 0,10.12 0.23,20.2 0.69,30.22 7.71,170.22 80.23,323.83 193.41,436.69 13.83,3 28.19,5.37 43.07,7.1 3.24,0.37 6.44,0.72 9.64,1.05 -132.76,-115.53 -216.81,-285.66 -216.81,-475.06 0,-347.22 282.49,-629.7 629.71,-629.7 63.79,0 125.58,9.37 183.93,26.98 -0.21,-10.45 -0.46,-21.01 -0.72,-31.5 -58.34,-16.65 -119.83,-25.48 -183.21,-25.48" /><path
         id="path230"
         style="fill:#fdfbc2;fill-opacity:1;fill-rule:nonzero;stroke:none"
         d="m 2674.55,3506.39 c 0,0 504.95,54.11 904,-242.21 0,0 -306.59,416.36 -904,242.21" /><path
         id="path232"
         style="fill:#606abc;fill-opacity:1;fill-rule:nonzero;stroke:none"
         d="m 3441.9,2820.69 c -87.54,19.86 -191.61,39.84 -306,54.85 -8.51,128.96 -15.69,237.61 -20.9,316.55 113.85,-28.3 200.06,-62.95 237.55,-79.22 l 15.3,-50.8 48.67,-173.54 c 2.75,1.08 5.49,2.17 8.31,3.18 5.41,-22.4 11.11,-46.13 17.07,-71.02 m -1209.9,10.5 21.24,161.28 0.01,0.05 -21.22,-161.32 c -0.03,-0.01 -0.03,-0.01 -0.03,-0.01" /><path
         id="path234"
         style="fill:#14110f;fill-opacity:1;fill-rule:nonzero;stroke:none"
         d="m 3416.52,2888.53 -48.67,173.54 -15.3,50.8 c 13.38,-5.81 20.55,-9.28 20.55,-9.28 0,0 20.86,-83.89 51.73,-211.88 -2.82,-1.01 -5.56,-2.1 -8.31,-3.18 m -1163.28,103.94 12.26,93.12 -12.25,-93.07 -0.01,-0.05" /><path
         id="path236"
         style="fill:#7dcb29;fill-opacity:1;fill-rule:nonzero;stroke:none"
         d="m 3135.9,2875.54 c -90.08,11.81 -186.58,20.54 -286.51,23.7 2.36,158.36 4.27,276.7 5.21,333.85 v 0 c 95,-5.8 183.9,-22 260.4,-41 v 0 c 5.21,-78.94 12.39,-187.59 20.9,-316.55" /><path
         id="path238"
         style="fill:#edb00e;fill-opacity:1;fill-rule:nonzero;stroke:none"
         d="m 2563.11,2891.5 c 13.13,153.91 23.3,270.56 28.29,327.49 v 0 c 63.28,11.59 126.41,16.49 187.84,16.49 25.45,0 50.6,-0.84 75.36,-2.39 -0.94,-57.15 -2.85,-175.49 -5.21,-333.85 -26.71,0.85 -53.66,1.29 -80.8,1.29 -67.63,0 -136.41,-2.77 -205.48,-9.03" /><path
         id="path240"
         style="fill:#f03848;fill-opacity:1;fill-rule:nonzero;stroke:none"
         d="m 2232.03,2831.2 33.47,254.39 c 103.3,71.9 214.8,113 325.9,133.4 -4.99,-56.93 -15.16,-173.58 -28.29,-327.49 -110.88,-10.07 -222.46,-29.15 -331.11,-60.31" /><path
         id="path242"
         style="fill:#211c1d;fill-opacity:1;fill-rule:nonzero;stroke:none"
         d="m 2003.1,1091.39 28.5,217 47.99,364.67 c 0.01,0 0.03,0 0.04,0.01 l -47.99,-364.75 c -0.01,0.02 -0.03,0.05 -0.04,0.07 l -28.5,-217" /><path
         id="path244"
         style="fill:#f2a929;fill-opacity:1;fill-rule:nonzero;stroke:none"
         d="m 2079.59,1673.06 112.81,857.13 -112.77,-857.12 c -0.01,-0.01 -0.03,-0.01 -0.04,-0.01" /><path
         id="path246"
         style="fill:#d42425;fill-opacity:1;fill-rule:nonzero;stroke:none"
         d="m 3575.15,2245.75 v 0 c -9.24,41.77 -18.72,84.04 -28.29,126.24 0,-0.01 0.01,-0.01 0.02,-0.01 9.57,-42.21 19.04,-84.46 28.27,-126.23 m -48.59,215.07 c -2.29,9.96 -4.57,19.87 -6.86,29.77 2.29,-9.89 4.58,-19.82 6.87,-29.77 h -0.01" /><path
         id="path248"
         style="fill:#d84e3e;fill-opacity:1;fill-rule:nonzero;stroke:none"
         d="m 3546.88,2371.98 c -0.01,0 -0.02,0 -0.02,0.01 -6.74,29.69 -13.52,59.38 -20.3,88.83 h 0.01 c 6.79,-29.47 13.57,-59.14 20.31,-88.84" /><path
         id="path250"
         style="fill:#741519;fill-opacity:1;fill-rule:nonzero;stroke:none"
         d="m 3576.8,2238.25 c -0.55,2.49 -1.1,5.01 -1.65,7.5 v 0 c 0.55,-2.5 1.11,-5.01 1.65,-7.5" /><path
         id="path252"
         style="fill:#606abc;fill-opacity:1;fill-rule:nonzero;stroke:none"
         d="m 3392.09,884.422 c -4.74,0 -11,6.656 -18.99,21.269 -20.38,37.278 -65.44,64.02 -112.92,71.438 -29.78,461.881 -71.33,1094.781 -103.83,1588.221 117.4,-15.7 239.16,-39.8 363.35,-74.76 v 0 c 2.29,-9.9 4.57,-19.81 6.86,-29.77 6.78,-29.45 13.56,-59.14 20.3,-88.83 9.57,-42.2 19.05,-84.47 28.29,-126.24 0.55,-2.49 1.1,-5.01 1.65,-7.5 17.88,-81.04 34.82,-160.11 49.8,-233.26 3.12,-15.26 6.15,-30.27 9.09,-44.98 v 0 c -2.94,14.71 -5.97,29.72 -9.09,44.98 0.66,-20.59 1.08,-40.77 1.26,-60.48 -2.1,-4.18 -4.19,-8.36 -6.3,-12.59 2.33,-13.05 4.4,-26.13 6.14,-39.24 -3.12,-202.48 -36.88,-344.02 -119.83,-344.02 -10.98,0 -22.83,2.48 -35.57,7.63 -19.19,7.75 -35.55,11.44 -49.42,11.44 -81.88,0 -76.55,-128.78 -49.78,-311.44 26.39,-180.15 44.46,-371.868 18.99,-371.868 M 2031.64,1308.32 v 0 l 47.99,364.75 112.77,857.12 v 0 L 2031.64,1308.32" /><path
         id="path254"
         style="fill:#7dcb29;fill-opacity:1;fill-rule:nonzero;stroke:none"
         d="m 2979.86,654.672 c -18,0 -32.55,10.18 -38.86,31.219 -14.39,47.828 -49.27,137.48 -111.29,159.441 -0.01,520.798 8.14,1227.568 15.24,1743.868 99.06,-2.09 203.38,-9.41 311.4,-23.85 32.5,-493.44 74.05,-1126.34 103.83,-1588.221 -8.75,1.359 -17.59,2.082 -26.36,2.082 -62.51,0 -122.08,-36.141 -128.12,-128.32 -8.39,-126.77 -78.85,-196.219 -125.84,-196.219" /><path
         id="path256"
         style="fill:#edb00e;fill-opacity:1;fill-rule:nonzero;stroke:none"
         d="m 2547.41,685.922 c -32.59,0 -35.01,53.457 -10.91,164.969 29.37,135.629 -12.43,310.479 -104.04,371.979 26.85,406.72 69.5,938.69 104.33,1356.6 77.06,6.45 159.78,10.37 247,10.37 20.14,0 40.55,-0.21 61.16,-0.64 -7.1,-516.3 -15.25,-1223.07 -15.24,-1743.868 -9.01,3.188 -18.59,4.957 -28.76,4.957 -31.23,0 -68.06,-16.629 -111.05,-59.598 -69.01,-69.011 -115.84,-104.769 -142.49,-104.769" /><path
         id="path258"
         style="fill:#f03848;fill-opacity:1;fill-rule:nonzero;stroke:none"
         d="m 2187.52,1187.81 c -63.86,0 -116.26,55.26 -155.88,120.51 l 160.78,1221.87 c 93.83,19.22 210.59,38.07 344.37,49.28 -34.83,-417.91 -77.48,-949.88 -104.33,-1356.6 -21.47,14.41 -45.67,22.59 -72.33,22.59 -29.6,0 -62.25,-10.09 -97.53,-32.97 -26.54,-17.21 -51.58,-24.68 -75.08,-24.68" /><path
         id="path260"
         style="fill:#741519;fill-opacity:1;fill-rule:nonzero;stroke:none"
         d="m 3627.7,1892.68 c -1.74,13.11 -3.81,26.19 -6.14,39.24 2.11,4.23 4.2,8.41 6.3,12.59 0.15,-17.67 0.1,-34.96 -0.16,-51.83" /><path
         id="path262"
         style="fill:#151312;fill-opacity:1;fill-rule:nonzero;stroke:none"
         d="m 2003.1,1091.39 28.5,217 c 0.01,-0.02 0.03,-0.05 0.04,-0.07 l -28.54,-216.93" /><path
         id="path264"
         style="fill:#434ba8;fill-opacity:1;fill-rule:nonzero;stroke:none"
         d="m 2460.81,20.7383 c 8.53,2.832 17.09,6.6133 25.57,11.1914 0.1,0.0195 0.21,0.0391 0.32,0.0703 -8.59,-4.6094 -17.25,-8.4219 -25.89,-11.2617 M 3506.33,562.762 c -74.74,0 -128.48,159.547 -208.13,212.828 -8.8,5.898 -17.4,9.5 -25.8,11.199 v 0 c -3.78,59.152 -7.88,122.941 -12.22,190.34 47.48,-7.418 92.54,-34.16 112.92,-71.438 7.99,-14.613 14.25,-21.269 18.99,-21.269 25.47,0 7.4,191.718 -18.99,371.868 -26.77,182.66 -32.1,311.44 49.78,311.44 13.87,0 30.23,-3.69 49.42,-11.44 12.74,-5.15 24.59,-7.63 35.57,-7.63 82.95,0 116.71,141.54 119.83,344.02 0.58,-4.32 1.11,-8.65 1.61,-12.99 5.29,10.9 10.55,21.64 15.82,32.26 21.07,-109.15 35.59,-197.99 38.97,-249.66 1.79,-27.41 2.66,-52.12 2.65,-74.38 -0.01,-166.16 -48.69,-196.23 -128.56,-196.23 -10.02,0 -20.52,0.47 -31.49,1.21 -0.75,0.05 -1.48,0.07 -2.21,0.07 -30.01,0 -40.77,-42.85 -40.77,-104.32 v 0 c 0,-155.54 68.88,-430.152 68.88,-430.152 0,0 20.39,-87.968 20.38,-167.867 -0.01,-57.152 -10.46,-110.172 -46.28,-123.93 -6.98,-2.679 -13.76,-3.929 -20.37,-3.929 M 2003.1,1091.39 v 0 l 28.54,216.93 v 0 l -28.54,-216.93 m 1624.76,853.12 c -0.18,19.71 -0.6,39.89 -1.26,60.48 3.12,-15.26 6.15,-30.27 9.09,-44.98 -2.6,-5.12 -5.22,-10.31 -7.83,-15.5" /><path
         id="path266"
         style="fill:#5ac134;fill-opacity:1;fill-rule:nonzero;stroke:none"
         d="M 2486.38,31.9297 C 2559.32,71.3398 2626.72,170.141 2632.44,231.242 2626.73,170.211 2559.51,71.5313 2486.7,32 v 0 c -0.11,-0.0312 -0.22,-0.0508 -0.32,-0.0703 m 146.07,199.3713 c 0.01,0.14 0.02,0.281 0.03,0.41 -0.01,-0.129 -0.02,-0.281 -0.03,-0.41 m 0.03,0.429 c 0.01,0.059 0.02,0.129 0.02,0.192 0,-0.063 -0.01,-0.133 -0.02,-0.192 m 0.03,0.309 c 0.01,0.09 0.02,0.18 0.02,0.27 0,-0.09 -0.01,-0.18 -0.02,-0.27 m 0.04,0.422 c 0,0.051 0,0.098 0.01,0.148 -0.01,-0.05 -0.01,-0.097 -0.01,-0.148 m 0.03,0.379 c 0,0.051 0,0.101 0.01,0.152 -0.01,-0.051 -0.01,-0.101 -0.01,-0.152 m 0.02,0.34 c 0,0.039 0.01,0.09 0.01,0.129 0,-0.039 -0.01,-0.09 -0.01,-0.129 m 0.03,0.398 c 0,0.031 0,0.07 0.01,0.113 -0.01,-0.043 -0.01,-0.07 -0.01,-0.113 m 0.02,0.34 c 0,0.023 0.01,0.062 0.01,0.082 0,-0.031 -0.01,-0.059 -0.01,-0.082 m 0.03,0.383 c 0,0.027 0,0.051 0,0.078 0,-0.027 0,-0.059 0,-0.078 m 393.63,97.98 c -58.68,-0.011 -124.85,126.879 -136.71,159.91 -4.68,13.028 -8.57,35.278 -15.91,58.829 1.23,24.121 -0.47,81.96 -43.51,95.421 -0.32,62.348 -0.47,128.911 -0.47,198.891 62.02,-21.961 96.9,-111.613 111.29,-159.441 6.31,-21.039 20.86,-31.219 38.86,-31.219 46.99,0 117.45,69.449 125.84,196.219 6.04,92.179 65.61,128.32 128.12,128.32 8.77,0 17.61,-0.723 26.36,-2.082 4.34,-67.399 8.44,-131.188 12.22,-190.34 v 0 c -4.19,0.891 -8.33,1.32 -12.39,1.32 -68.02,0 -118.59,-118.23 -128.21,-141.918 -11.5,-27.8 -11.1,-237.601 -74.8,-300.203 -9.74,-9.578 -20.1,-13.707 -30.69,-13.707" /><path
         id="path268"
         style="fill:#e58216;fill-opacity:1;fill-rule:nonzero;stroke:none"
         d="m 2426.79,14.9219 c -4.57,0 -9.11,0.3476 -13.59,1.0664 -14.2,2.3008 -27.8,8.4023 -40.5,18.9023 v 0 c -32.55,27.2383 -43.87,101.6914 -43.88,192.5704 -0.02,153.687 32.29,354.328 48.88,452.93 v 0 c 19,57.199 30.9,118.898 34,185.5 4.57,99.078 11.78,221.009 20.76,356.979 91.61,-61.5 133.41,-236.35 104.04,-371.979 -24.1,-111.512 -21.68,-164.969 10.91,-164.969 26.65,0 73.48,35.758 142.49,104.769 42.99,42.969 79.82,59.598 111.05,59.598 10.17,0 19.75,-1.769 28.76,-4.957 0,-69.98 0.15,-136.543 0.47,-198.891 -5.84,1.829 -12.43,2.84 -19.87,2.84 -10.04,0 -20.01,-1.851 -29.75,-5.051 -4.65,0.54 -9.52,0.821 -14.63,0.821 -3.31,0 -6.72,-0.11 -10.23,-0.36 -35.76,-2.472 -60.68,-35.203 -78.21,-81.722 C 2666.55,549.531 2660.2,540 2660.2,540 c 2.57,-2.199 5.13,-4.328 7.66,-6.371 -0.44,-1.539 -0.88,-3.098 -1.31,-4.66 -27.61,-100.227 -30.68,-237.668 -33.85,-294.278 v 0 c -0.01,-0.101 -0.01,-0.211 -0.02,-0.312 v 0 c 0,-0.027 0,-0.051 0,-0.078 v 0 c -0.01,-0.102 -0.02,-0.199 -0.02,-0.301 v 0 c 0,-0.02 -0.01,-0.059 -0.01,-0.082 v 0 c 0,-0.078 -0.01,-0.156 -0.01,-0.227 v 0 c -0.01,-0.043 -0.01,-0.082 -0.01,-0.113 v 0 c -0.01,-0.09 -0.01,-0.18 -0.02,-0.269 v 0 c 0,-0.039 -0.01,-0.09 -0.01,-0.129 v 0 c 0,-0.059 -0.01,-0.129 -0.01,-0.188 v 0 c -0.01,-0.051 -0.01,-0.101 -0.01,-0.152 v 0 c -0.01,-0.078 -0.02,-0.149 -0.02,-0.231 v 0 c -0.01,-0.05 -0.01,-0.097 -0.01,-0.148 v 0 c -0.01,-0.051 -0.01,-0.102 -0.02,-0.152 v 0 c 0,-0.09 -0.01,-0.18 -0.02,-0.27 v 0 c 0,-0.039 -0.01,-0.078 -0.01,-0.117 v 0 c 0,-0.063 -0.01,-0.133 -0.02,-0.192 v 0 c 0,0 0,-0.011 0,-0.019 v 0 c -0.01,-0.129 -0.02,-0.27 -0.03,-0.41 v 0 c -0.01,-0.02 -0.01,-0.039 -0.01,-0.059 v 0 c -5.72,-61.101 -73.12,-159.9022 -146.06,-199.3123 -8.48,-4.5781 -17.04,-8.3594 -25.57,-11.1914 v 0 c -11.44,-3.75 -22.85,-5.8164 -34.02,-5.8164" /><path
         id="path270"
         style="fill:#e72127;fill-opacity:1;fill-rule:nonzero;stroke:none"
         d="m 2377.7,680.391 c 3,17.699 5.5,32.101 7.2,42.398 5.41,32.68 9.03,71.191 9.02,110.481 v 0 c -0.02,82.609 -16.09,168.63 -65.22,210.92 -13.96,12 -25.89,17.21 -36.79,17.21 -45.71,0 -73.4,-91.67 -157.61,-159.412 -13.87,-11.136 -26.37,-15.968 -37.62,-15.968 -73.37,0 -93.58,205.37 -93.58,205.37 v 0 l 28.54,216.93 c 39.62,-65.25 92.02,-120.51 155.88,-120.51 23.5,0 48.54,7.47 75.08,24.68 35.28,22.88 67.93,32.97 97.53,32.97 26.66,0 50.86,-8.18 72.33,-22.59 -8.98,-135.97 -16.19,-257.901 -20.76,-356.979 -3.1,-66.602 -15,-128.301 -34,-185.5" /><path
         id="path272"
         style="fill:#a0321f;fill-opacity:1;fill-rule:nonzero;stroke:none"
         d="m 2667.86,533.629 v 0 c -2.53,2.043 -5.09,4.172 -7.66,6.371 0,0 6.35,9.531 17.29,22.969 v 0 c -3.5,-9.27 -6.7,-19.098 -9.63,-29.34 m 205.83,17.391 c -8.2,26.308 -20.7,54.25 -43.39,72.769 -12.91,10.5 -29.11,18.02 -49.74,20.441 v 0 c 9.74,3.2 19.71,5.051 29.75,5.051 7.44,0 14.03,-1.011 19.87,-2.84 43.04,-13.461 44.74,-71.3 43.51,-95.421 v 0" /><path
         id="path274"
         style="fill:#3e1416;fill-opacity:1;fill-rule:nonzero;stroke:none"
         d="m 3629.31,1879.69 c -0.5,4.34 -1.03,8.67 -1.61,12.99 0.26,16.87 0.31,34.16 0.16,51.83 2.61,5.19 5.23,10.38 7.83,15.5 3.27,-16.4 6.42,-32.44 9.44,-48.06 -5.27,-10.62 -10.53,-21.36 -15.82,-32.26" /><path
         id="path276"
         style="fill:#211c1d;fill-opacity:1;fill-rule:nonzero;stroke:none"
         d="m 3518.29,101.539 c -2.01,0 -4.05,0.16 -6.09,0.481 -38.54,6.121 -81.97,42.562 -97.1,88.062 0.44,-0.652 0.89,-1.301 1.35,-1.941 36.67,-51.942 78.71,-74.563 112.51,-74.563 9.99,0 19.25,1.973 27.45,5.742 -11.54,-10.679 -24.52,-17.781 -38.12,-17.781 m 73.17,68.281 c 0.86,5.731 1.22,11.84 1.02,18.321 -0.27,8.738 -0.99,17.679 -2.14,26.75 3.13,2.238 5.64,3.269 7.57,3.269 9.11,0 5.35,-22.859 -6.45,-48.34" /><path
         id="path278"
         style="fill:#606abc;fill-opacity:1;fill-rule:nonzero;stroke:none"
         d="m 3528.96,113.578 c -33.8,0 -75.84,22.621 -112.51,74.563 -0.46,0.64 -0.91,1.289 -1.35,1.941 -11.5,34.609 -6.63,74.449 29.23,110.156 0,0 55.88,-108.726 106.94,-108.726 9.94,0 19.68,4.109 28.8,13.929 3.97,4.278 7.39,7.379 10.27,9.45 1.15,-9.071 1.87,-18.012 2.14,-26.75 0.2,-6.481 -0.16,-12.59 -1.02,-18.321 -1.53,-3.289 -3.19,-6.629 -4.97,-9.968 -7.9,-14.77 -18.23,-29.551 -30.08,-40.532 -8.2,-3.769 -17.46,-5.742 -27.45,-5.742" /><path
         id="path280"
         style="fill:#211c1d;fill-opacity:1;fill-rule:nonzero;stroke:none"
         d="m 2049.63,434.82 c -0.47,0 -0.94,0.008 -1.41,0.032 3.78,0.097 7.49,0.488 11.11,1.16 -3.19,-0.774 -6.43,-1.192 -9.7,-1.192 m -100.54,81.352 c -9.06,22.316 -11.44,47.199 -2.93,71.957 -3.21,-24.91 -3.03,-49.719 2.93,-71.957 m 181.38,6.527 c 1.01,9.371 0.86,19.012 -0.59,28.699 6,-0.777 5.63,-12.726 0.59,-28.699" /><path
         id="path282"
         style="fill:#f03848;fill-opacity:1;fill-rule:nonzero;stroke:none"
         d="m 2048.22,434.852 c -1.55,0.058 -3.12,0.207 -4.69,0.449 -36.49,5.801 -77.36,38.769 -94.44,80.871 -5.96,22.238 -6.14,47.047 -2.93,71.957 5.29,15.402 14.79,30.75 29.5,45.391 0,0 55.88,-108.731 106.95,-108.731 9.93,0 19.67,4.109 28.79,13.93 8.29,8.929 14.13,12.722 17.84,12.722 0.22,0 0.43,-0.011 0.64,-0.043 1.45,-9.687 1.6,-19.328 0.59,-28.699 -2.84,-9.008 -7.16,-19.289 -12.65,-29.57 -13.74,-25.688 -34.82,-51.379 -58.49,-57.117 -3.62,-0.672 -7.33,-1.063 -11.11,-1.16" /><path
         id="path284"
         style="fill:#100f0d;fill-opacity:1;fill-rule:nonzero;stroke:none"
         d="m 5191.8,5162.49 c -778.3,310.4 -1597.8,467.7 -2436.1,467.7 -64.3,0 -128.4,-1 -192.5,-2.8 l -0.5,-0.1 c -771,-22.3 -1524.5,-178.3 -2243.001,-464.8 -201.898,162.2 -292.9998,433.9 -230.1013,686.9 851.6993,340.3 1748.7023,512.8 2666.1023,512.8 917.5,0 1814.5,-172.5 2666.2,-512.8 62.9,-253 -28.2,-524.7 -230.1,-686.9 z m -3051,319.1 c -225.6,-109.4 -481.3,-233.4 -794.3,-225.5 -206.1,5.2 -369.102,15.2 -480.402,23.9 456.802,139 925.602,226.6 1402.202,262.1 -41,-18.6 -83.4,-39.1 -127.5,-60.5 z m 3344.2,403.1 c -2.9,10.5 -10.5,19 -20.6,23.1 -865,348 -1776.3,524.4 -2708.7,524.4 -932.3,0 -1843.602,-176.4 -2708.6023,-524.4 -10.0977,-4.1 -17.6993,-12.6 -20.5977,-23.1 -79.8008,-288.7 24.5977,-602.9 259.797,-784.9 l 393.402,-769.8 c 33.602,-65.9 47.301,-183.6 60.403,-297.5 15.199,-131 29.496,-254.6 75,-317.1 25.796,-35.6 64.699,-54.3 109.296,-54.3 l 2.2,0.1 c 153.902,-262.4 392.202,-776.6 394.602,-781.9 3.3,-7.1 9.2,-12.7 16.5,-15.5 34.8,-13.3 70.4,-23.5 106.7,-30.8 115.8,-245.6 407.5,-891.8 407.5,-1020.3 0,-64.2 44.1,-125.8 115.2,-160.5 28,-13.8 56.9,-21.5 84.8,-23.3 2.7,-0.3 5.4,-0.4 8.1,-0.5 l 3.8,-7.5 c 4.2,25.6 8.4,51.5 12.8,77.7 -5.4,-0.5 -10.9,-0.6 -16.3,-0.2 -22.2,1 -44.3,7.7 -62.5,16.6 -46.1,22.6 -75.9,61 -75.9,97.7 0,151.9 -303.3,812.7 -394.8,1008.8 l -28.7,63.1 c -43.7,5.8 -86.5,16.1 -127.9,31.1 -35.1,75.3 -239.1,510.5 -381.602,757.7 85.702,31.4 171.702,123 171.702,228 0,63 16.1,108.6 45.3,128.3 32.4,21.8 78.2,10.7 111,-2.6 91.2,-36.9 177.3,-31.3 230.4,14.8 16.5,14.4 33,35.7 43.4,66.7 l 10.3,59.8 c -0.4,53.1 -80.7,110.7 -80.7,110.7 14.3,-56.9 22.1,-148.6 -18.9,-184.3 -31.9,-27.7 -94,-28.8 -158.3,-2.8 -87.9,35.5 -144.4,17.3 -176.3,-4.2 -34.8,-23.5 -76.2,-74.8 -76.2,-186.4 0,-75.2 -67.9,-143.7 -130.702,-164.2 -27.398,-8.9 -64.898,-12.7 -88.199,19.3 -34.699,47.7 -48.597,167.8 -62,284 -13.898,120.1 -28.301,244.2 -67.699,321.4 l -379.301,742.3 c 110.102,43.5 221.098,84.1 332.801,121.5 43.898,-5.1 277.602,-30.3 649.2,-39.6 9.9,-0.2 19.6,-0.4 29.3,-0.4 317,0 582.7,128.8 797.3,232.9 151.4,73.4 282.1,136.7 392,138.7 64,1.9 128.2,2.9 192.4,2.9 823.3,0 1628.2,-153.5 2393.2,-456.1 -101.1,-198.9 -510.9,-1006.1 -521.5,-1030.1 -51.5,-116.4 -151,-411.4 -147.8,-565.7 2.1,-106.2 -28.7,-183.2 -86.7,-216.9 -49.4,-28.6 -117.8,-23.8 -178.4,12.6 -93.1,55.8 -56.2,192.1 -13.6,304.7 1.8,5 3.6,9.5 5,13.5 25,67.8 -1.2,144.3 -60.9,177.9 -8.8,5 -18.4,9 -28.8,11.9 26.4,-27.4 33.5,-65.1 33.5,-97.6 0,-18.8 -2.4,-35.9 -4.7,-48.2 -0.8,-6.6 -2.3,-13.3 -4.7,-19.8 -1.5,-3.8 -3.1,-8.2 -4.9,-13 -30.7,-81 -112.2,-296.3 43.1,-389.5 7.4,-4.4 14.8,-8.4 22.4,-12.1 l -240.9,-475.8 -118,-233 -29.7,-58.7 -2.4,-4.7 c 17.1,-30.7 31.8,-63.2 43.6,-97.3 -27.9,-41.4 -119.9,-181.6 -221.6,-379.5 -7.1,-13.9 -14.3,-28 -21.5,-42.4 7.9,-32.8 15,-63.7 21.4,-93 5.2,11 10.5,21.9 15.8,32.6 41.5,85.2 82.5,161.7 119.4,226.8 81.7,144 143,231.8 144.2,233.6 5.4,7.7 6.9,17.5 4.1,26.4 -9.1,28.3 -20,55.7 -32.4,82 l 7.8,15.5 69.3,136.8 307.4,607.1 c 17.6,-3.8 35.2,-5.7 52.5,-5.7 38.4,0 75.3,9.4 108.1,28.4 47,27.2 125.2,99.6 121.5,278.9 -2.8,136.8 89.5,417.3 141.8,535.8 10.9,24 351.9,696 533.9,1054.2 235.2,182 339.6,496.2 259.8,784.9 z M 2886.3,504.191 c -1,4 -1.9,8 -2.8,12.098 l -0.1,0.5 c -0.9,4.102 -1.8,8.301 -2.5,12.602 -0.8,4.3 -1.6,8.601 -2.2,13 -2.6,17.601 -6.7,32.8 -12.1,45.699 -0.6,1.5 -1.2,3 -1.9,4.402 l -23.1,-45.601 c -14.6,-28.801 -42.7,-46.102 -75,-46.2 h -0.2 c -32.3,0 -60.4,17.2 -75,45.899 l -19.6,38.199 -1.2,-1.5 c -1.9,-2.398 -3.7,-4.898 -5.5,-7.398 -5.4,-7.7 -10.4,-15.801 -15,-24.403 -1,-1.898 -2,-3.898 -2.9,-5.898 -2,-4.102 -3.9,-8.301 -5.7,-12.598 -1.1,-2.5 -2.1,-5.101 -3.1,-7.703 -0.9,-2.5 -1.8,-5 -2.7,-7.5 -1,-3 -2,-6.199 -2.9,-9.301 l -0.1,-0.398 c 27.4,-48 77.9,-77.399 133.7,-77.399 h 0.3 c 49.1,0.098 94.3,23.098 122.9,61.5 -1.2,3.899 -2.3,7.899 -3.3,12" /><path
         id="path286"
         style="fill:#100f0d;fill-opacity:1;fill-rule:nonzero;stroke:none"
         d="m 1667.36,4908.6 c 0,0 424.17,312.14 922.94,0 0,0 -136.22,347.13 -461.47,347.13 -367.73,0 -461.47,-347.13 -461.47,-347.13" /><path
         id="path288"
         style="fill:#100f0d;fill-opacity:1;fill-rule:nonzero;stroke:none"
         d="m 3903.71,4908.6 c 0,0 -424.17,312.14 -922.94,0 0,0 136.22,347.13 461.47,347.13 367.72,0 461.47,-347.13 461.47,-347.13" /><path
         id="path290"
         style="fill:#100f0d;fill-opacity:1;fill-rule:nonzero;stroke:none"
         d="m 3439.04,2858.43 -6.09,69.73 c 91.04,7.95 194.71,41.74 209.61,62.13 -2.52,79.67 -119.68,185.21 -228.62,250.21 -97.57,58.21 -302.08,155.89 -575.34,155.89 -273.32,0 -477.84,-97.68 -575.43,-155.89 -110.13,-65.71 -228.67,-172.85 -228.67,-252.81 0,-12.86 65.67,-44.5 193,-47.41 l -1.6,-69.98 c -61.32,1.39 -261.4,14 -261.4,117.39 0,96.31 100.7,216.21 262.8,312.92 103.78,61.91 321.19,165.78 611.3,165.78 290.05,0 507.44,-103.87 611.2,-165.78 162.1,-96.71 262.8,-216.62 262.8,-312.92 0,-104.18 -270.82,-129.03 -273.56,-129.26" /><path
         id="path292"
         style="fill:#100f0d;fill-opacity:1;fill-rule:nonzero;stroke:none"
         d="m 2297.87,1086.26 c 24.67,0 48.36,-8.43 68.31,-24.86 65.09,-53.62 81.58,-178.56 49.03,-371.341 -76.86,-455.161 -90.01,-553.457 -0.34,-609.5981 37.07,-23.2421 75.83,-3.2304 95.64,10.7383 61.62,43.5118 114.51,150.9418 85.02,284.0308 -10.35,46.45 -9.58,93.942 2.17,137.649 v 2.223 l 1.95,4.769 c 0.91,3.07 1.87,6.059 2.84,8.981 l 2.97,8.277 c 1.47,3.859 2.68,6.953 4,9.941 1.76,4.219 3.85,8.852 6.05,13.391 1.13,2.48 2.37,4.961 3.61,7.32 5.26,9.84 11.05,19.258 17.31,28.199 2.39,3.321 4.52,6.25 6.76,9.059 l 1.33,1.68 c 41.95,53.332 101.27,82.73 154.67,76.242 42.83,-5.152 77.4,-32.129 97.36,-75.973 l 0.72,-1.629 c 0.64,-1.418 1.28,-2.91 1.87,-4.379 6.36,-15.179 11.22,-33.39 14.19,-53.488 0.58,-4.222 1.28,-7.953 1.97,-11.683 0.74,-4.45 1.52,-8.028 2.29,-11.528 l 0.5,-2.301 c 0.7,-3.14 1.4,-6.242 2.17,-9.32 l 0.96,-3.551 c 0.62,-2.281 1.21,-4.578 1.9,-6.859 25.94,-89.68 79.73,-133.418 106.86,-129.621 21.66,3.082 43.53,43.859 43.53,128.062 0,183.5 87.96,295.957 174.86,312.2 78.01,14.519 130.61,-44.352 153.87,-104.352 30.16,-77.918 83.22,-118.027 106.54,-111.457 14.94,4.238 46.93,52.027 15.91,220.156 l -8.65,46.602 c -64.93,349.96 -90.9,506.61 -26.36,552.56 16.21,11.54 44.42,20.26 86.72,-3.78 8.34,-4.73 23.48,-11.91 30.97,-6.82 10.95,7.44 62.64,65.02 5.57,469.3 -4.79,34.03 -10.03,68.35 -15.57,102 -22.39,137.71 -54.02,299.05 -94.04,479.62 -28.6,129.62 -62.68,273.63 -101.28,428.08 -16.1,64.25 -29.69,117.63 -42.73,168.01 -8.3,32.13 -36.95,60.03 -74.74,72.83 -137.34,46.52 -501.68,139.96 -917.47,3.59 -41.92,-13.71 -73.2,-48.79 -81.68,-91.54 -6.42,-32.43 -14.56,-78.87 -24.19,-138.02 -18.37,-113.66 -41.63,-270.02 -65.48,-440.23 -35.16,-249.65 -71.87,-528.58 -100.72,-765.28 -2.79,-23.55 -5.6,-46.8 -8.4,-69.56 -26.87,-226.1 -43.37,-389.04 -47.69,-471.04 -8.24,-156.31 28.11,-216.22 64.88,-220.189 31.92,-3.441 70.18,29.258 74.43,55.27 6.29,38.469 37.86,74.619 78.58,89.949 13.67,5.14 27.5,7.67 41.03,7.67 z M 2451.33,0 c -25.92,0 -51.05,7 -73.61,21.1406 -132.45,82.9294 -109.06,221.4884 -31.53,680.5784 39.26,232.523 -8.84,292.742 -24.52,305.651 -11.51,9.49 -25.02,11.39 -40.18,5.7 -17.19,-6.48 -31.88,-21.828 -34.15,-35.718 -9.64,-59 -77.63,-121.5 -151.01,-113.582 -53.02,5.71 -140.05,51.441 -127.28,293.47 5.55,105.5 29.22,316.96 48.09,475.78 2.82,22.79 5.61,45.95 8.41,69.5 28.9,237.22 65.67,516.62 100.89,766.65 23.92,170.67 47.25,327.54 65.71,441.71 9.75,59.97 18.04,107.2 24.62,140.41 13.38,67.54 62.64,122.9 128.54,144.46 435.8,142.93 817.74,44.96 961.72,-3.8 60.82,-20.6 105.7,-66.06 120.05,-121.62 13.1,-50.52 26.72,-104.09 42.87,-168.54 38.77,-155.08 73,-299.74 101.73,-429.96 40.29,-181.83 72.19,-344.48 94.77,-483.42 5.62,-34.12 10.94,-68.98 15.81,-103.54 30.75,-217.84 54.5,-475.75 -35.52,-536.96 -20.39,-13.85 -55.14,-24.44 -104.93,3.85 -5.98,3.4 -10.02,4.92 -12.46,5.61 -4.38,-8.75 -12.82,-40.27 -0.35,-146.86 10.38,-88.73 31.47,-202.34 55.87,-333.901 l 8.65,-46.648 c 40.83,-221.219 -13.18,-285.371 -65.67,-300.231 -67.56,-19.05 -149.62,46.879 -190.89,153.52 -10.11,26.121 -33.45,68.73 -75.73,60.832 -81.2,-15.172 -117.72,-151.461 -117.72,-243.391 0,-164.871 -72.53,-192.941 -103.72,-197.371 -73.38,-10.468 -150.78,64.93 -183.81,179.141 -0.8,2.66 -1.6,5.641 -2.4,8.617 l -1.02,3.82 c -0.81,3.211 -1.5,6.114 -2.13,8.911 l -1.92,3.492 -0.06,5.539 c -0.77,3.578 -1.49,7.211 -2.09,10.91 -0.77,4.09 -1.66,8.961 -2.35,13.941 -2.05,13.911 -5.33,26.457 -9.69,36.879 l -1.73,4 c -9.47,20.782 -23.61,32.711 -41.76,34.899 -28.78,3.332 -64.75,-16.278 -91.52,-50.321 l -1.22,-1.539 c -1.64,-2.058 -3.12,-4.129 -4.6,-6.187 -4.39,-6.274 -8.7,-13.274 -12.53,-20.442 -0.56,-1.07 -1.25,-2.429 -1.86,-3.789 l -0.43,-0.921 c -1.72,-3.52 -3.35,-7.122 -4.9,-10.809 -1.11,-2.563 -1.91,-4.66 -2.71,-6.75 l -2.45,-6.813 c -0.22,-0.687 -0.51,-1.558 -0.81,-2.527 v -1.891 l -1.9,-4.589 c -9.55,-33.86 -10.24,-69.672 -2.04,-106.493 C 2690.25,271.32 2665.54,114.961 2550.87,34.0195 2518.88,11.4414 2484.46,0 2451.33,0" /><path
         id="path294"
         style="fill:#100f0d;fill-opacity:1;fill-rule:nonzero;stroke:none"
         d="m 3494.58,395.691 -0.93,-0.043 c -2.55,-0.218 -5.99,-1.347 -7.99,-5.449 -39.41,-81.301 -52.18,-149.238 -35.95,-191.328 8.17,-21.191 24.2,-36.359 48.99,-46.359 31.2,-12.602 41.15,0.09 45.39,5.519 26.94,34.379 24.14,142.469 -41.57,233.571 v 0.007 c -2.46,3.411 -5.74,4.082 -7.94,4.082 z m 27.96,-318.5621 c -15.82,0 -32.65,3.4492 -50.02,10.4609 -43.17,17.4022 -72.81,46.3792 -88.13,86.1012 -29.83,77.387 4.35,177.047 38.29,247.039 12.36,25.5 36.63,42.2 64.92,44.649 28.35,2.551 55.11,-9.82 71.7,-32.828 76.32,-105.832 94.22,-248.352 39.89,-317.692 C 3579.68,89.9492 3553,77.1289 3522.54,77.1289" /><path
         id="path296"
         style="fill:#100f0d;fill-opacity:1;fill-rule:nonzero;stroke:none"
         d="m 2028.08,716.77 -0.94,-0.04 c -2.54,-0.218 -5.99,-1.351 -7.98,-5.449 -39.41,-81.301 -52.18,-149.242 -35.95,-191.332 8.17,-21.199 24.19,-36.347 48.99,-46.347 31.18,-12.582 41.14,0.089 45.39,5.507 26.94,34.379 24.14,142.461 -41.57,233.59 v -0.008 c -2.46,3.411 -5.74,4.079 -7.94,4.079 z m 27.95,-318.551 c -15.81,0 -32.64,3.441 -50.01,10.453 -43.16,17.406 -72.81,46.367 -88.12,86.098 -29.85,77.39 4.34,177.058 38.27,247.05 12.36,25.5 36.63,42.192 64.9,44.649 28.37,2.371 55.13,-9.828 71.72,-32.821 l 0.01,-0.007 c 76.33,-105.84 94.22,-248.36 39.89,-317.711 -19.52,-24.899 -46.2,-37.711 -76.66,-37.711" /><path
         id="path298"
         style="fill:#100f0d;fill-opacity:1;fill-rule:nonzero;stroke:none"
         d="m 3339.18,3959 c 204.04,111.53 531.44,82.22 531.44,82.22 -231.62,69.69 -400.37,57.37 -511.99,27.07 72.24,63.73 127.41,76.32 127.41,76.32 -288.95,8.98 -450.45,-330.42 -450.45,-330.42 358.98,73.76 925.49,-47.11 925.49,-47.11 -203.44,174.85 -485.49,194.13 -621.9,191.92" /><path
         id="path300"
         style="fill:#100f0d;fill-opacity:1;fill-rule:nonzero;stroke:none"
         d="m 2291.21,3959 c -204.03,111.53 -531.43,82.22 -531.43,82.22 231.61,69.69 400.37,57.37 511.99,27.07 -72.24,63.73 -127.41,76.32 -127.41,76.32 288.95,8.98 450.45,-330.42 450.45,-330.42 -358.98,73.76 -925.49,-47.11 -925.49,-47.11 203.43,174.85 485.49,194.13 621.89,191.92" /></g></g></svg>