<?xml version="1.0" encoding="UTF-8" standalone="no"?>
<svg
   xmlns:dc="http://purl.org/dc/elements/1.1/"
   xmlns:cc="http://creativecommons.org/ns#"
   xmlns:rdf="http://www.w3.org/1999/02/22-rdf-syntax-ns#"
   xmlns:svg="http://www.w3.org/2000/svg"
   xmlns="http://www.w3.org/2000/svg"
   viewBox="0 0 734.8667 800.20001"
   height="800.20001"
   width="734.8667"
   xml:space="preserve"
   id="svg2"
   version="1.1"><metadata
     id="metadata8"><rdf:RDF><cc:Work
         rdf:about=""><dc:format>image/svg+xml</dc:format><dc:type
           rdf:resource="http://purl.org/dc/dcmitype/StillImage" /></cc:Work></rdf:RDF></metadata><defs
     id="defs6"><clipPath
       id="clipPath20"
       clipPathUnits="userSpaceOnUse"><path
         id="path18"
         d="M 0,0 H 5511 V 6001.5 H 0 Z" /></clipPath></defs><g
     transform="matrix(1.3333333,0,0,-1.3333333,0,800.2)"
     id="g10"><g
       transform="scale(0.1)"
       id="g12"><g
         id="g14"><g
           clip-path="url(#clipPath20)"
           id="g16"><path
             id="path22"
             style="fill:#cb8e4c;fill-opacity:1;fill-rule:nonzero;stroke:none"
             d="m 5437.99,5448.55 c -276.43,111.21 -557.66,204.67 -842.78,280.48 -56.36,-110.69 -177.65,-189.17 -302.73,-189.17 -58.88,0 -112.97,15.09 -159.75,41.37 -57.89,-106.84 -176.56,-181.92 -298.9,-181.92 -111.64,0 -206.07,54.2 -266.06,136.28 -52.32,-32.29 -112.74,-51.21 -174.09,-51.21 -175.99,0 -309.21,134.69 -332.14,300.97 -28.49,-11.37 -58.81,-17.85 -89.51,-17.85 -123.92,0 -219.6,88.88 -245.32,202.86 -922.4,-1.98 -1823.897,-177.48 -2679.8155,-521.81 -76.9961,-278.5 23.2032,-578.6 253.8005,-752.8 125,50.3 251.102,96.5 378.2,138.8 603.905,200.8 1230.005,311 1858.205,330.6 4.5,0.3 8.9,0.4 13.3,0.5 64,1.9 128.1,2.8 192.1,2.8 829.1,0 1658.3,-157.5 2441.7,-472.7 230.6,174.2 330.8,474.3 253.79,752.8" /><path
             id="path24"
             style="fill:#f6cb53;fill-opacity:1;fill-rule:nonzero;stroke:none"
             d="m 4380.8,4131.55 c -66.2,-285.8 -322.3,-498.7 -628.2,-498.7 -356.1,0 -644.7,288.6 -644.7,644.7 0,40.3 3.7,79.7 10.8,118 55.4,299.7 318.1,526.7 633.9,526.7 356.1,0 644.8,-288.6 644.8,-644.7 0,-50.2 -5.7,-99.1 -16.6,-146 m -1638.3,1036.9 c -64,0 -128.1,-0.9 -192.1,-2.8 -4.4,-0.1 -8.8,-0.2 -13.3,-0.5 -100.6,-5.4 -213,-54.6 -340.1,-115.5 -8.6,-4.2 -17.3,-8.4 -26.1,-12.6 -228.6,-110.6 -503.5,-251.1 -838.6,-242.7 -151.3,3.8 -279.1,10.2 -380.402,16.8 -34.503,2.2 -66.003,4.5 -94.203,6.7 -116.5,8.9 -178.797,16.7 -178.797,16.7 -74.8,-24.9 -149.203,-51.1 -223.203,-78.8 h -0.199 c -51.801,-19.3 -103.398,-39.3 -154.801,-60 0,0 19,-37.3 48.903,-95.8 75.5,-147.6 220.097,-430.6 302.3,-591.5 19.2,-37.4 34.899,-68.3 45.598,-89.3 25.902,-50.6 40.399,-125.8 51.598,-207 v -0.2 c 21.203,-155.2 29.902,-332.5 81.004,-402.8 23.699,-32.5 59,-43.5 96.8,-38.9 15.598,1.9 31.5,6.5 47.297,13.3 34.105,14.7 67.005,39.8 92.205,71.2 27.7,34.4 45.9,76.3 45.9,119.9 v 2.2 c 0.8,144.4 78.5,206.8 204.4,156 85.9,-34.8 185.3,-32.5 221.8,45.8 4.6,9.9 8.3,20.9 10.7,33.3 h 0.1 c 5.4,0.1 10.9,0.2 16.5,0.2 291.6,0 538,-193.7 617.6,-459.3 l 0.1,-0.1 c 17.6,-58.7 27,-120.9 27,-185.3 0,-356.1 -288.6,-644.8 -644.7,-644.8 -35.5,0 -70.4,2.9 -104.5,8.4 l -1.1,-4.4 c 0,0 345.1,-730.5 404.7,-983 l 0.1,-0.1 c 5.5,-23.8 8.6,-43.3 8.6,-57.6 0,-85.7 104.9,-157.4 194.2,-148.8 l 5.1,-9.9 574,-1123.301 c 44.3,-86.8006 168.5,-86.5974 212.6,0.403 l 59.4,117.3 388.8,767.996 46.8,92.302 c -32.4,1.8 -66.8,6.8 -95.1,6.8 -356,0 -644.7,288.7 -644.7,644.8 0,356 288.7,644.7 644.7,644.7 13.4,0 26.8,-0.4 40,-1.2 233.1,-14.3 432.7,-152.4 533.9,-349.3 l 342.8,677.3 57.1,112.7 2.6,5.1 c 15.2,-5.1 30.6,-8.5 46,-10.4 36.9,-4.4 73.3,0.8 105.6,16.8 53.6,26.5 95.7,82.9 109.2,174.9 l 0.1,0.5 c 3.5,23.5 5.1,49.3 4.5,77.6 -0.9,46.5 7.9,106.5 22,170.3 31.6,142.8 89.5,305 122.9,380.5 9.1,20.7 352.5,697.2 485.9,959.9 32.2,63.5 52.2,102.8 52.2,102.8 -783.4,315.2 -1612.6,472.7 -2441.7,472.7" /><path
             id="path26"
             style="fill:#e53e47;fill-opacity:1;fill-rule:nonzero;stroke:none"
             d="m 4397.4,4277.55 c 0,-50.2 -5.7,-99.1 -16.6,-146 -66.2,-285.8 -322.3,-498.7 -628.2,-498.7 -356.1,0 -644.7,288.6 -644.7,644.7 0,356.1 288.6,644.7 644.7,644.7 10.8,0 21.5,-0.3 32.2,-0.8 341.1,-16.8 612.6,-298.6 612.6,-643.9" /><path
             id="path28"
             style="fill:#e53e47;fill-opacity:1;fill-rule:nonzero;stroke:none"
             d="m 3873.4,1930.95 c 0,0 -213.7,-304.2 -379.6,-719.8 -11.9,-29.7 -23.5,-60.1 -34.8,-90.9 -13.5,-36.9 -56.9,-41 -104.5,-38.3 -32.4,1.8 -66.8,6.8 -95.1,6.8 -356,0 -644.7,288.7 -644.7,644.8 0,144.4 47.5,277.7 127.7,385.1 l 0.1,0.2 c 117.6,157.4 305.3,259.4 516.9,259.4 204.3,0 386.3,-95 504.4,-243.1 26.6,-33.3 49.9,-69.2 69.5,-107.4 15.9,-30.9 29.3,-63.3 40.1,-96.8" /><path
             id="path30"
             style="fill:#e53e47;fill-opacity:1;fill-rule:nonzero;stroke:none"
             d="m 2210.5,3067.45 c 0,-77.9 -13.8,-152.5 -39.1,-221.7 -21.2,-57.9 -50.4,-111.9 -86.3,-160.6 -117.5,-159.2 -306.3,-262.5 -519.3,-262.5 -35.5,0 -70.4,2.9 -104.5,8.4 -43.6,7.1 -85.9,18.6 -126.2,34.1 0,0 -252.4,545.7 -408.202,805.1 86.502,10.6 185.402,102.8 185.402,204.4 0,146 77.9,209.3 204.4,158.2 96.7,-39.2 210.6,-31.3 232.5,79.1 h 0.1 c 5.4,0.1 10.9,0.2 16.5,0.2 35.5,0 70.3,-2.9 104.3,-8.4 l 0.2,-0.1 c 19.1,-3.1 38,-7.1 56.6,-11.9 278.1,-71.5 483.6,-324 483.6,-624.3" /><path
             id="path32"
             style="fill:#e53e47;fill-opacity:1;fill-rule:nonzero;stroke:none"
             d="m 2537.1,5165.15 c -105.3,-5.7 -223.6,-59.3 -358,-124.2 -230.3,-111.1 -507.7,-255.1 -846.8,-246.6 -163.3,4.1 -299.3,11.2 -404.105,18.3 -36,2.4 -68.3,4.9 -96.699,7.2 -99.601,8 -152.598,14.7 -152.598,14.7 36.899,12.3 73.899,24.2 110.997,35.8 569.405,178.1 1157.405,276.4 1747.205,294.8" /><path
             id="path34"
             style="fill:#e8816a;fill-opacity:1;fill-rule:nonzero;stroke:none"
             d="m 4102.85,4444.25 c -2.67,2.27 -5.26,4.6 -7.69,7.12 -0.99,1.02 -1.92,2.09 -2.87,3.14 -1.65,2.56 -3.38,5.05 -4.86,7.74 -0.84,1.52 -1.53,3.16 -2.41,4.65 l -0.16,0.24 c -4.18,10.08 -9.68,18.56 -19.57,24.35 -9.64,5.64 -23.86,8.04 -34.67,4.54 -21.37,-6.92 -40.43,-31.82 -31.43,-55.36 8.77,-22.93 21.08,-43.96 40.02,-60.06 9.26,-7.86 19.3,-13.18 31.82,-13.18 11.04,0 24.22,4.91 31.82,13.18 15.39,16.77 19.16,47.37 0,63.64" /><path
             id="path36"
             style="fill:#e8816a;fill-opacity:1;fill-rule:nonzero;stroke:none"
             d="m 3446.7,4425.16 c -16.44,14.59 -37.04,19.05 -58.49,17.41 -21.65,-1.65 -35.81,-13.15 -43.39,-33.03 -4.17,-10.94 -8.34,-21.87 -12.51,-32.8 -8.4,-22.04 9.29,-50.31 31.43,-55.36 13.91,-3.16 26.25,-0.46 36.16,6.3 3.55,-0.84 7.11,-1.47 10.59,-1.62 24.31,-1.09 46.99,15.42 53.84,38.67 6.3,21.38 -0.99,45.66 -17.63,60.43" /><path
             id="path38"
             style="fill:#e8816a;fill-opacity:1;fill-rule:nonzero;stroke:none"
             d="m 3748.26,4226.46 c -15.4,3.51 -30.43,-0.37 -41.31,-9.74 -11.02,-2.82 -20.95,-9.82 -27.88,-20.49 -11.1,-17.1 -19.17,-36.74 -22.83,-56.81 -3.49,-19.11 2.12,-41.01 20.68,-50.82 18.76,-9.91 38.66,-6.45 54.53,7.04 23.21,19.72 39.31,46.54 48.24,75.47 6.94,22.49 -8.23,50.07 -31.43,55.35" /><path
             id="path40"
             style="fill:#e8816a;fill-opacity:1;fill-rule:nonzero;stroke:none"
             d="m 3758.72,4633.03 c -6.46,15.01 -23.17,26.9 -38.62,31.09 -16.7,4.53 -35.4,2.88 -50.24,-6.46 -9.78,-6.16 -17.57,-15.62 -20.68,-26.9 -2.96,-10.77 -1.62,-25.11 4.54,-34.67 8.71,-13.51 24.1,-22.06 39.74,-22.14 4.75,-3.28 9.97,-5.8 14.44,-7.03 10.77,-2.96 25.11,-1.62 34.67,4.54 9.61,6.2 18.07,15.42 20.68,26.89 l 1.61,11.97 c -0.03,8.12 -2.07,15.69 -6.14,22.71" /><path
             id="path42"
             style="fill:#e8816a;fill-opacity:1;fill-rule:nonzero;stroke:none"
             d="m 4095.25,4058.49 c -21.31,8.57 -43.66,0.82 -56.19,-18.42 -16.92,-25.98 -40.23,-44.2 -68.08,-57.37 -16.16,-7.65 -23.43,-26.71 -21.6,-44.09 -4.37,-12.82 -3.54,-27.81 2.95,-38.91 13.52,-23.11 39.14,-25.74 61.57,-16.14 5,2.14 9.66,4.67 14.09,7.48 44.2,25.12 76.22,66.42 93.32,114.36 7.43,20.85 -6.69,45.3 -26.06,53.09" /><path
             id="path44"
             style="fill:#e8816a;fill-opacity:1;fill-rule:nonzero;stroke:none"
             d="m 1484.44,3382.27 c -14.99,7.92 -36.1,7.66 -50.24,-2.55 -2.04,0.95 -4.08,1.88 -6.43,2.53 -10.78,2.97 -25.12,1.63 -34.68,-4.54 -18.65,-12.02 -31.14,-41.35 -16.14,-61.57 15.04,-20.27 36.71,-34.29 63.04,-32.39 24.3,1.76 49.72,13.88 60.59,36.95 10.02,21.25 6.64,49.54 -16.14,61.57" /><path
             id="path46"
             style="fill:#e8816a;fill-opacity:1;fill-rule:nonzero;stroke:none"
             d="m 1855.91,3389.03 c -21.11,12.03 -49.21,4.98 -61.57,-16.15 -12.2,-20.87 -5.04,-49.5 16.15,-61.57 l 1.11,-0.65 0.16,-0.31 c 0.2,-1.19 1.73,-6.76 1.73,-6.74 0.42,-1.79 0.72,-3.59 1.03,-5.4 l 0.08,-1.85 c 0.2,-6.45 0.48,-12.84 0.42,-19.3 -0.25,-23.54 20.87,-46.08 45,-45 24.59,1.11 44.73,19.77 45,45 0.45,42.89 -8.81,89.01 -49.11,111.97" /><path
             id="path48"
             style="fill:#e8816a;fill-opacity:1;fill-rule:nonzero;stroke:none"
             d="m 1730.63,3018.8 c -7.28,17.25 -23.9,27.4 -41.92,27.29 -4.66,20.42 -20.97,38.28 -43.74,37.26 -22.79,-1.02 -46.99,-19.87 -45,-45 0.57,-7.2 0.47,-14.28 0.22,-21.48 l -0.02,-1.58 -0.16,-0.68 c -0.8,-3.5 -1.48,-7 -2.36,-10.49 -5.46,-21.48 6.94,-51.6 31.43,-55.35 29.36,-4.5 57.1,-1.46 83.14,13.83 19.38,11.38 27.04,35.76 18.41,56.2" /><path
             id="path50"
             style="fill:#e8816a;fill-opacity:1;fill-rule:nonzero;stroke:none"
             d="m 1825.99,2809.68 c -5.75,1.31 -11.27,1.51 -16.54,0.93 -2.19,1.95 -4.59,3.64 -7.18,5 -22.64,11.97 -47.58,4.8 -61.56,-16.14 -11.27,-16.88 -23.49,-32.79 -23.48,-54.22 0,-30.91 27.6,-51.73 56.49,-52.47 39.07,-1 71.12,26.11 83.7,61.55 7.89,22.21 -8.91,50.22 -31.43,55.35" /><path
             id="path52"
             style="fill:#e8816a;fill-opacity:1;fill-rule:nonzero;stroke:none"
             d="m 1361.96,3032.82 c -1.71,0.28 -3.32,0.71 -4.95,1.12 l -0.86,0.71 -0.69,1.55 c -2.18,22.54 -20.58,43.54 -44.66,42.46 -23.55,-1.06 -46.03,-19.81 -45,-45 1.66,-40.47 30.44,-80.81 72.23,-87.63 12.31,-2.01 23.52,-1.99 34.68,4.54 9.33,5.46 18.24,16.16 20.68,26.89 4.93,21.66 -6.59,51.3 -31.43,55.36" /><path
             id="path54"
             style="fill:#e8816a;fill-opacity:1;fill-rule:nonzero;stroke:none"
             d="m 3308.3,2151.27 c -2.69,23.33 -21.97,36.72 -44.46,39.52 -26.34,3.28 -52.37,4.2 -76.81,0.57 -19.91,-0.88 -39.8,-2.45 -59.7,-5.01 -24.1,-3.1 -45,-18.46 -45,-45 0,-5.86 1.52,-12.02 4.16,-17.85 -4.11,-15.13 1.12,-33.33 11.75,-43.96 15.27,-15.27 35.92,-15.07 54.53,-7.03 36.75,15.88 76.11,18.52 115.41,13.67 24.16,-2.99 45,22.81 45,45 0,7.69 -1.86,14.32 -4.88,20.09" /><path
             id="path56"
             style="fill:#e8816a;fill-opacity:1;fill-rule:nonzero;stroke:none"
             d="m 2970.03,1868.47 c -10.8,0.04 -21.6,0.09 -32.4,0.13 -3,16.48 -14.09,30.8 -31.64,35.63 -22.45,6.16 -50.22,-7.57 -55.36,-31.43 -9.08,-42.18 -23.75,-115.84 32.47,-131.08 22.14,-6 48.87,3.87 68.91,12.97 18.81,8.55 36.05,21.61 49.84,36.96 25.58,28.46 8.6,76.65 -31.82,76.82" /><path
             id="path58"
             style="fill:#e8816a;fill-opacity:1;fill-rule:nonzero;stroke:none"
             d="m 3393.7,1705.12 c -12.37,28.16 -32.26,49.48 -56.53,67.85 -2.71,2.06 -5.68,3.55 -8.76,4.62 -3.58,2.3 -7.4,4.07 -11.35,5.16 -25.4,6.98 -46.58,-8.66 -55.35,-31.43 -11.48,-29.81 -25.53,-74.08 -9.76,-104.25 18.53,-35.43 64.94,-36.17 99.55,-30.21 18,3.1 34.86,11.36 44.43,27.71 11.6,19.82 6.35,41.02 -2.23,60.55" /><path
             id="path60"
             style="fill:#e8816a;fill-opacity:1;fill-rule:nonzero;stroke:none"
             d="m 3642.16,1933.54 c -13.28,46.18 -51.74,84.5 -99.54,93.75 -23.04,4.46 -49.67,-6.48 -55.36,-31.43 -5.06,-22.25 6.72,-50.57 31.43,-55.36 3.89,-0.75 7.54,-1.69 11.34,-2.78 l 0.86,-0.28 c 3.13,-1.79 6.25,-3.45 9.33,-5.36 l 1.13,-0.67 0.48,-0.72 c 1.7,-2.15 4.12,-4.27 6.14,-6.26 0.57,-0.71 1.24,-1.57 1.81,-2.49 1.2,-1.88 2.21,-3.85 3.25,-5.81 0.2,-0.74 1.77,-4.51 2.34,-6.51 6.5,-22.61 32.05,-38.98 55.36,-31.43 22.99,7.44 38.4,31.12 31.43,55.35" /><path
             id="path62"
             style="fill:#e8816a;fill-opacity:1;fill-rule:nonzero;stroke:none"
             d="m 3109.37,1470.24 c -0.74,2.29 -1.76,4.44 -2.82,6.57 0.4,4.59 0.4,9.21 -0.11,13.82 -1.37,12.3 -4.11,22.75 -13.18,31.82 -7.81,7.81 -20.61,13.68 -31.82,13.18 -11.64,-0.52 -23.71,-4.34 -31.82,-13.18 -7.56,-8.23 -14.48,-20.2 -13.18,-31.82 0.23,-2.09 0.32,-4.15 0.32,-6.2 -0.28,-1.05 -0.68,-2.08 -1.03,-3.11 -3.45,-8.21 -5.05,-15.88 -3.82,-25.07 1.44,-10.67 6.44,-20.99 14.35,-28.51 13.54,-12.87 33.62,-18.37 51.68,-12.85 22.48,6.87 39.06,31.78 31.43,55.35" /><path
             id="path64"
             style="fill:#e8816a;fill-opacity:1;fill-rule:nonzero;stroke:none"
             d="m 3346.6,1442.73 c -8.8,8.08 -19.63,13.18 -31.82,13.18 h -14.07 c -11.54,0 -23.66,-5.02 -31.82,-13.18 -7.81,-7.8 -13.68,-20.61 -13.18,-31.82 0.52,-11.64 4.34,-23.71 13.18,-31.82 8.8,-8.08 19.63,-13.18 31.82,-13.18 h 14.07 c 11.54,0 23.66,5.02 31.82,13.18 7.8,7.81 13.68,20.61 13.18,31.82 -0.52,11.64 -4.34,23.71 -13.18,31.82" /><path
             id="path66"
             style="fill:#a21f26;fill-opacity:1;fill-rule:nonzero;stroke:none"
             d="m 1680.94,3443.02 c -7.44,0 -13.42,-2.27 -17.99,-5.87 l -0.83,0.33 c -7.18,1.98 -16.74,1.08 -23.12,-3.03 -6.4,-4.13 -12.04,-10.28 -13.78,-17.92 -1.68,-7.35 -1.72,-16.81 3.02,-23.12 4.47,-5.96 8.93,-11.91 13.4,-17.87 4.87,-6.49 9.79,-11.54 17.93,-13.78 7.18,-1.98 16.74,-1.09 23.12,3.02 6.4,4.13 12.04,10.28 13.78,17.93 0.36,1.59 0.6,3.31 0.78,5.05 21.1,14.08 15.76,55.26 -16.31,55.26" /><path
             id="path68"
             style="fill:#a21f26;fill-opacity:1;fill-rule:nonzero;stroke:none"
             d="m 1565.11,3182.97 c -5.27,11.19 -15.5,18.96 -25.83,25.22 -13.44,8.13 -33.56,3.41 -41.05,-10.76 -4.11,-7.78 -4.75,-16.44 -2.37,-24.18 -2.17,-6.87 -3.07,-13.77 -1.34,-21.55 2.17,-9.81 8.17,-18.56 16.93,-23.72 15.06,-8.86 34.3,-4.95 46.36,7.09 13.17,13.13 15,31.54 7.3,47.9" /><path
             id="path70"
             style="fill:#a21f26;fill-opacity:1;fill-rule:nonzero;stroke:none"
             d="m 1278.97,3215.23 c -2.38,0 -4.61,-0.24 -6.7,-0.67 -2.09,0.43 -4.32,0.67 -6.7,0.67 -38.61,0 -38.67,-60 0,-60 2.38,0 4.6,0.24 6.69,0.66 2.09,-0.42 4.32,-0.66 6.71,-0.66 38.6,0 38.67,60 0,60" /><path
             id="path72"
             style="fill:#a21f26;fill-opacity:1;fill-rule:nonzero;stroke:none"
             d="m 1520.15,2790.92 c -16.25,-0.73 -30,-13.18 -30,-30 v -26.8 c 0,-15.69 13.8,-30.72 30,-30 16.26,0.73 30,13.18 30,30 v 26.8 c 0,15.69 -13.8,30.73 -30,30" /><path
             id="path74"
             style="fill:#a21f26;fill-opacity:1;fill-rule:nonzero;stroke:none"
             d="m 1956.9,3021.83 c -2.53,3.93 -5.69,7.01 -9.2,9.38 l -0.04,2.17 c -0.31,15.68 -13.58,30.73 -30,30 -15.99,-0.72 -30.33,-13.19 -30,-30 0.22,-11.09 0.44,-22.18 0.66,-33.27 0.46,-23.48 24.93,-36.39 45.14,-25.9 4.23,2.19 8.45,4.38 12.68,6.58 13.96,7.24 19.24,27.9 10.76,41.04" /><path
             id="path76"
             style="fill:#a21f26;fill-opacity:1;fill-rule:nonzero;stroke:none"
             d="m 3283.9,1946.16 c -3.72,13.51 -15.65,20.8 -28.93,22.03 -20.58,1.9 -41.15,3.81 -61.73,5.72 -16.15,1.49 -30,-14.86 -30,-30 0,-9.83 4.45,-17.52 11.15,-22.72 l -0.12,-0.9 c -3.58,-25.9 18.96,-46.43 44.07,-33.88 l 51.77,25.87 c 11.75,5.88 17.13,21.71 13.79,33.88" /><path
             id="path78"
             style="fill:#a21f26;fill-opacity:1;fill-rule:nonzero;stroke:none"
             d="m 3536.06,1825.3 -5.7,0.63 c -2,0.48 -3.99,0.97 -5.95,1.62 l -1.15,0.32 -1.57,0.91 c -0.79,0.44 -7.76,4.97 -4.14,2.13 -5.85,4.58 -12.66,7.47 -19.51,8.17 l -1.69,0.22 -0.19,0.01 c -1.48,0.2 -2.97,0.4 -4.52,0.33 -16.09,-0.72 -30.21,-13.18 -30,-30 0.2,-16.1 0.4,-32.21 0.6,-48.32 0.34,-27.16 32,-38.03 51.21,-21.21 13.15,11.51 23.33,19.42 37.76,29.28 24.26,16.6 15.69,54.92 -15.15,55.91" /><path
             id="path80"
             style="fill:#a21f26;fill-opacity:1;fill-rule:nonzero;stroke:none"
             d="m 3136.96,1675.19 c -4.07,6.25 -8.14,12.5 -12.21,18.74 -1.58,2.42 -3.51,4.48 -5.59,6.37 0.25,3.28 0.39,6.58 0.36,9.87 -0.15,15.69 -13.69,30.73 -30,30 -16.12,-0.72 -30.16,-13.18 -30,-30 0.13,-13.35 -2.57,-22.28 -11.61,-35.04 -9.08,-12.81 -2.66,-34.01 10.76,-41.04 21.79,-11.41 45.75,-11.44 67.52,0.06 13.84,7.31 19.34,27.89 10.77,41.04" /><path
             id="path82"
             style="fill:#a21f26;fill-opacity:1;fill-rule:nonzero;stroke:none"
             d="m 2927.52,1523.91 c -1.14,9.31 -2.28,18.61 -3.42,27.91 -1.01,8.25 -2.68,15.1 -8.79,21.21 -5.2,5.21 -13.74,9.13 -21.21,8.79 -3.73,-0.17 -7.5,-0.88 -11.04,-2.18 -13.69,4.34 -29.61,-0.34 -37.49,-13.81 -9.1,-15.55 -3.12,-34.34 9.82,-45.47 6.92,-5.95 13.95,-11.77 20.92,-17.66 9.45,-7.97 20.91,-11.21 32.77,-6.2 9.89,4.17 19.87,15.79 18.44,27.41" /><path
             id="path84"
             style="fill:#a21f26;fill-opacity:1;fill-rule:nonzero;stroke:none"
             d="m 2972.27,2073.37 c -6.96,4.92 -14.91,8.74 -23.18,11.25 -1.54,8.59 -6.42,16.62 -14.16,20.71 -14.74,7.79 -32.15,3.46 -41.05,-10.76 -14.09,-22.52 -10.84,-54.83 9.67,-72.46 20.76,-17.84 56.73,-18.37 74.79,4.14 12.79,15.95 10.94,35.1 -6.07,47.12" /><path
             id="path86"
             style="fill:#a21f26;fill-opacity:1;fill-rule:nonzero;stroke:none"
             d="m 3419.44,2187.79 c -16.26,-0.73 -30,-13.18 -30,-30 v -27.13 c 0,-15.69 13.8,-30.72 30,-30 16.25,0.73 30,13.18 30,30 v 27.13 c 0,15.69 -13.8,30.73 -30,30" /><path
             id="path88"
             style="fill:#a21f26;fill-opacity:1;fill-rule:nonzero;stroke:none"
             d="m 3500.82,1509.59 c -16.25,-0.73 -30,-13.18 -30,-30 v -9.05 c 0,-15.69 13.8,-30.72 30,-30 16.26,0.73 30,13.19 30,30 v 9.05 c 0,15.69 -13.8,30.72 -30,30" /><path
             id="path90"
             style="fill:#a21f26;fill-opacity:1;fill-rule:nonzero;stroke:none"
             d="m 3767.91,3892.98 c 3.81,10.34 1.41,22.42 -6.55,31.98 -18.73,22.5 -55.31,8.64 -62.77,-16.74 l -0.08,-0.35 c -12.31,-13.2 -21.68,-28.83 -28.09,-46.47 -5.53,-15.23 6.22,-32.86 20.96,-36.9 16.27,-4.48 30.55,5.2 36.4,19.85 4.96,-4.59 11.42,-7.53 19.29,-7.53 14.92,0 31.69,13.79 30,30 -1.06,10.14 -3.74,18.41 -9.16,26.16" /><path
             id="path92"
             style="fill:#a21f26;fill-opacity:1;fill-rule:nonzero;stroke:none"
             d="m 3535.59,4112.39 -0.76,0.51 c 0.87,6.89 1.16,13.84 0.75,20.73 -0.95,16.18 -13.11,30 -30,30 -14.81,0 -29.38,-12.56 -29.86,-27.84 -12.12,-1.17 -23.02,-8.94 -26.48,-21.52 -3,-10.92 1.07,-23.43 9.55,-30.9 -6.09,-20.12 16.51,-43.86 37.51,-36.73 10.71,3.64 21.42,7.28 32.13,10.92 26.28,8.93 27.52,39.2 7.16,54.83" /><path
             id="path94"
             style="fill:#a21f26;fill-opacity:1;fill-rule:nonzero;stroke:none"
             d="m 3698.44,4394.56 c -19.52,15.31 -40.8,21.23 -65.37,16.39 -15.43,-3.04 -25.69,-22.28 -20.95,-36.9 5.31,-16.41 20.37,-24.21 36.9,-20.96 l 0.27,0.07 0.74,-0.14 1.99,-0.1 0.13,-0.04 c 0.61,-0.25 3.32,-1.42 4.46,-1.77 1.84,-1.26 3.85,-2.46 -0.59,1.02 6.53,-5.12 12.55,-8.79 21.21,-8.79 7.36,0 16.15,3.27 21.21,8.79 9.91,10.79 13.19,32.08 0,42.43" /><path
             id="path96"
             style="fill:#a21f26;fill-opacity:1;fill-rule:nonzero;stroke:none"
             d="m 3505.15,4632.46 c -6.5,1.48 -12.39,1.1 -17.57,-0.75 -5.53,6.9 -13.73,11.59 -22.93,11.17 -16.12,-0.72 -30.16,-13.18 -30,-30 0.15,-14.6 0.29,-29.2 0.43,-43.81 0.24,-23.9 25.01,-35.83 45.15,-25.9 22.16,10.92 36.74,29.96 45.87,52.38 5.94,14.58 -6.43,33.6 -20.95,36.91" /><path
             id="path98"
             style="fill:#a21f26;fill-opacity:1;fill-rule:nonzero;stroke:none"
             d="m 3934.87,4660.97 c -16.25,-0.73 -30,-13.18 -30,-30 v -31.65 c 0,-15.69 13.8,-30.73 30,-30 16.26,0.73 30,13.18 30,30 v 31.65 c 0,15.69 -13.8,30.72 -30,30" /><path
             id="path100"
             style="fill:#a21f26;fill-opacity:1;fill-rule:nonzero;stroke:none"
             d="m 3758.54,4819.21 h -13.56 c -15.7,0 -30.73,-13.79 -30.01,-30 0.73,-16.25 13.19,-29.99 30.01,-29.99 h 13.56 c 15.69,0 30.72,13.79 30,29.99 -0.73,16.26 -13.18,30 -30,30" /><path
             id="path102"
             style="fill:#a21f26;fill-opacity:1;fill-rule:nonzero;stroke:none"
             d="m 3996.58,4236.06 c 0.88,13.28 -9.67,27.63 -22.28,30.5 -17.22,3.93 -30.78,-5.26 -36.9,-20.95 -4.29,-10.98 -8.57,-21.97 -12.86,-32.95 -7.02,-17.99 10.91,-38.69 28.93,-37.98 13.39,0.54 26.78,1.07 40.17,1.6 15.66,0.63 30.75,13.35 30,30 -0.66,14.77 -11.79,28.69 -27.06,29.78" /><path
             id="path104"
             style="fill:#a21f26;fill-opacity:1;fill-rule:nonzero;stroke:none"
             d="m 4270.94,4236.78 c -1.92,6.96 -7.3,14.5 -13.79,17.93 -4.52,2.39 -9.67,3.85 -14.83,4.01 -4.78,10.48 -15.05,18.47 -27.12,17.93 -15.97,-0.71 -30.37,-13.19 -30,-30 l 0.57,-26.42 c 0.29,-13.52 9.16,-25 22.02,-28.92 9.85,-3.01 21.37,-3 31.16,0.29 12.52,4.2 21.11,11.59 28.96,22.07 4.36,5.82 4.86,16.44 3.03,23.11" /><path
             id="path106"
             style="fill:#a21f26;fill-opacity:1;fill-rule:nonzero;stroke:none"
             d="m 4150.5,4625.05 -9.04,9.05 c -11.11,11.11 -31.47,11.94 -42.43,0 -10.99,-11.98 -11.85,-30.57 0,-42.43 3.02,-3.02 6.03,-6.03 9.05,-9.04 11.11,-11.12 31.46,-11.94 42.42,0 11,11.97 11.86,30.56 0,42.42" /><path
             id="path108"
             style="fill:#ffffff;fill-opacity:1;fill-rule:nonzero;stroke:none"
             d="m 2799.06,3623.85 c 0,-383.6 -251.39,-694.6 -561.5,-694.6 -305.2,0 -553.5,301.2 -561.3,676.5 -0.1,6 -0.2,12 -0.2,18.1 0,116.3 23.1,226 64,322.3 93.9,221.4 281.4,372.4 497.5,372.4 229.6,0 427,-170.5 514,-414.7 29.9,-83.7 46.7,-176.1 47.4,-273.2 0.1,-2.2 0.1,-4.5 0.1,-6.8" /><path
             id="path110"
             style="fill:#ffffff;fill-opacity:1;fill-rule:nonzero;stroke:none"
             d="m 3903.63,3548.25 c 0,-341.9 -226.5,-619 -505.8,-619 -279.4,0 -505.9,277.1 -505.9,619 0,21.9 0.9,43.5 2.7,64.8 9.3,108.5 41.4,208.6 90.3,293 91.7,158.1 242.5,261.2 412.9,261.2 183.6,0 344.4,-119.7 433,-298.9 40.5,-81.8 65.9,-176 71.5,-276.9 0.9,-14.3 1.3,-28.7 1.3,-43.2" /><path
             id="path112"
             style="fill:#1d1312;fill-opacity:1;fill-rule:nonzero;stroke:none"
             d="m 3468.97,1943.84 c -52.6,9.9 -115,20.4 -185.4,30.09 -262.1,36.01 -634.3,60.51 -1021.7,-1.59 -43.3,-6.9 -86.9,-15 -130.5,-24.2 -84.3,-17.8 -157,60.39 -134,143.4 53.5,192.79 178.7,413.7 273.8,480.8 234.5,165.2 888.2,145 1075.4,-16.31 69.5,-59.89 198.6,-288.59 253.2,-465.19 25.6,-82.7 -45.7,-163 -130.8,-147" /><path
             id="path114"
             style="fill:#f78f8a;fill-opacity:1;fill-rule:nonzero;stroke:none"
             d="m 3283.57,1973.93 c -262.1,36.01 -634.3,60.51 -1021.7,-1.59 12,40.1 30.6,86.7 59.4,128.8 47.7,70 123.2,127.3 242.1,120.49 l 244.9,-39.49 c 0,0 282.7,132.1 420.3,-74 23.1,-34.5 42.1,-78.5 55,-134.21" /><path
             id="path116"
             style="fill:#9f5825;fill-opacity:1;fill-rule:nonzero;stroke:none"
             d="m 4108.4,5382.1 c -287.4,-488 -558.8,-28.7 -558.8,-28.7 -374.5,-188.7 -505.9,184.9 -505.9,184.9 -344.4,46.9 -377,329.1 -372.6,462.7 1.8,0.1 3.5,0.1 5.3,0.1 8.9,0.1 17.7,0.1 26.6,0.1 16,0.2 32,0.3 47.9,0.3 h 4.1 c -2.3,-3.9 -4.3,-7.9 -6.4,-11.9 -1.1,-2.1 -2.3,-4.2 -3.3,-6.4 -1.6,-3.2 -3,-6.6 -4.5,-9.9 l -0.4,-1 c 39,-103.5 153.1,-177.8 269.7,-177.8 21.9,0 43.9,2.7 65.3,8 l 39.2,9.7 4,-40.3 c 13.7,-138.9 129.4,-243.6 269.1,-243.6 55.2,0 108.3,16.5 153.6,47.8 l 34.1,23.6 17.5,-37.6 c 44.3,-95 140.6,-156.4 245.3,-156.4 119.4,0 223.3,76.6 258.5,190.7 l 14.5,47.1 39.7,-29.3 c 46.7,-34.4 102.1,-52.7 160.3,-52.7 101.6,0 190.3,56.3 236.5,139.4 0.9,1.6 1.7,3.3 2.6,4.9 -1.2,4.3 -2.6,8.5 -4.1,12.7 l 59.1,-11.1 c 16.7,-531.6 -496.9,-325.3 -496.9,-325.3" /><path
             id="path118"
             style="fill:#d9933b;fill-opacity:1;fill-rule:nonzero;stroke:none"
             d="m 1551.85,3680.51 c -8.2,-24 -25.5,-44.8 -56.7,-57.6 -125.2,-51.1 -184,64 -294,15.4 -53.4,-23.6 -60.9,-79.2 -72.1,-141.5 -1.1,-6 -2.2,-12 -3.4,-18.1 -8.1,-41.1 -19.7,-84 -48.3,-121.9 l 2.4,-0.2 c -25.2,-31.4 -58.1,-56.5 -92.203,-71.2 -15.801,-6.8 -31.699,-11.4 -47.297,-13.3 -24.902,-3 -48.703,0.7 -68.902,13 -10.399,6.3 -19.801,14.8 -27.899,25.9 -35.601,49 -50.601,150.1 -63.601,259.4 l -0.102,0.5 c -5.598,47.3 -10.898,96.1 -17.297,142.9 v 0.2 c -11.199,81.2 -25.703,156.4 -51.601,207 -10.7,21 -26.399,51.9 -45.598,89.3 -114.801,224.7 -351.203,687.3 -351.203,687.3 35.5,14.3 71.101,28.1 106.801,41.8 2.5,-4.4 377.5,-662.9 425,-831.4 24.199,-85.8 6.902,-449.1 118.5,-459.6 87.102,69.1 101.702,366.9 261.502,330.6 159.8,-36.3 307,-115.4 294.5,75.2 0,0 56.4,-101.4 31.5,-173.7" /><path
             id="path120"
             style="fill:#d9933b;fill-opacity:1;fill-rule:nonzero;stroke:none"
             d="m 420.813,4739.47 0.054,-0.1 c 15.988,6.1 31.957,12.27 47.981,18.24 l -48.035,-18.14" /><path
             id="path122"
             style="fill:#d9933b;fill-opacity:1;fill-rule:nonzero;stroke:none"
             d="m 2775.05,180.813 -559.1,1152.387 -16.1,33.21 -13.9,28.6 c -20.9,57.1 -65.3,109.1 -68.1,112.2 2.3,-6.4 50.2,-144.21 -63.3,-163.9 -84,30.8 -75.3,229.49 -100.8,304.4 -40.4,118.59 -278.9,636.9 -278.9,636.9 473.85,176.08 586.38,448.12 590.62,659.37 -18.1,-3.55 -36.5,-5.54 -55,-5.82 -60.57,-293.22 -320.17,-513.65 -631.32,-513.65 -35.5,0 -70.4,2.89 -104.5,8.4 l -1.1,-4.4 c 0,0 345.1,-730.51 404.7,-983.01 l 0.1,-0.09 c 1.2,-5.3 2.3,-10.4 3.3,-15.2 3.4,-17.01 5.3,-31.3 5.3,-42.41 0,-85.69 104.9,-157.39 194.2,-148.8 l 5.1,-9.89 50.1,-98.01 523.9,-1025.287 c 44.3,-86.813 168.5,-86.6021 212.6,0.398 l 59.4,117.301 c -106.6,-101.602 -157.2,-42.699 -157.2,-42.699" /><path
             id="path124"
             style="fill:#d9933b;fill-opacity:1;fill-rule:nonzero;stroke:none"
             d="m 692.246,4836.41 c 0,0 96.301,-12 273.004,-23.4 -267.5,-77.2 -472.703,-156.2 -602.301,-211.2 -29.902,58.5 -48.902,95.8 -48.902,95.8 51.402,20.7 103,40.7 154.801,60 h 0.199 c 74,27.7 148.402,53.9 223.199,78.8" /><path
             id="path126"
             style="fill:#d9933b;fill-opacity:1;fill-rule:nonzero;stroke:none"
             d="m 5197.55,4697.61 c 0,0 -20,-39.3 -52.2,-102.8 -1105.5,446.3 -2132.7,516.7 -2961.1,444.1 137.8,66.6 258.8,122.3 366.2,128.1 4.5,0.29 8.9,0.4 13.3,0.5 64,1.9 128.1,2.79 192.1,2.79 829.1,0 1658.3,-157.5 2441.7,-472.69" /><path
             id="path128"
             style="fill:#bb5f2f;fill-opacity:1;fill-rule:nonzero;stroke:none"
             d="m 4504.65,2989.31 c -12.2,-35.2 -45.1,-115.3 -103.9,-158.2 -39.4,-28.8 -90.2,-40.8 -154.2,-11.5 -5.1,2.3 -10.3,4.9 -15.6,7.8 -135.1,73.7 -120,199.5 -92,296.2 l 14.3,34.7 c -1.6,-7.8 -37.8,-191.8 118.8,-247.3 117.3,-41.7 191.7,4 232.6,78.3" /><path
             id="path130"
             style="fill:#bb5f2f;fill-opacity:1;fill-rule:nonzero;stroke:none"
             d="m 780.047,3569.91 9.801,-30.7 c -5.7,15.7 -8.899,27.3 -9.801,30.7" /><path
             id="path132"
             style="fill:#bb5f2f;fill-opacity:1;fill-rule:nonzero;stroke:none"
             d="m 1129.05,3496.81 c -1.1,-6 -2.2,-12 -3.4,-18.1 -8.1,-41.1 -19.7,-84 -48.3,-121.9 l 2.4,-0.2 c -25.2,-31.4 -58.1,-56.5 -92.203,-71.2 -15.801,-6.8 -31.699,-11.4 -47.297,-13.3 -24.902,-3 -48.703,0.7 -68.902,13 l -81.098,253 c 17.898,-48.5 59.496,-135.1 132.199,-149.7 101.801,-20.3 200.201,98.5 200.201,152.8 0,15.1 2.6,-6 6.4,-44.4" /><path
             id="path134"
             style="fill:#bb5f2f;fill-opacity:1;fill-rule:nonzero;stroke:none"
             d="m 2136.35,1131.11 -50.1,98 -5.1,9.9 c -89.3,-8.6 -194.2,63.1 -194.2,148.8 0,11.1 -1.9,25.4 -5.3,42.4 l 31.8,-34.7 c 0,0 63.4,-103.7 156.3,-82.9 93,20.9 101.9,114.5 101.9,114.5 l 28.2,-60.7 3,14.4 c 0,0 8.3,-18.9 13.1,-47.6 8.9,-52.6 6.2,-138.3 -79.6,-202.1" /><path
             id="path136"
             style="fill:#bd2d35;fill-opacity:1;fill-rule:nonzero;stroke:none"
             d="m 1421.55,2542.31 -315.2,672 c 152,130.8 103.7,283.8 155.6,324.89 30.57,24.26 55.88,8.74 104.12,-6.78 33.49,-10.78 78.04,-21.56 143.08,-19.02 116.37,4.48 155.87,105.63 168.68,159.29 0.28,11.24 1.23,22.36 2.81,33.31 -33.11,5.21 -66.96,8 -101.49,8 -5.6,0 -11.1,-0.09 -16.5,-0.2 h -0.1 c -21.9,-110.4 -135.8,-118.3 -232.5,-79.09 -126.5,51.1 -204.4,-12.2 -204.4,-158.21 0,-101.6 -98.9,-193.79 -185.4,-204.39 155.8,-259.4 408.2,-805.1 408.2,-805.1 40.3,-15.51 82.6,-27 126.2,-34.1 34.1,-5.51 69,-8.4 104.5,-8.4 278.2,0 515.2,176.2 605.6,423.1 -318.2,-460.5 -763.2,-305.3 -763.2,-305.3" /><path
             id="path138"
             style="fill:#bd2d35;fill-opacity:1;fill-rule:nonzero;stroke:none"
             d="m 2881.05,1370.01 c -204.97,162.08 -176.13,491.77 -146.58,654.84 -5.59,-0.31 -11.16,-0.48 -16.72,-0.48 h -21.29 c -43.7,-86.92 -68.41,-185.03 -68.41,-288.96 0,-356.1 288.7,-644.8 644.7,-644.8 28.3,0 62.7,-5 95.1,-6.81 47.6,-2.7 91,1.41 104.5,38.31 11.3,30.8 22.9,61.2 34.8,90.89 -168.71,-20.47 -401.65,-20.47 -626.1,157.01" /><path
             id="path140"
             style="fill:#bd2d35;fill-opacity:1;fill-rule:nonzero;stroke:none"
             d="m 3761.25,4916.38 c -358.65,0 -649.44,-290.79 -649.44,-649.44 0,-68.67 10.74,-134.81 30.48,-196.93 39.12,28.63 84.08,49.55 131.27,60.51 -21.99,60.7 -34.01,126.17 -34.01,194.46 0,315.43 255.75,571.19 571.18,571.19 315.43,0 571.19,-255.76 571.19,-571.19 0,-290.02 -216.27,-529.42 -496.29,-566.14 16.63,-39.04 29.4,-79.6 37.71,-120.96 280.31,71.98 487.45,326.28 487.45,629.06 0,358.65 -290.79,649.44 -649.54,649.44" /><path
             id="path142"
             style="fill:#bd2d35;fill-opacity:1;fill-rule:nonzero;stroke:none"
             d="m 2550.45,5167.01 c -105.3,-5.71 -223.6,-59.3 -358,-124.21 -449.3,-39.69 -1043.4,-177.79 -1250.903,-228.29 -48.098,-11.7 -75.399,-18.7 -75.399,-18.7 l -21.3,25.9 -41.602,50.5 c 569.404,178.09 1157.404,276.4 1747.204,294.8" /><path
             id="path144"
             style="fill:#fdfbc2;fill-opacity:1;fill-rule:nonzero;stroke:none"
             d="m 1249.94,3795.82 c 0,0 143.37,-57.65 190.04,-43.92 46.67,13.72 49.41,57.65 49.41,57.65 0,0 -56.12,-38.44 -239.45,-13.73" /><path
             id="path146"
             style="fill:#fdfbc2;fill-opacity:1;fill-rule:nonzero;stroke:none"
             d="m 3930.08,3455.89 c -1.03,-7.77 -2.28,-15.52 -3.67,-23.27 27.64,20.94 44.25,39.19 44.25,39.19 0,0 -15.65,-7.1 -40.58,-15.92" /><path
             id="path148"
             style="fill:#fdfbc2;fill-opacity:1;fill-rule:nonzero;stroke:none"
             d="m 4037.02,2694.61 c 0,0 -242.53,-387.64 -223.09,-431.7 19.44,-44.06 202.49,278.02 223.09,431.7" /><path
             id="path150"
             style="fill:#fdfbc2;fill-opacity:1;fill-rule:nonzero;stroke:none"
             d="m 1801.66,2146.08 c 0,0 125.29,-332.83 172.67,-414.46 47.39,-81.62 -64.29,297.88 -114.26,379.4 -49.98,81.52 -75.52,80 -58.41,35.06" /><path
             id="path152"
             style="fill:#fdfbc2;fill-opacity:1;fill-rule:nonzero;stroke:none"
             d="m 3027.31,680.352 c 0,0 -181.21,-338.614 -172.06,-380.93 9.14,-42.332 114.97,173.148 144.78,230.859 29.82,57.719 123.13,253.957 124.57,269.348 1.44,15.391 -72.89,-23.09 -97.29,-119.277" /><path
             id="path154"
             style="fill:#fdfbc2;fill-opacity:1;fill-rule:nonzero;stroke:none"
             d="m 639.648,4444.75 c 0,0 125.629,-266.26 163.598,-338.4 37.969,-72.15 108.453,-56.92 62.91,50.83 -45.543,107.76 -123.828,247.85 -156.789,305.53 -32.965,57.68 -126.906,102.47 -69.719,-17.96" /><path
             id="path156"
             style="fill:#fdfbc2;fill-opacity:1;fill-rule:nonzero;stroke:none"
             d="m 3124.62,4791.07 c 0,0 -136.48,-143.7 -134.85,-323.1 1.63,-179.41 32.34,-145.03 37.54,-98.68 5.2,46.35 100.77,365.73 183.8,426.56 83.03,60.82 -56.3,32.13 -86.49,-4.78" /><path
             id="path158"
             style="fill:#fdfbc2;fill-opacity:1;fill-rule:nonzero;stroke:none"
             d="m 3000.03,4254.64 c 0,0 -24.38,-57.35 0,-89.15 24.39,-31.8 40.88,-2.5 40.88,25.46 0,27.95 3.46,132.41 -40.88,63.69" /><path
             id="path160"
             style="fill:#fdfbc2;fill-opacity:1;fill-rule:nonzero;stroke:none"
             d="m 880.977,4005.26 c -16.754,-30.84 -7.692,-112.71 22.336,-123.56 30.031,-10.85 37.835,40.2 36.937,76.23 -0.902,36.04 -33.562,94.66 -59.273,47.33" /><path
             id="path162"
             style="fill:#d9933b;fill-opacity:1;fill-rule:nonzero;stroke:none"
             d="m 3153.54,4077.87 c -20.85,63.43 -32.29,131.13 -32.29,201.53 0,40.31 3.7,79.71 10.8,118.01 -26.7,-71.2 -41.3,-148.41 -41.3,-228.9 0,-44.85 4.54,-88.64 13.16,-130.94 15.27,14.85 31.92,28.33 49.63,40.3" /><path
             id="path164"
             style="fill:#d9933b;fill-opacity:1;fill-rule:nonzero;stroke:none"
             d="m 3920,3653.37 c 8.15,-35.63 13.01,-71.92 14.28,-108.37 256.1,78.46 445.15,310.24 459.87,588.4 -54.71,-236.17 -239.14,-422.42 -474.15,-480.03" /><path
             id="path166"
             style="fill:#d9933b;fill-opacity:1;fill-rule:nonzero;stroke:none"
             d="m 3272.75,1090.61 c -356,0 -644.7,288.7 -644.7,644.8 0,103.92 24.74,202.01 68.44,288.96 h -66.7 c -56.13,-100.55 -88.24,-216.33 -88.24,-339.66 0,-385.5 312.5,-697.999 698,-697.999 27.6,0 54.8,1.598 81.5,4.801 l 46.8,92.288 c -32.4,1.81 -66.8,6.81 -95.1,6.81" /><path
             id="path168"
             style="fill:#fdfbc2;fill-opacity:1;fill-rule:nonzero;stroke:none"
             d="m 2282.55,5046.8 c 0,0 -230.9,-166.59 -422.5,-250.99 -191.5,-84.3 -503.6,-107.1 -731,-76.7 -227.402,30.4 -262.902,76.7 -262.902,76.7 l 4.899,23.9 c 28.199,-2.2 59.699,-4.5 94.199,-6.7 101.304,-6.6 229.104,-13 380.404,-16.8 335.1,-8.4 610,132.1 838.6,242.7 8.8,4.2 17.5,8.39 26.1,12.6 l 72.2,-4.71" /><path
             id="path170"
             style="fill:#b97135;fill-opacity:1;fill-rule:nonzero;stroke:none"
             d="m 5451.35,5450.41 c -40.6,16.3 -81.3,32.3 -122.1,47.89 37.9,-200.89 34.3,-391.5 -131.7,-516.89 -359.43,144.61 -728.54,255.83 -1102.82,334.05 -63.32,-84.89 -166.8,-141.56 -273.05,-141.56 -121.44,0 -222.45,64.17 -280.97,158.55 -47.36,-25.15 -100.16,-39.63 -153.71,-39.63 -118.42,0 -217.44,61.01 -276.56,151.56 -118.11,6.41 -236.35,9.73 -354.59,9.73 -64,0 -128.1,-0.9 -192.1,-2.81 -4.4,-0.09 -8.8,-0.19 -13.3,-0.49 -628.2,-19.6 -1254.3,-129.8 -1858.2,-330.6 -127.102,-42.3 -253.203,-88.5 -378.203,-138.8 -166,125.39 -169.598,316 -131.699,516.89 -40.801,-15.59 -81.5,-31.59 -122.098,-47.89 -77,-278.5 23.1992,-578.6 253.797,-752.8 125,50.3 251.101,96.5 378.203,138.8 603.9,200.8 1230,311 1858.2,330.6 4.5,0.29 8.9,0.4 13.3,0.5 64,1.9 128.1,2.8 192.1,2.8 829.1,0 1658.3,-157.51 2441.7,-472.7 230.6,174.2 330.8,474.3 253.8,752.8" /><path
             id="path172"
             style="fill:#b97135;fill-opacity:1;fill-rule:nonzero;stroke:none"
             d="m 5451.35,5450.41 c -40.6,16.3 -81.3,32.3 -122.1,47.89 37.9,-200.89 34.3,-391.5 -131.7,-516.89 -362.84,145.98 -735.52,257.98 -1113.45,336.32 -63.15,-86.15 -167.52,-143.83 -274.73,-143.83 -124.08,0 -226.87,66.98 -284.77,164.74 -46.38,-23.91 -97.79,-37.62 -149.9,-37.62 -114.97,0 -211.62,57.53 -271.26,143.74 -115.78,6.15 -231.68,9.35 -347.59,9.35 -64,0 -128.1,-0.9 -192.1,-2.81 -4.4,-0.09 -8.8,-0.19 -13.3,-0.49 -628.2,-19.6 -1254.3,-129.8 -1858.2,-330.6 -127.102,-42.3 -253.203,-88.5 -378.203,-138.8 -166,125.39 -169.598,316 -131.699,516.89 -40.801,-15.59 -81.5,-31.59 -122.098,-47.89 -77,-278.5 23.1992,-578.6 253.797,-752.8 125,50.3 251.101,96.5 378.203,138.8 603.9,200.8 1230,311 1858.2,330.6 4.5,0.29 8.9,0.4 13.3,0.5 64,1.9 128.1,2.8 192.1,2.8 829.1,0 1658.3,-157.51 2441.7,-472.7 230.6,174.2 330.8,474.3 253.8,752.8" /><path
             id="path174"
             style="fill:#9f5825;fill-opacity:1;fill-rule:nonzero;stroke:none"
             d="m 5295.7,4804.22 c -814.89,327.87 -1677.42,491.7 -2539.85,491.7 -66.57,0 -133.25,-0.94 -199.82,-2.91 -4.58,-0.1 -9.16,-0.21 -13.84,-0.52 -653.45,-20.39 -1304.72,-135.02 -1932.893,-343.89 -132.207,-44 -263.375,-92.06 -393.402,-144.38 -13.969,10.55 -27.426,21.59 -40.465,33 38.847,-52.05 85.179,-99.25 138.617,-139.61 125.004,50.3 251.101,96.5 378.203,138.8 603.9,200.8 1230,311 1858.2,330.6 4.5,0.29 8.9,0.4 13.3,0.5 64,1.9 128.1,2.8 192.1,2.8 829.1,0 1658.3,-157.51 2441.7,-472.7 53.43,40.36 99.77,87.56 138.62,139.61 -13.04,-11.41 -26.5,-22.45 -40.47,-33" /><path
             id="path176"
             style="fill:#f8d7ba;fill-opacity:1;fill-rule:nonzero;stroke:none"
             d="m 526.621,5622.34 c 692.869,225.3 1411.679,343.29 2144.159,351.77 0.01,-1.35 0.02,-2.71 0.05,-4.08 -732.39,-7.15 -1451.24,-123.82 -2144.209,-347.69" /><path
             id="path178"
             style="fill:#e1b169;fill-opacity:1;fill-rule:nonzero;stroke:none"
             d="m 35.457,5295.54 c 2.2891,52.57 10.4453,105.34 24.8321,157.36 154.0039,61.96 309.5199,118.46 466.3319,169.44 692.969,223.87 1411.819,340.54 2144.209,347.69 0.15,-10.02 0.55,-20.56 1.26,-31.51 -5.5,-23.97 -2.47,-50.22 9.13,-71.64 1.37,-7.09 2.91,-14.27 4.63,-21.48 -866.19,-8.25 -1713.491,-169.69 -2521.401,-480.47 2.949,43.52 9.375,88.19 17.899,133.37 v 0 c -40.801,-15.59 -81.5,-31.59 -122.098,-47.89 -14.1562,-51.2 -22.3242,-103.13 -24.793,-154.87" /><path
             id="path180"
             style="fill:#c7863d;fill-opacity:1;fill-rule:nonzero;stroke:none"
             d="m 2685.85,5845.4 c -1.72,7.21 -3.26,14.39 -4.63,21.48 4.28,-7.9 9.72,-15.14 16.32,-21.38 -3.87,-0.03 -7.82,-0.06 -11.69,-0.1 m -13.76,93.12 c -0.71,10.95 -1.11,21.49 -1.26,31.51 -0.03,1.37 -0.04,2.73 -0.05,4.08 5.9,0.07 11.84,0.13 17.75,0.19 -7.98,-10.51 -13.46,-22.81 -16.44,-35.78" /><path
             id="path182"
             style="fill:#d79b4f;fill-opacity:1;fill-rule:nonzero;stroke:none"
             d="m 37.7344,5199.81 c -2.8867,31.69 -3.6719,63.67 -2.2774,95.73 2.4688,51.74 10.6368,103.67 24.793,154.87 40.598,16.3 81.297,32.3 122.098,47.89 v 0 c -8.524,-45.18 -14.95,-89.85 -17.899,-133.37 -34.816,-13.39 -69.492,-27.03 -104.1599,-40.98 -11.3555,-41.07 -18.7578,-82.6 -22.5547,-124.14" /><path
             id="path184"
             style="fill:#f8d7ba;fill-opacity:1;fill-rule:nonzero;stroke:none"
             d="m 5476.79,5276.3 c -1.19,58.09 -9.53,116.55 -25.44,174.11 -40.6,16.3 -81.3,32.3 -122.1,47.89 v 0 c 0.47,-2.52 0.94,-5.03 1.4,-7.55 -235.46,90.43 -474.28,168.09 -715.92,233.06 1.24,2.33 2.45,4.68 3.64,7.04 281.78,-75.35 559.73,-168 833.02,-277.95 16.14,-58.37 24.44,-117.69 25.4,-176.6" /><path
             id="path186"
             style="fill:#e1b169;fill-opacity:1;fill-rule:nonzero;stroke:none"
             d="m 5347.14,5364.96 c -245.15,94.29 -493.92,174.79 -745.76,241.47 3.66,30.24 5.08,63.76 3.92,100.87 3.31,5.42 6.45,10.92 9.43,16.51 241.64,-64.97 480.46,-142.63 715.92,-233.06 7.82,-42.59 13.71,-84.71 16.49,-125.79" /><path
             id="path188"
             style="fill:#c7863d;fill-opacity:1;fill-rule:nonzero;stroke:none"
             d="m 4601.38,5606.43 c -22.48,5.96 -45.02,11.81 -67.55,17.54 28.04,23.95 52.4,52.1 71.47,83.33 1.16,-37.11 -0.26,-70.63 -3.92,-100.87" /><path
             id="path190"
             style="fill:#d79b4f;fill-opacity:1;fill-rule:nonzero;stroke:none"
             d="m 5473.94,5199.81 c -3.8,41.54 -11.2,83.07 -22.55,124.14 -34.68,13.95 -69.42,27.62 -104.25,41.01 -2.78,41.08 -8.67,83.2 -16.49,125.79 -0.46,2.52 -0.93,5.03 -1.4,7.55 v 0 c 40.8,-15.59 81.5,-31.59 122.1,-47.89 15.91,-57.56 24.25,-116.02 25.44,-174.11 0.42,-25.61 -0.54,-51.14 -2.85,-76.49" /><path
             id="path192"
             style="fill:#f68c60;fill-opacity:1;fill-rule:nonzero;stroke:none"
             d="m 2205.88,2938.03 c -19.66,0 -38.74,1.77 -57.24,4.99 -5.11,-57.25 -15.67,-118.45 -33.19,-184.11 -6.9,-26 -12.6,-49.91 -17,-71.9 35.9,48.69 65.1,102.7 86.3,160.6 10.69,29.25 19.19,59.51 25.61,90.54 -1.5,-0.02 -2.99,-0.12 -4.48,-0.12" /><path
             id="path194"
             style="fill:#f68c60;fill-opacity:1;fill-rule:nonzero;stroke:none"
             d="m 3515.36,2299.11 c 0.22,-4.79 0.24,-9.63 0.14,-14.49 85.4,-28.22 173.46,-75.14 261.65,-147.61 -69.1,86.65 -160.19,154.92 -264.71,196.82 1.42,-11.58 2.41,-23.18 2.92,-34.72" /><path
             id="path196"
             style="fill:#f68c60;fill-opacity:1;fill-rule:nonzero;stroke:none"
             d="m 4410.75,4279.41 c 0,-50.2 -5.7,-99.1 -16.6,-146 -43.8,682.2 -632.9,783 -632.9,783 l 36.9,6.9 c 341.1,-16.8 612.6,-298.6 612.6,-643.9" /><path
             id="path198"
             style="fill:#bb5f2f;fill-opacity:1;fill-rule:nonzero;stroke:none"
             d="m 4129.55,2965.71 c 0,125.4 101.77,364.15 -9.43,416.15 -3.97,1.86 -7.87,3.36 -11.73,4.68 12.51,-71.41 -24.5,-210.2 -24.5,-210.2 l -0.03,-0.04 c -8.03,-24.79 -19.42,-57.1 -33.11,-100.6 -34.6,-109.9 -17.3,-300.79 138.7,-368.79 l 57.1,112.7 2.6,5.1 c 15.2,-5.1 30.6,-8.5 46,-10.4 -48.9,12.4 -165.6,52.4 -165.6,151.4" /><path
             id="path200"
             style="fill:#d9933b;fill-opacity:1;fill-rule:nonzero;stroke:none"
             d="m 4536.55,3254.41 c -24.2,7.9 -39.1,6.1 -37.9,-11.4 5.5,-81.3 -88.6,-290.8 -163,-290.8 -68.46,0 -114.83,53.27 -86.4,135.14 l -0.18,-0.12 c 101.68,307.62 -140.68,299.31 -140.68,299.31 57.4,-29.85 65.77,-94.93 65.88,-129.65 0.42,-7.77 0.06,-15.47 -1.22,-22.88 -4.1,-24 -20.6,-63.8 -34.1,-110.4 -28,-96.7 -43.1,-222.5 92,-296.2 5.3,-2.9 10.5,-5.5 15.6,-7.8 64,-29.3 114.8,-17.3 154.2,11.5 58.8,42.9 91.7,123 103.9,158.2 3.1,8.9 4.8,14.9 5.3,16.7 l 0.1,0.5 c 3.5,23.5 5.1,49.3 4.5,77.6 -0.9,46.5 7.9,106.5 22,170.3" /><path
             id="path202"
             style="fill:#a21f26;fill-opacity:1;fill-rule:nonzero;stroke:none"
             d="m 3798.92,4942.49 c -11.7,0.54 -22.46,0.81 -32.9,0.81 -363.76,0 -659.71,-295.94 -659.71,-659.7 0,-74.81 12.7,-146.68 35.75,-213.77 8.35,6.12 16.97,11.87 25.82,17.27 -20.38,61.87 -31.57,127.89 -31.57,196.5 0,347.22 282.49,629.7 629.71,629.7 9.96,0 20.26,-0.26 31.46,-0.78 335.51,-16.52 598.33,-292.78 598.33,-628.92 0,-48.37 -5.45,-96.35 -16.21,-142.61 -54.85,-236.79 -236.47,-414.49 -464.06,-469.3 2.53,-9.68 4.79,-19.43 6.84,-29.22 238.56,57.35 428.96,243.56 486.44,491.74 11.28,48.47 16.99,98.74 16.99,149.39 0,352.16 -275.35,641.57 -626.89,658.89" /><path
             id="path204"
             style="fill:#a21f26;fill-opacity:1;fill-rule:nonzero;stroke:none"
             d="m 3901.1,1941.61 c -11.07,34.31 -24.88,67.64 -41.04,99.04 -19.86,38.71 -43.79,75.68 -71.11,109.9 -74.76,93.75 -171.44,163.55 -279.78,205.03 1.97,-11.25 3.48,-22.55 4.55,-33.86 97.25,-40.19 183.93,-104.79 251.78,-189.88 26.09,-32.66 48.92,-67.96 67.87,-104.9 14.33,-27.83 26.72,-57.25 36.88,-87.55 -31.18,-45.68 -225.23,-336.52 -376.95,-716.61 -11.48,-28.63 -23.24,-59.35 -34.97,-91.33 -8.53,-23.35 -34.48,-31.61 -89.59,-28.47 -12.84,0.71 -26.27,1.96 -39.25,3.17 -20.13,1.88 -39.13,3.65 -56.67,3.65 -347.22,0 -629.7,282.53 -629.7,629.8 0,100.42 23.33,197.17 67.96,284.77 h -33.5 c -42.37,-88.16 -64.46,-184.73 -64.46,-284.77 0,-363.81 295.94,-659.8 659.7,-659.8 16.14,0 34.47,-1.71 53.88,-3.52 13.27,-1.23 26.98,-2.51 40.36,-3.25 6.27,-0.36 14.31,-0.81 23.29,-0.81 33.73,0 80.62,6.45 96.15,48.91 11.62,31.69 23.28,62.13 34.66,90.51 163.28,409.05 375.81,713.71 377.94,716.74 l 4.29,6.11 -2.29,7.12" /><path
             id="path206"
             style="fill:#a21f26;fill-opacity:1;fill-rule:nonzero;stroke:none"
             d="m 2205.88,2938.03 c -3.88,0 -7.7,0.16 -11.53,0.29 -6.03,-27.57 -13.88,-54.73 -23.61,-81.36 -20.53,-56.05 -48.89,-108.82 -84.29,-156.85 -118.5,-160.55 -308.13,-256.41 -507.24,-256.41 -33.98,0 -68.34,2.76 -102.08,8.21 -40.18,6.54 -79.7,17.01 -117.57,31.15 -26.47,56.92 -249.04,533.6 -395.474,782.6 86.054,22.57 176.634,113.91 176.634,215.04 0,70.93 18.71,121.04 54.11,144.92 31.4,21.18 76.24,20.95 129.66,-0.62 69.78,-28.29 139.68,-29.93 187,-4.38 31.26,16.87 52.89,45.27 63.05,82.56 34.3,0.29 69.85,-2.37 104.33,-7.83 l 0.48,-0.08 c 1.06,9.99 2.62,19.87 4.69,29.6 -34.64,5.51 -69.9,8.33 -104.83,8.33 -5.52,0 -10.95,-0.09 -16.59,-0.2 h -12.31 l -2.41,-12.08 c -6.86,-34.6 -23.9,-59.46 -50.66,-73.9 -39.55,-21.35 -99.9,-19.18 -161.5,5.79 -63.09,25.5 -117.64,24.69 -157.69,-2.32 -44.05,-29.72 -67.33,-88.43 -67.33,-169.79 0,-94.84 -92.58,-179.75 -172.228,-189.51 l -22.929,-2.81 11.894,-19.8 C 1081.06,3012.84 1332.39,2470.35 1334.91,2464.9 l 2.55,-5.51 5.68,-2.19 c 41.5,-15.96 84.96,-27.71 129.19,-34.91 35.35,-5.7 71.31,-8.59 106.88,-8.59 208.61,0 407.25,100.41 531.38,268.6 37.1,50.33 66.81,105.62 88.32,164.35 11,30.09 19.62,60.84 26.1,92.05 -6.37,-0.41 -12.74,-0.67 -19.13,-0.67" /><path
             id="path208"
             style="fill:#e1dabc;fill-opacity:1;fill-rule:nonzero;stroke:none"
             d="m 2604.06,3087.41 c -99.7,-112.1 -232.1,-180.3 -377.3,-180.3 -305.2,0 -553.5,301.2 -561.3,676.5 -0.1,6 -0.2,12 -0.2,18.1 0,116.3 23.1,226 64,322.3 57.4,135.4 149.9,244.5 262.5,308.7 -48.7,-54.5 -89.6,-119.5 -120.3,-192.1 -40.9,-96.3 -64,-206 -64,-322.3 0,-6.11 0.1,-12.1 0.21,-18.1 7.8,-375.3 256.09,-676.5 561.29,-676.5 83.9,0 163.6,22.8 235.1,63.7" /><path
             id="path210"
             style="fill:#e1dabc;fill-opacity:1;fill-rule:nonzero;stroke:none"
             d="m 3748.94,3090.19 c -90.6,-105.4 -213.3,-170.1 -348.2,-170.1 -257,0 -469.2,234.4 -501.61,538.1 v 0.1 c -2.79,26.4 -4.29,53.4 -4.29,80.8 0,21.9 0.9,43.5 2.7,64.8 5.9,69.1 21.1,134.7 44,195.1 v 0.1 c 13,34.5 28.5,67.2 46.3,97.8 52.2,90 123.5,162.1 206.7,207.6 -23.7,-27.6 -45.41,-58.1 -64.4,-91 -48.9,-84.4 -81,-184.5 -90.3,-293 -1.8,-21.3 -2.7,-42.9 -2.7,-64.8 0,-341.9 226.5,-619 505.9,-619 73.4,0 143,19.1 205.9,53.5" /><path
             id="path212"
             style="fill:#d1496e;fill-opacity:1;fill-rule:nonzero;stroke:none"
             d="m 3229.76,2100.75 c -204.6,114.3 -450.9,-0.9 -450.9,-0.9 -139.2,53.7 -358.5,15.5 -456.4,-6.1 47.7,70 123.2,127.3 242.1,120.5 l 244.9,-39.5 c 0,0 282.7,132.1 420.3,-74" /><path
             id="path214"
             style="fill:#d1ac39;fill-opacity:1;fill-rule:nonzero;stroke:none"
             d="m 1658.82,3728.39 c -3.55,0.43 -7.1,0.83 -10.65,1.2 -31.02,116.06 -176.45,719.82 67.61,1018.8 52.59,12.79 101.44,28.56 144.27,47.42 73.8,32.51 153.43,77.21 223.45,119.89 11.84,0.54 23.91,0.81 36.28,0.81 4.89,0 9.9,-0.04 14.88,-0.13 606.2,-10.53 664.4,-1106.83 664.4,-1106.83 0,0 -30.75,105.47 -105.93,220.46 -101.95,174.77 -268.02,288.54 -455.57,288.54 v 0 c -7.27,0.39 -14.42,0.57 -21.54,0.57 -86.55,0 -161.86,-28.01 -226.74,-72 -99.64,-60.89 -182.58,-157.3 -238.03,-275.87 -7.81,-15.35 -15.15,-31.11 -21.99,-47.24 -10.13,-23.86 -19.17,-48.54 -27.03,-73.93 -22.16,-54.03 -36.39,-98.21 -43.41,-121.69" /><path
             id="path216"
             style="fill:#dee3df;fill-opacity:1;fill-rule:nonzero;stroke:none"
             d="m 1751.25,3971.25 c 55.45,118.57 138.39,214.98 238.03,275.87 -43.38,-29.42 -82.1,-65.98 -116.43,-106.11 -47.63,-47.88 -88.78,-105.24 -121.6,-169.76 m 941.88,58.76 c -86.33,132.06 -231.27,276.67 -455.57,288.54 v 0 c 187.55,0 353.62,-113.77 455.57,-288.54" /><path
             id="path218"
             style="fill:#dadd9e;fill-opacity:1;fill-rule:nonzero;stroke:none"
             d="m 1715.78,4748.39 c 77.69,95.17 194.86,159.47 367.72,167.31 -70.02,-42.68 -149.65,-87.38 -223.45,-119.89 -42.83,-18.86 -91.68,-34.63 -144.27,-47.42" /><path
             id="path220"
             style="fill:#7d161a;fill-opacity:1;fill-rule:nonzero;stroke:none"
             d="m 1653.58,3710.04 c 0,0 -2.02,6.87 -5.41,19.55 3.55,-0.37 7.1,-0.77 10.65,-1.2 -3.52,-11.78 -5.24,-18.35 -5.24,-18.35" /><path
             id="path222"
             style="fill:#bbb89a;fill-opacity:1;fill-rule:nonzero;stroke:none"
             d="m 1702.23,3850.08 c 7.86,25.39 16.9,50.07 27.03,73.93 6.84,16.13 14.18,31.89 21.99,47.24 32.82,64.52 73.97,121.88 121.6,169.76 -79.32,-92.73 -135.16,-204.46 -170.62,-290.93" /><path
             id="path224"
             style="fill:#d1ac39;fill-opacity:1;fill-rule:nonzero;stroke:none"
             d="m 3915.68,3617.07 c 0,0 -2.67,12.81 -8.74,34.36 4.27,1.05 8.52,2.14 12.76,3.27 0.82,-3.56 1.6,-7.13 2.36,-10.7 -3.93,-17.42 -6.38,-26.93 -6.38,-26.93" /><path
             id="path226"
             style="fill:#c22c2c;fill-opacity:1;fill-rule:nonzero;stroke:none"
             d="m 3906.94,3651.43 c -5.34,18.95 -13.32,44.67 -24.44,74.39 -12.32,50.53 -29.79,98.34 -51.67,142.53 -66.02,133.53 -172.11,234.01 -297.86,276.56 -4.57,10.84 -14.63,18.72 -27.39,18.72 -6.34,0 -12.64,-2.3 -17.81,-6.14 -29.19,6.41 -59.25,9.76 -89.94,9.76 -44.88,0 -88.41,-7.15 -129.85,-20.58 -18.43,56.11 -28.43,116.04 -28.43,178.31 0,251.19 162.18,464.53 387.53,541.02 35.52,-15.54 67.62,-34.3 96.65,-55.8 -5.58,-5.46 -9.12,-12.93 -8.76,-20.99 0.73,-16.25 13.19,-29.99 30.01,-29.99 h 13.56 c 6.33,0 12.55,2.24 17.67,5.98 126.55,-125.03 179.31,-311.54 195.32,-498.11 -1.7,0.25 -3.37,0.38 -4.99,0.38 -13.51,0 -23.97,-8.61 -29.14,-21.86 -4.29,-10.98 -8.57,-21.97 -12.86,-32.95 -6.9,-17.68 10.31,-38 28.01,-38 0.31,0 0.61,0.01 0.92,0.02 7.71,0.31 15.42,0.62 23.13,0.92 1.78,-66.45 -0.42,-131.54 -4.86,-192.54 -0.25,-0.12 -0.5,-0.24 -0.76,-0.36 -16.16,-7.65 -23.43,-26.71 -21.6,-44.09 -4.37,-12.82 -3.54,-27.81 2.95,-38.91 2.95,-5.04 6.47,-9.1 10.41,-12.28 -4.93,-42.92 -10.65,-82.42 -16.36,-117.23 -19.86,-4.84 -40.13,-8.64 -60.75,-11.35 13.81,-32.42 24.96,-65.88 33.1,-99.97 0.33,-1.39 0.65,-2.78 0.97,-4.17 -4.24,-1.13 -8.49,-2.22 -12.76,-3.27 m -169.88,576.31 c -11.32,0 -21.9,-3.94 -30.11,-11.02 -11.02,-2.82 -20.95,-9.82 -27.88,-20.49 -11.1,-17.1 -19.17,-36.74 -22.83,-56.81 -3.49,-19.11 2.12,-41.01 20.68,-50.82 7.31,-3.86 14.79,-5.69 22.14,-5.69 11.51,0 22.7,4.5 32.39,12.73 23.21,19.72 39.31,46.54 48.24,75.47 6.94,22.49 -8.23,50.07 -31.43,55.35 -3.77,0.86 -7.53,1.28 -11.2,1.28 m -340.6,215.15 c -2.73,0 -5.48,-0.11 -8.25,-0.32 -21.65,-1.65 -35.81,-13.15 -43.39,-33.03 -4.17,-10.94 -8.34,-21.87 -12.51,-32.8 -8.4,-22.04 9.29,-50.31 31.43,-55.36 3.92,-0.89 7.72,-1.32 11.37,-1.32 9.31,0 17.68,2.77 24.79,7.62 3.55,-0.84 7.11,-1.47 10.59,-1.62 0.75,-0.04 1.51,-0.05 2.27,-0.05 23.44,-0.01 44.94,16.19 51.57,38.72 6.3,21.38 -0.99,45.66 -17.63,60.43 -14.32,12.71 -31.8,17.73 -50.24,17.73 m 259.56,-90.76 c 6.53,-5.12 12.55,-8.79 21.21,-8.79 7.36,0 16.15,3.27 21.21,8.79 9.91,10.79 13.19,32.08 0,42.43 -15.06,11.81 -31.17,18.04 -49.04,18.04 -5.28,0 -10.72,-0.55 -16.33,-1.65 -15.43,-3.04 -25.69,-22.28 -20.95,-36.9 4.51,-13.96 16.08,-21.68 29.6,-21.68 2.39,0 4.83,0.23 7.3,0.72 l 0.27,0.07 0.74,-0.14 1.99,-0.1 0.13,-0.04 c 0.61,-0.25 3.32,-1.42 4.46,-1.77 0.94,-0.64 1.92,-1.27 2.07,-1.27 0.14,0 -0.49,0.58 -2.66,2.29 m -190.25,290.78 c -0.37,0 -0.74,-0.01 -1.12,-0.03 -16.12,-0.72 -30.16,-13.18 -30,-30 0.15,-14.6 0.29,-29.2 0.43,-43.81 0.18,-18.16 14.53,-29.41 30.24,-29.41 4.97,0 10.07,1.12 14.91,3.51 22.16,10.92 36.74,29.96 45.87,52.38 5.94,14.58 -6.43,33.6 -20.95,36.91 -2.7,0.61 -5.31,0.91 -7.79,0.91 -3.49,0 -6.76,-0.58 -9.78,-1.66 -5.3,6.62 -13.07,11.2 -21.81,11.2 m 236.25,23.63 c -11.28,0 -22.53,-2.82 -32.16,-8.88 -9.78,-6.16 -17.57,-15.62 -20.68,-26.9 -2.96,-10.77 -1.62,-25.11 4.54,-34.67 8.71,-13.51 24.1,-22.06 39.74,-22.14 4.75,-3.28 9.97,-5.8 14.44,-7.03 3.63,-1 7.68,-1.51 11.81,-1.51 8.1,0 16.53,1.97 22.86,6.05 9.61,6.2 18.07,15.42 20.68,26.89 l 1.61,11.97 c -0.03,8.12 -2.07,15.69 -6.14,22.71 -6.46,15.01 -23.17,26.9 -38.62,31.09 -5.87,1.59 -11.98,2.42 -18.08,2.42" /><path
             id="path228"
             style="fill:#c4634b;fill-opacity:1;fill-rule:nonzero;stroke:none"
             d="m 3375.11,4320.06 c -3.65,0 -7.45,0.43 -11.37,1.32 -22.14,5.05 -39.83,33.32 -31.43,55.36 4.17,10.93 8.34,21.86 12.51,32.8 7.58,19.88 21.74,31.38 43.39,33.03 2.77,0.21 5.52,0.32 8.25,0.32 18.44,0 35.92,-5.02 50.24,-17.73 16.64,-14.77 23.93,-39.05 17.63,-60.43 -6.63,-22.53 -28.13,-38.73 -51.57,-38.72 -0.76,0 -1.52,0.01 -2.27,0.05 -3.48,0.15 -7.04,0.78 -10.59,1.62 -7.11,-4.85 -15.48,-7.62 -24.79,-7.62" /><path
             id="path230"
             style="fill:#c4634b;fill-opacity:1;fill-rule:nonzero;stroke:none"
             d="m 3699.06,4082.91 c -7.35,0 -14.83,1.83 -22.14,5.69 -18.56,9.81 -24.17,31.71 -20.68,50.82 3.66,20.07 11.73,39.71 22.83,56.81 6.93,10.67 16.86,17.67 27.88,20.49 8.21,7.08 18.79,11.02 30.11,11.02 3.67,0 7.43,-0.42 11.2,-1.28 23.2,-5.28 38.37,-32.86 31.43,-55.35 -8.93,-28.93 -25.03,-55.75 -48.24,-75.47 -9.69,-8.23 -20.88,-12.73 -32.39,-12.73" /><path
             id="path232"
             style="fill:#c4634b;fill-opacity:1;fill-rule:nonzero;stroke:none"
             d="m 3719.71,4565.41 c -4.13,0 -8.18,0.51 -11.81,1.51 -4.47,1.23 -9.69,3.75 -14.44,7.03 -15.64,0.08 -31.03,8.63 -39.74,22.14 -6.16,9.56 -7.5,23.9 -4.54,34.67 3.11,11.28 10.9,20.74 20.68,26.9 9.63,6.06 20.88,8.88 32.16,8.88 6.1,0 12.21,-0.83 18.08,-2.42 15.45,-4.19 32.16,-16.08 38.62,-31.09 4.07,-7.02 6.11,-14.59 6.14,-22.71 l -1.61,-11.97 c -2.61,-11.47 -11.07,-20.69 -20.68,-26.89 -6.33,-4.08 -14.76,-6.05 -22.86,-6.05" /><path
             id="path234"
             style="fill:#c4634b;fill-opacity:1;fill-rule:nonzero;stroke:none"
             d="m 3962.74,3887.42 c -3.94,3.18 -7.46,7.24 -10.41,12.28 -6.49,11.1 -7.32,26.09 -2.95,38.91 -1.83,17.38 5.44,36.44 21.6,44.09 0.26,0.12 0.51,0.24 0.76,0.36 -2.42,-33.25 -5.52,-65.32 -9,-95.64" /><path
             id="path236"
             style="fill:#7d161a;fill-opacity:1;fill-rule:nonzero;stroke:none"
             d="m 3532.97,4144.91 c -14.8,5.01 -29.89,9.22 -45.2,12.58 5.17,3.84 11.47,6.14 17.81,6.14 12.76,0 22.82,-7.88 27.39,-18.72" /><path
             id="path238"
             style="fill:#7d161a;fill-opacity:1;fill-rule:nonzero;stroke:none"
             d="m 3677.23,4343.34 c -8.66,0 -14.68,3.67 -21.21,8.79 2.17,-1.71 2.8,-2.29 2.66,-2.29 -0.15,0 -1.13,0.63 -2.07,1.27 -1.14,0.35 -3.85,1.52 -4.46,1.77 l -0.13,0.04 -1.99,0.1 -0.74,0.14 -0.27,-0.07 c -2.47,-0.49 -4.91,-0.72 -7.3,-0.72 -13.52,0 -25.09,7.72 -29.6,21.68 -4.74,14.62 5.52,33.86 20.95,36.9 5.61,1.1 11.05,1.65 16.33,1.65 17.87,0 33.98,-6.23 49.04,-18.04 13.19,-10.35 9.91,-31.64 0,-42.43 -5.06,-5.52 -13.85,-8.79 -21.21,-8.79" /><path
             id="path240"
             style="fill:#7d161a;fill-opacity:1;fill-rule:nonzero;stroke:none"
             d="m 3465.32,4539.66 c -15.71,0 -30.06,11.25 -30.24,29.41 -0.14,14.61 -0.28,29.21 -0.43,43.81 -0.16,16.82 13.88,29.28 30,30 0.38,0.02 0.75,0.03 1.12,0.03 8.74,0 16.51,-4.58 21.81,-11.2 3.02,1.08 6.29,1.66 9.78,1.66 2.48,0 5.09,-0.3 7.79,-0.91 14.52,-3.31 26.89,-22.33 20.95,-36.91 -9.13,-22.42 -23.71,-41.46 -45.87,-52.38 -4.84,-2.39 -9.94,-3.51 -14.91,-3.51" /><path
             id="path242"
             style="fill:#7d161a;fill-opacity:1;fill-rule:nonzero;stroke:none"
             d="m 3758.54,4759.22 h -13.56 c -16.82,0 -29.28,13.74 -30.01,29.99 -0.36,8.06 3.18,15.53 8.76,20.99 18.76,-13.9 36.23,-28.94 52.48,-45 -5.12,-3.74 -11.34,-5.98 -17.67,-5.98" /><path
             id="path244"
             style="fill:#7d161a;fill-opacity:1;fill-rule:nonzero;stroke:none"
             d="m 3952.55,4174.66 c -17.7,0 -34.91,20.32 -28.01,38 4.29,10.98 8.57,21.97 12.86,32.95 5.17,13.25 15.63,21.86 29.14,21.86 1.62,0 3.29,-0.13 4.99,-0.38 2.63,-30.58 4.26,-61.18 5.07,-91.49 -7.71,-0.3 -15.42,-0.61 -23.13,-0.92 -0.31,-0.01 -0.61,-0.02 -0.92,-0.02" /><path
             id="path246"
             style="fill:#dee3df;fill-opacity:1;fill-rule:nonzero;stroke:none"
             d="m 3882.5,3725.82 c -55.96,149.57 -191.56,400.51 -471.39,400.51 -8.35,0 -16.8,-0.22 -25.4,-0.68 -89.15,-4.71 -164.29,-30.37 -227.39,-67.88 10.26,14.68 21.07,28.76 32.35,42.17 26.26,13.55 54.16,23.91 82.89,30.58 -1.94,5.34 -3.8,10.73 -5.58,16.15 41.44,13.43 84.97,20.58 129.85,20.58 30.69,0 60.75,-3.35 89.94,-9.76 15.31,-3.36 30.4,-7.57 45.2,-12.58 125.75,-42.55 231.84,-143.03 297.86,-276.56 21.88,-44.19 39.35,-92 51.67,-142.53" /><path
             id="path248"
             style="fill:#971c1f;fill-opacity:1;fill-rule:nonzero;stroke:none"
             d="m 3918.73,3658.87 c -8.14,34.09 -19.29,67.55 -33.1,99.97 20.62,2.71 40.89,6.51 60.75,11.35 -6.21,-37.86 -12.43,-70.14 -17.62,-95.16 -4.39,-1.16 -8.79,-2.27 -13.22,-3.34 1.11,-4.26 2.18,-8.54 3.19,-12.82 m -751.3,429.59 c -20.1,61.48 -31.12,127.03 -31.12,195.14 0,281.77 186.03,520.92 441.73,601.05 17.01,-5.55 33.38,-11.8 49.04,-18.65 -225.35,-76.49 -387.53,-289.83 -387.53,-541.02 0,-62.27 10,-122.2 28.43,-178.31 1.78,-5.42 3.64,-10.81 5.58,-16.15 -28.73,-6.67 -56.63,-17.03 -82.89,-30.58 1.28,1.53 2.57,3.04 3.87,4.55 -9.19,-5.02 -18.22,-10.37 -27.11,-16.03" /><path
             id="path250"
             style="fill:#d1ac39;fill-opacity:1;fill-rule:nonzero;stroke:none"
             d="m 2856.28,3617.07 c 0,0 -132.12,1281.5 473.9,1299.31 9.4,0.28 18.75,0.42 27.89,0.42 62.29,0 118.55,-6.33 169.42,-18.11 -237.29,-92.34 -408.42,-318.25 -420.49,-584.87 -10.64,-46.74 -16.25,-95.39 -16.25,-145.31 0,-40.47 3.69,-80.07 10.75,-118.5 -44.99,-39.84 -84.42,-88.52 -116.57,-143.96 -9.8,-16.92 -18.93,-34.47 -27.34,-52.59 -75.25,-120.97 -101.31,-236.39 -101.31,-236.39 m 168.12,660.57 c -5.85,0 -13.73,-6.51 -24.37,-23 0,0 -24.38,-57.35 0,-89.15 7.54,-9.83 14.32,-13.82 20.09,-13.82 12.92,0 20.79,19.96 20.79,39.28 0,21.25 1.99,86.69 -16.51,86.69 m 198.25,553.5 c -26.24,0 -80.51,-18.65 -98.03,-40.07 0,0 -136.48,-143.7 -134.85,-323.1 0.94,-103.41 11.54,-135.8 21.35,-135.8 7.21,0 13.99,17.49 16.19,37.12 5.2,46.35 100.77,365.73 183.8,426.56 34.85,25.52 30.52,35.29 11.54,35.29" /><path
             id="path252"
             style="fill:#dee3df;fill-opacity:1;fill-rule:nonzero;stroke:none"
             d="m 2957.59,3853.46 c 8.41,18.12 17.54,35.67 27.34,52.59 32.15,55.44 71.58,104.12 116.57,143.96 0.61,-3.36 1.26,-6.7 1.92,-10.04 -42.48,-37.81 -79.98,-83.51 -111.05,-135.38 -12.61,-16.95 -24.18,-34.1 -34.78,-51.13" /><path
             id="path254"
             style="fill:#dadd9e;fill-opacity:1;fill-rule:nonzero;stroke:none"
             d="m 3011.12,4332.17 c -9.81,0 -20.41,32.39 -21.35,135.8 -1.63,179.4 134.85,323.1 134.85,323.1 17.52,21.42 71.79,40.07 98.03,40.07 18.98,0 23.31,-9.77 -11.54,-35.29 -83.03,-60.83 -178.6,-380.21 -183.8,-426.56 -2.2,-19.63 -8.98,-37.12 -16.19,-37.12" /><path
             id="path256"
             style="fill:#dadd9e;fill-opacity:1;fill-rule:nonzero;stroke:none"
             d="m 3020.12,4151.67 c -5.77,0 -12.55,3.99 -20.09,13.82 -24.38,31.8 0,89.15 0,89.15 10.64,16.49 18.52,23 24.37,23 18.5,0 16.51,-65.44 16.51,-86.69 0,-19.32 -7.87,-39.28 -20.79,-39.28" /><path
             id="path258"
             style="fill:#b47420;fill-opacity:1;fill-rule:nonzero;stroke:none"
             d="m 3103.42,4039.97 c -0.66,3.34 -1.31,6.68 -1.92,10.04 -7.06,38.43 -10.75,78.03 -10.75,118.5 0,49.92 5.61,98.57 16.25,145.31 -0.46,-10.02 -0.69,-20.1 -0.69,-30.22 0,-74.42 12.57,-145.93 35.39,-212.71 -13.16,-9.62 -25.92,-19.93 -38.28,-30.92" /><path
             id="path260"
             style="fill:#7d161a;fill-opacity:1;fill-rule:nonzero;stroke:none"
             d="m 3922.06,3644 c -0.76,3.57 -1.54,7.14 -2.36,10.7 -0.32,1.39 -0.64,2.78 -0.97,4.17 -1.01,4.28 -2.08,8.56 -3.19,12.82 4.43,1.07 8.83,2.18 13.22,3.34 -2.51,-12.11 -4.78,-22.52 -6.7,-31.03 m -780.36,426.89 c -22.82,66.78 -35.39,138.29 -35.39,212.71 0,10.12 0.23,20.2 0.69,30.22 12.07,266.62 183.2,492.53 420.49,584.87 17.48,-4.04 34.34,-8.74 50.55,-14.04 -255.7,-80.13 -441.73,-319.28 -441.73,-601.05 0,-68.11 11.02,-133.66 31.12,-195.14 -8.72,-5.56 -17.31,-11.42 -25.73,-17.57" /><path
             id="path262"
             style="fill:#bbb89a;fill-opacity:1;fill-rule:nonzero;stroke:none"
             d="m 2992.37,3904.59 c 31.07,51.87 68.57,97.57 111.05,135.38 12.36,10.99 25.12,21.3 38.28,30.92 8.42,6.15 17.01,12.01 25.73,17.57 8.89,5.66 17.92,11.01 27.11,16.03 -1.3,-1.51 -2.59,-3.02 -3.87,-4.55 -11.28,-13.41 -22.09,-27.49 -32.35,-42.17 -68.83,-40.91 -123.34,-95.94 -165.95,-153.18" /><path
             id="path264"
             style="fill:#c22c2c;fill-opacity:1;fill-rule:nonzero;stroke:none"
             d="M 3268.44,1787.21 H 2997.7 c 1.42,1.45 2.8,2.93 4.15,4.44 25.58,28.46 8.6,76.65 -31.82,76.82 -10.8,0.04 -21.6,0.09 -32.4,0.13 -3,16.48 -14.09,30.8 -31.64,35.63 -3.62,0.99 -7.38,1.47 -11.16,1.47 -19.66,0 -39.89,-12.89 -44.2,-32.9 -5.14,-23.88 -12.07,-57.85 -6.92,-85.59 h -129.87 c -0.68,39.89 1.06,78.7 4.17,114.87 36.59,4.14 74.71,6.55 113.92,6.55 139.09,0 291.64,-30.34 436.51,-121.42" /><path
             id="path266"
             style="fill:#c4634b;fill-opacity:1;fill-rule:nonzero;stroke:none"
             d="m 2997.7,1787.21 h -153.99 c -5.15,27.74 1.78,61.71 6.92,85.59 4.31,20.01 24.54,32.9 44.2,32.9 3.78,0 7.54,-0.48 11.16,-1.47 17.55,-4.83 28.64,-19.15 31.64,-35.63 10.8,-0.04 21.6,-0.09 32.4,-0.13 40.42,-0.17 57.4,-48.36 31.82,-76.82 -1.35,-1.51 -2.73,-2.99 -4.15,-4.44" /><path
             id="path268"
             style="fill:#971c1f;fill-opacity:1;fill-rule:nonzero;stroke:none"
             d="m 2713.84,1787.21 h -68.96 c 2.71,36.39 8.51,72.18 17.33,107.08 18.12,3 36.77,5.63 55.8,7.79 -3.11,-36.17 -4.85,-74.98 -4.17,-114.87" /><path
             id="path270"
             style="fill:#d1ac39;fill-opacity:1;fill-rule:nonzero;stroke:none"
             d="m 2549.05,1787.21 h -219.36 c 0,0 95.04,51.47 238.08,87.39 -8.04,-28.44 -14.33,-57.6 -18.72,-87.39" /><path
             id="path272"
             style="fill:#b47420;fill-opacity:1;fill-rule:nonzero;stroke:none"
             d="m 2614.8,1787.21 h -65.75 c 4.39,29.79 10.68,58.95 18.72,87.39 19.83,4.99 40.6,9.67 62.16,13.87 -7.63,-33.1 -12.7,-66.93 -15.13,-101.26" /><path
             id="path274"
             style="fill:#7d161a;fill-opacity:1;fill-rule:nonzero;stroke:none"
             d="m 2644.88,1787.21 h -30.08 c 2.43,34.33 7.5,68.16 15.13,101.26 10.58,2.06 21.32,4.01 32.28,5.82 -8.82,-34.9 -14.62,-70.69 -17.33,-107.08" /><path
             id="path276"
             style="fill:#fdfbc2;fill-opacity:1;fill-rule:nonzero;stroke:none"
             d="m 3465.4,2783.75 c 0,0 169,174.23 426.11,142.16 L 3465.4,2783.75" /><path
             id="path278"
             style="fill:#100f0d;fill-opacity:1;fill-rule:nonzero;stroke:none"
             d="m 1729.3,3532.05 c -1.9,20.2 -3.1,40.7 -3.4,61.4 -0.2,4.79 -0.2,9.69 -0.2,14.49 0,359.21 237.6,651.5 529.7,651.5 292.1,0 529.7,-292.29 529.7,-651.5 0,-343.7 -217.5,-626.1 -492.2,-649.9 -12.4,-1.1 -24.9,-1.59 -37.5,-1.59 -7.5,0 -15,0.2 -22.5,0.6 -261,13.49 -473.8,260.39 -503.6,575 z m 512,-633.91 c 17.4,0 34.7,0.91 51.7,2.71 307,31.49 548,341.4 548,718.8 0,398.49 -268.5,721.49 -599.7,721.49 -331.2,0 -599.7,-323 -599.7,-721.49 0,-6.01 0.1,-12 0.3,-18 0.3,-20.31 1.4,-40.41 3.2,-60.31 17.8,-197.6 101.8,-370.99 224.9,-487.99 -44.9,5.7 -87.1,5.49 -122.9,2.09 -37.4,-3.7 -67.9,-10.69 -88.8,-17.09 -10.4,-2.91 -18.5,-6.1 -23.9,-8.2 -5.4,-2.11 -8.2,-3.5 -8.2,-3.5 0,0 3,-0.1 8.8,-0.41 5.8,-0.39 14.2,-0.89 24.9,-1.59 21.2,-1.71 51.2,-4.61 86.4,-9.61 17.6,-2.6 36.6,-5.49 56.3,-9.5 19.8,-3.6 40.5,-8.39 61.6,-13.7 21,-5.39 42.5,-11.59 64.1,-18.7 10.8,-3.3 21.3,-7.79 32.2,-11.3 10.6,-4.3 21.4,-8.1 31.9,-12.79 10.5,-4.61 21.2,-8.8 31.4,-14.01 5.1,-2.5 10.2,-4.89 15.4,-7.29 5.1,-2.6 10.1,-5.21 15.1,-7.81 10.1,-5.1 19.9,-10.6 29.5,-16.1 9.9,-5.2 19,-11.19 28.3,-16.9 9.4,-5.39 18.1,-11.59 26.9,-17.29 4.3,-2.91 8.7,-5.81 12.9,-8.61 4.2,-3.1 8.3,-6.1 12.3,-8.99 16.6,-11.41 31.3,-23.6 45.5,-34.3 4.2,-3.51 8.3,-6.9 12.2,-10.1 2.5,-2.21 5,-4.3 7.5,-6.31 3.2,-2.6 6.3,-5.1 9.3,-7.6 2.9,-2.5 5.7,-5 8.4,-7.5 9.6,-8.7 19,-15.99 26.3,-22.79 l 2.5,-2.41 c 7.6,-7.4 14.2,-12.8 18.5,-16.7 3.9,-3.3 6.2,-5.29 6.7,-5.7 -0.2,0.6 -1.4,3.41 -3.4,8.01 -2.5,5.29 -5.8,13.19 -10.8,22.9 -2.3,4.89 -5.2,10.2 -8.4,15.89 -3.2,5.7 -6.9,11.81 -10.8,18.3 -7.5,13.31 -18,26.8 -28.9,42.21 -3,3.7 -6.1,7.5 -9.2,11.3 -9.3,11.29 -19.3,23.19 -30.9,34.59 -2.9,3 -5.9,6.1 -8.9,9.2 14.3,-1.49 28.6,-2.5 43.1,-2.8 2.8,-0.1 5.6,-0.1 8.4,-0.1" /><path
             id="path280"
             style="fill:#100f0d;fill-opacity:1;fill-rule:nonzero;stroke:none"
             d="m 3656.5,3040.04 c -2.5,-0.7 -4.9,-1.3 -7.4,-1.9 -12.1,-3.2 -24.1,-7.1 -36.2,-10.99 -11.8,-4.5 -23.9,-8.61 -35.6,-13.61 -11.7,-5.19 -23.4,-10.09 -34.7,-16.1 -11.4,-5.5 -22.5,-11.59 -33.2,-18.2 -5.4,-3.2 -10.8,-6.2 -16.1,-9.59 -3.2,-2.21 -6.4,-4.4 -9.7,-6.61 -23.2,-4.3 -47,-6.59 -71.2,-6.59 -261.7,0 -474.6,262.5 -474.6,585.2 0,198.39 80.5,373.99 203.3,479.8 17.3,15.1 35.5,28.7 54.5,40.7 65,41.39 138.7,64.69 216.8,64.69 261.7,0 474.6,-262.5 474.6,-585.19 0,-4.5 0,-9 -0.2,-13.51 -0.3,-20.49 -1.5,-40.8 -3.6,-60.8 -13.7,-133.1 -63.9,-252.3 -137.7,-341.99 -14.9,-18.2 -30.8,-35.2 -47.6,-50.8 -13.3,-12.4 -27.1,-23.91 -41.4,-34.51 z m 305.9,-9.89 c -5.5,2.1 -13.5,5.29 -24,8.2 -3.7,1.09 -7.7,2.29 -12,3.39 -19.9,5.41 -46,10.7 -76.8,13.7 -28.8,2.7 -61.8,3.4 -96.9,0.6 14.4,14.91 28.2,30.61 41.2,47.2 78.5,99.8 131.2,229.2 145.2,372.8 2.1,20.51 3.3,41.21 3.6,62.2 0.2,5 0.2,10.11 0.2,15.11 0,361.9 -243.8,655.19 -544.6,655.19 -73.3,0 -143.1,-17.4 -206.9,-48.99 -20.8,-10.21 -40.9,-21.9 -60.2,-35.21 -165.7,-112.19 -277.5,-325.89 -277.5,-570.99 0,-361.8 243.8,-655.21 544.6,-655.21 2.1,0 4.1,0.21 6.1,0.21 -2.1,-2.11 -4.3,-4.3 -6.4,-6.51 -15.4,-15.29 -28.1,-31.4 -40,-45.89 -10.9,-15.41 -21.4,-28.9 -29,-42.21 -7.7,-13.1 -14.6,-24.3 -19.2,-34.19 -4.9,-9.71 -8.2,-17.61 -10.7,-22.9 -2,-4.6 -3.2,-7.41 -3.4,-8.01 0.5,0.41 2.8,2.4 6.7,5.7 4.3,3.9 10.8,9.3 18.5,16.7 7.5,7.5 18,15.41 28.8,25.2 2.7,2.5 5.5,5 8.4,7.5 3,2.5 6.1,5 9.3,7.6 6.2,5.21 12.8,10.6 19.7,16.41 14.2,10.7 28.9,22.89 45.4,34.3 4.1,2.89 8.2,5.89 12.3,8.99 4.3,2.8 8.6,5.7 13,8.61 8.8,5.7 17.4,11.9 26.9,17.29 9.2,5.71 18.4,11.7 28.2,16.9 9.7,5.5 19.4,11 29.5,16.1 3.1,1.61 6.2,3.2 9.2,4.71 24.8,8.8 48.8,19.59 72,32.19 4.2,1.7 8.5,3.31 12.7,5 10.9,3.51 21.4,8 32.2,11.3 21.5,7.11 43,13.31 64.1,18.7 21.1,5.31 41.7,10.1 61.5,13.7 19.8,4.01 38.7,6.9 56.3,9.5 35.3,5 65.3,7.9 86.5,9.61 10.7,0.7 19.1,1.2 24.8,1.59 5.8,0.31 8.9,0.41 8.9,0.41 0,0 -2.8,1.39 -8.2,3.5" /><path
             id="path282"
             style="fill:#100f0d;fill-opacity:1;fill-rule:nonzero;stroke:none"
             d="m 2321.28,3915.97 c -36.39,0 -65.88,29.49 -65.88,65.88 0,36.38 29.49,65.88 65.88,65.88 36.38,0 65.88,-29.5 65.88,-65.88 0,-36.39 -29.5,-65.88 -65.88,-65.88 z m -65.88,189.27 c -104.54,0 -189.28,-84.74 -189.28,-189.27 0,-104.54 84.74,-189.28 189.28,-189.28 104.53,0 189.27,84.74 189.27,189.28 0,104.53 -84.74,189.27 -189.27,189.27" /><path
             id="path284"
             style="fill:#100f0d;fill-opacity:1;fill-rule:nonzero;stroke:none"
             d="m 3478.28,3872.76 c -36.39,0 -65.88,29.5 -65.88,65.88 0,36.38 29.49,65.88 65.88,65.88 36.38,0 65.88,-29.5 65.88,-65.88 0,-36.38 -29.5,-65.88 -65.88,-65.88 z m -65.88,189.28 c -104.54,0 -189.28,-84.75 -189.28,-189.28 0,-104.53 84.74,-189.27 189.28,-189.27 104.53,0 189.27,84.74 189.27,189.27 0,104.53 -84.74,189.28 -189.27,189.28" /><path
             id="path286"
             style="fill:#100f0d;fill-opacity:1;fill-rule:nonzero;stroke:none"
             d="m 1638.06,4658.15 c 0,0 424.17,312.14 922.93,0 0,0 -136.21,347.14 -461.46,347.14 -367.73,0 -461.47,-347.14 -461.47,-347.14" /><path
             id="path288"
             style="fill:#100f0d;fill-opacity:1;fill-rule:nonzero;stroke:none"
             d="m 3874.4,4658.15 c 0,0 -424.16,312.14 -922.93,0 0,0 136.22,347.14 461.47,347.14 367.72,0 461.46,-347.14 461.46,-347.14" /><path
             id="path290"
             style="fill:#100f0d;fill-opacity:1;fill-rule:nonzero;stroke:none"
             d="m 2443.4,1847.92 c 0,0 10.92,5.55 30.91,13.07 10.02,3.55 22.2,8.21 36.44,12.21 14.18,4.5 30.32,8.77 48.06,13.18 17.78,3.88 37.1,8.4 57.71,11.66 10.31,1.64 20.91,3.33 31.74,5.06 10.86,1.55 21.99,2.64 33.3,3.98 22.63,2.86 46.11,4.11 69.98,5.54 23.87,1.35 48.14,1.16 72.42,1.56 24.24,-0.8 48.51,-1.34 72.33,-2.85 23.81,-1.81 47.19,-4.11 69.77,-6.53 22.53,-3.1 44.23,-6.5 64.76,-9.89 20.53,-3.38 39.72,-8.11 57.45,-12.01 17.7,-4.12 33.87,-7.98 48.02,-12.45 14.21,-4.04 26.47,-8.17 36.57,-11.44 10.12,-3.17 17.95,-6.2 23.33,-8.03 5.34,-1.99 8.19,-3.06 8.19,-3.06 0,0 -3.05,-0.12 -8.78,-0.34 -5.7,-0.06 -14.11,-0.49 -24.67,-0.35 -10.58,0.04 -23.42,-0.07 -38.01,0.51 -14.58,0.63 -31.14,0.21 -49.04,0.66 -17.93,0.2 -37.21,1.37 -57.65,1.57 -20.44,0.31 -41.93,0.83 -64.09,1.76 -22.21,0.24 -45.11,0.54 -68.34,1.45 -23.25,0.13 -46.84,0.56 -70.43,1.02 -23.59,0.11 -47.18,0.22 -70.4,0.32 -23.2,-0.41 -46.11,0.17 -68.22,-0.39 -11.09,-0.09 -21.99,-0.17 -32.66,-0.25 -10.67,-0.21 -21.11,-0.43 -31.28,-0.63 -20.39,-0.08 -39.59,-1.02 -57.48,-1.18 -17.88,-0.51 -34.27,-0.98 -48.8,-1.39 -14.62,-0.51 -27.36,-0.96 -37.86,-1.32 -21.17,-0.92 -33.27,-1.44 -33.27,-1.44" /><path
             id="path292"
             style="fill:#100f0d;fill-opacity:1;fill-rule:nonzero;stroke:none"
             d="m 2294.67,1977.01 -65.39,25 c 1.4,3.68 35.29,90.97 121.14,162.5 78.01,65 214.53,128.71 424.27,67.65 46.87,17.18 218.1,70.99 364.53,1.55 88.9,-42.16 150.99,-120.96 184.57,-234.2 l -67.11,-19.9 c -27.64,93.23 -77.15,157.39 -147.15,190.71 -139.28,66.26 -318.15,-6.7 -319.93,-7.43 l -11.7,-4.86 -12.14,3.72 c -352.72,109.17 -466.43,-172.69 -471.09,-184.74" /><path
             id="path294"
             style="fill:#100f0d;fill-opacity:1;fill-rule:nonzero;stroke:none"
             d="m 2751.33,2056.87 c 296.48,0 552.96,-36.64 714.9,-67.1 27.73,-5.19 55.46,4.23 74.23,25.28 18.83,21.12 25.07,49.91 16.69,76.99 -53.62,173.18 -180.36,395.38 -242.67,449.07 -167.19,144.13 -802.01,176.46 -1032.33,14.14 -87.61,-61.74 -209.24,-277.41 -260.29,-461.53 -7.56,-27.26 -0.52,-55.85 18.85,-76.45 19.14,-20.38 46.85,-29.13 74.17,-23.32 219.09,46.3 436.85,62.92 636.45,62.92 z m 730.15,-138.54 c -9.33,0 -18.76,0.87 -28.19,2.65 -265.82,49.98 -791.3,117.04 -1323.94,4.47 -51.41,-10.85 -103.63,5.53 -139.66,43.88 -36.25,38.57 -49.43,92.07 -35.28,143.1 56.52,203.87 185.47,428.19 287.42,500.04 114.62,80.77 330.21,125.78 576.3,120.72 188.66,-3.97 430.12,-42.58 542.06,-139.05 79.01,-68.1 209.69,-306.55 263.83,-481.39 15.7,-50.75 4,-104.68 -31.32,-144.29 -28.86,-32.36 -69.03,-50.13 -111.22,-50.13" /><path
             id="path296"
             style="fill:#100f0d;fill-opacity:1;fill-rule:nonzero;stroke:none"
             d="m 1855.33,2111.37 c 0,0 0.55,-1.69 1.59,-4.86 0.88,-3.14 2.67,-7.72 4.36,-13.44 3.83,-11.45 9.23,-27.49 15.97,-45.87 3.54,-9.15 7.14,-18.97 11.53,-28.93 4.19,-10.04 9,-20.27 14.24,-30.44 5.09,-10.29 11.29,-20.08 17.37,-29.92 6.72,-9.36 13.2,-18.98 21.1,-27.16 3.55,-4.49 7.86,-8.14 11.7,-12.29 4.44,-3.41 8.16,-7.73 12.73,-10.92 4.45,-3.32 8.73,-6.87 13.43,-9.79 l 6.87,-4.59 c 2.44,-1.26 4.78,-2.7 7.15,-4.06 4.6,-3.01 9.63,-5.05 14.43,-7.51 4.73,-2.64 9.76,-4.41 14.61,-6.43 2.44,-1.04 4.85,-2.06 7.22,-3.07 2.46,-0.82 4.88,-1.63 7.27,-2.43 4.81,-1.6 9.42,-3.54 14.06,-4.74 9.24,-2.55 17.87,-5.48 25.79,-7.14 7.88,-1.87 14.91,-4.17 20.78,-5.18 5.86,-1.13 10.58,-2.56 13.79,-3.3 3.25,-0.9 4.98,-1.38 4.98,-1.38 0,0 -1.62,-0.71 -4.67,-2.05 -3.07,-1.18 -7.58,-3.25 -13.47,-5.19 -5.87,-2.26 -13.14,-4.18 -21.66,-6.08 -8.5,-2.24 -18.3,-3.17 -29.19,-4.27 -5.45,-0.64 -11.13,-0.2 -17.1,-0.32 -5.97,-0.13 -12.12,0.43 -18.49,1.25 -6.4,0.67 -12.94,1.64 -19.58,3.33 -6.71,1.41 -13.48,3.25 -20.22,5.81 -3.39,1.22 -6.85,2.38 -10.26,3.74 -3.32,1.59 -6.67,3.2 -10.03,4.82 -6.88,3.04 -13.31,7.12 -19.74,11.35 -6.54,4.06 -12.46,9.11 -18.54,13.98 -5.51,5.44 -11.56,10.51 -16.55,16.45 -10.47,11.56 -19.01,24.43 -26.36,37.47 -3.36,6.64 -6.92,13.18 -9.44,19.95 -2.85,6.66 -5.32,13.31 -7.25,19.99 -8.36,26.52 -10.71,51.98 -10.65,73.38 0.27,21.48 3.27,39.07 6.31,51.15 1.36,6.04 3.07,10.72 4.08,13.88 1.08,3.17 1.84,4.81 1.84,4.81" /><path
             id="path298"
             style="fill:#100f0d;fill-opacity:1;fill-rule:nonzero;stroke:none"
             d="m 3713.34,2111.37 c 0,0 0.76,-1.64 1.84,-4.81 1.02,-3.16 2.72,-7.84 4.08,-13.88 3.04,-12.08 6.04,-29.67 6.31,-51.15 0.06,-21.4 -2.28,-46.86 -10.65,-73.38 -1.92,-6.68 -4.4,-13.33 -7.24,-19.99 -2.52,-6.77 -6.09,-13.31 -9.44,-19.95 -7.36,-13.04 -15.9,-25.91 -26.37,-37.47 -4.98,-5.94 -11.04,-11.01 -16.55,-16.45 -6.08,-4.87 -12,-9.92 -18.54,-13.98 -6.43,-4.23 -12.86,-8.31 -19.73,-11.35 -3.37,-1.62 -6.72,-3.23 -10.04,-4.82 -3.41,-1.36 -6.87,-2.52 -10.26,-3.74 -6.74,-2.56 -13.51,-4.4 -20.21,-5.81 -6.64,-1.69 -13.19,-2.66 -19.58,-3.33 -6.38,-0.82 -12.52,-1.38 -18.5,-1.25 -5.97,0.12 -11.65,-0.32 -17.1,0.32 -10.89,1.1 -20.68,2.03 -29.19,4.27 -8.52,1.9 -15.79,3.82 -21.66,6.08 -5.88,1.94 -10.4,4.01 -13.47,5.19 -3.05,1.34 -4.67,2.05 -4.67,2.05 0,0 1.73,0.48 4.98,1.38 3.22,0.74 7.94,2.17 13.79,3.3 5.87,1.01 12.9,3.31 20.78,5.18 7.92,1.66 16.55,4.59 25.79,7.14 4.65,1.2 9.26,3.14 14.06,4.74 2.39,0.8 4.81,1.61 7.28,2.43 2.37,1.01 4.77,2.03 7.21,3.07 4.86,2.02 9.88,3.79 14.61,6.43 4.8,2.46 9.83,4.5 14.43,7.51 2.38,1.36 4.71,2.8 7.15,4.06 l 6.88,4.59 c 4.69,2.92 8.97,6.47 13.43,9.79 4.56,3.19 8.28,7.51 12.72,10.92 3.84,4.15 8.15,7.8 11.7,12.29 7.9,8.18 14.38,17.8 21.1,27.16 6.09,9.84 12.28,19.63 17.37,29.92 5.25,10.17 10.05,20.4 14.24,30.44 4.39,9.96 8,19.78 11.54,28.93 6.73,18.38 12.13,34.42 15.96,45.87 1.69,5.72 3.48,10.3 4.36,13.44 1.04,3.17 1.59,4.86 1.59,4.86" /><path
             id="path300"
             style="fill:#100f0d;fill-opacity:1;fill-rule:nonzero;stroke:none"
             d="m 5191.8,4731.8 c -778.3,310.4 -1597.8,467.7 -2436.1,467.7 -64.3,0 -128.4,-1 -192.5,-2.8 l -0.5,-0.1 C 1791.7,5174.3 1038.2,5018.3 319.699,4731.8 117.797,4894 26.6992,5165.7 89.5977,5418.7 909.898,5746.5 1772.3,5918.6 2654.5,5930.8 c -4,-21.1 -6.2,-42.8 -6.2,-65.1 0,-187.7 152.8,-340.5 340.5,-340.5 14.9,0 29.8,1 44.6,3 32.9,-155.9 169.9,-269.2 333,-269.2 56.4,0 111.1,13.7 160.2,40 61.4,-99.9 171.5,-162.6 290.3,-162.6 135,0 254.3,77.9 309.2,197.8 50,-27.6 105.8,-42 163.8,-42 187.8,0 340.5,152.8 340.5,340.5 0,17.5 -1.3,34.7 -4,51.5 269,-72.6 534.4,-161.2 795.5,-265.5 62.9,-253 -28.2,-524.7 -230.1,-686.9 z M 866.098,4849.3 c 456.802,139 925.602,226.6 1402.202,262.1 -41,-18.6 -83.4,-39.1 -127.5,-60.5 -225.6,-109.4 -481.3,-233.4 -794.3,-225.5 -206.1,5.2 -369.102,15.2 -480.402,23.9 z M 4627.4,3643.3 c -51.5,-116.4 -151,-411.4 -147.8,-565.7 2.1,-106.2 -28.7,-183.2 -86.7,-216.9 -49.4,-28.6 -117.8,-23.8 -178.4,12.6 -93.1,55.8 -56.2,192.1 -13.6,304.7 1.8,5 3.6,9.5 5,13.5 25,67.8 -1.2,144.3 -60.9,177.9 -8.8,5 -18.4,9 -28.8,11.9 26.4,-27.4 33.5,-65.1 33.5,-97.6 0,-18.8 -2.4,-35.9 -4.7,-48.2 -0.8,-6.6 -2.3,-13.3 -4.7,-19.8 -1.5,-3.8 -3.1,-8.2 -4.9,-13 -30.7,-81 -112.2,-296.3 43.1,-389.5 7.4,-4.4 14.8,-8.4 22.4,-12.1 l -358.9,-708.8 -32.1,-63.4 c 17.1,-30.7 31.8,-63.2 43.6,-97.3 -45.3,-67.1 -258.8,-393.8 -409.4,-805 -7.9,-21.6 -47.3,-21.3 -99.4,-16.8 l -29.2,-57.6 -473.9,-936.001 C 2827,87.4023 2798.9,70.1016 2766.6,70 h -0.2 c -32.3,0 -60.4,17.1992 -75,45.898 L 2132.2,1210.1 c 13,5.3 25.2,12.2 36.2,20.8 47.1,36.6 93.7,203.2 -50.3,267.2 0,0 80.5,-155 7.4,-211.9 -37.4,-29.1 -90.5,-20 -127.7,-1.9 -46.1,22.6 -75.9,61 -75.9,97.7 0,151.9 -303.3,812.7 -394.8,1008.8 l -28.7,63.1 c -43.7,5.8 -86.5,16.1 -127.9,31.1 -35.1,75.3 -239.1,510.5 -381.602,757.7 85.702,31.4 171.702,123 171.702,228 0,63 16.1,108.6 45.3,128.3 32.4,21.8 78.2,10.7 111,-2.6 91.2,-36.9 177.3,-31.3 230.4,14.8 16.5,14.4 33,35.7 43.4,66.7 l 10.3,59.8 c -0.4,53.1 -80.7,110.7 -80.7,110.7 14.3,-56.9 22.1,-148.6 -18.9,-184.3 -31.9,-27.7 -94,-28.8 -158.3,-2.8 -87.9,35.5 -144.4,17.3 -176.3,-4.2 -34.8,-23.5 -76.2,-74.8 -76.2,-186.4 0,-75.2 -67.9,-143.7 -130.702,-164.2 -27.398,-8.9 -64.898,-12.7 -88.199,19.3 -34.703,47.7 -48.601,167.8 -62,284 -13.902,120.1 -28.301,244.2 -67.703,321.4 l -379.301,742.3 c 110.102,43.5 221.102,84.1 332.801,121.5 43.902,-5.1 277.602,-30.3 649.204,-39.6 9.9,-0.2 19.6,-0.4 29.3,-0.4 317,0 582.7,128.8 797.3,232.9 151.4,73.4 282.1,136.7 392,138.7 64,1.9 128.2,2.9 192.4,2.9 823.3,0 1628.2,-153.5 2393.2,-456.1 C 5047.8,4474.5 4638,3667.3 4627.4,3643.3 Z m -1909,2226.8 c 62.9,-88 176.4,-145.6 291.7,-145.6 14.9,0 29.8,1 44.6,3 32.9,-155.9 169.9,-269.2 333,-269.2 56.4,0 111.1,13.7 160.2,40 61.4,-99.9 171.5,-162.6 290.3,-162.6 135,0 254.3,77.9 309.2,197.8 50,-27.6 105.8,-42 163.8,-42 97.1,0 184.7,40.8 246.8,106.2 -17.1,-132.7 -130.7,-235.5 -268.1,-235.5 -58.2,0 -113.6,18.3 -160.3,52.7 l -39.7,29.3 -14.5,-47.1 c -35.2,-114.1 -139.1,-190.7 -258.5,-190.7 -104.7,0 -201,61.4 -245.3,156.4 l -17.5,37.6 -34.1,-23.6 c -45.3,-31.3 -98.4,-47.8 -153.6,-47.8 -139.7,0 -255.4,104.7 -269.1,243.6 l -4,40.3 -39.2,-9.7 c -21.4,-5.3 -43.4,-8 -65.3,-8 -149.1,0 -270.5,121.4 -270.5,270.5 0,1.5 0.1,2.9 0.1,4.4 z M 5485,5454 c -2.9,10.5 -10.5,19 -20.6,23.1 -281.9,113.4 -568.8,208.6 -859.7,285.4 -11.2,2.9 -22.3,5.9 -33.5,8.7 -19.5,5.1 -39.1,10.1 -58.7,15 4,-5.8 7.8,-11.8 11.4,-18 1.2,-2.1 2.3,-4.3 3.5,-6.5 2.2,-4 4.4,-8.1 6.4,-12.2 1.3,-2.8 2.6,-5.7 3.8,-8.6 1.6,-3.6 3.1,-7.2 4.6,-10.9 1.2,-3.2 2.3,-6.4 3.4,-9.7 l 0.6,-1.8 c 1.5,-4.2 2.9,-8.4 4.1,-12.7 -0.9,-1.6 -1.7,-3.3 -2.6,-4.9 -46.2,-83.1 -134.9,-139.4 -236.5,-139.4 -58.2,0 -113.6,18.3 -160.3,52.7 l -39.7,29.3 -14.5,-47.1 c -35.2,-114.1 -139.1,-190.7 -258.5,-190.7 -104.7,0 -201,61.4 -245.3,156.4 l -17.5,37.6 -34.1,-23.6 c -45.3,-31.3 -98.4,-47.8 -153.6,-47.8 -139.7,0 -255.4,104.7 -269.1,243.6 l -4,40.3 -39.2,-9.7 c -21.4,-5.3 -43.4,-8 -65.3,-8 -116.6,0 -230.7,74.3 -269.7,177.8 l 0.4,1 c 1.5,3.3 2.9,6.7 4.5,9.9 1,2.2 2.2,4.3 3.3,6.4 2.1,4 4.1,8 6.4,11.9 h -4.1 c -15.9,0 -31.9,-0.1 -47.9,-0.3 -8.9,0 -17.7,0 -26.6,-0.1 -1.8,0 -3.5,0 -5.3,-0.1 C 1768.2,5990.6 885.898,5814.5 47.0977,5477.1 36.9961,5473 29.3984,5464.5 26.5,5454 -53.3008,5165.3 51.0977,4851.1 286.297,4669.1 l 393.402,-769.8 c 33.598,-65.9 47.297,-183.6 60.399,-297.5 15.199,-131 29.5,-254.6 75,-317.1 25.8,-35.6 64.699,-54.3 109.3,-54.3 l 2.2,0.1 C 1080.5,2968.1 1318.8,2453.9 1321.2,2448.6 c 3.3,-7.1 9.2,-12.7 16.5,-15.5 34.8,-13.3 70.4,-23.5 106.7,-30.8 115.8,-245.6 407.5,-891.8 407.5,-1020.3 0,-64.2 44.1,-125.8 115.2,-160.5 30.7,-15.1 62.5,-22.9 92.9,-23.8 L 2629,84.1016 C 2655.5,32.1992 2708.1,0 2766.4,0 h 0.3 c 58.3,0.101563 111,32.5 137.3,84.6016 L 3391.6,1047.4 c 47.5,0.4 91.7,11.7 108.9,58.6 82.8,226 184.9,426.1 266.6,570.1 81.6,143.9 142.9,231.9 144.1,233.6 5.4,7.7 6.9,17.5 4.1,26.4 -9.1,28.3 -20,55.7 -32.4,82 l 384.5,759.4 c 17.6,-3.8 35.2,-5.7 52.5,-5.7 38.4,0 75.3,9.4 108.1,28.4 47,27.2 125.2,99.6 121.5,278.9 -2.8,136.8 89.5,417.3 141.8,535.8 10.9,24 351.9,696 533.9,1054.2 235.2,182 339.6,496.2 259.8,784.9" /></g></g></g></g></svg>