<?xml version="1.0" encoding="UTF-8" standalone="no"?>
<svg
   xmlns:dc="http://purl.org/dc/elements/1.1/"
   xmlns:cc="http://creativecommons.org/ns#"
   xmlns:rdf="http://www.w3.org/1999/02/22-rdf-syntax-ns#"
   xmlns:svg="http://www.w3.org/2000/svg"
   xmlns="http://www.w3.org/2000/svg"
   viewBox="0 0 734.88 800.20001"
   height="800.20001"
   width="734.88"
   xml:space="preserve"
   id="svg2"
   version="1.1"><metadata
     id="metadata8"><rdf:RDF><cc:Work
         rdf:about=""><dc:format>image/svg+xml</dc:format><dc:type
           rdf:resource="http://purl.org/dc/dcmitype/StillImage" /></cc:Work></rdf:RDF></metadata><defs
     id="defs6"><clipPath
       id="clipPath20"
       clipPathUnits="userSpaceOnUse"><path
         id="path18"
         d="M 0,0 H 5511.56 V 6001 H 0 Z" /></clipPath></defs><g
     transform="matrix(1.3333333,0,0,-1.3333333,0,800.2)"
     id="g10"><g
       transform="scale(0.1)"
       id="g12"><g
         id="g14"><g
           clip-path="url(#clipPath20)"
           id="g16"><path
             id="path22"
             style="fill:#cb8e4c;fill-opacity:1;fill-rule:nonzero;stroke:none"
             d="m 5438.03,5443.3 c 77,-278.5 -23.2,-578.6 -253.8,-752.8 -783.4,315.2 -1612.6,472.7 -2441.7,472.7 -64,0 -128.1,-0.9 -192.1,-2.8 -4.4,-0.1 -8.8,-0.2 -13.3,-0.5 C 1908.93,5140.3 1282.83,5030.1 678.926,4829.3 551.828,4787 425.727,4740.8 300.727,4690.5 70.1289,4864.7 -30.0703,5164.8 46.9258,5443.3 907.727,5789.6 1814.63,5965.2 2742.53,5965.2 c 927.8,0 1834.7,-175.6 2695.5,-521.9" /><path
             id="path24"
             style="fill:#f6cb53;fill-opacity:1;fill-rule:nonzero;stroke:none"
             d="m 4380.83,4126.3 c -66.2,-285.8 -322.3,-498.7 -628.2,-498.7 -356.1,0 -644.7,288.6 -644.7,644.7 0,40.3 3.7,79.7 10.8,118 55.4,299.7 318.1,526.7 633.9,526.7 356.1,0 644.8,-288.6 644.8,-644.7 0,-50.2 -5.7,-99.1 -16.6,-146 m -1638.3,1036.9 c -64,0 -128.1,-0.9 -192.1,-2.8 -4.4,-0.1 -8.8,-0.2 -13.3,-0.5 -100.6,-5.4 -213,-54.6 -340.1,-115.5 -8.6,-4.2 -17.3,-8.4 -26.1,-12.6 -228.6,-110.6 -503.5,-251.1 -838.6,-242.7 -151.3,3.8 -279.1,10.2 -380.4,16.8 -34.5,2.2 -66.004,4.5 -94.203,6.7 -116.5,8.9 -178.801,16.7 -178.801,16.7 -74.797,-24.9 -149.199,-51.1 -223.199,-78.8 h -0.2 c -51.8,-19.3 -103.398,-39.3 -154.8,-60 0,0 19,-37.3 48.902,-95.8 75.5,-147.6 220.098,-430.6 302.301,-591.5 19.199,-37.4 34.898,-68.3 45.597,-89.3 25.899,-50.6 40.399,-125.8 51.602,-207 v -0.2 c 21.199,-155.2 29.898,-332.5 81,-402.8 23.699,-32.5 59,-43.5 96.801,-38.9 15.597,1.9 31.496,6.5 47.297,13.3 34.103,14.7 67.003,39.8 92.203,71.2 27.7,34.4 45.9,76.3 45.9,119.9 v 2.2 c 0.8,144.4 78.5,206.8 204.4,156 85.9,-34.8 185.3,-32.5 221.8,45.8 4.6,9.9 8.3,20.9 10.7,33.3 h 0.1 c 5.4,0.1 10.9,0.2 16.5,0.2 291.6,0 538,-193.7 617.6,-459.3 l 0.1,-0.1 c 17.6,-58.7 27,-120.9 27,-185.3 0,-356.1 -288.6,-644.8 -644.7,-644.8 -35.5,0 -70.4,2.9 -104.5,8.4 l -1.1,-4.4 c 0,0 -82.03,-217.5 -1.64,-398.58 60.34,-135.92 304.31,-316.19 304.31,-316.19 64.61,-77.44 88.55,-211.11 102.03,-268.23 l 0.1,-0.1 c 5.5,-23.8 8.6,-43.3 8.6,-57.6 0,-85.7 104.9,-157.4 194.2,-148.8 l 5.1,-9.9 574,-1123.3008 c 44.3,-86.8008 168.5,-86.5976 212.6,0.4024 l 59.4,117.3004 388.8,767.996 46.8,92.302 c -32.4,1.8 -66.8,6.8 -95.1,6.8 -356,0 -644.7,288.7 -644.7,644.8 0,136.23 42.27,262.61 114.42,366.72 0,0 378.83,-194.57 599.04,11.92 9.77,9.17 146.52,229.25 146.52,229.25 155.72,-55.15 283.95,-168.42 358.62,-313.69 l 342.8,677.3 57.1,112.7 2.6,5.1 c 15.2,-5.1 30.6,-8.5 46,-10.4 36.9,-4.4 73.3,0.8 105.6,16.8 53.6,26.5 95.7,82.9 109.2,174.9 l 0.1,0.5 c 3.5,23.5 5.1,49.3 4.5,77.6 -0.9,46.5 7.9,106.5 22,170.3 31.6,142.8 89.5,305 122.9,380.5 9.1,20.7 352.5,697.2 485.9,959.9 32.2,63.5 52.2,102.8 52.2,102.8 -783.4,315.2 -1612.6,472.7 -2441.7,472.7" /><path
             id="path26"
             style="fill:#e53e47;fill-opacity:1;fill-rule:nonzero;stroke:none"
             d="m 4397.43,4272.3 c 0,-50.2 -5.7,-99.1 -16.6,-146 -66.2,-285.8 -322.3,-498.7 -628.2,-498.7 -356.1,0 -644.7,288.6 -644.7,644.7 0,356.1 288.6,644.7 644.7,644.7 10.8,0 21.5,-0.3 32.2,-0.8 341.1,-16.8 612.6,-298.6 612.6,-643.9" /><path
             id="path28"
             style="fill:#e53e47;fill-opacity:1;fill-rule:nonzero;stroke:none"
             d="m 3833.33,2022.5 c -19.6,38.2 -42.9,74.1 -69.5,107.4 -71.51,89.67 -166.54,159.68 -275.67,201.12 -8.05,-14.06 -16.65,-27.99 -26.05,-42.03 -4.87,-6.98 -9.42,-14.16 -13.95,-21.36 -2.61,-6.25 -5.57,-12.4 -7.72,-17.98 -27.57,-71.42 -63.81,-138 -134,-177.06 -52.51,-29.23 -103.73,-39.87 -163.37,-44.85 -31.71,-2.65 -63.2,-1.07 -94.74,0.51 -20.6,1.04 -41.22,2.07 -61.92,1.92 -35.42,-0.25 -70.61,-1.76 -105.96,1.44 -62.91,5.68 -111,17.97 -166.51,40.37 -62.84,-99.45 -99.21,-217.31 -99.21,-343.68 0,-356.1 288.7,-644.8 644.7,-644.8 28.3,0 62.7,-5 95.1,-6.8 47.6,-2.7 91,1.4 104.5,38.3 11.3,30.8 22.9,61.2 34.8,90.9 165.9,415.6 379.6,719.8 379.6,719.8 -10.8,33.5 -24.2,65.9 -40.1,96.8" /><path
             id="path30"
             style="fill:#e53e47;fill-opacity:1;fill-rule:nonzero;stroke:none"
             d="m 2210.53,3062.2 c 0,-77.9 -13.8,-152.5 -39.1,-221.7 -21.2,-57.9 -50.4,-111.9 -86.3,-160.6 -117.5,-159.2 -306.3,-262.5 -519.3,-262.5 -35.5,0 -70.4,2.9 -104.5,8.4 -43.6,7.1 -85.9,18.6 -126.2,34.1 0,0 -252.4,545.7 -408.2,805.1 86.5,10.6 185.4,102.8 185.4,204.4 0,146 77.9,209.3 204.4,158.2 96.7,-39.2 210.6,-31.3 232.5,79.1 h 0.1 c 5.4,0.1 10.9,0.2 16.5,0.2 35.5,0 70.3,-2.9 104.3,-8.4 l 0.2,-0.1 c 19.1,-3.1 38,-7.1 56.6,-11.9 278.1,-71.5 483.6,-324 483.6,-624.3" /><path
             id="path32"
             style="fill:#e53e47;fill-opacity:1;fill-rule:nonzero;stroke:none"
             d="m 2537.13,5159.9 c -105.3,-5.7 -223.6,-59.3 -358,-124.2 -230.3,-111.1 -507.7,-255.1 -846.8,-246.6 -163.3,4.1 -299.3,11.2 -404.103,18.3 -36,2.4 -68.301,4.9 -96.7,7.2 -99.597,8 -152.597,14.7 -152.597,14.7 36.898,12.3 73.898,24.2 110.996,35.8 569.404,178.1 1157.404,276.4 1747.204,294.8" /><path
             id="path34"
             style="fill:#e8816a;fill-opacity:1;fill-rule:nonzero;stroke:none"
             d="m 4102.88,4439 c -2.67,2.27 -5.26,4.6 -7.69,7.12 -0.99,1.02 -1.92,2.09 -2.87,3.14 -1.65,2.56 -3.37,5.05 -4.86,7.73 -0.84,1.53 -1.53,3.17 -2.41,4.66 l -0.16,0.23 c -4.18,10.09 -9.68,18.57 -19.57,24.36 -9.64,5.64 -23.86,8.04 -34.67,4.54 -21.37,-6.92 -40.43,-31.82 -31.43,-55.36 8.77,-22.93 21.08,-43.97 40.02,-60.06 9.26,-7.86 19.3,-13.18 31.82,-13.18 11.04,0 24.22,4.9 31.82,13.18 15.39,16.76 19.16,47.37 0,63.64" /><path
             id="path36"
             style="fill:#e8816a;fill-opacity:1;fill-rule:nonzero;stroke:none"
             d="m 3446.73,4419.91 c -16.44,14.59 -37.04,19.05 -58.49,17.41 -21.65,-1.65 -35.81,-13.15 -43.39,-33.04 -4.17,-10.93 -8.34,-21.86 -12.51,-32.79 -8.4,-22.04 9.29,-50.31 31.43,-55.36 13.91,-3.16 26.25,-0.46 36.16,6.3 3.55,-0.84 7.11,-1.47 10.59,-1.62 24.31,-1.09 46.99,15.42 53.84,38.66 6.3,21.38 -0.99,45.67 -17.63,60.44" /><path
             id="path38"
             style="fill:#e8816a;fill-opacity:1;fill-rule:nonzero;stroke:none"
             d="m 3748.29,4221.21 c -15.4,3.51 -30.43,-0.37 -41.31,-9.74 -11.02,-2.82 -20.95,-9.82 -27.88,-20.49 -11.1,-17.1 -19.17,-36.74 -22.83,-56.81 -3.49,-19.12 2.12,-41.01 20.68,-50.82 18.76,-9.91 38.66,-6.45 54.53,7.04 23.21,19.71 39.32,46.54 48.24,75.47 6.94,22.49 -8.23,50.07 -31.43,55.35" /><path
             id="path40"
             style="fill:#e8816a;fill-opacity:1;fill-rule:nonzero;stroke:none"
             d="m 3758.75,4627.78 c -6.46,15.01 -23.17,26.9 -38.62,31.09 -16.7,4.53 -35.4,2.88 -50.24,-6.46 -9.78,-6.16 -17.57,-15.62 -20.68,-26.9 -2.96,-10.77 -1.62,-25.11 4.54,-34.67 8.71,-13.51 24.1,-22.06 39.74,-22.15 4.75,-3.27 9.97,-5.79 14.44,-7.02 10.77,-2.96 25.11,-1.62 34.67,4.54 9.61,6.19 18.07,15.42 20.68,26.89 l 1.61,11.97 c -0.02,8.12 -2.07,15.69 -6.14,22.71" /><path
             id="path42"
             style="fill:#e8816a;fill-opacity:1;fill-rule:nonzero;stroke:none"
             d="m 4095.29,4053.23 c -21.32,8.58 -43.67,0.83 -56.2,-18.41 -16.92,-25.98 -40.23,-44.2 -68.08,-57.37 -16.16,-7.65 -23.43,-26.71 -21.6,-44.09 -4.37,-12.82 -3.54,-27.81 2.95,-38.91 13.52,-23.11 39.14,-25.74 61.57,-16.14 5,2.14 9.66,4.67 14.09,7.48 44.2,25.12 76.23,66.41 93.32,114.36 7.44,20.85 -6.69,45.3 -26.05,53.08" /><path
             id="path44"
             style="fill:#e8816a;fill-opacity:1;fill-rule:nonzero;stroke:none"
             d="m 1484.47,3377.02 c -14.99,7.92 -36.1,7.66 -50.24,-2.55 -2.04,0.95 -4.08,1.88 -6.43,2.53 -10.77,2.96 -25.12,1.63 -34.68,-4.54 -18.65,-12.02 -31.14,-41.35 -16.14,-61.57 15.04,-20.27 36.71,-34.29 63.05,-32.39 24.29,1.76 49.71,13.88 60.59,36.95 10.01,21.25 6.63,49.53 -16.15,61.57" /><path
             id="path46"
             style="fill:#e8816a;fill-opacity:1;fill-rule:nonzero;stroke:none"
             d="m 1855.94,3383.78 c -21.11,12.02 -49.21,4.98 -61.57,-16.15 -12.2,-20.87 -5.03,-49.5 16.15,-61.57 l 1.11,-0.65 0.16,-0.31 c 0.2,-1.19 1.74,-6.76 1.73,-6.74 0.42,-1.79 0.72,-3.59 1.04,-5.4 l 0.07,-1.85 c 0.2,-6.45 0.49,-12.84 0.42,-19.3 -0.25,-23.54 20.87,-46.08 45,-45 24.59,1.1 44.73,19.77 45,45 0.45,42.88 -8.81,89.01 -49.11,111.97" /><path
             id="path48"
             style="fill:#e8816a;fill-opacity:1;fill-rule:nonzero;stroke:none"
             d="m 1730.66,3013.54 c -7.28,17.26 -23.9,27.41 -41.92,27.3 -4.66,20.42 -20.96,38.28 -43.74,37.26 -22.79,-1.02 -46.99,-19.87 -45,-45 0.57,-7.2 0.47,-14.28 0.22,-21.48 l -0.02,-1.58 -0.16,-0.68 c -0.8,-3.5 -1.48,-7 -2.36,-10.49 -5.46,-21.48 6.95,-51.6 31.43,-55.35 29.36,-4.5 57.1,-1.46 83.14,13.83 19.38,11.38 27.04,35.75 18.41,56.19" /><path
             id="path50"
             style="fill:#e8816a;fill-opacity:1;fill-rule:nonzero;stroke:none"
             d="m 1826.02,2804.43 c -5.75,1.31 -11.27,1.51 -16.54,0.93 -2.19,1.94 -4.59,3.63 -7.18,5 -22.64,11.97 -47.58,4.8 -61.56,-16.14 -11.27,-16.88 -23.48,-32.79 -23.48,-54.22 0,-30.91 27.6,-51.73 56.49,-52.47 39.07,-1 71.12,26.11 83.7,61.55 7.89,22.21 -8.91,50.22 -31.43,55.35" /><path
             id="path52"
             style="fill:#e8816a;fill-opacity:1;fill-rule:nonzero;stroke:none"
             d="m 1361.99,3027.57 c -1.71,0.28 -3.32,0.71 -4.95,1.12 l -0.85,0.71 -0.7,1.55 c -2.18,22.54 -20.57,43.54 -44.66,42.46 -23.55,-1.06 -46.03,-19.81 -45,-45 1.66,-40.47 30.44,-80.81 72.23,-87.63 12.31,-2.01 23.52,-1.99 34.68,4.54 9.33,5.46 18.24,16.16 20.68,26.89 4.93,21.66 -6.59,51.3 -31.43,55.36" /><path
             id="path54"
             style="fill:#e8816a;fill-opacity:1;fill-rule:nonzero;stroke:none"
             d="m 2970.06,1863.22 c -10.8,0.04 -21.6,0.08 -32.4,0.13 -3,16.48 -14.09,30.8 -31.64,35.63 -22.45,6.16 -50.22,-7.57 -55.36,-31.43 -9.08,-42.18 -23.75,-115.84 32.47,-131.08 22.14,-6 48.87,3.86 68.91,12.97 18.81,8.55 36.05,21.6 49.84,36.96 25.58,28.46 8.6,76.65 -31.82,76.82" /><path
             id="path56"
             style="fill:#e8816a;fill-opacity:1;fill-rule:nonzero;stroke:none"
             d="m 3393.73,1699.86 c -12.37,28.17 -32.26,49.49 -56.52,67.86 -2.72,2.05 -5.68,3.55 -8.77,4.62 -3.58,2.29 -7.4,4.07 -11.35,5.16 -25.39,6.98 -46.58,-8.67 -55.35,-31.43 -11.48,-29.81 -25.53,-74.09 -9.76,-104.25 18.53,-35.44 64.94,-36.17 99.55,-30.21 18,3.1 34.86,11.36 44.43,27.71 11.6,19.82 6.35,41.02 -2.23,60.54" /><path
             id="path58"
             style="fill:#e8816a;fill-opacity:1;fill-rule:nonzero;stroke:none"
             d="m 3642.19,1928.29 c -13.28,46.18 -51.74,84.5 -99.54,93.75 -23.04,4.46 -49.67,-6.48 -55.36,-31.43 -5.06,-22.25 6.72,-50.57 31.43,-55.36 3.89,-0.75 7.54,-1.69 11.34,-2.78 l 0.86,-0.28 c 3.13,-1.79 6.25,-3.45 9.33,-5.36 l 1.14,-0.67 0.47,-0.72 c 1.7,-2.15 4.12,-4.28 6.14,-6.26 0.58,-0.71 1.24,-1.57 1.81,-2.49 1.2,-1.88 2.21,-3.85 3.25,-5.81 0.2,-0.74 1.77,-4.51 2.34,-6.51 6.5,-22.61 32.05,-38.98 55.36,-31.43 22.99,7.44 38.4,31.12 31.43,55.35" /><path
             id="path60"
             style="fill:#e8816a;fill-opacity:1;fill-rule:nonzero;stroke:none"
             d="m 3109.4,1464.99 c -0.74,2.28 -1.76,4.44 -2.82,6.57 0.4,4.59 0.4,9.21 -0.11,13.82 -1.37,12.3 -4.11,22.75 -13.18,31.82 -7.81,7.81 -20.61,13.68 -31.82,13.18 -11.64,-0.52 -23.71,-4.34 -31.82,-13.18 -7.56,-8.23 -14.47,-20.2 -13.18,-31.82 0.23,-2.09 0.32,-4.15 0.32,-6.21 -0.28,-1.04 -0.68,-2.07 -1.03,-3.1 -3.45,-8.21 -5.05,-15.88 -3.81,-25.07 1.43,-10.67 6.43,-20.99 14.34,-28.51 13.54,-12.87 33.62,-18.37 51.68,-12.85 22.48,6.87 39.06,31.78 31.43,55.35" /><path
             id="path62"
             style="fill:#e8816a;fill-opacity:1;fill-rule:nonzero;stroke:none"
             d="m 3346.63,1437.48 c -8.8,8.08 -19.63,13.18 -31.82,13.18 h -14.07 c -11.54,0 -23.66,-5.02 -31.82,-13.18 -7.8,-7.8 -13.68,-20.61 -13.18,-31.82 0.52,-11.64 4.34,-23.71 13.18,-31.82 8.81,-8.08 19.63,-13.18 31.82,-13.18 h 14.07 c 11.54,0 23.66,5.02 31.82,13.18 7.81,7.81 13.68,20.61 13.18,31.82 -0.52,11.64 -4.34,23.71 -13.18,31.82" /><path
             id="path64"
             style="fill:#a21f26;fill-opacity:1;fill-rule:nonzero;stroke:none"
             d="m 1680.97,3437.77 c -7.44,0 -13.42,-2.27 -17.99,-5.87 l -0.83,0.33 c -7.18,1.98 -16.74,1.08 -23.12,-3.03 -6.4,-4.13 -12.04,-10.28 -13.78,-17.93 -1.68,-7.34 -1.72,-16.8 3.02,-23.11 4.47,-5.96 8.93,-11.91 13.4,-17.87 4.87,-6.49 9.79,-11.54 17.93,-13.78 7.18,-1.98 16.74,-1.09 23.12,3.02 6.4,4.13 12.04,10.28 13.78,17.93 0.37,1.59 0.61,3.31 0.78,5.05 21.11,14.08 15.77,55.26 -16.31,55.26" /><path
             id="path66"
             style="fill:#a21f26;fill-opacity:1;fill-rule:nonzero;stroke:none"
             d="m 1565.14,3177.72 c -5.27,11.19 -15.5,18.96 -25.83,25.22 -13.44,8.13 -33.56,3.41 -41.05,-10.76 -4.11,-7.78 -4.75,-16.44 -2.37,-24.18 -2.17,-6.87 -3.07,-13.77 -1.34,-21.55 2.17,-9.81 8.17,-18.56 16.93,-23.72 15.06,-8.86 34.3,-4.95 46.36,7.09 13.17,13.13 15,31.54 7.3,47.9" /><path
             id="path68"
             style="fill:#a21f26;fill-opacity:1;fill-rule:nonzero;stroke:none"
             d="m 1279,3209.98 c -2.38,0 -4.61,-0.24 -6.7,-0.67 -2.09,0.43 -4.32,0.67 -6.7,0.67 -38.61,0 -38.67,-60 0,-60 2.38,0 4.61,0.24 6.69,0.66 2.09,-0.42 4.32,-0.66 6.71,-0.66 38.6,0 38.67,60 0,60" /><path
             id="path70"
             style="fill:#a21f26;fill-opacity:1;fill-rule:nonzero;stroke:none"
             d="m 1520.18,2785.67 c -16.25,-0.73 -30,-13.18 -30,-30 v -26.8 c 0,-15.69 13.8,-30.72 30,-30 16.26,0.73 30,13.18 30,30 v 26.8 c 0,15.69 -13.8,30.73 -30,30" /><path
             id="path72"
             style="fill:#a21f26;fill-opacity:1;fill-rule:nonzero;stroke:none"
             d="m 1956.94,3016.58 c -2.53,3.93 -5.69,7.01 -9.2,9.38 l -0.05,2.17 c -0.31,15.67 -13.58,30.73 -30,30 -15.99,-0.72 -30.33,-13.19 -30,-30 0.22,-11.09 0.44,-22.18 0.66,-33.27 0.46,-23.48 24.93,-36.39 45.14,-25.9 4.23,2.19 8.45,4.38 12.68,6.58 13.96,7.24 19.24,27.9 10.77,41.04" /><path
             id="path74"
             style="fill:#a21f26;fill-opacity:1;fill-rule:nonzero;stroke:none"
             d="m 3536.09,1820.05 -5.7,0.63 c -2,0.48 -3.99,0.97 -5.95,1.62 l -1.15,0.32 -1.57,0.91 c -0.78,0.44 -7.76,4.96 -4.14,2.13 -5.85,4.58 -12.66,7.47 -19.51,8.17 l -1.69,0.22 -0.19,0.01 c -1.48,0.2 -2.97,0.4 -4.52,0.33 -16.09,-0.72 -30.21,-13.18 -30,-30 0.2,-16.1 0.4,-32.21 0.6,-48.32 0.34,-27.16 32,-38.03 51.21,-21.21 13.15,11.51 23.33,19.42 37.76,29.28 24.26,16.6 15.69,54.91 -15.15,55.91" /><path
             id="path76"
             style="fill:#a21f26;fill-opacity:1;fill-rule:nonzero;stroke:none"
             d="m 3136.99,1669.94 c -4.07,6.25 -8.14,12.49 -12.21,18.74 -1.58,2.42 -3.51,4.48 -5.59,6.37 0.25,3.28 0.4,6.58 0.36,9.87 -0.15,15.69 -13.69,30.73 -30,30 -16.12,-0.72 -30.16,-13.18 -30,-30 0.13,-13.35 -2.57,-22.28 -11.61,-35.04 -9.07,-12.81 -2.66,-34.01 10.76,-41.04 21.79,-11.42 45.75,-11.44 67.52,0.06 13.84,7.31 19.34,27.89 10.77,41.04" /><path
             id="path78"
             style="fill:#a21f26;fill-opacity:1;fill-rule:nonzero;stroke:none"
             d="m 2927.56,1518.66 c -1.15,9.31 -2.29,18.61 -3.43,27.91 -1.01,8.24 -2.68,15.1 -8.79,21.21 -5.2,5.21 -13.74,9.12 -21.21,8.79 -3.73,-0.17 -7.5,-0.88 -11.04,-2.19 -13.68,4.35 -29.61,-0.33 -37.49,-13.8 -9.1,-15.55 -3.12,-34.34 9.82,-45.47 6.92,-5.95 13.95,-11.78 20.92,-17.66 9.45,-7.97 20.91,-11.21 32.77,-6.2 9.89,4.17 19.87,15.79 18.45,27.41" /><path
             id="path80"
             style="fill:#a21f26;fill-opacity:1;fill-rule:nonzero;stroke:none"
             d="m 3419.47,2182.54 c -16.26,-0.73 -30,-13.18 -30,-30 v -27.13 c 0,-15.69 13.8,-30.72 30,-30 16.25,0.73 30,13.18 30,30 v 27.13 c 0,15.69 -13.8,30.72 -30,30" /><path
             id="path82"
             style="fill:#a21f26;fill-opacity:1;fill-rule:nonzero;stroke:none"
             d="m 3500.85,1504.34 c -16.25,-0.73 -30,-13.19 -30,-30 v -9.05 c 0,-15.69 13.8,-30.72 30,-30 16.26,0.73 30,13.19 30,30 v 9.05 c 0,15.69 -13.8,30.72 -30,30" /><path
             id="path84"
             style="fill:#a21f26;fill-opacity:1;fill-rule:nonzero;stroke:none"
             d="m 3767.94,3887.72 c 3.81,10.35 1.41,22.43 -6.55,31.99 -18.73,22.5 -55.3,8.64 -62.77,-16.74 l -0.08,-0.35 c -12.31,-13.2 -21.68,-28.83 -28.09,-46.47 -5.53,-15.23 6.22,-32.86 20.96,-36.9 16.27,-4.48 30.55,5.2 36.4,19.85 4.96,-4.59 11.42,-7.53 19.29,-7.53 14.92,0 31.69,13.79 30,30 -1.06,10.14 -3.74,18.41 -9.16,26.15" /><path
             id="path86"
             style="fill:#a21f26;fill-opacity:1;fill-rule:nonzero;stroke:none"
             d="m 3535.62,4107.14 -0.76,0.51 c 0.87,6.89 1.16,13.84 0.75,20.73 -0.94,16.18 -13.11,30 -30,30 -14.8,0 -29.38,-12.56 -29.86,-27.84 -12.12,-1.17 -23.02,-8.94 -26.48,-21.52 -3,-10.92 1.08,-23.44 9.55,-30.9 -6.09,-20.12 16.52,-43.87 37.51,-36.73 10.71,3.64 21.42,7.28 32.13,10.91 26.28,8.93 27.52,39.21 7.16,54.84" /><path
             id="path88"
             style="fill:#a21f26;fill-opacity:1;fill-rule:nonzero;stroke:none"
             d="m 3698.47,4389.31 c -19.52,15.31 -40.79,21.23 -65.37,16.39 -15.43,-3.04 -25.68,-22.28 -20.95,-36.91 5.31,-16.41 20.37,-24.2 36.9,-20.95 l 0.27,0.07 0.74,-0.14 1.99,-0.1 0.13,-0.04 c 0.61,-0.25 3.32,-1.42 4.46,-1.77 1.84,-1.26 3.85,-2.46 -0.59,1.02 6.53,-5.12 12.55,-8.79 21.21,-8.79 7.36,0 16.15,3.27 21.21,8.79 9.91,10.79 13.19,32.08 0,42.43" /><path
             id="path90"
             style="fill:#a21f26;fill-opacity:1;fill-rule:nonzero;stroke:none"
             d="m 3505.18,4627.21 c -6.49,1.48 -12.39,1.1 -17.56,-0.75 -5.53,6.9 -13.74,11.59 -22.94,11.17 -16.12,-0.72 -30.16,-13.18 -30,-30 0.15,-14.6 0.29,-29.21 0.44,-43.81 0.23,-23.9 25,-35.83 45.14,-25.9 22.16,10.92 36.74,29.96 45.88,52.38 5.93,14.58 -6.44,33.6 -20.96,36.91" /><path
             id="path92"
             style="fill:#a21f26;fill-opacity:1;fill-rule:nonzero;stroke:none"
             d="m 3934.9,4655.72 c -16.25,-0.73 -30,-13.18 -30,-30 v -31.65 c 0,-15.7 13.8,-30.73 30,-30 16.26,0.73 30,13.18 30,30 v 31.65 c 0,15.69 -13.8,30.72 -30,30" /><path
             id="path94"
             style="fill:#a21f26;fill-opacity:1;fill-rule:nonzero;stroke:none"
             d="m 3758.57,4813.96 h -13.56 c -15.7,0 -30.73,-13.79 -30,-30 0.72,-16.25 13.18,-30 30,-30 h 13.56 c 15.69,0 30.73,13.8 30,30 -0.73,16.26 -13.18,30 -30,30" /><path
             id="path96"
             style="fill:#a21f26;fill-opacity:1;fill-rule:nonzero;stroke:none"
             d="m 3996.61,4230.81 c 0.88,13.28 -9.67,27.63 -22.28,30.5 -17.22,3.93 -30.78,-5.26 -36.9,-20.95 -4.29,-10.98 -8.57,-21.97 -12.86,-32.95 -7.02,-17.99 10.91,-38.7 28.93,-37.98 13.39,0.54 26.78,1.07 40.17,1.6 15.66,0.63 30.75,13.35 30,30 -0.66,14.77 -11.79,28.69 -27.06,29.78" /><path
             id="path98"
             style="fill:#a21f26;fill-opacity:1;fill-rule:nonzero;stroke:none"
             d="m 4270.97,4231.53 c -1.92,6.96 -7.3,14.5 -13.79,17.93 -4.52,2.39 -9.67,3.85 -14.83,4.01 -4.77,10.47 -15.05,18.47 -27.12,17.93 -15.97,-0.71 -30.37,-13.19 -30,-30 l 0.57,-26.42 c 0.29,-13.52 9.16,-25 22.03,-28.93 9.84,-3 21.36,-2.99 31.15,0.3 12.52,4.2 21.11,11.59 28.96,22.07 4.36,5.82 4.86,16.44 3.03,23.11" /><path
             id="path100"
             style="fill:#a21f26;fill-opacity:1;fill-rule:nonzero;stroke:none"
             d="m 4150.53,4619.8 -9.04,9.04 c -11.11,11.12 -31.46,11.94 -42.43,0 -10.99,-11.97 -11.85,-30.56 0,-42.42 3.02,-3.02 6.03,-6.03 9.05,-9.04 11.11,-11.12 31.46,-11.94 42.42,0 11,11.97 11.86,30.56 0,42.42" /><path
             id="path102"
             style="fill:#f6cb53;fill-opacity:1;fill-rule:nonzero;stroke:none"
             d="m 3833.33,2022.5 40.1,-96.8 -176.85,-291.55 c 0,0 277.23,81.32 339.23,312.89 62,231.57 -26.72,474.39 -26.72,474.39 L 3833.33,2022.5" /><path
             id="path104"
             style="fill:#e53e47;fill-opacity:1;fill-rule:nonzero;stroke:none"
             d="m 3873.43,1925.7 c 0,0 34.94,-127.9 29.99,-201.18 0,0 -179.4,-119.2 -241.79,-115.73 -62.39,3.48 211.8,316.91 211.8,316.91" /><path
             id="path106"
             style="fill:#ffffff;fill-opacity:1;fill-rule:nonzero;stroke:none"
             d="m 2738.45,3375.98 c 0,-383.6 -251.4,-694.6 -561.5,-694.6 -305.2,0 -553.5,301.2 -561.31,676.5 -0.09,6 -0.2,12 -0.2,18.1 0,116.3 23.11,226 64.01,322.3 93.9,221.4 281.4,372.4 497.5,372.4 229.6,0 427,-170.5 514,-414.7 29.9,-83.7 46.7,-176.1 47.4,-273.2 0.1,-2.2 0.1,-4.5 0.1,-6.8" /><path
             id="path108"
             style="fill:#ffffff;fill-opacity:1;fill-rule:nonzero;stroke:none"
             d="m 3843.01,3300.38 c 0,-341.9 -226.5,-619 -505.8,-619 -279.4,0 -505.9,277.1 -505.9,619 0,21.9 0.9,43.5 2.7,64.8 9.3,108.5 41.4,208.6 90.3,293 91.7,158.1 242.5,261.2 412.9,261.2 183.6,0 344.4,-119.7 433,-298.9 40.5,-81.8 65.9,-176 71.5,-276.9 0.9,-14.3 1.3,-28.7 1.3,-43.2" /><path
             id="path110"
             style="fill:#d9933b;fill-opacity:1;fill-rule:nonzero;stroke:none"
             d="m 1551.88,3666.94 c -8.2,-24 -25.5,-44.8 -56.7,-57.6 -125.2,-51.1 -184,64 -294,15.4 -53.4,-23.6 -60.9,-79.2 -72.1,-141.5 -1.1,-6 -2.2,-12 -3.4,-18.1 -8.1,-41.1 -19.7,-84 -48.3,-121.9 l 2.4,-0.2 c -25.2,-31.4 -58.1,-56.5 -92.202,-71.2 -15.801,-6.8 -31.699,-11.4 -47.301,-13.3 -24.898,-3 -48.699,0.7 -68.898,13 -10.399,6.3 -19.801,14.8 -27.899,25.9 -35.601,49 -50.601,150.1 -63.601,259.4 l -0.102,0.5 c -5.597,47.3 -10.898,96.1 -17.297,142.9 v 0.2 c -11.203,81.2 -25.703,156.4 -51.601,207 -10.699,21 -26.399,51.9 -45.602,89.3 -114.797,224.7 -351.199,687.3 -351.199,687.3 35.5,14.3 71.102,28.1 106.801,41.8 2.5,-4.4 377.5,-662.9 425,-831.4 24.199,-85.8 6.898,-449.1 118.5,-459.6 87.101,69.1 101.701,366.9 261.501,330.6 159.8,-36.3 307,-115.4 294.5,75.2 0,0 56.4,-101.4 31.5,-173.7" /><path
             id="path112"
             style="fill:#d9933b;fill-opacity:1;fill-rule:nonzero;stroke:none"
             d="m 420.844,4725.91 0.054,-0.11 c 15.989,6.11 31.957,12.27 47.981,18.24 l -48.035,-18.13" /><path
             id="path114"
             style="fill:#d9933b;fill-opacity:1;fill-rule:nonzero;stroke:none"
             d="m 2775.08,167.242 -559.1,1152.398 -16.1,33.2 -13.9,28.6 c -20.9,57.1 -65.3,109.1 -68.1,112.2 2.3,-6.4 50.2,-144.2 -63.3,-163.9 -84,30.8 -76.46,229.12 -100.8,304.4 -77.84,240.73 -218.5,242.85 -283.95,388.87 -63.59,141.88 5.05,248.03 5.05,248.03 290.65,108.01 445.25,252.13 522.42,396.17 -33.37,-4.96 -67.55,-3.41 -99.54,5.48 -117.43,-158.76 -305.94,-261.75 -518.58,-261.75 -35.5,0 -70.4,2.9 -104.5,8.4 l -1.1,-4.4 c 0,0 -86.62,-188.65 0,-384.99 61.64,-139.71 275.62,-282.46 314.76,-326.43 62.02,-69.66 78.12,-221.5 89.94,-271.58 l 0.1,-0.1 c 1.2,-5.3 2.3,-10.4 3.3,-15.2 3.4,-17 5.3,-31.3 5.3,-42.4 0,-85.7 104.9,-157.4 194.2,-148.8 l 5.1,-9.9 50.1,-98 523.9,-1025.2978 c 44.3,-86.80079 168.5,-86.60157 212.6,0.3984 l 59.4,117.3004 c -106.6,-101.601 -157.2,-42.699 -157.2,-42.699" /><path
             id="path116"
             style="fill:#d9933b;fill-opacity:1;fill-rule:nonzero;stroke:none"
             d="m 692.277,4822.84 c 0,0 96.301,-12 273,-23.4 -267.5,-77.2 -472.699,-156.2 -602.297,-211.2 -29.902,58.5 -48.902,95.8 -48.902,95.8 51.402,20.7 103,40.7 154.801,60 h 0.199 c 74,27.7 148.402,53.9 223.199,78.8" /><path
             id="path118"
             style="fill:#d9933b;fill-opacity:1;fill-rule:nonzero;stroke:none"
             d="m 5197.58,4684.04 c 0,0 -20,-39.3 -52.2,-102.8 -1105.5,446.3 -2132.7,516.7 -2961.1,444.1 137.8,66.6 258.8,122.3 366.2,128.1 4.5,0.3 8.9,0.4 13.3,0.5 64,1.9 128.1,2.8 192.1,2.8 829.1,0 1658.3,-157.5 2441.7,-472.7" /><path
             id="path120"
             style="fill:#bb5f2f;fill-opacity:1;fill-rule:nonzero;stroke:none"
             d="m 4504.68,2975.74 c -12.2,-35.2 -45.1,-115.3 -103.9,-158.2 -39.4,-28.8 -90.2,-40.8 -154.2,-11.5 -5.1,2.3 -10.3,4.9 -15.6,7.8 -135.1,73.7 -120,199.5 -92,296.2 l 14.3,34.7 c -1.6,-7.8 -37.8,-191.8 118.8,-247.3 117.3,-41.7 191.7,4 232.6,78.3" /><path
             id="path122"
             style="fill:#bb5f2f;fill-opacity:1;fill-rule:nonzero;stroke:none"
             d="m 780.078,3556.34 9.801,-30.7 c -5.699,15.7 -8.899,27.3 -9.801,30.7" /><path
             id="path124"
             style="fill:#bb5f2f;fill-opacity:1;fill-rule:nonzero;stroke:none"
             d="m 1129.08,3483.24 c -1.1,-6 -2.2,-12 -3.4,-18.1 -8.1,-41.1 -19.7,-84 -48.3,-121.9 l 2.4,-0.2 c -25.2,-31.4 -58.1,-56.5 -92.202,-71.2 -15.801,-6.8 -31.699,-11.4 -47.301,-13.3 -24.898,-3 -48.699,0.7 -68.898,13 l -81.102,253 c 17.903,-48.5 59.5,-135.1 132.203,-149.7 101.8,-20.3 200.2,98.5 200.2,152.8 0,15.1 2.6,-6 6.4,-44.4" /><path
             id="path126"
             style="fill:#bb5f2f;fill-opacity:1;fill-rule:nonzero;stroke:none"
             d="m 2136.38,1117.54 -50.1,98 -5.1,9.9 c -89.3,-8.6 -194.2,63.1 -194.2,148.8 0,11.1 -1.9,25.4 -5.3,42.4 l 31.8,-34.7 c 0,0 63.4,-103.7 156.3,-82.9 93,20.9 101.9,114.5 101.9,114.5 l 28.2,-60.7 3,14.4 c 0,0 8.3,-18.9 13.1,-47.6 8.9,-52.6 6.2,-138.3 -79.6,-202.1" /><path
             id="path128"
             style="fill:#bd2d35;fill-opacity:1;fill-rule:nonzero;stroke:none"
             d="m 2059.37,2687.57 c -298.05,-277.29 -637.79,-158.83 -637.79,-158.83 l -315.2,672 c 152,130.8 103.7,283.8 155.6,324.9 30.57,24.26 55.88,8.74 104.12,-6.78 33.49,-10.78 78.04,-21.56 143.08,-19.02 158.7,6.1 174.5,192.1 174.5,192.1 l -0.2,0.1 c -34,5.5 -68.8,8.4 -104.3,8.4 -5.6,0 -11.1,-0.1 -16.5,-0.2 h -0.1 c -21.9,-110.4 -135.8,-118.3 -232.5,-79.1 -126.5,51.1 -204.4,-12.2 -204.4,-158.2 0,-101.6 -98.9,-193.8 -185.399,-204.4 155.799,-259.4 408.199,-805.1 408.199,-805.1 40.3,-15.5 82.6,-27 126.2,-34.1 34.1,-5.5 69,-8.4 104.5,-8.4 212.63,0 401.1,103 518.54,261.76 -13.24,3.67 -26.08,8.64 -38.35,14.87" /><path
             id="path130"
             style="fill:#bd2d35;fill-opacity:1;fill-rule:nonzero;stroke:none"
             d="m 2881.08,1356.44 c -220.09,174.03 -170.6,541.36 -140.13,688.11 -7.3,2.26 -14.58,4.77 -21.83,7.45 -57.75,-96.55 -91.04,-209.44 -91.04,-330.16 0,-356.1 288.7,-644.8 644.7,-644.8 28.3,0 62.7,-5 95.1,-6.8 47.6,-2.7 91,1.4 104.5,38.3 11.3,30.8 22.9,61.2 34.8,90.9 -168.7,-20.48 -401.65,-20.48 -626.1,157" /><path
             id="path132"
             style="fill:#bd2d35;fill-opacity:1;fill-rule:nonzero;stroke:none"
             d="m 3761.29,4902.81 c -358.65,0 -649.45,-290.79 -649.45,-649.44 0,-120.82 33.1,-233.84 90.54,-330.72 34.26,17.86 72.54,28.99 111.16,32.26 17.19,1.45 34.21,1.4 51.02,0.13 -78.15,97.7 -124.98,221.54 -124.98,356.38 0,315.43 255.75,571.18 571.18,571.18 315.43,0 571.19,-255.75 571.19,-571.18 0,-315.44 -255.76,-571.19 -571.19,-571.19 -38.4,0 -75.9,3.85 -112.17,11.08 1.4,-1.78 2.84,-3.57 4.23,-5.36 34.13,-44.18 64.24,-91.44 88.52,-141.26 344.78,15.71 619.48,300.01 619.48,648.68 0,358.65 -290.79,649.44 -649.53,649.44" /><path
             id="path134"
             style="fill:#bd2d35;fill-opacity:1;fill-rule:nonzero;stroke:none"
             d="m 2550.48,5153.44 c -105.3,-5.7 -223.6,-59.3 -358,-124.2 -449.3,-39.7 -1043.4,-177.8 -1250.902,-228.3 -48.098,-11.7 -75.398,-18.7 -75.398,-18.7 l -21.301,25.9 -41.602,50.5 c 569.403,178.1 1157.403,276.4 1747.203,294.8" /><path
             id="path136"
             style="fill:#fdfbc2;fill-opacity:1;fill-rule:nonzero;stroke:none"
             d="m 1249.97,3782.26 c 0,0 143.37,-57.66 190.04,-43.93 46.67,13.73 49.41,57.65 49.41,57.65 0,0 -56.12,-38.43 -239.45,-13.72" /><path
             id="path138"
             style="fill:#fdfbc2;fill-opacity:1;fill-rule:nonzero;stroke:none"
             d="m 3849.08,3419.13 c 1.93,-14.16 3.29,-28.46 4.11,-42.87 69.49,29.06 117.5,81.98 117.5,81.98 0,0 -54.12,-24.51 -121.61,-39.11" /><path
             id="path140"
             style="fill:#fdfbc2;fill-opacity:1;fill-rule:nonzero;stroke:none"
             d="m 4037.05,2681.04 c 0,0 -242.53,-387.64 -223.09,-431.7 19.44,-44.06 202.49,278.03 223.09,431.7" /><path
             id="path142"
             style="fill:#fdfbc2;fill-opacity:1;fill-rule:nonzero;stroke:none"
             d="m 3027.34,666.781 c 0,0 -181.21,-338.601 -172.06,-380.929 9.14,-42.332 114.97,173.148 144.78,230.867 29.82,57.711 123.13,253.953 124.57,269.351 1.44,15.391 -72.89,-23.09 -97.29,-119.289" /><path
             id="path144"
             style="fill:#fdfbc2;fill-opacity:1;fill-rule:nonzero;stroke:none"
             d="m 639.68,4431.19 c 0,0 125.633,-266.26 163.597,-338.41 37.969,-72.15 108.453,-56.92 62.911,50.84 -45.543,107.75 -123.829,247.84 -156.79,305.52 -32.964,57.69 -126.906,102.48 -69.718,-17.95" /><path
             id="path146"
             style="fill:#fdfbc2;fill-opacity:1;fill-rule:nonzero;stroke:none"
             d="m 3124.65,4777.51 c 0,0 -136.48,-143.71 -134.85,-323.11 1.63,-179.4 32.34,-145.03 37.54,-98.68 5.2,46.35 100.77,365.74 183.8,426.56 83.03,60.83 -56.3,32.13 -86.49,-4.77" /><path
             id="path148"
             style="fill:#fdfbc2;fill-opacity:1;fill-rule:nonzero;stroke:none"
             d="m 3000.06,4241.07 c 0,0 -24.38,-57.34 0,-89.14 24.39,-31.8 40.88,-2.5 40.88,25.45 0,27.96 3.46,132.41 -40.88,63.69" /><path
             id="path150"
             style="fill:#fdfbc2;fill-opacity:1;fill-rule:nonzero;stroke:none"
             d="m 881.008,3991.7 c -16.754,-30.84 -7.692,-112.72 22.336,-123.57 30.031,-10.85 37.836,40.2 36.933,76.24 -0.898,36.03 -33.558,94.66 -59.269,47.33" /><path
             id="path152"
             style="fill:#d9933b;fill-opacity:1;fill-rule:nonzero;stroke:none"
             d="m 3216.04,3929.28 c -60.08,97.97 -94.76,213.2 -94.76,336.56 0,40.3 3.7,79.7 10.8,118 -26.7,-71.2 -41.3,-148.4 -41.3,-228.9 0,-95.91 20.87,-186.88 58.05,-268.89 19.86,17.5 42.67,32.04 67.21,43.23" /><path
             id="path154"
             style="fill:#d9933b;fill-opacity:1;fill-rule:nonzero;stroke:none"
             d="m 3782.86,3621.51 c 18.85,-36.24 34.6,-73.91 46.46,-112.84 307.97,40.74 548.19,296.18 564.86,611.17 -64.98,-280.51 -312.93,-490.65 -611.32,-498.33" /><path
             id="path156"
             style="fill:#d9933b;fill-opacity:1;fill-rule:nonzero;stroke:none"
             d="m 2628.08,1721.84 c 0,120.69 33.26,233.59 90.99,330.18 -16.61,6.14 -33.11,13.4 -49.45,21.81 -80.55,-113.8 -128.04,-252.66 -128.04,-402.69 0,-385.5 312.5,-697.999 698,-697.999 27.6,0 54.8,1.601 81.5,4.8 l 46.8,92.299 c -32.4,1.8 -66.8,6.8 -95.1,6.8 -356,0 -644.7,288.7 -644.7,644.8" /><path
             id="path158"
             style="fill:#fdfbc2;fill-opacity:1;fill-rule:nonzero;stroke:none"
             d="m 2282.58,5033.24 c 0,0 -230.9,-166.6 -422.5,-251 -191.5,-84.3 -503.6,-107.1 -731,-76.7 -227.4,30.4 -262.9,76.7 -262.9,76.7 l 4.898,23.9 c 28.199,-2.2 59.699,-4.5 94.199,-6.7 101.303,-6.6 229.103,-13 380.403,-16.8 335.1,-8.4 610,132.1 838.6,242.7 8.8,4.2 17.5,8.4 26.1,12.6 l 72.2,-4.7" /><path
             id="path160"
             style="fill:#b97135;fill-opacity:1;fill-rule:nonzero;stroke:none"
             d="m 5197.58,4684.04 c -783.4,315.2 -1612.6,472.7 -2441.7,472.7 -64,0 -128.1,-0.9 -192.1,-2.8 -4.4,-0.1 -8.8,-0.2 -13.3,-0.5 -628.2,-19.6 -1254.3,-129.8 -1858.203,-330.6 -127.097,-42.3 -253.199,-88.5 -378.199,-138.8 -230.5975,174.2 -330.8007,474.3 -253.7967,752.8 40.5977,16.3 81.2967,32.3 122.0977,47.9 -37.899,-200.9 -34.301,-391.5 131.699,-516.9 125,50.3 251.102,96.5 378.199,138.8 603.903,200.8 1230.003,311 1858.203,330.6 4.5,0.3 8.9,0.4 13.3,0.5 64,1.9 128.1,2.8 192.1,2.8 829.1,0 1658.3,-157.5 2441.7,-472.7 166,125.4 169.6,316 131.7,516.9 40.8,-15.6 81.5,-31.6 122.1,-47.9 77,-278.5 -23.2,-578.6 -253.8,-752.8" /><path
             id="path162"
             style="fill:#b97135;fill-opacity:1;fill-rule:nonzero;stroke:none"
             d="m 5197.58,4684.04 c -783.4,315.2 -1612.6,472.7 -2441.7,472.7 -64,0 -128.1,-0.9 -192.1,-2.8 -4.4,-0.1 -8.8,-0.2 -13.3,-0.5 -628.2,-19.6 -1254.3,-129.8 -1858.203,-330.6 -127.097,-42.3 -253.199,-88.5 -378.199,-138.8 -230.5975,174.2 -330.8007,474.3 -253.7967,752.8 40.5977,16.3 81.2967,32.3 122.0977,47.9 -37.899,-200.9 -34.301,-391.5 131.699,-516.9 125,50.3 251.102,96.5 378.199,138.8 603.903,200.8 1230.003,311 1858.203,330.6 4.5,0.3 8.9,0.4 13.3,0.5 64,1.9 128.1,2.8 192.1,2.8 829.1,0 1658.3,-157.5 2441.7,-472.7 166,125.4 169.6,316 131.7,516.9 40.8,-15.6 81.5,-31.6 122.1,-47.9 77,-278.5 -23.2,-578.6 -253.8,-752.8" /><path
             id="path164"
             style="fill:#9f5825;fill-opacity:1;fill-rule:nonzero;stroke:none"
             d="m 5295.73,4790.65 c -814.89,327.87 -1677.42,491.71 -2539.85,491.71 -66.57,0 -133.25,-0.94 -199.82,-2.91 -4.58,-0.11 -9.15,-0.22 -13.84,-0.52 -653.45,-20.39 -1304.72,-135.02 -1932.892,-343.9 -132.211,-44 -263.379,-92.05 -393.402,-144.38 -13.969,10.56 -27.43,21.59 -40.465,33 38.848,-52.05 85.18,-99.24 138.617,-139.61 125,50.3 251.102,96.5 378.199,138.8 603.903,200.8 1230.003,311 1858.203,330.6 4.5,0.3 8.9,0.4 13.3,0.5 64,1.9 128.1,2.8 192.1,2.8 829.1,0 1658.3,-157.5 2441.7,-472.7 53.44,40.37 99.77,87.56 138.62,139.61 -13.04,-11.41 -26.5,-22.44 -40.47,-33" /><path
             id="path166"
             style="fill:#f8d7ba;fill-opacity:1;fill-rule:nonzero;stroke:none"
             d="m 5476.82,5262.73 c -1.19,58.09 -9.53,116.57 -25.44,174.11 -4.34,1.74 -8.67,3.48 -13.01,5.21 -0.11,0.41 -0.23,0.84 -0.34,1.25 -212.26,85.39 -427.38,160.42 -644.87,224.98 222.06,-65.45 441.64,-141.8 658.26,-228.94 16.14,-58.38 24.44,-117.7 25.4,-176.61" /><path
             id="path168"
             style="fill:#e1b169;fill-opacity:1;fill-rule:nonzero;stroke:none"
             d="m 35.4961,5282.13 c 2.2969,52.51 10.4531,105.23 24.8242,157.21 860.7967,346.3 1767.6997,521.9 2695.5997,521.9 694.32,0 1376.89,-98.33 2037.24,-292.96 217.49,-64.56 432.61,-139.59 644.87,-224.98 0.11,-0.41 0.23,-0.84 0.34,-1.25 -36.28,14.5 -72.65,28.76 -109.09,42.69 v 0 c 8.52,-45.17 14.94,-89.83 17.9,-133.34 -829.65,319.14 -1700.84,480.89 -2591.26,480.89 -890.58,0 -1761.744,-161.74 -2591.44,-480.92 2.95,43.52 9.375,88.18 17.899,133.37 v 0 c -40.801,-15.6 -81.5,-31.6 -122.0977,-47.9 -14.1446,-51.15 -22.3086,-103.02 -24.7852,-154.71" /><path
             id="path170"
             style="fill:#d79b4f;fill-opacity:1;fill-rule:nonzero;stroke:none"
             d="m 5473.97,5186.25 c -3.8,41.53 -11.2,83.07 -22.55,124.13 -34.68,13.96 -69.42,27.62 -104.24,41.02 -2.96,43.51 -9.38,88.17 -17.9,133.34 v 0 c 40.8,-15.6 81.5,-31.6 122.1,-47.9 15.91,-57.54 24.25,-116.02 25.44,-174.11 0.43,-25.6 -0.54,-51.14 -2.85,-76.48 m -5436.2044,0 c -2.8906,31.73 -3.6758,63.77 -2.2695,95.88 2.4766,51.69 10.6406,103.56 24.7852,154.71 40.5977,16.3 81.2967,32.3 122.0977,47.9 v 0 c -8.524,-45.19 -14.949,-89.85 -17.899,-133.37 -34.773,-13.38 -69.5386,-27.06 -104.1597,-40.99 -11.3555,-41.06 -18.7578,-82.6 -22.5547,-124.13" /><path
             id="path172"
             style="fill:#f68c60;fill-opacity:1;fill-rule:nonzero;stroke:none"
             d="m 3469.52,2284.67 c 99.58,-25.54 203.54,-75.66 307.66,-161.23 -68.7,86.16 -159.13,154.15 -262.9,196.12 -13.49,-13.58 -28.51,-25.39 -44.76,-34.89" /><path
             id="path174"
             style="fill:#f68c60;fill-opacity:1;fill-rule:nonzero;stroke:none"
             d="m 4410.78,4265.84 c 0,-50.2 -5.7,-99.1 -16.6,-146 -43.8,682.2 -632.9,783 -632.9,783 l 36.9,6.9 c 341.1,-16.8 612.6,-298.6 612.6,-643.9" /><path
             id="path176"
             style="fill:#bb5f2f;fill-opacity:1;fill-rule:nonzero;stroke:none"
             d="m 4129.58,2952.14 c 0,125.4 101.77,364.16 -9.43,416.15 -3.97,1.86 -7.87,3.37 -11.72,4.68 12.51,-71.4 -24.51,-210.2 -24.51,-210.2 l -0.03,-0.04 c -8.02,-24.78 -19.42,-57.1 -33.11,-100.6 -34.6,-109.9 -17.3,-300.79 138.7,-368.79 l 57.1,112.7 2.6,5.1 c 15.2,-5.1 30.6,-8.5 46,-10.4 -48.9,12.4 -165.6,52.4 -165.6,151.4" /><path
             id="path178"
             style="fill:#d9933b;fill-opacity:1;fill-rule:nonzero;stroke:none"
             d="m 4536.58,3240.84 c -24.2,7.9 -39.1,6.1 -37.9,-11.4 5.5,-81.3 -88.6,-290.8 -163,-290.8 -68.46,0 -114.83,53.28 -86.4,135.15 l -0.18,-0.13 c 101.68,307.62 -140.68,299.31 -140.68,299.31 57.4,-29.84 65.78,-94.93 65.88,-129.64 0.42,-7.78 0.06,-15.48 -1.22,-22.89 -4.1,-24 -20.6,-63.8 -34.1,-110.4 -28,-96.7 -43.1,-222.5 92,-296.2 5.3,-2.9 10.5,-5.5 15.6,-7.8 64,-29.3 114.8,-17.3 154.2,11.5 58.8,42.9 91.7,123 103.9,158.2 3.1,8.9 4.8,14.9 5.3,16.7 l 0.1,0.5 c 3.5,23.5 5.1,49.3 4.5,77.6 -0.9,46.5 7.9,106.5 22,170.3" /><path
             id="path180"
             style="fill:#a21f26;fill-opacity:1;fill-rule:nonzero;stroke:none"
             d="m 3798.95,4928.92 c -11.7,0.55 -22.46,0.82 -32.9,0.82 -363.76,0 -659.71,-295.95 -659.71,-659.71 0,-126.89 36.1,-245.47 98.45,-346.18 8.99,4.58 18.23,8.72 27.69,12.36 -60.81,96.86 -96.14,211.26 -96.14,333.82 0,347.22 282.49,629.71 629.71,629.71 9.96,0 20.27,-0.26 31.46,-0.78 335.51,-16.53 598.34,-292.78 598.34,-628.93 0,-48.36 -5.46,-96.34 -16.21,-142.61 -65.94,-284.62 -314.98,-483.95 -606.95,-486.94 5.45,-9.79 10.72,-19.66 15.71,-29.67 299.2,9.86 552.55,216.66 620.45,509.83 11.28,48.48 17,98.74 17,149.39 0,352.16 -275.36,641.58 -626.9,658.89" /><path
             id="path182"
             style="fill:#a21f26;fill-opacity:1;fill-rule:nonzero;stroke:none"
             d="m 2080.13,2678.46 c -118.85,-155.59 -305.2,-248.32 -500.89,-248.32 -33.98,0 -68.34,2.76 -102.08,8.2 -40.18,6.54 -79.7,17.02 -117.57,31.16 -26.47,56.91 -249.04,533.59 -395.473,782.6 86.053,22.57 176.633,113.9 176.633,215.04 0,70.92 18.71,121.03 54.11,144.91 31.4,21.19 76.24,20.96 129.66,-0.61 69.78,-28.29 139.69,-29.93 187,-4.39 31.26,16.88 52.89,45.27 63.06,82.56 34.29,0.3 69.84,-2.36 104.32,-7.82 l 2.44,-0.46 c 2.9,-0.47 5.83,-1.11 8.74,-1.63 3.25,9.86 7.01,19.34 11.34,28.42 -4.34,0.81 -8.68,1.73 -13,2.45 l -2.48,0.48 c -35.24,5.7 -71.14,8.59 -106.7,8.59 -5.52,0 -10.95,-0.1 -16.59,-0.2 h -12.31 l -2.4,-12.08 c -6.87,-34.6 -23.91,-59.47 -50.67,-73.91 -39.55,-21.34 -99.9,-19.17 -161.5,5.79 -63.09,25.5 -117.64,24.69 -157.69,-2.32 -44.05,-29.71 -67.33,-88.42 -67.33,-169.78 0,-94.85 -92.58,-179.76 -172.227,-189.52 l -22.929,-2.81 11.894,-19.8 c 153.602,-255.73 404.932,-798.22 407.452,-803.67 l 2.55,-5.52 5.68,-2.18 c 41.5,-15.97 84.96,-27.71 129.19,-34.91 35.35,-5.7 71.31,-8.59 106.88,-8.59 208.61,0 407.25,100.41 531.38,268.6 l 0.51,0.71 c -10.56,2.23 -20.92,5.23 -31,9.01" /><path
             id="path184"
             style="fill:#a21f26;fill-opacity:1;fill-rule:nonzero;stroke:none"
             d="m 3493.33,1209.22 c -11.48,-28.63 -23.24,-59.36 -34.97,-91.33 -8.53,-23.35 -34.48,-31.61 -89.58,-28.48 -12.85,0.72 -26.27,1.97 -39.26,3.18 -20.13,1.87 -39.13,3.65 -56.67,3.65 -347.22,0 -629.7,282.52 -629.7,629.8 0,114.7 30.43,224.62 88.33,321.57 -9.55,3.21 -19.06,6.8 -28.54,10.74 -58.88,-100.45 -89.79,-213.95 -89.79,-332.31 0,-363.82 295.94,-659.8 659.7,-659.8 16.14,0 34.47,-1.71 53.88,-3.52 13.27,-1.23 26.98,-2.52 40.37,-3.26 6.27,-0.35 14.3,-0.81 23.28,-0.81 33.73,0 80.62,6.45 96.15,48.92 11.62,31.68 23.28,62.13 34.66,90.51 67.71,169.63 143.86,321.2 209.99,440.87 l -39.3,-9.32 c -63.51,-116.67 -134.76,-260.59 -198.55,-420.41" /><path
             id="path186"
             style="fill:#a21f26;fill-opacity:1;fill-rule:nonzero;stroke:none"
             d="m 3901.13,1928.04 c -11.07,34.32 -24.87,67.65 -41.04,99.04 -19.86,38.71 -43.79,75.69 -71.11,109.91 -70.4,88.28 -160.19,155.49 -260.9,197.67 -6.99,-8.33 -14.5,-16.16 -22.47,-23.4 100.53,-39.91 190.2,-105.56 259.92,-192.98 26.09,-32.67 48.92,-67.96 67.87,-104.91 14.33,-27.83 26.72,-57.25 36.88,-87.55 l 11.31,-36.96 c 10.86,16.37 17.18,25.45 17.54,25.95 l 4.29,6.12 -2.29,7.11" /><path
             id="path188"
             style="fill:#a21f26;fill-opacity:1;fill-rule:nonzero;stroke:none"
             d="m 3884.39,1974.08 c 0,0 36.84,-101.22 47.01,-152.51 10.16,-51.28 -33.21,-14.7 -33.21,-14.7 0,0 -15.19,101.63 -43.75,161.17 l 29.95,6.04" /><path
             id="path190"
             style="fill:#fdfbc2;fill-opacity:1;fill-rule:nonzero;stroke:none"
             d="m 3263.96,2274.63 c 0,-33.3 -27.41,-60.29 -61.23,-60.29 -33.82,0 -61.23,26.99 -61.23,60.29 0,33.3 27.41,60.29 61.23,60.29 33.82,0 61.23,-26.99 61.23,-60.29" /><path
             id="path192"
             style="fill:#fdfbc2;fill-opacity:1;fill-rule:nonzero;stroke:none"
             d="m 3364.65,2369.55 c 0,-21.53 -16.55,-38.99 -36.97,-38.99 -20.42,0 -36.97,17.46 -36.97,38.99 0,21.52 16.55,38.98 36.97,38.98 20.42,0 36.97,-17.46 36.97,-38.98" /><path
             id="path194"
             style="fill:#fdfbc2;fill-opacity:1;fill-rule:nonzero;stroke:none"
             d="m 3328.19,1874.87 c 0,-31.66 -28.09,-57.33 -62.73,-57.33 -34.65,0 -62.73,25.67 -62.73,57.33 0,31.67 28.08,57.34 62.73,57.34 34.64,0 62.73,-25.67 62.73,-57.34" /><path
             id="path196"
             style="fill:#e1dabc;fill-opacity:1;fill-rule:nonzero;stroke:none"
             d="m 2556.32,2859.44 c -99.7,-112.1 -232.1,-180.3 -377.3,-180.3 -305.2,0 -553.5,301.2 -561.3,676.5 -0.1,6 -0.2,12 -0.2,18.1 0,116.3 23.1,226 64,322.3 57.4,135.4 149.9,244.5 262.5,308.7 -48.7,-54.5 -89.6,-119.5 -120.3,-192.1 -40.9,-96.3 -64,-206 -64,-322.3 0,-6.1 0.1,-12.1 0.2,-18.1 7.8,-375.3 256.1,-676.5 561.3,-676.5 83.9,0 163.6,22.8 235.1,63.7" /><path
             id="path198"
             style="fill:#e1dabc;fill-opacity:1;fill-rule:nonzero;stroke:none"
             d="m 3687.42,2849.24 c -90.6,-105.4 -213.3,-170.1 -348.2,-170.1 -257,0 -469.2,234.4 -501.6,538.1 v 0.1 c -2.8,26.4 -4.3,53.4 -4.3,80.8 0,21.9 0.9,43.5 2.7,64.8 5.9,69.1 21.1,134.7 44,195.1 v 0.1 c 13,34.5 28.5,67.2 46.3,97.8 52.2,90 123.5,162.1 206.7,207.6 -23.7,-27.6 -45.4,-58.1 -64.4,-91 -48.9,-84.4 -81,-184.5 -90.3,-293 -1.8,-21.3 -2.7,-42.9 -2.7,-64.8 0,-341.9 226.5,-619 505.9,-619 73.4,0 143,19.1 205.9,53.5" /><path
             id="path200"
             style="fill:#c22c2c;fill-opacity:1;fill-rule:nonzero;stroke:none"
             d="m 1608.03,3447.27 c 0,0 -5.06,30.83 -10.1,81.15 15.66,10.98 28.5,24.33 39.02,38.62 -7.54,-32.68 -13.19,-66.34 -16.81,-100.8 -3.85,-6.52 -7.88,-12.85 -12.11,-18.97" /><path
             id="path202"
             style="fill:#dee3df;fill-opacity:1;fill-rule:nonzero;stroke:none"
             d="m 1620.14,3466.24 c 3.62,34.46 9.27,68.12 16.81,100.8 1.33,1.81 2.63,3.63 3.89,5.47 -7.91,-32.83 -13.91,-66.67 -17.84,-101.34 -0.94,-1.64 -1.9,-3.3 -2.86,-4.93" /><path
             id="path204"
             style="fill:#971c1f;fill-opacity:1;fill-rule:nonzero;stroke:none"
             d="m 1597.93,3528.42 c -4.23,42.21 -8.45,98.17 -9.66,161.16 28.98,-0.41 58.62,-2.88 87.56,-7.31 -14.07,-35.01 -25.82,-71.7 -34.99,-109.76 -1.26,-1.84 -2.56,-3.66 -3.89,-5.47 -10.52,-14.29 -23.36,-27.64 -39.02,-38.62" /><path
             id="path206"
             style="fill:#d1ac39;fill-opacity:1;fill-rule:nonzero;stroke:none"
             d="m 2740.52,3508.17 c 0,0 -70.02,423.28 -399.49,532.38 -51.91,19.59 -106.99,30.13 -164.08,30.13 -41.97,0 -82.87,-5.7 -122.21,-16.5 -157.41,-30.17 -239.63,-111.28 -291.32,-208.3 -30.24,-40.72 -56.59,-85.91 -78.36,-134.69 -32.09,5.15 -64.71,7.96 -97.12,8.39 -0.68,226.05 40.65,524.65 249.84,615.26 93.94,40.69 195.34,68 295.34,68 273.13,0 535.8,-203.69 607.4,-894.67" /><path
             id="path208"
             style="fill:#dee3df;fill-opacity:1;fill-rule:nonzero;stroke:none"
             d="m 1687.9,3710.67 -1.96,0.38 c -0.29,0.04 -0.58,0.09 -0.88,0.14 21.77,48.78 48.12,93.97 78.36,134.69 -3.07,-5.77 -6.02,-11.56 -8.89,-17.43 -25.34,-36.19 -47.7,-75.63 -66.63,-117.78 m 653.13,329.88 c -48.72,16.13 -103.1,25.38 -163.78,25.38 -21.37,0 -43.44,-1.15 -66.39,-3.54 -19.7,-2.06 -38.39,-4.81 -56.12,-8.21 39.34,10.8 80.24,16.5 122.21,16.5 57.09,0 112.17,-10.54 164.08,-30.13" /><path
             id="path210"
             style="fill:#7d161a;fill-opacity:1;fill-rule:nonzero;stroke:none"
             d="m 1675.83,3682.27 c -28.94,4.43 -58.58,6.9 -87.56,7.31 -0.19,9.85 -0.3,19.83 -0.33,30 32.41,-0.43 65.03,-3.24 97.12,-8.39 0.3,-0.05 0.59,-0.1 0.88,-0.14 l 1.96,-0.38 c -2.17,-4.84 -4.3,-9.72 -6.38,-14.63 -1.94,-4.56 -3.84,-9.15 -5.69,-13.77" /><path
             id="path212"
             style="fill:#bbb89a;fill-opacity:1;fill-rule:nonzero;stroke:none"
             d="m 1623,3471.17 c 3.93,34.67 9.93,68.51 17.84,101.34 9.17,38.06 20.92,74.75 34.99,109.76 1.85,4.62 3.75,9.21 5.69,13.77 2.08,4.91 4.21,9.79 6.38,14.63 18.93,42.15 41.29,81.59 66.63,117.78 -58.32,-119.49 -75.83,-259.23 -131.53,-357.28" /><path
             id="path214"
             style="fill:#d1ac39;fill-opacity:1;fill-rule:nonzero;stroke:none"
             d="m 3844.26,3236.55 c 0,0 -0.33,11.25 -1.96,30.86 0.47,10.91 0.71,21.91 0.71,32.97 0,14.5 -0.4,28.9 -1.3,43.2 -5.6,100.9 -31,195.1 -71.5,276.9 -1.21,2.44 -2.42,4.85 -3.65,7.27 4.29,0.09 8.55,0.22 12.82,0.39 1.17,-2.2 2.34,-4.42 3.49,-6.63 -0.01,0 -0.01,0 -0.01,0 18.85,-36.24 34.6,-73.91 46.46,-112.84 24.73,3.27 49.02,7.93 72.8,13.89 -4.75,-30.51 -10.16,-61.91 -16.26,-94.26 -11.59,-3.26 -23.95,-6.4 -36.78,-9.17 1.93,-14.16 3.29,-28.46 4.11,-42.87 8.62,3.6 16.91,7.58 24.82,11.77 -9.76,-48.49 -20.99,-98.92 -33.75,-151.48 m -673.02,667.14 c 11.85,8.32 24.43,15.73 37.57,22.16 2.32,-3.65 4.68,-7.25 7.08,-10.85 -15.57,-3.05 -30.45,-6.85 -44.65,-11.31" /><path
             id="path216"
             style="fill:#c22c2c;fill-opacity:1;fill-rule:nonzero;stroke:none"
             d="m 3766.56,3627.75 c -45.56,89.32 -109.21,163.39 -184.67,214.53 -52.65,38.12 -115.85,65.45 -191.67,75.71 -28.68,3.89 -55.81,5.7 -81.44,5.7 -33.43,0 -64.33,-3.08 -92.89,-8.69 -2.4,3.6 -4.76,7.2 -7.08,10.85 2.39,1.18 4.8,2.32 7.23,3.43 0,0 0,0 0,0.01 5.4,2.47 10.88,4.78 16.44,6.92 0,0.01 0,0 0,0.01 25.94,9.98 53.42,16.35 81.06,18.69 8.71,0.74 17.39,1.08 26.01,1.08 8.39,0 16.72,-0.33 25.01,-0.95 v 0 c -78.15,97.7 -124.98,221.54 -124.98,356.38 0,23.18 1.38,46.02 4.06,68.48 19.48,5.03 40,8.92 61.56,11.54 12.21,1.49 24.31,2.78 36.23,3.87 -3.03,-7.94 -6.06,-15.88 -9.09,-23.82 -8.4,-22.04 9.29,-50.31 31.43,-55.36 3.92,-0.89 7.72,-1.32 11.37,-1.32 9.31,0 17.68,2.77 24.79,7.62 3.55,-0.84 7.11,-1.47 10.59,-1.62 0.75,-0.04 1.51,-0.05 2.27,-0.05 23.44,-0.01 44.94,16.19 51.57,38.71 3.86,13.11 2.62,27.3 -2.75,39.73 53.91,-1.85 103.81,-9.04 149.38,-22.08 -0.07,-2.85 0.3,-5.66 1.16,-8.33 4.51,-13.95 16.08,-21.68 29.6,-21.68 2.38,0 4.83,0.24 7.3,0.73 l 0.27,0.07 0.74,-0.14 1.99,-0.1 0.13,-0.04 c 0.61,-0.25 3.32,-1.42 4.46,-1.77 0.94,-0.64 1.92,-1.27 2.07,-1.27 0.14,0 -0.48,0.58 -2.66,2.29 6.53,-5.12 12.55,-8.79 21.21,-8.79 5.85,0 12.6,2.07 17.67,5.69 160.56,-84.67 245.91,-270.54 231.23,-591.88 -37.27,-7.65 -75.87,-11.67 -115.4,-11.67 -38.4,0 -75.9,3.85 -112.17,11.08 1.4,-1.78 2.84,-3.57 4.23,-5.36 28.73,-37.19 54.61,-76.56 76.56,-117.81 -4.27,-0.17 -8.53,-0.3 -12.82,-0.39 m -29.51,303.29 c -16.51,0 -33.59,-11.61 -38.43,-28.07 l -0.08,-0.35 c -12.31,-13.2 -21.68,-28.83 -28.09,-46.47 -5.53,-15.23 6.22,-32.86 20.96,-36.9 2.72,-0.75 5.38,-1.1 7.96,-1.1 12.84,0 23.56,8.75 28.44,20.95 4.96,-4.59 11.42,-7.53 19.29,-7.53 14.92,0 31.69,13.79 30,30 -1.06,10.14 -3.74,18.41 -9.16,26.15 3.81,10.35 1.41,22.43 -6.55,31.99 -6.58,7.91 -15.38,11.33 -24.34,11.33 m -231.44,227.34 c -14.8,0 -29.38,-12.56 -29.86,-27.84 -12.12,-1.17 -23.02,-8.94 -26.48,-21.52 -3,-10.92 1.08,-23.44 9.55,-30.9 -5.33,-17.62 11.35,-38.03 29.68,-38.03 2.6,0 5.23,0.41 7.83,1.3 10.71,3.64 21.42,7.28 32.13,10.91 26.28,8.93 27.52,39.21 7.16,54.84 l -0.76,0.51 c 0.87,6.89 1.16,13.84 0.75,20.73 -0.94,16.18 -13.11,30 -30,30 m 231.48,64.11 c -11.32,0 -21.89,-3.94 -30.11,-11.02 -11.02,-2.82 -20.95,-9.82 -27.88,-20.49 -11.1,-17.1 -19.17,-36.74 -22.83,-56.81 -3.49,-19.12 2.12,-41.01 20.68,-50.82 7.31,-3.86 14.79,-5.69 22.14,-5.69 11.51,0 22.7,4.5 32.39,12.73 23.21,19.71 39.32,46.54 48.24,75.47 6.94,22.49 -8.23,50.07 -31.43,55.35 -3.77,0.86 -7.53,1.28 -11.2,1.28" /><path
             id="path218"
             style="fill:#c4634b;fill-opacity:1;fill-rule:nonzero;stroke:none"
             d="m 3375.14,4314.81 c -3.65,0 -7.45,0.43 -11.37,1.32 -22.14,5.05 -39.83,33.32 -31.43,55.36 3.03,7.94 6.06,15.88 9.09,23.82 31.55,2.89 62.06,4.37 91.45,4.37 9.69,0 19.29,-0.16 28.73,-0.48 5.37,-12.43 6.61,-26.62 2.75,-39.73 -6.63,-22.52 -28.13,-38.72 -51.57,-38.71 -0.76,0 -1.52,0.01 -2.27,0.05 -3.48,0.15 -7.04,0.78 -10.59,1.62 -7.11,-4.85 -15.48,-7.62 -24.79,-7.62" /><path
             id="path220"
             style="fill:#c4634b;fill-opacity:1;fill-rule:nonzero;stroke:none"
             d="m 3699.09,4077.66 c -7.35,0 -14.83,1.83 -22.14,5.69 -18.56,9.81 -24.17,31.7 -20.68,50.82 3.66,20.07 11.73,39.71 22.83,56.81 6.93,10.67 16.86,17.67 27.88,20.49 8.22,7.08 18.79,11.02 30.11,11.02 3.67,0 7.43,-0.42 11.2,-1.28 23.2,-5.28 38.37,-32.86 31.43,-55.35 -8.92,-28.93 -25.03,-55.76 -48.24,-75.47 -9.69,-8.23 -20.88,-12.73 -32.39,-12.73" /><path
             id="path222"
             style="fill:#7d161a;fill-opacity:1;fill-rule:nonzero;stroke:none"
             d="m 3699.37,3818.15 c -2.58,0 -5.24,0.35 -7.96,1.1 -14.74,4.04 -26.49,21.67 -20.96,36.9 6.41,17.64 15.78,33.27 28.09,46.47 l 0.08,0.35 c 4.84,16.46 21.92,28.07 38.43,28.07 8.96,0 17.76,-3.42 24.34,-11.33 7.96,-9.56 10.36,-21.64 6.55,-31.99 5.42,-7.74 8.1,-16.01 9.16,-26.15 1.69,-16.21 -15.08,-30 -30,-30 -7.87,0 -14.33,2.94 -19.29,7.53 -4.88,-12.2 -15.6,-20.95 -28.44,-20.95" /><path
             id="path224"
             style="fill:#7d161a;fill-opacity:1;fill-rule:nonzero;stroke:none"
             d="m 3488.5,4040.09 c -18.33,0 -35.01,20.41 -29.68,38.03 -8.47,7.46 -12.55,19.98 -9.55,30.9 3.46,12.58 14.36,20.35 26.48,21.52 0.48,15.28 15.06,27.84 29.86,27.84 16.89,0 29.06,-13.82 30,-30 0.41,-6.89 0.12,-13.84 -0.75,-20.73 l 0.76,-0.51 c 20.36,-15.63 19.12,-45.91 -7.16,-54.84 -10.71,-3.63 -21.42,-7.27 -32.13,-10.91 -2.6,-0.89 -5.23,-1.3 -7.83,-1.3" /><path
             id="path226"
             style="fill:#7d161a;fill-opacity:1;fill-rule:nonzero;stroke:none"
             d="m 3677.26,4338.09 c -8.66,0 -14.68,3.67 -21.21,8.79 2.18,-1.71 2.8,-2.29 2.66,-2.29 -0.15,0 -1.13,0.63 -2.07,1.27 -1.14,0.35 -3.85,1.52 -4.46,1.77 l -0.13,0.04 -1.99,0.1 -0.74,0.14 -0.27,-0.07 c -2.47,-0.49 -4.92,-0.73 -7.3,-0.73 -13.52,0 -25.09,7.73 -29.6,21.68 -0.86,2.67 -1.23,5.48 -1.16,8.33 29.9,-8.55 57.9,-19.61 83.94,-33.34 -5.07,-3.62 -11.82,-5.69 -17.67,-5.69" /><path
             id="path228"
             style="fill:#dee3df;fill-opacity:1;fill-rule:nonzero;stroke:none"
             d="m 3842.3,3267.41 c -8.36,100.9 -51.09,423.29 -260.41,574.87 75.46,-51.14 139.11,-125.21 184.67,-214.53 1.23,-2.42 2.44,-4.83 3.65,-7.27 40.5,-81.8 65.9,-176 71.5,-276.9 0.9,-14.3 1.3,-28.7 1.3,-43.2 0,-11.06 -0.24,-22.06 -0.71,-32.97" /><path
             id="path230"
             style="fill:#d1ac39;fill-opacity:1;fill-rule:nonzero;stroke:none"
             d="m 2879.41,3564.13 c -4.67,49.72 -30.87,392.86 109.85,622.46 0.34,-12.36 3.2,-24.75 10.8,-34.66 7.54,-9.83 14.32,-13.82 20.1,-13.82 12.91,0 20.78,19.95 20.78,39.27 0,15.19 1.02,52.94 -5.15,73.26 21.24,24.64 45.19,46.99 72.21,66.4 -0.39,-5.59 -0.72,-11.17 -0.97,-16.79 -10.64,-46.74 -16.25,-95.39 -16.25,-145.31 0,-92.63 19.47,-180.68 54.31,-260.47 -185.14,-72.7 -246.17,-260.06 -261.05,-318.65 -1.58,-3.87 -3.12,-7.77 -4.63,-11.69" /><path
             id="path232"
             style="fill:#dee3df;fill-opacity:1;fill-rule:nonzero;stroke:none"
             d="m 2880.02,3558.04 c 0,0 -0.24,2.1 -0.61,6.09 1.51,3.92 3.05,7.82 4.63,11.69 -2.58,-10.15 -3.77,-16.43 -3.99,-17.59 -0.01,-0.03 -0.02,-0.06 -0.03,-0.09 v -0.1" /><path
             id="path234"
             style="fill:#971c1f;fill-opacity:1;fill-rule:nonzero;stroke:none"
             d="m 3782.87,3621.51 c -1.15,2.21 -2.32,4.43 -3.49,6.63 -21.95,41.25 -47.83,80.62 -76.56,117.81 -1.39,1.79 -2.83,3.58 -4.23,5.36 36.27,-7.23 73.77,-11.08 112.17,-11.08 39.53,0 78.13,4.02 115.4,11.67 -1.36,-29.76 -3.58,-60.75 -6.68,-92.86 -47.16,-11.66 -96.34,-18.04 -146.79,-18.56 3.5,-6.28 6.92,-12.6 10.25,-18.97 -0.02,0 -0.06,0 -0.08,0 m -550.38,314.71 c -60.81,96.85 -96.14,211.26 -96.14,333.81 0,22.87 1.23,45.45 3.62,67.69 30.91,17.94 65.33,32.28 103.68,42.18 -2.68,-22.46 -4.06,-45.3 -4.06,-68.48 0,-134.84 46.83,-258.68 124.98,-356.38 -8.29,0.62 -16.62,0.95 -25.01,0.95 -8.62,0 -17.3,-0.34 -26.01,-1.08 -27.64,-2.34 -55.12,-8.71 -81.06,-18.69" /><path
             id="path236"
             style="fill:#dadd9e;fill-opacity:1;fill-rule:nonzero;stroke:none"
             d="m 3853.19,3376.26 c -0.82,14.41 -2.18,28.71 -4.11,42.87 12.83,2.77 25.19,5.91 36.78,9.17 -2.49,-13.22 -5.13,-26.74 -7.85,-40.27 -7.91,-4.19 -16.2,-8.17 -24.82,-11.77" /><path
             id="path238"
             style="fill:#dadd9e;fill-opacity:1;fill-rule:nonzero;stroke:none"
             d="m 3020.16,4138.11 c -5.78,0 -12.56,3.99 -20.1,13.82 -7.6,9.91 -10.46,22.3 -10.8,34.66 13.83,22.56 29.3,44.06 46.53,64.05 6.17,-20.32 5.15,-58.07 5.15,-73.26 0,-19.32 -7.87,-39.27 -20.78,-39.27" /><path
             id="path240"
             style="fill:#b47420;fill-opacity:1;fill-rule:nonzero;stroke:none"
             d="m 3145.09,3894.47 c -34.84,79.79 -54.31,167.84 -54.31,260.47 0,49.92 5.61,98.57 16.25,145.31 -0.46,-10.01 -0.69,-20.09 -0.69,-30.22 0,-126.89 36.1,-245.47 98.45,-346.18 3.71,1.89 7.45,3.7 11.25,5.44 0,-0.01 0,-0.01 0,-0.01 -2.43,-1.11 -4.84,-2.25 -7.23,-3.43 -13.14,-6.43 -25.72,-13.84 -37.57,-22.16 -8.99,-2.82 -17.69,-5.9 -26.15,-9.22" /><path
             id="path242"
             style="fill:#b47420;fill-opacity:1;fill-rule:nonzero;stroke:none"
             d="m 3829.32,3508.67 c -11.86,38.93 -27.61,76.6 -46.46,112.84 v 0 c 0.02,0 0.06,0 0.08,0 1.85,-3.55 3.67,-7.12 5.46,-10.7 43.72,1.44 86.47,7.09 127.79,16.59 -3.76,-33.69 -8.44,-68.6 -14.07,-104.84 -23.78,-5.96 -48.07,-10.62 -72.8,-13.89" /><path
             id="path244"
             style="fill:#7d161a;fill-opacity:1;fill-rule:nonzero;stroke:none"
             d="m 3788.4,3610.81 c -1.79,3.58 -3.61,7.15 -5.46,10.7 -3.33,6.37 -6.75,12.69 -10.25,18.97 50.45,0.52 99.63,6.9 146.79,18.56 -1,-10.43 -2.1,-20.95 -3.29,-31.64 -41.32,-9.5 -84.07,-15.15 -127.79,-16.59 m -583.61,313.04 c -62.35,100.71 -98.45,219.29 -98.45,346.18 0,10.13 0.23,20.21 0.69,30.22 0.25,5.62 0.58,11.2 0.97,16.79 10.22,7.34 20.85,14.23 31.96,20.68 -2.39,-22.24 -3.62,-44.82 -3.62,-67.69 0,-122.55 35.33,-236.96 96.14,-333.81 0,-0.01 0,0 0,-0.01 -5.56,-2.14 -11.04,-4.45 -16.44,-6.92 -3.8,-1.74 -7.54,-3.55 -11.25,-5.44" /><path
             id="path246"
             style="fill:#bbb89a;fill-opacity:1;fill-rule:nonzero;stroke:none"
             d="m 2880.02,3558.04 v 0.1 c 0.01,0.03 0.02,0.06 0.03,0.09 -0.02,-0.12 -0.03,-0.19 -0.03,-0.19" /><path
             id="path248"
             style="fill:#fdfbc2;fill-opacity:1;fill-rule:nonzero;stroke:none"
             d="m 1895.9,2294.38 c 0,0 194.55,-155.73 102.29,-368.68 0,0 88.25,107.95 62.17,222.27 -26.07,114.32 -164.46,146.41 -164.46,146.41" /><path
             id="path250"
             style="fill:#211c1d;fill-opacity:1;fill-rule:nonzero;stroke:none"
             d="m 2862.14,2033.5 c -54.21,6.33 -98.19,18.3 -148.2,38.48 -3.03,-4.79 -5.99,-9.62 -8.89,-14.5 -0.01,0.01 -0.02,0.01 -0.03,0.01 3.82,6.41 7.74,12.76 11.77,19.02 50.82,-15.52 99.63,-30.9 145.35,-43.01" /><path
             id="path252"
             style="fill:#d1ac39;fill-opacity:1;fill-rule:nonzero;stroke:none"
             d="m 2625.63,2003.13 c -75.23,28.58 -153.45,38.08 -224.22,38.08 -140.23,0 -251.15,-37.31 -251.15,-37.31 l -1.16,106.14 c 64.89,27.44 132.27,38.17 200.21,38.17 124.83,0 251.45,-36.25 367.48,-71.7 -4.03,-6.26 -7.95,-12.61 -11.77,-19.02 -11.87,4.86 -23.68,10.3 -35.4,16.34 -16.01,-22.62 -30.71,-46.22 -43.99,-70.7" /><path
             id="path254"
             style="fill:#c22c2c;fill-opacity:1;fill-rule:nonzero;stroke:none"
             d="m 3008.27,1909.52 c -94.7,0 -193.95,14.68 -282.27,49.01 4.68,33.22 10.06,62.46 14.95,86.02 -7.3,2.26 -14.58,4.77 -21.83,7.45 -0.01,0 -0.01,0 -0.01,-0.01 -0.02,0.01 -0.03,0.01 -0.05,0.02 l 0.01,0.01 c -4.68,1.73 -9.36,3.55 -14.02,5.46 2.9,4.88 5.86,9.71 8.89,14.5 50.01,-20.18 93.99,-32.15 148.2,-38.48 32.55,-8.62 63.53,-15.59 92.59,-19.78 27.54,-3.97 54.63,-5.7 80.96,-5.7 178.06,0.01 320.59,79.13 320.59,79.13 l 10.36,-83.25 c -63.59,-55.87 -205,-94.38 -358.37,-94.38" /><path
             id="path256"
             style="fill:#971c1f;fill-opacity:1;fill-rule:nonzero;stroke:none"
             d="m 2726,1958.53 c -11.11,4.32 -22.07,8.97 -32.81,13.92 11.01,25.78 23.79,50.88 38.29,75.16 -4.13,1.39 -8.25,2.85 -12.37,4.38 0,0.01 0,0.01 0.01,0.01 7.25,-2.68 14.53,-5.19 21.83,-7.45 -4.89,-23.56 -10.27,-52.8 -14.95,-86.02" /><path
             id="path258"
             style="fill:#b47420;fill-opacity:1;fill-rule:nonzero;stroke:none"
             d="m 2666.18,1985.65 c -13.38,6.49 -26.91,12.3 -40.55,17.48 13.28,24.48 27.98,48.08 43.99,70.7 11.72,-6.04 23.53,-11.48 35.4,-16.34 0.01,0 0.02,0 0.03,-0.01 4.66,-1.91 9.34,-3.73 14.02,-5.46 l -0.01,-0.01 c -5.38,2 -10.76,4.11 -16.12,6.34 -13.8,-23.55 -26.07,-47.82 -36.76,-72.7" /><path
             id="path260"
             style="fill:#7d161a;fill-opacity:1;fill-rule:nonzero;stroke:none"
             d="m 2693.19,1972.45 c -6.36,2.93 -12.63,5.97 -18.84,9.13 -2.72,1.39 -5.44,2.74 -8.17,4.07 10.69,24.88 22.96,49.15 36.76,72.7 5.36,-2.23 10.74,-4.34 16.12,-6.34 0.02,-0.01 0.03,-0.01 0.05,-0.02 4.12,-1.53 8.24,-2.99 12.37,-4.38 -14.5,-24.28 -27.28,-49.38 -38.29,-75.16" /><path
             id="path262"
             style="fill:#100f0d;fill-opacity:1;fill-rule:nonzero;stroke:none"
             d="m 1673.43,3288.41 c -1.9,20.2 -3.1,40.7 -3.4,61.4 -0.2,4.8 -0.2,9.7 -0.2,14.5 0,359.2 237.6,651.5 529.7,651.5 292.1,0 529.7,-292.3 529.7,-651.5 0,-343.7 -217.5,-626.1 -492.2,-649.9 -12.4,-1.1 -24.9,-1.6 -37.5,-1.6 -7.5,0 -15,0.2 -22.5,0.6 -261,13.5 -473.8,260.4 -503.6,575 z m 512,-633.9 c 17.4,0 34.7,0.9 51.7,2.7 307,31.5 548,341.4 548,718.8 0,398.5 -268.5,721.5 -599.7,721.5 -331.2,0 -599.7,-323 -599.7,-721.5 0,-6 0.1,-12 0.3,-18 0.3,-20.3 1.4,-40.4 3.2,-60.3 17.8,-197.6 101.8,-371 224.9,-488 -44.9,5.7 -87.1,5.5 -122.9,2.1 -37.4,-3.7 -67.9,-10.7 -88.8,-17.1 -10.4,-2.9 -18.5,-6.1 -23.9,-8.2 -5.4,-2.1 -8.2,-3.5 -8.2,-3.5 0,0 3,-0.1 8.8,-0.4 5.8,-0.4 14.2,-0.9 24.9,-1.6 21.2,-1.7 51.2,-4.6 86.4,-9.6 17.6,-2.6 36.6,-5.5 56.3,-9.5 19.8,-3.6 40.5,-8.4 61.6,-13.7 21,-5.4 42.5,-11.6 64.1,-18.7 10.8,-3.3 21.3,-7.8 32.2,-11.3 10.6,-4.3 21.4,-8.1 31.9,-12.8 10.5,-4.6 21.2,-8.8 31.4,-14 5.1,-2.5 10.2,-4.9 15.4,-7.3 5.1,-2.6 10.1,-5.2 15.1,-7.8 10.1,-5.1 19.9,-10.6 29.5,-16.1 9.9,-5.2 19,-11.2 28.3,-16.9 9.4,-5.4 18.1,-11.6 26.9,-17.3 4.3,-2.9 8.7,-5.8 12.9,-8.6 4.2,-3.1 8.3,-6.1 12.3,-9 16.6,-11.4 31.3,-23.6 45.5,-34.3 4.2,-3.5 8.3,-6.9 12.2,-10.1 2.5,-2.2 5,-4.3 7.5,-6.3 3.2,-2.6 6.3,-5.1 9.3,-7.6 2.9,-2.5 5.7,-5 8.4,-7.5 9.6,-8.7 19,-16 26.3,-22.8 l 2.5,-2.4 c 7.6,-7.4 14.2,-12.8 18.5,-16.7 3.9,-3.3 6.2,-5.3 6.7,-5.7 -0.2,0.6 -1.4,3.4 -3.4,8 -2.5,5.3 -5.8,13.2 -10.8,22.9 -2.3,4.9 -5.2,10.2 -8.4,15.9 -3.2,5.7 -6.9,11.8 -10.8,18.3 -7.5,13.3 -18,26.8 -28.9,42.2 -3,3.7 -6.1,7.5 -9.2,11.3 -9.3,11.3 -19.3,23.2 -30.9,34.6 -2.9,3 -5.9,6.1 -8.9,9.2 14.3,-1.5 28.6,-2.5 43.1,-2.8 2.8,-0.1 5.6,-0.1 8.4,-0.1" /><path
             id="path264"
             style="fill:#100f0d;fill-opacity:1;fill-rule:nonzero;stroke:none"
             d="m 3600.63,2796.41 c -2.5,-0.7 -4.9,-1.3 -7.4,-1.9 -12.1,-3.2 -24.1,-7.1 -36.2,-11 -11.8,-4.5 -23.9,-8.6 -35.6,-13.6 -11.7,-5.2 -23.4,-10.1 -34.7,-16.1 -11.4,-5.5 -22.5,-11.6 -33.2,-18.2 -5.4,-3.2 -10.8,-6.2 -16.1,-9.6 -3.2,-2.2 -6.4,-4.4 -9.7,-6.6 -23.2,-4.3 -47,-6.6 -71.2,-6.6 -261.7,0 -474.6,262.5 -474.6,585.2 0,198.4 80.5,374 203.3,479.8 17.3,15.1 35.5,28.7 54.5,40.7 65,41.4 138.7,64.7 216.8,64.7 261.7,0 474.6,-262.5 474.6,-585.2 0,-4.5 0,-9 -0.2,-13.5 -0.3,-20.5 -1.5,-40.8 -3.6,-60.8 -13.7,-133.1 -63.9,-252.3 -137.7,-342 -14.9,-18.2 -30.8,-35.2 -47.6,-50.8 -13.3,-12.4 -27.1,-23.9 -41.4,-34.5 z m 305.9,-9.9 c -5.5,2.1 -13.5,5.3 -24,8.2 -3.7,1.1 -7.7,2.3 -12,3.4 -19.9,5.4 -46,10.7 -76.8,13.7 -28.8,2.7 -61.8,3.4 -96.9,0.6 14.4,14.9 28.2,30.6 41.2,47.2 78.5,99.8 131.2,229.2 145.2,372.8 2.1,20.5 3.3,41.2 3.6,62.2 0.2,5 0.2,10.1 0.2,15.1 0,361.9 -243.8,655.2 -544.6,655.2 -73.3,0 -143.1,-17.4 -206.9,-49 -20.8,-10.2 -40.9,-21.9 -60.2,-35.2 -165.7,-112.2 -277.5,-325.9 -277.5,-571 0,-361.8 243.8,-655.2 544.6,-655.2 2.1,0 4.1,0.2 6.1,0.2 -2.1,-2.1 -4.3,-4.3 -6.4,-6.5 -15.4,-15.3 -28.1,-31.4 -40,-45.9 -10.9,-15.4 -21.4,-28.9 -29,-42.2 -7.7,-13.1 -14.6,-24.3 -19.2,-34.2 -4.9,-9.7 -8.2,-17.6 -10.7,-22.9 -2,-4.6 -3.2,-7.4 -3.4,-8 0.5,0.4 2.8,2.4 6.7,5.7 4.3,3.9 10.8,9.3 18.5,16.7 7.5,7.5 18,15.4 28.8,25.2 2.7,2.5 5.5,5 8.4,7.5 3,2.5 6.1,5 9.3,7.6 6.2,5.2 12.8,10.6 19.7,16.4 14.2,10.7 28.9,22.9 45.4,34.3 4.1,2.9 8.2,5.9 12.3,9 4.3,2.8 8.6,5.7 13,8.6 8.8,5.7 17.4,11.9 26.9,17.3 9.2,5.7 18.4,11.7 28.2,16.9 9.7,5.5 19.4,11 29.5,16.1 3.1,1.6 6.2,3.2 9.2,4.7 24.8,8.8 48.8,19.6 72,32.2 4.2,1.7 8.5,3.3 12.7,5 10.9,3.5 21.4,8 32.2,11.3 21.5,7.1 43,13.3 64.1,18.7 21.1,5.3 41.7,10.1 61.5,13.7 19.8,4 38.7,6.9 56.3,9.5 35.3,5 65.3,7.9 86.5,9.6 10.7,0.7 19.1,1.2 24.8,1.6 5.8,0.3 8.9,0.4 8.9,0.4 0,0 -2.8,1.4 -8.2,3.5" /><path
             id="path266"
             style="fill:#100f0d;fill-opacity:1;fill-rule:nonzero;stroke:none"
             d="m 2265.41,3229.96 c -36.39,0 -65.88,29.5 -65.88,65.88 0,36.39 29.49,65.88 65.88,65.88 36.38,0 65.88,-29.49 65.88,-65.88 0,-36.38 -29.5,-65.88 -65.88,-65.88 z m -65.88,189.28 c -104.54,0 -189.28,-84.75 -189.28,-189.28 0,-104.53 84.74,-189.27 189.28,-189.27 104.53,0 189.27,84.74 189.27,189.27 0,104.53 -84.74,189.28 -189.27,189.28" /><path
             id="path268"
             style="fill:#100f0d;fill-opacity:1;fill-rule:nonzero;stroke:none"
             d="m 3422.41,3186.75 c -36.39,0 -65.88,29.5 -65.88,65.88 0,36.39 29.49,65.88 65.88,65.88 36.38,0 65.88,-29.49 65.88,-65.88 0,-36.38 -29.5,-65.88 -65.88,-65.88 z m -65.88,189.28 c -104.53,0 -189.28,-84.74 -189.28,-189.28 0,-104.53 84.75,-189.27 189.28,-189.27 104.53,0 189.27,84.74 189.27,189.27 0,104.54 -84.74,189.28 -189.27,189.28" /><path
             id="path270"
             style="fill:#100f0d;fill-opacity:1;fill-rule:nonzero;stroke:none"
             d="m 1654.09,4136.63 c 0,0 424.17,312.14 922.93,0 0,0 -136.21,347.13 -461.46,347.13 -367.73,0 -461.47,-347.13 -461.47,-347.13" /><path
             id="path272"
             style="fill:#100f0d;fill-opacity:1;fill-rule:nonzero;stroke:none"
             d="m 3890.43,4136.63 c 0,0 -424.16,312.14 -922.93,0 0,0 136.22,347.13 461.47,347.13 367.72,0 461.46,-347.13 461.46,-347.13" /><path
             id="path274"
             style="fill:#100f0d;fill-opacity:1;fill-rule:nonzero;stroke:none"
             d="m 1869.31,2332.92 c 0,0 2.74,1.14 7.89,3.26 5.17,2 12.48,5.24 23.09,7.44 2.65,0.62 5.44,1.29 8.37,1.98 2.91,0.41 5.96,0.83 9.14,1.27 6.42,0.98 13.43,1.71 20.95,1.71 3.8,0.06 7.72,0.11 11.75,0.17 4.02,-0.3 8.16,-0.61 12.4,-0.92 8.64,-0.39 17.38,-2.33 26.76,-4.01 18.38,-4.24 38.36,-10.5 57.85,-20.79 19.53,-10.09 39.4,-22.99 57.12,-39.74 17.89,-16.53 34.41,-36.14 47.8,-58.39 13.34,-22.3 23.29,-47.16 29.82,-72.9 6.39,-25.8 8.4,-52.63 6.6,-78.47 -1.16,-25.96 -7.41,-50.77 -15.28,-73.48 -4.35,-11.24 -8.31,-22.34 -13.93,-32.34 -2.66,-5.06 -5.06,-10.17 -7.84,-14.95 -2.93,-4.68 -5.83,-9.31 -8.69,-13.87 -5.59,-9.18 -12,-17.32 -18.15,-25.16 -6,-7.96 -12.54,-14.94 -18.85,-21.56 -6.25,-6.67 -12.3,-12.88 -18.68,-18.19 -6.29,-5.37 -11.96,-10.65 -17.72,-15.15 -11.86,-8.62 -21.93,-16.15 -30.87,-21.52 -18.04,-10.55 -28.58,-15.73 -28.58,-15.73 0,0 6.15,10.42 17.33,27.2 5.27,8.49 11.67,18.78 19.02,30.6 3.36,5.94 6.93,12.27 10.7,18.93 1.88,3.28 3.8,6.64 5.77,10.07 1.76,3.54 3.55,7.15 5.38,10.85 3.67,7.33 7.83,14.67 10.97,22.81 3.4,7.98 7.45,15.88 10.19,24.53 1.49,4.27 3.16,8.5 4.81,12.78 1.54,4.31 2.64,8.8 4.01,13.24 1.15,4.49 2.92,8.85 3.86,13.44 1.03,4.54 2.07,9.12 3.11,13.75 1.29,4.55 1.61,9.3 2.44,13.96 0.63,4.69 1.79,9.34 2.06,14.09 0.62,9.49 1.61,18.99 1.39,28.54 -0.26,19.05 -1.73,38.31 -6.78,56.83 -4.37,18.66 -11.29,36.66 -19.68,53.8 -8.86,16.92 -19.42,32.73 -31.12,47.18 -11.64,14.54 -24.89,27.12 -38.37,38.21 -13.37,11.36 -27.61,20.21 -41.27,27.99 -6.92,3.64 -13.64,7.33 -20.36,10.04 -3.36,1.48 -6.63,2.93 -9.81,4.35 -3.29,1.16 -6.48,2.29 -9.57,3.38 -6.21,2.54 -12.21,4.01 -17.84,5.62 -2.84,0.81 -5.56,1.59 -8.17,2.33 -2.59,0.54 -5.07,1.05 -7.42,1.54 -4.78,0.91 -9.09,2.1 -13.07,2.7 -3.97,0.51 -7.35,0.95 -10.09,1.3 -5.51,0.84 -8.44,1.28 -8.44,1.28" /><path
             id="path276"
             style="fill:#100f0d;fill-opacity:1;fill-rule:nonzero;stroke:none"
             d="m 3584.75,2368.35 c 0,0 -2.39,-1.44 -6.88,-4.14 -2.25,-1.29 -5.04,-2.88 -8.31,-4.75 -3.21,-1.99 -6.61,-4.46 -10.48,-6.94 -3.82,-2.43 -7.97,-5.31 -12.39,-8.74 -4.43,-3.3 -9.22,-6.66 -13.94,-10.88 -2.4,-1.98 -4.88,-4.01 -7.43,-6.1 -2.41,-2.25 -4.89,-4.57 -7.44,-6.95 -5.15,-4.54 -10.19,-9.79 -15.35,-15.17 -10.25,-10.89 -20.67,-23.03 -30.33,-36.76 -9.97,-13.41 -19.06,-28.45 -27.46,-44.27 -4.24,-7.9 -8.01,-16.17 -11.88,-24.46 -3.34,-8.54 -7.09,-16.97 -9.99,-25.79 -6.09,-17.51 -11.17,-35.62 -14.01,-54.06 -3.45,-18.32 -5.07,-36.94 -5.06,-55.29 -0.13,-4.6 -0.11,-9.18 0.31,-13.71 0.19,-4.57 0.37,-9.11 0.55,-13.64 1.13,-8.96 1.72,-17.95 3.37,-26.69 2.49,-17.64 7.22,-34.4 11.86,-50.57 2.8,-7.99 5.52,-15.77 8.16,-23.3 3.11,-7.5 6.11,-14.75 9,-21.71 3.27,-6.94 6.4,-13.6 9.37,-19.93 3.33,-6.28 6.5,-12.23 9.47,-17.83 5.91,-11.4 12.14,-20.81 16.63,-29.27 10.12,-15.89 15.77,-25.82 15.77,-25.82 0,0 -2.49,1.23 -7.16,3.56 -4.55,2.49 -11.53,5.89 -19.99,10.91 -8.02,5.48 -18.29,11.85 -28.87,20.67 -5.32,4.39 -10.86,9.24 -16.73,14.43 -5.52,5.49 -11.16,11.48 -17.18,17.74 -5.74,6.46 -11.14,13.69 -17.09,21.05 -5.49,7.63 -10.7,15.91 -16.16,24.45 -9.8,17.64 -19.57,37.06 -25.97,58.63 -6.96,21.36 -11.55,44.52 -12.89,68.28 -2.01,23.77 -0.13,48.11 3.84,71.91 1.97,11.94 5.23,23.56 8.28,35.17 3.64,11.43 7.61,22.71 12.44,33.49 9.27,21.71 20.88,41.95 34.28,59.8 13.16,18.02 27.82,33.91 43.22,47.15 7.51,6.79 15.51,12.65 23.13,18.26 8.02,5.19 15.51,10.38 23.32,14.46 7.83,4.04 15.09,8.08 22.6,10.92 7.29,3.13 14.3,5.79 21.13,7.68 6.66,2.19 13.04,3.77 19.01,4.86 5.85,1.3 11.32,2.28 16.44,2.66 10.05,1.42 17.57,1.05 22.79,0.97 5.23,-0.18 8.02,-0.28 8.02,-0.28" /><path
             id="path278"
             style="fill:#100f0d;fill-opacity:1;fill-rule:nonzero;stroke:none"
             d="m 3073.11,1968.57 c -95.9,0 -214.47,19.99 -357.02,77.72 -256.26,103.77 -552.72,16.07 -555.69,15.17 l -20.29,67 c 13.07,3.96 323.32,95.66 602.25,-17.29 408.64,-165.47 591.23,1.8 598.8,8.99 l 48.75,-50.24 c -6.01,-5.87 -107.24,-101.34 -316.8,-101.35" /><path
             id="path280"
             style="fill:#100f0d;fill-opacity:1;fill-rule:nonzero;stroke:none"
             d="m 5191.87,4731.79 c -778.37,310.38 -1597.84,467.73 -2436.09,467.73 -64.3,0 -128.47,-1.04 -192.54,-2.89 v 0.01 l -0.5,-0.02 c -771,-22.32 -1524.55,-178.32 -2243.052,-464.83 -201.895,162.2 -292.9966,433.9 -230.0903,686.9 851.7733,340.26 1748.6923,512.77 2666.1823,512.77 917.48,0 1814.4,-172.51 2666.18,-512.77 62.91,-253 -28.2,-524.7 -230.09,-686.9 z M 866.141,4849.31 c 456.779,138.94 925.599,226.57 1402.139,262.05 -40.97,-18.61 -83.35,-39.11 -127.45,-60.49 -225.6,-109.39 -481.29,-233.35 -794.32,-225.51 -206.09,5.17 -369.104,15.23 -480.369,23.95 z M 4627.43,3643.28 c -51.5,-116.4 -151,-411.4 -147.8,-565.7 2.1,-106.2 -28.7,-183.2 -86.7,-216.9 -49.4,-28.6 -117.8,-23.8 -178.4,12.6 -93.1,55.8 -56.2,192.1 -13.6,304.7 1.8,5 3.6,9.5 5,13.49 25,67.81 -1.2,144.31 -60.9,177.91 -8.78,4.97 -18.43,9 -28.81,11.86 41.74,-43.17 35.21,-112.07 28.77,-145.74 -0.74,-6.63 -2.26,-13.29 -4.66,-19.82 -1.5,-3.8 -3.1,-8.2 -4.9,-13 -30.7,-81.01 -112.2,-296.3 43.1,-389.5 7.4,-4.4 14.8,-8.4 22.4,-12.11 l -196.33,-387.72 -1.7,-0.5 c 0.03,-0.09 0.21,-0.71 0.52,-1.84 l -0.4,-0.79 20.52,-114.38 c 5.34,-51.64 7.49,-116.33 -1.08,-185.83 -10.6,-85.99 -35.13,-162.31 -73.08,-228.91 l -0.09,-0.48 -0.44,-0.46 c -40.53,-70.78 -96.29,-130.53 -167.27,-178.76 l -102.44,-60.11 c -75.78,-139.14 -162.64,-317.11 -235.01,-514.71 -7.9,-21.6 -47.3,-21.3 -99.4,-16.8 l -29.2,-57.6 -473.9,-936 c -14.6,-28.8011 -42.7,-46.098 -75,-46.1995 h -0.2 c -32.3,0 -60.4,17.1992 -75,45.8985 l -559.2,1094.201 c 13,5.3 25.2,12.2 36.2,20.8 47.1,36.6 93.7,203.2 -50.3,267.2 0,0 80.5,-155 7.4,-211.9 -37.4,-29.1 -90.5,-20 -127.7,-1.9 -46.1,22.6 -75.9,61 -75.9,97.7 0,61.08 -49.06,204.46 -113.65,366.8 l -96.39,50.64 c -268.82,190.28 -261.27,412.88 -232.84,528.67 l 32.17,97.67 -12.79,28.12 c -43.7,5.8 -86.5,16.1 -127.9,31.1 -35.1,75.3 -239.1,510.5 -381.6,757.7 85.7,31.4 171.7,123 171.7,228 0,63 16.1,108.6 45.3,128.29 32.4,21.81 78.2,10.71 111,-2.59 91.2,-36.9 177.3,-31.3 230.4,14.8 16.5,14.4 33,35.7 43.4,66.7 l 10.3,59.8 c -0.4,53.1 -80.7,110.7 -80.7,110.7 14.3,-56.91 22.1,-148.6 -18.9,-184.3 -31.9,-27.7 -94,-28.8 -158.3,-2.8 -87.9,35.5 -144.4,17.29 -176.3,-4.2 -34.8,-23.51 -76.2,-74.8 -76.2,-186.4 0,-75.2 -67.9,-143.7 -130.7,-164.21 -27.403,-8.89 -64.903,-12.69 -88.2,19.31 -34.703,47.7 -48.601,167.79 -62,284 -13.902,120.1 -28.3,244.19 -67.703,321.4 l -379.3,742.3 c 110.101,43.5 221.101,84.1 332.8,121.5 43.903,-5.1 277.602,-30.3 649.203,-39.6 9.9,-0.2 19.6,-0.4 29.3,-0.4 317,0 582.7,128.8 797.3,232.9 151.4,73.4 282.1,136.69 392,138.7 64,1.9 128.2,2.9 192.4,2.9 823.3,0 1628.2,-153.5 2393.2,-456.1 -101.1,-198.9 -510.9,-1006.1 -521.5,-1030.1 z m 857.64,1810.67 c -2.91,10.51 -10.55,19.07 -20.68,23.14 -864.97,347.95 -1776.28,524.37 -2708.61,524.37 -932.33,0 -1843.647,-176.42 -2708.6159,-524.37 -10.125,-4.07 -17.7696,-12.63 -20.6758,-23.14 -79.7891,-288.7 24.6367,-602.91 259.8597,-784.86 l 393.34,-769.81 c 33.652,-65.86 47.292,-183.64 60.484,-297.54 15.164,-130.92 29.484,-254.58 74.961,-317.11 25.828,-35.51 64.652,-54.24 109.258,-54.24 l 2.261,0.1 c 153.848,-262.4 392.148,-776.65 394.598,-781.95 3.28,-7.09 9.2,-12.62 16.49,-15.42 30.19,-11.56 61.09,-20.63 92.44,-27.67 -16.61,-44.25 -40.6,-128.78 -31.98,-231.72 20.27,-241.85 203.06,-396.71 358.65,-485.74 55.6,-141.53 95.03,-258.76 95.03,-306.02 0,-64.24 44.15,-125.75 115.23,-160.54 30.74,-15.05 62.49,-22.87 92.9,-23.76 L 2629.05,84.0508 C 2655.56,32.1797 2708.17,0 2766.42,0 h 0.3 c 58.35,0.109375 110.97,32.5195 137.33,84.582 l 487.54,962.798 c 47.54,0.43 91.72,11.66 108.91,58.57 v 0 c 66.49,181.51 145.4,346.2 216.21,478.63 272.93,127.3 354.78,351.06 375.23,516.86 16.4,132.98 -2.85,248.45 -14.42,301.01 l 189.89,375.03 c 17.61,-3.8 35.19,-5.73 52.47,-5.73 38.41,0 75.4,9.43 108.14,28.41 46.96,27.22 125.2,99.65 121.54,278.87 -2.79,136.86 89.44,417.36 141.81,535.84 10.9,24.01 351.9,695.99 533.86,1054.23 235.21,181.95 339.63,496.15 259.84,784.85" /><path
             id="path282"
             style="fill:#100f0d;fill-opacity:1;fill-rule:nonzero;stroke:none"
             d="m 3274.14,1917.21 c -52.1,0 -56.41,-11.29 -56.41,-23.86 0,-24.81 24.22,-63.06 56.41,-63.06 25.97,0 33.08,9.35 33.08,43.46 0,34.11 -7.11,43.46 -33.08,43.46 z m 0,-116.92 c -52.75,0 -86.41,55.12 -86.41,93.06 0,53.86 60.55,53.86 86.41,53.86 63.08,0 63.08,-53.37 63.08,-73.46 0,-20.09 0,-73.46 -63.08,-73.46" /><path
             id="path284"
             style="fill:#100f0d;fill-opacity:1;fill-rule:nonzero;stroke:none"
             d="m 3214.4,2320.89 c -52.1,0 -56.42,-11.29 -56.42,-23.86 0,-20.18 11.03,-56 28.3,-66.18 4.19,-2.46 10.36,-4.57 20.85,1.24 l 1.46,0.81 c 35.59,19.7 38.88,22.16 38.88,44.53 0,34.11 -7.11,43.46 -33.07,43.46 z m -19.49,-122.56 c -9.78,0 -17.85,3.13 -23.86,6.67 -29.38,17.31 -43.07,65.16 -43.07,92.03 0,53.86 60.56,53.86 86.42,53.86 63.07,0 63.07,-53.37 63.07,-73.46 0,-40.69 -18.16,-50.75 -54.35,-70.78 l -1.46,-0.81 c -9.89,-5.48 -18.87,-7.51 -26.75,-7.51" /><path
             id="path286"
             style="fill:#100f0d;fill-opacity:1;fill-rule:nonzero;stroke:none"
             d="m 3318.45,2393.53 c -1.14,0 -2.2,-0.1 -3.12,-0.35 -1.14,-0.3 -4.62,-1.22 -7.74,-10.89 -1.46,-4.53 -5.91,-18.29 -5,-26.4 0.36,-3.25 1.09,-4.46 4.93,-5.7 6.72,-2.18 16.51,-1.48 24.92,1.81 5.23,2.04 14.48,6.91 17.6,16.59 3.64,11.27 3.17,15.44 -16.41,21.77 -2.66,0.86 -9.81,3.17 -15.18,3.17 z m -2.02,-74.57 c -6.39,0 -12.57,0.87 -18.13,2.67 -14.78,4.78 -23.84,15.76 -25.53,30.95 -1.12,10.04 0.82,22.04 6.27,38.92 5.41,16.78 15.05,27.1 28.64,30.69 12.13,3.23 24.58,0.14 35.17,-3.27 v 0 c 12.31,-3.99 49.77,-16.1 35.74,-59.54 -5.13,-15.92 -17.66,-28.47 -35.26,-35.33 -8.67,-3.38 -17.99,-5.09 -26.9,-5.09" /></g></g></g></g></svg>