<?xml version="1.0" encoding="UTF-8" standalone="no"?>
<svg
   xmlns:dc="http://purl.org/dc/elements/1.1/"
   xmlns:cc="http://creativecommons.org/ns#"
   xmlns:rdf="http://www.w3.org/1999/02/22-rdf-syntax-ns#"
   xmlns:svg="http://www.w3.org/2000/svg"
   xmlns="http://www.w3.org/2000/svg"
   viewBox="0 0 839.46667 826.97333"
   height="826.97333"
   width="839.46667"
   xml:space="preserve"
   id="svg2"
   version="1.1"><metadata
     id="metadata8"><rdf:RDF><cc:Work
         rdf:about=""><dc:format>image/svg+xml</dc:format><dc:type
           rdf:resource="http://purl.org/dc/dcmitype/StillImage" /></cc:Work></rdf:RDF></metadata><defs
     id="defs6" /><g
     transform="matrix(1.3333333,0,0,-1.3333333,0,826.97333)"
     id="g10"><g
       transform="scale(0.1)"
       id="g12"><path
         id="path14"
         style="fill:#cb8e4c;fill-opacity:1;fill-rule:nonzero;stroke:none"
         d="M 2677.6,5941.93 C 1761.28,5868.64 878.883,5625.12 54.4688,5217.77 -1.04297,4934.2 121.781,4642.63 365.008,4486.54 c 120.793,59.7 242.996,115.39 366.496,167.28 586.806,246.32 1202.666,404 1827.536,471.51 4.46,0.65 8.84,1.08 13.22,1.52 57.11,6.08 114.37,11.25 171.61,15.8 -22.89,266.36 -45.63,532.73 -66.27,799.28" /><path
         id="path16"
         style="fill:#f6cb53;fill-opacity:1;fill-rule:nonzero;stroke:none"
         d="m 1676.85,3566.93 c 3.83,10.21 6.68,21.47 8.13,34.02 h 0.1 c 5.37,0.51 10.85,1.04 16.44,1.46 92.39,7.08 181.7,-5.76 263.79,-34.8 -12.8,99.04 1.02,204.55 25.6,300.75 33.05,129.37 97.68,230.83 203.38,311.03 106.17,80.56 246.93,97.57 374.94,78.55 59.43,-8.83 120.13,-35.2 174.42,-71.49 31.78,-15.88 62.37,-35.11 90.39,-56.99 4.4,7.77 8.98,15.45 13.9,22.92 -15.77,22.66 -26.08,49.03 -28.19,76.5 -23.41,304.75 -49.71,609.26 -75.88,913.77 -57.24,-4.55 -114.5,-9.72 -171.61,-15.8 -4.38,-0.44 -8.76,-0.87 -13.22,-1.52 -99.9,-13.06 -208.21,-70.7 -330.29,-141.13 -8.25,-4.84 -16.61,-9.69 -25.06,-14.56 -219.49,-127.73 -482.86,-288.81 -817.62,-306.02 -151.15,-7.76 -279.07,-11.14 -380.57,-12.29 -34.574,-0.44 -66.156,-0.55 -94.445,-0.51 -116.836,-0.02 -179.551,3 -179.551,3 -72.68,-30.54 -144.863,-62.35 -216.531,-95.61 l -0.2,-0.02 c -50.175,-23.2 -100.093,-47.08 -149.765,-71.64 0,0 21.793,-35.74 56.07,-91.79 86.551,-141.4 252.336,-412.54 346.582,-566.69 22,-35.83 40.012,-65.44 52.285,-85.56 29.688,-48.48 49.891,-122.35 67.254,-202.46 l 0.016,-0.19 c 32.988,-153.13 55.203,-329.25 111.519,-395.44 26.116,-30.6 62.146,-38.87 99.486,-31.4 15.41,3.09 30.91,8.89 46.15,16.87 32.88,17.26 63.76,44.8 86.49,78.03 24.99,36.42 39.94,79.58 36.61,123.06 l -0.16,2.19 c -10.24,144.04 62.48,212.19 191.89,171.15 88.3,-28.14 187.24,-18.25 217.65,62.61" /><path
         id="path18"
         style="fill:#f6cb53;fill-opacity:1;fill-rule:nonzero;stroke:none"
         d="m 2898.43,1709.67 c -10.94,142.85 25.63,278.35 96.31,391.11 -25.51,319.72 -51.29,639.42 -75.81,959.22 -2.92,38.23 8.1,73.17 28.45,101.3 -3.19,4.49 -6.27,9.08 -9.3,13.7 -18.25,-29.08 -37.85,-57.54 -61.5,-81.77 -125.04,-128.08 -287.13,-198.34 -468.53,-163.02 -4.48,0.9 -8.83,2.07 -13.25,3.07 -12.78,-322.46 -265.22,-591.36 -594.82,-616.6 -35.4,-2.72 -70.42,-2.49 -104.84,0.39 l -0.77,-4.47 c 0,0 399.87,-702.02 478.58,-949.23 l 0.11,-0.09 c 7.3,-23.31 11.88,-42.52 12.97,-56.78 6.54,-85.44 116.61,-148.93 204.99,-133.53 l 5.85,-9.49 658.09,-1076.1909 c 18.56,-30.3907 46.9,-48.25 77.18,-54.4375 C 3110.65,172.91 3110.29,317 3108.41,457.68 c -3.91,291.66 -26.69,583.89 -51.27,875.44 -89.28,101.37 -147.61,231.5 -158.71,376.55" /><path
         id="path20"
         style="fill:#e53e47;fill-opacity:1;fill-rule:nonzero;stroke:none"
         d="m 3024.55,1724.41 c -9.83,125.45 -19.8,250.9 -29.81,376.34 -70.68,-112.69 -107.25,-248.21 -96.31,-391.08 11.1,-145.05 69.43,-275.18 158.71,-376.55 -11.01,130.6 -22.38,261.07 -32.59,391.29" /><path
         id="path22"
         style="fill:#e53e47;fill-opacity:1;fill-rule:nonzero;stroke:none"
         d="m 2181.49,3040.01 c -65.62,56.66 -113.28,125.72 -143.01,207.2 -24.1,102.36 -55.16,202.65 -71.33,306.93 -0.69,4.46 -1.25,8.95 -1.83,13.45 -32.81,11.59 -66.76,20.61 -101.62,26.78 -18.91,3.37 -38.06,5.91 -57.34,7.55 l -0.21,0.08 c -34.32,2.89 -69.24,3.12 -104.63,0.41 -5.59,-0.42 -11.07,-0.95 -16.44,-1.46 h -0.1 c -13.41,-111.75 -126.37,-128.33 -225.78,-96.63 -130.04,41.29 -202.87,-27.77 -191.73,-173.34 7.76,-101.3 -83.81,-200.78 -169.25,-217.96 175.15,-246.75 468.48,-771.58 468.48,-771.58 41.37,-12.38 84.42,-20.62 128.44,-24.37 34.42,-2.88 69.44,-3.11 104.84,-0.39 212.37,16.26 392.73,133.67 497.73,301.38 32.08,51.3 57.07,107.37 73.79,166.72 13.41,47.68 21.3,97.43 23.32,148.5 -79.63,18.03 -150.81,53.46 -213.33,106.73" /><path
         id="path24"
         style="fill:#e53e47;fill-opacity:1;fill-rule:nonzero;stroke:none"
         d="m 2559.04,5125.33 c -104.56,-13.72 -218.42,-76.2 -347.47,-151.17 -221.15,-128.36 -486.74,-293.12 -825.5,-310.54 -163.14,-8.38 -299.28,-11.68 -404.32,-12.6 -36.078,-0.36 -68.477,-0.33 -96.969,-0.21 -99.918,0.37 -153.277,3.01 -153.277,3.01 35.855,15.08 71.836,29.77 107.941,44.17 554.145,221.05 1132.915,363.96 1719.595,427.34" /><path
         id="path26"
         style="fill:#e8816a;fill-opacity:1;fill-rule:nonzero;stroke:none"
         d="m 1645.58,3267.28 c -15.54,6.75 -36.58,4.89 -49.9,-6.38 -2.1,0.79 -4.21,1.57 -6.6,2.04 -10.97,2.13 -25.17,-0.3 -34.23,-7.18 -17.68,-13.41 -27.9,-43.6 -11.4,-62.62 16.55,-19.07 39.23,-31.39 65.34,-27.48 24.09,3.61 48.51,17.63 57.59,41.47 8.37,21.95 2.83,49.89 -20.8,60.15" /><path
         id="path28"
         style="fill:#e8816a;fill-opacity:1;fill-rule:nonzero;stroke:none"
         d="m 1918.81,2923.67 c -8.58,16.65 -25.93,25.5 -43.89,24.02 -6.2,20 -23.82,36.56 -46.45,33.8 -22.65,-2.76 -45.34,-23.4 -41.44,-48.3 1.12,-7.14 1.56,-14.2 1.87,-21.41 l 0.09,-1.57 -0.11,-0.69 c -0.52,-3.55 -0.93,-7.1 -1.55,-10.64 -3.79,-21.83 10.87,-50.92 35.57,-52.79 29.62,-2.24 57.05,2.9 81.84,20.14 18.46,12.83 24.23,37.72 14.07,57.44" /><path
         id="path30"
         style="fill:#e8816a;fill-opacity:1;fill-rule:nonzero;stroke:none"
         d="m 2029.86,2722.45 c -5.83,0.86 -11.36,0.64 -16.57,-0.34 -2.33,1.77 -4.85,3.27 -7.53,4.44 -23.5,10.2 -47.82,1.15 -60.16,-20.8 -9.95,-17.69 -20.91,-34.48 -19.27,-55.85 2.36,-30.82 31.47,-49.47 60.33,-48.01 39.04,1.99 68.92,31.46 78.76,67.76 6.17,22.75 -12.72,49.4 -35.56,52.8" /><path
         id="path32"
         style="fill:#e8816a;fill-opacity:1;fill-rule:nonzero;stroke:none"
         d="m 1550.14,2909.5 c -1.73,0.15 -3.36,0.46 -5.02,0.74 l -0.9,0.64 -0.82,1.49 c -3.9,22.31 -23.84,41.84 -47.77,38.93 -23.4,-2.85 -44.38,-23.27 -41.43,-48.31 4.75,-40.22 36.52,-78.24 78.71,-81.85 12.43,-1.06 23.6,-0.19 34.23,7.17 8.89,6.16 16.95,17.51 18.57,28.39 3.26,21.98 -10.49,50.65 -35.57,52.8" /><path
         id="path34"
         style="fill:#a21f26;fill-opacity:1;fill-rule:nonzero;stroke:none"
         d="m 1836.87,3342.86 c -7.42,-0.57 -13.2,-3.28 -17.49,-7.22 l -0.85,0.26 c -7.31,1.42 -16.78,-0.2 -22.82,-4.78 -6.07,-4.61 -11.22,-11.17 -12.38,-18.93 -1.1,-7.46 -0.42,-16.89 4.78,-22.82 4.91,-5.6 9.82,-11.2 14.73,-16.79 5.35,-6.1 10.64,-10.77 18.93,-12.38 7.31,-1.42 16.77,0.2 22.82,4.78 6.07,4.61 11.22,11.17 12.37,18.93 0.24,1.62 0.35,3.35 0.4,5.09 19.96,15.66 11.49,56.3 -20.49,53.86" /><path
         id="path36"
         style="fill:#a21f26;fill-opacity:1;fill-rule:nonzero;stroke:none"
         d="m 1741.23,3074.72 c -6.11,10.76 -16.89,17.73 -27.68,23.18 -14.02,7.08 -33.72,0.84 -40.1,-13.87 -3.5,-8.06 -3.48,-16.75 -0.52,-24.29 -1.64,-7.01 -2.01,-13.96 0.31,-21.58 2.91,-9.62 9.56,-17.89 18.69,-22.36 15.69,-7.69 34.57,-2.32 45.69,10.6 12.12,14.1 12.54,32.6 3.61,48.32" /><path
         id="path38"
         style="fill:#a21f26;fill-opacity:1;fill-rule:nonzero;stroke:none"
         d="m 1453.46,3085.04 c -2.37,-0.18 -4.57,-0.59 -6.62,-1.17 -2.12,0.26 -4.36,0.33 -6.74,0.15 -38.49,-2.95 -33.97,-62.78 4.58,-59.83 2.38,0.19 4.58,0.59 6.63,1.18 2.12,-0.27 4.36,-0.34 6.74,-0.15 38.49,2.94 33.97,62.77 -4.59,59.82" /><path
         id="path40"
         style="fill:#a21f26;fill-opacity:1;fill-rule:nonzero;stroke:none"
         d="m 1726.34,2680.39 c -16.15,-1.97 -28.9,-15.44 -27.62,-32.21 l 2.05,-26.72 c 1.2,-15.64 16.1,-29.58 32.2,-27.62 16.15,1.97 28.91,15.44 27.62,32.21 l -2.04,26.72 c -1.2,15.64 -16.11,29.58 -32.21,27.62" /><path
         id="path42"
         style="fill:#a21f26;fill-opacity:1;fill-rule:nonzero;stroke:none"
         d="m 2144.19,2943.97 c -2.82,3.72 -6.21,6.56 -9.89,8.65 l -0.21,2.16 c -1.5,15.61 -15.88,29.61 -32.2,27.62 -15.89,-1.94 -29.24,-15.47 -27.62,-32.21 1.06,-11.03 2.13,-22.07 3.19,-33.11 2.25,-23.38 27.64,-34.39 46.99,-22.39 4.05,2.52 8.09,5.03 12.14,7.54 13.36,8.28 17.05,29.28 7.6,41.74" /><path
         id="path44"
         style="fill:#cb8e4c;fill-opacity:1;fill-rule:nonzero;stroke:none"
         d="m 6239.33,5653.62 c -860.8,346.3 -1767.7,521.9 -2695.5,521.9 -5.38,0 -10.75,-0.08 -16.13,-0.09 13.26,-39.15 20.59,-80.18 20.62,-121.58 0.18,-226.84 6.41,-453.61 9.65,-680.41 824.38,-1.78 1648.61,-159.21 2427.56,-472.62 230.6,174.2 330.8,474.3 253.8,752.8" /><path
         id="path46"
         style="fill:#f6cb53;fill-opacity:1;fill-rule:nonzero;stroke:none"
         d="m 3488.31,4123.4 0.02,0.02 c 4.57,34 9.14,67.98 13.7,101.96 -4.55,-34 -9.14,-67.99 -13.72,-101.98" /><path
         id="path48"
         style="fill:#f6cb53;fill-opacity:1;fill-rule:nonzero;stroke:none"
         d="m 3557.97,5373.44 c 1.18,-82.56 1.98,-165.12 1.92,-247.7 -0.25,-336.35 -20.41,-669.52 -71.48,-1002.2 13.51,19.45 28.31,37.95 44.14,55.18 8.9,9.7 18.35,18.72 28.26,27.08 75.92,95.61 195.17,158.77 317.52,158.6 14.17,-0.02 28.24,-0.68 42.22,-1.8 -7.32,38.91 -11.32,78.99 -11.32,120.02 0,40.3 3.7,79.7 10.8,118 55.4,299.7 318.1,526.7 633.9,526.7 356.1,0 644.8,-288.6 644.8,-644.7 0,-50.2 -5.7,-99.1 -16.6,-146 -66.2,-285.8 -322.3,-498.7 -628.2,-498.7 -47.12,0 -93.02,5.19 -137.26,14.79 8.76,-87.98 4.1,-171.15 -19.62,-262.79 -28.06,-108.37 -80.78,-193 -151.79,-277.24 -18.51,-21.96 -41.53,-40.3 -66.95,-55.5 -54.09,-42.35 -115.25,-75.93 -183.26,-89.49 -101.51,-20.23 -216.88,-18.28 -307.68,40.25 -57.73,37.23 -106.02,85.52 -143.24,143.25 l -0.56,0.92 c -6.17,7.06 -12.09,14.35 -17.87,21.76 1.05,-6.39 2.24,-12.75 3.18,-19.16 24.74,-168.35 32.18,-338.37 37.7,-508.28 5.28,-162.01 6.7,-324.08 6.73,-486.15 118.22,136.53 292.68,223.04 487.42,223.04 13.4,0 26.8,-0.4 40,-1.2 233.1,-14.3 432.7,-152.4 533.9,-349.3 l 342.8,677.3 57.1,112.7 2.6,5.1 c 15.2,-5.1 30.6,-8.5 46,-10.4 36.9,-4.4 73.3,0.8 105.6,16.8 53.6,26.5 95.7,82.9 109.2,174.9 l 0.1,0.5 c 3.5,23.5 5.1,49.3 4.5,77.6 -0.9,46.5 7.9,106.5 22,170.3 31.6,142.8 89.5,305 122.9,380.5 9.1,20.7 352.5,697.2 485.9,959.9 32.2,63.5 52.2,102.8 52.2,102.8 -778.95,313.41 -1603.18,470.84 -2427.56,472.62" /><path
         id="path50"
         style="fill:#f6cb53;fill-opacity:1;fill-rule:nonzero;stroke:none"
         d="m 3568.12,1522.87 c -1.34,-83.43 -3.16,-166.86 -5.9,-250.29 -11.16,-340.721 -30.59,-681.08 -47.72,-1021.541 52.97,-18.5 117.15,0.813 146.33,58.383 l 59.4,117.297 388.8,768.001 46.8,92.3 c -32.4,1.8 -66.8,6.8 -95.1,6.8 -197.58,0 -374.34,89.02 -492.61,229.05" /><path
         id="path52"
         style="fill:#e53e47;fill-opacity:1;fill-rule:nonzero;stroke:none"
         d="m 4586.13,5126.52 c -10.7,0.5 -21.4,0.8 -32.2,0.8 -356.1,0 -644.7,-288.6 -644.7,-644.7 0,-41.03 4,-81.11 11.33,-120.02 237.65,-18.97 443.95,-193.62 485.66,-433.95 4.49,-25.91 7.98,-51.11 10.45,-75.94 44.24,-9.6 90.14,-14.79 137.26,-14.79 305.9,0 562,212.9 628.2,498.7 10.9,46.9 16.6,95.8 16.6,146 0,345.3 -271.5,627.1 -612.6,643.9" /><path
         id="path54"
         style="fill:#e53e47;fill-opacity:1;fill-rule:nonzero;stroke:none"
         d="m 4634.63,2232.82 c -19.6,38.2 -42.9,74.1 -69.5,107.4 -118.1,148.1 -300.1,243.1 -504.4,243.1 -194.74,0 -369.18,-86.43 -487.42,-222.89 0.02,-101.29 -0.51,-202.57 -1,-303.85 -0.88,-177.96 -1.33,-355.83 -4.19,-533.71 118.27,-140.03 295.03,-229.05 492.61,-229.05 28.3,0 62.7,-5 95.1,-6.8 47.6,-2.7 91,1.4 104.5,38.3 11.3,30.8 22.9,61.2 34.8,90.9 165.9,415.6 379.6,719.8 379.6,719.8 -10.8,33.5 -24.2,65.9 -40.1,96.8" /><path
         id="path56"
         style="fill:#e8816a;fill-opacity:1;fill-rule:nonzero;stroke:none"
         d="m 4904.18,4649.32 c -2.66,2.27 -5.26,4.61 -7.69,7.12 -0.99,1.02 -1.92,2.09 -2.87,3.14 -1.65,2.56 -3.37,5.06 -4.85,7.74 -0.85,1.52 -1.53,3.16 -2.41,4.65 l -0.17,0.24 c -4.17,10.08 -9.68,18.57 -19.56,24.35 -9.65,5.65 -23.86,8.04 -34.68,4.54 -21.37,-6.92 -40.43,-31.82 -31.43,-55.36 8.77,-22.93 21.08,-43.96 40.03,-60.06 9.25,-7.86 19.3,-13.18 31.81,-13.18 11.04,0 24.23,4.91 31.82,13.18 15.39,16.77 19.16,47.37 0,63.64" /><path
         id="path58"
         style="fill:#e8816a;fill-opacity:1;fill-rule:nonzero;stroke:none"
         d="m 4248.03,4630.23 c -16.43,14.59 -37.04,19.06 -58.48,17.41 -21.65,-1.65 -35.82,-13.15 -43.4,-33.03 -4.17,-10.93 -8.33,-21.87 -12.5,-32.8 -8.41,-22.04 9.29,-50.31 31.43,-55.35 13.9,-3.17 26.25,-0.47 36.16,6.29 3.55,-0.84 7.1,-1.46 10.58,-1.62 24.31,-1.09 47,15.42 53.85,38.67 6.3,21.38 -0.99,45.67 -17.64,60.43" /><path
         id="path60"
         style="fill:#e8816a;fill-opacity:1;fill-rule:nonzero;stroke:none"
         d="m 4549.59,4431.54 c -15.39,3.5 -30.42,-0.37 -41.3,-9.75 -11.02,-2.81 -20.96,-9.81 -27.89,-20.49 -11.1,-17.1 -19.16,-36.73 -22.83,-56.8 -3.48,-19.12 2.12,-41.02 20.68,-50.82 18.76,-9.91 38.66,-6.45 54.54,7.03 23.2,19.72 39.31,46.54 48.23,75.47 6.94,22.5 -8.23,50.07 -31.43,55.36" /><path
         id="path62"
         style="fill:#e8816a;fill-opacity:1;fill-rule:nonzero;stroke:none"
         d="m 4560.05,4838.1 c -6.45,15.01 -23.16,26.9 -38.62,31.09 -16.69,4.53 -35.39,2.88 -50.23,-6.46 -9.78,-6.15 -17.58,-15.62 -20.68,-26.89 -2.97,-10.78 -1.63,-25.12 4.53,-34.68 8.71,-13.51 24.1,-22.06 39.75,-22.14 4.74,-3.28 9.96,-5.79 14.43,-7.02 10.77,-2.97 25.12,-1.63 34.68,4.53 9.61,6.2 18.06,15.42 20.68,26.9 l 1.6,11.96 c -0.02,8.12 -2.07,15.69 -6.14,22.71" /><path
         id="path64"
         style="fill:#e8816a;fill-opacity:1;fill-rule:nonzero;stroke:none"
         d="m 4896.59,4263.56 c -21.32,8.57 -43.67,0.82 -56.2,-18.41 -16.92,-25.99 -40.23,-44.21 -68.07,-57.38 -16.17,-7.64 -23.43,-26.71 -21.61,-44.09 -4.37,-12.82 -3.54,-27.81 2.96,-38.91 13.52,-23.11 39.13,-25.74 61.57,-16.14 4.99,2.14 9.66,4.68 14.09,7.49 44.19,25.11 76.22,66.41 93.31,114.35 7.44,20.85 -6.69,45.3 -26.05,53.09" /><path
         id="path66"
         style="fill:#e8816a;fill-opacity:1;fill-rule:nonzero;stroke:none"
         d="m 4109.64,2356.34 c -2.7,23.33 -21.98,36.72 -44.46,39.52 -26.34,3.28 -52.38,4.21 -76.82,0.57 -19.91,-0.88 -39.8,-2.45 -59.69,-5.01 -24.1,-3.1 -45,-18.46 -45,-45 0,-5.86 1.52,-12.02 4.15,-17.85 -4.11,-15.13 1.13,-33.33 11.75,-43.95 15.27,-15.28 35.92,-15.08 54.53,-7.04 36.76,15.88 76.12,18.52 115.42,13.67 24.16,-2.99 45,22.82 45,45 0,7.69 -1.87,14.32 -4.88,20.09" /><path
         id="path68"
         style="fill:#e8816a;fill-opacity:1;fill-rule:nonzero;stroke:none"
         d="m 3771.37,2073.54 c -10.81,0.04 -21.61,0.09 -32.41,0.13 -2.99,16.48 -14.09,30.81 -31.64,35.63 -22.44,6.16 -50.22,-7.57 -55.35,-31.43 -9.08,-42.18 -23.75,-115.84 32.46,-131.08 22.14,-6 48.87,3.87 68.91,12.97 18.82,8.56 36.05,21.61 49.85,36.96 25.57,28.46 8.59,76.65 -31.82,76.82" /><path
         id="path70"
         style="fill:#e8816a;fill-opacity:1;fill-rule:nonzero;stroke:none"
         d="m 4195.04,1910.19 c -12.37,28.16 -32.27,49.48 -56.53,67.85 -2.72,2.06 -5.68,3.55 -8.77,4.62 -3.58,2.3 -7.4,4.08 -11.34,5.16 -25.4,6.98 -46.59,-8.66 -55.36,-31.43 -11.48,-29.81 -25.53,-74.08 -9.75,-104.25 18.52,-35.43 64.94,-36.16 99.54,-30.21 18.01,3.1 34.87,11.37 44.43,27.72 11.6,19.82 6.35,41.01 -2.22,60.54" /><path
         id="path72"
         style="fill:#e8816a;fill-opacity:1;fill-rule:nonzero;stroke:none"
         d="m 4443.49,2138.61 c -13.27,46.18 -51.74,84.5 -99.54,93.75 -23.03,4.46 -49.67,-6.47 -55.35,-31.43 -5.07,-22.24 6.71,-50.57 31.43,-55.35 3.88,-0.76 7.54,-1.7 11.34,-2.78 l 0.86,-0.29 c 3.13,-1.78 6.24,-3.45 9.33,-5.36 l 1.13,-0.66 0.48,-0.73 c 1.69,-2.14 4.12,-4.27 6.13,-6.26 0.58,-0.71 1.24,-1.57 1.82,-2.49 1.19,-1.88 2.2,-3.85 3.25,-5.81 0.19,-0.74 1.76,-4.51 2.34,-6.51 6.5,-22.61 32.04,-38.97 55.35,-31.43 22.99,7.44 38.4,31.12 31.43,55.35" /><path
         id="path74"
         style="fill:#e8816a;fill-opacity:1;fill-rule:nonzero;stroke:none"
         d="m 3910.7,1675.32 c -0.74,2.28 -1.75,4.43 -2.81,6.57 0.39,4.58 0.39,9.2 -0.12,13.81 -1.37,12.3 -4.11,22.75 -13.18,31.82 -7.8,7.81 -20.61,13.69 -31.82,13.18 -11.64,-0.52 -23.71,-4.34 -31.82,-13.18 -7.55,-8.23 -14.47,-20.2 -13.18,-31.82 0.23,-2.09 0.32,-4.15 0.33,-6.2 -0.29,-1.05 -0.69,-2.07 -1.04,-3.11 -3.45,-8.21 -5.05,-15.88 -3.81,-25.07 1.43,-10.67 6.43,-20.99 14.34,-28.51 13.54,-12.87 33.62,-18.37 51.68,-12.85 22.49,6.87 39.06,31.78 31.43,55.36" /><path
         id="path76"
         style="fill:#e8816a;fill-opacity:1;fill-rule:nonzero;stroke:none"
         d="m 4147.93,1647.8 c -8.8,8.09 -19.62,13.18 -31.82,13.18 h -14.07 c -11.53,0 -23.66,-5.02 -31.82,-13.18 -7.8,-7.8 -13.68,-20.61 -13.18,-31.82 0.53,-11.63 4.35,-23.7 13.18,-31.82 8.81,-8.08 19.63,-13.18 31.82,-13.18 h 14.07 c 11.54,0 23.66,5.02 31.82,13.18 7.81,7.81 13.69,20.62 13.18,31.82 -0.52,11.64 -4.34,23.71 -13.18,31.82" /><path
         id="path78"
         style="fill:#a21f26;fill-opacity:1;fill-rule:nonzero;stroke:none"
         d="m 4085.23,2151.23 c -3.71,13.51 -15.65,20.8 -28.93,22.03 -20.57,1.9 -41.15,3.81 -61.72,5.72 -16.16,1.49 -30,-14.86 -30,-30 0,-9.83 4.45,-17.52 11.15,-22.72 l -0.13,-0.9 c -3.57,-25.9 18.96,-46.43 44.07,-33.88 l 51.78,25.87 c 11.75,5.88 17.13,21.71 13.78,33.88" /><path
         id="path80"
         style="fill:#a21f26;fill-opacity:1;fill-rule:nonzero;stroke:none"
         d="m 4337.4,2030.37 -5.71,0.63 c -2,0.48 -3.99,0.98 -5.95,1.62 l -1.15,0.32 -1.56,0.91 c -0.79,0.44 -7.76,4.97 -4.14,2.14 -5.86,4.58 -12.67,7.46 -19.52,8.16 l -1.68,0.22 -0.19,0.02 c -1.49,0.2 -2.98,0.4 -4.53,0.33 -16.08,-0.72 -30.2,-13.19 -30,-30 0.2,-16.11 0.4,-32.22 0.6,-48.32 0.34,-27.17 32,-38.04 51.22,-21.22 13.14,11.51 23.33,19.42 37.75,29.29 24.27,16.59 15.7,54.91 -15.14,55.9" /><path
         id="path82"
         style="fill:#a21f26;fill-opacity:1;fill-rule:nonzero;stroke:none"
         d="m 3938.29,1880.27 c -4.07,6.24 -8.14,12.49 -12.21,18.73 -1.57,2.42 -3.51,4.49 -5.58,6.37 0.24,3.29 0.39,6.58 0.36,9.87 -0.16,15.69 -13.69,30.73 -30,30 -16.13,-0.72 -30.17,-13.18 -30,-30 0.13,-13.34 -2.57,-22.28 -11.61,-35.03 -9.08,-12.82 -2.67,-34.02 10.76,-41.05 21.78,-11.41 45.74,-11.44 67.52,0.06 13.84,7.31 19.33,27.89 10.76,41.05" /><path
         id="path84"
         style="fill:#a21f26;fill-opacity:1;fill-rule:nonzero;stroke:none"
         d="m 3728.86,1728.99 c -1.14,9.3 -2.29,18.6 -3.43,27.9 -1.01,8.25 -2.67,15.11 -8.78,21.22 -5.21,5.2 -13.74,9.12 -21.22,8.78 -3.72,-0.16 -7.5,-0.88 -11.03,-2.18 -13.69,4.34 -29.61,-0.33 -37.5,-13.81 -9.1,-15.55 -3.12,-34.34 9.82,-45.47 6.92,-5.95 13.95,-11.77 20.93,-17.66 9.44,-7.97 20.9,-11.21 32.77,-6.2 9.88,4.17 19.87,15.79 18.44,27.42" /><path
         id="path86"
         style="fill:#a21f26;fill-opacity:1;fill-rule:nonzero;stroke:none"
         d="m 3773.61,2278.44 c -6.96,4.92 -14.92,8.74 -23.18,11.25 -1.55,8.59 -6.43,16.62 -14.17,20.71 -14.74,7.79 -32.14,3.46 -41.04,-10.76 -14.09,-22.52 -10.84,-54.83 9.67,-72.46 20.75,-17.83 56.72,-18.37 74.79,4.15 12.79,15.94 10.94,35.09 -6.07,47.11" /><path
         id="path88"
         style="fill:#a21f26;fill-opacity:1;fill-rule:nonzero;stroke:none"
         d="m 4220.77,2392.86 c -16.25,-0.73 -30,-13.18 -30,-30 v -27.13 c 0,-15.69 13.8,-30.72 30,-30 16.26,0.73 30,13.19 30,30 v 27.13 c 0,15.69 -13.8,30.73 -30,30" /><path
         id="path90"
         style="fill:#a21f26;fill-opacity:1;fill-rule:nonzero;stroke:none"
         d="m 4302.16,1714.66 c -16.26,-0.73 -30,-13.18 -30,-30 v -9.04 c 0,-15.7 13.79,-30.73 30,-30 16.25,0.72 30,13.18 30,30 v 9.04 c 0,15.69 -13.8,30.72 -30,30" /><path
         id="path92"
         style="fill:#a21f26;fill-opacity:1;fill-rule:nonzero;stroke:none"
         d="m 4569.24,4098.05 c 3.82,10.34 1.42,22.42 -6.54,31.98 -18.74,22.51 -55.31,8.65 -62.78,-16.73 l -0.08,-0.36 c -12.3,-13.2 -21.67,-28.83 -28.08,-46.47 -5.54,-15.23 6.22,-32.85 20.95,-36.9 16.27,-4.47 30.55,5.2 36.4,19.86 4.97,-4.6 11.42,-7.54 19.29,-7.54 14.92,0 31.69,13.79 30,30 -1.05,10.14 -3.74,18.41 -9.16,26.16" /><path
         id="path94"
         style="fill:#a21f26;fill-opacity:1;fill-rule:nonzero;stroke:none"
         d="m 4336.93,4317.46 -0.76,0.52 c 0.86,6.88 1.15,13.83 0.75,20.73 -0.95,16.17 -13.11,30 -30,30 -14.81,0 -29.39,-12.57 -29.87,-27.85 -12.11,-1.17 -23.02,-8.94 -26.48,-21.51 -3,-10.93 1.08,-23.44 9.55,-30.91 -6.08,-20.12 16.52,-43.86 37.52,-36.73 10.7,3.64 21.41,7.28 32.12,10.92 26.28,8.93 27.52,39.2 7.17,54.83" /><path
         id="path96"
         style="fill:#a21f26;fill-opacity:1;fill-rule:nonzero;stroke:none"
         d="m 4499.78,4599.63 c -19.52,15.31 -40.8,21.23 -65.38,16.39 -15.42,-3.04 -25.68,-22.28 -20.95,-36.9 5.31,-16.41 20.38,-24.21 36.9,-20.96 l 0.28,0.07 0.74,-0.14 1.98,-0.1 0.07,-0.02 c 0.68,-0.27 3.39,-1.43 4.53,-1.79 1.84,-1.26 3.84,-2.46 -0.6,1.02 6.53,-5.12 12.55,-8.79 21.22,-8.79 7.35,0 16.14,3.27 21.21,8.79 9.9,10.79 13.18,32.08 0,42.43" /><path
         id="path98"
         style="fill:#a21f26;fill-opacity:1;fill-rule:nonzero;stroke:none"
         d="m 4306.49,4837.53 c -6.5,1.48 -12.4,1.1 -17.57,-0.75 -5.53,6.9 -13.74,11.59 -22.93,11.18 -16.13,-0.72 -30.17,-13.19 -30,-30 0.14,-14.61 0.28,-29.21 0.43,-43.82 0.24,-23.9 25,-35.83 45.14,-25.9 22.17,10.92 36.75,29.96 45.88,52.39 5.93,14.57 -6.44,33.59 -20.95,36.9" /><path
         id="path100"
         style="fill:#a21f26;fill-opacity:1;fill-rule:nonzero;stroke:none"
         d="m 4736.21,4866.04 c -16.26,-0.73 -30,-13.18 -30,-30 v -31.65 c 0,-15.69 13.79,-30.73 30,-30 16.25,0.73 30,13.18 30,30 v 31.65 c 0,15.69 -13.8,30.73 -30,30" /><path
         id="path102"
         style="fill:#a21f26;fill-opacity:1;fill-rule:nonzero;stroke:none"
         d="m 4559.87,5024.29 h -13.56 c -15.69,0 -30.73,-13.8 -30,-30 0.73,-16.26 13.18,-30 30,-30 h 13.56 c 15.7,0 30.73,13.8 30,30 -0.72,16.25 -13.18,30 -30,30" /><path
         id="path104"
         style="fill:#a21f26;fill-opacity:1;fill-rule:nonzero;stroke:none"
         d="m 4797.91,4441.14 c 0.88,13.27 -9.67,27.62 -22.27,30.5 -17.23,3.92 -30.78,-5.27 -36.91,-20.96 -4.28,-10.98 -8.57,-21.97 -12.86,-32.95 -7.01,-17.98 10.91,-38.69 28.93,-37.98 13.39,0.54 26.78,1.07 40.18,1.6 15.66,0.63 30.74,13.36 30,30 -0.67,14.77 -11.8,28.69 -27.07,29.79" /><path
         id="path106"
         style="fill:#a21f26;fill-opacity:1;fill-rule:nonzero;stroke:none"
         d="m 5072.27,4441.86 c -1.92,6.96 -7.3,14.5 -13.79,17.93 -4.52,2.38 -9.66,3.84 -14.83,4 -4.77,10.48 -15.05,18.48 -27.12,17.93 -15.96,-0.71 -30.37,-13.19 -30,-30 l 0.57,-26.41 c 0.3,-13.53 9.16,-25.01 22.03,-28.93 9.85,-3 21.36,-3 31.15,0.29 12.52,4.2 21.12,11.6 28.97,22.07 4.36,5.82 4.86,16.45 3.02,23.12" /><path
         id="path108"
         style="fill:#a21f26;fill-opacity:1;fill-rule:nonzero;stroke:none"
         d="m 4951.84,4830.12 -9.05,9.05 c -11.11,11.11 -31.46,11.94 -42.42,0 -11,-11.98 -11.86,-30.57 0,-42.43 3.01,-3.01 6.03,-6.03 9.04,-9.04 11.11,-11.11 31.47,-11.94 42.43,0 10.99,11.97 11.85,30.57 0,42.42" /><path
         id="path110"
         style="fill:#ffffff;fill-opacity:1;fill-rule:nonzero;stroke:none"
         d="m 3049.28,3624.48 c 29.29,-382.48 -197.63,-711.77 -506.82,-735.44 -304.31,-23.31 -574.89,258.06 -611.32,631.66 -0.56,5.98 -1.12,11.95 -1.58,18.04 -8.88,115.96 5.78,227.1 39.2,326.24 76.72,227.93 252.15,392.8 467.62,409.3 228.93,17.53 438.77,-137.4 544.16,-374.24 36.2,-81.18 60.01,-172.02 68.12,-268.79 0.27,-2.18 0.44,-4.47 0.62,-6.77" /><path
         id="path112"
         style="fill:#ffffff;fill-opacity:1;fill-rule:nonzero;stroke:none"
         d="m 4436.13,3777.08 c 0,-341.9 -226.5,-619 -505.8,-619 -279.4,0 -505.9,277.1 -505.9,619 0,21.9 0.9,43.5 2.7,64.8 9.3,108.5 41.4,208.6 90.3,293 91.7,158.1 242.5,261.2 412.9,261.2 183.6,0 344.4,-119.7 433,-298.9 40.5,-81.8 65.9,-176 71.5,-276.9 0.9,-14.3 1.3,-28.7 1.3,-43.2" /><path
         id="path114"
         style="fill:#d9933b;fill-opacity:1;fill-rule:nonzero;stroke:none"
         d="m 1680.13,3564.67 c -6.35,-24.55 -22.01,-46.62 -52.14,-61.76 -120.93,-60.51 -188.35,49.76 -294.32,-7.09 -51.44,-27.61 -54.67,-83.62 -61.08,-146.59 -0.64,-6.07 -1.28,-12.14 -2.01,-18.31 -4.94,-41.6 -13.23,-85.26 -38.85,-125.23 l 2.41,-0.02 c -22.73,-33.23 -53.62,-60.77 -86.5,-78.03 -15.23,-7.99 -30.73,-13.79 -46.14,-16.87 -24.6,-4.9 -48.62,-3.02 -69.7,7.7 -10.85,5.48 -20.87,13.24 -29.79,23.69 -39.24,46.14 -61.912,145.8 -83.221,253.79 l -0.141,0.49 c -9.195,46.73 -18.203,94.99 -28.16,141.16 l -0.015,0.2 c -17.368,80.11 -37.567,153.98 -67.254,202.46 -12.27,20.12 -30.285,49.73 -52.285,85.55 -131.621,215.28 -402.653,658.48 -402.653,658.48 34.305,16.97 68.746,33.45 103.297,49.83 2.828,-4.19 427.016,-632.14 487.242,-796.52 30.68,-83.7 41.168,-447.26 153.24,-449.21 81.57,75.55 73.39,373.6 235.5,349.6 162.1,-23.99 314.91,-91.62 287.9,97.47 0,0 63.97,-96.8 44.67,-170.79" /><path
         id="path116"
         style="fill:#d9933b;fill-opacity:1;fill-rule:nonzero;stroke:none"
         d="m 471.535,4534.19 0.067,-0.1 c 15.472,7.31 30.925,14.67 46.449,21.85 l -46.516,-21.75" /><path
         id="path118"
         style="fill:#d9933b;fill-opacity:1;fill-rule:nonzero;stroke:none"
         d="m 3112.21,262.449 -590.69,1012.481 -18.6,31.87 -16.04,27.46 c -25.2,55.34 -73.44,103.8 -76.46,106.67 2.78,-6.2 61.06,-139.94 -50.61,-168.25 -86.1,24.29 -92.6,223.08 -123.74,295.81 -49.34,115.17 -326.72,613.75 -326.72,613.75 488.52,225.36 560.67,527.82 535.02,742.3 -12.02,1.44 -24.12,3.3 -36.32,5.67 -3.35,0.67 -6.58,1.57 -9.9,2.3 -12.06,-323.13 -264.79,-592.81 -594.9,-618.09 -35.4,-2.71 -70.42,-2.48 -104.84,0.4 l -0.76,-4.47 c 0,0 399.87,-702.02 478.58,-949.23 l 0.1,-0.09 c 1.6,-5.2 3.09,-10.2 4.45,-14.91 4.69,-16.69 7.68,-30.8 8.52,-41.87 6.55,-85.45 116.62,-148.93 205,-133.54 l 5.84,-9.48 57.44,-93.89 600.65,-982.3009 c 17.94,-29.3594 45.01,-46.9102 74.12,-53.6797 -11.78,76.2426 -17.3,153.6606 -20.14,231.0896" /><path
         id="path120"
         style="fill:#d9933b;fill-opacity:1;fill-rule:nonzero;stroke:none"
         d="m 734.781,4651.56 c 0,0 96.934,-4.61 273.989,-2.48 -260.825,-97.4 -459.395,-191.84 -584.415,-256.58 -34.281,56.05 -56.074,91.79 -56.074,91.79 49.668,24.57 99.594,48.45 149.77,71.65 l 0.199,0.01 c 71.668,33.27 143.852,65.07 216.531,95.61" /><path
         id="path122"
         style="fill:#d9933b;fill-opacity:1;fill-rule:nonzero;stroke:none"
         d="m 2744.08,5140.14 c -56.22,-4.49 -112.45,-9.57 -168.54,-15.55 -4.38,-0.43 -8.76,-0.87 -13.23,-1.51 -106.64,-13.98 -223.03,-78.76 -355.35,-155.69 173.06,28.61 355.53,51.46 546.24,66.46 -3.04,35.44 -6.07,70.87 -9.12,106.29" /><path
         id="path124"
         style="fill:#bb5f2f;fill-opacity:1;fill-rule:nonzero;stroke:none"
         d="m 919.027,3395.46 12.114,-29.86 c -6.883,15.22 -10.957,26.54 -12.114,29.86" /><path
         id="path126"
         style="fill:#bb5f2f;fill-opacity:1;fill-rule:nonzero;stroke:none"
         d="m 1272.59,3349.23 c -0.64,-6.07 -1.28,-12.14 -2.01,-18.31 -4.94,-41.6 -13.23,-85.26 -38.85,-125.23 l 2.41,-0.02 c -22.73,-33.23 -53.62,-60.77 -86.5,-78.03 -15.23,-7.99 -30.73,-13.79 -46.14,-16.87 -24.6,-4.9 -48.62,-3.02 -69.7,7.7 l -100.175,246.07 c 21.551,-47 69.645,-130.17 143.245,-139.17 103.05,-12.47 192.09,113.5 187.95,167.64 -1.16,15.05 3.05,-5.79 9.77,-43.78" /><path
         id="path128"
         style="fill:#bb5f2f;fill-opacity:1;fill-rule:nonzero;stroke:none"
         d="m 2457.58,1067.34 -57.44,93.89 -5.84,9.48 c -88.38,-15.39 -198.45,48.09 -204.99,133.54 -0.85,11.07 -3.84,25.18 -8.53,41.87 l 34.36,-32.17 c 0,0 71.13,-98.56 162.17,-70.72 91.14,27.94 92.86,121.94 92.86,121.94 l 32.76,-58.37 1.89,14.59 c 0,0 9.72,-18.21 16.69,-46.46 12.89,-51.77 16.75,-137.42 -63.93,-207.59" /><path
         id="path130"
         style="fill:#bd2d35;fill-opacity:1;fill-rule:nonzero;stroke:none"
         d="m 2374.78,2782.53 c -71.29,-253.08 -294.14,-446.87 -571.53,-468.11 -35.4,-2.71 -70.42,-2.48 -104.84,0.4 -44.01,3.75 -87.07,11.99 -128.43,24.36 0,0 -293.33,524.84 -468.48,771.59 85.43,17.17 177.01,116.65 169.25,217.95 -11.15,145.58 61.69,214.64 191.72,173.35 99.41,-31.7 212.38,-15.13 225.78,96.62 l 0.1,0.01 c 5.38,0.51 10.86,1.03 16.44,1.46 35.4,2.71 70.32,2.47 104.64,-0.41 l 0.2,-0.09 c 0,0 -1.55,-186.66 -159.32,-204.86 -157.76,-18.3 -199.94,51.78 -248.45,6.85 -48.61,-44.94 11.23,-193.81 -130.34,-335.83 l 365.59,-645.98 c 0,0 455.56,-120.76 737.67,362.69" /><path
         id="path132"
         style="fill:#bd2d35;fill-opacity:1;fill-rule:nonzero;stroke:none"
         d="m 3039.96,1535.98 c -92.73,204.52 -56.09,473.58 -43.75,546.37 -0.31,3.88 -0.62,7.76 -0.93,11.64 -68.86,-111.8 -104.37,-245.59 -93.58,-386.57 10.97,-143.19 67.96,-271.82 155.3,-372.62 -5.66,67.1 -11.4,134.17 -17.04,201.18" /><path
         id="path134"
         style="fill:#bd2d35;fill-opacity:1;fill-rule:nonzero;stroke:none"
         d="m 2562.31,5123.08 c -104.55,-13.72 -218.42,-76.2 -347.47,-151.17 -444.96,-73.89 -1026.78,-256.95 -1229.817,-323.15 -47.066,-15.34 -73.75,-24.4 -73.75,-24.4 l -23.214,24.2 -45.336,47.17 c 554.137,221.06 1132.917,363.97 1719.587,427.35" /><path
         id="path136"
         style="fill:#fdfbc2;fill-opacity:1;fill-rule:nonzero;stroke:none"
         d="m 1370.3,3656.6 c 0,0 147.35,-46.54 192.83,-29.29 45.49,17.25 44.87,61.26 44.87,61.26 0,0 -53.03,-42.61 -237.7,-31.97" /><path
         id="path138"
         style="fill:#fdfbc2;fill-opacity:1;fill-rule:nonzero;stroke:none"
         d="m 2046.37,2053.8 c 0,0 150.33,-322.3 203.82,-400.07 53.48,-77.76 -86.86,292.1 -142.91,369.57 -56.05,77.46 -81.4,74 -60.91,30.5" /><path
         id="path140"
         style="fill:#fdfbc2;fill-opacity:1;fill-rule:nonzero;stroke:none"
         d="m 712.238,4257.04 c 0,0 145.594,-255.89 188.961,-324.93 43.367,-69.04 112.481,-48.47 58.844,55.49 -53.637,103.96 -142.391,237.67 -179.66,292.67 -37.274,54.99 -134.36,92.48 -68.145,-23.23" /><path
         id="path142"
         style="fill:#fdfbc2;fill-opacity:1;fill-rule:nonzero;stroke:none"
         d="m 986.418,3837.26 c -14.348,-32.03 0.937,-112.97 31.712,-121.5 30.77,-8.53 34.65,42.97 31,78.83 -3.65,35.86 -40.69,91.82 -62.712,42.67" /><path
         id="path144"
         style="fill:#d9933b;fill-opacity:1;fill-rule:nonzero;stroke:none"
         d="m 3070.94,1165.5 c -4.5,56.46 -9.19,112.89 -13.94,169.3 -87.34,100.8 -144.33,229.43 -155.3,372.62 -10.79,140.95 24.74,274.71 93.58,386.57 -1.83,22.93 -3.67,45.86 -5.5,68.79 -118.94,-136.13 -185.35,-318.02 -170.46,-512.51 15.08,-196.86 110.55,-368.23 251.62,-484.77" /><path
         id="path146"
         style="fill:#fdfbc2;fill-opacity:1;fill-rule:nonzero;stroke:none"
         d="m 2304.37,4982.77 c 0,0 -217.5,-183.74 -402.1,-282.52 -184.5,-98.68 -493.95,-145.24 -723.01,-132.29 -229.057,12.95 -267.987,56.4 -267.987,56.4 l 3.059,24.2 c 28.285,-0.04 59.871,0.08 94.438,0.52 101.51,1.15 229.42,4.53 380.57,12.29 334.77,17.21 598.13,178.29 817.62,306.02 8.46,4.86 16.81,9.71 25.07,14.56 l 72.34,0.82" /><path
         id="path148"
         style="fill:#b97135;fill-opacity:1;fill-rule:nonzero;stroke:none"
         d="m 2719.95,5422.91 c -55.41,-4.45 -110.81,-9.46 -166.08,-15.35 -4.38,-0.43 -8.76,-0.87 -13.23,-1.51 C 1915.77,5338.54 1299.91,5180.86 713.113,4934.54 589.613,4882.65 467.406,4826.96 346.609,4767.26 171.523,4879.62 153.379,5069.39 175.828,5272.6 136.34,5253.93 96.9805,5234.87 57.7422,5215.52 2.23438,4931.95 125.055,4640.38 368.277,4484.29 c 120.797,59.7 243.004,115.39 366.504,167.27 586.799,246.33 1202.659,404.01 1827.529,471.52 4.47,0.64 8.85,1.08 13.23,1.51 56.09,5.98 112.32,11.06 168.54,15.55 -8.1,94.25 -16.15,188.51 -24.13,282.77" /><path
         id="path150"
         style="fill:#b97135;fill-opacity:1;fill-rule:nonzero;stroke:none"
         d="m 2719.95,5422.91 c -55.41,-4.45 -110.81,-9.46 -166.08,-15.35 -4.38,-0.43 -8.76,-0.87 -13.23,-1.51 C 1915.77,5338.54 1299.91,5180.86 713.113,4934.54 589.613,4882.65 467.406,4826.96 346.609,4767.26 171.523,4879.62 153.379,5069.39 175.828,5272.6 136.34,5253.93 96.9805,5234.87 57.7422,5215.52 2.23438,4931.95 125.055,4640.38 368.277,4484.29 c 120.797,59.7 243.004,115.39 366.504,167.27 586.799,246.33 1202.659,404.01 1827.529,471.52 4.47,0.64 8.85,1.08 13.23,1.51 56.09,5.98 112.32,11.06 168.54,15.55 -8.1,94.25 -16.15,188.51 -24.13,282.77" /><path
         id="path152"
         style="fill:#9f5825;fill-opacity:1;fill-rule:nonzero;stroke:none"
         d="m 2733.35,5265.3 c -58.41,-4.67 -116.82,-9.96 -175.09,-16.16 -4.56,-0.45 -9.12,-0.91 -13.76,-1.57 -649.98,-70.23 -1290.6,-234.25 -1900.992,-490.47 -128.465,-53.97 -255.582,-111.9 -381.231,-174 -14.734,9.45 -29,19.43 -42.871,29.81 42.715,-48.93 92.516,-92.45 148.871,-128.62 120.797,59.7 243.004,115.39 366.504,167.27 586.799,246.33 1202.659,404.01 1827.529,471.52 4.47,0.64 8.85,1.08 13.23,1.51 56.09,5.98 112.32,11.06 168.54,15.55 -3.58,41.72 -7.16,83.43 -10.73,125.16" /><path
         id="path154"
         style="fill:#f8d7ba;fill-opacity:1;fill-rule:nonzero;stroke:none"
         d="m 2687.71,5813.35 c -3.28,41.15 -6.52,82.29 -9.72,123.45 3.2,-41.15 6.46,-82.3 9.75,-123.45 v 0 m -9.96,126.27 c -0.06,0.76 -0.12,1.54 -0.18,2.31 0,-0.02 0,-0.02 0,-0.02 0.06,-0.77 0.12,-1.53 0.18,-2.29" /><path
         id="path156"
         style="fill:#e1b169;fill-opacity:1;fill-rule:nonzero;stroke:none"
         d="m 44.8398,5059.6 c -1.6992,52.45 2.4102,105.57 12.75,158.41 823.4842,406.88 1704.8102,650.31 2620.0102,723.9 0.06,-0.75 0.12,-1.53 0.18,-2.29 0.07,-0.94 0.14,-1.88 0.21,-2.82 3.2,-41.16 6.44,-82.3 9.72,-123.45 -878.07,-70.57 -1724.98,-297.48 -2519.546,-675.1 -0.019,2.52 -0.031,5.05 -0.031,7.58 0.004,41.25 2.937,83.71 7.695,126.77 v 0 c -39.488,-18.67 -78.8475,-37.73 -118.0858,-57.08 -8.8906,-45.42 -13.207,-91.04 -13.1836,-136.28 0,-6.55 0.0977,-13.11 0.2812,-19.64" /><path
         id="path158"
         style="fill:#d79b4f;fill-opacity:1;fill-rule:nonzero;stroke:none"
         d="m 54.4336,4963.94 c -5.3203,31.5 -8.5508,63.45 -9.5938,95.66 -0.1835,6.53 -0.2812,13.09 -0.2812,19.64 -0.0234,45.24 4.293,90.86 13.1836,136.28 39.2383,19.35 78.5978,38.41 118.0858,57.08 v 0 c -4.758,-43.06 -7.691,-85.52 -7.695,-126.77 0,-2.53 0.012,-5.06 0.031,-7.58 -33.668,-16 -67.25,-32.28 -100.7265,-48.82 -8.1836,-41.81 -12.3906,-83.79 -13.0039,-125.49" /><path
         id="path160"
         style="fill:#f68c60;fill-opacity:1;fill-rule:nonzero;stroke:none"
         d="m 2329.24,2952.84 c 5.9,-78.3 1.49,-165.95 -16.79,-264.04 -4.9,-26.46 -8.75,-50.72 -11.46,-72.99 32.08,51.29 57.07,107.37 73.79,166.72 13.53,48.14 21.44,98.39 23.36,149.98 -23.72,5.21 -46.68,12 -68.9,20.33" /><path
         id="path162"
         style="fill:#a21f26;fill-opacity:1;fill-rule:nonzero;stroke:none"
         d="m 3054.39,1365.65 c -77.52,95.83 -127.88,215.18 -137.98,347.1 -9.7,126.62 18.16,250.27 80.61,359.49 -1.35,16.83 -2.69,33.67 -4.04,50.51 -2.03,-3.09 -4.2,-6.04 -6.19,-9.17 l -0.85,-1.41 c -75.97,-120.41 -110.35,-259.28 -99.45,-401.71 11.74,-153.28 75.39,-290.33 172.17,-395.54 -1.42,16.91 -2.84,33.82 -4.27,50.73" /><path
         id="path164"
         style="fill:#a21f26;fill-opacity:1;fill-rule:nonzero;stroke:none"
         d="m 2408.05,2930.21 c -8.51,1.7 -16.85,3.74 -25.17,5.83 -1.92,-49.16 -9.45,-97.8 -22.79,-145.26 -16.19,-57.45 -40.44,-112.24 -72.07,-162.83 -105.89,-169.13 -287.64,-279.18 -486.17,-294.38 -33.89,-2.6 -68.35,-2.47 -102.41,0.38 -40.57,3.46 -80.78,10.88 -119.62,22.09 -30.73,54.73 -289.04,513.02 -454.06,750.12 84.08,29.08 167.41,127.06 159.69,227.9 -5.41,70.72 9.42,122.11 42.89,148.62 29.69,23.52 74.42,26.72 129.33,9.29 71.74,-22.88 141.56,-19.18 186.79,9.9 29.88,19.22 49.28,49.18 56.57,87.14 34.17,2.91 69.82,2.97 104.62,0.16 l 2.46,-0.26 c 18.48,-1.57 37.32,-4.05 56,-7.37 35.54,-6.29 69.96,-15.52 103.04,-27.39 -1.69,10.91 -2.98,21.93 -4.02,33 -30.3,10.1 -61.57,18.23 -93.78,23.93 -18.79,3.34 -37.76,5.87 -56.41,7.52 l -2.51,0.28 c -35.57,3 -71.59,3.14 -107.04,0.42 -5.51,-0.42 -10.92,-0.93 -16.53,-1.46 l -12.28,-0.94 -1.47,-12.23 c -4.21,-35.02 -19.3,-61.12 -44.87,-77.56 -37.81,-24.3 -98.15,-26.75 -161.48,-6.56 -64.85,20.61 -119.18,15.64 -157.05,-14.35 -41.65,-32.99 -60.38,-93.31 -54.17,-174.43 7.24,-94.57 -78.58,-186.3 -157.25,-202.11 l -22.65,-4.55 13.37,-18.84 c 172.68,-243.26 464.7,-764.98 467.62,-770.22 l 2.97,-5.3 5.83,-1.75 c 42.6,-12.75 86.83,-21.14 131.48,-24.94 35.68,-2.99 71.75,-3.12 107.23,-0.41 207.99,15.93 398.39,131.22 509.31,308.39 33.15,53.01 58.55,110.41 75.52,170.62 13.49,47.97 21.35,97.08 23.71,146.73 -1.55,0.29 -3.08,0.52 -4.63,0.82" /><path
         id="path166"
         style="fill:#d9933b;fill-opacity:1;fill-rule:nonzero;stroke:none"
         d="m 3566.12,381.52 -40.67,83.839 c -3.73,-71.91 -7.41,-143.828 -11.02,-215.75 53.54,-20.418 119.73,-1.398 149.49,57.313 l 59.41,117.297 C 3616.72,322.629 3566.12,381.52 3566.12,381.52" /><path
         id="path168"
         style="fill:#d9933b;fill-opacity:1;fill-rule:nonzero;stroke:none"
         d="m 3558,5370.96 c 0.51,-35.58 0.91,-71.17 1.22,-106.76 707.6,-2.29 1518.76,-122.12 2377.2,-468.68 32.2,63.5 52.2,102.8 52.2,102.8 -779.9,313.8 -1605.21,471.24 -2430.62,472.64" /><path
         id="path170"
         style="fill:#bb5f2f;fill-opacity:1;fill-rule:nonzero;stroke:none"
         d="m 5295.72,3190.02 c -12.2,-35.2 -45.1,-115.3 -103.9,-158.2 -39.4,-28.8 -90.2,-40.8 -154.2,-11.5 -5.1,2.3 -10.3,4.9 -15.6,7.8 -135.1,73.7 -120,199.5 -92,296.2 l 14.3,34.7 c -1.6,-7.8 -37.8,-191.8 118.8,-247.3 117.3,-41.7 191.7,4 232.6,78.3" /><path
         id="path172"
         style="fill:#bb5f2f;fill-opacity:1;fill-rule:nonzero;stroke:none"
         d="m 1768.46,3474.05 12.12,-29.86 c -6.88,15.22 -10.96,26.54 -12.12,29.86" /><path
         id="path174"
         style="fill:#bd2d35;fill-opacity:1;fill-rule:nonzero;stroke:none"
         d="m 3672.13,1570.73 c -43.96,34.76 -77.13,77.25 -101.88,124.14 -0.51,-56.99 -1.2,-113.97 -2.11,-170.94 118.27,-142.11 296.41,-232.61 495.68,-232.61 28.31,0 62.7,-5 95.1,-6.79 47.6,-2.7 91,1.39 104.5,38.3 11.3,30.79 22.9,61.19 34.8,90.89 -168.7,-20.48 -401.65,-20.48 -626.09,157.01" /><path
         id="path176"
         style="fill:#bd2d35;fill-opacity:1;fill-rule:nonzero;stroke:none"
         d="m 4552.33,5117.1 c -358.65,0 -649.44,-290.79 -649.44,-649.44 0,-35.57 2.97,-70.42 8.47,-104.44 53.07,-3.32 104.69,-14.35 153.36,-32.24 -22.04,60.78 -34.1,126.34 -34.1,194.72 0,315.43 255.75,571.18 571.19,571.18 315.43,0 571.18,-255.75 571.18,-571.18 0,-315.43 -255.75,-571.18 -571.18,-571.18 -74.89,0 -146.34,14.56 -211.88,40.77 6.82,-21.58 12.32,-43.8 16.29,-66.64 5.74,-33.1 9.87,-65.07 12.26,-96.56 43.2,-9.05 87.96,-13.87 133.85,-13.87 358.75,0 649.54,290.69 649.54,649.44 0,358.65 -290.79,649.44 -649.54,649.44" /><path
         id="path178"
         style="fill:#fdfbc2;fill-opacity:1;fill-rule:nonzero;stroke:none"
         d="m 4448.27,3647.05 c 0,0 37.91,-87.34 137.54,-73.13 99.63,14.22 175.93,98.6 175.93,98.6 0,0 -203.25,-92.23 -313.47,-25.47" /><path
         id="path180"
         style="fill:#fdfbc2;fill-opacity:1;fill-rule:nonzero;stroke:none"
         d="m 4828.1,2895.33 c 0,0 -242.53,-387.64 -223.09,-431.7 19.44,-44.06 202.49,278.02 223.09,431.7" /><path
         id="path182"
         style="fill:#fdfbc2;fill-opacity:1;fill-rule:nonzero;stroke:none"
         d="m 3818.39,881.07 c 0,0 -181.21,-338.609 -172.07,-380.941 9.15,-42.32 114.97,173.152 144.79,230.871 29.81,57.719 123.13,253.961 124.57,269.35 1.44,15.39 -72.89,-23.088 -97.29,-119.28" /><path
         id="path184"
         style="fill:#fdfbc2;fill-opacity:1;fill-rule:nonzero;stroke:none"
         d="m 3915.7,4991.79 c 0,0 -136.49,-143.7 -134.86,-323.11 1.64,-179.4 32.35,-145.02 37.55,-98.67 5.2,46.35 100.76,365.73 183.8,426.55 83.03,60.83 -56.31,32.13 -86.49,-4.77" /><path
         id="path186"
         style="fill:#fdfbc2;fill-opacity:1;fill-rule:nonzero;stroke:none"
         d="m 3801.29,4356.09 c 7.43,1.58 14.9,2.93 22.41,4.07 5.29,7.57 8.29,19.63 8.29,31.5 0,27.96 3.46,132.42 -40.88,63.7 0,0 -24.39,-57.35 0,-89.15 3.58,-4.67 6.96,-7.89 10.18,-10.12" /><path
         id="path188"
         style="fill:#d9933b;fill-opacity:1;fill-rule:nonzero;stroke:none"
         d="m 4557.02,3835.42 c -48.16,0 -95.02,5.45 -140.17,15.46 4.07,-41.75 5.08,-82.46 2.46,-123.5 37.26,-6.61 75.55,-10.26 114.71,-10.26 348.4,0 633,273.1 651.21,617.01 -66.21,-285.81 -322.3,-498.71 -628.21,-498.71" /><path
         id="path190"
         style="fill:#d9933b;fill-opacity:1;fill-rule:nonzero;stroke:none"
         d="m 3923.23,4362.42 c -7.04,38.18 -10.9,77.48 -10.9,117.71 0,40.29 3.69,79.69 10.8,117.99 -26.71,-71.2 -41.31,-148.39 -41.31,-228.9 0,-1.64 0.11,-3.26 0.13,-4.9 13.85,-0.11 27.62,-0.74 41.28,-1.9" /><path
         id="path192"
         style="fill:#d9933b;fill-opacity:1;fill-rule:nonzero;stroke:none"
         d="m 3573.32,2354.22 c 118.26,138.6 294.07,226.6 490.5,226.6 13.4,0 26.81,-0.4 40,-1.2 -24.1,2.5 -48.5,3.8 -73.19,3.8 -175.04,0 -334.9,-64.57 -457.42,-171 0.05,-19.4 0.11,-38.8 0.11,-58.2" /><path
         id="path194"
         style="fill:#d9933b;fill-opacity:1;fill-rule:nonzero;stroke:none"
         d="m 4063.82,1291.32 c -199.27,0 -377.41,90.5 -495.68,232.61 -0.85,-52.77 -1.86,-105.54 -3.22,-158.31 123.54,-110.76 286.72,-178.19 465.71,-178.19 27.59,0 54.8,1.59 81.5,4.8 l 46.79,92.3 c -32.4,1.79 -66.79,6.79 -95.1,6.79" /><path
         id="path196"
         style="fill:#b97135;fill-opacity:1;fill-rule:nonzero;stroke:none"
         d="m 6242.42,5651.12 c -40.6,16.31 -81.3,32.3 -122.1,47.9 37.9,-200.89 34.3,-391.5 -131.7,-516.9 -781.46,314.42 -1608.49,471.89 -2435.53,472.67 1.74,-94.61 3.58,-189.22 4.91,-283.83 825.41,-1.4 1650.72,-158.84 2430.62,-472.63 230.6,174.19 330.81,474.3 253.8,752.79" /><path
         id="path198"
         style="fill:#b97135;fill-opacity:1;fill-rule:nonzero;stroke:none"
         d="m 6242.42,5651.12 c -40.6,16.31 -81.3,32.3 -122.1,47.9 37.9,-200.89 34.3,-391.5 -131.7,-516.9 -781.46,314.42 -1608.49,471.89 -2435.53,472.67 1.74,-94.61 3.58,-189.22 4.91,-283.83 825.41,-1.4 1650.72,-158.84 2430.62,-472.63 230.6,174.19 330.81,474.3 253.8,752.79" /><path
         id="path200"
         style="fill:#9f5825;fill-opacity:1;fill-rule:nonzero;stroke:none"
         d="m 6086.78,5004.94 c -812.04,326.72 -1671.39,490.51 -2530.8,491.65 0.74,-41.88 1.43,-83.75 2.02,-125.63 825.41,-1.4 1650.72,-158.84 2430.62,-472.64 53.44,40.37 99.77,87.56 138.62,139.62 -13.03,-11.41 -26.49,-22.45 -40.46,-33" /><path
         id="path202"
         style="fill:#f8d7ba;fill-opacity:1;fill-rule:nonzero;stroke:none"
         d="m 6267.87,5477.21 c -1.21,58.03 -9.55,116.43 -25.45,173.91 -0.9,0.36 -1.8,0.72 -2.7,1.09 -0.13,0.47 -0.26,0.94 -0.39,1.41 -860.06,346.01 -1766.11,521.6 -2693.09,521.9 0.24,0 0.48,0 0.72,0 927.8,0 1834.71,-175.6 2695.51,-521.9 16.12,-58.31 24.42,-117.56 25.4,-176.41 m -2719.55,576.17 c 0,0.16 0,0.31 0,0.47 -0.03,41.39 -7.36,82.42 -20.61,121.56 v 0 c 13.25,-39.15 20.58,-80.17 20.61,-121.56 0,-0.15 0,-0.32 0,-0.47" /><path
         id="path204"
         style="fill:#e1b169;fill-opacity:1;fill-rule:nonzero;stroke:none"
         d="m 6138.22,5565.68 c -829.23,319 -1699.91,480.71 -2589.86,480.87 0,2.28 -0.03,4.56 -0.04,6.83 0,0.15 0,0.32 0,0.47 -0.03,41.39 -7.36,82.41 -20.61,121.56 6.18,0.02 12.35,0.11 18.53,0.11 926.98,-0.3 1833.03,-175.89 2693.09,-521.9 0.13,-0.47 0.26,-0.94 0.39,-1.41 -39.7,15.92 -79.5,31.56 -119.4,46.81 v 0 c 8.53,-45.17 14.95,-89.83 17.9,-133.34" /><path
         id="path206"
         style="fill:#d79b4f;fill-opacity:1;fill-rule:nonzero;stroke:none"
         d="m 6265.02,5400.53 c -3.8,41.54 -11.2,83.08 -22.55,124.14 -34.66,13.94 -69.44,27.63 -104.25,41.01 -2.95,43.51 -9.37,88.17 -17.9,133.34 v 0 c 40.8,-15.6 81.5,-31.59 122.1,-47.9 15.9,-57.48 24.24,-115.88 25.45,-173.91 0.43,-25.67 -0.54,-51.27 -2.85,-76.68" /><path
         id="path208"
         style="fill:#f68c60;fill-opacity:1;fill-rule:nonzero;stroke:none"
         d="m 4063.82,2580.82 c -196.43,0 -372.22,-87.93 -490.5,-226.45 0,-4.17 -0.01,-8.33 -0.01,-12.49 110.59,81.62 551.36,360.38 994.91,-4.16 -118.1,148.1 -300.09,243.1 -504.4,243.1" /><path
         id="path210"
         style="fill:#f68c60;fill-opacity:1;fill-rule:nonzero;stroke:none"
         d="m 5201.82,4480.12 c 0,-50.2 -5.7,-99.1 -16.6,-146 -43.8,682.2 -632.9,783 -632.9,783 l 36.9,6.9 c 341.1,-16.8 612.6,-298.6 612.6,-643.9" /><path
         id="path212"
         style="fill:#bb5f2f;fill-opacity:1;fill-rule:nonzero;stroke:none"
         d="m 4920.62,3166.42 c 0,125.4 101.78,364.16 -9.42,416.16 -3.98,1.86 -7.87,3.36 -11.73,4.68 12.51,-71.41 -24.5,-210.21 -24.5,-210.21 l -0.04,-0.04 c -8.02,-24.78 -19.41,-57.09 -33.11,-100.6 -34.6,-109.9 -17.3,-300.79 138.7,-368.79 l 57.1,112.7 2.6,5.1 c 15.2,-5.1 30.6,-8.5 46,-10.4 -48.9,12.4 -165.6,52.4 -165.6,151.4" /><path
         id="path214"
         style="fill:#d9933b;fill-opacity:1;fill-rule:nonzero;stroke:none"
         d="m 5327.62,3455.12 c -24.2,7.9 -39.1,6.1 -37.9,-11.4 5.5,-81.3 -88.6,-290.8 -162.99,-290.8 -68.46,0 -114.83,53.28 -86.41,135.15 l -0.17,-0.12 c 101.68,307.62 -140.68,299.31 -140.68,299.31 57.4,-29.85 65.77,-94.94 65.88,-129.65 0.41,-7.77 0.05,-15.47 -1.23,-22.89 -4.1,-24 -20.6,-63.8 -34.1,-110.4 -28,-96.7 -43.09,-222.5 92,-296.2 5.3,-2.9 10.5,-5.5 15.6,-7.8 64,-29.3 114.8,-17.3 154.2,11.5 58.8,42.9 91.7,123 103.9,158.2 3.11,8.9 4.8,14.9 5.3,16.7 l 0.1,0.5 c 3.5,23.5 5.1,49.3 4.5,77.6 -0.9,46.5 7.9,106.5 22,170.3" /><path
         id="path216"
         style="fill:#a21f26;fill-opacity:1;fill-rule:nonzero;stroke:none"
         d="m 4590,5143.2 c -11.7,0.55 -22.46,0.82 -32.9,0.82 -363.76,0 -659.71,-295.94 -659.71,-659.7 0,-41.31 4,-81.69 11.3,-120.92 10.38,-0.59 20.7,-1.51 30.95,-2.7 -7.99,39.99 -12.25,81.31 -12.25,123.62 0,347.21 282.49,629.7 629.71,629.7 9.96,0 20.26,-0.26 31.45,-0.78 335.52,-16.53 598.34,-292.78 598.34,-628.92 0,-48.37 -5.46,-96.35 -16.21,-142.62 -66.44,-286.78 -318.75,-487.08 -613.58,-487.08 -49,0 -96.63,5.81 -142.44,16.44 1.27,-10.58 2.37,-21.09 3.25,-31.53 44.9,-9.69 91.44,-14.91 139.19,-14.91 308.87,0 573.21,209.85 642.8,510.3 11.28,48.48 16.99,98.74 16.99,149.4 0,352.15 -275.35,641.57 -626.89,658.88" /><path
         id="path218"
         style="fill:#a21f26;fill-opacity:1;fill-rule:nonzero;stroke:none"
         d="m 4692.17,2142.32 c -11.06,34.32 -24.87,67.65 -41.03,99.04 -19.86,38.71 -43.79,75.69 -71.11,109.91 -126.07,158.08 -314.19,248.75 -516.14,248.75 -189.92,0 -365.51,-79.27 -490.62,-219.05 0.02,-15.44 0.03,-30.88 0.02,-46.32 120.34,149.76 297.75,235.37 490.6,235.37 192.77,0 372.34,-86.55 492.69,-237.46 26.08,-32.67 48.91,-67.96 67.87,-104.91 14.33,-27.83 26.72,-57.25 36.87,-87.55 -31.18,-45.68 -225.22,-336.51 -376.95,-716.6 -11.47,-28.63 -23.23,-59.36 -34.97,-91.33 -8.52,-23.35 -34.47,-31.61 -89.58,-28.47 -12.84,0.71 -26.27,1.96 -39.26,3.17 -20.12,1.87 -39.13,3.65 -56.67,3.65 -200.86,0 -379.91,94.66 -495.29,241.59 -0.22,-15.35 -0.49,-30.69 -0.75,-46.04 121,-138.1 298.45,-225.55 496.04,-225.55 16.15,0 34.48,-1.71 53.89,-3.52 13.26,-1.23 26.97,-2.51 40.36,-3.26 6.27,-0.35 14.31,-0.81 23.28,-0.81 33.73,0 80.63,6.45 96.15,48.92 11.63,31.68 23.29,62.13 34.66,90.51 163.28,409.05 375.81,713.71 377.94,716.74 l 4.3,6.11 -2.3,7.11" /><path
         id="path220"
         style="fill:#e1dabc;fill-opacity:1;fill-rule:nonzero;stroke:none"
         d="m 2902.45,3129.37 c -90.85,-119.38 -217.65,-197.49 -362.43,-208.58 -304.31,-23.3 -574.88,258.06 -611.31,631.67 -0.56,5.98 -1.12,11.95 -1.58,18.03 -8.88,115.96 5.77,227.11 39.2,326.25 46.89,139.39 130.79,255.23 238.16,327.84 -44.39,-58.06 -80.21,-125.99 -105.28,-200.72 -33.43,-99.15 -48.08,-210.29 -39.2,-326.25 0.46,-6.08 1.02,-12.06 1.58,-18.03 36.43,-373.61 307,-654.97 611.31,-631.67 83.66,6.41 161.39,35.22 229.55,81.46" /><path
         id="path222"
         style="fill:#e1dabc;fill-opacity:1;fill-rule:nonzero;stroke:none"
         d="m 4259.1,3319.82 c -90.6,-105.4 -213.3,-170.1 -348.2,-170.1 -257,0 -469.2,234.4 -501.6,538.1 v 0.1 c -2.8,26.4 -4.3,53.4 -4.3,80.8 0,21.9 0.9,43.5 2.7,64.8 5.9,69.1 21.1,134.7 44,195.1 v 0.1 c 13,34.5 28.5,67.2 46.3,97.8 52.2,90 123.5,162.1 206.7,207.6 -23.7,-27.6 -45.4,-58.1 -64.4,-91 -48.9,-84.4 -81,-184.5 -90.3,-293 -1.8,-21.3 -2.7,-42.9 -2.7,-64.8 0,-341.9 226.5,-619 505.9,-619 73.4,0 143,19.1 205.9,53.5" /><path
         id="path224"
         style="fill:#100f0d;fill-opacity:1;fill-rule:nonzero;stroke:none"
         d="m 2437.25,1158.59 c 12.55,6.28 24.19,14.09 34.5,23.51 44.17,40.08 77.91,209.76 -70.55,262.57 0,0 92.1,-148.4 23.55,-210.71 -35.06,-31.88 -88.7,-26.85 -127.18,-11.65 -47.69,19.02 -80.33,55.03 -83.14,91.62 -11.59,151.46 -364.46,787.17 -470.67,975.71 l -33.43,60.73 c -44.02,2.45 -87.48,9.44 -129.9,21.24 -40.75,72.4 -277.38,490.76 -438.34,726.35 83.05,37.85 161.8,135.76 153.78,240.45 -4.8,62.81 7.77,109.51 35.38,131.38 30.64,24.21 77.15,16.64 110.87,5.88 93.75,-29.82 179.17,-17.66 228.6,32.35 15.35,15.62 30.17,38.12 38.18,69.82 l 5.71,60.42 c -4.46,52.91 -88.93,104.21 -88.93,104.21 18.61,-55.64 33.39,-146.48 -4.76,-185.21 -29.69,-30.05 -91.53,-35.89 -157.63,-14.87 -90.35,28.68 -145.3,6.22 -175.46,-17.65 -32.91,-26.09 -70.27,-80.4 -61.75,-191.67 5.74,-74.98 -56.73,-148.47 -117.78,-173.71 -26.64,-10.96 -63.74,-17.61 -89.42,12.51 -38.235,44.91 -61.267,163.6 -83.497,278.44 C 912.348,3569 888.52,3691.63 843.34,3765.6 l -434.871,711.17 c 106.453,51.78 214.031,100.74 322.547,146.56 44.164,-1.73 279.104,-9.01 650.334,10.08 9.89,0.56 19.57,1.1 29.24,1.84 316.08,24.21 571.17,172.92 777.19,293.1 145.36,84.75 270.84,157.84 380.27,168.23 52.62,5.6 105.44,10.43 158.32,14.75 l 31.02,-395.5 c 0.17,-3.16 15.43,-284.22 31.22,-509.88 -104.17,76.28 -227.43,116.55 -356.59,106.66 -330.23,-25.29 -573.28,-367.85 -542.85,-765.18 0.45,-5.99 1.01,-11.96 1.67,-17.92 1.85,-20.22 4.48,-40.18 7.79,-59.89 32.84,-195.66 129.83,-362.14 261.5,-469.4 -45.2,2.25 -87.26,-1.17 -122.7,-7.29 -37,-6.54 -66.88,-15.85 -87.23,-23.83 -10.15,-3.69 -17.98,-7.49 -23.21,-10 -5.22,-2.51 -7.9,-4.12 -7.9,-4.12 0,0 3,0.13 8.8,0.28 5.81,0.04 14.23,0.18 24.95,0.3 21.27,-0.07 51.4,-0.67 86.88,-2.97 17.75,-1.25 36.91,-2.69 56.86,-5.18 20.02,-2.07 41.02,-5.28 62.47,-8.95 21.35,-3.78 43.26,-8.32 65.34,-13.75 11.02,-2.47 21.83,-6.16 32.97,-8.81 10.89,-3.48 21.95,-6.44 32.78,-10.33 10.82,-3.78 21.81,-7.16 32.38,-11.56 5.27,-2.11 10.54,-4.11 15.91,-6.11 5.29,-2.2 10.47,-4.41 15.65,-6.62 10.46,-4.31 20.65,-9.05 30.65,-13.8 10.27,-4.43 19.8,-9.72 29.5,-14.69 9.79,-4.67 18.93,-10.18 28.15,-15.19 4.51,-2.57 9.11,-5.13 13.51,-7.6 4.43,-2.76 8.74,-5.45 12.96,-8.03 17.42,-10.1 33.01,-21.14 47.98,-30.73 4.46,-3.16 8.81,-6.24 12.94,-9.14 2.66,-2 5.31,-3.9 7.96,-5.7 3.38,-2.35 6.67,-4.61 9.85,-6.87 3.08,-2.27 6.06,-4.55 8.95,-6.84 10.23,-7.94 20.16,-14.5 27.96,-20.72 l 2.68,-2.21 c 8.14,-6.79 15.14,-11.67 19.72,-15.23 4.14,-3 6.59,-4.81 7.11,-5.18 -0.24,0.59 -1.65,3.29 -3.99,7.72 -2.9,5.1 -6.8,12.72 -12.52,22.01 -2.67,4.71 -5.97,9.77 -9.59,15.21 -3.63,5.44 -7.78,11.24 -12.17,17.42 -8.49,12.69 -19.99,25.35 -32.03,39.88 -3.28,3.45 -6.66,7.01 -10.04,10.56 -10.14,10.55 -21.02,21.66 -33.45,32.14 -3.12,2.77 -6.35,5.63 -9.58,8.49 14.38,-0.4 28.71,-0.31 43.19,0.5 2.8,0.12 5.59,0.33 8.38,0.54 17.35,1.33 34.53,3.55 51.35,6.64 122.65,22.16 231.08,88.81 314.9,185.14 10.85,-182.9 21.78,-391.34 31.58,-578.41 5.12,-97.85 9.71,-185.35 13.67,-257.56 -180.7,-55.99 -317.24,-120.7 -378.23,-151.83 -0.62,2.64 -1.27,5.28 -1.77,7.88 -1.38,7.4 -3.05,14.62 -3.97,21.57 -1.44,6.99 -1.91,13.59 -2.99,19.93 -0.51,6.21 -1.43,12.18 -1.69,17.43 -0.49,5.34 -0.78,10.05 -1.01,14.06 0.04,3.88 -0.35,7.23 -0.25,9.36 -0.01,2.27 -0.01,3.48 -0.01,3.48 0,0 -3.9,-2.99 -9.13,-9.74 -2.41,-3.4 -5.63,-7.6 -8.32,-12.81 -3.04,-5.16 -5.46,-11.26 -8.19,-18.1 -2.1,-6.86 -4.69,-14.49 -5.9,-22.7 -1.67,-8.23 -2.34,-16.97 -2.61,-26.09 -0.4,-4.6 0.1,-9.15 0.36,-13.81 0.31,-4.65 0.49,-9.43 1.23,-14.12 1.69,-9.28 3.13,-18.94 6.02,-28.05 3.12,-9.03 5.51,-18.41 9.85,-26.72 1.91,-4.26 3.92,-8.43 6.02,-12.5 1.95,-4.14 4.11,-8.07 6.66,-11.71 4.77,-7.44 9.51,-14.53 14.39,-20.91 5.24,-6.16 10.36,-11.78 15.22,-16.83 2.49,-2.48 4.76,-4.91 7.1,-7.08 2.5,-2.04 4.87,-3.97 7.1,-5.79 4.48,-3.58 8.66,-6.45 12.02,-8.82 6.78,-4.72 11.06,-6.97 11.06,-6.97 0,0 -0.84,4.94 -3.01,12.81 -1.11,3.92 -2.36,8.7 -4.11,13.88 -1.83,5.14 -3.77,10.95 -5.59,17.34 -2,6.29 -4.29,12.93 -6.9,19.76 -2.28,6.98 -4.49,14.32 -7.23,21.63 -1.98,4.75 -3.42,9.77 -4.94,14.79 48.7,25.33 183.11,91.36 362.89,148.56 28.65,-489.96 141.45,-1825.878 163.22,-2082.3308 -1.27,0.461 -2.51,1.0117 -3.76,1.5313 -1.9,0.8008 -3.77,1.6484 -5.6,2.6015 -1.5,0.7578 -3.02,1.4883 -4.46,2.3477 -2.95,1.7617 -5.77,3.7305 -8.49,5.8594 -0.99,0.7695 -1.98,1.5625 -2.93,2.3828 -2.88,2.4687 -5.64,5.1094 -8.2,8 l -1.59,1.9179 c -2.62,3.1402 -5.1,6.4492 -7.32,10.0312 l -0.28,0.418 z m -162.22,3900.29 c -39.44,-21.69 -80.13,-45.37 -122.46,-70.05 -216.6,-126.29 -462.08,-269.42 -774.79,-285.51 -205.88,-10.57 -369.19,-12.99 -480.796,-12.79 444.846,173.41 905.596,296.59 1378.046,368.35 z M 79.2344,5198.96 C 836.25,5570.7 1642.19,5803.77 2478.2,5893.38 c 21.09,2.26 42.2,4.41 63.32,6.51 13.33,1.31 26.66,2.62 40,3.86 14.5,1.35 29.02,2.6 43.53,3.87 12.87,1.11 25.74,2.22 38.61,3.27 l 57.22,-729.54 c -26.51,-2.16 -53,-4.5 -79.46,-6.98 l 0.05,-0.15 c -26.31,-2.46 -52.61,-5.03 -78.86,-7.8 v 0.01 l -0.5,-0.06 C 1795.07,5085.25 1055.63,4872.17 361.098,4531.63 147.406,4677.94 35.8242,4941.89 79.2344,5198.96 Z M 3023.29,3619.95 c 13.04,-170.36 -33.09,-338.89 -119.69,-466.51 l -0.48,-0.03 0.04,-0.64 c -77.1,-113.33 -186.16,-194.26 -314.08,-215.28 -12.28,-2.05 -24.71,-3.5 -37.27,-4.46 -7.48,-0.57 -14.97,-0.95 -22.48,-1.12 -261.27,-6.47 -492.3,223.47 -546.03,534.87 -3.44,20 -6.2,40.34 -8.08,60.96 -0.57,4.77 -0.94,9.66 -1.31,14.44 -27.43,358.16 187.16,667.74 478.41,690.05 291.25,22.3 543.54,-254.14 570.97,-612.28 z m -13.36,-1129.1 c -11.35,216.6 -24.2,461.86 -36.72,663.18 82.46,133.62 125.75,303.56 111.85,484.98 -15.53,202.8 -99.4,380.52 -221.62,502.69 -17.35,231.69 -35.97,574.45 -36.21,578.76 l -96.53,1230.97 c -1.51,19.25 -18.45,33.74 -37.57,32.17 -5.45,-0.42 -10.89,-0.96 -16.34,-1.39 v 0.04 c -31.26,-2.46 -62.46,-5.16 -93.64,-8.02 -10.41,-0.96 -20.8,-2.01 -31.2,-3.02 -27.35,-2.62 -54.68,-5.39 -81.97,-8.32 -5.08,-0.54 -10.18,-0.99 -15.26,-1.55 l 0.02,-0.07 C 1610.44,5868.88 796.652,5631.5 32.4648,5253.95 22.6797,5249.12 15.7148,5240 13.6172,5229.29 -43.8945,4935.34 84.2148,4630.02 332.641,4466.57 l 450.972,-737.53 c 38.586,-63.1 61.18,-179.49 83.024,-292.06 25.121,-129.38 48.843,-251.58 98.953,-310.45 28.469,-33.44 68.61,-49.15 113.08,-45.74 l 2.25,0.26 c 173.43,-249.88 450.3,-744.43 453.15,-749.53 3.82,-6.82 10.14,-11.88 17.62,-14.12 35.67,-10.61 71.99,-18.05 108.7,-22.61 134.25,-236.02 474.39,-858.03 484.21,-986.21 4.9,-64.05 53.62,-122.02 127.14,-151.28 31.8,-12.65 64.06,-18.03 94.44,-16.6 L 3018.59,73.7891 c 8.73,-14.2891 19.63,-26.6172 31.91,-37.0586 1.13,-0.9492 2.15,-2.0313 3.29,-2.9492 1.86,-1.4922 3.87,-2.7422 5.79,-4.1407 2.84,-2.0781 5.64,-4.2304 8.62,-6.1015 1.19,-0.7383 2.47,-1.3399 3.69,-2.0508 3.85,-2.2774 7.73,-4.5078 11.77,-6.4375 l 2.32,-0.9688 c 4.59,-2.1015 9.24,-4.0507 14.03,-5.69137 l 1.52,-0.44922 c 5.08,-1.67969 10.23,-3.15235 15.49,-4.29297 l 1.47,-0.25781 c 5.28,-1.10157 10.61,-1.96094 16.03,-2.511724 l 0.3,-0.046875 V 0.859375 C 3139.84,0.378906 3144.88,0 3149.99,0 c 4.06,0 8.15,0.160156 12.24,0.480469 9.3,0.730471 17.93,5.140621 23.96,12.250031 6.03,7.1093 8.98,16.3398 8.19,25.6211 -1.37,16.0078 -137.14,1606.7384 -167.41,2134.8584 -4.65,81.08 -10.39,190.71 -17.04,317.64" /><path
         id="path226"
         style="fill:#100f0d;fill-opacity:1;fill-rule:nonzero;stroke:none"
         d="m 5976.31,4932.57 c -740.98,295.48 -1519.25,452.1 -2315.48,466.47 v 0.08 c -3.32,0.06 -6.66,0.06 -9.98,0.12 -15.19,0.25 -30.39,0.42 -45.59,0.57 -9.48,0.1 -18.96,0.3 -28.45,0.35 -0.57,309.97 -1.24,627.73 -1.46,731.84 905.23,-4.36 1790.16,-176.61 2631.05,-512.52 62.91,-253 -28.2,-524.7 -230.09,-686.91 z M 5411.87,3844.06 c -51.5,-116.4 -151,-411.4 -147.8,-565.7 2.1,-106.2 -28.7,-183.2 -86.7,-216.9 -49.4,-28.6 -117.8,-23.8 -178.4,12.6 -93.1,55.8 -56.2,192.1 -13.6,304.7 1.8,5 3.6,9.5 5,13.5 25,67.8 -1.2,144.3 -60.9,177.9 -8.78,4.97 -18.43,9 -28.81,11.87 41.74,-43.18 35.2,-112.08 28.77,-145.74 -0.74,-6.63 -2.26,-13.3 -4.66,-19.83 -1.5,-3.8 -3.1,-8.2 -4.9,-13 -30.7,-81 -112.2,-296.3 43.1,-389.5 7.4,-4.4 14.8,-8.4 22.4,-12.1 l -358.9,-708.8 -32.1,-63.4 c 17.1,-30.7 31.8,-63.2 43.6,-97.3 -45.3,-67.1 -258.8,-393.8 -409.4,-805 -7.9,-21.6 -47.3,-21.3 -99.4,-16.8 l -0.5,-1 -0.02,0.01 -17.29,-34.14 -11.39,-22.47 -168.82,-333.421 -305.11,-602.578 c -2.03,-4.02 -4.4,-7.731 -6.93,-11.281 -0.79,-1.11 -1.65,-2.141 -2.49,-3.2 -1.79,-2.269 -3.68,-4.417 -5.66,-6.468 -1.2,-1.231 -2.39,-2.461 -3.66,-3.614 -1.78,-1.617 -3.69,-3.078 -5.59,-4.527 -3.42,-2.59 -7.01,-4.91 -10.79,-6.93 -0.99,-0.531 -1.93,-1.152 -2.94,-1.64 l -1.99,-0.801 c -0.42,227.219 -2.42,1313.65 -3.82,2075.95 155.24,-53.55 292.21,-137.71 407.9,-250.67 -2.64,-6.59 -6.27,-12.36 -9.25,-18.33 -1.6,-3.1 -3,-6.29 -4.69,-9.15 -1.76,-2.84 -3.47,-5.59 -5.11,-8.23 -3.32,-5.32 -5.89,-10.91 -8.92,-15.23 -3.04,-4.32 -5.52,-8.46 -7.67,-11.83 -4.25,-6.82 -6.53,-11.34 -6.53,-11.34 0,0 4.66,0.85 12.54,3.41 3.93,1.31 8.81,2.87 14.23,5.08 5.48,2.15 10.77,5.82 16.98,9.54 3.02,2 6.17,4.08 9.42,6.23 3.19,2.28 5.93,5.18 9.08,7.92 5.98,5.74 12.76,11.66 17.88,19.22 5.48,7.31 11.32,14.94 15.32,23.71 2.17,4.3 4.5,8.59 6.52,13.04 l 4.91,13.76 c 3.34,9.22 5.04,18.77 6.76,28.14 1.1,4.65 1.09,9.39 1.51,14 0.27,4.63 0.84,9.17 0.61,13.67 -0.28,8.96 -0.54,17.58 -1.98,25.63 -1.09,8.06 -2.9,15.55 -4.85,22.36 -3.93,13.6 -9.03,24.33 -13.31,31.51 -4.09,7.23 -7.38,10.88 -7.38,10.88 0,0 -3.24,-17.69 -8.09,-44.21 -1.17,-6.33 -2.35,-13.07 -3.86,-20.07 -1.11,-7.03 -3.16,-14.23 -4.52,-21.66 -1.28,-5.15 -2.62,-10.52 -3.95,-15.86 -123.93,114.57 -269.52,199.28 -433.68,252.33 -0.35,191.33 -0.65,358.44 -0.87,480.73 -0.19,97.92 -0.48,213.66 -0.77,330.56 l -0.03,10.27 c 0,0.79 0,1.87 0,3.04 92.57,-87.5 209.2,-139.83 336.06,-139.83 2.1,0 4.1,0.2 6.1,0.2 -2.1,-2.1 -4.3,-4.3 -6.4,-6.5 -15.4,-15.3 -28.1,-31.4 -40,-45.9 -10.9,-15.4 -21.4,-28.9 -29,-42.2 -7.7,-13.1 -14.6,-24.3 -19.2,-34.2 -4.9,-9.7 -8.2,-17.6 -10.7,-22.9 -2,-4.6 -3.2,-7.4 -3.4,-8 0.5,0.4 2.8,2.4 6.7,5.7 4.3,3.9 10.8,9.3 18.5,16.7 7.5,7.5 18,15.4 28.8,25.2 2.7,2.5 5.5,5 8.4,7.5 3,2.5 6.1,5 9.3,7.6 6.2,5.2 12.8,10.6 19.7,16.4 14.2,10.7 28.9,22.9 45.4,34.3 4.1,2.9 8.2,5.9 12.3,9 4.3,2.8 8.6,5.7 13,8.6 8.8,5.7 17.4,11.9 26.9,17.3 9.2,5.7 18.4,11.7 28.2,16.9 9.7,5.5 19.4,11 29.5,16.1 3.1,1.6 6.2,3.2 9.2,4.7 24.8,8.8 48.8,19.6 72,32.2 4.2,1.7 8.5,3.3 12.7,5 10.9,3.5 21.4,8 32.2,11.3 21.5,7.1 43,13.3 64.1,18.7 21.1,5.3 41.7,10.1 61.5,13.7 19.8,4 38.7,6.9 56.3,9.5 35.3,5 65.3,7.9 86.5,9.6 10.7,0.7 19.1,1.2 24.8,1.6 5.8,0.3 8.9,0.4 8.9,0.4 0,0 -2.8,1.4 -8.2,3.5 -5.5,2.1 -13.5,5.3 -24,8.2 -3.7,1.1 -7.7,2.3 -12,3.4 -19.9,5.4 -46,10.7 -76.8,13.7 -28.8,2.7 -61.8,3.4 -96.9,0.6 14.4,14.9 28.2,30.6 41.2,47.2 78.5,99.8 131.2,229.2 145.2,372.8 2.1,20.5 3.3,41.2 3.6,62.2 0.2,5 0.2,10.1 0.2,15.1 0,361.9 -243.8,655.2 -544.6,655.2 -73.3,0 -143.1,-17.4 -206.9,-49 -20.8,-10.2 -40.9,-21.9 -60.2,-35.2 -42.16,-28.54 -80.8,-63.69 -115.03,-104.22 -0.06,1.7 -0.11,3.27 -0.16,4.54 -0.51,13.56 -0.77,24.7 -0.77,34.14 -0.09,48.98 11.24,167.07 22.19,281.28 11.55,120.38 22.46,234.09 22.41,286.24 l -0.4,193.25 c -0.17,89.96 -0.37,191.34 -0.61,295.5 13.07,-0.07 26.13,-0.18 39.19,-0.33 8.88,-0.1 17.76,-0.18 26.64,-0.33 787.55,-12.22 1557.4,-165.16 2290.58,-455.18 -101.1,-198.9 -510.9,-1006.1 -521.5,-1030.1 z m -1752.64,392.31 c 17.3,15.1 35.5,28.7 54.5,40.7 65,41.4 138.7,64.7 216.8,64.7 261.7,0 474.6,-262.5 474.6,-585.2 0,-4.5 0,-9 -0.2,-13.5 -0.3,-20.5 -1.5,-40.8 -3.6,-60.8 -13.7,-133.1 -63.9,-252.3 -137.7,-342 -14.9,-18.2 -30.8,-35.2 -47.6,-50.8 -13.3,-12.4 -27.1,-23.9 -41.4,-34.5 -2.5,-0.7 -4.9,-1.3 -7.4,-1.9 -12.1,-3.2 -24.1,-7.1 -36.2,-11 -11.8,-4.5 -23.9,-8.6 -35.6,-13.6 -11.7,-5.2 -23.4,-10.1 -34.7,-16.1 -11.4,-5.5 -22.5,-11.6 -33.2,-18.2 -5.4,-3.2 -10.8,-6.2 -16.1,-9.6 -3.2,-2.2 -6.4,-4.4 -9.7,-6.6 -23.2,-4.3 -47,-6.6 -71.2,-6.6 -138.53,0 -263.36,73.58 -350.2,190.68 v 1.81 h -1.36 c -76.42,103.91 -123.04,241.72 -123.04,392.71 0,198.4 80.5,374 203.3,479.8 z m 2610.28,1418.36 c -2.91,10.52 -10.55,19.08 -20.68,23.15 -812.91,327 -1666.76,502.34 -2540.52,522.28 l 0.01,0.14 c -19.23,0.44 -38.48,0.7 -57.72,1 -3.03,0.05 -6.05,0.12 -9.08,0.16 -33.72,0.48 -67.47,0.8 -101.25,0.8 -9.3,0 -18.21,-3.7 -24.78,-10.27 -6.56,-6.58 -10.24,-15.51 -10.22,-24.81 0,0 0.9,-413.69 1.6,-802.01 0.28,-116.48 0.51,-230.71 0.7,-330.81 l 0.4,-193.22 c 0.05,-48.73 -11.21,-166.02 -22.09,-279.44 -11.63,-121.22 -22.61,-235.71 -22.51,-288.03 0,-10.28 0.27,-22.29 0.82,-36.8 0.27,-6.59 0.59,-19.36 0.96,-34.21 0.54,-21.09 1.16,-45.88 1.9,-64.15 -60.07,-105.31 -95.22,-232.84 -95.22,-370.24 0,-167.65 52.41,-320.54 138.52,-436.43 0.01,-30.57 0.02,-72.13 0.02,-82.07 l 0.03,-10.35 c 0.29,-116.9 0.58,-232.63 0.77,-330.52 1.2,-668.3 4.9,-2673.201 4.9,-2673.201 0.02,-9.277 3.72,-18.187 10.3,-24.738 6.57,-6.531 15.44,-10.191 24.7,-10.191 h 0.08 c 15.96,0.031 31.47,2.562 46.15,7.171 l 0.05,0.008 c 3.23,1.02 6.39,2.121 9.5,3.332 l 0.28,0.11 c 3.05,1.191 6.05,2.461 9.01,3.839 l 0.5,0.239 c 2.88,1.351 5.71,2.781 8.5,4.301 l 0.71,0.41 c 2.71,1.5 5.37,3.07 7.98,4.73 l 0.88,0.59 c 2.54,1.641 5.03,3.332 7.46,5.121 l 1.04,0.801 c 2.36,1.758 4.69,3.57 6.94,5.469 l 1.13,0.988 c 2.2,1.891 4.37,3.82 6.46,5.84 l 1.14,1.152 c 2.05,2.02 4.06,4.059 6,6.199 l 1.12,1.301 c 1.91,2.141 3.79,4.309 5.58,6.57 l 0.95,1.278 c 1.8,2.312 3.56,4.66 5.23,7.082 l 0.73,1.129 c 3.64,5.383 7.01,11.011 10,16.929 l 150.19,296.602 337.35,666.209 c 47.54,0.42 91.72,11.66 108.91,58.56 v 0.01 c 165.61,452.09 408.34,800.27 410.77,803.74 5.4,7.69 6.89,17.47 4.02,26.41 -9.1,28.31 -19.99,55.63 -32.4,81.96 l 384.52,759.42 c 17.61,-3.8 35.19,-5.73 52.47,-5.73 38.41,0 75.4,9.42 108.14,28.4 46.96,27.23 125.2,99.66 121.54,278.88 -2.79,136.86 89.44,417.35 141.81,535.84 10.9,24 351.9,695.99 533.86,1054.22 235.21,181.96 339.63,496.16 259.84,784.85" /><path
         id="path228"
         style="fill:#100f0d;fill-opacity:1;fill-rule:nonzero;stroke:none"
         d="m 2578.01,3453.7 c -36.28,-2.78 -67.94,24.38 -70.72,60.66 -2.78,36.27 24.38,67.94 60.66,70.71 36.28,2.79 67.94,-24.37 70.72,-60.65 2.78,-36.28 -24.38,-67.94 -60.66,-70.72 z m -80.14,183.69 c -104.23,-7.98 -182.25,-98.94 -174.27,-203.17 7.98,-104.23 98.94,-182.25 203.17,-174.27 104.23,7.98 182.25,98.94 174.27,203.17 -7.98,104.23 -98.94,182.26 -203.17,174.27" /><path
         id="path230"
         style="fill:#100f0d;fill-opacity:1;fill-rule:nonzero;stroke:none"
         d="m 3958.42,3777.07 c 36.39,0 65.88,-29.49 65.88,-65.87 0,-36.39 -29.49,-65.88 -65.88,-65.88 -36.38,0 -65.88,29.49 -65.88,65.88 0,36.38 29.5,65.87 65.88,65.87 z m -65.88,-321.03 c 104.53,0 189.27,84.75 189.27,189.28 0,104.53 -84.74,189.27 -189.27,189.27 -104.54,0 -189.27,-84.74 -189.27,-189.27 0,-104.53 84.73,-189.28 189.27,-189.28" /><path
         id="path232"
         style="fill:#100f0d;fill-opacity:1;fill-rule:nonzero;stroke:none"
         d="m 1816.07,5592.79 c -366.66,-28.08 -433.62,-381.35 -433.62,-381.35 0,0 399.1,343.61 920.24,70.47 0,0 -162.32,335.71 -486.62,310.88" /><path
         id="path234"
         style="fill:#100f0d;fill-opacity:1;fill-rule:nonzero;stroke:none"
         d="m 4367.14,5879.55 c -325.25,0 -461.47,-347.14 -461.47,-347.14 498.77,312.14 922.94,0 922.94,0 0,0 -93.74,347.14 -461.47,347.14" /></g></g></svg>