<?xml version="1.0" encoding="UTF-8" standalone="no"?>
<svg
   xmlns:dc="http://purl.org/dc/elements/1.1/"
   xmlns:cc="http://creativecommons.org/ns#"
   xmlns:rdf="http://www.w3.org/1999/02/22-rdf-syntax-ns#"
   xmlns:svg="http://www.w3.org/2000/svg"
   xmlns="http://www.w3.org/2000/svg"
   viewBox="0 0 734.88 800.20001"
   height="800.20001"
   width="734.88"
   xml:space="preserve"
   id="svg2"
   version="1.1"><metadata
     id="metadata8"><rdf:RDF><cc:Work
         rdf:about=""><dc:format>image/svg+xml</dc:format><dc:type
           rdf:resource="http://purl.org/dc/dcmitype/StillImage" /></cc:Work></rdf:RDF></metadata><defs
     id="defs6"><clipPath
       id="clipPath20"
       clipPathUnits="userSpaceOnUse"><path
         id="path18"
         d="M 0,0 H 5511.56 V 6001 H 0 Z" /></clipPath></defs><g
     transform="matrix(1.3333333,0,0,-1.3333333,0,800.2)"
     id="g10"><g
       transform="scale(0.1)"
       id="g12"><g
         id="g14"><g
           clip-path="url(#clipPath20)"
           id="g16"><path
             id="path22"
             style="fill:#cb8e4c;fill-opacity:1;fill-rule:nonzero;stroke:none"
             d="m 5442.98,5441.35 c 77,-278.5 -23.2,-578.6 -253.8,-752.8 -783.4,315.2 -1612.6,472.7 -2441.7,472.7 -64,0 -128.1,-0.9 -192.1,-2.8 -4.4,-0.1 -8.8,-0.2 -13.3,-0.5 -628.2,-19.6 -1254.3,-129.8 -1858.197,-330.6 -127.102,-42.3 -253.199,-88.5 -378.199,-138.8 -230.602,174.2 -330.8012,474.3 -253.8012,752.8 860.8012,346.3 1767.6972,521.9 2695.5972,521.9 927.8,0 1834.7,-175.6 2695.5,-521.9" /><path
             id="path24"
             style="fill:#f6cb53;fill-opacity:1;fill-rule:nonzero;stroke:none"
             d="m 4385.78,4124.35 c -66.2,-285.8 -322.3,-498.7 -628.2,-498.7 -356.1,0 -644.7,288.6 -644.7,644.7 0,40.3 3.7,79.7 10.8,118 55.4,299.7 318.1,526.7 633.9,526.7 356.1,0 644.8,-288.6 644.8,-644.7 0,-50.2 -5.7,-99.1 -16.6,-146 m -1638.3,1036.9 c -64,0 -128.1,-0.9 -192.1,-2.8 -4.4,-0.1 -8.8,-0.2 -13.3,-0.5 -100.6,-5.4 -213,-54.6 -340.1,-115.5 -8.6,-4.2 -17.3,-8.4 -26.1,-12.6 -228.6,-110.6 -503.5,-251.1 -838.6,-242.7 -151.3,3.8 -279.1,10.2 -380.397,16.8 -34.5,2.2 -66,4.5 -94.199,6.7 -116.5,8.9 -178.801,16.7 -178.801,16.7 -74.801,-24.9 -149.199,-51.1 -223.199,-78.8 h -0.2 c -51.8,-19.3 -103.402,-39.3 -154.8,-60 0,0 19,-37.3 48.898,-95.8 75.5,-147.6 220.102,-430.6 302.301,-591.5 19.199,-37.4 34.898,-68.3 45.601,-89.3 25.899,-50.6 40.399,-125.8 51.598,-207 v -0.2 c 21.199,-155.2 29.902,-332.5 81.004,-402.8 23.695,-32.5 58.996,-43.5 96.797,-38.9 15.601,1.9 31.5,6.5 47.301,13.3 34.096,14.7 66.996,39.8 92.196,71.2 27.7,34.4 45.9,76.3 45.9,119.9 v 2.2 c 0.8,144.4 78.5,206.8 204.4,156 85.9,-34.8 185.3,-32.5 221.8,45.8 4.6,9.9 8.3,20.9 10.7,33.3 h 0.1 c 5.4,0.1 10.9,0.2 16.5,0.2 291.6,0 538,-193.7 617.6,-459.3 l 0.1,-0.1 c 17.6,-58.7 27,-120.9 27,-185.3 0,-356.1 -288.6,-644.8 -644.7,-644.8 -35.5,0 -70.4,2.9 -104.5,8.4 l -1.1,-4.4 c 0,0 345.1,-730.5 404.7,-983 l 0.1,-0.1 c 5.5,-23.8 8.6,-43.3 8.6,-57.6 0,-85.7 104.9,-157.4 194.2,-148.8 l 5.1,-9.9 574,-1123.3 c 44.3,-86.80078 168.5,-86.5977 212.6,0.3984 l 59.4,117.3006 388.8,768 46.8,92.301 c -32.4,1.8 -66.8,6.8 -95.1,6.8 -356,0 -644.7,288.7 -644.7,644.8 0,356 288.7,644.7 644.7,644.7 13.4,0 26.8,-0.4 40,-1.2 233.1,-14.3 432.7,-152.4 533.9,-349.3 l 342.8,677.3 57.1,112.7 2.6,5.1 c 15.2,-5.1 30.6,-8.5 46,-10.4 36.9,-4.4 73.3,0.8 105.6,16.8 53.6,26.5 95.7,82.9 109.2,174.9 l 0.1,0.5 c 3.5,23.5 5.1,49.3 4.5,77.6 -0.9,46.5 7.9,106.5 22,170.3 31.6,142.8 89.5,305 122.9,380.5 9.1,20.7 352.5,697.2 485.9,959.9 32.2,63.5 52.2,102.8 52.2,102.8 -783.4,315.2 -1612.6,472.7 -2441.7,472.7" /><path
             id="path26"
             style="fill:#e53e47;fill-opacity:1;fill-rule:nonzero;stroke:none"
             d="m 4402.38,4270.35 c 0,-50.2 -5.7,-99.1 -16.6,-146 -66.2,-285.8 -322.3,-498.7 -628.2,-498.7 -356.1,0 -644.7,288.6 -644.7,644.7 0,356.1 288.6,644.7 644.7,644.7 10.8,0 21.5,-0.3 32.2,-0.8 341.1,-16.8 612.6,-298.6 612.6,-643.9" /><path
             id="path28"
             style="fill:#e53e47;fill-opacity:1;fill-rule:nonzero;stroke:none"
             d="m 3878.38,1923.75 c 0,0 -213.7,-304.2 -379.6,-719.8 -11.9,-29.7 -23.5,-60.1 -34.8,-90.9 -13.5,-36.9 -56.9,-41 -104.5,-38.3 -32.4,1.8 -66.8,6.8 -95.1,6.8 -356,0 -644.7,288.7 -644.7,644.8 0,144.4 47.5,277.7 127.7,385.1 l 0.1,0.2 c 117.6,157.4 305.3,259.4 516.9,259.4 204.3,0 386.3,-95 504.4,-243.1 26.6,-33.3 49.9,-69.2 69.5,-107.4 15.9,-30.9 29.3,-63.3 40.1,-96.8" /><path
             id="path30"
             style="fill:#e53e47;fill-opacity:1;fill-rule:nonzero;stroke:none"
             d="m 2215.48,3060.25 c 0,-77.9 -13.8,-152.5 -39.1,-221.7 -21.2,-57.9 -50.4,-111.9 -86.3,-160.6 -117.5,-159.2 -306.3,-262.5 -519.3,-262.5 -35.5,0 -70.4,2.9 -104.5,8.4 -43.6,7.1 -85.9,18.6 -126.2,34.1 0,0 -252.4,545.7 -408.197,805.1 86.497,10.6 185.397,102.8 185.397,204.4 0,146 77.9,209.3 204.4,158.2 96.7,-39.2 210.6,-31.3 232.5,79.1 h 0.1 c 5.4,0.1 10.9,0.2 16.5,0.2 35.5,0 70.3,-2.9 104.3,-8.4 l 0.2,-0.1 c 19.1,-3.1 38,-7.1 56.6,-11.9 278.1,-71.5 483.6,-324 483.6,-624.3" /><path
             id="path32"
             style="fill:#e53e47;fill-opacity:1;fill-rule:nonzero;stroke:none"
             d="m 2542.08,5157.95 c -105.3,-5.7 -223.6,-59.3 -358,-124.2 -230.3,-111.1 -507.7,-255.1 -846.8,-246.6 -163.3,4.1 -299.3,11.2 -404.096,18.3 -36,2.4 -68.301,4.9 -96.7,7.2 -99.601,8 -152.601,14.7 -152.601,14.7 36.898,12.3 73.898,24.2 111,35.8 569.397,178.1 1157.397,276.4 1747.197,294.8" /><path
             id="path34"
             style="fill:#e8816a;fill-opacity:1;fill-rule:nonzero;stroke:none"
             d="m 4107.84,4437.05 c -2.67,2.27 -5.26,4.6 -7.7,7.12 -0.98,1.02 -1.92,2.09 -2.86,3.14 -1.66,2.56 -3.38,5.06 -4.86,7.74 -0.84,1.52 -1.53,3.16 -2.41,4.65 l -0.16,0.24 c -4.18,10.08 -9.68,18.57 -19.57,24.35 -9.65,5.65 -23.86,8.04 -34.68,4.54 -21.37,-6.92 -40.43,-31.82 -31.43,-55.36 8.77,-22.93 21.08,-43.96 40.03,-60.06 9.26,-7.86 19.3,-13.18 31.82,-13.18 11.03,0 24.22,4.91 31.82,13.18 15.38,16.77 19.15,47.37 0,63.64" /><path
             id="path36"
             style="fill:#e8816a;fill-opacity:1;fill-rule:nonzero;stroke:none"
             d="m 3451.68,4417.96 c -16.43,14.59 -37.03,19.06 -58.48,17.41 -21.65,-1.65 -35.81,-13.15 -43.4,-33.03 -4.16,-10.94 -8.33,-21.87 -12.5,-32.8 -8.41,-22.04 9.29,-50.31 31.43,-55.36 13.9,-3.16 26.25,-0.46 36.16,6.3 3.55,-0.84 7.1,-1.47 10.58,-1.62 24.31,-1.09 47,15.42 53.85,38.67 6.3,21.38 -0.99,45.67 -17.64,60.43" /><path
             id="path38"
             style="fill:#e8816a;fill-opacity:1;fill-rule:nonzero;stroke:none"
             d="m 3753.25,4219.27 c -15.4,3.5 -30.43,-0.37 -41.31,-9.75 -11.02,-2.81 -20.96,-9.81 -27.88,-20.49 -11.1,-17.1 -19.17,-36.74 -22.83,-56.8 -3.49,-19.12 2.11,-41.02 20.68,-50.82 18.75,-9.91 38.65,-6.45 54.53,7.03 23.2,19.72 39.31,46.54 48.23,75.47 6.94,22.5 -8.23,50.07 -31.42,55.36" /><path
             id="path40"
             style="fill:#e8816a;fill-opacity:1;fill-rule:nonzero;stroke:none"
             d="m 3763.7,4625.83 c -6.45,15.01 -23.16,26.9 -38.61,31.09 -16.7,4.53 -35.4,2.88 -50.24,-6.46 -9.78,-6.16 -17.58,-15.62 -20.68,-26.89 -2.97,-10.78 -1.63,-25.12 4.54,-34.68 8.7,-13.51 24.09,-22.06 39.74,-22.14 4.74,-3.28 9.97,-5.79 14.43,-7.02 10.78,-2.97 25.12,-1.63 34.68,4.53 9.61,6.2 18.07,15.42 20.68,26.9 l 1.61,11.96 c -0.03,8.12 -2.08,15.69 -6.15,22.71" /><path
             id="path42"
             style="fill:#e8816a;fill-opacity:1;fill-rule:nonzero;stroke:none"
             d="m 4100.24,4051.29 c -21.31,8.57 -43.66,0.82 -56.19,-18.42 -16.93,-25.98 -40.23,-44.2 -68.08,-57.37 -16.17,-7.64 -23.43,-26.71 -21.6,-44.09 -4.37,-12.82 -3.54,-27.81 2.95,-38.91 13.52,-23.11 39.13,-25.74 61.57,-16.14 5,2.14 9.66,4.68 14.09,7.49 44.2,25.11 76.22,66.41 93.32,114.35 7.43,20.85 -6.7,45.3 -26.06,53.09" /><path
             id="path44"
             style="fill:#e8816a;fill-opacity:1;fill-rule:nonzero;stroke:none"
             d="m 1489.43,3375.07 c -14.99,7.92 -36.11,7.67 -50.25,-2.55 -2.03,0.95 -4.08,1.88 -6.43,2.53 -10.77,2.97 -25.11,1.63 -34.67,-4.54 -18.66,-12.02 -31.15,-41.34 -16.15,-61.56 15.05,-20.28 36.72,-34.3 63.05,-32.4 24.3,1.76 49.72,13.88 60.59,36.95 10.02,21.26 6.63,49.54 -16.14,61.57" /><path
             id="path46"
             style="fill:#e8816a;fill-opacity:1;fill-rule:nonzero;stroke:none"
             d="m 1860.9,3381.83 c -21.12,12.03 -49.21,4.99 -61.57,-16.15 -12.21,-20.87 -5.04,-49.5 16.14,-61.56 l 1.11,-0.66 0.16,-0.31 c 0.2,-1.19 1.74,-6.76 1.74,-6.74 0.42,-1.78 0.72,-3.59 1.03,-5.4 l 0.08,-1.85 c 0.2,-6.45 0.48,-12.84 0.41,-19.29 -0.24,-23.55 20.88,-46.08 45,-45 24.6,1.1 44.74,19.76 45,45 0.45,42.88 -8.81,89 -49.1,111.96" /><path
             id="path48"
             style="fill:#e8816a;fill-opacity:1;fill-rule:nonzero;stroke:none"
             d="m 1735.62,3011.6 c -7.28,17.25 -23.91,27.4 -41.92,27.3 -4.67,20.41 -20.97,38.27 -43.75,37.25 -22.79,-1.02 -46.98,-19.87 -45,-45 0.57,-7.2 0.47,-14.28 0.23,-21.48 l -0.03,-1.58 -0.16,-0.68 c -0.79,-3.49 -1.47,-7 -2.36,-10.48 -5.45,-21.49 6.95,-51.61 31.43,-55.36 29.37,-4.5 57.11,-1.46 83.15,13.83 19.38,11.39 27.04,35.76 18.41,56.2" /><path
             id="path50"
             style="fill:#e8816a;fill-opacity:1;fill-rule:nonzero;stroke:none"
             d="m 1830.98,2802.48 c -5.75,1.31 -11.28,1.51 -16.54,0.94 -2.19,1.94 -4.59,3.63 -7.18,5 -22.65,11.96 -47.58,4.79 -61.57,-16.15 -11.27,-16.87 -23.48,-32.78 -23.48,-54.21 0.01,-30.92 27.61,-51.74 56.5,-52.48 39.07,-1 71.11,26.11 83.7,61.55 7.88,22.21 -8.92,50.23 -31.43,55.35" /><path
             id="path52"
             style="fill:#e8816a;fill-opacity:1;fill-rule:nonzero;stroke:none"
             d="m 1366.95,3025.62 c -1.72,0.28 -3.32,0.71 -4.95,1.12 l -0.86,0.71 -0.7,1.55 c -2.18,22.54 -20.57,43.54 -44.65,42.46 -23.56,-1.06 -46.04,-19.81 -45,-45 1.66,-40.47 30.44,-80.81 72.23,-87.63 12.31,-2 23.52,-1.99 34.68,4.54 9.33,5.46 18.23,16.17 20.68,26.89 4.93,21.66 -6.59,51.31 -31.43,55.36" /><path
             id="path54"
             style="fill:#e8816a;fill-opacity:1;fill-rule:nonzero;stroke:none"
             d="m 3313.29,2144.07 c -2.69,23.33 -21.98,36.72 -44.46,39.52 -26.34,3.28 -52.38,4.21 -76.82,0.57 -19.9,-0.88 -39.79,-2.45 -59.69,-5.01 -24.1,-3.1 -45,-18.46 -45,-45 0,-5.86 1.52,-12.02 4.16,-17.85 -4.11,-15.13 1.12,-33.33 11.74,-43.95 15.27,-15.28 35.92,-15.08 54.53,-7.04 36.76,15.88 76.12,18.52 115.42,13.67 24.16,-2.99 45,22.82 45,45 0,7.69 -1.87,14.32 -4.88,20.09" /><path
             id="path56"
             style="fill:#e8816a;fill-opacity:1;fill-rule:nonzero;stroke:none"
             d="m 2975.02,1861.27 c -10.8,0.04 -21.6,0.09 -32.41,0.13 -2.99,16.49 -14.08,30.8 -31.64,35.63 -22.44,6.17 -50.21,-7.57 -55.35,-31.43 -9.08,-42.18 -23.75,-115.84 32.46,-131.08 22.14,-6 48.88,3.87 68.91,12.97 18.82,8.56 36.05,21.61 49.85,36.96 25.58,28.46 8.59,76.65 -31.82,76.82" /><path
             id="path58"
             style="fill:#e8816a;fill-opacity:1;fill-rule:nonzero;stroke:none"
             d="m 3398.69,1697.92 c -12.37,28.16 -32.27,49.48 -56.53,67.85 -2.72,2.06 -5.68,3.55 -8.77,4.62 -3.57,2.3 -7.4,4.08 -11.34,5.16 -25.4,6.98 -46.59,-8.66 -55.35,-31.43 -11.48,-29.81 -25.53,-74.08 -9.76,-104.25 18.53,-35.43 64.94,-36.16 99.54,-30.21 18.01,3.1 34.87,11.37 44.44,27.72 11.6,19.82 6.34,41.01 -2.23,60.54" /><path
             id="path60"
             style="fill:#e8816a;fill-opacity:1;fill-rule:nonzero;stroke:none"
             d="m 3647.15,1926.34 c -13.28,46.18 -51.74,84.5 -99.54,93.75 -23.04,4.46 -49.68,-6.47 -55.36,-31.43 -5.07,-22.24 6.72,-50.57 31.43,-55.35 3.88,-0.76 7.54,-1.7 11.34,-2.78 l 0.86,-0.29 c 3.13,-1.78 6.25,-3.45 9.33,-5.36 l 1.13,-0.66 0.48,-0.73 c 1.7,-2.14 4.12,-4.27 6.13,-6.26 0.58,-0.71 1.24,-1.57 1.82,-2.49 1.19,-1.88 2.21,-3.85 3.25,-5.81 0.2,-0.74 1.76,-4.51 2.34,-6.51 6.5,-22.61 32.05,-38.97 55.36,-31.43 22.98,7.44 38.39,31.12 31.43,55.35" /><path
             id="path62"
             style="fill:#e8816a;fill-opacity:1;fill-rule:nonzero;stroke:none"
             d="m 3114.35,1463.05 c -0.73,2.28 -1.75,4.43 -2.81,6.57 0.4,4.58 0.4,9.2 -0.12,13.81 -1.36,12.3 -4.11,22.75 -13.18,31.82 -7.8,7.81 -20.61,13.69 -31.82,13.18 -11.63,-0.52 -23.7,-4.34 -31.82,-13.18 -7.55,-8.23 -14.47,-20.2 -13.18,-31.82 0.24,-2.09 0.33,-4.15 0.33,-6.2 -0.28,-1.05 -0.69,-2.07 -1.03,-3.11 -3.46,-8.21 -5.05,-15.88 -3.82,-25.07 1.44,-10.67 6.43,-20.99 14.35,-28.51 13.53,-12.87 33.61,-18.37 51.67,-12.85 22.49,6.87 39.06,31.78 31.43,55.36" /><path
             id="path64"
             style="fill:#e8816a;fill-opacity:1;fill-rule:nonzero;stroke:none"
             d="m 3351.59,1435.53 c -8.81,8.09 -19.63,13.18 -31.82,13.18 h -14.07 c -11.54,0 -23.66,-5.02 -31.82,-13.18 -7.81,-7.8 -13.69,-20.61 -13.18,-31.82 0.52,-11.63 4.34,-23.7 13.18,-31.82 8.8,-8.08 19.62,-13.18 31.82,-13.18 h 14.07 c 11.53,0 23.66,5.02 31.82,13.18 7.8,7.81 13.68,20.62 13.18,31.82 -0.52,11.64 -4.35,23.71 -13.18,31.82" /><path
             id="path66"
             style="fill:#a21f26;fill-opacity:1;fill-rule:nonzero;stroke:none"
             d="m 1685.93,3435.82 c -7.44,0 -13.42,-2.26 -18,-5.87 l -0.82,0.33 c -7.19,1.98 -16.75,1.08 -23.12,-3.02 -6.41,-4.13 -12.05,-10.28 -13.79,-17.93 -1.67,-7.35 -1.71,-16.8 3.03,-23.12 4.46,-5.95 8.93,-11.91 13.4,-17.87 4.87,-6.49 9.79,-11.54 17.92,-13.78 7.19,-1.98 16.75,-1.09 23.12,3.02 6.41,4.13 12.05,10.28 13.79,17.93 0.36,1.59 0.6,3.31 0.78,5.05 21.1,14.08 15.76,55.26 -16.31,55.26" /><path
             id="path68"
             style="fill:#a21f26;fill-opacity:1;fill-rule:nonzero;stroke:none"
             d="m 1570.09,3175.77 c -5.27,11.19 -15.49,18.97 -25.83,25.22 -13.44,8.13 -33.55,3.41 -41.04,-10.76 -4.11,-7.78 -4.75,-16.44 -2.37,-24.18 -2.18,-6.86 -3.07,-13.77 -1.35,-21.55 2.18,-9.81 8.18,-18.56 16.93,-23.72 15.06,-8.86 34.3,-4.95 46.37,7.09 13.16,13.13 15,31.54 7.29,47.9" /><path
             id="path70"
             style="fill:#a21f26;fill-opacity:1;fill-rule:nonzero;stroke:none"
             d="m 1283.95,3208.03 c -2.38,0 -4.6,-0.24 -6.69,-0.66 -2.09,0.42 -4.32,0.66 -6.71,0.66 -38.6,0 -38.67,-60 0,-60 2.38,0 4.61,0.24 6.7,0.67 2.09,-0.43 4.32,-0.67 6.7,-0.67 38.61,0 38.67,60 0,60" /><path
             id="path72"
             style="fill:#a21f26;fill-opacity:1;fill-rule:nonzero;stroke:none"
             d="m 1525.14,2783.72 c -16.26,-0.73 -30,-13.18 -30,-30 v -26.8 c 0,-15.69 13.8,-30.72 30,-30 16.25,0.73 30,13.19 30,30 v 26.8 c 0,15.7 -13.8,30.73 -30,30" /><path
             id="path74"
             style="fill:#a21f26;fill-opacity:1;fill-rule:nonzero;stroke:none"
             d="m 1961.89,3014.64 c -2.53,3.92 -5.69,7.01 -9.2,9.37 l -0.04,2.17 c -0.31,15.68 -13.58,30.73 -30,30 -15.99,-0.72 -30.33,-13.19 -30,-30 0.22,-11.09 0.44,-22.18 0.65,-33.27 0.46,-23.47 24.93,-36.39 45.14,-25.9 4.23,2.19 8.46,4.39 12.69,6.58 13.95,7.24 19.24,27.9 10.76,41.05" /><path
             id="path76"
             style="fill:#a21f26;fill-opacity:1;fill-rule:nonzero;stroke:none"
             d="m 3288.88,1938.96 c -3.71,13.51 -15.65,20.8 -28.92,22.03 -20.58,1.9 -41.16,3.81 -61.73,5.72 -16.16,1.49 -30,-14.86 -30,-30 0,-9.83 4.45,-17.52 11.15,-22.72 l -0.13,-0.9 c -3.57,-25.9 18.97,-46.43 44.07,-33.88 l 51.78,25.87 c 11.75,5.88 17.13,21.71 13.78,33.88" /><path
             id="path78"
             style="fill:#a21f26;fill-opacity:1;fill-rule:nonzero;stroke:none"
             d="m 3541.05,1818.1 -5.7,0.63 c -2.01,0.48 -4,0.98 -5.96,1.62 l -1.15,0.32 -1.56,0.91 c -0.79,0.44 -7.76,4.97 -4.14,2.14 -5.86,4.58 -12.67,7.46 -19.52,8.16 l -1.68,0.22 -0.19,0.02 c -1.49,0.2 -2.98,0.39 -4.52,0.33 -16.09,-0.72 -30.21,-13.19 -30,-30 0.2,-16.11 0.4,-32.22 0.6,-48.32 0.33,-27.17 31.99,-38.04 51.21,-21.22 13.15,11.51 23.33,19.42 37.75,29.29 24.27,16.59 15.7,54.91 -15.14,55.9" /><path
             id="path80"
             style="fill:#a21f26;fill-opacity:1;fill-rule:nonzero;stroke:none"
             d="m 3141.94,1668 c -4.07,6.24 -8.14,12.49 -12.2,18.73 -1.58,2.42 -3.52,4.49 -5.59,6.37 0.25,3.29 0.39,6.58 0.36,9.87 -0.15,15.69 -13.69,30.73 -30,30 -16.12,-0.72 -30.16,-13.18 -30,-30 0.13,-13.34 -2.57,-22.27 -11.61,-35.03 -9.08,-12.82 -2.67,-34.02 10.76,-41.05 21.78,-11.41 45.74,-11.44 67.52,0.06 13.84,7.31 19.33,27.89 10.76,41.05" /><path
             id="path82"
             style="fill:#a21f26;fill-opacity:1;fill-rule:nonzero;stroke:none"
             d="m 2932.51,1516.72 c -1.14,9.3 -2.28,18.6 -3.43,27.9 -1.01,8.25 -2.67,15.11 -8.78,21.22 -5.21,5.2 -13.74,9.12 -21.22,8.78 -3.72,-0.16 -7.5,-0.88 -11.03,-2.18 -13.69,4.34 -29.61,-0.33 -37.5,-13.81 -9.1,-15.55 -3.12,-34.34 9.82,-45.47 6.92,-5.95 13.95,-11.77 20.93,-17.66 9.45,-7.97 20.9,-11.21 32.77,-6.2 9.89,4.17 19.87,15.79 18.44,27.42" /><path
             id="path84"
             style="fill:#a21f26;fill-opacity:1;fill-rule:nonzero;stroke:none"
             d="m 2977.26,2066.17 c -6.96,4.92 -14.92,8.74 -23.18,11.25 -1.54,8.59 -6.43,16.62 -14.16,20.71 -14.75,7.79 -32.15,3.46 -41.05,-10.76 -14.09,-22.52 -10.84,-54.83 9.67,-72.46 20.76,-17.83 56.72,-18.37 74.79,4.15 12.79,15.94 10.94,35.09 -6.07,47.11" /><path
             id="path86"
             style="fill:#a21f26;fill-opacity:1;fill-rule:nonzero;stroke:none"
             d="m 3424.42,2180.59 c -16.25,-0.73 -30,-13.18 -30,-30 v -27.13 c 0,-15.69 13.8,-30.72 30,-30 16.26,0.73 30,13.19 30,30 v 27.13 c 0,15.69 -13.79,30.73 -30,30" /><path
             id="path88"
             style="fill:#a21f26;fill-opacity:1;fill-rule:nonzero;stroke:none"
             d="m 3505.81,1502.39 c -16.26,-0.73 -30,-13.18 -30,-30 v -9.04 c 0,-15.7 13.8,-30.73 30,-30 16.25,0.72 30,13.18 30,30 v 9.04 c 0,15.69 -13.8,30.72 -30,30" /><path
             id="path90"
             style="fill:#a21f26;fill-opacity:1;fill-rule:nonzero;stroke:none"
             d="m 3772.9,3885.78 c 3.81,10.34 1.41,22.42 -6.55,31.98 -18.73,22.51 -55.31,8.65 -62.78,-16.74 l -0.08,-0.35 c -12.3,-13.2 -21.67,-28.83 -28.08,-46.47 -5.53,-15.23 6.22,-32.85 20.95,-36.9 16.28,-4.47 30.55,5.2 36.41,19.86 4.96,-4.6 11.41,-7.54 19.29,-7.54 14.91,0 31.68,13.79 30,30 -1.06,10.14 -3.74,18.41 -9.16,26.16" /><path
             id="path92"
             style="fill:#a21f26;fill-opacity:1;fill-rule:nonzero;stroke:none"
             d="m 3540.58,4105.19 -0.76,0.52 c 0.86,6.88 1.15,13.83 0.75,20.73 -0.95,16.17 -13.11,30 -30,30 -14.81,0 -29.39,-12.57 -29.87,-27.85 -12.11,-1.17 -23.02,-8.94 -26.47,-21.51 -3.01,-10.93 1.07,-23.44 9.54,-30.91 -6.08,-20.12 16.52,-43.86 37.52,-36.73 10.71,3.64 21.41,7.28 32.12,10.92 26.28,8.93 27.53,39.2 7.17,54.83" /><path
             id="path94"
             style="fill:#a21f26;fill-opacity:1;fill-rule:nonzero;stroke:none"
             d="m 3703.43,4387.36 c -19.52,15.31 -40.8,21.23 -65.37,16.39 -15.43,-3.04 -25.69,-22.28 -20.96,-36.9 5.31,-16.41 20.38,-24.21 36.91,-20.96 l 0.27,0.07 0.74,-0.14 1.98,-0.1 0.14,-0.03 c 0.61,-0.26 3.32,-1.43 4.46,-1.78 1.84,-1.26 3.84,-2.46 -0.6,1.02 6.53,-5.12 12.55,-8.79 21.22,-8.79 7.36,0 16.14,3.27 21.21,8.79 9.91,10.79 13.19,32.08 0,42.43" /><path
             id="path96"
             style="fill:#a21f26;fill-opacity:1;fill-rule:nonzero;stroke:none"
             d="m 3510.14,4625.26 c -6.5,1.48 -12.39,1.1 -17.57,-0.75 -5.53,6.9 -13.74,11.59 -22.93,11.18 -16.12,-0.73 -30.17,-13.19 -30,-30 0.14,-14.61 0.29,-29.21 0.43,-43.82 0.24,-23.9 25,-35.83 45.14,-25.9 22.17,10.92 36.75,29.96 45.88,52.39 5.94,14.57 -6.44,33.59 -20.95,36.9" /><path
             id="path98"
             style="fill:#a21f26;fill-opacity:1;fill-rule:nonzero;stroke:none"
             d="m 3939.86,4653.77 c -16.26,-0.73 -30,-13.18 -30,-30 v -31.65 c 0,-15.69 13.8,-30.73 30,-30 16.25,0.73 30,13.18 30,30 v 31.65 c 0,15.69 -13.8,30.72 -30,30" /><path
             id="path100"
             style="fill:#a21f26;fill-opacity:1;fill-rule:nonzero;stroke:none"
             d="m 3763.53,4812.02 h -13.57 c -15.69,0 -30.72,-13.8 -30,-30 0.73,-16.26 13.18,-30 30,-30 h 13.57 c 15.69,0 30.72,13.79 30,30 -0.73,16.25 -13.19,30 -30,30" /><path
             id="path102"
             style="fill:#a21f26;fill-opacity:1;fill-rule:nonzero;stroke:none"
             d="m 4001.57,4228.87 c 0.87,13.27 -9.68,27.62 -22.28,30.49 -17.22,3.93 -30.78,-5.26 -36.91,-20.95 -4.28,-10.98 -8.57,-21.97 -12.85,-32.95 -7.02,-17.98 10.9,-38.69 28.92,-37.98 13.4,0.54 26.79,1.07 40.18,1.6 15.66,0.63 30.75,13.36 30,30 -0.66,14.77 -11.79,28.69 -27.06,29.79" /><path
             id="path104"
             style="fill:#a21f26;fill-opacity:1;fill-rule:nonzero;stroke:none"
             d="m 4275.92,4229.59 c -1.91,6.95 -7.29,14.5 -13.78,17.93 -4.52,2.38 -9.67,3.84 -14.83,4 -4.78,10.48 -15.06,18.47 -27.13,17.93 -15.96,-0.71 -30.36,-13.19 -30,-30 l 0.58,-26.41 c 0.29,-13.53 9.16,-25.01 22.02,-28.93 9.85,-3 21.37,-3 31.15,0.29 12.53,4.2 21.12,11.6 28.97,22.07 4.36,5.82 4.86,16.45 3.02,23.12" /><path
             id="path106"
             style="fill:#a21f26;fill-opacity:1;fill-rule:nonzero;stroke:none"
             d="m 4155.49,4617.85 -9.04,9.05 c -11.12,11.11 -31.47,11.94 -42.43,0 -10.99,-11.98 -11.86,-30.57 0,-42.43 3.01,-3.01 6.03,-6.03 9.04,-9.04 11.11,-11.11 31.47,-11.94 42.43,0 10.99,11.97 11.86,30.57 0,42.42" /><path
             id="path108"
             style="fill:#ffffff;fill-opacity:1;fill-rule:nonzero;stroke:none"
             d="m 2701.63,3595.57 c 0,-383.6 -251.4,-694.6 -561.5,-694.6 -305.2,0 -553.5,301.2 -561.3,676.5 -0.1,6 -0.2,12 -0.2,18.1 0,116.3 23.1,226 64,322.3 24.4,57.6 55.2,110.5 91.3,157.2 l 0.4,0.5 c 16.5,-5.5 33.2,-11 50.2,-16.4 -2.1,-2.5 -4.2,-5 -6.2,-7.5 212.5,-109.3 527.3,-231.6 866.5,-227.4 -1.1,3.7 -2.3,7.3 -3.5,11 9.9,-1.6 19,-3 27.2,-4.2 0.6,-2 1.2,-4.1 1.7,-6.2 19.8,-69.7 30.7,-144.6 31.3,-222.5 0.1,-2.2 0.1,-4.5 0.1,-6.8" /><path
             id="path110"
             style="fill:#ffffff;fill-opacity:1;fill-rule:nonzero;stroke:none"
             d="m 3933.03,3529.77 c 0,-341.9 -226.5,-619 -505.9,-619 -279.3,0 -505.8,277.1 -505.8,619 0,21.9 0.8,43.5 2.7,64.8 7.1,82.5 27.3,160.1 58,229.6 1.7,3.9 3.5,7.7 5.3,11.5 17.3,3 37,6.7 58.8,11.1 -3.8,-7.1 -7.5,-14.3 -11.1,-21.6 257.2,9.7 496.8,87.9 683.9,172.1 -6.7,6 -13.6,11.8 -20.6,17.4 11,3.3 21.9,6.5 32.8,9.8 5.2,-4.7 10.4,-9.6 15.3,-14.6 45.1,-44.9 83.6,-99 113.8,-160 40.5,-81.8 65.9,-176 71.4,-276.9 1,-14.3 1.4,-28.7 1.4,-43.2" /><path
             id="path112"
             style="fill:#ffffff;fill-opacity:1;fill-rule:nonzero;stroke:none"
             d="m 3845.88,2696.78 c -2.9,-7.8 -158.9,-406 -629,-598.3 -118.6,-48.5 -257.2,-83.9 -418.3,-96.7 -212.4,-16.8 -394.5,44.6 -544.3,136.8 -325.5,200.4 -499.2,546.4 -502.9,554 4.3,-1.8 121.2,-51.2 312,-100.9 324.8,-84.5 864.1,-169.6 1427,-21.2 118.1,31.1 237.1,72.5 355.5,126.3" /><path
             id="path114"
             style="fill:#d9933b;fill-opacity:1;fill-rule:nonzero;stroke:none"
             d="m 1543.48,3666.29 c -8.2,-24 -25.5,-44.8 -56.7,-57.6 -125.2,-51.1 -184,64 -294,15.4 -53.4,-23.6 -60.9,-79.2 -72.1,-141.5 -1.1,-6 -2.2,-12 -3.4,-18.1 -8.1,-41.1 -19.7,-84 -48.3,-121.9 l 2.4,-0.2 c -25.2,-31.4 -58.1,-56.5 -92.196,-71.2 -15.801,-6.8 -31.7,-11.4 -47.301,-13.3 -24.899,-3 -48.699,0.7 -68.899,13 -10.402,6.3 -19.8,14.8 -27.902,25.9 -35.598,49 -50.598,150.1 -63.598,259.4 l -0.101,0.5 c -5.602,47.3 -10.899,96.1 -17.301,142.9 v 0.2 c -11.199,81.2 -25.699,156.4 -51.598,207 -10.703,21 -26.402,51.9 -45.601,89.3 -114.801,224.7 -351.199,687.3 -351.199,687.3 35.5,14.3 71.097,28.1 106.8,41.8 2.5,-4.4 377.5,-662.9 425,-831.4 24.2,-85.8 6.899,-449.1 118.5,-459.6 87.096,69.1 101.696,366.9 261.496,330.6 159.8,-36.3 307,-115.4 294.5,75.2 0,0 56.4,-101.4 31.5,-173.7" /><path
             id="path116"
             style="fill:#d9933b;fill-opacity:1;fill-rule:nonzero;stroke:none"
             d="m 412.445,4725.26 0.059,-0.11 c 15.984,6.11 31.957,12.27 47.98,18.24 l -48.039,-18.13" /><path
             id="path118"
             style="fill:#d9933b;fill-opacity:1;fill-rule:nonzero;stroke:none"
             d="m 2139.3,2589.01 c 92.39,123.43 119.24,251.64 117.86,361.37 -15.68,-11.67 -34.05,-20.64 -54.99,-26.16 -24.28,-117.81 -80.75,-223.84 -159.73,-308.6 32.59,-7.5 64.73,-16.89 96.86,-26.61" /><path
             id="path120"
             style="fill:#d9933b;fill-opacity:1;fill-rule:nonzero;stroke:none"
             d="m 2766.68,166.59 -559.1,1152.4 -16.1,33.2 -13.9,28.6 c -20.9,57.1 -65.3,109.1 -68.1,112.2 2.3,-6.4 50.2,-144.2 -63.3,-163.9 -84,30.8 -75.3,229.5 -100.8,304.4 -40.4,118.6 -278.9,636.9 -278.9,636.9 106.67,39.64 195,84.15 267.94,131.72 -26.2,24.91 -51.49,50.84 -78.33,74.76 -86.02,-42.55 -182.83,-66.58 -285.31,-66.58 -35.5,0 -70.4,2.9 -104.5,8.4 l -1.1,-4.4 c 0,0 345.1,-730.5 404.7,-983 l 0.1,-0.1 c 1.2,-5.3 2.3,-10.4 3.3,-15.2 3.4,-17 5.3,-31.3 5.3,-42.4 0,-85.7 104.9,-157.4 194.2,-148.8 l 5.1,-9.9 50.1,-98 523.9,-1025.3002 c 44.3,-86.80074 168.5,-86.59761 212.6,0.3985 l 59.4,117.3007 c -106.6,-101.598 -157.2,-42.699 -157.2,-42.699" /><path
             id="path122"
             style="fill:#d9933b;fill-opacity:1;fill-rule:nonzero;stroke:none"
             d="m 683.883,4822.19 c 0,0 96.301,-12 273,-23.4 -267.5,-77.2 -472.699,-156.2 -602.301,-211.2 -29.898,58.5 -48.898,95.8 -48.898,95.8 51.398,20.7 103,40.7 154.8,60 h 0.2 c 74,27.7 148.398,53.9 223.199,78.8" /><path
             id="path124"
             style="fill:#d9933b;fill-opacity:1;fill-rule:nonzero;stroke:none"
             d="m 5189.18,4683.39 c 0,0 -20,-39.3 -52.2,-102.8 -1105.5,446.3 -2132.7,516.7 -2961.1,444.1 137.8,66.6 258.8,122.3 366.2,128.1 4.5,0.3 8.9,0.4 13.3,0.5 64,1.9 128.1,2.8 192.1,2.8 829.1,0 1658.3,-157.5 2441.7,-472.7" /><path
             id="path126"
             style="fill:#bb5f2f;fill-opacity:1;fill-rule:nonzero;stroke:none"
             d="m 4496.28,2975.09 c -12.2,-35.2 -45.1,-115.3 -103.9,-158.2 -39.4,-28.8 -90.2,-40.8 -154.2,-11.5 -5.1,2.3 -10.3,4.9 -15.6,7.8 -135.1,73.7 -120,199.5 -92,296.2 l 14.3,34.7 c -1.6,-7.8 -37.8,-191.8 118.8,-247.3 117.3,-41.7 191.7,4 232.6,78.3" /><path
             id="path128"
             style="fill:#bb5f2f;fill-opacity:1;fill-rule:nonzero;stroke:none"
             d="m 771.684,3555.69 9.8,-30.7 c -5.703,15.7 -8.902,27.3 -9.8,30.7" /><path
             id="path130"
             style="fill:#bb5f2f;fill-opacity:1;fill-rule:nonzero;stroke:none"
             d="m 1120.68,3482.59 c -1.1,-6 -2.2,-12 -3.4,-18.1 -8.1,-41.1 -19.7,-84 -48.3,-121.9 l 2.4,-0.2 c -25.2,-31.4 -58.1,-56.5 -92.196,-71.2 -15.801,-6.8 -31.7,-11.4 -47.301,-13.3 -24.899,-3 -48.699,0.7 -68.899,13 l -81.101,253 c 17.898,-48.5 59.5,-135.1 132.199,-149.7 101.798,-20.3 200.198,98.5 200.198,152.8 0,15.1 2.6,-6 6.4,-44.4" /><path
             id="path132"
             style="fill:#bb5f2f;fill-opacity:1;fill-rule:nonzero;stroke:none"
             d="m 2127.98,1116.89 -50.1,98 -5.1,9.9 c -89.3,-8.6 -194.2,63.1 -194.2,148.8 0,11.1 -1.9,25.4 -5.3,42.4 l 31.8,-34.7 c 0,0 63.4,-103.7 156.3,-82.9 93,20.9 101.9,114.5 101.9,114.5 l 28.2,-60.7 3,14.4 c 0,0 8.3,-18.9 13.1,-47.6 8.9,-52.6 6.2,-138.3 -79.6,-202.1" /><path
             id="path134"
             style="fill:#bd2d35;fill-opacity:1;fill-rule:nonzero;stroke:none"
             d="m 2042.42,2615.62 c 58.11,62.35 104.08,136.16 133.96,217.77 -62.61,-90.61 -130.13,-157.3 -198.2,-206.11 21.69,-2.78 43.07,-6.79 64.24,-11.66" /><path
             id="path136"
             style="fill:#bd2d35;fill-opacity:1;fill-rule:nonzero;stroke:none"
             d="m 1809.47,2514.32 c -7.61,5.35 -14.43,11.51 -20.33,18.28 -205.41,-63.93 -375.96,-4.51 -375.96,-4.51 l -315.2,672 c 152,130.8 103.7,283.8 155.6,324.9 51.8,41.1 88.5,-32 247.2,-25.8 29.92,1.15 54.75,8.7 75.36,20.19 -3.73,41.93 -5.03,83.73 -4.29,124.49 0.37,19.95 4.42,38.62 11.3,55.67 -4.12,0.08 -8.22,0.25 -12.37,0.25 -5.6,0 -11.1,-0.1 -16.5,-0.2 h -0.1 c -21.9,-110.4 -135.8,-118.3 -232.5,-79.1 -126.5,51.1 -204.4,-12.2 -204.4,-158.2 0,-101.6 -98.9,-193.8 -185.397,-204.4 155.797,-259.4 408.197,-805.1 408.197,-805.1 40.3,-15.5 82.6,-27 126.2,-34.1 34.1,-5.5 69,-8.4 104.5,-8.4 102.49,0 199.34,23.98 285.37,66.52 -14.93,13.31 -30.32,26.02 -46.68,37.51" /><path
             id="path138"
             style="fill:#bd2d35;fill-opacity:1;fill-rule:nonzero;stroke:none"
             d="m 2872.68,1355.79 c -193.82,153.26 -178.57,456.42 -151.35,626.83 -14.88,-3.64 -30.95,-3.27 -46.07,0.47 -35.66,-80.02 -55.58,-168.62 -55.58,-261.9 0,-356.1 288.7,-644.8 644.7,-644.8 28.3,0 62.7,-5 95.1,-6.8 47.6,-2.7 91,1.4 104.5,38.3 11.3,30.8 22.9,61.2 34.8,90.9 -168.7,-20.48 -401.65,-20.48 -626.1,157" /><path
             id="path140"
             style="fill:#bd2d35;fill-opacity:1;fill-rule:nonzero;stroke:none"
             d="m 3752.89,4902.16 c -358.65,0 -649.44,-290.79 -649.44,-649.44 0,-143.48 46.61,-276.01 125.38,-383.47 60.28,15.06 124.17,19.5 178,18.77 3.96,-0.06 7.9,-0.22 11.84,-0.35 -115.16,104.5 -187.49,255.35 -187.49,423.1 0,315.43 255.75,571.18 571.19,571.18 315.43,0 571.18,-255.75 571.18,-571.18 0,-273.45 -192.24,-501.91 -448.9,-557.93 12.36,-22.25 19.53,-47.29 19.53,-72.7 v -48.2 c 265.37,81.63 458.25,328.62 458.25,620.78 0,358.65 -290.79,649.44 -649.54,649.44" /><path
             id="path142"
             style="fill:#bd2d35;fill-opacity:1;fill-rule:nonzero;stroke:none"
             d="m 2542.08,5152.79 c -105.3,-5.7 -223.6,-59.3 -358,-124.2 -449.3,-39.7 -1043.4,-177.8 -1250.896,-228.3 -48.102,-11.7 -75.403,-18.7 -75.403,-18.7 l -21.297,25.9 -41.601,50.5 c 569.397,178.1 1157.397,276.4 1747.197,294.8" /><path
             id="path144"
             style="fill:#fdfbc2;fill-opacity:1;fill-rule:nonzero;stroke:none"
             d="m 1241.57,3781.61 c 0,0 143.37,-57.66 190.04,-43.93 46.67,13.73 49.42,57.65 49.42,57.65 0,0 -56.13,-38.43 -239.46,-13.72" /><path
             id="path146"
             style="fill:#fdfbc2;fill-opacity:1;fill-rule:nonzero;stroke:none"
             d="m 4028.66,2680.39 c 0,0 -242.54,-387.64 -223.09,-431.7 19.44,-44.06 202.48,278.03 223.09,431.7" /><path
             id="path148"
             style="fill:#fdfbc2;fill-opacity:1;fill-rule:nonzero;stroke:none"
             d="m 1793.3,2131.87 c 0,0 125.28,-332.84 172.67,-414.46 47.39,-81.63 -64.3,297.87 -114.27,379.39 -49.97,81.52 -75.51,80 -58.4,35.07" /><path
             id="path150"
             style="fill:#fdfbc2;fill-opacity:1;fill-rule:nonzero;stroke:none"
             d="m 3018.95,666.129 c 0,0 -181.21,-338.609 -172.07,-380.93 9.15,-42.328 114.97,173.153 144.79,230.871 29.81,57.711 123.13,253.95 124.57,269.34 1.44,15.399 -72.89,-23.082 -97.29,-119.281" /><path
             id="path152"
             style="fill:#fdfbc2;fill-opacity:1;fill-rule:nonzero;stroke:none"
             d="m 631.281,4430.53 c 0,0 125.633,-266.25 163.602,-338.4 37.969,-72.15 108.453,-56.92 62.91,50.84 -45.543,107.75 -123.828,247.84 -156.789,305.52 -32.965,57.69 -126.906,102.48 -69.723,-17.96" /><path
             id="path154"
             style="fill:#fdfbc2;fill-opacity:1;fill-rule:nonzero;stroke:none"
             d="m 3116.26,4776.85 c 0,0 -136.49,-143.7 -134.86,-323.1 1.63,-179.4 32.35,-145.03 37.55,-98.68 5.2,46.35 100.76,365.74 183.79,426.56 83.04,60.83 -56.3,32.13 -86.48,-4.78" /><path
             id="path156"
             style="fill:#fdfbc2;fill-opacity:1;fill-rule:nonzero;stroke:none"
             d="m 2991.67,4240.42 c 0,0 -24.39,-57.35 0,-89.15 24.38,-31.8 40.88,-2.5 40.88,25.46 0,27.96 3.45,132.41 -40.88,63.69" /><path
             id="path158"
             style="fill:#fdfbc2;fill-opacity:1;fill-rule:nonzero;stroke:none"
             d="m 872.613,3991.05 c -16.754,-30.84 -7.691,-112.72 22.336,-123.57 30.031,-10.85 37.832,40.2 36.934,76.24 -0.899,36.03 -33.563,94.65 -59.27,47.33" /><path
             id="path160"
             style="fill:#d9933b;fill-opacity:1;fill-rule:nonzero;stroke:none"
             d="m 3944.18,3647.99 v -111.25 c 246.76,83.7 427.23,310.95 441.6,582.45 -52.15,-225.17 -222.21,-404.99 -441.6,-471.2" /><path
             id="path162"
             style="fill:#d9933b;fill-opacity:1;fill-rule:nonzero;stroke:none"
             d="m 3245.83,3873.23 c -83.32,108.63 -132.95,244.46 -132.95,391.96 0,40.3 3.7,79.7 10.8,118 -26.7,-71.2 -41.3,-148.4 -41.3,-228.9 0,-111.53 28.05,-216.48 77.4,-308.27 27.05,11.94 56.26,20.8 86.05,27.21" /><path
             id="path164"
             style="fill:#d9933b;fill-opacity:1;fill-rule:nonzero;stroke:none"
             d="m 2619.68,1721.19 c 0,93.27 19.98,181.84 55.63,261.89 -16.3,4.02 -31.47,11.9 -42.63,23.05 -3.03,3.04 -5.67,6.22 -8.13,9.46 -58.04,-101.81 -91.37,-219.53 -91.37,-345.1 0,-385.5 312.5,-698.002 698,-698.002 27.6,0 54.8,1.602 81.5,4.801 l 46.8,92.301 c -32.4,1.8 -66.8,6.8 -95.1,6.8 -356,0 -644.7,288.7 -644.7,644.8" /><path
             id="path166"
             style="fill:#fdfbc2;fill-opacity:1;fill-rule:nonzero;stroke:none"
             d="m 2274.18,5032.59 c 0,0 -230.9,-166.6 -422.5,-251 -191.5,-84.3 -503.6,-107.1 -731,-76.7 -227.399,30.4 -262.899,76.7 -262.899,76.7 l 4.903,23.9 c 28.199,-2.2 59.699,-4.5 94.199,-6.7 101.297,-6.6 229.097,-13 380.397,-16.8 335.1,-8.4 610,132.1 838.6,242.7 8.8,4.2 17.5,8.4 26.1,12.6 l 72.2,-4.7" /><path
             id="path168"
             style="fill:#b97135;fill-opacity:1;fill-rule:nonzero;stroke:none"
             d="m 5189.18,4683.39 c -783.4,315.2 -1612.6,472.7 -2441.7,472.7 -64,0 -128.1,-0.9 -192.1,-2.8 -4.4,-0.1 -8.8,-0.2 -13.3,-0.5 -628.2,-19.6 -1254.3,-129.8 -1858.197,-330.6 -127.102,-42.3 -253.199,-88.5 -378.199,-138.8 -230.602,174.2 -330.8012,474.3 -253.8012,752.8 40.6016,16.3 81.3012,32.3 122.1012,47.9 -37.902,-200.9 -34.3,-391.5 131.7,-516.9 125,50.3 251.097,96.5 378.199,138.8 603.897,200.8 1229.997,311 1858.197,330.6 4.5,0.3 8.9,0.4 13.3,0.5 64,1.9 128.1,2.8 192.1,2.8 829.1,0 1658.3,-157.5 2441.7,-472.7 166,125.4 169.6,316 131.7,516.9 40.8,-15.6 81.5,-31.6 122.1,-47.9 77,-278.5 -23.2,-578.6 -253.8,-752.8" /><path
             id="path170"
             style="fill:#b97135;fill-opacity:1;fill-rule:nonzero;stroke:none"
             d="m 5189.18,4683.39 c -783.4,315.2 -1612.6,472.7 -2441.7,472.7 -64,0 -128.1,-0.9 -192.1,-2.8 -4.4,-0.1 -8.8,-0.2 -13.3,-0.5 -628.2,-19.6 -1254.3,-129.8 -1858.197,-330.6 -127.102,-42.3 -253.199,-88.5 -378.199,-138.8 -230.602,174.2 -330.8012,474.3 -253.8012,752.8 40.6016,16.3 81.3012,32.3 122.1012,47.9 -37.902,-200.9 -34.3,-391.5 131.7,-516.9 125,50.3 251.097,96.5 378.199,138.8 603.897,200.8 1229.997,311 1858.197,330.6 4.5,0.3 8.9,0.4 13.3,0.5 64,1.9 128.1,2.8 192.1,2.8 829.1,0 1658.3,-157.5 2441.7,-472.7 166,125.4 169.6,316 131.7,516.9 40.8,-15.6 81.5,-31.6 122.1,-47.9 77,-278.5 -23.2,-578.6 -253.8,-752.8" /><path
             id="path172"
             style="fill:#9f5825;fill-opacity:1;fill-rule:nonzero;stroke:none"
             d="m 5287.34,4790 c -814.89,327.88 -1677.43,491.71 -2539.85,491.71 -66.58,0 -133.25,-0.94 -199.83,-2.92 -4.57,-0.1 -9.15,-0.2 -13.83,-0.52 -653.45,-20.38 -1304.72,-135.02 -1932.896,-343.89 -132.211,-44 -263.379,-92.05 -393.407,-144.38 -13.964,10.56 -27.425,21.59 -40.464,33 38.851,-52.05 85.183,-99.24 138.621,-139.61 125,50.3 251.097,96.5 378.199,138.8 603.897,200.8 1229.997,311 1858.197,330.6 4.5,0.3 8.9,0.4 13.3,0.5 64,1.9 128.1,2.8 192.1,2.8 829.1,0 1658.3,-157.5 2441.7,-472.7 53.44,40.37 99.77,87.56 138.62,139.61 -13.04,-11.41 -26.5,-22.44 -40.46,-33" /><path
             id="path174"
             style="fill:#e1b169;fill-opacity:1;fill-rule:nonzero;stroke:none"
             d="m 5468.43,5262.15 c -1.2,58.07 -9.54,116.52 -25.45,174.04 -40.6,16.3 -81.3,32.3 -122.1,47.9 v 0 c 8.52,-45.17 14.95,-89.83 17.9,-133.34 -829.65,319.14 -1700.83,480.88 -2591.26,480.88 -890.58,0 -1761.739,-161.73 -2591.438,-480.91 2.949,43.51 9.379,88.19 17.902,133.37 v 0 c -40.8,-15.6 -81.4996,-31.6 -122.1012,-47.9 -14.1289,-51.1 -22.289,-102.93 -24.7773,-154.57 2.3086,52.47 10.4609,105.14 24.8164,157.07 860.8011,346.29 1767.6981,521.9 2695.5981,521.9 927.8,0 1834.7,-175.61 2695.5,-521.9 16.14,-58.35 24.44,-117.65 25.41,-176.54" /><path
             id="path176"
             style="fill:#d79b4f;fill-opacity:1;fill-rule:nonzero;stroke:none"
             d="m 5465.57,5185.6 c -3.79,41.53 -11.19,83.07 -22.55,124.13 -34.67,13.95 -69.42,27.62 -104.24,41.02 -2.95,43.51 -9.38,88.17 -17.9,133.34 v 0 c 40.8,-15.6 81.5,-31.6 122.1,-47.9 15.91,-57.52 24.25,-115.97 25.45,-174.04 0.42,-25.63 -0.54,-51.19 -2.86,-76.55 m -5436.1989,0 c -2.8984,31.78 -3.6797,63.86 -2.2656,96.02 2.4883,51.64 10.6484,103.47 24.7773,154.57 40.6016,16.3 81.3012,32.3 122.1012,47.9 v 0 c -8.523,-45.18 -14.953,-89.86 -17.902,-133.37 -34.769,-13.38 -69.5351,-27.06 -104.1601,-40.99 -11.3516,-41.06 -18.7539,-82.6 -22.5508,-124.13" /><path
             id="path178"
             style="fill:#f68c60;fill-opacity:1;fill-rule:nonzero;stroke:none"
             d="m 2166.84,2918.32 c -9.26,-0.69 -18.46,-1.06 -27.62,-1.28 -5.48,-53.86 -15.82,-111.19 -32.14,-172.35 -6.9,-26 -12.6,-49.9 -17,-71.9 35.9,48.7 65.1,102.7 86.3,160.6 10.73,29.33 19.25,59.69 25.66,90.8 -11.08,-2.9 -22.79,-4.95 -35.2,-5.87" /><path
             id="path180"
             style="fill:#f68c60;fill-opacity:1;fill-rule:nonzero;stroke:none"
             d="m 3539.72,2289.45 c -10.65,-7.39 -21.65,-13.6 -32.94,-18.82 85.5,-28.2 173.7,-75.27 262,-147.84 -58.52,73.39 -132.77,133.68 -217.61,175.9 -3.6,-3.28 -7.38,-6.41 -11.45,-9.24" /><path
             id="path182"
             style="fill:#f68c60;fill-opacity:1;fill-rule:nonzero;stroke:none"
             d="m 4402.38,4265.19 c 0,-50.2 -5.7,-99.1 -16.6,-146 -43.8,682.2 -632.9,783 -632.9,783 l 36.9,6.9 c 341.1,-16.8 612.6,-298.6 612.6,-643.9" /><path
             id="path184"
             style="fill:#bb5f2f;fill-opacity:1;fill-rule:nonzero;stroke:none"
             d="m 4121.18,2951.49 c 0,125.4 119.27,374.81 8.08,426.81 -3.98,1.86 -7.87,3.36 -11.73,4.68 12.51,-71.41 -42,-220.86 -42,-220.86 l -0.04,-0.04 c -8.02,-24.78 -19.41,-57.1 -33.11,-100.6 -34.6,-109.9 -17.3,-300.79 138.7,-368.79 l 57.1,112.7 2.6,5.1 c 15.2,-5.1 30.6,-8.5 46,-10.4 -48.9,12.4 -165.6,52.4 -165.6,151.4" /><path
             id="path186"
             style="fill:#d9933b;fill-opacity:1;fill-rule:nonzero;stroke:none"
             d="m 4528.18,3240.19 c -24.2,7.9 -39.1,6.1 -37.9,-11.4 5.5,-81.3 -88.6,-290.8 -163,-290.8 -68.45,0 -114.82,53.28 -86.4,135.15 l -0.18,-0.13 c 101.69,307.62 -123.17,309.97 -123.17,309.97 57.4,-29.85 48.27,-105.59 48.38,-140.3 0.41,-7.78 0.05,-15.48 -1.23,-22.89 -4.1,-24 -20.6,-63.8 -34.1,-110.4 -28,-96.7 -43.1,-222.5 92,-296.2 5.3,-2.9 10.5,-5.5 15.6,-7.8 64,-29.3 114.8,-17.3 154.2,11.5 58.8,42.9 91.7,123 103.9,158.2 3.1,8.9 4.8,14.9 5.3,16.7 l 0.1,0.5 c 3.5,23.5 5.1,49.3 4.5,77.6 -0.9,46.5 7.9,106.5 22,170.3" /><path
             id="path188"
             style="fill:#a21f26;fill-opacity:1;fill-rule:nonzero;stroke:none"
             d="m 3790.56,4928.27 c -11.7,0.55 -22.46,0.82 -32.9,0.82 -363.76,0 -659.71,-295.95 -659.71,-659.7 0,-149.94 50.37,-288.28 134.95,-399.19 10.83,2.61 21.75,4.92 32.72,6.89 -86.05,107.7 -137.67,244.04 -137.67,392.3 0,347.21 282.49,629.7 629.71,629.7 9.96,0 20.26,-0.26 31.45,-0.78 335.52,-16.53 598.34,-292.78 598.34,-628.92 0,-48.37 -5.46,-96.35 -16.21,-142.62 -51.85,-223.82 -216.92,-394.95 -427.06,-459.31 v -31.21 c 224.35,65.29 401.24,246.12 456.28,483.74 11.28,48.48 16.99,98.74 16.99,149.4 0,352.15 -275.35,641.57 -626.89,658.88" /><path
             id="path190"
             style="fill:#a21f26;fill-opacity:1;fill-rule:nonzero;stroke:none"
             d="m 3892.73,1927.39 c -11.06,34.32 -24.87,67.65 -41.03,99.04 -19.87,38.71 -43.79,75.69 -71.12,109.91 -59.79,74.97 -133.65,134.56 -216.21,176.73 -6.28,-8.28 -13.91,-15.74 -22.62,-22.08 82.47,-40.45 156.13,-99.06 215.39,-173.36 26.08,-32.67 48.91,-67.96 67.87,-104.91 14.32,-27.83 26.72,-57.25 36.87,-87.55 -31.18,-45.68 -225.22,-336.51 -376.95,-716.6 -11.47,-28.63 -23.23,-59.36 -34.97,-91.33 -8.52,-23.35 -34.47,-31.61 -89.58,-28.48 -12.84,0.72 -26.27,1.97 -39.26,3.18 -20.13,1.87 -39.13,3.65 -56.67,3.65 -347.22,0 -629.7,282.53 -629.7,629.8 0,89.27 18.49,175.63 53.92,255.25 -10.16,1.13 -20.13,3.81 -29.37,7.82 -35.87,-82.21 -54.55,-171.18 -54.55,-263.07 0,-363.82 295.94,-659.8 659.7,-659.8 16.15,0 34.47,-1.71 53.89,-3.52 13.26,-1.24 26.97,-2.51 40.36,-3.26 6.27,-0.35 14.31,-0.81 23.28,-0.81 33.73,0 80.63,6.45 96.15,48.92 11.63,31.68 23.29,62.13 34.66,90.51 163.28,409.04 375.81,713.71 377.94,716.74 l 4.3,6.11 -2.3,7.11" /><path
             id="path192"
             style="fill:#a21f26;fill-opacity:1;fill-rule:nonzero;stroke:none"
             d="m 2056.06,2612.36 c 16.31,17.64 31.76,36.2 46.17,55.73 37.1,50.32 66.8,105.62 88.32,164.35 11.54,31.56 20.45,63.86 27.01,96.66 -10.15,-3.71 -20.9,-6.64 -32.35,-8.55 -5.93,-26.35 -13.52,-52.32 -22.84,-77.81 -20.53,-56.05 -48.88,-108.82 -84.28,-156.85 -17.28,-23.4 -36.23,-45.26 -56.35,-65.82 11.5,-2.32 22.94,-4.9 34.32,-7.71" /><path
             id="path194"
             style="fill:#a21f26;fill-opacity:1;fill-rule:nonzero;stroke:none"
             d="m 1840.03,2490.59 c -83.32,-39.49 -175.14,-61.1 -269.18,-61.1 -33.99,0 -68.34,2.76 -102.08,8.2 -40.19,6.54 -79.71,17.02 -117.58,31.16 -26.46,56.91 -249.03,533.59 -395.467,782.6 86.057,22.57 176.627,113.9 176.627,215.04 0,70.92 18.71,121.03 54.11,144.91 31.4,21.19 76.24,20.96 129.66,-0.61 69.79,-28.29 139.69,-29.93 187,-4.39 31.26,16.88 52.89,45.27 63.06,82.57 4.3,0.03 8.66,-0.12 12.99,-0.17 3.34,10.52 7.82,20.44 13.2,29.75 -7.18,0.23 -14.36,0.44 -21.52,0.44 -5.53,0 -10.96,-0.1 -16.59,-0.2 h -12.32 l -2.4,-12.08 c -6.87,-34.6 -23.91,-59.47 -50.66,-73.91 -39.55,-21.34 -99.91,-19.17 -161.51,5.79 -63.08,25.5 -117.63,24.69 -157.68,-2.32 -44.06,-29.71 -67.34,-88.42 -67.34,-169.78 0,-94.84 -92.58,-179.76 -172.225,-189.52 l -22.93,-2.8 11.895,-19.81 c 153.6,-255.73 404.93,-798.22 407.45,-803.67 l 2.55,-5.52 5.68,-2.18 c 41.51,-15.97 84.97,-27.71 129.19,-34.91 35.36,-5.7 71.31,-8.59 106.89,-8.59 102.97,0 203.49,24.5 293.84,69.51 -8.06,7.4 -16.28,14.6 -24.66,21.59" /><path
             id="path196"
             style="fill:#e1dabc;fill-opacity:1;fill-rule:nonzero;stroke:none"
             d="m 2281.31,3030.55 c -305.2,0 -553.5,301.21 -561.3,676.51 -0.1,5.99 -0.2,12 -0.2,18.09 0,97.46 42.03,231.04 71.35,315.22 -23.89,10.78 -71.73,-16.46 -91.99,-0.39 -21.79,-33.96 -41.15,-70.43 -57.56,-109.13 -40.9,-96.29 -64,-205.99 -64,-322.29 0,-6.11 0.1,-12.1 0.2,-18.11 7.8,-375.3 256.1,-676.49 561.3,-676.49 145.2,0 277.6,68.2 377.3,180.3 -71.5,-40.91 -151.2,-63.71 -235.1,-63.71" /><path
             id="path198"
             style="fill:#e1dabc;fill-opacity:1;fill-rule:nonzero;stroke:none"
             d="m 3581.49,3001.67 c -279.4,0 -505.9,277.1 -505.9,619 0,21.9 0.9,43.5 2.7,64.8 4.11,47.92 12.9,94.06 25.39,138.08 -27.71,-0.63 -55.42,-1.09 -83.14,-1.18 -5.13,-0.02 -10.04,0.31 -14.82,0.83 -9.38,-19.07 -18.04,-38.75 -25.73,-59.14 v -0.09 c -22.9,-60.4 -38.1,-126 -44,-195.1 -1.8,-21.3 -2.7,-42.9 -2.7,-64.81 0,-27.39 1.5,-54.39 4.3,-80.79 v -0.1 c 32.4,-303.71 244.6,-538.1 501.6,-538.1 134.9,0 257.6,64.7 348.2,170.1 -62.9,-34.4 -132.5,-53.5 -205.9,-53.5" /><path
             id="path200"
             style="fill:#d1ac39;fill-opacity:1;fill-rule:nonzero;stroke:none"
             d="m 2675.52,3805.28 c -1.68,6.57 -3.45,13.11 -5.29,19.59 -0.5,2.1 -1.1,4.2 -1.7,6.2 -8.2,1.2 -17.3,2.6 -27.2,4.2 1.2,-3.7 2.4,-7.3 3.5,-11 -5.69,-0.07 -11.35,-0.11 -17.03,-0.11 -134.32,0 -264.61,19.58 -385.95,49.98 -159.55,50.44 -323.6,119.87 -459.14,182.86 0.61,0.73 1.21,1.45 1.82,2.17 -6.97,2.21 -13.9,4.45 -20.77,6.69 -172.03,80.74 -293.78,148.73 -293.78,148.73 36.52,120.05 147.37,161.49 290.16,161.49 232.85,0 550.55,-110.26 768.77,-169.61 30.38,-8.26 56.99,-11.89 80.38,-11.89 173.16,0 167.11,199.73 167.11,199.73 0,0 117.63,-540.3 -56.44,-581.44 -14.13,-3.34 -28.93,-5.85 -44.44,-7.59" /><path
             id="path202"
             style="fill:#dee3df;fill-opacity:1;fill-rule:nonzero;stroke:none"
             d="m 2618.14,3802.26 c -108.91,0 -241,29.11 -376.29,71.88 121.34,-30.4 251.63,-49.98 385.95,-49.98 5.68,0 11.34,0.04 17.03,0.11 -1.1,3.7 -2.3,7.3 -3.5,11 9.9,-1.6 19,-3 27.2,-4.2 0.6,-2 1.2,-4.1 1.7,-6.2 1.84,-6.48 3.61,-13.02 5.29,-19.59 -18.27,-2.05 -37.42,-3.02 -57.38,-3.02 M 1782.71,4057 c -6.38,2.97 -12.7,5.92 -18.95,8.86 6.87,-2.24 13.8,-4.48 20.77,-6.69 -0.61,-0.72 -1.21,-1.44 -1.82,-2.17" /><path
             id="path204"
             style="fill:#d1ac39;fill-opacity:1;fill-rule:nonzero;stroke:none"
             d="m 2983.59,3827.67 c -20.84,0.1 -41.54,0.79 -62.26,2.11 0,0 -102.88,354.84 60.51,599.44 2.28,-84.07 11.93,-111.26 20.92,-111.26 7.2,-0.01 13.98,17.48 16.19,37.11 2.24,20 21.3,90.8 48.91,169.73 32.96,27.39 71.67,51.63 116.97,71.57 -50.56,-88.22 -81.33,-189.18 -86.2,-296.77 -10.63,-46.73 -16.25,-95.39 -16.25,-145.31 0,-111.53 28.05,-216.48 77.4,-308.27 21.88,9.66 45.17,17.3 69.03,23.26 0,-0.01 0.02,-0.02 0.02,-0.03 1.34,0.33 2.69,0.67 4.04,0.99 0.01,-0.01 0.02,-0.03 0.03,-0.04 5.39,1.3 10.81,2.53 16.25,3.67 4.27,-5.47 8.63,-10.87 13.07,-16.2 -74.26,-15.48 -149.9,-25.84 -225.45,-29 3.05,6.11 6.17,12.14 9.36,18.1 -21.8,-4.4 -41.5,-8.1 -58.8,-11.1 -1.26,-2.65 -2.51,-5.31 -3.74,-8 m 32.44,435.76 c -5.84,0 -13.73,-6.52 -24.36,-23.01 0,0 -24.39,-57.35 0,-89.15 7.53,-9.82 14.31,-13.81 20.09,-13.81 12.91,-0.01 20.79,19.95 20.79,39.27 0,21.25 1.99,86.7 -16.52,86.7" /><path
             id="path206"
             style="fill:#c22c2c;fill-opacity:1;fill-rule:nonzero;stroke:none"
             d="m 3262.22,3857.67 c -4.44,5.33 -8.8,10.73 -13.07,16.2 5.47,1.16 10.96,2.23 16.47,3.22 -0.01,0 -0.01,0.01 -0.02,0.01 40.81,7.34 82.01,10.45 119.52,10.93 -40.32,-11.46 -81.4,-21.7 -122.9,-30.36 m 148.12,37.71 c -110.3,104.14 -179.16,251.73 -179.16,415.39 0,124.54 39.86,239.77 107.53,333.63 55,11.7 107.25,17.07 156.62,17.07 59.88,0 115.61,-7.89 167.13,-21.97 -3.78,-4.68 -6.67,-10.06 -8.29,-15.93 -2.97,-10.78 -1.63,-25.12 4.54,-34.68 8.7,-13.51 24.09,-22.06 39.74,-22.14 4.74,-3.28 9.97,-5.79 14.43,-7.02 3.64,-1.01 7.69,-1.52 11.82,-1.52 8.1,0 16.53,1.97 22.86,6.05 9.61,6.2 18.07,15.42 20.68,26.9 l 1.06,7.91 c 172.33,-84.63 283.34,-240.49 330.73,-373.38 0,0 -147.85,-103.55 -364.75,-205.01 -1.38,1.27 -2.77,2.54 -4.15,3.79 -10.9,-3.3 -21.8,-6.5 -32.8,-9.8 2.89,-2.32 5.77,-4.67 8.62,-7.05 -89.89,-40.81 -190.48,-80.53 -296.61,-112.24 m 100.23,261.06 c -14.81,0 -29.39,-12.57 -29.87,-27.85 -12.11,-1.17 -23.02,-8.94 -26.47,-21.51 -3.01,-10.93 1.07,-23.44 9.54,-30.91 -5.33,-17.62 11.35,-38.02 29.68,-38.02 2.6,0 5.23,0.41 7.84,1.29 10.71,3.64 21.41,7.28 32.12,10.92 26.28,8.93 27.53,39.2 7.17,54.83 l -0.76,0.52 c 0.86,6.88 1.15,13.83 0.75,20.73 -0.95,16.17 -13.11,30 -30,30 m 231.48,64.1 c -11.32,0 -21.9,-3.94 -30.11,-11.02 -11.02,-2.81 -20.96,-9.81 -27.88,-20.49 -11.1,-17.1 -19.17,-36.74 -22.83,-56.8 -3.49,-19.12 2.11,-41.02 20.68,-50.82 7.3,-3.86 14.79,-5.7 22.14,-5.7 11.51,0 22.7,4.5 32.39,12.73 23.2,19.72 39.31,46.54 48.23,75.47 6.94,22.5 -8.23,50.07 -31.42,55.36 -3.78,0.86 -7.53,1.27 -11.2,1.27 m 229.47,39.73 c -13.5,0 -23.97,-8.61 -29.14,-21.86 -4.28,-10.98 -8.57,-21.97 -12.85,-32.95 -6.9,-17.68 10.3,-37.99 28.01,-37.99 0.31,0 0.61,0 0.91,0.01 13.4,0.54 26.79,1.07 40.18,1.6 15.66,0.63 30.75,13.36 30,30 -0.66,14.77 -11.79,28.69 -27.06,29.79 0.87,13.27 -9.68,27.62 -22.28,30.49 -2.68,0.62 -5.28,0.91 -7.77,0.91 m -570.08,175.43 c -2.73,0 -5.48,-0.11 -8.24,-0.33 -21.65,-1.65 -35.81,-13.15 -43.4,-33.03 -4.16,-10.94 -8.33,-21.87 -12.5,-32.8 -8.41,-22.04 9.29,-50.31 31.43,-55.36 3.92,-0.89 7.72,-1.31 11.37,-1.31 9.3,0 17.67,2.76 24.79,7.61 3.55,-0.84 7.1,-1.47 10.58,-1.62 0.76,-0.03 1.52,-0.05 2.28,-0.05 23.44,0 44.93,16.2 51.57,38.72 6.3,21.38 -0.99,45.67 -17.64,60.43 -14.31,12.71 -31.79,17.74 -50.24,17.74 M 3661,4344.93 c 6.53,-5.12 12.55,-8.79 21.22,-8.79 7.36,0 16.14,3.27 21.21,8.79 9.91,10.79 13.19,32.08 0,42.43 -15.06,11.82 -31.18,18.04 -49.04,18.04 -5.29,0 -10.72,-0.54 -16.33,-1.65 -15.43,-3.04 -25.69,-22.28 -20.96,-36.9 4.52,-13.96 16.09,-21.68 29.61,-21.68 2.38,0 4.82,0.24 7.3,0.72 l 0.27,0.07 0.74,-0.14 1.98,-0.1 0.14,-0.03 c 0.61,-0.26 3.32,-1.43 4.46,-1.78 0.94,-0.64 1.92,-1.27 2.07,-1.27 0.14,0 -0.49,0.58 -2.67,2.29 m -190.24,290.78 c -0.37,0 -0.75,-0.01 -1.12,-0.02 -16.12,-0.73 -30.17,-13.19 -30,-30 0.14,-14.61 0.29,-29.21 0.43,-43.82 0.18,-18.16 14.52,-29.41 30.24,-29.41 4.96,0 10.07,1.12 14.9,3.51 22.17,10.92 36.75,29.96 45.88,52.39 5.94,14.57 -6.44,33.59 -20.95,36.9 -2.71,0.62 -5.31,0.91 -7.8,0.91 -3.48,0 -6.75,-0.58 -9.77,-1.66 -5.3,6.62 -13.07,11.2 -21.81,11.2" /><path
             id="path208"
             style="fill:#c4634b;fill-opacity:1;fill-rule:nonzero;stroke:none"
             d="m 3380.1,4312.87 c -3.65,0 -7.45,0.42 -11.37,1.31 -22.14,5.05 -39.84,33.32 -31.43,55.36 4.17,10.93 8.34,21.86 12.5,32.8 7.59,19.88 21.75,31.38 43.4,33.03 2.76,0.22 5.51,0.33 8.24,0.33 18.45,0 35.93,-5.03 50.24,-17.74 16.65,-14.76 23.94,-39.05 17.64,-60.43 -6.64,-22.52 -28.13,-38.72 -51.57,-38.72 -0.76,0 -1.52,0.02 -2.28,0.05 -3.48,0.15 -7.03,0.78 -10.58,1.62 -7.12,-4.85 -15.49,-7.61 -24.79,-7.61" /><path
             id="path210"
             style="fill:#c4634b;fill-opacity:1;fill-rule:nonzero;stroke:none"
             d="m 3704.05,4075.71 c -7.35,0 -14.84,1.84 -22.14,5.7 -18.57,9.8 -24.17,31.7 -20.68,50.82 3.66,20.06 11.73,39.7 22.83,56.8 6.92,10.68 16.86,17.68 27.88,20.49 8.21,7.08 18.79,11.02 30.11,11.02 3.67,0 7.42,-0.41 11.2,-1.27 23.19,-5.29 38.36,-32.86 31.42,-55.36 -8.92,-28.93 -25.03,-55.75 -48.23,-75.47 -9.69,-8.23 -20.88,-12.73 -32.39,-12.73" /><path
             id="path212"
             style="fill:#c4634b;fill-opacity:1;fill-rule:nonzero;stroke:none"
             d="m 3724.7,4558.21 c -4.13,0 -8.18,0.51 -11.82,1.52 -4.46,1.23 -9.69,3.74 -14.43,7.02 -15.65,0.08 -31.04,8.63 -39.74,22.14 -6.17,9.56 -7.51,23.9 -4.54,34.68 1.62,5.87 4.51,11.25 8.29,15.93 37.9,-10.36 73.51,-24.06 106.84,-40.43 l -1.06,-7.91 c -2.61,-11.48 -11.07,-20.7 -20.68,-26.9 -6.33,-4.08 -14.76,-6.05 -22.86,-6.05" /><path
             id="path214"
             style="fill:#7d161a;fill-opacity:1;fill-rule:nonzero;stroke:none"
             d="m 3493.45,4038.15 c -18.33,0 -35.01,20.4 -29.68,38.02 -8.47,7.47 -12.55,19.98 -9.54,30.91 3.45,12.57 14.36,20.34 26.47,21.51 0.48,15.28 15.06,27.85 29.87,27.85 16.89,0 29.05,-13.83 30,-30 0.4,-6.9 0.11,-13.85 -0.75,-20.73 l 0.76,-0.52 c 20.36,-15.63 19.11,-45.9 -7.17,-54.83 -10.71,-3.64 -21.41,-7.28 -32.12,-10.92 -2.61,-0.88 -5.24,-1.29 -7.84,-1.29" /><path
             id="path216"
             style="fill:#7d161a;fill-opacity:1;fill-rule:nonzero;stroke:none"
             d="m 3682.22,4336.14 c -8.67,0 -14.69,3.67 -21.22,8.79 2.18,-1.71 2.81,-2.29 2.67,-2.29 -0.15,0 -1.13,0.63 -2.07,1.27 -1.14,0.35 -3.85,1.52 -4.46,1.78 l -0.14,0.03 -1.98,0.1 -0.74,0.14 -0.27,-0.07 c -2.48,-0.48 -4.92,-0.72 -7.3,-0.72 -13.52,0 -25.09,7.72 -29.61,21.68 -4.73,14.62 5.53,33.86 20.96,36.9 5.61,1.11 11.04,1.65 16.33,1.65 17.86,0 33.98,-6.22 49.04,-18.04 13.19,-10.35 9.91,-31.64 0,-42.43 -5.07,-5.52 -13.85,-8.79 -21.21,-8.79" /><path
             id="path218"
             style="fill:#7d161a;fill-opacity:1;fill-rule:nonzero;stroke:none"
             d="m 3470.31,4532.46 c -15.72,0 -30.06,11.25 -30.24,29.41 -0.14,14.61 -0.29,29.21 -0.43,43.82 -0.17,16.81 13.88,29.27 30,30 0.37,0.01 0.75,0.02 1.12,0.02 8.74,0 16.51,-4.58 21.81,-11.2 3.02,1.08 6.29,1.66 9.77,1.66 2.49,0 5.09,-0.29 7.8,-0.91 14.51,-3.31 26.89,-22.33 20.95,-36.9 -9.13,-22.43 -23.71,-41.47 -45.88,-52.39 -4.83,-2.39 -9.94,-3.51 -14.9,-3.51" /><path
             id="path220"
             style="fill:#7d161a;fill-opacity:1;fill-rule:nonzero;stroke:none"
             d="m 3957.54,4167.47 c -17.71,0 -34.91,20.31 -28.01,37.99 4.28,10.98 8.57,21.97 12.85,32.95 5.17,13.25 15.64,21.86 29.14,21.86 2.49,0 5.09,-0.29 7.77,-0.91 12.6,-2.87 23.15,-17.22 22.28,-30.49 15.27,-1.1 26.4,-15.02 27.06,-29.79 0.75,-16.64 -14.34,-29.37 -30,-30 -13.39,-0.53 -26.78,-1.06 -40.18,-1.6 -0.3,-0.01 -0.6,-0.01 -0.91,-0.01" /><path
             id="path222"
             style="fill:#dee3df;fill-opacity:1;fill-rule:nonzero;stroke:none"
             d="m 2988.88,3827.66 c -1.76,0 -3.53,0.01 -5.29,0.01 1.23,2.69 2.48,5.35 3.74,8 17.3,3 37,6.7 58.8,11.1 -3.19,-5.96 -6.31,-11.99 -9.36,-18.1 -15.97,-0.67 -31.95,-1.01 -47.89,-1.01 m 718.07,179.96 c -2.85,2.38 -5.73,4.73 -8.62,7.05 11,3.3 21.9,6.5 32.8,9.8 1.38,-1.25 2.77,-2.52 4.15,-3.79 -9.3,-4.35 -18.78,-8.72 -28.33,-13.06" /><path
             id="path224"
             style="fill:#971c1f;fill-opacity:1;fill-rule:nonzero;stroke:none"
             d="m 3228.83,3869.25 c 0,0.01 -0.02,0.02 -0.02,0.03 1.34,0.33 2.69,0.66 4.03,0.99 0.01,-0.01 0.02,-0.02 0.03,-0.03 -1.35,-0.32 -2.7,-0.66 -4.04,-0.99 m 36.77,7.85 c -86.03,107.7 -137.65,244.04 -137.65,392.29 0,127.28 37.96,245.87 103.16,345.03 0.03,0.01 0.04,0.01 0.07,0.02 36.96,12.67 72.8,22.58 107.53,29.96 -67.67,-93.86 -107.53,-209.09 -107.53,-333.63 0,-163.66 68.86,-311.25 179.16,-415.39 -8.35,-2.5 -16.8,-4.96 -25.22,-7.35 -37.51,-0.48 -78.71,-3.59 -119.52,-10.93" /><path
             id="path226"
             style="fill:#dadd9e;fill-opacity:1;fill-rule:nonzero;stroke:none"
             d="m 3002.76,4317.96 c -8.99,0 -18.64,27.19 -20.92,111.26 23.04,34.49 51.35,66.77 86.02,95.58 -27.61,-78.93 -46.67,-149.73 -48.91,-169.73 -2.21,-19.63 -8.99,-37.12 -16.19,-37.11" /><path
             id="path228"
             style="fill:#dadd9e;fill-opacity:1;fill-rule:nonzero;stroke:none"
             d="m 3011.76,4137.46 c -5.78,0 -12.56,3.99 -20.09,13.81 -24.39,31.8 0,89.15 0,89.15 10.63,16.49 18.52,23.01 24.36,23.01 18.51,0 16.52,-65.45 16.52,-86.7 0,-19.32 -7.88,-39.28 -20.79,-39.27" /><path
             id="path230"
             style="fill:#b47420;fill-opacity:1;fill-rule:nonzero;stroke:none"
             d="m 3159.78,3846.02 c -49.35,91.79 -77.4,196.74 -77.4,308.27 0,49.92 5.62,98.58 16.25,145.31 -0.45,-10.01 -0.68,-20.09 -0.68,-30.21 0,-149.91 50.34,-288.22 134.89,-399.12 -1.34,-0.33 -2.69,-0.66 -4.03,-0.99 -23.86,-5.96 -47.15,-13.6 -69.03,-23.26" /><path
             id="path232"
             style="fill:#7d161a;fill-opacity:1;fill-rule:nonzero;stroke:none"
             d="m 3232.9,3870.2 c -0.01,0.01 -0.02,0.03 -0.03,0.04 -0.01,0.01 -0.02,0.02 -0.03,0.03 -84.55,110.9 -134.89,249.21 -134.89,399.12 0,10.12 0.23,20.2 0.68,30.21 4.87,107.59 35.64,208.55 86.2,296.77 14.71,6.48 30.14,12.51 46.28,18.05 -65.2,-99.16 -103.16,-217.75 -103.16,-345.03 0,-148.25 51.62,-284.59 137.65,-392.29 0.01,0 0.01,-0.01 0.02,-0.01 -5.51,-0.99 -11,-2.06 -16.47,-3.22 -5.44,-1.14 -10.86,-2.37 -16.25,-3.67" /><path
             id="path234"
             style="fill:#c22c2c;fill-opacity:1;fill-rule:nonzero;stroke:none"
             d="m 3065.06,1708.92 c -73.62,6.79 -204.3,16.96 -326.37,16.96 -10.48,0 -20.91,-0.08 -31.22,-0.24 -1.56,22.94 -2.2,45.75 -2.13,68.08 35.42,8.68 74.73,14.36 116.92,14.36 8.14,0 16.37,-0.21 24.73,-0.66 -1.15,-32.44 6.73,-63.58 41.09,-72.9 4.71,-1.27 9.64,-1.83 14.66,-1.83 18.56,0 38.48,7.64 54.25,14.8 14.55,6.61 28.15,15.91 39.94,26.89 28.4,-11.23 57.34,-25.63 86.68,-43.78 -9.29,-3.76 -16.54,-11.63 -18.55,-21.68" /><path
             id="path236"
             style="fill:#c4634b;fill-opacity:1;fill-rule:nonzero;stroke:none"
             d="m 2902.74,1732.69 c -5.02,0 -9.95,0.56 -14.66,1.83 -34.36,9.32 -42.24,40.46 -41.09,72.9 47.18,-2.49 97.6,-12.36 149.94,-33.04 -11.79,-10.98 -25.39,-20.28 -39.94,-26.89 -15.77,-7.16 -35.69,-14.8 -54.25,-14.8" /><path
             id="path238"
             style="fill:#7d161a;fill-opacity:1;fill-rule:nonzero;stroke:none"
             d="m 3124.51,1702.97 c 0,0 -22.58,2.55 -59.45,5.95 2.01,10.05 9.26,17.92 18.55,21.68 13.56,-8.39 27.2,-17.58 40.9,-27.63" /><path
             id="path240"
             style="fill:#971c1f;fill-opacity:1;fill-rule:nonzero;stroke:none"
             d="m 2634.76,1722.88 c 0,0.83 -0.01,1.68 -0.01,2.51 0,15.56 0.57,31.04 1.68,46.41 20.81,8.17 43.89,15.79 68.91,21.92 -0.07,-22.33 0.57,-45.14 2.13,-68.08 -25.07,-0.38 -49.49,-1.26 -72.71,-2.76" /><path
             id="path242"
             style="fill:#d1ac39;fill-opacity:1;fill-rule:nonzero;stroke:none"
             d="m 2516.41,1705.97 c 0,0 6.44,5.18 18.45,13.21 -0.2,-2.96 -0.39,-5.91 -0.56,-8.88 -6.24,-1.34 -12.21,-2.78 -17.89,-4.33" /><path
             id="path244"
             style="fill:#b47420;fill-opacity:1;fill-rule:nonzero;stroke:none"
             d="m 2534.3,1710.3 c 0.17,2.97 0.36,5.92 0.56,8.88 15.21,10.15 39.37,24.87 70.71,39.41 -0.54,-11.02 -0.82,-22.09 -0.82,-33.2 0,-1.63 0.01,-3.24 0.02,-4.86 -25.84,-2.42 -49.66,-5.76 -70.47,-10.23" /><path
             id="path246"
             style="fill:#7d161a;fill-opacity:1;fill-rule:nonzero;stroke:none"
             d="m 2604.77,1720.53 c -0.01,1.62 -0.02,3.23 -0.02,4.86 0,11.11 0.28,22.18 0.82,33.2 9.63,4.46 19.92,8.91 30.86,13.21 -1.11,-15.37 -1.68,-30.85 -1.68,-46.41 0,-0.83 0.01,-1.68 0.01,-2.51 -10.25,-0.66 -20.27,-1.44 -29.99,-2.35" /><path
             id="path248"
             style="fill:#bbbcbd;fill-opacity:1;fill-rule:nonzero;stroke:none"
             d="m 2063.38,2591.68 c 35.7,-128.1 96.5,-304 190.9,-453.1 -325.5,200.4 -499.2,546.4 -502.9,554 4.3,-1.8 121.2,-51.2 312,-100.9" /><path
             id="path250"
             style="fill:#bbbcbd;fill-opacity:1;fill-rule:nonzero;stroke:none"
             d="m 3845.88,2696.78 c -2.9,-7.8 -158.9,-406 -629,-598.3 129.7,134.2 230.3,305 273.5,472 118.1,31.1 237.1,72.5 355.5,126.3" /><path
             id="path252"
             style="fill:#100f0d;fill-opacity:1;fill-rule:nonzero;stroke:none"
             d="m 2428.74,3560.17 c -36.39,0 -65.89,29.5 -65.89,65.8 0,36.4 29.5,65.9 65.89,65.9 36.41,0 65.91,-29.5 65.91,-65.9 0,-36.3 -29.5,-65.8 -65.91,-65.8 z m -65.89,189.2 c -104.5,0 -189.21,-84.7 -189.21,-189.2 0,-104.6 84.71,-189.3 189.21,-189.3 104.6,0 189.3,84.7 189.3,189.3 0,104.5 -84.7,189.2 -189.3,189.2" /><path
             id="path254"
             style="fill:#100f0d;fill-opacity:1;fill-rule:nonzero;stroke:none"
             d="m 3305.15,3560.17 c -36.41,0 -65.8,29.5 -65.8,65.8 0,36.4 29.39,65.9 65.8,65.9 36.39,0 65.9,-29.5 65.9,-65.9 0,-36.3 -29.51,-65.8 -65.9,-65.8 z m -65.8,189.2 c -104.6,0 -189.3,-84.7 -189.3,-189.2 0,-104.6 84.7,-189.3 189.3,-189.3 104.49,0 189.2,84.7 189.2,189.3 0,104.5 -84.71,189.2 -189.2,189.2" /><path
             id="path256"
             style="fill:#100f0d;fill-opacity:1;fill-rule:nonzero;stroke:none"
             d="m 2707.75,3831.57 c -3.71,0 -8,0.3 -12.9,0.7 v 0.1 c -13.41,1.1 -30.91,3.6 -52.1,7.1 25.3,-76 39.3,-159.1 39.3,-246.1 0,-359.2 -237.7,-651.5 -529.8,-651.5 -292.1,0 -529.8,292.3 -529.8,651.5 0,184.5 62.8,351.4 163.5,470 -30.7,9.8 -60.7,19.7 -89.61,29.5 -98.09,-128.5 -157.89,-299.8 -157.89,-487.8 0,-398.4 268.5,-721.4 599.8,-721.4 331.2,0 599.6,323 599.6,721.4 0,79.1 -10.6,155.3 -30.1,226.5" /><path
             id="path258"
             style="fill:#100f0d;fill-opacity:1;fill-rule:nonzero;stroke:none"
             d="m 3776.95,4042.27 c -25.51,-7.9 -51.2,-15.7 -77.2,-23.4 130.8,-104.3 217.6,-285.8 217.6,-491.8 0,-322.7 -213,-585.2 -474.7,-585.2 -261.7,0 -474.6,262.5 -474.6,585.2 0,119.7 29.3,231.1 79.5,323.9 -40.4,-8.2 -73.71,-14 -98,-17 -2.7,-0.3 -5.31,-0.6 -7.7,-0.9 -37,-88.5 -57.91,-188.5 -57.91,-294.3 0,-361.8 243.91,-655.1 544.61,-655.1 300.8,0 544.7,293.3 544.7,655.1 0,202.4 -76.3,383.4 -196.3,503.5" /><path
             id="path260"
             style="fill:#100f0d;fill-opacity:1;fill-rule:nonzero;stroke:none"
             d="m 1505.9,4221.92 c 0,0 18.96,-9.76 52.15,-26.84 16.5,-8.55 36.87,-18.31 59.9,-29.83 23.2,-11.27 49.2,-24.11 77.84,-37.46 28.49,-13.59 59.59,-27.72 92.45,-42.49 32.97,-14.55 67.69,-29.83 103.95,-44.65 18.04,-7.6 36.62,-14.75 55.23,-22.39 18.77,-7.21 37.77,-14.51 56.92,-21.87 38.53,-13.99 77.55,-28.48 117.19,-40.97 19.66,-6.75 39.5,-12.88 59.32,-18.8 19.75,-6.18 39.6,-11.61 59.24,-17.26 9.8,-2.93 19.66,-5.41 29.48,-7.85 9.79,-2.59 19.53,-5.17 29.21,-7.73 19.39,-5.03 38.76,-8.98 57.66,-13.77 18.97,-4.39 37.8,-7.72 56.12,-11.91 18.37,-3.8 36.5,-6.56 54.08,-10.03 35.27,-5.82 68.79,-11.29 99.94,-14.79 15.56,-2.16 30.52,-4.02 44.79,-5.17 14.3,-1.44 27.88,-2.8 40.63,-4.09 25.7,-1.8 48.1,-3.38 66.55,-4.68 18.49,-0.42 33.17,-1.48 43.18,-1.88 10.05,-0.62 15.41,-0.96 15.41,-0.96 0,0 -5.2,-1.26 -14.95,-3.62 -9.78,-2.14 -24.13,-5.75 -42.58,-9.42 -18.47,-3.27 -41.03,-6.82 -67.1,-10.34 -26.05,-2.19 -55.67,-5.76 -88.02,-6.16 -32.4,-1.38 -67.52,-0.54 -104.68,1.26 -18.52,1.31 -37.61,2.62 -57.04,4.55 -19.39,2.2 -39.22,4.61 -59.31,7.48 -40.09,6.22 -81.4,13.82 -122.77,23.96 -41.42,9.91 -83.07,21.72 -124.11,35.23 -82.1,27.01 -161.87,60.43 -233.87,96.91 -36.17,17.9 -70.15,37.08 -102.04,55.67 -31.74,18.9 -61.23,37.55 -87.81,55.72 -53.3,36.12 -95.26,69.63 -123.63,94.2 -14.35,12.04 -24.99,22.34 -32.34,29.16 -7.31,6.9 -10.99,10.82 -10.99,10.82" /><path
             id="path262"
             style="fill:#100f0d;fill-opacity:1;fill-rule:nonzero;stroke:none"
             d="m 4107.29,4221.92 c 0,0 -3.6,-3.86 -10.76,-10.66 -7.2,-6.71 -17.62,-16.86 -31.68,-28.73 -27.78,-24.2 -68.89,-57.21 -121.12,-92.84 -26.05,-17.91 -54.93,-36.34 -86.03,-54.98 -31.23,-18.4 -64.56,-37.27 -99.97,-55.03 -35.26,-18.07 -72.45,-35.33 -110.84,-51.54 -38.44,-16.11 -78.02,-31.3 -118.26,-44.72 -40.21,-13.48 -81,-25.36 -121.58,-35.4 -40.53,-10.25 -81,-18.06 -120.29,-24.53 -19.7,-2.94 -39.12,-5.57 -58.13,-7.91 -19.07,-2.03 -37.78,-3.58 -55.94,-5.06 -36.46,-2.16 -70.9,-3.39 -102.72,-2.46 -31.76,-0.01 -60.88,3.08 -86.49,4.86 -25.64,3.09 -47.84,6.22 -66.02,9.16 -18.17,3.3 -32.32,6.62 -41.96,8.57 -9.6,2.16 -14.73,3.32 -14.73,3.32 0,0 5.25,0.44 15.1,1.26 9.82,0.61 24.22,1.95 42.36,2.75 18.09,1.62 40.06,3.59 65.26,5.85 12.5,1.48 25.8,3.06 39.83,4.72 13.99,1.39 28.65,3.42 43.89,5.8 30.53,3.93 63.37,9.77 97.93,15.93 17.22,3.63 34.97,6.63 52.98,10.52 17.96,4.02 36.31,8.13 54.97,12.31 18.51,4.9 37.47,9.04 56.48,14.09 9.48,2.61 19.02,5.23 28.61,7.87 9.61,2.52 19.29,4.97 28.89,7.93 38.49,11.35 77.6,22.86 116.16,36.25 19.44,6.19 38.68,13 57.81,19.93 19.2,6.71 38.15,13.94 57.04,20.89 18.77,7.29 37.4,14.52 55.8,21.66 18.24,7.59 36.47,14.63 54.16,22.15 35.54,14.69 69.63,29.68 101.96,44.04 32.26,14.52 62.76,28.45 90.74,41.78 28.12,13.11 53.64,25.72 76.43,36.75 22.62,11.3 42.65,20.85 58.85,29.22 32.63,16.7 51.27,26.25 51.27,26.25" /><path
             id="path264"
             style="fill:#100f0d;fill-opacity:1;fill-rule:nonzero;stroke:none"
             d="m 2778.24,4439.19 c 0,0 38.19,-462.46 -205.7,-392.76 -208.32,59.53 -753.82,293.25 -873.6,289.42 -119.78,-3.83 -203.93,-24.31 -203.93,-24.31 0,0 169.03,240.35 322.51,224.83 266.4,-26.95 731.55,-232 856,-229.36 52.63,1.12 104.72,132.18 104.72,132.18" /><path
             id="path266"
             style="fill:#100f0d;fill-opacity:1;fill-rule:nonzero;stroke:none"
             d="m 5191.87,4731.79 c -778.36,310.38 -1597.84,467.73 -2436.09,467.73 -64.3,0 -128.47,-1.04 -192.54,-2.89 v 0.01 l -0.5,-0.02 C 1791.74,5174.3 1038.19,5018.3 319.688,4731.79 117.793,4893.99 26.6914,5165.69 89.6016,5418.69 941.371,5758.95 1838.3,5931.46 2755.78,5931.46 c 917.48,0 1814.41,-172.51 2666.18,-512.77 62.91,-253 -28.19,-524.7 -230.09,-686.9 z M 866.137,4849.31 c 456.793,138.94 925.603,226.58 1402.153,262.06 -40.98,-18.62 -83.36,-39.12 -127.45,-60.5 -225.61,-109.39 -481.3,-233.35 -794.33,-225.51 -206.08,5.17 -369.104,15.23 -480.373,23.95 z M 4627.43,3643.28 c -51.5,-116.4 -151,-411.4 -147.8,-565.7 2.1,-106.2 -28.7,-183.2 -86.7,-216.9 -49.4,-28.6 -117.8,-23.8 -178.4,12.6 -93.1,55.8 -56.2,192.1 -13.6,304.7 1.8,5 3.6,9.5 5,13.5 25,67.8 -1.2,144.3 -60.9,177.9 -8.78,4.96 -18.43,9 -28.8,11.86 41.73,-43.17 35.2,-112.08 28.76,-145.73 -0.74,-6.64 -2.26,-13.3 -4.66,-19.83 -1.5,-3.8 -3.1,-8.2 -4.9,-13 -30.7,-81 -112.2,-296.3 43.1,-389.5 7.4,-4.4 14.8,-8.4 22.4,-12.1 l -358.9,-708.8 -32.1,-63.4 c 17.1,-30.7 31.8,-63.2 43.6,-97.3 -45.3,-67.1 -258.8,-393.8 -409.4,-805 -7.9,-21.6 -47.3,-21.3 -99.4,-16.8 l -29.2,-57.6 -473.9,-936 c -14.6,-28.8011 -42.7,-46.098 -75,-46.1995 h -0.2 c -32.3,0 -60.4,17.1992 -75,45.8985 l -559.2,1094.201 c 13,5.3 25.2,12.2 36.2,20.8 47.1,36.6 93.7,203.2 -50.3,267.2 0,0 80.5,-155 7.4,-211.9 -37.4,-29.1 -90.5,-20 -127.7,-1.9 -46.1,22.6 -75.9,61 -75.9,97.7 0,151.9 -303.3,812.7 -394.8,1008.8 l -28.7,63.1 c -43.7,5.8 -86.5,16.1 -127.9,31.1 -35.1,75.3 -239.1,510.5 -381.6,757.7 85.7,31.4 171.7,123 171.7,228 0,63 16.1,108.6 45.3,128.3 32.4,21.8 78.2,10.7 111,-2.6 43.36,-17.54 85.52,-25.37 123.57,-23.91 15,1.31 60.77,11.83 60.93,91.61 -31.9,-27.7 -94,-28.8 -158.3,-2.8 -87.9,35.5 -144.4,17.3 -176.3,-4.2 -34.8,-23.5 -76.2,-74.8 -76.2,-186.4 0,-75.2 -67.9,-143.7 -130.696,-164.2 -27.403,-8.9 -64.903,-12.7 -88.204,19.3 -34.699,47.7 -48.597,167.8 -62,284 -13.898,120.1 -28.3,244.2 -67.699,321.4 l -379.301,742.3 c 110.098,43.5 221.098,84.1 332.797,121.5 43.903,-5.1 277.606,-30.3 649.203,-39.6 9.9,-0.2 19.6,-0.4 29.3,-0.4 317,0 582.7,128.8 797.3,232.9 151.4,73.4 282.1,136.7 392,138.7 64,1.9 128.2,2.9 192.4,2.9 823.3,0 1628.2,-153.5 2393.2,-456.1 -101.1,-198.9 -510.9,-1006.1 -521.5,-1030.1 z m 857.64,1810.67 c -2.91,10.51 -10.55,19.07 -20.67,23.14 -864.98,347.95 -1776.29,524.37 -2708.62,524.37 -932.33,0 -1843.647,-176.42 -2708.6159,-524.37 -10.1211,-4.07 -17.7696,-12.63 -20.6758,-23.14 -79.7891,-288.7 24.6367,-602.91 259.8597,-784.86 l 393.34,-769.81 c 33.652,-65.85 47.296,-183.64 60.484,-297.54 15.168,-130.92 29.488,-254.58 74.961,-317.1 25.832,-35.52 64.652,-54.25 109.258,-54.25 l 2.265,0.1 c 153.844,-262.4 392.134,-776.64 394.594,-781.95 3.28,-7.09 9.2,-12.62 16.49,-15.42 34.76,-13.31 70.4,-23.49 106.66,-30.84 115.83,-245.58 407.49,-891.76 407.49,-1020.3 0,-64.25 44.15,-125.76 115.22,-160.55 30.74,-15.05 62.49,-22.87 92.9,-23.77 L 2629.05,84.0586 C 2655.56,32.1914 2708.17,0 2766.42,0 h 0.3 c 58.35,0.109375 110.97,32.5195 137.33,84.582 l 487.54,962.808 c 47.54,0.42 91.73,11.65 108.91,58.56 v 0 c 165.61,452.09 408.34,800.28 410.78,803.74 5.4,7.7 6.88,17.48 4.01,26.42 -9.1,28.31 -19.99,55.63 -32.39,81.96 l 384.51,759.41 c 17.61,-3.8 35.19,-5.72 52.47,-5.72 38.42,0 75.4,9.42 108.14,28.4 46.97,27.23 125.2,99.66 121.55,278.88 -2.8,136.86 89.43,417.35 141.8,535.84 10.91,23.99 351.9,695.99 533.86,1054.22 235.21,181.95 339.63,496.15 259.84,784.85" /><path
             id="path268"
             style="fill:#100f0d;fill-opacity:1;fill-rule:nonzero;stroke:none"
             d="m 2640.63,1763.94 c 0,0 1.03,1.3 3.21,3.45 2.2,2.15 5.38,5.47 9.8,9.05 4.33,3.8 9.82,8 16.3,12.73 6.63,4.3 14.08,9.55 22.75,14.07 4.35,2.31 8.88,4.7 13.57,7.19 4.85,2.13 9.87,4.34 15.03,6.61 10.31,4.72 21.79,7.97 33.58,11.83 5.96,1.67 12.13,2.96 18.36,4.37 6.23,1.43 12.55,2.95 19.07,3.55 12.96,1.8 26.19,3.37 39.58,3.28 6.68,0 13.35,0.15 19.99,-0.08 6.65,-0.48 13.25,-1.31 19.8,-1.99 13.13,-0.86 25.76,-4.31 37.9,-7.25 12.25,-2.5 23.42,-7.52 34.02,-11.67 5.24,-2.29 10.44,-4.11 15.19,-6.59 4.65,-2.69 9.14,-5.29 13.44,-7.78 8.44,-5.26 16.3,-9.54 22.53,-14.64 6.25,-5.1 11.42,-9.85 15.67,-13.66 8.46,-7.67 12.81,-12.47 12.81,-12.47 0,0 -6.69,1.1 -17.56,3.73 -5.42,1.35 -11.99,2.87 -19.21,4.95 -7.27,2 -15.89,3.05 -24.75,5.08 -4.41,0.99 -9.01,2.02 -13.77,3.08 -4.78,0.9 -9.82,1.41 -14.9,2.16 -10.19,1.38 -20.58,3.76 -31.7,4.23 -5.52,0.39 -11.06,1.04 -16.66,1.64 -5.57,0.85 -11.37,0.47 -17.09,0.86 -5.75,0.23 -11.54,0.33 -17.33,0.77 -5.81,0.08 -11.67,-0.28 -17.51,-0.35 -11.7,0.41 -23.38,-0.9 -34.96,-1.41 -11.58,-0.57 -22.92,-2.34 -34.08,-3.13 -10.96,-1.88 -21.92,-2.54 -32.08,-4.55 -5.16,-0.79 -10.18,-1.55 -15.03,-2.29 -4.86,-0.89 -9.56,-1.75 -14.07,-2.58 -9.17,-1.36 -17.36,-3.41 -24.97,-4.61 -7.36,-1.7 -14.15,-2.64 -19.53,-3.94 -11.07,-2.32 -17.4,-3.64 -17.4,-3.64" /><path
             id="path270"
             style="fill:#100f0d;fill-opacity:1;fill-rule:nonzero;stroke:none"
             d="m 2869.58,2458.31 c -139.47,0 -290.21,10.22 -452.39,33.87 -413.79,60.35 -701.87,178.16 -713.93,183.15 l 26.73,64.7 c 2.89,-1.2 293.54,-119.92 699.16,-178.85 372.55,-54.14 921.46,-67.48 1420.62,176.35 l 30.72,-62.89 C 3662.35,2568.08 3326.61,2458.31 2869.58,2458.31" /><path
             id="path272"
             style="fill:#100f0d;fill-opacity:1;fill-rule:nonzero;stroke:none"
             d="m 1811.6,2835.03 c 0,0 -2.92,-5.14 -8.03,-14.14 -2.44,-4.24 -5.41,-9.39 -8.81,-15.29 -3.13,-6.02 -7.08,-12.13 -10.71,-19.2 -1.83,-3.52 -3.9,-6.96 -5.91,-10.58 -1.88,-3.66 -3.84,-7.44 -5.84,-11.32 -4.41,-7.38 -7.58,-15.87 -12,-23.69 -3.18,-8.5 -7.87,-16.42 -10.73,-25.16 -1.62,-4.29 -3.29,-8.56 -5.13,-12.77 -1.6,-4.29 -2.71,-8.73 -4.2,-13.06 -3.46,-8.53 -5.03,-17.49 -7.53,-26.19 -2.99,-8.64 -3.24,-17.65 -5.61,-26.27 -1.36,-4.33 -1.25,-8.7 -1.91,-13.02 -0.58,-4.32 -0.99,-8.58 -1.72,-12.81 -0.83,-4.23 -1.41,-8.39 -1.42,-12.46 -0.29,-4.13 -0.56,-8.12 -0.82,-11.96 -0.52,-7.76 -2.07,-15.32 -1.8,-21.85 -0.17,-6.62 -0.48,-12.58 -0.9,-17.64 -0.88,-10.13 -1.9,-16.45 -1.9,-16.45 0,0 -4.47,3.96 -11.39,11.81 -3.44,3.94 -7.42,8.89 -11.8,14.79 -4.78,5.78 -7.91,13.2 -11.97,21.28 -3.55,8.23 -8.47,17.09 -10.46,27.36 -1.33,5.06 -2.36,10.35 -3.58,15.8 -1.24,5.45 -2.3,11.05 -2.39,16.86 -0.39,5.8 -0.41,11.73 -0.48,17.76 -0.02,3.02 -0.05,6.07 -0.07,9.12 0.22,3.04 0.75,6.06 1.13,9.12 1.79,12.21 3.61,24.74 8.09,36.49 2.11,5.9 3.88,11.96 6.46,17.61 2.7,5.59 5.57,11.07 8.44,16.47 1.5,2.66 2.8,5.42 4.46,7.94 l 5.19,7.34 c 3.45,4.84 6.78,9.66 10.44,14.07 7.79,8.41 15.02,16.71 23.25,23.09 4.08,3.23 7.84,6.5 11.79,9.32 4.11,2.65 7.95,5.28 11.8,7.58 7.54,4.76 15.19,8.09 21.74,11.07 6.87,2.62 12.71,4.82 17.92,6.05 5,1.42 9.28,2 12.05,2.48 2.78,0.45 4.35,0.45 4.35,0.45" /><path
             id="path274"
             style="fill:#100f0d;fill-opacity:1;fill-rule:nonzero;stroke:none"
             d="m 3770.63,2835.03 c 0,0 1.56,0 4.34,-0.45 2.78,-0.48 7.05,-1.06 12.06,-2.48 5.2,-1.23 11.04,-3.43 17.92,-6.05 6.54,-2.98 14.19,-6.31 21.74,-11.07 3.84,-2.3 7.69,-4.93 11.8,-7.58 3.94,-2.82 7.71,-6.09 11.78,-9.32 8.24,-6.38 15.47,-14.68 23.26,-23.09 3.66,-4.41 6.99,-9.23 10.44,-14.07 l 5.19,-7.34 c 1.65,-2.52 2.96,-5.28 4.46,-7.94 2.87,-5.4 5.73,-10.88 8.43,-16.47 2.59,-5.65 4.35,-11.71 6.46,-17.61 4.48,-11.75 6.3,-24.28 8.09,-36.49 0.38,-3.06 0.92,-6.08 1.14,-9.12 -0.02,-3.05 -0.05,-6.1 -0.07,-9.12 -0.08,-6.03 -0.09,-11.96 -0.49,-17.76 -0.08,-5.81 -1.14,-11.41 -2.38,-16.86 -1.22,-5.45 -2.25,-10.74 -3.58,-15.8 -1.99,-10.27 -6.91,-19.13 -10.46,-27.36 -4.07,-8.08 -7.19,-15.5 -11.97,-21.28 -4.38,-5.9 -8.36,-10.85 -11.81,-14.79 -6.91,-7.85 -11.39,-11.81 -11.39,-11.81 0,0 -1.02,6.32 -1.89,16.45 -0.43,5.06 -0.73,11.02 -0.91,17.64 0.27,6.53 -1.28,14.09 -1.79,21.85 -0.27,3.84 -0.54,7.83 -0.82,11.96 -0.01,4.07 -0.59,8.23 -1.42,12.46 -0.73,4.23 -1.14,8.49 -1.73,12.81 -0.66,4.32 -0.55,8.69 -1.91,13.02 -2.36,8.62 -2.62,17.63 -5.61,26.27 -2.49,8.7 -4.06,17.66 -7.53,26.19 -1.49,4.33 -2.59,8.77 -4.19,13.06 -1.85,4.21 -3.51,8.48 -5.13,12.77 -2.87,8.74 -7.56,16.66 -10.73,25.16 -4.43,7.82 -7.6,16.31 -12,23.69 -2.01,3.88 -3.96,7.66 -5.85,11.32 -2.01,3.62 -4.08,7.06 -5.91,10.58 -3.63,7.07 -7.57,13.18 -10.7,19.2 -3.41,5.9 -6.37,11.05 -8.82,15.29 -5.1,9 -8.02,14.14 -8.02,14.14" /><path
             id="path276"
             style="fill:#100f0d;fill-opacity:1;fill-rule:nonzero;stroke:none"
             d="m 2788.24,1962 c -280.56,0 -554.9,119.53 -797.3,348.28 -195.68,184.66 -300.57,372.56 -304.94,380.47 l 61.26,33.87 c 1.03,-1.86 104.93,-187.6 293.18,-364.8 249.66,-235.01 521.53,-344.65 808.04,-325.85 287.39,18.85 540.15,139.53 751.25,358.68 158.62,164.66 232.78,326.24 233.51,327.85 l 63.8,-28.81 c -3.14,-6.96 -78.82,-172.49 -245.1,-345.73 -153.93,-160.39 -417.48,-356.82 -798.88,-381.83 -21.61,-1.41 -43.26,-2.13 -64.82,-2.13" /><path
             id="path278"
             style="fill:#100f0d;fill-opacity:1;fill-rule:nonzero;stroke:none"
             d="m 3093.15,2257.44 c 0,0 10.56,2.01 29.04,5.53 9.26,1.64 20.4,4.15 33.17,6.91 12.79,2.63 27.12,6.11 42.72,9.97 15.65,3.6 32.36,8.53 50.1,13.27 17.61,5.29 36.24,10.52 55.2,16.96 9.47,3.17 19.11,6.4 28.86,9.67 9.66,3.52 19.43,7.09 29.28,10.68 9.89,3.45 19.61,7.62 29.47,11.46 9.85,3.91 19.73,7.79 29.44,12.13 9.73,4.24 19.45,8.47 29.15,12.69 9.56,4.49 19.08,8.95 28.52,13.39 18.8,9.04 37.08,18.32 54.56,27.66 17.41,9.47 34.22,18.59 49.73,27.99 15.73,9 30.18,18.22 43.51,26.68 13.46,8.24 25.27,16.64 35.92,23.75 10.68,7.07 19.75,13.57 27.15,19.03 14.87,10.78 23.37,16.93 23.37,16.93 l 39.01,-58.12 c 0,0 -9.52,-5.52 -26.18,-15.18 -8.28,-4.89 -18.42,-10.69 -30.29,-16.92 -11.83,-6.28 -24.96,-13.7 -39.81,-20.85 -14.71,-7.36 -30.62,-15.35 -47.84,-23 -17.01,-8.06 -35.32,-15.72 -54.22,-23.62 -18.96,-7.77 -38.71,-15.38 -58.9,-22.67 -10.12,-3.55 -20.32,-7.12 -30.57,-10.71 -10.33,-3.3 -20.7,-6.61 -31.08,-9.91 -10.32,-3.41 -20.8,-6.34 -31.22,-9.28 -10.44,-2.9 -20.71,-6.1 -31.12,-8.59 -10.35,-2.62 -20.61,-5.22 -30.76,-7.79 -10.2,-2.3 -20.28,-4.57 -30.19,-6.8 -19.78,-4.54 -39.13,-7.9 -57.35,-11.4 -18.35,-2.95 -35.58,-6.17 -51.65,-8.18 -16.02,-2.28 -30.7,-4.29 -43.79,-5.61 -13.05,-1.46 -24.4,-2.83 -33.78,-3.52 -18.74,-1.62 -29.45,-2.55 -29.45,-2.55" /><path
             id="path280"
             style="fill:#100f0d;fill-opacity:1;fill-rule:nonzero;stroke:none"
             d="m 1884.62,2523.93 c 0,0 2.01,-1.21 5.77,-3.48 3.78,-2.21 9.34,-5.45 16.4,-9.58 14.48,-8.17 35.35,-19.83 60.96,-33.03 25.59,-13.22 55.77,-28.23 88.62,-43.35 16.37,-7.68 33.43,-15.33 50.89,-22.87 17.36,-7.8 35.29,-15 53.14,-22.47 17.85,-7.5 35.99,-14.21 53.72,-21.27 17.78,-6.88 35.49,-13.08 52.55,-19.41 17.08,-6.26 33.82,-11.6 49.6,-17.06 15.76,-5.53 30.88,-10.02 44.78,-14.4 13.94,-4.25 26.65,-8.5 38.07,-11.65 11.4,-3.23 21.35,-6.04 29.54,-8.35 16.41,-4.64 25.78,-7.29 25.78,-7.29 0,0 -9.61,1.58 -26.43,4.35 -8.41,1.38 -18.64,3.07 -30.37,5 -11.75,1.85 -24.85,4.66 -39.25,7.34 -14.37,2.79 -30.02,5.59 -46.38,9.33 -16.38,3.67 -33.78,7.15 -51.6,11.48 -17.79,4.41 -36.3,8.63 -54.95,13.54 -18.59,5.07 -37.64,9.78 -56.45,15.3 -18.82,5.49 -37.76,10.72 -56.17,16.62 -18.5,5.62 -36.64,11.42 -54.11,17.33 -35.03,11.57 -67.44,23.37 -95.13,33.94 -27.69,10.52 -50.58,20.11 -66.64,26.94 -8.11,3.58 -14.47,6.4 -18.82,8.32 -4.3,1.98 -6.6,3.03 -6.6,3.03 l 33.08,61.69" /><path
             id="path282"
             style="fill:#100f0d;fill-opacity:1;fill-rule:nonzero;stroke:none"
             d="m 4046.56,4363.52 c 0,0 -506.03,461.48 -1095.53,0 0,0 161.69,440.35 547.77,440.35 436.49,0 547.76,-440.35 547.76,-440.35" /></g></g></g></g></svg>