<?xml version="1.0" encoding="UTF-8" standalone="no"?>
<svg
   xmlns:dc="http://purl.org/dc/elements/1.1/"
   xmlns:cc="http://creativecommons.org/ns#"
   xmlns:rdf="http://www.w3.org/1999/02/22-rdf-syntax-ns#"
   xmlns:svg="http://www.w3.org/2000/svg"
   xmlns="http://www.w3.org/2000/svg"
   viewBox="0 0 734.88 800.20001"
   height="800.20001"
   width="734.88"
   xml:space="preserve"
   id="svg2"
   version="1.1"><metadata
     id="metadata8"><rdf:RDF><cc:Work
         rdf:about=""><dc:format>image/svg+xml</dc:format><dc:type
           rdf:resource="http://purl.org/dc/dcmitype/StillImage" /></cc:Work></rdf:RDF></metadata><defs
     id="defs6"><clipPath
       id="clipPath20"
       clipPathUnits="userSpaceOnUse"><path
         id="path18"
         d="M 0,0 H 5511.56 V 6001 H 0 Z" /></clipPath></defs><g
     transform="matrix(1.3333333,0,0,-1.3333333,0,800.2)"
     id="g10"><g
       transform="scale(0.1)"
       id="g12"><g
         id="g14"><g
           clip-path="url(#clipPath20)"
           id="g16"><path
             id="path22"
             style="fill:#cb8e4c;fill-opacity:1;fill-rule:nonzero;stroke:none"
             d="m 5440.88,5456.83 c 77,-278.5 -23.2,-578.6 -253.8,-752.8 -783.4,315.2 -1612.6,472.7 -2441.7,472.7 -64,0 -128.1,-0.9 -192.1,-2.8 -4.4,-0.1 -8.8,-0.2 -13.3,-0.5 -628.2,-19.6 -1254.3,-129.8 -1858.203,-330.6 -127.097,-42.3 -253.199,-88.5 -378.199,-138.8 -230.6014,174.2 -330.8007,474.3 -253.8007,752.8 860.8007,346.3 1767.7027,521.9 2695.6027,521.9 927.8,0 1834.7,-175.6 2695.5,-521.9" /><path
             id="path24"
             style="fill:#f6cb53;fill-opacity:1;fill-rule:nonzero;stroke:none"
             d="m 3262.23,1096.98 c -356,0 -644.7,288.7 -644.7,644.8 0,5.4 0.1,10.7 0.2,16 v 0.8 c 0.2,6.7 0.4,13.5 0.8,20.1 0.5,7.7 1,15.4 1.8,23 0.3,3.5 0.7,6.9 1,10.3 l 0.1,1.2 c 0.3,2.8 0.7,5.6 1,8.4 1,8.3 2.2,16.5 3.6,24.7 0.8,4.8 1.6,9.6 2.5,14.4 0.6,3.4 1.2,6.7 2,10.1 1,5.2 2.1,10.3 3.3,15.4 1.4,6.2 2.9,12.4 4.5,18.5 -261,19.5 -487,64.1 -519.8,92.6 -43.5,37.8 -141.6,321.3 -209.7,530.7 -3.3,-2.1 -6.6,-4.1 -9.9,-6.1 -6.7,-4.1 -13.4,-7.9 -20.2,-11.6 -3.6,-2 -7.2,-3.9 -10.8,-5.8 -6.6,-3.5 -13.2,-6.8 -19.8,-10 -4.4,-2.1 -8.8,-4.2 -13.2,-6.1 -8.1,-3.8 -16.3,-7.3 -24.5,-10.5 -4.4,-1.9 -8.9,-3.6 -13.4,-5.3 l -2.3,-0.9 c -4.4,-1.7 -8.8,-3.3 -13.3,-4.8 -17.7,-6.2 -35.8,-11.7 -54.1,-16.3 -3.2,-0.8 -6.4,-1.6 -9.6,-2.3 -2.5,-0.7 -5,-1.2 -7.5,-1.8 -3.2,-0.7 -6.4,-1.4 -9.7,-2.1 -16.4,-3.4 -33,-6.2 -49.8,-8.3 -3.4,-0.5 -6.8,-0.9 -10.3,-1.2 -3.7,-0.5 -7.4,-0.8 -11.1,-1.1 -1.3,-0.2 -2.7,-0.3 -4.1,-0.4 -4.6,-0.5 -9.2,-0.8 -13.9,-1.1 -1.5,-0.1 -3,-0.2 -4.5,-0.3 -5.4,-0.3 -10.8,-0.6 -16.3,-0.7 -7.3,-0.3 -14.6,-0.4 -21.9,-0.4 -35.5,0 -70.4,2.9 -104.5,8.4 l -1.1,-4.4 c 0,0 345.1,-730.5 404.7,-983 l 0.1,-0.1 c 5.5,-23.8 8.6,-43.3 8.6,-57.6 0,-85.7 104.9,-157.4 194.2,-148.8 l 5.1,-9.9 574,-1123.3 c 44.3,-86.8011 168.5,-86.598 212.6,0.402 l 59.4,117.297 388.8,768 46.8,92.301 c -32.4,1.8 -66.8,6.8 -95.1,6.8 m 1121.4,3042.8 c -1.2,-5.1 -2.4,-10.1 -3.7,-15.1 -1,-3.9 -2,-7.7 -3.1,-11.5 -0.7,-2.7 -1.5,-5.4 -2.3,-8.1 -1,-3.5 -2,-6.9 -3.1,-10.3 -3.5,-11.3 -7.2,-22.4 -11.3,-33.3 -1.6,-4.2 -3.1,-8.4 -4.8,-12.5 -1.7,-4.2 -3.4,-8.5 -5.2,-12.7 -1.6,-4 -3.4,-8 -5.1,-12 -11.3,-25.4 -24.2,-49.9 -38.5,-73.4 -2,-3.2 -4,-6.4 -6,-9.6 -2.2,-3.6 -4.5,-7.1 -6.8,-10.6 -5.1,-7.6 -10.3,-15.1 -15.6,-22.5 -2.2,-3.1 -4.5,-6.1 -6.7,-9.1 -3.1,-4.1 -6.2,-8.1 -9.4,-12.1 -2.6,-3.5 -5.4,-7 -8.3,-10.4 -2.8,-3.4 -5.7,-6.8 -8.6,-10.2 -2.8,-3.2 -5.6,-6.5 -8.5,-9.7 -23.6,-26.5 -49.5,-51.1 -77.2,-73.4 -6.3,-5 -12.6,-10 -19.1,-14.7 -8.2,-6.2 -16.6,-12.2 -25.1,-17.9 -3.3,-2.2 -6.5,-4.4 -9.8,-6.4 -21.6,-14 -44.1,-26.8 -67.4,-38.1 -3.1,-1.6 -6.3,-3.1 -9.5,-4.6 -4.6,-2.2 -9.3,-4.3 -14.1,-6.4 -2.8,-1.2 -5.6,-2.4 -8.5,-3.6 -3.6,-1.6 -7.2,-3 -10.9,-4.5 -3.6,-1.5 -7.3,-2.9 -11,-4.3 -14.7,-5.6 -29.7,-10.7 -44.9,-15.1 -3.9,-1.2 -7.7,-2.3 -11.5,-3.3 -3.8,-1.1 -7.7,-2.1 -11.6,-3.1 -2.6,-0.7 -5.3,-1.4 -8,-2 -3.6,-0.9 -7.3,-1.8 -11,-2.5 -9.2,-2.2 -18.6,-4.1 -28,-5.7 -12.3,-328.4 -233.8,-590 -505.2,-590 -279.4,0 -505.9,277.1 -505.9,619 0,21.9 0.9,43.5 2.7,64.8 9.3,108.5 41.4,208.6 90.3,293 42.9,73.9 98.7,135.8 163.3,180.7 -0.6,5.5 -1.1,11.1 -1.5,16.6 l -0.1,1 c -0.8,10 -1.3,20 -1.6,30 -0.2,6.5 -0.3,13 -0.3,19.6 0,31.5 2.3,62.5 6.7,92.8 0.4,3.4 0.9,6.7 1.5,10.1 0.8,5.2 1.7,10.4 2.7,15.6 0.2,1.5 0.5,3.1 0.9,4.7 0.8,4.4 1.7,8.8 2.7,13.1 0.2,1.4 0.5,2.8 0.9,4.2 0.9,4.2 1.9,8.3 2.9,12.4 0.3,1.5 0.7,3 1.1,4.6 1.3,5.3 2.7,10.5 4.2,15.8 0.8,2.8 1.6,5.7 2.4,8.6 3.4,11.5 7.1,22.9 11.2,34.2 1.2,3.5 2.4,6.9 3.7,10.3 0.9,2.6 1.9,5.2 3,7.8 1,2.6 2,5.2 3.1,7.8 1.5,3.9 3.2,7.9 4.8,11.7 3.5,8.2 7.2,16.2 11,24.2 2,4.2 4,8.3 6.1,12.4 0.8,1.7 1.7,3.3 2.5,4.9 2.1,4.1 4.2,8.1 6.4,12.1 6,11.1 12.3,21.9 18.9,32.5 2.2,3.5 4.4,7 6.6,10.4 3,4.7 6.1,9.3 9.3,13.9 4.6,6.8 9.3,13.4 14.2,20 1.8,2.4 3.7,4.8 5.5,7.2 4.8,6.2 9.6,12.4 14.6,18.4 l 0.3,0.4 c 4.8,5.8 9.6,11.4 14.6,17 l 0.9,1 c 2.6,2.9 5.3,5.9 7.9,8.8 3.4,3.7 6.9,7.4 10.5,11 1.9,2.2 4,4.2 6.1,6.3 8,8.1 16.3,16.1 24.8,23.7 2.3,2.1 4.6,4.2 7,6.2 3.8,3.4 7.7,6.7 11.6,10 3,2.6 6.1,5 9.1,7.5 2.5,2.1 5.1,4.1 7.7,6.1 3.2,2.6 6.5,5.1 9.8,7.5 2.3,1.8 4.6,3.5 6.9,5.1 3.1,2.4 6.3,4.7 9.5,6.9 8.2,5.9 16.6,11.5 25.2,16.9 2.4,1.6 4.8,3.1 7.2,4.5 l 2.1,1.3 c 2,1.2 3.9,2.4 5.9,3.6 2,1.2 4,2.4 6,3.5 3,1.8 6.1,3.5 9.2,5.3 1.1,0.7 2.2,1.3 3.3,1.8 5.1,2.9 10.3,5.7 15.5,8.4 5.7,3 11.4,5.8 17.2,8.6 13.7,6.7 27.7,12.8 42,18.4 4.3,1.7 8.7,3.4 13,5 2.8,1.1 5.6,2.1 8.4,3 3.1,1.2 6.2,2.3 9.3,3.3 4.2,1.5 8.4,2.8 12.7,4.1 30,9.5 60.9,16.8 92.6,21.8 3.6,0.6 7.3,1.1 10.9,1.6 16,2.3 32.2,4 48.6,5 4.1,0.3 8.3,0.5 12.6,0.7 9.7,0.5 19.5,0.7 29.4,0.7 10.8,0 21.5,-0.3 32.2,-0.8 9.4,-0.5 18.7,-1.1 27.9,-2 3.5,-0.3 7.1,-0.7 10.7,-1.1 14.6,-1.5 29,-3.6 43.3,-6.2 5.3,-0.9 10.5,-1.9 15.7,-3 10.9,-2.2 21.8,-4.7 32.5,-7.5 4.7,-1.2 9.5,-2.6 14.2,-3.9 20.4,-5.8 40.4,-12.5 60,-20.3 4.8,-1.8 9.6,-3.8 14.4,-5.9 4.8,-2 9.6,-4.1 14.4,-6.3 4.2,-1.8 8.4,-3.8 12.5,-5.8 10.4,-4.9 20.7,-10.2 30.7,-15.7 2.8,-1.5 5.6,-3 8.3,-4.6 4.9,-2.8 9.8,-5.6 14.6,-8.5 4,-2.4 8,-4.9 12,-7.4 2.8,-1.7 5.6,-3.5 8.4,-5.4 2.4,-1.5 4.7,-3 7,-4.6 2.7,-1.9 5.4,-3.7 8.1,-5.6 7.8,-5.3 15.4,-10.8 22.9,-16.6 3.1,-2.2 6.1,-4.6 9.1,-7.1 8.2,-6.3 16.3,-13 24.1,-19.9 3,-2.5 6,-5.2 8.9,-7.9 4.5,-4 8.9,-8.1 13.3,-12.3 3.7,-3.5 7.3,-7 10.7,-10.5 3.6,-3.5 7,-7.1 10.5,-10.7 l 0.3,-0.3 c 6.8,-7.1 13.4,-14.4 19.9,-21.9 4.9,-5.5 9.7,-11.2 14.3,-17.1 3.3,-3.9 6.4,-7.8 9.5,-11.9 3.7,-4.8 7.4,-9.6 11,-14.6 l 0.4,-0.6 c 3.7,-5 7.2,-10.1 10.7,-15.2 2.6,-3.6 5,-7.3 7.4,-11 2,-3 3.9,-6 5.8,-9.1 1.8,-2.7 3.6,-5.5 5.2,-8.3 2,-3.2 3.9,-6.4 5.8,-9.7 2.6,-4.4 5.1,-8.7 7.5,-13.1 12.3,-22.1 23.2,-44.9 32.8,-68.4 2,-4.7 3.8,-9.4 5.6,-14.2 1.9,-4.7 3.6,-9.4 5.3,-14.2 4.5,-12.8 8.7,-25.8 12.4,-39 0.7,-2.2 1.3,-4.3 1.8,-6.4 3.8,-13.7 7.1,-27.6 9.9,-41.7 0.7,-3.4 1.4,-6.7 1.9,-10 2.9,-15.5 5.2,-31.1 6.9,-46.9 0.5,-3.8 0.9,-7.6 1.2,-11.4 1.9,-19.8 2.8,-39.8 2.8,-60.1 0,-50.2 -5.7,-99.1 -16.6,-146 m -1638.3,1036.9 c -64,0 -128.1,-0.9 -192.1,-2.8 -4.4,-0.1 -8.8,-0.2 -13.3,-0.5 -6.3,-0.3 -12.6,-0.8 -19,-1.5 -7,-0.8 -14,-1.7 -21.1,-2.8 -6.8,-1.1 -13.6,-2.3 -20.5,-3.7 -6.9,-1.4 -13.9,-3 -20.9,-4.7 -17,-4.1 -34.4,-9.2 -52.1,-15.1 -4.1,-1.3 -8.2,-2.7 -12.3,-4.1 -5.5,-1.9 -11.1,-3.9 -16.6,-6 -4.1,-1.5 -8.1,-3 -12.3,-4.6 -6.3,-2.3 -12.6,-4.8 -19,-7.4 -6.5,-2.5 -13,-5.2 -19.6,-8 -33.2,-13.9 -67.5,-29.6 -103,-46.3 -7.9,-3.7 -15.7,-7.5 -23.7,-11.3 -5.9,-2.9 -11.9,-5.8 -17.9,-8.7 -2.7,-1.3 -5.5,-2.6 -8.2,-3.9 -4.3,-2.1 -8.6,-4.2 -12.9,-6.3 -3.6,-1.7 -7.1,-3.4 -10.7,-5.2 -3.5,-1.7 -7.1,-3.4 -10.7,-5.2 -50.2,-24.3 -102.5,-49.6 -157.2,-74.1 -9.3,-4.1 -18.6,-8.2 -28,-12.3 -6.4,-2.9 -12.9,-5.6 -19.4,-8.4 -4,-1.7 -8,-3.4 -12,-5.1 -4.7,-2 -9.5,-3.9 -14.2,-5.9 -10.3,-4.3 -20.7,-8.5 -31.2,-12.6 -1.1,-0.5 -2.3,-1 -3.5,-1.4 -9.3,-3.7 -18.7,-7.3 -28.2,-10.9 -10.6,-4 -21.4,-7.9 -32.2,-11.8 -5,-1.8 -10,-3.6 -15.1,-5.3 -5.8,-2.1 -11.6,-4.1 -17.5,-6 -7,-2.4 -14.1,-4.7 -21.2,-7 -10,-3.2 -20,-6.3 -30.1,-9.3 -9.7,-2.9 -19.5,-5.7 -29.3,-8.4 -6.7,-1.9 -13.5,-3.7 -20.2,-5.5 -6.9,-1.8 -13.9,-3.6 -21,-5.3 -2.1,-0.6 -4.1,-1.1 -6.1,-1.5 -11.3,-2.7 -22.8,-5.3 -34.3,-7.8 -7.9,-1.7 -15.7,-3.3 -23.7,-4.9 -4.2,-0.8 -8.4,-1.6 -12.7,-2.4 -5,-0.9 -10,-1.8 -15.1,-2.7 -8.6,-1.5 -17.3,-2.9 -26,-4.3 -5.9,-0.8 -11.9,-1.7 -17.9,-2.5 -12,-1.6 -24.1,-3.1 -36.3,-4.4 -6.1,-0.6 -12.2,-1.2 -18.3,-1.8 -6.5,-0.6 -13.2,-1.1 -19.8,-1.6 -37.1,-2.8 -75.1,-3.8 -113.8,-2.8 -59.7,1.5 -115.8,3.4 -168,5.6 -4,0.2 -8,0.3 -12,0.5 -9.8,0.4 -19.5,0.8 -29,1.3 -13.4,0.5 -26.5,1.2 -39.3,1.8 -13,0.6 -25.7,1.3 -38.2,2 -4.4,0.3 -8.7,0.5 -13,0.7 -14.5,0.8 -28.7,1.6 -42.403,2.4 -13.2,0.9 -26,1.7 -38.5,2.5 -4.297,0.2 -8.598,0.5 -12.797,0.8 -12.703,0.9 -24.903,1.7 -36.7,2.5 h -0.503 c -15.5,1.2 -30.297,2.3 -44.2,3.4 -5.297,0.4 -10.398,0.8 -15.398,1.1 -3.602,0.3 -7.301,0.6 -10.801,0.9 -13.601,1.1 -26.398,2.2 -38.199,3.2 -4.402,0.4 -8.699,0.8 -12.902,1.1 -7,0.7 -13.7,1.3 -20,1.9 -1.7,0.1 -3.399,0.3 -5.098,0.5 -10,0.9 -19.102,1.8 -27.203,2.6 -3.598,0.4 -7.098,0.7 -10.297,1.1 h -0.399 c -2.703,0.3 -5.203,0.6 -7.601,0.8 -3.199,0.3 -6.203,0.7 -8.902,1 -1.7,0.2 -3.399,0.4 -4.899,0.5 -1.898,0.2 -3.598,0.4 -5.199,0.6 -1.602,0.2 -3.102,0.3 -4.301,0.5 -2.601,0.3 -4.398,0.5 -5.699,0.7 l -1.301,0.1 -0.601,0.1 c -31.797,-10.6 -63.5,-21.4 -95.098,-32.5 -10.402,-3.6 -20.703,-7.2 -31,-10.9 -13.902,-4.9 -27.699,-9.9 -41.5,-14.9 -9.301,-3.4 -18.602,-6.8 -27.801,-10.2 -9.301,-3.4 -18.5,-6.8 -27.797,-10.3 h -0.203 c -15.598,-5.8 -31.199,-11.7 -46.699,-17.6 -10.301,-3.9 -20.598,-7.9 -30.801,-11.9 -25.801,-10 -51.601,-20.2 -77.297,-30.5 0,0 18.996,-37.3 48.899,-95.8 75.5,-147.6 220.097,-430.6 302.297,-591.5 19.199,-37.4 34.902,-68.3 45.601,-89.3 25.899,-50.6 40.399,-125.8 51.602,-207 v -0.2 c 21.199,-155.2 29.898,-332.5 81,-402.8 23.699,-32.5 59,-43.5 96.797,-38.9 2.402,0.3 4.902,0.7 7.402,1.1 1.699,0.3 3.5,0.6 5.301,1 1.597,0.4 3.297,0.7 5,1.2 6.398,1.5 13,3.5 19.5,6 3.398,1.1 6.699,2.5 10.097,4 2.102,0.9 4.2,1.9 6.399,2.9 2.101,0.9 4.203,2 6.301,3.1 2.101,1 4.199,2.1 6.304,3.3 2.098,1.1 4.099,2.3 6.199,3.6 2.1,1.2 4.2,2.5 6.2,3.8 2.1,1.3 4.1,2.6 6.1,4 2,1.3 4,2.7 6,4.2 2,1.4 3.9,2.9 5.9,4.4 3.6,2.8 7.3,5.7 10.8,8.8 l 1.2,1.1 c 3,2.6 5.9,5.3 8.8,8.1 1.5,1.3 3,2.8 4.4,4.3 1.9,1.8 3.8,3.7 5.5,5.7 1.3,1.4 2.6,2.8 3.8,4.2 l 0.4,0.4 c 2.7,2.9 5.2,5.9 7.6,9 5.4,6.5 10.3,13.3 14.8,20.4 1.5,2.3 3,4.7 4.3,7 3.1,5.2 6,10.5 8.6,15.9 1,2 1.9,4 2.7,6 1.1,2.5 2.2,5 3.2,7.5 3.1,7.6 5.6,15.4 7.5,23.3 0.6,2.2 1.1,4.4 1.5,6.6 l 0.4,2 c 0.5,2.3 0.9,4.7 1.3,7 l 0.1,0.6 c 0.3,2 0.6,4 0.8,6.1 0.3,2.7 0.5,5.5 0.7,8.3 0.2,3.2 0.3,6.3 0.3,9.5 v 4.4 c 0,2.7 0.1,5.4 0.2,8.1 0.3,10.7 1.1,21 2.4,30.7 0.2,2.5 0.6,5 1,7.4 0.3,2.5 0.7,4.9 1.2,7.3 0.5,2.8 1,5.6 1.7,8.3 0.1,1.1 0.4,2.1 0.6,3.1 0.5,2.3 1.1,4.6 1.7,6.8 0.7,2.7 1.4,5.3 2.2,7.9 15.1,49.5 45.1,80.2 87.3,89 3.7,0.8 7.5,1.4 11.4,1.9 27.2,3 59,-2.3 94.7,-16.7 39.4,-16 81.6,-24.1 119.3,-20.7 1.9,0.1 3.7,0.3 5.6,0.6 4.9,0.6 9.8,1.4 14.5,2.4 2.5,0.5 4.9,1.1 7.3,1.8 l 2.3,0.6 c 2.6,0.8 5.2,1.6 7.8,2.5 6,2.1 11.8,4.7 17.4,7.7 2.2,1.1 4.3,2.4 6.3,3.7 l 0.4,0.2 c 2.1,1.3 4.1,2.7 6.1,4.1 5.1,3.8 9.9,8 14.4,12.6 1.8,1.9 3.5,3.9 5.1,5.9 l 0.7,0.8 c 1.8,2.2 3.5,4.6 5.2,7 3.4,5.1 6.6,10.6 9.4,16.5 1.2,2.5 2.3,5.1 3.3,7.7 1,2.6 1.9,5.2 2.8,7.9 0.7,2.1 1.3,4.2 1.9,6.3 0.4,1.6 0.8,3.2 1.2,4.9 0.6,2.1 1.1,4.3 1.5,6.6 h 0.1 c 5.4,0.1 10.9,0.2 16.5,0.2 5,0 10,-0.1 15,-0.2 8.3,-0.2 16.5,-0.5 24.6,-1 11.7,-0.7 23.2,-1.7 34.7,-3.1 -0.3,7.1 -0.6,14.3 -0.7,21.5 -0.1,6 -0.2,12 -0.2,18.1 0,116.3 23.1,226 64,322.3 93.9,221.4 281.4,372.4 497.5,372.4 229.6,0 427,-170.5 514,-414.7 29.9,-83.7 46.7,-176.1 47.4,-273.2 0.1,-2.2 0.1,-4.5 0.1,-6.8 0,-379.6 -246.2,-688.2 -551.9,-694.5 v -0.1 c -0.1,-4.8 -0.2,-9.7 -0.5,-14.5 -0.2,-4.8 -0.4,-9.6 -0.8,-14.4 -0.3,-4.6 -0.6,-9.2 -1.1,-13.8 v -0.8 c -0.4,-4.4 -0.8,-8.8 -1.3,-13.1 -0.7,-6.3 -1.5,-12.5 -2.4,-18.7 -1,-8.1 -2.3,-16.2 -3.8,-24.2 -3.4,-19.5 -7.8,-38.8 -13,-57.6 -0.9,-3.1 -1.8,-6.2 -2.6,-9.2 -4,-13.8 -8.5,-27.4 -13.4,-40.8 -2.3,-6.2 -4.6,-12.3 -7.1,-18.3 -0.8,-2.1 -1.6,-4.2 -2.5,-6.2 -2.4,-5.9 -4.9,-11.6 -7.5,-17.4 l -0.7,-1.7 c -3,-6.7 -6.1,-13.3 -9.4,-19.8 -2.4,-4.9 -4.9,-9.8 -7.5,-14.6 -1.3,-2.6 -2.6,-5.1 -4,-7.6 -2.4,-4.6 -4.9,-9.1 -7.6,-13.6 -2.1,-3.7 -4.2,-7.3 -6.4,-10.9 -6,-10 -12.2,-19.9 -18.9,-29.5 -1.8,-2.7 -3.7,-5.5 -5.6,-8.2 -1.4,-2.2 -3,-4.4 -4.7,-6.5 l -0.9,-1.4 -1,-1.3 c -1.7,-2.4 -3.4,-4.7 -5.1,-7 0.9,1.1 1.8,2.3 2.6,3.4 0.9,1.2 1.8,2.4 2.6,3.6 845,-157.2 1648.4,58.8 1648.4,58.8 0,0 -34.6,-122.4 -86.5,-324.9 -12,-46.5 -30,-94.6 -50.7,-141 1,-0.5 1.9,-1.1 2.9,-1.8 3.3,-2.1 6.6,-4.2 9.9,-6.4 3.4,-2.1 6.7,-4.3 9.9,-6.5 4.2,-2.8 8.3,-5.7 12.3,-8.6 4.2,-2.9 8.3,-5.9 12.3,-9.1 2.6,-1.9 5.1,-3.8 7.6,-5.8 1.8,-1.3 3.6,-2.7 5.4,-4.2 2.4,-1.8 4.8,-3.8 7.2,-5.7 12.2,-9.9 24,-20.2 35.4,-31.1 1.6,-1.4 3.1,-2.9 4.7,-4.5 2.2,-2 4.5,-4.2 6.7,-6.5 2.2,-2.1 4.4,-4.3 6.5,-6.5 l 1.2,-1.2 c 4,-4.2 8,-8.4 12,-12.7 10.8,-11.6 21.1,-23.6 30.9,-35.9 3.9,-4.9 7.7,-9.8 11.4,-14.8 8.2,-10.9 16.1,-22 23.5,-33.4 1.9,-2.9 3.8,-5.8 5.6,-8.7 3.4,-5.3 6.7,-10.6 9.9,-16.1 3.3,-5.4 6.5,-10.9 9.5,-16.5 l 0.4,-0.7 c 3.2,-5.7 6.2,-11.4 9.2,-17.2 l 342.8,677.3 57.1,112.7 2.6,5.1 c 15.2,-5.1 30.6,-8.5 46,-10.4 36.9,-4.4 73.3,0.8 105.6,16.8 53.6,26.5 95.7,82.9 109.2,174.9 l 0.1,0.5 c 3.5,23.5 5.1,49.3 4.5,77.6 -0.9,46.5 7.9,106.5 22,170.3 31.6,142.8 89.5,305 122.9,380.5 9.1,20.7 352.5,697.2 485.9,959.9 32.2,63.5 52.2,102.8 52.2,102.8 -783.4,315.2 -1612.6,472.7 -2441.7,472.7" /><path
             id="path26"
             style="fill:#e53e47;fill-opacity:1;fill-rule:nonzero;stroke:none"
             d="m 4400.23,4285.78 c 0,-50.2 -5.7,-99.1 -16.6,-146 -1.2,-5.1 -2.4,-10.1 -3.7,-15.1 -1,-3.9 -2,-7.7 -3.1,-11.5 -0.7,-2.7 -1.5,-5.4 -2.3,-8.1 -1,-3.5 -2,-6.9 -3.1,-10.3 -3.5,-11.3 -7.2,-22.4 -11.3,-33.3 -1.6,-4.2 -3.1,-8.4 -4.8,-12.5 -1.7,-4.2 -3.4,-8.5 -5.2,-12.7 -1.6,-4 -3.4,-8 -5.1,-12 -11.3,-25.4 -24.2,-49.9 -38.5,-73.4 -2,-3.2 -4,-6.4 -6,-9.6 -2.2,-3.6 -4.5,-7.1 -6.8,-10.6 -5.1,-7.6 -10.3,-15.1 -15.6,-22.5 -2.2,-3.1 -4.5,-6.1 -6.7,-9.1 -3.1,-4.1 -6.2,-8.1 -9.4,-12.1 -2.7,-3.5 -5.5,-7 -8.3,-10.4 -2.8,-3.4 -5.7,-6.8 -8.6,-10.2 -2.8,-3.2 -5.6,-6.5 -8.5,-9.7 -23.6,-26.5 -49.5,-51.1 -77.2,-73.4 -6.3,-5 -12.6,-10 -19.1,-14.7 -8.2,-6.2 -16.6,-12.2 -25.1,-17.9 -3.2,-2.2 -6.5,-4.3 -9.8,-6.4 -21.6,-14 -44.1,-26.8 -67.4,-38.1 -3.1,-1.6 -6.3,-3.1 -9.5,-4.6 -4.6,-2.2 -9.3,-4.3 -14.1,-6.4 -2.8,-1.2 -5.6,-2.4 -8.5,-3.6 -3.6,-1.6 -7.2,-3 -10.9,-4.5 -3.6,-1.5 -7.3,-2.9 -11,-4.3 -14.7,-5.6 -29.7,-10.7 -44.9,-15.1 -3.9,-1.2 -7.7,-2.3 -11.5,-3.3 -3.8,-1.1 -7.7,-2.1 -11.6,-3.1 -2.6,-0.7 -5.3,-1.4 -8,-2 -3.6,-0.9 -7.3,-1.8 -11,-2.5 -9.2,-2.2 -18.6,-4.1 -28,-5.7 0.4,9.6 0.6,19.3 0.6,29 0,14.5 -0.4,28.9 -1.3,43.2 -5.6,100.9 -31,195.1 -71.5,276.9 -18.3,37 -39.6,71.4 -63.7,102.8 -20.2,26.5 -42.3,50.7 -66,72.5 -84.5,77.6 -189.5,123.6 -303.3,123.6 -90.7,0 -175.9,-29.2 -249.6,-80.5 -0.6,5.5 -1.1,11.1 -1.5,16.6 l -0.1,1 c -0.8,10 -1.3,20 -1.6,30 -0.2,6.5 -0.3,13 -0.3,19.6 0,31.5 2.3,62.5 6.7,92.8 0.4,3.4 0.9,6.7 1.5,10.1 0.8,5.2 1.7,10.4 2.7,15.6 0.2,1.5 0.5,3.1 0.9,4.7 0.8,4.4 1.7,8.8 2.7,13.1 0.2,1.4 0.5,2.8 0.9,4.2 0.9,4.2 1.9,8.3 2.9,12.4 0.3,1.5 0.7,3 1.1,4.6 1.3,5.3 2.7,10.5 4.2,15.8 0.8,2.8 1.6,5.7 2.4,8.6 3.4,11.5 7.1,22.9 11.2,34.2 1.2,3.5 2.4,6.9 3.7,10.3 0.9,2.6 1.9,5.2 3,7.8 1,2.6 2,5.2 3.1,7.8 1.5,3.9 3.2,7.9 4.8,11.7 3.5,8.2 7.2,16.2 11,24.2 2,4.2 4,8.3 6.1,12.4 0.8,1.7 1.7,3.3 2.5,4.9 2.1,4.1 4.2,8.1 6.4,12.1 6,11.1 12.3,21.9 18.9,32.5 2.2,3.5 4.4,7 6.6,10.4 3,4.7 6.1,9.3 9.3,13.9 4.6,6.8 9.3,13.4 14.2,20 1.8,2.4 3.7,4.8 5.5,7.2 4.8,6.2 9.6,12.4 14.6,18.4 l 0.3,0.4 c 4.8,5.8 9.6,11.4 14.6,17 l 0.9,1 c 2.6,2.9 5.3,5.9 7.9,8.8 3.4,3.7 6.9,7.4 10.5,11 1.9,2.2 4,4.2 6.1,6.3 8,8.1 16.3,16.1 24.8,23.7 2.3,2.1 4.6,4.2 7,6.2 3.8,3.4 7.7,6.7 11.6,10 3,2.6 6.1,5 9.1,7.5 2.5,2.1 5.1,4.1 7.7,6.1 3.2,2.6 6.5,5.1 9.8,7.5 2.3,1.8 4.6,3.5 6.9,5.1 3.1,2.4 6.3,4.7 9.5,6.9 8.2,5.9 16.6,11.5 25.2,16.9 2.4,1.6 4.8,3.1 7.2,4.5 l 2.1,1.3 c 2,1.2 3.9,2.4 5.9,3.6 2,1.2 4,2.4 6,3.5 3,1.8 6.1,3.5 9.2,5.3 1.1,0.7 2.2,1.3 3.3,1.8 5.1,2.9 10.3,5.7 15.5,8.4 5.7,3 11.4,5.8 17.2,8.6 13.7,6.7 27.7,12.8 42,18.4 4.3,1.7 8.7,3.4 13,5 2.8,1.1 5.6,2.1 8.4,3 3.1,1.2 6.2,2.3 9.3,3.3 4.2,1.4 8.5,2.8 12.7,4.1 30,9.5 60.9,16.8 92.6,21.8 3.6,0.6 7.3,1.1 10.9,1.6 16,2.3 32.2,4 48.6,5 4.1,0.3 8.3,0.5 12.6,0.7 9.7,0.5 19.5,0.7 29.4,0.7 10.8,0 21.5,-0.3 32.2,-0.8 9.4,-0.5 18.7,-1.1 27.9,-2 3.5,-0.3 7.1,-0.7 10.7,-1.1 14.6,-1.5 29,-3.6 43.3,-6.2 5.3,-0.9 10.5,-1.9 15.7,-3 10.9,-2.2 21.8,-4.7 32.5,-7.5 4.7,-1.2 9.5,-2.6 14.2,-3.9 20.4,-5.8 40.4,-12.5 60,-20.3 4.8,-1.8 9.6,-3.8 14.4,-5.9 4.8,-2 9.6,-4.1 14.4,-6.3 4.2,-1.8 8.4,-3.8 12.5,-5.8 10.4,-4.9 20.7,-10.2 30.7,-15.7 2.8,-1.5 5.6,-3 8.3,-4.6 4.9,-2.8 9.8,-5.6 14.6,-8.5 4,-2.4 8,-4.9 12,-7.4 2.8,-1.7 5.6,-3.5 8.4,-5.4 2.4,-1.5 4.7,-3 7,-4.6 2.7,-1.9 5.4,-3.7 8.1,-5.6 7.8,-5.3 15.4,-10.8 22.9,-16.6 3.1,-2.3 6.1,-4.6 9.1,-7.1 8.2,-6.3 16.3,-13 24.1,-19.9 3,-2.6 6,-5.2 8.9,-7.9 4.5,-4 8.9,-8.1 13.3,-12.3 3.6,-3.4 7.2,-6.9 10.7,-10.5 3.6,-3.5 7,-7.1 10.5,-10.7 l 0.3,-0.3 c 6.8,-7.1 13.4,-14.4 19.9,-21.9 4.9,-5.5 9.7,-11.2 14.3,-17.1 3.3,-3.9 6.4,-7.8 9.5,-11.9 3.7,-4.8 7.4,-9.6 11,-14.6 l 0.4,-0.6 c 3.7,-5 7.2,-10.1 10.7,-15.2 2.5,-3.6 5,-7.3 7.4,-11 2,-3 3.9,-6 5.8,-9.1 1.8,-2.7 3.6,-5.5 5.2,-8.3 2,-3.2 3.9,-6.4 5.8,-9.7 2.6,-4.4 5.1,-8.7 7.5,-13.1 12.3,-22.1 23.2,-44.9 32.8,-68.4 2,-4.7 3.8,-9.4 5.6,-14.2 1.9,-4.7 3.6,-9.4 5.3,-14.2 4.5,-12.8 8.7,-25.8 12.4,-39 0.7,-2.2 1.3,-4.3 1.8,-6.4 3.8,-13.7 7.1,-27.6 9.9,-41.7 0.7,-3.4 1.4,-6.7 1.9,-10 2.9,-15.5 5.2,-31.1 6.9,-46.9 0.5,-3.8 0.9,-7.6 1.2,-11.4 1.9,-19.8 2.8,-39.8 2.8,-60.1" /><path
             id="path28"
             style="fill:#e53e47;fill-opacity:1;fill-rule:nonzero;stroke:none"
             d="m 3876.23,1939.18 c 0,0 -213.7,-304.2 -379.6,-719.8 -11.9,-29.7 -23.5,-60.1 -34.8,-90.9 -13.5,-36.9 -56.9,-41 -104.5,-38.3 -32.4,1.8 -66.8,6.8 -95.1,6.8 -356,0 -644.7,288.7 -644.7,644.8 0,5.4 0.1,10.7 0.2,16 v 0.8 c 0.2,6.7 0.5,13.4 0.8,20.1 0.5,7.7 1,15.4 1.8,23 0.3,3.5 0.7,6.9 1,10.3 l 0.1,1.2 c 0.3,2.8 0.7,5.6 1,8.4 1,8.3 2.2,16.5 3.6,24.7 0.8,4.8 1.6,9.6 2.5,14.4 0.6,3.4 1.2,6.7 2,10.1 1,5.2 2.1,10.3 3.3,15.4 1.4,6.2 2.9,12.4 4.5,18.5 72.3,-5.4 147.2,-8.8 221.5,-9.4 24.5,-0.3 48.9,-0.3 73,0.2 85.9,1.5 169.4,7.2 245.1,18.7 38.2,5.7 74.4,12.8 107.9,21.6 58.3,15.3 108.5,35.5 147,61.5 0,0 99.5,137.1 168.9,292.6 1,-0.5 1.9,-1.1 2.9,-1.8 3.3,-2.1 6.6,-4.2 9.9,-6.4 3.4,-2.1 6.7,-4.3 9.9,-6.5 4.2,-2.8 8.3,-5.7 12.3,-8.6 4.2,-2.9 8.3,-5.9 12.3,-9.1 2.6,-1.9 5.1,-3.8 7.6,-5.8 1.8,-1.3 3.6,-2.7 5.4,-4.2 2.4,-1.8 4.8,-3.8 7.2,-5.7 12.2,-9.9 24,-20.2 35.4,-31.1 1.6,-1.4 3.1,-2.9 4.7,-4.5 2.2,-2 4.5,-4.2 6.7,-6.5 2.2,-2.1 4.4,-4.3 6.5,-6.5 l 1.2,-1.2 c 4,-4.2 8,-8.4 12,-12.7 10.8,-11.6 21.1,-23.6 30.9,-35.9 3.9,-4.9 7.7,-9.8 11.4,-14.8 8.2,-10.9 16.1,-22 23.5,-33.4 1.9,-2.9 3.8,-5.8 5.6,-8.7 3.4,-5.3 6.7,-10.6 9.9,-16.1 3.3,-5.4 6.5,-10.9 9.5,-16.5 l 0.4,-0.7 c 3.2,-5.7 6.2,-11.4 9.2,-17.2 15.9,-30.9 29.3,-63.3 40.1,-96.8" /><path
             id="path30"
             style="fill:#e53e47;fill-opacity:1;fill-rule:nonzero;stroke:none"
             d="m 2213.13,3061.18 v -0.1 c -0.1,-4.8 -0.2,-9.7 -0.5,-14.5 -0.2,-4.8 -0.4,-9.6 -0.8,-14.4 -0.3,-4.6 -0.6,-9.2 -1.1,-13.8 v -0.8 c -0.4,-4.4 -0.8,-8.8 -1.3,-13.1 -0.7,-6.3 -1.5,-12.5 -2.4,-18.7 -1.1,-8.1 -2.4,-16.2 -3.8,-24.2 -3.4,-19.5 -7.8,-38.8 -13,-57.6 -0.9,-3.1 -1.8,-6.2 -2.6,-9.2 -4,-13.8 -8.5,-27.4 -13.4,-40.8 -2.3,-6.2 -4.6,-12.3 -7.1,-18.3 -0.8,-2.1 -1.6,-4.2 -2.5,-6.2 -2.4,-5.9 -4.9,-11.6 -7.5,-17.4 l -0.7,-1.7 c -3,-6.7 -6.1,-13.3 -9.4,-19.8 -2.4,-4.9 -4.9,-9.8 -7.5,-14.6 -1.3,-2.6 -2.6,-5.1 -4,-7.6 -2.4,-4.6 -4.9,-9.1 -7.6,-13.6 -2.1,-3.7 -4.2,-7.3 -6.4,-10.9 -6,-10 -12.2,-19.9 -18.9,-29.5 -1.8,-2.7 -3.7,-5.5 -5.6,-8.2 -1.4,-2.2 -3,-4.4 -4.7,-6.5 l -0.9,-1.4 -0.9,-1.3 c -0.8,-1.2 -1.7,-2.4 -2.6,-3.6 -0.8,-1.1 -1.7,-2.3 -2.6,-3.4 1.7,2.3 3.4,4.6 5.1,7 -78.2,14.6 -156.9,32.3 -235.2,53.8 -3.2,-6.2 -6.9,-12.1 -11.3,-17.4 11.2,-36.4 35.2,-113.8 64.9,-205.4 -3.3,-2.1 -6.6,-4.1 -9.9,-6.1 -6.7,-4.1 -13.4,-7.9 -20.2,-11.6 -3.6,-2 -7.2,-3.9 -10.8,-5.8 -6.6,-3.5 -13.2,-6.8 -19.8,-10 -4.4,-2.1 -8.8,-4.2 -13.2,-6.1 -8.1,-3.8 -16.3,-7.3 -24.5,-10.5 -4.4,-1.9 -8.9,-3.6 -13.4,-5.3 l -2.3,-0.9 c -4.4,-1.7 -8.8,-3.3 -13.3,-4.8 -17.7,-6.2 -35.8,-11.7 -54.1,-16.3 -3.2,-0.8 -6.4,-1.6 -9.6,-2.3 -2.5,-0.7 -5,-1.2 -7.5,-1.8 -3.2,-0.7 -6.4,-1.4 -9.7,-2.1 -16.4,-3.4 -33,-6.2 -49.8,-8.3 -3.4,-0.5 -6.8,-0.9 -10.3,-1.2 -3.7,-0.5 -7.4,-0.8 -11.1,-1.1 -1.3,-0.2 -2.7,-0.3 -4.1,-0.4 -4.6,-0.5 -9.2,-0.8 -13.9,-1.1 -1.5,-0.1 -3,-0.2 -4.5,-0.3 -5.4,-0.3 -10.8,-0.6 -16.3,-0.7 -7.3,-0.3 -14.6,-0.4 -21.9,-0.4 -35.5,0 -70.4,2.9 -104.5,8.4 -43.6,7.1 -85.9,18.6 -126.2,34.1 0,0 -252.4,545.7 -408.2,805.1 2.399,0.3 4.899,0.7 7.399,1.1 1.699,0.3 3.5,0.6 5.301,1 1.597,0.4 3.297,0.7 5,1.2 6.398,1.5 13,3.5 19.5,6 3.398,1.1 6.699,2.5 10.097,4 2.102,0.8 4.2,1.8 6.403,2.9 2.101,0.9 4.199,2 6.3,3.1 2.098,1 4.2,2.1 6.301,3.3 2.098,1.1 4.099,2.3 6.199,3.6 2.1,1.2 4.2,2.4 6.2,3.8 2.1,1.3 4.1,2.6 6.1,4 2,1.3 4,2.7 6,4.2 2,1.4 3.9,2.9 5.9,4.4 3.6,2.8 7.3,5.7 10.8,8.8 l 1.2,1.1 c 3,2.6 6,5.3 8.8,8.1 1.5,1.3 3,2.8 4.4,4.3 1.9,1.8 3.8,3.7 5.5,5.7 1.3,1.4 2.6,2.8 3.8,4.2 l 0.4,0.4 c 2.7,2.9 5.2,5.9 7.6,9 5.4,6.5 10.3,13.3 14.8,20.4 1.5,2.3 3,4.7 4.3,7 3.1,5.2 6,10.5 8.6,15.9 1,2 1.9,4 2.7,6 1.2,2.5 2.2,5 3.2,7.5 3.1,7.6 5.6,15.4 7.5,23.3 0.6,2.2 1.1,4.4 1.5,6.6 l 0.4,2 c 0.5,2.3 0.9,4.7 1.3,7 l 0.1,0.6 c 0.3,2 0.6,4 0.8,6.1 0.3,2.7 0.5,5.5 0.7,8.3 0.2,3.2 0.3,6.3 0.3,9.5 v 4.4 c 0,2.7 0.1,5.4 0.2,8.1 0.3,10.7 1.1,21 2.4,30.7 0.2,2.5 0.6,5 1,7.4 0.3,2.5 0.7,4.9 1.2,7.3 0.5,2.8 1,5.6 1.7,8.3 0.1,1.1 0.4,2.1 0.6,3.1 0.5,2.3 1.1,4.6 1.7,6.8 0.7,2.7 1.4,5.3 2.2,7.9 15.1,49.5 45.1,80.2 87.3,89 3.7,0.8 7.5,1.4 11.4,1.9 27.2,3 59,-2.3 94.7,-16.7 39.4,-16 81.6,-24.1 119.3,-20.7 1.9,0.1 3.7,0.3 5.6,0.6 4.9,0.6 9.8,1.4 14.5,2.4 2.5,0.5 4.9,1.1 7.3,1.8 l 2.3,0.6 c 2.6,0.8 5.2,1.6 7.8,2.5 6,2.1 11.8,4.7 17.4,7.7 2.2,1.1 4.3,2.4 6.3,3.7 l 0.4,0.2 c 2.1,1.3 4.1,2.7 6.1,4.1 5.1,3.8 9.9,8 14.4,12.6 1.8,1.9 3.5,3.9 5.1,5.9 l 0.7,0.8 c 1.8,2.2 3.6,4.6 5.2,7 3.5,5.1 6.6,10.6 9.4,16.5 1.2,2.5 2.3,5.1 3.3,7.7 1,2.6 1.9,5.2 2.8,7.9 0.7,2.1 1.3,4.2 1.9,6.3 0.4,1.6 0.8,3.2 1.2,4.9 0.6,2.1 1.1,4.3 1.5,6.6 h 0.1 c 5.4,0.1 10.9,0.2 16.5,0.2 5,0 10,-0.1 15,-0.2 8.3,-0.2 16.5,-0.5 24.6,-1 11.7,-0.7 23.2,-1.7 34.7,-3.1 4.4,-96.5 24.7,-187.8 57.8,-269.8 8.9,-6.2 12.8,-17.3 11.8,-27.8 95.9,-213.2 279.8,-357.4 491,-357.4 3.2,0 6.4,0 9.6,0.1" /><path
             id="path32"
             style="fill:#e53e47;fill-opacity:1;fill-rule:nonzero;stroke:none"
             d="m 2539.98,5173.43 c -105.3,-5.7 -223.6,-59.3 -358,-124.2 -230.3,-111.1 -507.7,-255.1 -846.8,-246.6 -163.3,4.1 -299.3,11.2 -404.102,18.3 -36,2.4 -68.301,4.9 -96.699,7.2 -99.602,8 -152.602,14.7 -152.602,14.7 36.903,12.3 73.903,24.2 111,35.8 569.403,178.1 1157.403,276.4 1747.203,294.8" /><path
             id="path34"
             style="fill:#e8816a;fill-opacity:1;fill-rule:nonzero;stroke:none"
             d="m 4105.73,4452.53 c -2.67,2.27 -5.26,4.6 -7.69,7.12 -0.99,1.02 -1.92,2.09 -2.87,3.14 -1.65,2.56 -3.37,5.05 -4.86,7.73 -0.84,1.52 -1.52,3.16 -2.41,4.66 l -0.16,0.23 c -4.18,10.08 -9.68,18.57 -19.57,24.36 -9.64,5.64 -23.86,8.03 -34.67,4.53 -21.37,-6.91 -40.43,-31.81 -31.43,-55.35 8.77,-22.94 21.08,-43.97 40.02,-60.06 9.26,-7.87 19.3,-13.18 31.82,-13.18 11.04,0 24.22,4.9 31.82,13.18 15.39,16.76 19.16,47.36 0,63.64" /><path
             id="path36"
             style="fill:#e8816a;fill-opacity:1;fill-rule:nonzero;stroke:none"
             d="m 3449.58,4433.44 c -16.44,14.58 -37.04,19.05 -58.49,17.41 -21.65,-1.66 -35.81,-13.16 -43.39,-33.04 -4.17,-10.93 -8.34,-21.86 -12.51,-32.8 -8.4,-22.04 9.29,-50.31 31.43,-55.35 13.91,-3.17 26.25,-0.46 36.17,6.3 3.54,-0.84 7.1,-1.47 10.58,-1.63 24.31,-1.09 46.99,15.43 53.84,38.67 6.3,21.38 -0.99,45.67 -17.63,60.44" /><path
             id="path38"
             style="fill:#e8816a;fill-opacity:1;fill-rule:nonzero;stroke:none"
             d="m 3782.53,4179.38 c -8.9,-28.9 -25,-55.7 -48.2,-75.5 l -1.2,-0.9 c -20.2,26.5 -42.3,50.7 -66,72.5 3.9,10.2 8.9,19.9 14.8,29 6.9,10.7 16.9,17.7 27.9,20.5 10.9,9.4 25.9,13.3 41.3,9.8 23.2,-5.3 38.4,-32.9 31.4,-55.4" /><path
             id="path40"
             style="fill:#e8816a;fill-opacity:1;fill-rule:nonzero;stroke:none"
             d="m 3761.6,4641.31 c -6.46,15.01 -23.17,26.9 -38.62,31.09 -16.7,4.52 -35.4,2.87 -50.24,-6.47 -9.78,-6.15 -17.57,-15.62 -20.68,-26.89 -2.96,-10.77 -1.62,-25.11 4.54,-34.67 8.71,-13.51 24.1,-22.07 39.74,-22.15 4.75,-3.27 9.97,-5.79 14.44,-7.02 10.77,-2.96 25.11,-1.63 34.67,4.54 9.61,6.19 18.07,15.42 20.68,26.89 l 1.61,11.96 c -0.02,8.13 -2.07,15.7 -6.14,22.72" /><path
             id="path42"
             style="fill:#e8816a;fill-opacity:1;fill-rule:nonzero;stroke:none"
             d="m 4098.14,4066.76 c -21.32,8.57 -43.67,0.83 -56.2,-18.41 -16.92,-25.99 -40.23,-44.21 -68.08,-57.38 -16.16,-7.64 -23.43,-26.7 -21.6,-44.09 -4.37,-12.81 -3.54,-27.8 2.95,-38.9 13.52,-23.11 39.14,-25.74 61.57,-16.15 5,2.14 9.66,4.68 14.09,7.49 44.2,25.12 76.23,66.41 93.32,114.35 7.44,20.86 -6.69,45.3 -26.05,53.09" /><path
             id="path44"
             style="fill:#e8816a;fill-opacity:1;fill-rule:nonzero;stroke:none"
             d="m 1487.32,3390.55 c -14.99,7.92 -36.1,7.66 -50.24,-2.56 -2.04,0.95 -4.08,1.89 -6.43,2.54 -10.77,2.96 -25.12,1.62 -34.68,-4.54 -18.65,-12.03 -31.14,-41.35 -16.14,-61.57 15.04,-20.28 36.71,-34.29 63.05,-32.39 24.29,1.76 49.71,13.88 60.59,36.95 10.01,21.25 6.63,49.53 -16.15,61.57" /><path
             id="path46"
             style="fill:#e8816a;fill-opacity:1;fill-rule:nonzero;stroke:none"
             d="m 1733.52,3027.07 c -7.29,17.26 -23.91,27.41 -41.93,27.3 -4.66,20.42 -20.96,38.27 -43.74,37.25 -22.79,-1.02 -46.99,-19.87 -45,-45 0.57,-7.19 0.47,-14.27 0.23,-21.48 l -0.03,-1.58 -0.16,-0.67 c -0.8,-3.5 -1.48,-7.01 -2.36,-10.49 -5.45,-21.48 6.95,-51.6 31.43,-55.35 29.36,-4.5 57.1,-1.47 83.14,13.83 19.38,11.38 27.04,35.75 18.42,56.19" /><path
             id="path48"
             style="fill:#e8816a;fill-opacity:1;fill-rule:nonzero;stroke:none"
             d="m 1860.33,2762.58 c -1.5,-4.1 -3.2,-8 -5.1,-11.8 -3.2,-6.2 -6.9,-12.1 -11.3,-17.4 -16.2,-20 -40,-33 -67.3,-32.3 -28.9,0.7 -56.5,21.5 -56.5,52.5 0,21.4 12.2,37.3 23.5,54.2 13.9,20.9 38.9,28.1 61.5,16.1 2.6,-1.4 5,-3 7.2,-5 5.3,0.6 10.8,0.4 16.5,-0.9 22.6,-5.1 39.4,-33.2 31.5,-55.4" /><path
             id="path50"
             style="fill:#e8816a;fill-opacity:1;fill-rule:nonzero;stroke:none"
             d="m 1364.84,3041.09 c -1.71,0.28 -3.32,0.72 -4.95,1.12 l -0.85,0.72 -0.7,1.54 c -2.18,22.55 -20.57,43.54 -44.66,42.46 -23.55,-1.05 -46.03,-19.8 -45,-45 1.67,-40.46 30.44,-80.8 72.24,-87.62 12.3,-2.01 23.51,-1.99 34.67,4.53 9.33,5.47 18.24,16.17 20.68,26.9 4.93,21.66 -6.59,51.3 -31.43,55.35" /><path
             id="path52"
             style="fill:#e8816a;fill-opacity:1;fill-rule:nonzero;stroke:none"
             d="m 3004.73,1799.88 c -13.8,-15.3 -31,-28.4 -49.8,-36.9 -20.1,-9.1 -46.8,-19 -69,-13 -56.2,15.3 -41.5,88.9 -32.4,131.1 1.1,5.3 3.4,10 6.3,14.2 24.5,-0.3 48.9,-0.3 73,0.2 3.9,-5.5 6.5,-11.9 7.7,-18.6 10.8,0 21.6,-0.1 32.4,-0.1 40.4,-0.2 57.4,-48.4 31.8,-76.9" /><path
             id="path54"
             style="fill:#e8816a;fill-opacity:1;fill-rule:nonzero;stroke:none"
             d="m 3396.58,1713.39 c -12.36,28.17 -32.26,49.48 -56.52,67.85 -2.72,2.06 -5.68,3.55 -8.77,4.63 -3.58,2.29 -7.4,4.07 -11.34,5.15 -25.4,6.98 -46.59,-8.66 -55.36,-31.43 -11.48,-29.8 -25.53,-74.08 -9.76,-104.24 18.53,-35.44 64.94,-36.17 99.55,-30.21 18,3.1 34.86,11.36 44.43,27.71 11.6,19.82 6.35,41.01 -2.23,60.54" /><path
             id="path56"
             style="fill:#e8816a;fill-opacity:1;fill-rule:nonzero;stroke:none"
             d="m 3645.04,1941.82 c -13.28,46.18 -51.74,84.49 -99.54,93.75 -23.04,4.46 -49.67,-6.48 -55.36,-31.43 -5.06,-22.25 6.72,-50.58 31.44,-55.36 3.88,-0.75 7.53,-1.7 11.34,-2.78 l 0.85,-0.29 c 3.13,-1.78 6.25,-3.44 9.33,-5.35 l 1.14,-0.67 0.47,-0.72 c 1.7,-2.15 4.12,-4.28 6.14,-6.27 0.58,-0.7 1.24,-1.57 1.82,-2.48 1.19,-1.88 2.2,-3.85 3.24,-5.81 0.2,-0.75 1.77,-4.52 2.34,-6.52 6.5,-22.6 32.05,-38.97 55.36,-31.43 22.99,7.44 38.4,31.12 31.43,55.36" /><path
             id="path58"
             style="fill:#e8816a;fill-opacity:1;fill-rule:nonzero;stroke:none"
             d="m 3112.25,1478.52 c -0.74,2.28 -1.76,4.44 -2.81,6.57 0.39,4.59 0.39,9.21 -0.12,13.82 -1.37,12.29 -4.11,22.75 -13.18,31.82 -7.81,7.8 -20.61,13.68 -31.82,13.18 -11.64,-0.52 -23.71,-4.35 -31.82,-13.18 -7.56,-8.23 -14.47,-20.2 -13.18,-31.82 0.23,-2.09 0.32,-4.15 0.32,-6.21 -0.28,-1.04 -0.68,-2.07 -1.03,-3.1 -3.45,-8.21 -5.05,-15.88 -3.81,-25.07 1.43,-10.67 6.43,-20.99 14.34,-28.52 13.54,-12.87 33.62,-18.37 51.68,-12.85 22.48,6.88 39.06,31.78 31.43,55.36" /><path
             id="path60"
             style="fill:#e8816a;fill-opacity:1;fill-rule:nonzero;stroke:none"
             d="m 3349.48,1451.01 c -8.8,8.08 -19.63,13.18 -31.82,13.18 h -14.07 c -11.54,0 -23.66,-5.02 -31.82,-13.18 -7.8,-7.81 -13.68,-20.61 -13.18,-31.82 0.52,-11.64 4.35,-23.71 13.18,-31.82 8.81,-8.08 19.63,-13.18 31.82,-13.18 h 14.07 c 11.54,0 23.66,5.02 31.82,13.18 7.81,7.8 13.68,20.61 13.18,31.82 -0.52,11.64 -4.34,23.71 -13.18,31.82" /><path
             id="path62"
             style="fill:#a21f26;fill-opacity:1;fill-rule:nonzero;stroke:none"
             d="m 1712.53,3418.48 c -0.7,-8.9 -4.9,-17.4 -12.4,-22.4 -0.2,-1.8 -0.4,-3.5 -0.8,-5.1 -1.7,-7.6 -7.4,-13.8 -13.8,-17.9 -6.3,-4.1 -15.9,-5 -23.1,-3 -8.1,2.2 -13,7.2 -17.9,13.7 -4.5,6 -8.9,12 -13.4,17.9 -4.7,6.3 -4.7,15.8 -3,23.1 1.7,7.7 7.3,13.8 13.8,18 6.3,4.1 15.9,5 23.1,3 l 0.8,-0.3 c 4.6,3.6 10.6,5.8 18,5.8 6.9,0 12.5,-1.9 16.9,-5 8.9,-6.2 12.8,-17.3 11.8,-27.8" /><path
             id="path64"
             style="fill:#a21f26;fill-opacity:1;fill-rule:nonzero;stroke:none"
             d="m 1567.99,3191.25 c -5.27,11.19 -15.5,18.96 -25.83,25.22 -13.44,8.13 -33.56,3.41 -41.05,-10.77 -4.11,-7.77 -4.75,-16.44 -2.37,-24.18 -2.17,-6.86 -3.07,-13.77 -1.34,-21.54 2.17,-9.81 8.17,-18.57 16.93,-23.72 15.06,-8.86 34.3,-4.96 46.36,7.08 13.17,13.14 15,31.54 7.3,47.91" /><path
             id="path66"
             style="fill:#a21f26;fill-opacity:1;fill-rule:nonzero;stroke:none"
             d="m 1281.85,3223.51 c -2.38,0 -4.61,-0.24 -6.7,-0.67 -2.09,0.43 -4.32,0.67 -6.7,0.67 -38.61,0 -38.67,-60 0,-60 2.38,0 4.61,0.23 6.69,0.66 2.09,-0.43 4.32,-0.66 6.71,-0.66 38.6,0 38.67,60 0,60" /><path
             id="path68"
             style="fill:#a21f26;fill-opacity:1;fill-rule:nonzero;stroke:none"
             d="m 1523.03,2799.2 c -16.25,-0.73 -30,-13.18 -30,-30 v -26.8 c 0,-15.69 13.8,-30.73 30,-30 16.26,0.73 30,13.18 30,30 v 26.8 c 0,15.69 -13.8,30.72 -30,30" /><path
             id="path70"
             style="fill:#a21f26;fill-opacity:1;fill-rule:nonzero;stroke:none"
             d="m 1959.79,3030.11 c -2.53,3.92 -5.69,7.01 -9.2,9.38 l -0.05,2.16 c -0.3,15.68 -13.57,30.74 -30,30 -15.99,-0.71 -30.33,-13.19 -30,-30 0.22,-11.09 0.44,-22.17 0.66,-33.26 0.46,-23.48 24.93,-36.4 45.14,-25.91 4.23,2.2 8.46,4.39 12.68,6.58 13.96,7.24 19.24,27.91 10.77,41.05" /><path
             id="path72"
             style="fill:#a21f26;fill-opacity:1;fill-rule:nonzero;stroke:none"
             d="m 3285.83,1935.78 c -2.4,-6.5 -6.8,-12.1 -12.8,-15.2 l -51.8,-25.9 c -20.2,-10 -38.7,1.2 -43.3,19.5 38.2,5.7 74.4,12.8 107.9,21.6" /><path
             id="path74"
             style="fill:#a21f26;fill-opacity:1;fill-rule:nonzero;stroke:none"
             d="m 3538.95,1833.57 -5.71,0.64 c -2,0.47 -3.99,0.97 -5.95,1.62 l -1.15,0.32 -1.57,0.9 c -0.78,0.45 -7.76,4.97 -4.14,2.14 -5.85,4.58 -12.66,7.47 -19.51,8.16 l -1.69,0.23 -0.19,0.01 c -1.48,0.2 -2.97,0.4 -4.52,0.33 -16.09,-0.72 -30.21,-13.19 -30,-30 0.2,-16.11 0.4,-32.21 0.6,-48.32 0.34,-27.17 32,-38.03 51.22,-21.21 13.14,11.51 23.33,19.42 37.75,29.28 24.26,16.6 15.69,54.91 -15.14,55.9" /><path
             id="path76"
             style="fill:#a21f26;fill-opacity:1;fill-rule:nonzero;stroke:none"
             d="m 3139.84,1683.47 c -4.07,6.25 -8.14,12.49 -12.21,18.74 -1.57,2.42 -3.51,4.48 -5.59,6.36 0.25,3.29 0.4,6.58 0.36,9.88 -0.15,15.68 -13.69,30.73 -30,30 -16.12,-0.72 -30.16,-13.19 -30,-30 0.13,-13.35 -2.57,-22.28 -11.61,-35.04 -9.07,-12.81 -2.66,-34.01 10.77,-41.05 21.78,-11.41 45.74,-11.43 67.51,0.07 13.84,7.3 19.34,27.88 10.77,41.04" /><path
             id="path78"
             style="fill:#a21f26;fill-opacity:1;fill-rule:nonzero;stroke:none"
             d="m 2930.41,1532.19 c -1.15,9.3 -2.29,18.61 -3.43,27.91 -1.01,8.24 -2.68,15.1 -8.79,21.21 -5.2,5.2 -13.74,9.12 -21.21,8.79 -3.73,-0.17 -7.5,-0.88 -11.04,-2.19 -13.68,4.35 -29.61,-0.33 -37.49,-13.8 -9.1,-15.55 -3.12,-34.35 9.82,-45.47 6.92,-5.95 13.95,-11.78 20.92,-17.66 9.45,-7.98 20.91,-11.21 32.77,-6.2 9.89,4.17 19.87,15.79 18.45,27.41" /><path
             id="path80"
             style="fill:#a21f26;fill-opacity:1;fill-rule:nonzero;stroke:none"
             d="m 3503.7,1517.86 c -16.25,-0.72 -30,-13.18 -30,-30 v -9.04 c 0,-15.69 13.8,-30.72 30,-30 16.26,0.73 30,13.18 30,30 v 9.04 c 0,15.7 -13.8,30.73 -30,30" /><path
             id="path82"
             style="fill:#a21f26;fill-opacity:1;fill-rule:nonzero;stroke:none"
             d="m 3701.33,4402.83 c -19.53,15.32 -40.8,21.24 -65.38,16.4 -15.43,-3.04 -25.68,-22.29 -20.95,-36.91 5.31,-16.41 20.37,-24.21 36.9,-20.95 l 0.27,0.06 0.74,-0.13 1.99,-0.1 0.13,-0.04 c 0.61,-0.25 3.32,-1.42 4.46,-1.77 1.84,-1.27 3.85,-2.47 -0.59,1.02 6.53,-5.13 12.55,-8.79 21.21,-8.79 7.36,0 16.15,3.27 21.22,8.79 9.9,10.79 13.18,32.08 0,42.42" /><path
             id="path84"
             style="fill:#a21f26;fill-opacity:1;fill-rule:nonzero;stroke:none"
             d="m 3508.03,4640.74 c -6.49,1.47 -12.39,1.1 -17.56,-0.75 -5.53,6.9 -13.74,11.58 -22.94,11.17 -16.12,-0.72 -30.16,-13.18 -30,-30 0.15,-14.6 0.29,-29.21 0.44,-43.81 0.23,-23.9 25,-35.83 45.14,-25.91 22.16,10.93 36.74,29.97 45.88,52.39 5.93,14.58 -6.44,33.6 -20.96,36.91" /><path
             id="path86"
             style="fill:#a21f26;fill-opacity:1;fill-rule:nonzero;stroke:none"
             d="m 3937.75,4669.24 c -16.25,-0.72 -30,-13.18 -30,-30 v -31.65 c 0,-15.69 13.8,-30.72 30,-30 16.26,0.73 30,13.19 30,30 v 31.65 c 0,15.7 -13.8,30.73 -30,30" /><path
             id="path88"
             style="fill:#a21f26;fill-opacity:1;fill-rule:nonzero;stroke:none"
             d="m 3761.42,4827.49 h -13.56 c -15.7,0 -30.73,-13.8 -30,-30 0.72,-16.25 13.18,-30 30,-30 h 13.56 c 15.69,0 30.73,13.8 30,30 -0.73,16.26 -13.18,30 -30,30" /><path
             id="path90"
             style="fill:#a21f26;fill-opacity:1;fill-rule:nonzero;stroke:none"
             d="m 3999.46,4244.34 c 0.88,13.28 -9.67,27.63 -22.28,30.5 -17.22,3.92 -30.78,-5.26 -36.9,-20.95 -4.29,-10.99 -8.57,-21.97 -12.86,-32.96 -7.02,-17.98 10.91,-38.69 28.93,-37.97 13.39,0.53 26.78,1.07 40.17,1.6 15.66,0.62 30.75,13.35 30,30 -0.66,14.77 -11.79,28.69 -27.06,29.78" /><path
             id="path92"
             style="fill:#a21f26;fill-opacity:1;fill-rule:nonzero;stroke:none"
             d="m 4273.82,4245.06 c -1.92,6.96 -7.3,14.5 -13.79,17.93 -4.52,2.39 -9.66,3.85 -14.83,4 -4.77,10.48 -15.05,18.48 -27.12,17.94 -15.97,-0.72 -30.37,-13.19 -30,-30 l 0.57,-26.42 c 0.3,-13.52 9.16,-25.01 22.03,-28.93 9.84,-3 21.36,-3 31.15,0.29 12.52,4.21 21.11,11.6 28.96,22.07 4.36,5.82 4.86,16.45 3.03,23.12" /><path
             id="path94"
             style="fill:#a21f26;fill-opacity:1;fill-rule:nonzero;stroke:none"
             d="m 4153.38,4633.33 -9.04,9.04 c -11.11,11.11 -31.46,11.94 -42.43,0 -10.99,-11.97 -11.85,-30.57 0,-42.42 3.02,-3.02 6.03,-6.03 9.05,-9.05 11.11,-11.11 31.46,-11.94 42.42,0 11,11.98 11.86,30.57 0,42.43" /><path
             id="path96"
             style="fill:#ffffff;fill-opacity:1;fill-rule:nonzero;stroke:none"
             d="m 3738.93,2755.78 c 0,0 -34.6,-122.4 -86.5,-324.9 -51.9,-202.5 -219.6,-433.6 -219.6,-433.6 -26.1,-17.6 -57.5,-32.6 -93.2,-45.1 -272.2,-95.8 -791.6,-53.1 -1058.2,-2.4 -87.1,16.5 -147.2,33.8 -162.9,47.5 -70.1,60.8 -281.4,758.5 -281.4,758.5 76.4,-21.5 153.1,-39.4 229.5,-54.2 561.6,-109.1 1108.1,-51.2 1416.2,1.2 160.3,27.2 256.1,53 256.1,53" /><path
             id="path98"
             style="fill:#ffffff;fill-opacity:1;fill-rule:nonzero;stroke:none"
             d="m 1855.23,2750.78 c -3.2,-6.2 -6.9,-12.1 -11.3,-17.4 -4.4,14.4 -6.8,22.4 -6.8,22.4 6,-1.7 12.1,-3.4 18.1,-5" /><path
             id="path100"
             style="fill:#ffffff;fill-opacity:1;fill-rule:nonzero;stroke:none"
             d="m 2090.53,2696.98 c -0.8,-1.2 -1.7,-2.4 -2.6,-3.6 -0.8,-1.1 -1.7,-2.3 -2.6,-3.4 1.7,2.3 3.4,4.6 5.1,7 h 0.1" /><path
             id="path102"
             style="fill:#ffffff;fill-opacity:1;fill-rule:nonzero;stroke:none"
             d="m 2765.05,3755.64 c 0,-383.6 -251.4,-694.6 -561.5,-694.6 -305.2,0 -553.5,301.21 -561.3,676.5 -0.1,6.01 -0.2,12 -0.2,18.1 0,116.31 23.1,226 64,322.31 93.9,221.39 281.4,372.4 497.5,372.4 229.6,0 427,-170.51 514,-414.71 29.9,-83.69 46.7,-176.1 47.4,-273.2 0.1,-2.2 0.1,-4.49 0.1,-6.8" /><path
             id="path104"
             style="fill:#ffffff;fill-opacity:1;fill-rule:nonzero;stroke:none"
             d="m 3869.61,3680.04 c 0,-341.89 -226.5,-619 -505.8,-619 -279.4,0 -505.9,277.11 -505.9,619 0,21.91 0.9,43.51 2.7,64.8 9.3,108.51 41.4,208.6 90.3,293.01 91.7,158.09 242.5,261.2 412.9,261.2 183.6,0 344.4,-119.71 433,-298.9 40.5,-81.8 65.9,-176.01 71.5,-276.91 0.9,-14.3 1.3,-28.7 1.3,-43.2" /><path
             id="path106"
             style="fill:#d9933b;fill-opacity:1;fill-rule:nonzero;stroke:none"
             d="m 1551.88,3674.68 c -8.2,-24 -25.5,-44.8 -56.7,-57.6 -125.2,-51.1 -184,64 -294,15.4 -53.4,-23.6 -60.9,-79.2 -72.1,-141.5 -1.1,-6 -2.2,-12 -3.4,-18.1 -8.1,-41.1 -19.7,-84 -48.3,-121.9 l 2.4,-0.2 c -25.2,-31.4 -58.1,-56.5 -92.202,-71.2 -15.801,-6.8 -31.699,-11.4 -47.301,-13.3 -24.898,-3 -48.699,0.7 -68.898,13 -10.399,6.3 -19.801,14.8 -27.899,25.9 -35.601,49 -50.601,150.1 -63.601,259.4 l -0.102,0.5 c -5.597,47.3 -10.898,96.1 -17.297,142.9 v 0.2 c -11.203,81.2 -25.703,156.4 -51.601,207 -10.699,21 -26.399,51.9 -45.602,89.3 -114.797,224.7 -351.199,687.3 -351.199,687.3 35.5,14.3 71.102,28.1 106.801,41.8 2.5,-4.4 377.5,-662.9 425,-831.4 24.199,-85.8 6.898,-449.1 118.5,-459.6 87.101,69.1 101.701,366.9 261.501,330.6 159.8,-36.3 307,-115.4 294.5,75.2 0,0 56.4,-101.4 31.5,-173.7" /><path
             id="path108"
             style="fill:#d9933b;fill-opacity:1;fill-rule:nonzero;stroke:none"
             d="m 420.844,4733.64 0.054,-0.1 c 15.989,6.11 31.957,12.27 47.981,18.24 l -48.035,-18.14" /><path
             id="path110"
             style="fill:#d9933b;fill-opacity:1;fill-rule:nonzero;stroke:none"
             d="m 2119.96,2712.6 c 27.96,-7.9 55.54,-17.2 83.05,-26.85 72.69,142.76 70.63,284.56 50.62,390.16 -9.99,-1.03 -19.97,-1.7 -29.94,-2.14 0.05,-3.43 0.19,-6.85 0.19,-10.29 0,-129.44 -38.28,-249.88 -103.92,-350.88" /><path
             id="path112"
             style="fill:#d9933b;fill-opacity:1;fill-rule:nonzero;stroke:none"
             d="m 2775.08,174.98 -559.1,1152.4 -16.1,33.2 -13.9,28.6 c -20.9,57.1 -65.3,109.1 -68.1,112.2 2.3,-6.4 50.2,-144.2 -63.3,-163.9 -84,30.8 -75.3,229.5 -100.8,304.4 -40.4,118.6 -278.9,636.9 -278.9,636.9 101.26,37.63 185.77,79.69 256.5,124.55 -6.1,30.43 -9.73,61.04 -10.34,91.45 -4.93,4.24 -9.59,8.75 -13.83,13.63 -96.11,-56.94 -208.22,-89.73 -328.03,-89.73 -35.5,0 -70.4,2.9 -104.5,8.4 l -1.1,-4.4 c 0,0 345.1,-730.5 404.7,-983 l 0.1,-0.1 c 1.2,-5.3 2.3,-10.4 3.3,-15.2 3.4,-17 5.3,-31.3 5.3,-42.4 0,-85.7 104.9,-157.4 194.2,-148.8 l 5.1,-9.9 50.1,-98 523.9,-1025.2995 c 44.3,-86.8008 168.5,-86.6016 212.6,0.3985 l 59.4,117.301 c -106.6,-101.602 -157.2,-42.7 -157.2,-42.7" /><path
             id="path114"
             style="fill:#d9933b;fill-opacity:1;fill-rule:nonzero;stroke:none"
             d="m 692.277,4830.58 c 0,0 96.301,-12 273,-23.4 -267.5,-77.2 -472.699,-156.2 -602.297,-211.2 -29.902,58.5 -48.902,95.8 -48.902,95.8 51.402,20.7 103,40.7 154.801,60 h 0.199 c 74,27.7 148.402,53.9 223.199,78.8" /><path
             id="path116"
             style="fill:#d9933b;fill-opacity:1;fill-rule:nonzero;stroke:none"
             d="m 5197.58,4691.78 c 0,0 -20,-39.3 -52.2,-102.8 -1105.5,446.3 -2132.7,516.7 -2961.1,444.1 137.8,66.6 258.8,122.3 366.2,128.1 4.5,0.3 8.9,0.4 13.3,0.5 64,1.9 128.1,2.8 192.1,2.8 829.1,0 1658.3,-157.5 2441.7,-472.7" /><path
             id="path118"
             style="fill:#bb5f2f;fill-opacity:1;fill-rule:nonzero;stroke:none"
             d="m 4504.68,2983.48 c -12.2,-35.2 -45.1,-115.3 -103.9,-158.2 -39.4,-28.8 -90.2,-40.8 -154.2,-11.5 -5.1,2.3 -10.3,4.9 -15.6,7.8 -135.1,73.7 -120,199.5 -92,296.2 l 14.3,34.7 c -1.6,-7.8 -37.8,-191.8 118.8,-247.3 117.3,-41.7 191.7,4 232.6,78.3" /><path
             id="path120"
             style="fill:#bb5f2f;fill-opacity:1;fill-rule:nonzero;stroke:none"
             d="m 780.078,3564.08 9.801,-30.7 c -5.699,15.7 -8.899,27.3 -9.801,30.7" /><path
             id="path122"
             style="fill:#bb5f2f;fill-opacity:1;fill-rule:nonzero;stroke:none"
             d="m 1129.08,3490.98 c -1.1,-6 -2.2,-12 -3.4,-18.1 -8.1,-41.1 -19.7,-84 -48.3,-121.9 l 2.4,-0.2 c -25.2,-31.4 -58.1,-56.5 -92.202,-71.2 -15.801,-6.8 -31.699,-11.4 -47.301,-13.3 -24.898,-3 -48.699,0.7 -68.898,13 l -81.102,253 c 17.903,-48.5 59.5,-135.1 132.203,-149.7 101.8,-20.3 200.2,98.5 200.2,152.8 0,15.1 2.6,-6 6.4,-44.4" /><path
             id="path124"
             style="fill:#bb5f2f;fill-opacity:1;fill-rule:nonzero;stroke:none"
             d="m 2136.38,1125.28 -50.1,98 -5.1,9.9 c -89.3,-8.6 -194.2,63.1 -194.2,148.8 0,11.1 -1.9,25.4 -5.3,42.4 l 31.8,-34.7 c 0,0 63.4,-103.7 156.3,-82.9 93,20.9 101.9,114.5 101.9,114.5 l 28.2,-60.7 3,14.4 c 0,0 8.3,-18.9 13.1,-47.6 8.9,-52.6 6.2,-138.3 -79.6,-202.1" /><path
             id="path126"
             style="fill:#bd2d35;fill-opacity:1;fill-rule:nonzero;stroke:none"
             d="m 2120.11,2712.56 c 26.13,40.2 47.92,83.49 64.67,129.22 -31.85,-46.09 -64.98,-85.91 -98.79,-120.44 11.45,-2.66 22.82,-5.59 34.12,-8.78" /><path
             id="path128"
             style="fill:#bd2d35;fill-opacity:1;fill-rule:nonzero;stroke:none"
             d="m 1877.65,2571.9 c -239.2,-111 -456.07,-35.42 -456.07,-35.42 l -315.2,672 c 152,130.8 103.7,283.8 155.6,324.9 51.8,41.1 88.5,-32 247.2,-25.8 72.74,2.79 115.4,43.39 140.34,86.54 -1,11.22 -1.85,22.44 -2.35,33.62 -1.12,24.96 0.41,50.57 4.11,76.34 -23.69,2.63 -47.72,4.1 -72.1,4.1 -5.6,0 -11.1,-0.1 -16.5,-0.2 h -0.1 c -21.9,-110.4 -135.8,-118.3 -232.5,-79.1 -126.5,51.1 -204.4,-12.2 -204.4,-158.2 0,-101.6 -98.9,-193.8 -185.403,-204.4 155.803,-259.4 408.203,-805.1 408.203,-805.1 40.3,-15.5 82.6,-27 126.2,-34.1 34.1,-5.5 69,-8.4 104.5,-8.4 119.82,0 231.95,32.75 328.06,89.69 -15.09,17.36 -25.51,38.76 -29.59,63.53" /><path
             id="path130"
             style="fill:#bd2d35;fill-opacity:1;fill-rule:nonzero;stroke:none"
             d="m 2881.08,1364.18 c -165.81,131.11 -178.6,371.92 -161.8,545.48 -11.38,0.59 -22.76,1.24 -34.14,1.96 -10.12,0.65 -20.29,1.16 -30.47,1.63 -17.28,-58.21 -26.59,-119.85 -26.59,-183.67 0,-356.1 288.7,-644.8 644.7,-644.8 28.3,0 62.7,-5 95.1,-6.8 47.6,-2.7 91,1.4 104.5,38.3 11.3,30.8 22.9,61.2 34.8,90.9 -168.71,-20.48 -401.66,-20.48 -626.1,157" /><path
             id="path132"
             style="fill:#bd2d35;fill-opacity:1;fill-rule:nonzero;stroke:none"
             d="m 3761.29,4910.55 c -358.66,0 -649.45,-290.79 -649.45,-649.44 0,-4.6 0.26,-9.14 0.35,-13.72 39.66,24.28 82.98,43.33 127.78,56.26 -0.14,5.17 -0.39,10.3 -0.39,15.5 0,315.43 255.75,571.19 571.18,571.19 315.43,0 571.19,-255.76 571.19,-571.19 0,-298.12 -228.5,-542.81 -519.88,-568.77 l -0.35,-1.83 c 10.02,-41.41 15.83,-83.83 18.12,-125.88 302.11,55.7 530.98,320.2 530.98,638.44 0,358.65 -290.79,649.44 -649.53,649.44" /><path
             id="path134"
             style="fill:#bd2d35;fill-opacity:1;fill-rule:nonzero;stroke:none"
             d="m 2550.48,5161.18 c -105.3,-5.7 -223.6,-59.3 -358,-124.2 -449.3,-39.7 -1043.4,-177.8 -1250.902,-228.3 -48.098,-11.7 -75.398,-18.7 -75.398,-18.7 l -21.301,25.9 -41.602,50.5 c 569.403,178.1 1157.403,276.4 1747.203,294.8" /><path
             id="path136"
             style="fill:#fdfbc2;fill-opacity:1;fill-rule:nonzero;stroke:none"
             d="m 1249.97,3789.99 c 0,0 143.37,-57.65 190.04,-43.92 46.67,13.72 49.41,57.65 49.41,57.65 0,0 -56.12,-38.44 -239.45,-13.73" /><path
             id="path138"
             style="fill:#fdfbc2;fill-opacity:1;fill-rule:nonzero;stroke:none"
             d="m 3845.59,3426.14 c -6.99,-18 -14.89,-35.67 -23.59,-52.89 85.93,23.56 148.69,92.73 148.69,92.73 0,0 -55.99,-25.36 -125.1,-39.84" /><path
             id="path140"
             style="fill:#fdfbc2;fill-opacity:1;fill-rule:nonzero;stroke:none"
             d="m 4037.05,2688.78 c 0,0 -242.53,-387.64 -223.09,-431.7 19.44,-44.06 202.49,278.03 223.09,431.7" /><path
             id="path142"
             style="fill:#fdfbc2;fill-opacity:1;fill-rule:nonzero;stroke:none"
             d="m 1801.69,2140.25 c 0,0 125.29,-332.83 172.67,-414.46 47.39,-81.62 -64.29,297.88 -114.26,379.4 -49.98,81.52 -75.52,80 -58.41,35.06" /><path
             id="path144"
             style="fill:#fdfbc2;fill-opacity:1;fill-rule:nonzero;stroke:none"
             d="m 3027.34,674.52 c 0,0 -181.21,-338.61 -172.06,-380.93 9.14,-42.328 114.97,173.152 144.78,230.871 29.82,57.711 123.13,253.949 124.57,269.34 1.44,15.39 -72.89,-23.082 -97.29,-119.281" /><path
             id="path146"
             style="fill:#fdfbc2;fill-opacity:1;fill-rule:nonzero;stroke:none"
             d="m 639.68,4438.92 c 0,0 125.629,-266.26 163.597,-338.4 37.969,-72.15 108.453,-56.92 62.911,50.83 -45.543,107.76 -123.829,247.85 -156.79,305.53 -32.964,57.69 -126.906,102.47 -69.718,-17.96" /><path
             id="path148"
             style="fill:#fdfbc2;fill-opacity:1;fill-rule:nonzero;stroke:none"
             d="m 3124.65,4785.24 c 0,0 -136.48,-143.7 -134.85,-323.1 1.63,-179.4 32.34,-145.03 37.54,-98.68 5.2,46.35 100.77,365.73 183.8,426.56 83.03,60.82 -56.3,32.13 -86.49,-4.78" /><path
             id="path150"
             style="fill:#fdfbc2;fill-opacity:1;fill-rule:nonzero;stroke:none"
             d="m 3003.21,4155.96 c 6.79,7.82 13.68,15.43 20.79,22.54 5.5,5.5 11.17,10.86 16.99,16.1 0.18,36.25 -0.67,116.6 -40.92,54.21 0,0 -24.39,-57.35 0,-89.15 1.06,-1.39 2.1,-2.53 3.14,-3.7" /><path
             id="path152"
             style="fill:#fdfbc2;fill-opacity:1;fill-rule:nonzero;stroke:none"
             d="m 881.008,3999.43 c -16.754,-30.84 -7.692,-112.71 22.336,-123.56 30.031,-10.85 37.836,40.2 36.933,76.24 -0.898,36.03 -33.562,94.65 -59.269,47.32" /><path
             id="path154"
             style="fill:#d9933b;fill-opacity:1;fill-rule:nonzero;stroke:none"
             d="m 3095.08,4236.49 c 8.71,5.83 17.61,11.42 26.71,16.72 -0.21,6.78 -0.51,13.54 -0.51,20.37 0,40.3 3.7,79.7 10.8,118 -18.42,-49.12 -30.92,-101.14 -37,-155.09" /><path
             id="path156"
             style="fill:#d9933b;fill-opacity:1;fill-rule:nonzero;stroke:none"
             d="m 3878.83,3638.8 c 0.59,-7.76 1.11,-15.53 1.46,-23.27 1.34,-29.91 -1.28,-60.76 -6.88,-91.69 286.55,58.15 504.9,303.95 520.77,603.74 -57.87,-249.83 -260.86,-443.87 -515.35,-488.78" /><path
             id="path158"
             style="fill:#d9933b;fill-opacity:1;fill-rule:nonzero;stroke:none"
             d="m 3272.78,1084.78 c -356,0 -644.7,288.7 -644.7,644.8 0,63.82 9.3,125.47 26.6,183.67 -23.82,1.09 -47.78,1.8 -71.81,2.41 -26.68,-73.93 -41.29,-153.64 -41.29,-236.78 0,-385.5 312.5,-698.001 698,-698.001 27.6,0 54.8,1.601 81.5,4.801 l 46.8,92.3 c -32.4,1.8 -66.8,6.8 -95.1,6.8" /><path
             id="path160"
             style="fill:#fdfbc2;fill-opacity:1;fill-rule:nonzero;stroke:none"
             d="m 2282.58,5040.98 c 0,0 -230.9,-166.6 -422.5,-251 -191.5,-84.3 -503.6,-107.1 -731,-76.7 -227.4,30.4 -262.9,76.7 -262.9,76.7 l 4.898,23.9 c 28.199,-2.2 59.699,-4.5 94.199,-6.7 101.303,-6.6 229.103,-13 380.403,-16.8 335.1,-8.4 610,132.1 838.6,242.7 8.8,4.2 17.5,8.4 26.1,12.6 l 72.2,-4.7" /><path
             id="path162"
             style="fill:#b97135;fill-opacity:1;fill-rule:nonzero;stroke:none"
             d="m 5197.58,4691.78 c -783.4,315.2 -1612.6,472.7 -2441.7,472.7 -64,0 -128.1,-0.9 -192.1,-2.8 -4.4,-0.1 -8.8,-0.2 -13.3,-0.5 -628.2,-19.6 -1254.3,-129.8 -1858.203,-330.6 -127.097,-42.3 -253.199,-88.5 -378.199,-138.8 -230.5975,174.2 -330.8007,474.3 -253.7967,752.8 40.5977,16.3 81.2967,32.3 122.0977,47.9 -37.899,-200.9 -34.301,-391.5 131.699,-516.9 125,50.3 251.102,96.5 378.199,138.8 603.903,200.8 1230.003,311 1858.203,330.6 4.5,0.3 8.9,0.4 13.3,0.5 64,1.9 128.1,2.8 192.1,2.8 829.1,0 1658.3,-157.5 2441.7,-472.7 166,125.4 169.6,316 131.7,516.9 40.8,-15.6 81.5,-31.6 122.1,-47.9 77,-278.5 -23.2,-578.6 -253.8,-752.8" /><path
             id="path164"
             style="fill:#b97135;fill-opacity:1;fill-rule:nonzero;stroke:none"
             d="m 5197.58,4691.78 c -783.4,315.2 -1612.6,472.7 -2441.7,472.7 -64,0 -128.1,-0.9 -192.1,-2.8 -4.4,-0.1 -8.8,-0.2 -13.3,-0.5 -628.2,-19.6 -1254.3,-129.8 -1858.203,-330.6 -127.097,-42.3 -253.199,-88.5 -378.199,-138.8 -230.5975,174.2 -330.8007,474.3 -253.7967,752.8 40.5977,16.3 81.2967,32.3 122.0977,47.9 -37.899,-200.9 -34.301,-391.5 131.699,-516.9 125,50.3 251.102,96.5 378.199,138.8 603.903,200.8 1230.003,311 1858.203,330.6 4.5,0.3 8.9,0.4 13.3,0.5 64,1.9 128.1,2.8 192.1,2.8 829.1,0 1658.3,-157.5 2441.7,-472.7 166,125.4 169.6,316 131.7,516.9 40.8,-15.6 81.5,-31.6 122.1,-47.9 77,-278.5 -23.2,-578.6 -253.8,-752.8" /><path
             id="path166"
             style="fill:#9f5825;fill-opacity:1;fill-rule:nonzero;stroke:none"
             d="m 5295.73,4798.39 c -814.89,327.87 -1677.42,491.7 -2539.85,491.7 -66.57,0 -133.25,-0.93 -199.82,-2.91 -4.58,-0.1 -9.15,-0.21 -13.84,-0.52 -653.45,-20.39 -1304.72,-135.02 -1932.892,-343.89 -132.211,-44 -263.379,-92.06 -393.402,-144.38 -13.969,10.55 -27.43,21.59 -40.465,33 38.848,-52.05 85.18,-99.25 138.617,-139.61 125,50.3 251.102,96.5 378.199,138.8 603.903,200.8 1230.003,311 1858.203,330.6 4.5,0.3 8.9,0.4 13.3,0.5 64,1.9 128.1,2.8 192.1,2.8 829.1,0 1658.3,-157.5 2441.7,-472.7 53.43,40.36 99.77,87.56 138.62,139.61 -13.04,-11.41 -26.5,-22.45 -40.47,-33" /><path
             id="path168"
             style="fill:#f8d7ba;fill-opacity:1;fill-rule:nonzero;stroke:none"
             d="m 5476.82,5270.47 c -1.19,58.08 -9.53,116.57 -25.44,174.11 -2.69,1.08 -5.38,2.15 -8.07,3.23 -0.25,0.96 -0.5,1.87 -0.75,2.82 2.94,-1.18 5.92,-2.37 8.86,-3.56 16.14,-58.37 24.44,-117.68 25.4,-176.6" /><path
             id="path170"
             style="fill:#e1b169;fill-opacity:1;fill-rule:nonzero;stroke:none"
             d="m 35.4961,5289.87 c 2.2969,52.52 10.4531,105.23 24.8242,157.2 860.7967,346.31 1767.6997,521.91 2695.5997,521.91 924.63,0 1828.47,-174.39 2686.64,-518.35 0.25,-0.95 0.5,-1.86 0.75,-2.82 -37.92,15.19 -75.94,30.1 -114.03,44.67 v 0 c 8.52,-45.18 14.94,-89.84 17.9,-133.34 -829.65,319.14 -1700.84,480.88 -2591.26,480.88 -890.58,0 -1761.744,-161.73 -2591.44,-480.91 2.95,43.52 9.375,88.18 17.899,133.37 v 0 c -40.801,-15.6 -81.5,-31.6 -122.0977,-47.9 -14.1446,-51.15 -22.3086,-103.02 -24.7852,-154.71" /><path
             id="path172"
             style="fill:#d79b4f;fill-opacity:1;fill-rule:nonzero;stroke:none"
             d="m 5473.97,5193.98 c -3.8,41.54 -11.2,83.07 -22.55,124.14 -34.68,13.95 -69.42,27.62 -104.24,41.02 -2.96,43.5 -9.38,88.16 -17.9,133.34 v 0 c 40.8,-15.6 81.5,-31.6 122.1,-47.9 15.91,-57.54 24.25,-116.03 25.44,-174.11 0.43,-25.6 -0.54,-51.14 -2.85,-76.49 m -5436.2044,0 c -2.8906,31.75 -3.6758,63.78 -2.2695,95.89 2.4766,51.69 10.6406,103.56 24.7852,154.71 40.5977,16.3 81.2967,32.3 122.0977,47.9 v 0 c -8.524,-45.19 -14.949,-89.85 -17.899,-133.37 -34.773,-13.38 -69.5386,-27.06 -104.1597,-40.99 -11.3555,-41.07 -18.7578,-82.6 -22.5547,-124.14" /><path
             id="path174"
             style="fill:#f68c60;fill-opacity:1;fill-rule:nonzero;stroke:none"
             d="m 3606.14,2242 c 56.5,-27.44 113.74,-63.73 171.04,-110.82 -45.07,56.52 -99.5,105.23 -160.88,143.95 -1.98,-11.53 -5.39,-22.64 -10.16,-33.13" /><path
             id="path176"
             style="fill:#f68c60;fill-opacity:1;fill-rule:nonzero;stroke:none"
             d="m 4410.78,4273.58 c 0,-50.2 -5.7,-99.1 -16.6,-146 -43.8,682.2 -632.9,783 -632.9,783 l 36.9,6.9 c 341.1,-16.8 612.6,-298.6 612.6,-643.9" /><path
             id="path178"
             style="fill:#e1dabc;fill-opacity:1;fill-rule:nonzero;stroke:none"
             d="m 2580.88,3246.68 c -99.7,-112.1 -232.1,-180.3 -377.3,-180.3 -305.2,0 -553.5,301.2 -561.3,676.5 -0.1,6 -0.2,12 -0.2,18.1 0,116.3 23.1,226 64,322.3 57.4,135.4 149.9,244.5 262.5,308.7 -48.7,-54.5 -89.6,-119.5 -120.3,-192.1 -40.9,-96.3 -64,-206 -64,-322.3 0,-6.1 0.1,-12.1 0.2,-18.1 7.8,-375.3 256.1,-676.5 561.3,-676.5 83.9,0 163.6,22.8 235.1,63.7" /><path
             id="path180"
             style="fill:#e1dabc;fill-opacity:1;fill-rule:nonzero;stroke:none"
             d="m 3711.98,3236.48 c -90.6,-105.4 -213.3,-170.1 -348.2,-170.1 -257,0 -469.2,234.4 -501.6,538.1 v 0.1 c -2.8,26.4 -4.3,53.4 -4.3,80.8 0,21.9 0.9,43.5 2.7,64.8 5.9,69.1 21.1,134.7 44,195.1 v 0.1 c 13,34.5 28.5,67.2 46.3,97.8 52.2,90 123.5,162.1 206.7,207.6 -23.7,-27.6 -45.4,-58.1 -64.4,-91 -48.9,-84.4 -81,-184.5 -90.3,-293 -1.8,-21.3 -2.7,-42.9 -2.7,-64.8 0,-341.9 226.5,-619 505.9,-619 73.4,0 143,19.1 205.9,53.5" /><path
             id="path182"
             style="fill:#a21f26;fill-opacity:1;fill-rule:nonzero;stroke:none"
             d="m 3799.48,4945.38 h -0.06 c -11.86,0.56 -22.78,0.83 -33.37,0.83 -369.28,0 -669.7,-300.42 -669.7,-669.7 0,-5.96 0.2,-11.88 0.4,-17.79 l 1.41,-42.83 34.69,16.94 c 65.81,32.12 136.67,49.1 204.91,49.1 105.09,0 202.4,-36.2 280.6,-98.16 1.03,-0.61 2.08,-1.16 3.1,-1.79 107.34,-66.36 186.77,-163.82 221.54,-285.7 -46.55,253.49 -256.23,435.65 -505.24,435.65 -63.53,0 -128.93,-13.16 -191.18,-38.29 9.12,333.81 283.5,602.57 619.47,602.57 9.79,0 19.92,-0.25 30.97,-0.77 330.18,-16.26 588.82,-288.13 588.82,-618.93 0,-47.58 -5.36,-94.8 -15.95,-140.36 -54.36,-234.7 -245.38,-418.91 -480.25,-466.68 -0.04,1.92 -0.09,3.82 -0.17,5.7 l -17.68,132.48 -0.7,3.42 c -5.83,20.76 -13.3,41.77 -22.11,62.61 20.03,-84.41 20.05,-172.33 19.81,-258.69 267.81,41.25 488.7,246.03 549.81,509.87 11.44,49.24 17.24,100.26 17.24,151.65 0,357.5 -279.52,651.3 -636.36,668.87" /><path
             id="path184"
             style="fill:#a21f26;fill-opacity:1;fill-rule:nonzero;stroke:none"
             d="m 3866.69,2020.85 c -0.31,7.08 -0.19,14.09 0.25,21.04 -19.78,37.93 -43.31,74.21 -70.15,107.81 -50.72,63.6 -111.44,116.24 -178.9,156.88 0.21,-3.07 0.48,-6.12 0.48,-9.23 0,-15.63 -2.95,-30.76 -8.08,-44.99 55.18,-35.91 105.08,-80.75 147.43,-133.85 25.66,-32.14 48.13,-66.86 66.8,-103.24 13.36,-25.96 25,-53.31 34.68,-81.47 -38.84,-57.35 -227.14,-343.56 -375.16,-714.39 -11.53,-28.76 -23.32,-59.58 -35.07,-91.61 -4.69,-12.81 -17.83,-25.44 -79.64,-21.93 -12.66,0.71 -25.99,1.95 -38.88,3.15 -19.47,1.82 -39.6,3.69 -57.6,3.69 -341.71,0 -619.71,278.04 -619.71,619.8 0,61.66 9.01,121.89 26.37,179.43 -17.07,1.02 -34.23,1.78 -51.46,2.38 -16.44,-58.51 -24.91,-119.5 -24.91,-181.81 0,-369.33 300.43,-669.8 669.71,-669.8 15.68,0 33.78,-1.69 52.96,-3.48 13.36,-1.23 27.16,-2.52 40.72,-3.28 6.56,-0.37 14.91,-0.84 24.24,-0.84 15.94,0 34.74,1.39 52.32,7.03 4.49,4.63 9.22,9.08 14.3,13.2 10.69,8.65 19.48,19.19 29.37,28.48 2.55,3.59 5.11,7.18 7.44,10.87 2.88,4.54 5.58,9.18 8.34,13.78 9.37,25.14 18.74,49.44 27.92,72.38 61.36,153.7 129.64,292.49 191.06,406.08 51.57,107.81 107.4,213.44 169.41,315.98 -14.13,30 -22.68,63.2 -24.24,97.94" /><path
             id="path186"
             style="fill:#a21f26;fill-opacity:1;fill-rule:nonzero;stroke:none"
             d="m 1921.03,2494.93 c -11.93,10.31 -22.08,22.45 -29.67,36.45 -93.78,-54.65 -201.45,-84.77 -312.11,-84.77 -33.45,0 -67.27,2.72 -100.49,8.07 -29.43,4.8 -58.49,11.79 -86.82,20.77 22.3,-21.45 44.19,-43.76 64.15,-67.34 4.9,-0.91 9.76,-1.98 14.68,-2.78 35.88,-5.78 72.37,-8.72 108.48,-8.72 121.4,0 239.43,33.6 341.84,94.37 -0.04,1.32 -0.03,2.63 -0.06,3.95" /><path
             id="path188"
             style="fill:#a21f26;fill-opacity:1;fill-rule:nonzero;stroke:none"
             d="m 2197.09,3035.25 h 1 c -3.08,-62.53 -15.39,-123.62 -36.72,-181.94 -17.29,-47.23 -40.28,-92.07 -68.38,-133.65 17.01,-4.14 33.87,-8.86 50.59,-14.05 26.24,40.98 47.98,84.7 64.75,130.52 26.25,71.81 39.88,147.45 40.5,224.8 l 0.13,16.57 c -1.95,-0.16 -3.91,-0.36 -5.86,-0.47 -281.21,-15.99 -515.91,201.21 -588.29,460.97 12.34,-63.68 36.47,-126.05 70.91,-181.67 82.69,-198.11 263.12,-321.08 471.37,-321.08" /><path
             id="path190"
             style="fill:#a21f26;fill-opacity:1;fill-rule:nonzero;stroke:none"
             d="m 922.031,3285.73 c 93.119,-186.22 187.759,-371.33 291.529,-551.89 25.78,-44.87 51.8,-89.61 78.76,-133.79 13.7,-22.45 27.59,-44.8 41.84,-66.9 1.43,-2.49 2.99,-4.91 4.5,-7.35 0.7,-0.81 1.24,-1.4 2.04,-2.32 4.51,-4.19 9.07,-8.41 13.64,-12.65 -56.62,120.82 -243.84,515.97 -375.102,741.69 86.942,28.46 171.512,118.57 171.512,221.09 0,66.49 17.65,115.01 49.7,136.63 36.02,24.28 85.32,12.54 120.31,-1.6 73.58,-29.84 144.85,-31.26 195.51,-3.91 31.66,17.09 54.13,44.99 65.77,81.38 16.41,-0.08 33.16,-1.04 50.02,-2.5 -0.56,16.69 -0.38,33.41 0.5,50.11 -23.72,1.87 -47.2,2.62 -69.91,2.19 h -20.53 l -3.99,-20.13 c -6.26,-31.54 -21.61,-54.09 -45.61,-67.05 -36.94,-19.94 -94.14,-17.6 -153.01,6.26 -83.83,33.87 -137.08,16.89 -167.02,-3.3 -46.93,-31.66 -71.74,-93.24 -71.74,-178.08 0,-88.38 -89.42,-170.51 -163.445,-179.59 l -18.532,-2.27 c 1.098,-2 2.235,-3.97 3.258,-6.02" /><path
             id="path192"
             style="fill:#bb5f2f;fill-opacity:1;fill-rule:nonzero;stroke:none"
             d="m 4129.58,2959.88 c 0,125.4 97.84,369.36 -13.36,421.36 -7.25,3.4 6.89,-1.62 0,0 38.03,-60.17 -38.26,-228.76 -38.26,-228.76 v -0.01 c -7.37,-22.01 -16.59,-48.94 -27.18,-82.6 -34.6,-109.9 -17.3,-300.79 138.7,-368.79 l 57.1,112.7 2.6,5.1 c 15.2,-5.1 30.6,-8.5 46,-10.4 -48.9,12.4 -165.6,52.4 -165.6,151.4" /><path
             id="path194"
             style="fill:#d9933b;fill-opacity:1;fill-rule:nonzero;stroke:none"
             d="m 4536.58,3248.58 c -24.2,7.9 -39.1,6.1 -37.9,-11.4 5.5,-81.3 -88.6,-290.8 -163,-290.8 -74.5,0 -123.1,63 -77.3,157.4 8.33,17.2 15.69,38.5 21.11,62 16.31,233.14 -163.27,215.46 -163.27,215.46 51.74,-13.75 65.33,-104 56.86,-153.06 -4.1,-24 -20.6,-63.8 -34.1,-110.4 -28,-96.7 -43.1,-222.5 92,-296.2 5.3,-2.9 10.5,-5.5 15.6,-7.8 64,-29.3 114.8,-17.3 154.2,11.5 58.8,42.9 91.7,123 103.9,158.2 3.1,8.9 4.8,14.9 5.3,16.7 l 0.1,0.5 c 3.5,23.5 5.1,49.3 4.5,77.6 -0.9,46.5 7.9,106.5 22,170.3" /><path
             id="path196"
             style="fill:#e1dabc;fill-opacity:1;fill-rule:nonzero;stroke:none"
             d="m 2580.85,3237.88 c -99.7,-112.1 -232.1,-180.3 -377.3,-180.3 -305.2,0 -553.5,301.2 -561.3,676.5 -0.1,6 -0.2,12 -0.2,18.1 0,116.3 23.1,226 64,322.3 57.4,135.4 149.9,244.5 262.5,308.7 -48.7,-54.5 -89.6,-119.5 -120.3,-192.1 -40.9,-96.3 -64,-206 -64,-322.3 0,-6.1 0.1,-12.1 0.2,-18.1 7.8,-375.3 256.1,-676.5 561.3,-676.5 83.9,0 163.6,22.8 235.1,63.7" /><path
             id="path198"
             style="fill:#e1dabc;fill-opacity:1;fill-rule:nonzero;stroke:none"
             d="m 3711.95,3227.68 c -90.6,-105.4 -213.3,-170.1 -348.2,-170.1 -257,0 -469.2,234.4 -501.6,538.1 v 0.1 c -2.8,26.4 -4.3,53.4 -4.3,80.8 0,21.9 0.9,43.5 2.7,64.8 5.9,69.1 21.1,134.7 44,195.1 v 0.1 c 13,34.5 28.5,67.2 46.3,97.8 52.2,90 123.5,162.1 206.7,207.6 -23.7,-27.6 -45.4,-58.1 -64.4,-91 -48.9,-84.4 -81,-184.5 -90.3,-293 -1.8,-21.3 -2.7,-42.9 -2.7,-64.8 0,-341.9 226.5,-619 505.9,-619 73.4,0 143,19.1 205.9,53.5" /><path
             id="path200"
             style="fill:#d3d4d3;fill-opacity:1;fill-rule:nonzero;stroke:none"
             d="m 2066.63,2701.58 c 24.9,-168.9 88.9,-520.1 214.8,-751.8 -87.1,16.5 -147.2,33.8 -162.9,47.5 -70.1,60.8 -281.4,758.5 -281.4,758.5 76.4,-21.5 153.1,-39.4 229.5,-54.2" /><path
             id="path202"
             style="fill:#d3d4d3;fill-opacity:1;fill-rule:nonzero;stroke:none"
             d="m 3738.93,2755.78 c 0,0 -34.6,-122.4 -86.5,-324.9 -51.9,-202.5 -219.6,-433.6 -219.6,-433.6 -26.1,-17.6 -57.5,-32.6 -93.2,-45.1 45.9,171.4 131.7,517.1 143.2,750.6 160.3,27.2 256.1,53 256.1,53" /><path
             id="path204"
             style="fill:#c22c2c;fill-opacity:1;fill-rule:nonzero;stroke:none"
             d="m 3019.63,1506.9 c -23,4.6 -53.83,9.66 -91.46,13.34 1.83,3.77 2.74,7.86 2.24,11.95 -1.15,9.3 -2.29,18.61 -3.43,27.91 -1.01,8.24 -2.68,15.1 -8.79,21.21 -4.99,5 -13.06,8.81 -20.31,8.81 -0.3,0 -0.6,-0.01 -0.9,-0.02 -3.73,-0.17 -7.5,-0.88 -11.04,-2.19 -3.3,1.05 -6.74,1.57 -10.16,1.57 -10.75,0 -21.35,-5.15 -27.33,-15.37 -9.1,-15.55 -3.12,-34.35 9.82,-45.47 1.54,-1.33 3.09,-2.65 4.64,-3.97 -14.56,0.57 -29.81,0.88 -45.68,0.88 -17.6,0 -35.98,-0.39 -55.11,-1.25 -12,28.41 -21.35,58.05 -28.48,88.23 21.65,5.15 44.72,8.2 69.03,8.2 67.9,0 145.37,-23.78 227.97,-92.12 -5.09,-6.07 -9.58,-13.75 -11.01,-21.71" /><path
             id="path206"
             style="fill:#c4634b;fill-opacity:1;fill-rule:nonzero;stroke:none"
             d="m 3067.63,1495.28 c 0,0 -16.84,5.39 -48,11.62 1.43,7.96 5.92,15.64 11.01,21.71 12.22,-10.11 24.56,-21.2 36.99,-33.33" /><path
             id="path208"
             style="fill:#7d161a;fill-opacity:1;fill-rule:nonzero;stroke:none"
             d="m 2928.17,1520.24 c -19.9,1.95 -41.69,3.52 -65.26,4.43 -1.55,1.32 -3.1,2.64 -4.64,3.97 -12.94,11.12 -18.92,29.92 -9.82,45.47 5.98,10.22 16.58,15.37 27.33,15.37 3.42,0 6.86,-0.52 10.16,-1.57 3.54,1.31 7.31,2.02 11.04,2.19 0.3,0.01 0.6,0.02 0.9,0.02 7.25,0 15.32,-3.81 20.31,-8.81 6.11,-6.11 7.78,-12.97 8.79,-21.21 1.14,-9.3 2.28,-18.61 3.43,-27.91 0.5,-4.09 -0.41,-8.18 -2.24,-11.95" /><path
             id="path210"
             style="fill:#971c1f;fill-opacity:1;fill-rule:nonzero;stroke:none"
             d="m 2691,1519.1 c -8.47,23.04 -15.62,46.75 -21.34,70.97 19.52,9.1 40.94,16.97 63.98,22.46 7.13,-30.18 16.48,-59.82 28.48,-88.23 -22.69,-1.02 -46.44,-2.7 -71.12,-5.2" /><path
             id="path212"
             style="fill:#d1ac39;fill-opacity:1;fill-rule:nonzero;stroke:none"
             d="m 2541.58,1495.28 c 0,0 6.72,8.01 19.28,19.99 1.22,-5.09 2.49,-10.14 3.82,-15.18 -7.64,-1.52 -15.34,-3.12 -23.1,-4.81" /><path
             id="path214"
             style="fill:#b47420;fill-opacity:1;fill-rule:nonzero;stroke:none"
             d="m 2564.68,1500.09 c -1.33,5.04 -2.6,10.09 -3.82,15.18 14.15,13.49 35.74,32.03 63.47,49.79 4.56,-17.66 9.83,-35.06 15.77,-52.13 -24.37,-3.43 -49.52,-7.67 -75.42,-12.84" /><path
             id="path216"
             style="fill:#7d161a;fill-opacity:1;fill-rule:nonzero;stroke:none"
             d="m 2640.1,1512.93 c -5.94,17.07 -11.21,34.47 -15.77,52.13 13.66,8.76 28.82,17.32 45.33,25.01 5.72,-24.22 12.87,-47.93 21.34,-70.97 -16.55,-1.68 -33.51,-3.72 -50.9,-6.17" /><path
             id="path218"
             style="fill:#211c1d;fill-opacity:1;fill-rule:nonzero;stroke:none"
             d="m 2413.88,4399.99 c -0.2,0.09 -0.38,0.17 -0.58,0.26 -64.81,32.31 -135.59,50.1 -209.75,50.1 -45.31,0 -89.37,-6.65 -131.56,-19.18 -0.15,-0.03 -0.28,-0.05 -0.42,-0.08 42.32,12.61 86.51,19.29 131.96,19.29 74.38,0 145.38,-17.89 210.35,-50.39" /><path
             id="path220"
             style="fill:#d1ac39;fill-opacity:1;fill-rule:nonzero;stroke:none"
             d="m 1632.56,3825.71 c 0,0 -120.76,735.73 229.75,887.57 93.94,40.69 195.34,68 295.34,68 273.13,0 535.79,-203.69 607.4,-894.68 0,0 -63.09,381.31 -351.17,513.39 -64.97,32.5 -135.97,50.39 -210.35,50.39 -45.45,0 -89.64,-6.68 -131.96,-19.29 -144.79,-29.77 -224.59,-103.49 -275.79,-192.62 -35.35,-46.18 -65.61,-98.37 -89.7,-155.19 -30.58,-72 -51.21,-151.49 -59.67,-235.62 -4.37,-7.58 -8.98,-14.91 -13.85,-21.95" /><path
             id="path222"
             style="fill:#dee3df;fill-opacity:1;fill-rule:nonzero;stroke:none"
             d="m 2413.3,4400.25 c -60.2,27.5 -130.23,44.11 -211.52,44.11 -21.37,0 -43.44,-1.14 -66.4,-3.54 -22.43,-2.34 -43.51,-5.58 -63.39,-9.65 42.19,12.53 86.25,19.18 131.56,19.18 74.16,0 144.94,-17.79 209.75,-50.1" /><path
             id="path224"
             style="fill:#bbb89a;fill-opacity:1;fill-rule:nonzero;stroke:none"
             d="m 1646.41,3847.66 c 8.46,84.13 29.09,163.62 59.67,235.62 24.09,56.82 54.35,109.01 89.7,155.19 -5.93,-10.32 -11.5,-20.89 -16.72,-31.58 -28.25,-40.34 -52.81,-84.74 -73.01,-132.41 -29.28,-68.92 -49.43,-144.71 -58.52,-224.87 -0.37,-0.65 -0.75,-1.31 -1.12,-1.95" /><path
             id="path226"
             style="fill:#bbb89a;fill-opacity:1;fill-rule:nonzero;stroke:none"
             d="m 1647.53,3849.61 c 9.09,80.16 29.24,155.95 58.52,224.87 20.2,47.67 44.76,92.07 73.01,132.41 -58.33,-119.5 -75.83,-259.22 -131.53,-357.28" /><path
             id="path228"
             style="fill:#211c1d;fill-opacity:1;fill-rule:nonzero;stroke:none"
             d="m 3865.86,3755.22 c -8.73,88.84 -32.86,171.83 -69.05,244.93 -5.16,10.44 -10.57,20.67 -16.21,30.7 0.08,-0.12 0.15,-0.23 0.23,-0.35 5.56,-9.9 10.9,-20.01 16,-30.32 36.1,-72.91 60.2,-155.68 68.98,-244.25 0.01,-0.24 0.03,-0.47 0.05,-0.71" /><path
             id="path230"
             style="fill:#d1ac39;fill-opacity:1;fill-rule:nonzero;stroke:none"
             d="m 3868.79,3614.99 c 0,0 -0.16,5.39 -0.8,15.21 0.33,5.03 0.61,10.08 0.84,15.15 0.01,-10.14 -0.01,-20.26 -0.04,-30.36 v 0 m -964.93,328.38 c -4.65,50.22 -27.86,364.02 92.5,591.09 -4.35,-23.23 -6.79,-47.43 -6.56,-72.32 0.94,-103.41 11.54,-135.79 21.35,-135.8 7.21,0 13.99,17.49 16.19,37.12 3.94,35.05 59.53,226.2 122.31,343.64 45.25,29.02 98.49,50.03 161.08,60.1 -131.79,-122.39 -214.38,-297.08 -214.38,-490.69 0,-5.96 0.2,-11.88 0.4,-17.79 l 0.23,-6.94 c -0.69,-5.08 -1.33,-10.18 -1.9,-15.29 0.78,0.52 1.56,1.05 2.35,1.57 l 0.09,-2.7 c -126.19,-83.9 -173.71,-223.38 -187.89,-276.97 -1.72,-4.31 -3.4,-8.65 -5.05,-13.01 v -0.1 c -0.24,-0.64 -0.48,-1.27 -0.72,-1.91 m 120.57,328.45 c -5.84,0 -13.73,-6.52 -24.36,-23.01 0,0 -24.39,-57.35 0,-89.15 1.06,-1.39 2.1,-2.53 3.14,-3.7 6.79,7.82 13.68,15.43 20.79,22.54 5.5,5.5 11.17,10.86 16.99,16.1 0.13,26.67 -0.3,77.22 -16.56,77.22" /><path
             id="path232"
             style="fill:#c22c2c;fill-opacity:1;fill-rule:nonzero;stroke:none"
             d="m 3879.2,3752.16 -7.41,55.49 -0.7,3.42 c -5.83,20.76 -13.3,41.77 -22.11,62.61 9.18,-38.67 14.15,-78.09 16.83,-117.75 -8.78,88.57 -32.88,171.34 -68.98,244.25 -5.1,10.31 -10.44,20.42 -16,30.32 27.17,-40.54 48.25,-85.42 62.17,-134.22 v 0 c -15.24,83.02 -47.98,158.39 -93.88,222.21 15.39,17.55 26.54,38.59 33.41,60.89 7,22.5 -8.2,50.1 -31.4,55.4 -3.76,0.85 -7.5,1.27 -11.16,1.27 -11.32,0 -21.9,-3.97 -30.14,-11.07 -11,-2.8 -21,-9.8 -27.9,-20.5 -1.27,-1.96 -2.5,-3.95 -3.69,-5.96 -79.15,72.79 -179.8,119.9 -290.32,130.92 5.4,1.23 10.38,3.46 14.87,6.52 3.54,-0.84 7.1,-1.47 10.58,-1.63 0.76,-0.03 1.52,-0.05 2.27,-0.05 23.44,0 44.94,16.2 51.57,38.72 6.3,21.38 -0.99,45.67 -17.63,60.44 -14.32,12.7 -31.8,17.73 -50.24,17.73 -2.73,0 -5.48,-0.11 -8.25,-0.32 -21.65,-1.66 -35.81,-13.16 -43.39,-33.04 -4.17,-10.93 -8.34,-21.86 -12.51,-32.8 -7.7,-20.2 6.53,-45.64 26.01,-53.62 -7.78,0.35 -15.58,0.54 -23.44,0.54 -32.46,0 -65.41,-3.44 -98.18,-10.15 0.84,186.92 91.49,352.63 231,456.24 282.89,-4.32 460.14,-150.18 479.89,-509.25 -4.36,-3.74 -7.83,-8.83 -10.19,-14.88 -4.29,-10.99 -8.57,-21.97 -12.86,-32.96 -6.48,-16.6 8.31,-35.53 24.8,-37.77 -1.39,-121.09 -18.23,-263.13 -52,-428.09 -6.97,-1.1 -13.97,-2.07 -21.02,-2.91 m -220.3,608.25 c 6.53,-5.13 12.55,-8.79 21.21,-8.79 7.36,0 16.15,3.27 21.22,8.79 9.9,10.79 13.18,32.08 0,42.42 -15.07,11.82 -31.18,18.04 -49.05,18.04 -5.28,0 -10.72,-0.54 -16.33,-1.64 -15.43,-3.04 -25.68,-22.29 -20.95,-36.91 4.51,-13.95 16.08,-21.68 29.6,-21.68 2.39,0 4.83,0.24 7.3,0.73 l 0.27,0.06 0.74,-0.13 1.99,-0.1 0.13,-0.04 c 0.61,-0.25 3.32,-1.42 4.46,-1.77 0.94,-0.65 1.92,-1.27 2.07,-1.27 0.14,0 -0.48,0.58 -2.66,2.29 m -190.25,290.78 c -0.37,0 -0.74,-0.01 -1.12,-0.03 -16.12,-0.72 -30.16,-13.18 -30,-30 0.15,-14.6 0.29,-29.21 0.44,-43.81 0.18,-18.16 14.52,-29.41 30.23,-29.41 4.97,0 10.07,1.12 14.91,3.5 22.16,10.93 36.74,29.97 45.88,52.39 5.93,14.58 -6.44,33.6 -20.96,36.91 -2.7,0.61 -5.31,0.91 -7.79,0.91 -3.49,0 -6.75,-0.58 -9.77,-1.66 -5.31,6.62 -13.08,11.2 -21.82,11.2 m 236.25,23.63 c -11.28,0 -22.53,-2.83 -32.16,-8.89 -9.78,-6.15 -17.57,-15.62 -20.68,-26.89 -2.96,-10.77 -1.62,-25.11 4.54,-34.67 8.71,-13.51 24.1,-22.07 39.74,-22.15 4.75,-3.27 9.97,-5.79 14.44,-7.02 3.64,-1 7.68,-1.51 11.81,-1.51 8.1,0 16.53,1.96 22.86,6.05 9.61,6.19 18.07,15.42 20.68,26.89 l 1.61,11.96 c -0.02,8.13 -2.07,15.7 -6.14,22.72 -6.46,15.01 -23.17,26.9 -38.62,31.09 -5.86,1.59 -11.98,2.42 -18.08,2.42" /><path
             id="path234"
             style="fill:#c4634b;fill-opacity:1;fill-rule:nonzero;stroke:none"
             d="m 3387.92,4329.44 c -8.85,0.88 -17.76,1.53 -26.72,1.95 -19.48,7.98 -33.71,33.42 -26.01,53.62 4.17,10.94 8.34,21.87 12.51,32.8 7.58,19.88 21.74,31.38 43.39,33.04 2.77,0.21 5.52,0.32 8.25,0.32 18.44,0 35.92,-5.03 50.24,-17.73 16.64,-14.77 23.93,-39.06 17.63,-60.44 -6.63,-22.52 -28.13,-38.72 -51.57,-38.72 -0.75,0 -1.51,0.02 -2.27,0.05 -3.48,0.16 -7.04,0.79 -10.58,1.63 -4.49,-3.06 -9.47,-5.29 -14.87,-6.52" /><path
             id="path236"
             style="fill:#c4634b;fill-opacity:1;fill-rule:nonzero;stroke:none"
             d="m 3749.12,4118.49 c -21,29.22 -44.78,56.02 -70.88,80.03 1.19,2.01 2.42,4 3.69,5.96 6.9,10.7 16.9,17.7 27.9,20.5 8.24,7.1 18.82,11.07 30.14,11.07 3.66,0 7.4,-0.42 11.16,-1.27 23.2,-5.3 38.4,-32.9 31.4,-55.4 -6.87,-22.3 -18.02,-43.34 -33.41,-60.89" /><path
             id="path238"
             style="fill:#c4634b;fill-opacity:1;fill-rule:nonzero;stroke:none"
             d="m 3722.59,4573.69 c -4.13,0 -8.17,0.51 -11.81,1.51 -4.47,1.23 -9.69,3.75 -14.44,7.02 -15.64,0.08 -31.03,8.64 -39.74,22.15 -6.16,9.56 -7.5,23.9 -4.54,34.67 3.11,11.27 10.9,20.74 20.68,26.89 9.63,6.06 20.88,8.89 32.16,8.89 6.1,0 12.22,-0.83 18.08,-2.42 15.45,-4.19 32.16,-16.08 38.62,-31.09 4.07,-7.02 6.12,-14.59 6.14,-22.72 l -1.61,-11.96 c -2.61,-11.47 -11.07,-20.7 -20.68,-26.89 -6.33,-4.09 -14.76,-6.05 -22.86,-6.05" /><path
             id="path240"
             style="fill:#7d161a;fill-opacity:1;fill-rule:nonzero;stroke:none"
             d="m 3680.11,4351.62 c -8.66,0 -14.68,3.66 -21.21,8.79 2.18,-1.71 2.8,-2.29 2.66,-2.29 -0.15,0 -1.13,0.62 -2.07,1.27 -1.14,0.35 -3.85,1.52 -4.46,1.77 l -0.13,0.04 -1.99,0.1 -0.74,0.13 -0.27,-0.06 c -2.47,-0.49 -4.91,-0.73 -7.3,-0.73 -13.52,0 -25.09,7.73 -29.6,21.68 -4.73,14.62 5.52,33.87 20.95,36.91 5.61,1.1 11.05,1.64 16.33,1.64 17.87,0 33.98,-6.22 49.05,-18.04 13.18,-10.34 9.9,-31.63 0,-42.42 -5.07,-5.52 -13.86,-8.79 -21.22,-8.79" /><path
             id="path242"
             style="fill:#7d161a;fill-opacity:1;fill-rule:nonzero;stroke:none"
             d="m 3468.2,4547.94 c -15.71,0 -30.05,11.25 -30.23,29.41 -0.15,14.6 -0.29,29.21 -0.44,43.81 -0.16,16.82 13.88,29.28 30,30 0.38,0.02 0.75,0.03 1.12,0.03 8.74,0 16.51,-4.58 21.82,-11.2 3.02,1.08 6.28,1.66 9.77,1.66 2.48,0 5.09,-0.3 7.79,-0.91 14.52,-3.31 26.89,-22.33 20.96,-36.91 -9.14,-22.42 -23.72,-41.46 -45.88,-52.39 -4.84,-2.38 -9.94,-3.5 -14.91,-3.5" /><path
             id="path244"
             style="fill:#7d161a;fill-opacity:1;fill-rule:nonzero;stroke:none"
             d="m 3952.22,4183.16 c -16.49,2.24 -31.28,21.17 -24.8,37.77 4.29,10.99 8.57,21.97 12.86,32.96 2.36,6.05 5.83,11.14 10.19,14.88 1.51,-27.3 2.09,-55.81 1.75,-85.61" /><path
             id="path246"
             style="fill:#dee3df;fill-opacity:1;fill-rule:nonzero;stroke:none"
             d="m 3867.99,3630.2 c -4.03,62.28 -27.31,302.89 -152.01,478.16 24.2,-23.68 45.85,-49.56 64.62,-77.51 5.64,-10.03 11.05,-20.26 16.21,-30.7 36.19,-73.1 60.32,-156.09 69.05,-244.93 0.09,-1.48 0.19,-2.98 0.28,-4.47 -1.34,-0.13 -2.72,-0.25 -4.07,-0.37 l -0.35,-1.83 c 2.15,-8.86 4.1,-17.77 5.86,-26.71 0.97,-25.5 1.22,-51.04 1.25,-76.49 -0.23,-5.07 -0.51,-10.12 -0.84,-15.15" /><path
             id="path248"
             style="fill:#971c1f;fill-opacity:1;fill-rule:nonzero;stroke:none"
             d="m 3887.04,3693.39 -7.84,58.77 c 7.05,0.84 14.05,1.81 21.02,2.91 -4.14,-20.24 -8.52,-40.74 -13.18,-61.68 m -19.46,28.45 c -1.76,8.94 -3.71,17.85 -5.86,26.71 l 0.35,1.83 c 1.35,0.12 2.73,0.24 4.07,0.37 0.61,-9.63 1.08,-19.26 1.44,-28.91 m -721,571.8 c 5.41,197.93 104.06,372.99 253.54,482.71 19.53,1.17 38.64,1.77 57.29,1.77 4.41,0 8.82,-0.03 13.17,-0.1 -139.51,-103.61 -230.16,-269.32 -231,-456.24 -31.36,-6.43 -62.56,-15.85 -93,-28.14" /><path
             id="path250"
             style="fill:#dadd9e;fill-opacity:1;fill-rule:nonzero;stroke:none"
             d="m 3011.15,4326.34 c -9.81,0.01 -20.41,32.39 -21.35,135.8 -0.23,24.89 2.21,49.09 6.56,72.32 36.44,68.74 86.04,129.51 153.29,172.64 -62.78,-117.44 -118.37,-308.59 -122.31,-343.64 -2.2,-19.63 -8.98,-37.12 -16.19,-37.12" /><path
             id="path252"
             style="fill:#dadd9e;fill-opacity:1;fill-rule:nonzero;stroke:none"
             d="m 3003.21,4155.96 c -1.04,1.17 -2.08,2.31 -3.14,3.7 -24.39,31.8 0,89.15 0,89.15 10.63,16.49 18.52,23.01 24.36,23.01 16.26,0 16.69,-50.55 16.56,-77.22 -5.82,-5.24 -11.49,-10.6 -16.99,-16.1 -7.11,-7.11 -14,-14.72 -20.79,-22.54" /><path
             id="path254"
             style="fill:#b47420;fill-opacity:1;fill-rule:nonzero;stroke:none"
             d="m 3095.08,4236.49 c 0.57,5.11 1.21,10.21 1.9,15.29 l 0.45,-13.72 c -0.79,-0.52 -1.57,-1.05 -2.35,-1.57" /><path
             id="path256"
             style="fill:#bbb89a;fill-opacity:1;fill-rule:nonzero;stroke:none"
             d="m 2904.55,3936.48 c 0,0 -0.27,2.38 -0.69,6.89 0.24,0.64 0.48,1.27 0.72,1.91 v 0.1 c 1.65,4.36 3.33,8.7 5.05,13.01 -3.32,-12.57 -4.81,-20.42 -5.05,-21.72 -0.01,-0.03 -0.02,-0.06 -0.03,-0.09 v -0.1" /><path
             id="path258"
             style="fill:#7d161a;fill-opacity:1;fill-rule:nonzero;stroke:none"
             d="m 3868.79,3614.99 c 0.03,10.1 0.05,20.22 0.04,30.36 -0.03,25.45 -0.28,50.99 -1.25,76.49 -0.36,9.65 -0.83,19.28 -1.44,28.91 -0.09,1.49 -0.19,2.99 -0.28,4.47 -0.02,0.24 -0.04,0.47 -0.05,0.71 -2.68,39.66 -7.65,79.08 -16.83,117.75 8.81,-20.84 16.28,-41.85 22.11,-62.61 l 0.7,-3.42 7.41,-55.49 7.84,-58.77 c -5.69,-25.59 -11.78,-51.75 -18.25,-78.4 v 0 M 3843,3896.28 c -13.92,48.8 -35,93.68 -62.17,134.22 -0.08,0.12 -0.15,0.23 -0.23,0.35 -18.77,27.95 -40.42,53.83 -64.62,77.51 -66.94,94.09 -163.13,169.37 -301.23,188.07 -28.68,3.88 -55.81,5.7 -81.44,5.7 -99.27,0 -176.28,-27.2 -235.79,-66.77 l -0.09,2.7 -0.45,13.72 -0.23,6.94 c -0.2,5.91 -0.4,11.83 -0.4,17.79 0,193.61 82.59,368.3 214.38,490.69 6.25,1 12.56,1.89 19,2.68 24.02,2.92 47.52,5.09 70.39,6.47 -149.48,-109.72 -248.13,-284.78 -253.54,-482.71 30.44,12.29 61.64,21.71 93,28.14 32.77,6.71 65.72,10.15 98.18,10.15 7.86,0 15.66,-0.19 23.44,-0.54 8.96,-0.42 17.87,-1.07 26.72,-1.95 110.52,-11.02 211.17,-58.13 290.32,-130.92 26.1,-24.01 49.88,-50.81 70.88,-80.03 45.9,-63.82 78.64,-139.19 93.88,-222.21" /><path
             id="path260"
             style="fill:#bbb89a;fill-opacity:1;fill-rule:nonzero;stroke:none"
             d="m 2904.55,3936.48 v 0.1 c 0.01,0.03 0.02,0.06 0.03,0.09 -0.02,-0.13 -0.03,-0.19 -0.03,-0.19" /><path
             id="path262"
             style="fill:#100f0d;fill-opacity:1;fill-rule:nonzero;stroke:none"
             d="m 1689.53,3668.08 c -1.9,20.2 -3.1,40.7 -3.4,61.4 -0.2,4.8 -0.2,9.7 -0.2,14.5 0,359.2 237.6,651.5 529.7,651.5 292.1,0 529.7,-292.3 529.7,-651.5 0,-343.7 -217.5,-626.1 -492.2,-649.9 -12.4,-1.1 -24.9,-1.6 -37.5,-1.6 -7.5,0 -15,0.2 -22.5,0.6 -261,13.5 -473.8,260.4 -503.6,575 z m 512,-633.9 c 17.4,0 34.7,0.9 51.7,2.7 307,31.5 548,341.4 548,718.8 0,398.5 -268.5,721.5 -599.7,721.5 -331.2,0 -599.7,-323 -599.7,-721.5 0,-6 0.1,-12 0.3,-18 0.3,-20.3 1.4,-40.4 3.2,-60.3 17.8,-197.6 101.8,-371 224.9,-488 -44.9,5.7 -87.1,5.5 -122.9,2.1 -37.4,-3.7 -67.9,-10.7 -88.8,-17.1 -10.4,-2.9 -18.5,-6.1 -23.9,-8.2 -5.4,-2.1 -8.2,-3.5 -8.2,-3.5 0,0 3,-0.1 8.8,-0.4 5.8,-0.4 14.2,-0.9 24.9,-1.6 21.2,-1.7 51.2,-4.6 86.4,-9.6 17.6,-2.6 36.6,-5.5 56.3,-9.5 19.8,-3.6 40.5,-8.4 61.6,-13.7 21,-5.4 42.5,-11.6 64.1,-18.7 10.8,-3.3 21.3,-7.8 32.2,-11.3 10.6,-4.3 21.4,-8.1 31.9,-12.8 10.5,-4.6 21.2,-8.8 31.4,-14 5.1,-2.5 10.2,-4.9 15.4,-7.3 5.1,-2.6 10.1,-5.2 15.1,-7.8 10.1,-5.1 19.9,-10.6 29.5,-16.1 9.9,-5.2 19,-11.2 28.3,-16.9 9.4,-5.4 18.1,-11.6 26.9,-17.3 4.3,-2.9 8.7,-5.8 12.9,-8.6 4.2,-3.1 8.3,-6.1 12.3,-9 16.6,-11.4 31.3,-23.6 45.5,-34.3 4.2,-3.5 8.3,-6.9 12.2,-10.1 2.5,-2.2 5,-4.3 7.5,-6.3 3.2,-2.6 6.3,-5.1 9.3,-7.6 2.9,-2.5 5.7,-5 8.4,-7.5 9.6,-8.7 19,-16 26.3,-22.8 l 2.5,-2.4 c 7.6,-7.4 14.2,-12.8 18.5,-16.7 3.9,-3.3 6.2,-5.3 6.7,-5.7 -0.2,0.6 -1.4,3.4 -3.4,8 -2.5,5.3 -5.8,13.2 -10.8,22.9 -2.3,4.9 -5.2,10.2 -8.4,15.9 -3.2,5.7 -6.9,11.8 -10.8,18.3 -7.5,13.3 -18,26.8 -28.9,42.2 -3,3.7 -6.1,7.5 -9.2,11.3 -9.3,11.3 -19.3,23.2 -30.9,34.6 -2.9,3 -5.9,6.1 -8.9,9.2 14.3,-1.5 28.6,-2.5 43.1,-2.8 2.8,-0.1 5.6,-0.1 8.4,-0.1" /><path
             id="path264"
             style="fill:#100f0d;fill-opacity:1;fill-rule:nonzero;stroke:none"
             d="m 3616.73,3176.08 c -2.5,-0.7 -4.9,-1.3 -7.4,-1.9 -12.1,-3.2 -24.1,-7.1 -36.2,-11 -11.8,-4.5 -23.9,-8.6 -35.6,-13.6 -11.7,-5.2 -23.4,-10.1 -34.7,-16.1 -11.4,-5.5 -22.5,-11.6 -33.2,-18.2 -5.4,-3.2 -10.8,-6.2 -16.1,-9.6 -3.2,-2.2 -6.4,-4.4 -9.7,-6.6 -23.2,-4.3 -47,-6.6 -71.2,-6.6 -261.7,0 -474.6,262.5 -474.6,585.2 0,198.4 80.5,374 203.3,479.8 17.3,15.1 35.5,28.7 54.5,40.7 65,41.4 138.7,64.7 216.8,64.7 261.7,0 474.6,-262.5 474.6,-585.2 0,-4.5 0,-9 -0.2,-13.5 -0.3,-20.5 -1.5,-40.8 -3.6,-60.8 -13.7,-133.1 -63.9,-252.3 -137.7,-342 -14.9,-18.2 -30.8,-35.2 -47.6,-50.8 -13.3,-12.4 -27.1,-23.9 -41.4,-34.5 z m 305.9,-9.9 c -5.5,2.1 -13.5,5.3 -24,8.2 -3.7,1.1 -7.7,2.3 -12,3.4 -19.9,5.4 -46,10.7 -76.8,13.7 -28.8,2.7 -61.8,3.4 -96.9,0.6 14.4,14.9 28.2,30.6 41.2,47.2 78.5,99.8 131.2,229.2 145.2,372.8 2.1,20.5 3.3,41.2 3.6,62.2 0.2,5 0.2,10.1 0.2,15.1 0,361.9 -243.8,655.2 -544.6,655.2 -73.3,0 -143.1,-17.4 -206.9,-49 -20.8,-10.2 -40.9,-21.9 -60.2,-35.2 -165.7,-112.2 -277.5,-325.9 -277.5,-571 0,-361.8 243.8,-655.2 544.6,-655.2 2.1,0 4.1,0.2 6.1,0.2 -2.1,-2.1 -4.3,-4.3 -6.4,-6.5 -15.4,-15.3 -28.1,-31.4 -40,-45.9 -10.9,-15.4 -21.4,-28.9 -29,-42.2 -7.7,-13.1 -14.6,-24.3 -19.2,-34.2 -4.9,-9.7 -8.2,-17.6 -10.7,-22.9 -2,-4.6 -3.2,-7.4 -3.4,-8 0.5,0.4 2.8,2.4 6.7,5.7 4.3,3.9 10.8,9.3 18.5,16.7 7.5,7.5 18,15.4 28.8,25.2 2.7,2.5 5.5,5 8.4,7.5 3,2.5 6.1,5 9.3,7.6 6.2,5.2 12.8,10.6 19.7,16.4 14.2,10.7 28.9,22.9 45.4,34.3 4.1,2.9 8.2,5.9 12.3,9 4.3,2.8 8.6,5.7 13,8.6 8.8,5.7 17.4,11.9 26.9,17.3 9.2,5.7 18.4,11.7 28.2,16.9 9.7,5.5 19.4,11 29.5,16.1 3.1,1.6 6.2,3.2 9.2,4.7 24.8,8.8 48.8,19.6 72,32.2 4.2,1.7 8.5,3.3 12.7,5 10.9,3.5 21.4,8 32.2,11.3 21.5,7.1 43,13.3 64.1,18.7 21.1,5.3 41.7,10.1 61.5,13.7 19.8,4 38.7,6.9 56.3,9.5 35.3,5 65.3,7.9 86.5,9.6 10.7,0.7 19.1,1.2 24.8,1.6 5.8,0.3 8.9,0.4 8.9,0.4 0,0 -2.8,1.4 -8.2,3.5" /><path
             id="path266"
             style="fill:#100f0d;fill-opacity:1;fill-rule:nonzero;stroke:none"
             d="m 2281.51,3609.63 c -36.39,0 -65.88,29.49 -65.88,65.88 0,36.38 29.49,65.88 65.88,65.88 36.38,0 65.88,-29.5 65.88,-65.88 0,-36.39 -29.5,-65.88 -65.88,-65.88 z m -65.88,189.27 c -104.54,0 -189.28,-84.74 -189.28,-189.27 0,-104.54 84.74,-189.28 189.28,-189.28 104.53,0 189.27,84.74 189.27,189.28 0,104.53 -84.74,189.27 -189.27,189.27" /><path
             id="path268"
             style="fill:#100f0d;fill-opacity:1;fill-rule:nonzero;stroke:none"
             d="m 3438.51,3566.42 c -36.39,0 -65.88,29.5 -65.88,65.88 0,36.38 29.49,65.88 65.88,65.88 36.38,0 65.88,-29.5 65.88,-65.88 0,-36.38 -29.5,-65.88 -65.88,-65.88 z m -65.88,189.27 c -104.53,0 -189.27,-84.74 -189.27,-189.27 0,-104.53 84.74,-189.27 189.27,-189.27 104.53,0 189.27,84.74 189.27,189.27 0,104.53 -84.74,189.27 -189.27,189.27" /><path
             id="path270"
             style="fill:#100f0d;fill-opacity:1;fill-rule:nonzero;stroke:none"
             d="m 1670.19,4516.29 c 0,0 424.17,312.14 922.93,0 0,0 -136.21,347.14 -461.46,347.14 -367.73,0 -461.47,-347.14 -461.47,-347.14" /><path
             id="path272"
             style="fill:#100f0d;fill-opacity:1;fill-rule:nonzero;stroke:none"
             d="m 3906.54,4516.29 c 0,0 -424.17,312.14 -922.94,0 0,0 136.22,347.14 461.47,347.14 367.72,0 461.47,-347.14 461.47,-347.14" /><path
             id="path274"
             style="fill:#100f0d;fill-opacity:1;fill-rule:nonzero;stroke:none"
             d="m 5191.87,4731.79 c -778.37,310.38 -1597.84,467.73 -2436.09,467.73 -64.3,0 -128.47,-1.04 -192.54,-2.89 v 0.01 l -0.5,-0.02 c -771,-22.32 -1524.55,-178.32 -2243.052,-464.83 -201.895,162.2 -292.9966,433.9 -230.0903,686.9 851.7733,340.26 1748.6923,512.77 2666.1823,512.77 917.48,0 1814.4,-172.51 2666.18,-512.77 62.91,-253 -28.2,-524.7 -230.09,-686.9 z M 866.141,4849.31 c 456.779,138.94 925.599,226.58 1402.139,262.05 -40.97,-18.61 -83.35,-39.11 -127.45,-60.49 -225.6,-109.39 -481.29,-233.35 -794.32,-225.51 -206.09,5.17 -369.104,15.23 -480.369,23.95 z M 4627.43,3643.28 c -51.5,-116.4 -151,-411.4 -147.8,-565.7 2.1,-106.2 -28.7,-183.2 -86.7,-216.9 -49.4,-28.6 -117.8,-23.8 -178.4,12.6 -93.1,55.8 -56.2,192.1 -13.6,304.7 1.8,5 3.6,9.5 5,13.5 25,67.8 -1.2,144.3 -60.9,177.9 -8.78,4.97 -18.43,9 -28.81,11.86 v 0 c 41.74,-43.17 35.21,-112.08 28.77,-145.73 -0.74,-6.64 -2.26,-13.3 -4.66,-19.83 -1.5,-3.8 -3.1,-8.2 -4.9,-13 -30.7,-81 -112.2,-296.3 43.1,-389.5 7.4,-4.4 14.8,-8.4 22.4,-12.1 l -358.9,-708.8 -32.1,-63.4 c 17.1,-30.7 31.8,-63.2 43.6,-97.3 -45.3,-67.1 -258.8,-393.8 -409.4,-805 -7.9,-21.6 -47.3,-21.3 -99.4,-16.8 l -29.2,-57.6 -473.9,-936 c -14.6,-28.8011 -42.7,-46.098 -75,-46.1995 h -0.2 c -32.3,0 -60.4,17.1992 -75,45.8985 l -559.2,1094.201 c 13,5.3 25.2,12.2 36.2,20.8 47.1,36.6 93.7,203.2 -50.3,267.2 0,0 80.5,-155 7.4,-211.9 -37.4,-29.1 -90.5,-20 -127.7,-1.9 -46.1,22.6 -75.9,61 -75.9,97.7 0,151.9 -303.3,812.7 -394.8,1008.8 l -28.7,63.1 c -43.7,5.8 -86.5,16.1 -127.9,31.1 -35.1,75.3 -239.1,510.5 -381.6,757.7 85.7,31.4 171.7,123 171.7,228 0,63 16.1,108.6 45.3,128.3 32.4,21.8 78.2,10.7 111,-2.6 91.2,-36.9 177.3,-31.3 230.4,14.8 16.5,14.4 33,35.7 43.4,66.7 l 10.3,59.8 c -0.4,53.1 -80.7,110.7 -80.7,110.7 14.3,-56.9 22.1,-148.6 -18.9,-184.3 -31.9,-27.7 -94,-28.8 -158.3,-2.8 -87.9,35.5 -144.4,17.3 -176.3,-4.2 -34.8,-23.5 -76.2,-74.8 -76.2,-186.4 0,-75.2 -67.9,-143.7 -130.7,-164.2 -27.403,-8.9 -64.903,-12.7 -88.2,19.3 -34.703,47.7 -48.601,167.8 -62,284 -13.902,120.1 -28.3,244.2 -67.703,321.4 l -379.3,742.3 c 110.101,43.5 221.101,84.1 332.8,121.5 43.903,-5.1 277.602,-30.3 649.203,-39.6 9.9,-0.2 19.6,-0.4 29.3,-0.4 317,0 582.7,128.8 797.3,232.9 151.4,73.4 282.1,136.7 392,138.7 64,1.9 128.2,2.9 192.4,2.9 823.3,0 1628.2,-153.5 2393.2,-456.1 -101.1,-198.9 -510.9,-1006.1 -521.5,-1030.1 z m 857.64,1810.67 c -2.91,10.51 -10.55,19.07 -20.68,23.14 -864.97,347.95 -1776.28,524.37 -2708.61,524.37 -932.33,0 -1843.647,-176.42 -2708.6159,-524.37 -10.125,-4.07 -17.7696,-12.63 -20.6758,-23.14 -79.7891,-288.7 24.6367,-602.91 259.8597,-784.86 l 393.34,-769.81 c 33.652,-65.86 47.292,-183.64 60.484,-297.54 15.164,-130.92 29.484,-254.58 74.961,-317.11 25.828,-35.51 64.652,-54.24 109.258,-54.24 l 2.261,0.1 c 153.848,-262.4 392.148,-776.65 394.598,-781.95 3.28,-7.09 9.2,-12.62 16.49,-15.42 34.76,-13.31 70.4,-23.49 106.66,-30.84 115.83,-245.59 407.48,-891.76 407.48,-1020.31 0,-64.24 44.15,-125.75 115.23,-160.54 30.74,-15.05 62.49,-22.87 92.9,-23.77 L 2629.05,84.0508 C 2655.56,32.1797 2708.17,0 2766.42,0 h 0.3 c 58.35,0.109375 110.97,32.5195 137.33,84.582 l 487.54,962.808 c 47.54,0.42 91.72,11.65 108.91,58.56 v 0 c 165.61,452.09 408.34,800.28 410.77,803.74 5.4,7.69 6.89,17.47 4.02,26.42 -9.1,28.31 -19.99,55.63 -32.39,81.96 l 384.51,759.41 c 17.61,-3.8 35.19,-5.73 52.47,-5.73 38.41,0 75.4,9.43 108.14,28.41 46.96,27.22 125.2,99.65 121.54,278.87 -2.79,136.86 89.44,417.36 141.81,535.84 10.9,24.01 351.9,696 533.86,1054.23 235.21,181.95 339.63,496.15 259.84,784.85" /><path
             id="path276"
             style="fill:#100f0d;fill-opacity:1;fill-rule:nonzero;stroke:none"
             d="m 1885.53,2712.39 c 58.1,-204.48 183.14,-600.56 266.26,-679.89 61.79,-58.96 279.1,-96.78 567.14,-98.69 272.93,-1.8 542.1,29.53 669.72,77.97 116.33,44.16 242.32,430.77 304.54,699.46 -778.09,-208.59 -1586.09,-50.18 -1807.66,1.15 z m 856.61,-848.65 c -7.9,0 -15.76,0.03 -23.68,0.07 -148.75,0.99 -506.45,14.47 -615,118.05 -54.3,51.82 -119.59,193.66 -199.6,433.6 -57.72,173.14 -101.41,334.49 -101.84,336.1 l -15.98,59.17 59.09,-16.31 c 9.69,-2.68 979.69,-264.53 1885.05,-0.14 l 56.12,16.39 -12.06,-57.21 c -0.38,-1.79 -38.51,-181.46 -99.46,-367.54 -85.7,-261.58 -171.17,-405.37 -261.28,-439.58 -133.24,-50.58 -394.86,-82.6 -671.36,-82.6" /><path
             id="path278"
             style="fill:#100f0d;fill-opacity:1;fill-rule:nonzero;stroke:none"
             d="m 3210.83,2293.54 c 0,0 26.8,4.48 66.6,12.4 39.82,7.89 92.59,19.63 144.44,33.81 51.89,14.1 102.75,30.67 140.04,44.72 18.7,6.91 34.04,13.13 44.72,17.55 10.65,4.47 16.74,7.02 16.74,7.02 l 22.29,-66.36 c 0,0 -6.77,-1.62 -18.61,-4.47 -11.85,-2.78 -28.78,-6.63 -49.15,-10.6 -40.71,-8.2 -95.17,-16.6 -149.6,-22.26 -54.45,-5.77 -108.86,-8.88 -149.61,-10.28 -40.77,-1.42 -67.86,-1.53 -67.86,-1.53" /><path
             id="path280"
             style="fill:#100f0d;fill-opacity:1;fill-rule:nonzero;stroke:none"
             d="m 1961.22,2410.17 c 0,0 6.74,-1.87 18.55,-5.14 11.97,-3.16 29.08,-7.66 49.61,-13.06 41.22,-10.58 96.49,-23.95 152.05,-36.42 55.54,-12.52 111.38,-24.05 153.38,-32.26 42.06,-8.04 70.09,-13.39 70.09,-13.39 0,0 -28.55,1.01 -71.37,2.53 -42.84,1.7 -99.98,4.57 -157.13,8.48 -57.14,3.86 -114.31,8.67 -157.22,12.88 -21.48,2.24 -39.39,4.11 -51.92,5.42 -12.65,1.49 -19.88,2.34 -19.88,2.34 l 13.84,68.62" /><path
             id="path282"
             style="fill:#100f0d;fill-opacity:1;fill-rule:nonzero;stroke:none"
             d="m 2609.93,1555.55 c 0,0 1.03,1.3 3.21,3.45 2.19,2.15 5.37,5.47 9.79,9.05 4.34,3.8 9.83,8 16.31,12.72 6.62,4.31 14.07,9.56 22.75,14.08 4.35,2.3 8.88,4.7 13.56,7.18 4.86,2.14 9.87,4.35 15.03,6.62 10.32,4.72 21.79,7.96 33.58,11.83 5.96,1.67 12.13,2.96 18.37,4.37 6.23,1.43 12.54,2.95 19.07,3.55 12.96,1.8 26.19,3.37 39.58,3.28 6.67,0 13.35,0.15 19.99,-0.08 6.65,-0.48 13.25,-1.31 19.79,-1.99 13.14,-0.86 25.77,-4.31 37.9,-7.25 12.25,-2.5 23.43,-7.52 34.03,-11.67 5.24,-2.29 10.43,-4.11 15.19,-6.59 4.64,-2.69 9.13,-5.29 13.44,-7.78 8.44,-5.26 16.29,-9.54 22.53,-14.64 6.24,-5.1 11.42,-9.85 15.66,-13.66 8.46,-7.68 12.82,-12.47 12.82,-12.47 0,0 -6.69,1.1 -17.57,3.73 -5.42,1.35 -11.98,2.87 -19.21,4.95 -7.26,2 -15.88,3.05 -24.74,5.08 -4.42,0.99 -9.01,2.02 -13.77,3.08 -4.78,0.9 -9.83,1.41 -14.9,2.16 -10.19,1.38 -20.58,3.76 -31.7,4.23 -5.52,0.39 -11.06,1.04 -16.67,1.64 -5.56,0.85 -11.36,0.46 -17.09,0.86 -5.75,0.23 -11.53,0.33 -17.32,0.78 -5.82,0.07 -11.68,-0.29 -17.52,-0.36 -11.7,0.41 -23.37,-0.9 -34.96,-1.42 -11.57,-0.56 -22.91,-2.33 -34.07,-3.12 -10.97,-1.89 -21.93,-2.54 -32.09,-4.55 -5.15,-0.79 -10.17,-1.55 -15.03,-2.29 -4.86,-0.89 -9.55,-1.75 -14.06,-2.58 -9.18,-1.36 -17.37,-3.41 -24.97,-4.61 -7.36,-1.69 -14.16,-2.64 -19.53,-3.94 -11.07,-2.32 -17.4,-3.64 -17.4,-3.64" /></g></g></g></g></svg>