<?xml version="1.0" encoding="UTF-8" standalone="no"?>
<svg
   xmlns:dc="http://purl.org/dc/elements/1.1/"
   xmlns:cc="http://creativecommons.org/ns#"
   xmlns:rdf="http://www.w3.org/1999/02/22-rdf-syntax-ns#"
   xmlns:svg="http://www.w3.org/2000/svg"
   xmlns="http://www.w3.org/2000/svg"
   viewBox="0 0 734.88 800.20001"
   height="800.20001"
   width="734.88"
   xml:space="preserve"
   id="svg2"
   version="1.1"><metadata
     id="metadata8"><rdf:RDF><cc:Work
         rdf:about=""><dc:format>image/svg+xml</dc:format><dc:type
           rdf:resource="http://purl.org/dc/dcmitype/StillImage" /></cc:Work></rdf:RDF></metadata><defs
     id="defs6"><clipPath
       id="clipPath20"
       clipPathUnits="userSpaceOnUse"><path
         id="path18"
         d="M 0,0 H 5511.56 V 6001 H 0 Z" /></clipPath></defs><g
     transform="matrix(1.3333333,0,0,-1.3333333,0,800.2)"
     id="g10"><g
       transform="scale(0.1)"
       id="g12"><g
         id="g14"><g
           clip-path="url(#clipPath20)"
           id="g16"><path
             id="path22"
             style="fill:#cb8e4c;fill-opacity:1;fill-rule:nonzero;stroke:none"
             d="m 5451.38,5448.53 c 77,-278.5 -23.2,-578.6 -253.8,-752.8 -783.4,315.2 -1612.6,472.7 -2441.7,472.7 -64,0 -128.1,-0.9 -192.1,-2.8 -4.4,-0.11 -8.8,-0.2 -13.3,-0.5 -628.2,-19.61 -1254.3,-129.8 -1858.203,-330.6 -127.097,-42.3 -253.199,-88.5 -378.199,-138.8 -230.5975,174.2 -330.7968,474.3 -253.7967,752.8 860.7967,346.29 1767.6987,521.9 2695.5987,521.9 927.8,0 1834.7,-175.61 2695.5,-521.9" /><path
             id="path24"
             style="fill:#f6cb53;fill-opacity:1;fill-rule:nonzero;stroke:none"
             d="m 4394.18,4131.53 c -66.2,-285.8 -322.3,-498.7 -628.2,-498.7 -356.1,0 -644.7,288.6 -644.7,644.7 0,40.3 3.7,79.7 10.8,118 55.4,299.7 318.1,526.7 633.9,526.7 356.1,0 644.8,-288.6 644.8,-644.7 0,-50.2 -5.7,-99.1 -16.6,-146 m -1638.3,1036.9 c -64,0 -128.1,-0.9 -192.1,-2.8 -4.4,-0.11 -8.8,-0.2 -13.3,-0.5 -100.6,-5.4 -213,-54.61 -340.1,-115.5 -8.6,-4.2 -17.3,-8.4 -26.1,-12.6 -228.6,-110.6 -503.5,-251.1 -838.6,-242.7 -151.3,3.8 -279.1,10.2 -380.399,16.8 -34.5,2.2 -66.004,4.5 -94.203,6.7 -116.5,8.9 -178.801,16.7 -178.801,16.7 -74.797,-24.9 -149.199,-51.1 -223.199,-78.8 h -0.199 c -51.801,-19.3 -103.399,-39.3 -154.801,-60 0,0 19,-37.3 48.902,-95.8 75.5,-147.6 220.098,-430.6 302.301,-591.5 19.199,-37.4 34.899,-68.3 45.598,-89.3 25.898,-50.6 40.398,-125.8 51.601,-207 v -0.2 c 21.2,-155.2 29.899,-332.5 81,-402.8 23.7,-32.5 59,-43.5 96.801,-38.9 15.598,1.9 31.496,6.5 47.297,13.3 34.102,14.7 67.002,39.8 92.202,71.2 27.7,34.4 45.9,76.3 45.9,119.9 v 2.2 c 0.8,144.4 78.5,206.8 204.4,156 85.9,-34.8 185.3,-32.5 221.8,45.8 4.6,9.9 8.3,20.9 10.7,33.3 h 0.1 c 5.4,0.1 10.9,0.2 16.5,0.2 291.6,0 538,-193.7 617.6,-459.3 l 0.1,-0.1 c 17.6,-58.7 27,-120.9 27,-185.3 0,-356.1 -288.6,-644.8 -644.7,-644.8 -35.5,0 -70.4,2.9 -104.5,8.4 l -1.1,-4.4 c 0,0 345.1,-730.5 404.7,-983 l 0.1,-0.1 c 5.5,-23.8 8.6,-43.3 8.6,-57.6 0,-85.7 104.9,-157.4 194.2,-148.8 l 5.1,-9.9 574,-1123.3 c 44.3,-86.8011 168.5,-86.6019 212.6,0.402 l 59.4,117.297 388.8,768 46.8,92.301 c -32.4,1.8 -66.8,6.8 -95.1,6.8 -356,0 -644.7,288.7 -644.7,644.8 0,356 288.7,644.7 644.7,644.7 13.4,0 26.8,-0.4 40,-1.2 233.1,-14.3 432.7,-152.4 533.9,-349.3 l 342.8,677.3 57.1,112.7 2.6,5.1 c 15.2,-5.1 30.6,-8.5 46,-10.4 36.9,-4.4 73.3,0.8 105.6,16.8 53.6,26.5 95.7,82.9 109.2,174.9 l 0.1,0.5 c 3.5,23.5 5.1,49.3 4.5,77.6 -0.9,46.5 7.9,106.5 22,170.3 31.6,142.8 89.5,305 122.9,380.5 9.1,20.7 352.5,697.2 485.9,959.9 32.2,63.5 52.2,102.8 52.2,102.8 -783.4,315.2 -1612.6,472.7 -2441.7,472.7" /><path
             id="path26"
             style="fill:#e53e47;fill-opacity:1;fill-rule:nonzero;stroke:none"
             d="m 4410.78,4277.53 c 0,-50.2 -5.7,-99.1 -16.6,-146 -66.2,-285.8 -322.3,-498.7 -628.2,-498.7 -356.1,0 -644.7,288.6 -644.7,644.7 0,356.1 288.6,644.7 644.7,644.7 10.8,0 21.5,-0.3 32.2,-0.8 341.1,-16.8 612.6,-298.6 612.6,-643.9" /><path
             id="path28"
             style="fill:#e53e47;fill-opacity:1;fill-rule:nonzero;stroke:none"
             d="m 3886.78,1930.93 c 0,0 -213.7,-304.2 -379.6,-719.8 -11.9,-29.7 -23.5,-60.1 -34.8,-90.9 -13.5,-36.9 -56.9,-41 -104.5,-38.3 -32.4,1.8 -66.8,6.8 -95.1,6.8 -356,0 -644.7,288.7 -644.7,644.8 0,144.4 47.5,277.7 127.7,385.1 l 0.1,0.2 c 117.6,157.4 305.3,259.4 516.9,259.4 204.3,0 386.3,-95 504.4,-243.1 26.6,-33.3 49.9,-69.2 69.5,-107.4 15.9,-30.9 29.3,-63.3 40.1,-96.8" /><path
             id="path30"
             style="fill:#e53e47;fill-opacity:1;fill-rule:nonzero;stroke:none"
             d="m 2223.88,3067.43 c 0,-77.9 -13.8,-152.5 -39.1,-221.7 -21.2,-57.9 -50.4,-111.9 -86.3,-160.6 -117.5,-159.2 -306.3,-262.5 -519.3,-262.5 -35.5,0 -70.4,2.9 -104.5,8.4 -43.6,7.1 -85.9,18.6 -126.2,34.1 0,0 -252.4,545.7 -408.203,805.1 86.503,10.6 185.403,102.8 185.403,204.4 0,146 77.9,209.3 204.4,158.2 96.7,-39.2 210.6,-31.3 232.5,79.1 h 0.1 c 5.4,0.1 10.9,0.2 16.5,0.2 35.5,0 70.3,-2.9 104.3,-8.4 l 0.2,-0.1 c 19.1,-3.1 38,-7.1 56.6,-11.9 278.1,-71.5 483.6,-324 483.6,-624.3" /><path
             id="path32"
             style="fill:#e53e47;fill-opacity:1;fill-rule:nonzero;stroke:none"
             d="m 2550.48,5165.13 c -105.3,-5.7 -223.6,-59.3 -358,-124.2 -230.3,-111.1 -507.7,-255.1 -846.8,-246.6 -163.3,4.1 -299.3,11.2 -404.102,18.3 -36,2.4 -68.301,4.9 -96.699,7.2 -99.602,8 -152.602,14.7 -152.602,14.7 36.903,12.3 73.903,24.2 111,35.8 569.403,178.1 1157.403,276.4 1747.203,294.8" /><path
             id="path34"
             style="fill:#e8816a;fill-opacity:1;fill-rule:nonzero;stroke:none"
             d="m 4116.23,4444.23 c -2.66,2.26 -5.26,4.6 -7.69,7.12 -0.99,1.02 -1.92,2.08 -2.87,3.14 -1.65,2.56 -3.37,5.05 -4.86,7.73 -0.84,1.52 -1.52,3.16 -2.41,4.66 l -0.16,0.23 c -4.18,10.08 -9.68,18.57 -19.56,24.36 -9.65,5.64 -23.87,8.03 -34.68,4.53 -21.37,-6.91 -40.43,-31.81 -31.43,-55.35 8.77,-22.94 21.08,-43.97 40.02,-60.06 9.26,-7.87 19.31,-13.18 31.82,-13.18 11.04,0 24.22,4.9 31.82,13.18 15.39,16.76 19.16,47.36 0,63.64" /><path
             id="path36"
             style="fill:#e8816a;fill-opacity:1;fill-rule:nonzero;stroke:none"
             d="m 3460.08,4425.14 c -16.43,14.58 -37.04,19.05 -58.49,17.41 -21.64,-1.66 -35.81,-13.16 -43.39,-33.04 -4.17,-10.93 -8.34,-21.86 -12.51,-32.8 -8.4,-22.04 9.29,-50.31 31.43,-55.35 13.91,-3.17 26.25,-0.46 36.17,6.29 3.55,-0.83 7.1,-1.46 10.58,-1.62 24.31,-1.09 47,15.43 53.84,38.67 6.3,21.38 -0.99,45.67 -17.63,60.44" /><path
             id="path38"
             style="fill:#e8816a;fill-opacity:1;fill-rule:nonzero;stroke:none"
             d="m 3761.64,4226.44 c -15.4,3.51 -30.43,-0.37 -41.31,-9.74 -11.02,-2.82 -20.95,-9.82 -27.88,-20.49 -11.1,-17.11 -19.17,-36.74 -22.83,-56.81 -3.49,-19.12 2.12,-41.01 20.68,-50.82 18.76,-9.91 38.66,-6.45 54.53,7.04 23.21,19.71 39.32,46.54 48.24,75.47 6.94,22.49 -8.23,50.07 -31.43,55.35" /><path
             id="path40"
             style="fill:#e8816a;fill-opacity:1;fill-rule:nonzero;stroke:none"
             d="m 3772.1,4633.01 c -6.46,15 -23.16,26.9 -38.62,31.09 -16.69,4.52 -35.4,2.87 -50.24,-6.47 -9.77,-6.15 -17.57,-15.62 -20.67,-26.89 -2.97,-10.77 -1.63,-25.12 4.53,-34.68 8.71,-13.5 24.1,-22.06 39.75,-22.14 4.74,-3.27 9.96,-5.79 14.43,-7.02 10.77,-2.97 25.12,-1.63 34.68,4.54 9.6,6.19 18.06,15.42 20.68,26.89 l 1.6,11.96 c -0.02,8.13 -2.07,15.7 -6.14,22.72" /><path
             id="path42"
             style="fill:#e8816a;fill-opacity:1;fill-rule:nonzero;stroke:none"
             d="m 4108.64,4058.46 c -21.32,8.57 -43.67,0.83 -56.2,-18.41 -16.92,-25.99 -40.23,-44.21 -68.08,-57.38 -16.16,-7.64 -23.42,-26.7 -21.6,-44.09 -4.37,-12.81 -3.54,-27.8 2.96,-38.9 13.51,-23.12 39.13,-25.74 61.56,-16.15 5,2.14 9.66,4.68 14.1,7.49 44.19,25.12 76.22,66.41 93.31,114.35 7.44,20.86 -6.69,45.3 -26.05,53.09" /><path
             id="path44"
             style="fill:#e8816a;fill-opacity:1;fill-rule:nonzero;stroke:none"
             d="m 1497.82,3382.25 c -14.98,7.91 -36.1,7.66 -50.24,-2.56 -2.04,0.95 -4.08,1.89 -6.43,2.54 -10.77,2.96 -25.12,1.62 -34.68,-4.54 -18.65,-12.03 -31.14,-41.35 -16.14,-61.57 15.04,-20.28 36.71,-34.29 63.05,-32.39 24.29,1.75 49.71,13.88 60.59,36.95 10.01,21.25 6.63,49.53 -16.15,61.57" /><path
             id="path46"
             style="fill:#e8816a;fill-opacity:1;fill-rule:nonzero;stroke:none"
             d="m 1869.29,3389 c -21.11,12.03 -49.2,4.99 -61.57,-16.14 -12.2,-20.87 -5.03,-49.5 16.15,-61.57 l 1.11,-0.66 0.16,-0.31 c 0.2,-1.18 1.74,-6.75 1.73,-6.74 0.42,-1.78 0.72,-3.59 1.04,-5.39 l 0.08,-1.86 c 0.2,-6.44 0.48,-12.84 0.41,-19.29 -0.25,-23.55 20.87,-46.08 45,-45 24.59,1.1 44.74,19.77 45,45 0.45,42.88 -8.81,89.01 -49.11,111.96" /><path
             id="path48"
             style="fill:#e8816a;fill-opacity:1;fill-rule:nonzero;stroke:none"
             d="m 1744.02,3018.77 c -7.29,17.26 -23.91,27.41 -41.93,27.3 -4.66,20.42 -20.96,38.27 -43.74,37.25 -22.79,-1.02 -46.99,-19.87 -45,-45 0.57,-7.2 0.47,-14.27 0.23,-21.48 l -0.03,-1.58 -0.16,-0.67 c -0.8,-3.5 -1.48,-7.01 -2.36,-10.49 -5.45,-21.48 6.95,-51.6 31.43,-55.36 29.36,-4.49 57.1,-1.46 83.14,13.84 19.39,11.38 27.04,35.75 18.42,56.19" /><path
             id="path50"
             style="fill:#e8816a;fill-opacity:1;fill-rule:nonzero;stroke:none"
             d="m 1839.37,2809.66 c -5.74,1.31 -11.27,1.5 -16.54,0.93 -2.19,1.94 -4.58,3.63 -7.17,5 -22.65,11.96 -47.59,4.8 -61.57,-16.14 -11.27,-16.88 -23.48,-32.79 -23.48,-54.22 0,-30.91 27.6,-51.73 56.49,-52.47 39.08,-1.01 71.12,26.1 83.7,61.54 7.89,22.22 -8.91,50.23 -31.43,55.36" /><path
             id="path52"
             style="fill:#e8816a;fill-opacity:1;fill-rule:nonzero;stroke:none"
             d="m 1375.34,3032.79 c -1.71,0.28 -3.32,0.72 -4.95,1.12 l -0.85,0.72 -0.7,1.54 c -2.18,22.55 -20.57,43.54 -44.66,42.46 -23.55,-1.05 -46.03,-19.8 -45,-45 1.67,-40.46 30.44,-80.81 72.24,-87.62 12.3,-2.01 23.51,-1.99 34.67,4.53 9.34,5.47 18.24,16.17 20.68,26.9 4.94,21.66 -6.58,51.3 -31.43,55.35" /><path
             id="path54"
             style="fill:#e8816a;fill-opacity:1;fill-rule:nonzero;stroke:none"
             d="m 3321.68,2151.24 c -2.69,23.33 -21.97,36.73 -44.45,39.53 -26.34,3.28 -52.38,4.2 -76.82,0.57 -19.91,-0.89 -39.8,-2.46 -59.69,-5.01 -24.1,-3.1 -45,-18.47 -45,-45 0,-5.86 1.51,-12.02 4.15,-17.85 -4.11,-15.14 1.13,-33.34 11.75,-43.96 15.27,-15.27 35.92,-15.07 54.53,-7.04 36.76,15.88 76.11,18.52 115.42,13.67 24.16,-2.98 45,22.82 45,45 0,7.7 -1.87,14.32 -4.89,20.09" /><path
             id="path56"
             style="fill:#e8816a;fill-opacity:1;fill-rule:nonzero;stroke:none"
             d="m 2983.42,1868.44 c -10.81,0.05 -21.61,0.09 -32.41,0.14 -3,16.48 -14.09,30.8 -31.64,35.62 -22.44,6.17 -50.22,-7.56 -55.36,-31.43 -9.08,-42.17 -23.75,-115.83 32.47,-131.07 22.14,-6.01 48.87,3.86 68.91,12.97 18.82,8.55 36.05,21.6 49.84,36.95 25.58,28.47 8.6,76.66 -31.81,76.82" /><path
             id="path58"
             style="fill:#e8816a;fill-opacity:1;fill-rule:nonzero;stroke:none"
             d="m 3407.08,1705.09 c -12.36,28.17 -32.26,49.48 -56.52,67.85 -2.72,2.06 -5.68,3.55 -8.77,4.63 -3.58,2.29 -7.4,4.07 -11.34,5.15 -25.4,6.98 -46.59,-8.66 -55.36,-31.43 -11.48,-29.8 -25.53,-74.08 -9.76,-104.24 18.53,-35.44 64.94,-36.17 99.55,-30.21 18.01,3.1 34.87,11.36 44.43,27.71 11.6,19.82 6.35,41.01 -2.23,60.54" /><path
             id="path60"
             style="fill:#e8816a;fill-opacity:1;fill-rule:nonzero;stroke:none"
             d="m 3655.54,1933.52 c -13.28,46.18 -51.74,84.49 -99.54,93.75 -23.04,4.46 -49.67,-6.48 -55.35,-31.43 -5.07,-22.25 6.71,-50.58 31.43,-55.36 3.88,-0.75 7.54,-1.7 11.34,-2.78 l 0.85,-0.29 c 3.14,-1.78 6.25,-3.44 9.34,-5.35 l 1.13,-0.67 0.48,-0.72 c 1.69,-2.15 4.12,-4.28 6.13,-6.27 0.58,-0.7 1.24,-1.57 1.82,-2.48 1.19,-1.88 2.2,-3.85 3.25,-5.81 0.19,-0.75 1.76,-4.52 2.34,-6.52 6.5,-22.6 32.04,-38.97 55.35,-31.43 22.99,7.44 38.4,31.12 31.43,55.36" /><path
             id="path62"
             style="fill:#e8816a;fill-opacity:1;fill-rule:nonzero;stroke:none"
             d="m 3122.75,1470.22 c -0.74,2.28 -1.76,4.44 -2.81,6.57 0.39,4.59 0.39,9.21 -0.12,13.82 -1.37,12.29 -4.11,22.75 -13.18,31.82 -7.81,7.8 -20.61,13.68 -31.82,13.18 -11.64,-0.52 -23.71,-4.35 -31.82,-13.18 -7.55,-8.23 -14.47,-20.2 -13.18,-31.82 0.23,-2.09 0.32,-4.15 0.32,-6.21 -0.28,-1.04 -0.68,-2.07 -1.03,-3.1 -3.45,-8.21 -5.05,-15.88 -3.81,-25.07 1.43,-10.67 6.43,-20.99 14.34,-28.52 13.54,-12.87 33.62,-18.37 51.68,-12.85 22.48,6.88 39.06,31.78 31.43,55.36" /><path
             id="path64"
             style="fill:#e8816a;fill-opacity:1;fill-rule:nonzero;stroke:none"
             d="m 3359.98,1442.71 c -8.8,8.08 -19.62,13.18 -31.82,13.18 h -14.07 c -11.54,0 -23.66,-5.02 -31.82,-13.18 -7.8,-7.81 -13.68,-20.61 -13.18,-31.82 0.52,-11.64 4.35,-23.71 13.18,-31.82 8.81,-8.08 19.63,-13.18 31.82,-13.18 h 14.07 c 11.54,0 23.66,5.02 31.82,13.18 7.81,7.8 13.68,20.61 13.18,31.82 -0.52,11.64 -4.34,23.71 -13.18,31.82" /><path
             id="path66"
             style="fill:#a21f26;fill-opacity:1;fill-rule:nonzero;stroke:none"
             d="m 1694.33,3442.99 c -7.45,0 -13.42,-2.26 -18,-5.86 l -0.83,0.32 c -7.18,1.98 -16.74,1.09 -23.12,-3.02 -6.4,-4.13 -12.04,-10.28 -13.78,-17.93 -1.68,-7.35 -1.71,-16.8 3.02,-23.11 4.47,-5.96 8.94,-11.92 13.4,-17.87 4.87,-6.49 9.79,-11.55 17.93,-13.79 7.18,-1.98 16.74,-1.08 23.12,3.03 6.4,4.13 12.04,10.28 13.78,17.93 0.37,1.59 0.61,3.31 0.78,5.04 21.11,14.09 15.77,55.26 -16.3,55.26" /><path
             id="path68"
             style="fill:#a21f26;fill-opacity:1;fill-rule:nonzero;stroke:none"
             d="m 1578.49,3182.95 c -5.27,11.19 -15.49,18.96 -25.83,25.21 -13.44,8.14 -33.56,3.42 -41.05,-10.76 -4.1,-7.77 -4.75,-16.44 -2.36,-24.18 -2.18,-6.86 -3.08,-13.77 -1.35,-21.54 2.18,-9.81 8.17,-18.57 16.93,-23.72 15.06,-8.87 34.3,-4.96 46.36,7.08 13.17,13.14 15,31.54 7.3,47.91" /><path
             id="path70"
             style="fill:#a21f26;fill-opacity:1;fill-rule:nonzero;stroke:none"
             d="m 1292.35,3215.21 c -2.38,0 -4.61,-0.24 -6.7,-0.67 -2.09,0.43 -4.32,0.67 -6.7,0.67 -38.61,0 -38.67,-60 0,-60 2.38,0 4.61,0.23 6.69,0.66 2.09,-0.43 4.32,-0.66 6.71,-0.66 38.61,0 38.67,60 0,60" /><path
             id="path72"
             style="fill:#a21f26;fill-opacity:1;fill-rule:nonzero;stroke:none"
             d="m 1533.53,2790.9 c -16.25,-0.73 -30,-13.18 -30,-30 v -26.8 c 0,-15.69 13.8,-30.73 30,-30 16.26,0.73 30,13.18 30,30 v 26.8 c 0,15.69 -13.79,30.72 -30,30" /><path
             id="path74"
             style="fill:#a21f26;fill-opacity:1;fill-rule:nonzero;stroke:none"
             d="m 1970.29,3021.81 c -2.53,3.92 -5.69,7.01 -9.2,9.38 l -0.05,2.16 c -0.3,15.68 -13.57,30.74 -30,30 -15.98,-0.71 -30.33,-13.19 -30,-30 0.22,-11.09 0.44,-22.18 0.66,-33.26 0.46,-23.48 24.93,-36.4 45.14,-25.91 4.23,2.2 8.46,4.39 12.68,6.58 13.96,7.24 19.24,27.9 10.77,41.05" /><path
             id="path76"
             style="fill:#a21f26;fill-opacity:1;fill-rule:nonzero;stroke:none"
             d="m 3297.28,1946.14 c -3.71,13.51 -15.65,20.79 -28.93,22.02 -20.57,1.91 -41.15,3.82 -61.73,5.72 -16.15,1.5 -30,-14.86 -30,-30 0,-9.82 4.45,-17.51 11.15,-22.72 l -0.12,-0.9 c -3.58,-25.89 18.96,-46.43 44.07,-33.88 l 51.77,25.88 c 11.76,5.87 17.14,21.7 13.79,33.88" /><path
             id="path78"
             style="fill:#a21f26;fill-opacity:1;fill-rule:nonzero;stroke:none"
             d="m 3549.45,1825.27 -5.71,0.64 c -2,0.47 -3.99,0.97 -5.95,1.62 l -1.15,0.31 -1.56,0.91 c -0.79,0.45 -7.76,4.97 -4.15,2.14 -5.85,4.58 -12.66,7.47 -19.51,8.16 l -1.69,0.23 -0.19,0.01 c -1.48,0.2 -2.97,0.4 -4.52,0.33 -16.08,-0.72 -30.21,-13.19 -30,-30 0.2,-16.11 0.4,-32.21 0.6,-48.32 0.34,-27.17 32,-38.04 51.22,-21.21 13.14,11.5 23.33,19.42 37.75,29.28 24.27,16.6 15.7,54.91 -15.14,55.9" /><path
             id="path80"
             style="fill:#a21f26;fill-opacity:1;fill-rule:nonzero;stroke:none"
             d="m 3150.34,1675.17 c -4.07,6.25 -8.14,12.49 -12.21,18.74 -1.57,2.42 -3.51,4.48 -5.58,6.36 0.24,3.29 0.39,6.58 0.35,9.88 -0.15,15.68 -13.68,30.73 -30,30 -16.12,-0.72 -30.16,-13.19 -30,-30 0.13,-13.35 -2.57,-22.28 -11.61,-35.04 -9.07,-12.81 -2.66,-34.01 10.77,-41.05 21.78,-11.41 45.74,-11.43 67.52,0.06 13.84,7.31 19.33,27.89 10.76,41.05" /><path
             id="path82"
             style="fill:#a21f26;fill-opacity:1;fill-rule:nonzero;stroke:none"
             d="m 2940.91,1523.89 c -1.15,9.3 -2.29,18.6 -3.43,27.91 -1.01,8.24 -2.68,15.1 -8.79,21.21 -5.2,5.2 -13.74,9.12 -21.21,8.79 -3.72,-0.17 -7.5,-0.88 -11.03,-2.19 -13.69,4.35 -29.61,-0.33 -37.5,-13.8 -9.1,-15.56 -3.12,-34.35 9.82,-45.47 6.92,-5.95 13.95,-11.78 20.92,-17.66 9.45,-7.98 20.91,-11.21 32.78,-6.21 9.88,4.18 19.86,15.8 18.44,27.42" /><path
             id="path84"
             style="fill:#a21f26;fill-opacity:1;fill-rule:nonzero;stroke:none"
             d="m 2985.65,2073.35 c -6.95,4.92 -14.91,8.74 -23.18,11.24 -1.54,8.6 -6.42,16.63 -14.16,20.72 -14.74,7.79 -32.14,3.45 -41.04,-10.77 -14.09,-22.51 -10.85,-54.83 9.67,-72.45 20.75,-17.84 56.72,-18.38 74.79,4.14 12.79,15.94 10.94,35.09 -6.08,47.12" /><path
             id="path86"
             style="fill:#a21f26;fill-opacity:1;fill-rule:nonzero;stroke:none"
             d="m 3432.82,2187.77 c -16.25,-0.73 -30,-13.19 -30,-30 v -27.13 c 0,-15.69 13.8,-30.73 30,-30 16.25,0.73 30,13.18 30,30 v 27.13 c 0,15.69 -13.8,30.72 -30,30" /><path
             id="path88"
             style="fill:#a21f26;fill-opacity:1;fill-rule:nonzero;stroke:none"
             d="m 3514.2,1509.56 c -16.25,-0.72 -30,-13.18 -30,-30 v -9.04 c 0,-15.69 13.8,-30.73 30,-30 16.26,0.73 30,13.18 30,30 v 9.04 c 0,15.7 -13.79,30.73 -30,30" /><path
             id="path90"
             style="fill:#a21f26;fill-opacity:1;fill-rule:nonzero;stroke:none"
             d="m 3781.29,3892.95 c 3.82,10.34 1.42,22.42 -6.55,31.99 -18.73,22.5 -55.3,8.64 -62.77,-16.74 l -0.08,-0.35 c -12.3,-13.21 -21.68,-28.83 -28.09,-46.47 -5.53,-15.23 6.22,-32.86 20.96,-36.91 16.27,-4.47 30.55,5.21 36.4,19.86 4.96,-4.6 11.42,-7.53 19.29,-7.53 14.92,0 31.69,13.78 30,30 -1.06,10.14 -3.74,18.41 -9.16,26.15" /><path
             id="path92"
             style="fill:#a21f26;fill-opacity:1;fill-rule:nonzero;stroke:none"
             d="m 3548.98,4112.36 -0.76,0.52 c 0.86,6.89 1.15,13.84 0.74,20.73 -0.94,16.18 -13.11,30 -30,30 -14.8,0 -29.38,-12.56 -29.86,-27.84 -12.11,-1.17 -23.02,-8.94 -26.48,-21.52 -3,-10.93 1.08,-23.44 9.55,-30.9 -6.09,-20.12 16.52,-43.87 37.51,-36.73 10.71,3.63 21.42,7.27 32.13,10.91 26.28,8.93 27.52,39.21 7.17,54.83" /><path
             id="path94"
             style="fill:#a21f26;fill-opacity:1;fill-rule:nonzero;stroke:none"
             d="m 3711.83,4394.53 c -19.53,15.32 -40.8,21.24 -65.38,16.4 -15.42,-3.04 -25.68,-22.29 -20.95,-36.91 5.31,-16.41 20.37,-24.21 36.9,-20.95 l 0.27,0.06 0.74,-0.13 1.99,-0.11 0.14,-0.03 c 0.61,-0.25 3.31,-1.42 4.46,-1.77 1.83,-1.27 3.84,-2.47 -0.6,1.02 6.53,-5.13 12.55,-8.79 21.21,-8.79 7.36,0 16.15,3.27 21.22,8.79 9.9,10.79 13.18,32.08 0,42.42" /><path
             id="path96"
             style="fill:#a21f26;fill-opacity:1;fill-rule:nonzero;stroke:none"
             d="m 3518.53,4632.43 c -6.49,1.48 -12.39,1.11 -17.56,-0.74 -5.53,6.9 -13.74,11.58 -22.94,11.17 -16.12,-0.72 -30.16,-13.18 -30,-30 0.15,-14.6 0.29,-29.21 0.44,-43.81 0.23,-23.9 25,-35.83 45.14,-25.91 22.16,10.93 36.74,29.97 45.88,52.39 5.93,14.58 -6.44,33.6 -20.96,36.9" /><path
             id="path98"
             style="fill:#a21f26;fill-opacity:1;fill-rule:nonzero;stroke:none"
             d="m 3948.25,4660.94 c -16.25,-0.72 -30,-13.18 -30,-30 v -31.65 c 0,-15.69 13.8,-30.72 30,-30 16.26,0.73 30,13.19 30,30 v 31.65 c 0,15.7 -13.8,30.73 -30,30" /><path
             id="path100"
             style="fill:#a21f26;fill-opacity:1;fill-rule:nonzero;stroke:none"
             d="m 3771.92,4819.19 h -13.56 c -15.69,0 -30.73,-13.8 -30,-30 0.73,-16.25 13.18,-30 30,-30 h 13.56 c 15.69,0 30.73,13.8 30,30 -0.73,16.25 -13.18,30 -30,30" /><path
             id="path102"
             style="fill:#a21f26;fill-opacity:1;fill-rule:nonzero;stroke:none"
             d="m 4009.96,4236.04 c 0.88,13.28 -9.67,27.63 -22.28,30.5 -17.22,3.92 -30.78,-5.26 -36.9,-20.95 -4.29,-10.99 -8.57,-21.97 -12.86,-32.96 -7.02,-17.98 10.91,-38.69 28.93,-37.97 13.39,0.53 26.78,1.07 40.17,1.6 15.67,0.62 30.75,13.35 30,30 -0.66,14.77 -11.79,28.69 -27.06,29.78" /><path
             id="path104"
             style="fill:#a21f26;fill-opacity:1;fill-rule:nonzero;stroke:none"
             d="m 4284.32,4236.76 c -1.92,6.96 -7.3,14.5 -13.79,17.93 -4.52,2.39 -9.66,3.85 -14.83,4 -4.77,10.48 -15.05,18.48 -27.12,17.94 -15.96,-0.72 -30.37,-13.19 -30,-30 l 0.57,-26.42 c 0.3,-13.52 9.16,-25.01 22.03,-28.93 9.85,-3 21.36,-3 31.15,0.29 12.52,4.21 21.11,11.6 28.96,22.07 4.37,5.82 4.87,16.45 3.03,23.12" /><path
             id="path106"
             style="fill:#a21f26;fill-opacity:1;fill-rule:nonzero;stroke:none"
             d="m 4163.89,4625.03 -9.05,9.04 c -11.11,11.11 -31.46,11.94 -42.42,0 -11,-11.97 -11.86,-30.57 0,-42.43 3.01,-3.01 6.02,-6.02 9.04,-9.04 11.11,-11.11 31.46,-11.94 42.43,0 10.99,11.98 11.85,30.57 0,42.43" /><path
             id="path108"
             style="fill:#ffffff;fill-opacity:1;fill-rule:nonzero;stroke:none"
             d="m 2786.55,3601.18 c 0,-383.6 -251.39,-694.6 -561.49,-694.6 -305.2,0 -553.5,301.2 -561.31,676.5 -0.1,6 -0.2,12 -0.2,18.1 0,116.3 23.1,226 64.01,322.3 93.89,221.4 281.39,372.4 497.5,372.4 229.59,0 427,-170.5 513.99,-414.7 29.9,-83.7 46.7,-176.1 47.4,-273.2 0.1,-2.2 0.1,-4.5 0.1,-6.8" /><path
             id="path110"
             style="fill:#ffffff;fill-opacity:1;fill-rule:nonzero;stroke:none"
             d="m 3891.12,3525.58 c 0,-341.9 -226.5,-619 -505.8,-619 -279.4,0 -505.9,277.1 -505.9,619 0,21.9 0.9,43.5 2.7,64.8 9.3,108.5 41.4,208.6 90.3,293 91.7,158.1 242.5,261.2 412.9,261.2 183.6,0 344.4,-119.7 433,-298.9 40.5,-81.8 65.9,-176 71.5,-276.9 0.9,-14.3 1.3,-28.7 1.3,-43.2" /><path
             id="path112"
             style="fill:#1d1312;fill-opacity:1;fill-rule:nonzero;stroke:none"
             d="m 3447.23,1955.38 c -52.6,9.9 -115,20.4 -185.4,30.1 -262.1,36 -634.3,60.5 -1021.7,-1.6 -43.3,-6.9 -86.9,-15 -130.5,-24.2 -84.3,-17.8 -157,60.39 -134,143.4 53.5,192.8 178.7,413.7 273.8,480.8 234.5,165.2 888.2,145 1075.4,-16.31 69.5,-59.89 198.6,-288.59 253.2,-465.19 25.6,-82.7 -45.7,-163 -130.8,-147" /><path
             id="path114"
             style="fill:#f78f8a;fill-opacity:1;fill-rule:nonzero;stroke:none"
             d="m 3261.83,1985.48 c -262.1,36 -634.3,60.5 -1021.7,-1.6 12,40.1 38.5,41.5 67.3,83.6 47.7,70 115.3,172.5 234.2,165.7 l 244.9,-39.5 c 0,0 282.7,132.1 420.3,-74 23.1,-34.5 42.1,-78.5 55,-134.2" /><path
             id="path116"
             style="fill:#d9933b;fill-opacity:1;fill-rule:nonzero;stroke:none"
             d="m 1551.88,3680.48 c -8.2,-24 -25.5,-44.8 -56.7,-57.6 -125.2,-51.1 -184,64 -294,15.4 -53.4,-23.6 -60.9,-79.2 -72.1,-141.5 -1.1,-6 -2.2,-12 -3.4,-18.1 -8.1,-41.1 -19.7,-84 -48.3,-121.9 l 2.4,-0.2 c -25.2,-31.4 -58.1,-56.5 -92.202,-71.2 -15.801,-6.8 -31.699,-11.4 -47.301,-13.3 -24.898,-3 -48.699,0.7 -68.898,13 -10.399,6.3 -19.801,14.8 -27.899,25.9 -35.601,49 -50.601,150.1 -63.601,259.4 l -0.098,0.5 c -5.601,47.3 -10.902,96.1 -17.301,142.9 v 0.2 c -11.203,81.2 -25.703,156.4 -51.601,207 -10.699,21 -26.399,51.9 -45.602,89.3 -114.797,224.7 -351.199,687.3 -351.199,687.3 35.5,14.3 71.102,28.1 106.801,41.8 2.5,-4.4 377.5,-662.9 425,-831.4 24.199,-85.8 6.898,-449.1 118.5,-459.6 87.101,69.1 101.701,366.9 261.501,330.6 159.8,-36.3 307,-115.4 294.5,75.2 0,0 56.4,-101.4 31.5,-173.7" /><path
             id="path118"
             style="fill:#d9933b;fill-opacity:1;fill-rule:nonzero;stroke:none"
             d="m 420.844,4739.45 0.054,-0.1 c 15.989,6.1 31.957,12.26 47.981,18.23 l -48.035,-18.13" /><path
             id="path120"
             style="fill:#d9933b;fill-opacity:1;fill-rule:nonzero;stroke:none"
             d="m 2775.08,180.781 -559.1,1152.399 -16.1,33.2 -13.9,28.6 c -20.9,57.1 -65.3,109.1 -68.1,112.2 2.3,-6.4 50.2,-144.2 -63.3,-163.9 -84,30.8 -75.3,229.5 -100.8,304.4 -40.4,118.6 -278.9,636.9 -278.9,636.9 459.3,170.69 579.15,431.53 589.93,639.76 -19.38,-4.16 -39.15,-6.4 -59.03,-6.68 -68.19,-282.91 -322.74,-493.18 -626.6,-493.18 -35.5,0 -70.4,2.9 -104.5,8.4 l -1.1,-4.4 c 0,0 345.1,-730.5 404.7,-983 l 0.1,-0.1 c 1.2,-5.3 2.3,-10.4 3.3,-15.2 3.4,-17 5.3,-31.3 5.3,-42.4 0,-85.7 104.9,-157.4 194.2,-148.8 l 5.1,-9.9 50.1,-98 523.9,-1025.299 c 44.3,-86.8005 168.5,-86.6013 212.6,0.399 l 59.4,117.3 c -106.6,-101.601 -157.2,-42.699 -157.2,-42.699" /><path
             id="path122"
             style="fill:#d9933b;fill-opacity:1;fill-rule:nonzero;stroke:none"
             d="m 692.281,4836.38 c 0,0 96.297,-12 272.996,-23.4 -267.5,-77.2 -472.699,-156.2 -602.297,-211.2 -29.902,58.5 -48.902,95.8 -48.902,95.8 51.402,20.7 103,40.7 154.801,60 h 0.199 c 74,27.7 148.402,53.9 223.203,78.8" /><path
             id="path124"
             style="fill:#d9933b;fill-opacity:1;fill-rule:nonzero;stroke:none"
             d="m 5197.58,4697.58 c 0,0 -20,-39.3 -52.2,-102.8 -1105.5,446.3 -2132.7,516.7 -2961.1,444.1 137.8,66.6 258.8,122.3 366.2,128.1 4.5,0.3 8.9,0.4 13.3,0.5 64,1.9 128.1,2.8 192.1,2.8 829.1,0 1658.3,-157.5 2441.7,-472.7" /><path
             id="path126"
             style="fill:#bb5f2f;fill-opacity:1;fill-rule:nonzero;stroke:none"
             d="m 4504.68,2989.28 c -12.2,-35.2 -45.1,-115.3 -103.9,-158.2 -39.4,-28.8 -90.2,-40.8 -154.2,-11.5 -5.1,2.3 -10.3,4.9 -15.6,7.8 -135.1,73.7 -120,199.5 -92,296.2 l 14.3,34.7 c -1.6,-7.8 -37.8,-191.8 118.8,-247.3 117.3,-41.7 191.7,4 232.6,78.3" /><path
             id="path128"
             style="fill:#bb5f2f;fill-opacity:1;fill-rule:nonzero;stroke:none"
             d="m 780.078,3569.88 9.801,-30.7 c -5.699,15.7 -8.899,27.3 -9.801,30.7" /><path
             id="path130"
             style="fill:#bb5f2f;fill-opacity:1;fill-rule:nonzero;stroke:none"
             d="m 1129.08,3496.78 c -1.1,-6 -2.2,-12 -3.4,-18.1 -8.1,-41.1 -19.7,-84 -48.3,-121.9 l 2.4,-0.2 c -25.2,-31.4 -58.1,-56.5 -92.202,-71.2 -15.801,-6.8 -31.699,-11.4 -47.301,-13.3 -24.898,-3 -48.699,0.7 -68.898,13 l -81.102,253 c 17.903,-48.5 59.504,-135.1 132.203,-149.7 101.8,-20.3 200.2,98.5 200.2,152.8 0,15.1 2.6,-6 6.4,-44.4" /><path
             id="path132"
             style="fill:#bb5f2f;fill-opacity:1;fill-rule:nonzero;stroke:none"
             d="m 2136.38,1131.08 -50.1,98 -5.1,9.9 c -89.3,-8.6 -194.2,63.1 -194.2,148.8 0,11.1 -1.9,25.4 -5.3,42.4 l 31.8,-34.7 c 0,0 63.4,-103.7 156.3,-82.9 93,20.9 101.9,114.5 101.9,114.5 l 28.2,-60.7 3,14.4 c 0,0 8.3,-18.9 13.1,-47.6 8.9,-52.6 6.2,-138.3 -79.6,-202.1" /><path
             id="path134"
             style="fill:#bd2d35;fill-opacity:1;fill-rule:nonzero;stroke:none"
             d="m 1421.58,2542.28 -315.2,672 c 152,130.8 103.7,283.8 155.6,324.9 51.8,41.1 88.5,-32 247.2,-25.8 74.79,2.88 117.83,45.71 142.45,90.2 -3.02,16.25 -4.97,32.85 -5.73,49.71 -0.86,19.3 0.46,38.27 3.52,56.77 -23.09,2.51 -46.49,3.92 -70.24,3.92 -5.6,0 -11.1,-0.1 -16.5,-0.2 h -0.1 c -21.9,-110.4 -135.8,-118.3 -232.5,-79.1 -126.5,51.1 -204.4,-12.2 -204.4,-158.2 0,-101.6 -98.9,-193.8 -185.403,-204.4 155.803,-259.4 408.203,-805.1 408.203,-805.1 40.3,-15.5 82.6,-27 126.2,-34.1 34.1,-5.5 69,-8.4 104.5,-8.4 278.2,0 515.2,176.2 605.6,423.1 -318.2,-460.5 -763.2,-305.3 -763.2,-305.3" /><path
             id="path136"
             style="fill:#bd2d35;fill-opacity:1;fill-rule:nonzero;stroke:none"
             d="m 2881.08,1369.98 c -199.39,157.67 -177.52,473.96 -148.99,641.18 -8.78,-2.97 -17.52,-6.03 -26.19,-9.25 -7.65,-2.86 -15.33,-4.89 -23,-6.29 -35.19,-79.59 -54.82,-167.61 -54.82,-260.24 0,-356.1 288.7,-644.8 644.7,-644.8 28.3,0 62.7,-5 95.1,-6.8 47.6,-2.7 91,1.4 104.5,38.3 11.3,30.8 22.9,61.2 34.8,90.9 -168.71,-20.48 -401.65,-20.48 -626.1,157" /><path
             id="path138"
             style="fill:#bd2d35;fill-opacity:1;fill-rule:nonzero;stroke:none"
             d="m 3761.29,4916.36 c -358.66,0 -649.45,-290.79 -649.45,-649.44 0,-55.27 6.95,-108.91 19.94,-160.13 39.92,26.58 85.26,44.92 132.35,52.29 -15.91,52.51 -24.55,108.18 -24.55,165.88 0,315.43 255.75,571.18 571.18,571.18 315.43,0 571.19,-255.75 571.19,-571.18 0,-297.93 -228.19,-542.49 -519.29,-568.73 24.58,-35.75 42.64,-76.52 52.63,-120.24 284.37,69.14 495.53,325.26 495.53,630.93 0,358.65 -290.79,649.44 -649.53,649.44" /><path
             id="path140"
             style="fill:#bd2d35;fill-opacity:1;fill-rule:nonzero;stroke:none"
             d="m 2550.48,5166.98 c -105.3,-5.7 -223.6,-59.3 -358,-124.2 -449.3,-39.7 -1043.4,-177.8 -1250.902,-228.3 -48.098,-11.7 -75.398,-18.7 -75.398,-18.7 l -21.301,25.9 -41.602,50.5 c 569.403,178.1 1157.403,276.4 1747.203,294.8" /><path
             id="path142"
             style="fill:#fdfbc2;fill-opacity:1;fill-rule:nonzero;stroke:none"
             d="m 1249.97,3795.8 c 0,0 143.37,-57.65 190.04,-43.93 46.67,13.73 49.41,57.65 49.41,57.65 0,0 -56.12,-38.43 -239.45,-13.72" /><path
             id="path144"
             style="fill:#fdfbc2;fill-opacity:1;fill-rule:nonzero;stroke:none"
             d="m 3899.6,3445.83 c -7.14,-16.13 -15.74,-31.6 -25.53,-46.32 58.02,29.76 96.62,72.27 96.62,72.27 0,0 -29.04,-13.17 -71.09,-25.95" /><path
             id="path146"
             style="fill:#fdfbc2;fill-opacity:1;fill-rule:nonzero;stroke:none"
             d="m 4037.05,2694.59 c 0,0 -242.53,-387.65 -223.09,-431.71 19.44,-44.06 202.49,278.03 223.09,431.71" /><path
             id="path148"
             style="fill:#fdfbc2;fill-opacity:1;fill-rule:nonzero;stroke:none"
             d="m 1801.69,2146.06 c 0,0 125.29,-332.84 172.68,-414.46 47.38,-81.63 -64.3,297.87 -114.27,379.39 -49.98,81.52 -75.52,80 -58.41,35.07" /><path
             id="path150"
             style="fill:#fdfbc2;fill-opacity:1;fill-rule:nonzero;stroke:none"
             d="m 3027.34,680.32 c 0,0 -181.21,-338.601 -172.06,-380.929 9.14,-42.321 114.97,173.148 144.78,230.871 29.82,57.718 123.13,253.957 124.57,269.347 1.44,15.391 -72.89,-23.089 -97.29,-119.289" /><path
             id="path152"
             style="fill:#fdfbc2;fill-opacity:1;fill-rule:nonzero;stroke:none"
             d="m 639.68,4444.73 c 0,0 125.633,-266.26 163.597,-338.41 37.973,-72.15 108.457,-56.92 62.911,50.84 -45.543,107.75 -123.829,247.84 -156.79,305.53 -32.96,57.68 -126.906,102.47 -69.718,-17.96" /><path
             id="path154"
             style="fill:#fdfbc2;fill-opacity:1;fill-rule:nonzero;stroke:none"
             d="m 3124.65,4791.05 c 0,0 -136.48,-143.71 -134.85,-323.11 1.63,-179.4 32.34,-145.03 37.54,-98.68 5.2,46.36 100.77,365.74 183.8,426.56 83.03,60.83 -56.3,32.13 -86.49,-4.77" /><path
             id="path156"
             style="fill:#fdfbc2;fill-opacity:1;fill-rule:nonzero;stroke:none"
             d="m 3000.06,4254.61 c 0,0 -24.38,-57.34 0,-89.14 24.39,-31.8 40.88,-2.5 40.88,25.45 0,27.96 3.46,132.41 -40.88,63.69" /><path
             id="path158"
             style="fill:#fdfbc2;fill-opacity:1;fill-rule:nonzero;stroke:none"
             d="m 881.008,4005.24 c -16.754,-30.84 -7.692,-112.71 22.34,-123.56 30.027,-10.85 37.832,40.2 36.929,76.23 -0.894,36.04 -33.558,94.66 -59.269,47.33" /><path
             id="path160"
             style="fill:#d9933b;fill-opacity:1;fill-rule:nonzero;stroke:none"
             d="m 3142.83,4113.82 c -14,52.85 -21.55,108.31 -21.55,165.56 0,40.3 3.7,79.7 10.8,118 -26.7,-71.2 -41.3,-148.4 -41.3,-228.9 0,-29.96 2.2,-59.4 6.11,-88.28 14.37,12.41 29.74,23.69 45.94,33.62" /><path
             id="path162"
             style="fill:#d9933b;fill-opacity:1;fill-rule:nonzero;stroke:none"
             d="m 3911.44,3651.26 c 7.01,-25.45 11.28,-52 12.5,-79.21 0.46,-10.17 0.28,-20.24 -0.38,-30.21 261.53,75.21 455.69,309.5 470.62,591.54 -55.37,-239.05 -243.64,-427 -482.74,-482.12" /><path
             id="path164"
             style="fill:#d9933b;fill-opacity:1;fill-rule:nonzero;stroke:none"
             d="m 3272.78,1090.58 c -356,0 -644.7,288.7 -644.7,644.8 0,92.64 19.68,180.65 54.89,260.25 -22.57,-4.12 -45.02,-2.22 -66.25,4.27 -48.03,-94.69 -75.14,-201.77 -75.14,-315.22 0,-385.5 312.5,-698 698,-698 27.6,0 54.8,1.601 81.5,4.8 l 46.8,92.3 c -32.4,1.8 -66.8,6.8 -95.1,6.8" /><path
             id="path166"
             style="fill:#fdfbc2;fill-opacity:1;fill-rule:nonzero;stroke:none"
             d="m 2282.58,5046.78 c 0,0 -230.9,-166.6 -422.5,-251 -191.5,-84.3 -503.6,-107.1 -731,-76.7 -227.4,30.4 -262.9,76.7 -262.9,76.7 l 4.898,23.9 c 28.199,-2.2 59.703,-4.5 94.203,-6.7 101.299,-6.6 229.099,-13 380.399,-16.8 335.1,-8.4 610,132.1 838.6,242.7 8.8,4.2 17.5,8.4 26.1,12.6 l 72.2,-4.7" /><path
             id="path168"
             style="fill:#b97135;fill-opacity:1;fill-rule:nonzero;stroke:none"
             d="m 5197.58,4697.58 c -783.4,315.2 -1612.6,472.7 -2441.7,472.7 -64,0 -128.1,-0.9 -192.1,-2.8 -4.4,-0.1 -8.8,-0.2 -13.3,-0.5 -628.2,-19.6 -1254.3,-129.8 -1858.203,-330.6 -127.097,-42.3 -253.199,-88.5 -378.199,-138.8 -230.5975,174.2 -330.7968,474.3 -253.7967,752.8 40.5977,16.3 81.2967,32.3 122.0977,47.9 -37.899,-200.9 -34.301,-391.5 131.699,-516.9 125,50.3 251.102,96.5 378.199,138.8 603.903,200.8 1230.003,311 1858.203,330.6 4.5,0.3 8.9,0.4 13.3,0.51 64,1.89 128.1,2.79 192.1,2.79 829.1,0 1658.3,-157.5 2441.7,-472.7 166,125.4 169.6,316 131.7,516.9 40.8,-15.6 81.5,-31.6 122.1,-47.9 77,-278.5 -23.2,-578.6 -253.8,-752.8" /><path
             id="path170"
             style="fill:#b97135;fill-opacity:1;fill-rule:nonzero;stroke:none"
             d="m 5197.58,4697.58 c -783.4,315.2 -1612.6,472.7 -2441.7,472.7 -64,0 -128.1,-0.9 -192.1,-2.8 -4.4,-0.1 -8.8,-0.2 -13.3,-0.5 -628.2,-19.6 -1254.3,-129.8 -1858.203,-330.6 -127.097,-42.3 -253.199,-88.5 -378.199,-138.8 -230.5975,174.2 -330.7968,474.3 -253.7967,752.8 40.5977,16.3 81.2967,32.3 122.0977,47.9 -37.899,-200.9 -34.301,-391.5 131.699,-516.9 125,50.3 251.102,96.5 378.199,138.8 603.903,200.8 1230.003,311 1858.203,330.6 4.5,0.3 8.9,0.4 13.3,0.51 64,1.89 128.1,2.79 192.1,2.79 829.1,0 1658.3,-157.5 2441.7,-472.7 166,125.4 169.6,316 131.7,516.9 40.8,-15.6 81.5,-31.6 122.1,-47.9 77,-278.5 -23.2,-578.6 -253.8,-752.8" /><path
             id="path172"
             style="fill:#9f5825;fill-opacity:1;fill-rule:nonzero;stroke:none"
             d="m 5295.73,4804.2 c -814.89,327.87 -1677.42,491.7 -2539.85,491.7 -66.57,0 -133.25,-0.94 -199.82,-2.92 -4.58,-0.1 -9.15,-0.2 -13.84,-0.52 C 1888.77,5272.08 1237.5,5157.45 609.328,4948.58 477.121,4904.57 345.949,4856.52 215.926,4804.2 c -13.969,10.55 -27.43,21.59 -40.465,32.99 38.848,-52.05 85.184,-99.24 138.617,-139.61 125,50.3 251.102,96.5 378.199,138.8 603.903,200.8 1230.003,311 1858.203,330.6 4.5,0.3 8.9,0.4 13.3,0.5 64,1.9 128.1,2.8 192.1,2.8 829.1,0 1658.3,-157.5 2441.7,-472.7 53.43,40.37 99.77,87.56 138.62,139.61 -13.04,-11.4 -26.5,-22.44 -40.47,-32.99" /><path
             id="path174"
             style="fill:#f8d7ba;fill-opacity:1;fill-rule:nonzero;stroke:none"
             d="m 5476.82,5276.27 c -1.19,58.09 -9.53,116.57 -25.44,174.11 -40.6,16.3 -81.3,32.3 -122.1,47.9 v 0 c 0.13,-0.68 0.25,-1.35 0.38,-2.04 -824.42,314.72 -1689.58,474.19 -2573.78,474.19 -884.29,0 -1749.47,-159.47 -2573.888,-474.19 0.129,0.68 0.258,1.36 0.387,2.04 v 0 c -40.801,-15.6 -81.5,-31.6 -122.0977,-47.9 -14.1563,-51.2 -22.3243,-103.13 -24.793,-154.88 2.289,52.57 10.4453,105.35 24.832,157.38 860.7967,346.3 1767.6997,521.9 2695.5997,521.9 927.8,0 1834.7,-175.6 2695.5,-521.9 16.14,-58.38 24.44,-117.69 25.4,-176.61" /><path
             id="path176"
             style="fill:#e1b169;fill-opacity:1;fill-rule:nonzero;stroke:none"
             d="m 164.48,5364.91 c 2.903,42.86 9.18,86.84 17.512,131.33 824.418,314.72 1689.598,474.19 2573.888,474.19 884.2,0 1749.36,-159.47 2573.78,-474.19 8.33,-44.47 14.61,-88.45 17.52,-131.3 -829.65,319.15 -1700.84,480.88 -2591.26,480.88 -890.58,0 -1761.744,-161.73 -2591.44,-480.91" /><path
             id="path178"
             style="fill:#d79b4f;fill-opacity:1;fill-rule:nonzero;stroke:none"
             d="m 5473.97,5199.79 c -3.8,41.53 -11.2,83.07 -22.55,124.14 -34.68,13.95 -69.42,27.62 -104.24,41.01 -2.91,42.85 -9.19,86.83 -17.52,131.3 -0.13,0.69 -0.25,1.36 -0.38,2.04 v 0 c 40.8,-15.6 81.5,-31.6 122.1,-47.9 15.91,-57.54 24.25,-116.02 25.44,-174.11 0.43,-25.6 -0.54,-51.14 -2.85,-76.48 m -5436.2044,0 c -2.8867,31.68 -3.6718,63.66 -2.2773,95.71 2.4687,51.75 10.6367,103.68 24.793,154.88 40.5977,16.3 81.2967,32.3 122.0977,47.9 v 0 c -0.129,-0.68 -0.258,-1.36 -0.387,-2.04 -8.332,-44.49 -14.609,-88.47 -17.512,-131.33 -34.773,-13.37 -69.5386,-27.05 -104.1597,-40.98 -11.3555,-41.07 -18.7539,-82.61 -22.5547,-124.14" /><path
             id="path180"
             style="fill:#f68c60;fill-opacity:1;fill-rule:nonzero;stroke:none"
             d="m 2201.76,2917.56 c -18.89,0 -37.24,1.69 -55.02,4.77 -5.7,-51.25 -15.85,-105.66 -31.26,-163.45 -6.9,-26 -12.6,-49.9 -17,-71.9 35.9,48.7 65.1,102.7 86.3,160.6 8.33,22.79 15.28,46.21 21.03,70.09 -1.35,-0.02 -2.7,-0.11 -4.05,-0.11" /><path
             id="path182"
             style="fill:#f68c60;fill-opacity:1;fill-rule:nonzero;stroke:none"
             d="m 3469.14,2326.93 c 4,-6.81 8.29,-13.45 12.7,-20.06 3.05,-4.59 5.73,-9.37 8.12,-14.28 93.33,-26.97 190.21,-75.88 287.22,-155.61 -80.7,101.2 -191.26,177.55 -318.36,215.79 4.17,-8.42 7.74,-17.05 10.32,-25.84" /><path
             id="path184"
             style="fill:#f68c60;fill-opacity:1;fill-rule:nonzero;stroke:none"
             d="m 4410.78,4279.38 c 0,-50.2 -5.7,-99.1 -16.6,-146 -43.8,682.2 -632.9,783 -632.9,783 l 36.9,6.9 c 341.1,-16.8 612.6,-298.6 612.6,-643.9" /><path
             id="path186"
             style="fill:#bb5f2f;fill-opacity:1;fill-rule:nonzero;stroke:none"
             d="m 4129.58,2965.68 c 0,125.4 101.77,364.16 -9.43,416.16 -3.97,1.86 -7.87,3.36 -11.72,4.67 12.51,-71.4 -24.5,-210.2 -24.5,-210.2 l -0.04,-0.04 c -8.02,-24.78 -19.42,-57.1 -33.11,-100.6 -34.6,-109.9 -17.3,-300.79 138.7,-368.79 l 57.1,112.7 2.6,5.1 c 15.2,-5.1 30.6,-8.5 46,-10.4 -48.9,12.4 -165.6,52.4 -165.6,151.4" /><path
             id="path188"
             style="fill:#d9933b;fill-opacity:1;fill-rule:nonzero;stroke:none"
             d="m 4536.58,3254.38 c -24.2,7.9 -39.1,6.1 -37.9,-11.4 5.5,-81.3 -88.6,-290.8 -163,-290.8 -68.46,0 -114.83,53.28 -86.4,135.15 l -0.18,-0.13 c 101.68,307.63 -140.68,299.31 -140.68,299.31 57.4,-29.84 65.78,-94.93 65.88,-129.64 0.42,-7.78 0.06,-15.48 -1.22,-22.89 -4.1,-24 -20.6,-63.8 -34.1,-110.4 -28,-96.7 -43.1,-222.5 92,-296.2 5.3,-2.9 10.5,-5.5 15.6,-7.8 64,-29.3 114.8,-17.3 154.2,11.5 58.8,42.9 91.7,123 103.9,158.2 3.1,8.9 4.8,14.9 5.3,16.7 l 0.1,0.5 c 3.5,23.5 5.1,49.3 4.5,77.6 -0.9,46.5 7.9,106.5 22,170.3" /><path
             id="path190"
             style="fill:#a21f26;fill-opacity:1;fill-rule:nonzero;stroke:none"
             d="m 3798.95,4942.46 c -11.7,0.55 -22.46,0.82 -32.9,0.82 -363.76,0 -659.71,-295.94 -659.71,-659.7 0,-61.48 8.64,-120.95 24.44,-177.45 8.62,5.79 17.5,11.17 26.59,16.15 -13.66,51.51 -21.03,105.55 -21.03,161.3 0,347.21 282.49,629.7 629.71,629.7 9.96,0 20.27,-0.26 31.46,-0.78 335.51,-16.53 598.34,-292.78 598.34,-628.92 0,-48.37 -5.46,-96.35 -16.21,-142.62 -55.63,-240.14 -241.63,-419.55 -473.75,-471.59 3.16,-9.46 5.9,-19.1 8.27,-28.87 242.43,54.98 436.55,242.65 494.69,493.68 11.28,48.48 17,98.74 17,149.4 0,352.15 -275.36,641.57 -626.9,658.88" /><path
             id="path192"
             style="fill:#a21f26;fill-opacity:1;fill-rule:nonzero;stroke:none"
             d="m 3901.13,1941.58 c -11.06,34.32 -24.87,67.65 -41.03,99.04 -19.87,38.71 -43.79,75.69 -71.12,109.91 -89.33,112.02 -209.9,189.97 -344.4,226.02 8.25,-11.68 15.15,-24.2 20.21,-37.21 117.06,-37.31 221.71,-108.43 300.74,-207.52 26.09,-32.67 48.92,-67.96 67.87,-104.91 14.33,-27.83 26.72,-57.25 36.88,-87.55 -31.18,-45.68 -225.22,-336.51 -376.95,-716.6 -11.48,-28.63 -23.24,-59.35 -34.97,-91.33 -8.53,-23.35 -34.48,-31.61 -89.58,-28.47 -12.85,0.71 -26.27,1.96 -39.26,3.17 -20.13,1.87 -39.13,3.65 -56.67,3.65 -347.22,0 -629.7,282.53 -629.7,629.8 0,91.08 19.22,179.13 56.08,260.08 -11.85,-3.74 -23.74,-5.75 -35.52,-6.17 -33.3,-79.65 -50.56,-165.43 -50.56,-253.91 0,-363.82 295.94,-659.8 659.7,-659.8 16.14,0 34.47,-1.71 53.89,-3.52 13.26,-1.23 26.97,-2.51 40.36,-3.26 6.27,-0.35 14.3,-0.81 23.28,-0.81 33.73,0 80.62,6.45 96.15,48.92 11.62,31.69 23.28,62.13 34.66,90.51 163.28,409.05 375.81,713.71 377.94,716.74 l 4.29,6.11 -2.29,7.11" /><path
             id="path194"
             style="fill:#a21f26;fill-opacity:1;fill-rule:nonzero;stroke:none"
             d="m 2201.76,2917.55 c -4.14,0 -8.21,0.17 -12.29,0.32 -5.23,-20.57 -11.38,-40.91 -18.7,-60.93 -20.53,-56.05 -48.89,-108.83 -84.29,-156.86 -118.49,-160.55 -308.12,-256.4 -507.23,-256.4 -33.99,0 -68.34,2.76 -102.08,8.2 -40.19,6.54 -79.71,17.02 -117.58,31.16 -26.47,56.91 -249.04,533.59 -395.473,782.6 86.053,22.57 176.633,113.9 176.633,215.04 0,70.92 18.71,121.04 54.11,144.91 31.4,21.19 76.24,20.96 129.66,-0.61 69.78,-28.29 139.69,-29.93 187,-4.39 31.26,16.88 52.89,45.27 63.06,82.57 24.06,0.2 48.73,-1.13 73.23,-3.78 1.25,10 3.08,19.86 5.38,29.58 -24.59,2.74 -49.35,4.22 -73.94,4.22 -5.53,0 -10.96,-0.1 -16.6,-0.2 h -12.31 l -2.4,-12.08 c -6.87,-34.6 -23.91,-59.47 -50.67,-73.91 -39.55,-21.34 -99.9,-19.17 -161.5,5.79 -63.09,25.5 -117.64,24.69 -157.69,-2.31 -44.05,-29.72 -67.33,-88.43 -67.33,-169.79 0,-94.84 -92.58,-179.75 -172.227,-189.52 l -22.929,-2.8 11.894,-19.81 c 153.602,-255.73 404.932,-798.22 407.452,-803.67 l 2.55,-5.52 5.68,-2.18 c 41.51,-15.97 84.96,-27.71 129.19,-34.91 35.35,-5.7 71.31,-8.59 106.89,-8.59 208.6,0 407.24,100.41 531.37,268.6 37.1,50.32 66.81,105.62 88.32,164.35 8.59,23.48 15.66,47.4 21.49,71.59 -6.21,-0.4 -12.44,-0.67 -18.67,-0.67" /><path
             id="path196"
             style="fill:#e1dabc;fill-opacity:1;fill-rule:nonzero;stroke:none"
             d="m 2617.45,3087.38 c -99.7,-112.1 -232.1,-180.3 -377.3,-180.3 -305.2,0 -553.5,301.2 -561.3,676.5 -0.1,6 -0.2,12 -0.2,18.1 0,116.3 23.1,226 64,322.3 57.4,135.4 149.9,244.5 262.5,308.7 -48.7,-54.5 -89.6,-119.5 -120.3,-192.1 -40.9,-96.3 -64,-206 -64,-322.3 0,-6.1 0.1,-12.1 0.2,-18.1 7.8,-375.3 256.1,-676.5 561.3,-676.5 83.9,0 163.6,22.8 235.1,63.7" /><path
             id="path198"
             style="fill:#e1dabc;fill-opacity:1;fill-rule:nonzero;stroke:none"
             d="m 3748.55,3077.18 c -90.6,-105.4 -213.3,-170.1 -348.2,-170.1 -257,0 -469.2,234.4 -501.6,538.1 v 0.1 c -2.8,26.4 -4.3,53.4 -4.3,80.8 0,21.9 0.9,43.5 2.7,64.8 5.9,69.1 21.1,134.7 44,195.1 v 0.1 c 13,34.5 28.5,67.2 46.3,97.8 52.2,90 123.5,162.1 206.7,207.6 -23.7,-27.6 -45.4,-58.1 -64.4,-91 -48.9,-84.4 -81,-184.5 -90.3,-293 -1.8,-21.3 -2.7,-42.9 -2.7,-64.8 0,-341.9 226.5,-619 505.9,-619 73.4,0 143,19.1 205.9,53.5" /><path
             id="path200"
             style="fill:#d1496e;fill-opacity:1;fill-rule:nonzero;stroke:none"
             d="m 3206.83,2119.68 c -204.6,114.3 -450.9,-0.9 -450.9,-0.9 -139.2,53.7 -358.5,15.5 -456.4,-6.1 47.7,70 123.2,127.3 242.1,120.5 l 244.9,-39.5 c 0,0 282.7,132.1 420.3,-74" /><path
             id="path202"
             style="fill:#d1ac39;fill-opacity:1;fill-rule:nonzero;stroke:none"
             d="m 1653.19,3728.96 v 0 c 0,0 -180.57,704.82 108.54,1031.63 35.23,10.23 68.28,21.95 98.35,35.19 75.92,33.45 158.01,79.79 229.46,123.57 25.47,2.68 52.17,4.06 80.2,4.06 4.95,0 10.01,-0.04 15.04,-0.13 606.2,-10.53 601.78,-1143.64 601.78,-1143.64 0,0 -25.45,88.6 -86.67,192.45 -99.48,194.57 -274.96,323.79 -474.83,323.79 v 0 c -7.79,0.41 -15.41,0.61 -23.01,0.61 -127.34,0 -229.09,-56.92 -308.65,-134.7 -68.91,-62.52 -125.86,-144.03 -165.84,-238.31 -0.97,-2.26 -1.91,-4.53 -2.86,-6.81 -49.72,-103.51 -71.51,-187.71 -71.51,-187.71" /><path
             id="path204"
             style="fill:#dee3df;fill-opacity:1;fill-rule:nonzero;stroke:none"
             d="m 1724.7,3916.67 c 0.95,2.28 1.89,4.55 2.86,6.81 39.98,94.28 96.93,175.79 165.84,238.31 -74.91,-73.24 -130.2,-164.97 -168.7,-245.12 m 975.19,55.42 c -83.33,141.37 -232.95,310.99 -474.83,323.79 v 0 c 199.87,0 375.35,-129.22 474.83,-323.79" /><path
             id="path206"
             style="fill:#dadd9e;fill-opacity:1;fill-rule:nonzero;stroke:none"
             d="m 1761.73,4760.59 c 74.44,84.14 180,143.22 327.81,158.76 -71.45,-43.78 -153.54,-90.12 -229.46,-123.57 -30.07,-13.24 -63.12,-24.96 -98.35,-35.19" /><path
             id="path208"
             style="fill:#d1ac39;fill-opacity:1;fill-rule:nonzero;stroke:none"
             d="m 2853.51,3686.14 c 0,0 -74.27,1199.83 531.76,1217.64 9.62,0.29 19.19,0.43 28.53,0.43 38.99,0 75.55,-2.44 109.78,-7.09 -235.25,-93.3 -404.54,-318.16 -416.55,-583.32 -10.64,-46.74 -16.25,-95.39 -16.25,-145.32 0,-29.96 2.2,-59.4 6.11,-88.28 14.22,12.28 29.42,23.46 45.43,33.31 3,-11.42 6.31,-22.77 9.91,-33.94 -230.17,-127.03 -298.72,-393.43 -298.72,-393.43 m 170.92,591.48 c -5.85,0 -13.73,-6.52 -24.37,-23.01 0,0 -24.38,-57.34 0,-89.14 7.54,-9.83 14.32,-13.82 20.1,-13.82 12.91,0 20.78,19.96 20.78,39.27 0,21.25 2,86.7 -16.51,86.7 m 198.25,553.49 c -26.24,0 -80.51,-18.65 -98.03,-40.06 0,0 -136.48,-143.71 -134.85,-323.11 0.94,-103.41 11.54,-135.79 21.35,-135.79 7.21,0 13.99,17.48 16.19,37.11 5.2,46.36 100.77,365.74 183.8,426.56 34.85,25.53 30.52,35.29 11.54,35.29" /><path
             id="path210"
             style="fill:#c22c2c;fill-opacity:1;fill-rule:nonzero;stroke:none"
             d="m 3877.15,3757.72 c -47.84,122.54 -146.6,302.15 -328.11,364.91 0.16,3.66 0.14,7.33 -0.08,10.98 -0.94,16.18 -13.11,30 -30,30 -13.98,0 -27.76,-11.21 -29.65,-25.33 -24.84,4.54 -51.02,6.98 -78.59,6.98 -8.35,0 -16.8,-0.23 -25.4,-0.68 v 0 c -57.64,0 -113.04,-11.8 -164.67,-33.53 -24.26,-9.08 -47.03,-19.67 -68.42,-31.48 -3.6,11.17 -6.91,22.52 -9.91,33.94 0.17,0.11 0.34,0.21 0.51,0.31 0,0.01 0,0.02 -0.01,0.03 0.17,0.1 0.33,0.2 0.49,0.3 4.63,2.82 9.32,5.53 14.06,8.13 v 0.01 c 33.27,18.24 69.47,30.95 106.76,36.79 -15.91,52.51 -24.55,108.18 -24.55,165.88 0,255.94 168.39,472.59 400.4,545.21 40.51,-13.82 76.77,-31.55 109.17,-52.54 -11.86,-4.05 -21.37,-15.48 -20.79,-28.44 0.73,-16.25 13.18,-30 30,-30 h 13.56 c 12.28,0 24.16,8.45 28.39,19.89 50.11,-43.63 88.68,-96.61 117.94,-155.58 v -24.21 c 0,-13.54 10.29,-26.6 23.52,-29.45 36.74,-95.36 53.1,-202.43 57.1,-309.19 -3.31,2.87 -7.14,4.97 -11.19,5.89 -2.68,0.61 -5.27,0.9 -7.76,0.9 -13.5,0 -23.97,-8.61 -29.14,-21.85 -4.29,-10.99 -8.57,-21.97 -12.86,-32.96 -6.9,-17.67 10.31,-37.99 28.02,-37.99 0.3,0 0.6,0.01 0.91,0.02 10.91,0.43 21.82,0.87 32.73,1.3 -1.26,-66.68 -6.63,-131.94 -14.08,-192.74 -0.38,-0.19 -0.76,-0.37 -1.14,-0.55 -16.16,-7.64 -23.42,-26.7 -21.6,-44.09 -4.37,-12.81 -3.54,-27.8 2.96,-38.9 1.93,-3.32 4.12,-6.21 6.51,-8.7 -7.33,-44.53 -15.34,-85.11 -22.97,-120.17 -23.48,-5.85 -47.57,-10.25 -72.11,-13.09 m -126.71,470 c -11.32,0 -21.89,-3.95 -30.11,-11.02 -11.02,-2.82 -20.95,-9.82 -27.88,-20.49 -11.1,-17.11 -19.17,-36.74 -22.83,-56.81 -3.49,-19.12 2.12,-41.01 20.68,-50.82 7.31,-3.86 14.79,-5.69 22.14,-5.69 11.52,0 22.7,4.49 32.39,12.73 23.21,19.71 39.32,46.54 48.24,75.47 6.94,22.49 -8.23,50.07 -31.43,55.35 -3.77,0.86 -7.53,1.28 -11.2,1.28 m -340.6,215.15 c -2.73,0 -5.48,-0.11 -8.25,-0.32 -21.64,-1.66 -35.81,-13.16 -43.39,-33.04 -4.17,-10.93 -8.34,-21.86 -12.51,-32.8 -8.4,-22.04 9.29,-50.31 31.43,-55.35 3.92,-0.89 7.72,-1.32 11.37,-1.32 9.31,0 17.68,2.76 24.8,7.61 3.55,-0.83 7.1,-1.46 10.58,-1.62 0.76,-0.03 1.52,-0.05 2.27,-0.05 23.44,0 44.94,16.2 51.57,38.72 6.3,21.38 -0.99,45.67 -17.63,60.44 -14.32,12.7 -31.8,17.73 -50.24,17.73 m 259.56,-90.76 c 6.53,-5.13 12.55,-8.79 21.21,-8.79 7.36,0 16.15,3.27 21.22,8.79 9.9,10.79 13.18,32.08 0,42.42 -15.07,11.82 -31.18,18.04 -49.05,18.04 -5.28,0 -10.72,-0.54 -16.33,-1.64 -15.42,-3.04 -25.68,-22.29 -20.95,-36.91 4.51,-13.95 16.08,-21.68 29.6,-21.68 2.39,0 4.83,0.24 7.3,0.73 l 0.27,0.06 0.74,-0.13 1.99,-0.11 0.14,-0.03 c 0.61,-0.25 3.31,-1.42 4.46,-1.77 0.93,-0.65 1.91,-1.27 2.06,-1.27 0.14,0 -0.48,0.58 -2.66,2.29 m -190.24,290.78 c -0.38,0 -0.75,-0.01 -1.13,-0.03 -16.12,-0.72 -30.16,-13.18 -30,-30 0.15,-14.6 0.29,-29.21 0.44,-43.81 0.18,-18.16 14.52,-29.41 30.23,-29.41 4.97,0 10.07,1.12 14.91,3.5 22.16,10.93 36.74,29.97 45.88,52.39 5.93,14.58 -6.44,33.6 -20.96,36.9 -2.7,0.62 -5.3,0.92 -7.79,0.92 -3.49,0 -6.75,-0.58 -9.77,-1.66 -5.31,6.62 -13.08,11.2 -21.81,11.2 m 236.24,23.63 c -11.28,0 -22.53,-2.83 -32.16,-8.89 -9.77,-6.15 -17.57,-15.62 -20.67,-26.89 -2.97,-10.77 -1.63,-25.12 4.53,-34.68 8.71,-13.5 24.1,-22.06 39.75,-22.14 4.74,-3.27 9.96,-5.79 14.43,-7.02 3.64,-1 7.68,-1.51 11.81,-1.51 8.1,0 16.53,1.96 22.87,6.05 9.6,6.19 18.06,15.42 20.68,26.89 l 1.6,11.96 c -0.02,8.13 -2.07,15.7 -6.14,22.72 -6.46,15 -23.16,26.9 -38.62,31.09 -5.86,1.59 -11.98,2.42 -18.08,2.42" /><path
             id="path212"
             style="fill:#c4634b;fill-opacity:1;fill-rule:nonzero;stroke:none"
             d="m 3388.49,4320.04 c -3.65,0 -7.45,0.43 -11.37,1.32 -22.14,5.04 -39.83,33.31 -31.43,55.35 4.17,10.94 8.34,21.87 12.51,32.8 7.58,19.88 21.75,31.38 43.39,33.04 2.77,0.21 5.52,0.32 8.25,0.32 18.44,0 35.92,-5.03 50.24,-17.73 16.64,-14.77 23.93,-39.06 17.63,-60.44 -6.63,-22.52 -28.13,-38.72 -51.57,-38.72 -0.75,0 -1.51,0.02 -2.27,0.05 -3.48,0.16 -7.03,0.79 -10.58,1.62 -7.12,-4.85 -15.49,-7.61 -24.8,-7.61" /><path
             id="path214"
             style="fill:#c4634b;fill-opacity:1;fill-rule:nonzero;stroke:none"
             d="m 3712.44,4082.89 c -7.35,0 -14.83,1.83 -22.14,5.69 -18.56,9.81 -24.17,31.7 -20.68,50.82 3.66,20.07 11.73,39.7 22.83,56.81 6.93,10.67 16.86,17.67 27.88,20.49 8.22,7.07 18.79,11.02 30.11,11.02 3.67,0 7.43,-0.42 11.2,-1.28 23.2,-5.28 38.37,-32.86 31.43,-55.35 -8.92,-28.93 -25.03,-55.76 -48.24,-75.47 -9.69,-8.24 -20.87,-12.73 -32.39,-12.73" /><path
             id="path216"
             style="fill:#c4634b;fill-opacity:1;fill-rule:nonzero;stroke:none"
             d="m 3733.09,4565.39 c -4.13,0 -8.17,0.51 -11.81,1.51 -4.47,1.23 -9.69,3.75 -14.43,7.02 -15.65,0.08 -31.04,8.64 -39.75,22.14 -6.16,9.56 -7.5,23.91 -4.53,34.68 3.1,11.27 10.9,20.74 20.67,26.89 9.63,6.06 20.88,8.89 32.16,8.89 6.1,0 12.22,-0.83 18.08,-2.42 15.46,-4.19 32.16,-16.09 38.62,-31.09 4.07,-7.02 6.12,-14.59 6.14,-22.72 l -1.6,-11.96 c -2.62,-11.47 -11.08,-20.7 -20.68,-26.89 -6.34,-4.09 -14.77,-6.05 -22.87,-6.05" /><path
             id="path218"
             style="fill:#c4634b;fill-opacity:1;fill-rule:nonzero;stroke:none"
             d="m 3972.23,3890.98 c -2.39,2.49 -4.58,5.38 -6.51,8.7 -6.5,11.1 -7.33,26.09 -2.96,38.9 -1.82,17.39 5.44,36.45 21.6,44.09 0.38,0.18 0.76,0.36 1.14,0.55 -3.93,-32.14 -8.46,-63.05 -13.27,-92.24" /><path
             id="path220"
             style="fill:#7d161a;fill-opacity:1;fill-rule:nonzero;stroke:none"
             d="m 3549.04,4122.63 c -19,6.57 -38.88,11.84 -59.73,15.65 1.89,14.12 15.67,25.33 29.65,25.33 16.89,0 29.06,-13.82 30,-30 0.22,-3.65 0.24,-7.32 0.08,-10.98" /><path
             id="path222"
             style="fill:#7d161a;fill-opacity:1;fill-rule:nonzero;stroke:none"
             d="m 3690.61,4343.32 c -8.66,0 -14.68,3.66 -21.21,8.79 2.18,-1.71 2.8,-2.29 2.66,-2.29 -0.15,0 -1.13,0.62 -2.06,1.27 -1.15,0.35 -3.85,1.52 -4.46,1.77 l -0.14,0.03 -1.99,0.11 -0.74,0.13 -0.27,-0.06 c -2.47,-0.49 -4.91,-0.73 -7.3,-0.73 -13.52,0 -25.09,7.73 -29.6,21.68 -4.73,14.62 5.53,33.87 20.95,36.91 5.61,1.1 11.05,1.64 16.33,1.64 17.87,0 33.98,-6.22 49.05,-18.04 13.18,-10.34 9.9,-31.63 0,-42.42 -5.07,-5.52 -13.86,-8.79 -21.22,-8.79" /><path
             id="path224"
             style="fill:#7d161a;fill-opacity:1;fill-rule:nonzero;stroke:none"
             d="m 3478.7,4539.64 c -15.71,0 -30.05,11.25 -30.23,29.41 -0.15,14.6 -0.29,29.21 -0.44,43.81 -0.16,16.82 13.88,29.28 30,30 0.38,0.02 0.75,0.03 1.13,0.03 8.73,0 16.5,-4.58 21.81,-11.2 3.02,1.08 6.28,1.66 9.77,1.66 2.49,0 5.09,-0.3 7.79,-0.92 14.52,-3.3 26.89,-22.32 20.96,-36.9 -9.14,-22.42 -23.72,-41.46 -45.88,-52.39 -4.84,-2.38 -9.94,-3.5 -14.91,-3.5" /><path
             id="path226"
             style="fill:#7d161a;fill-opacity:1;fill-rule:nonzero;stroke:none"
             d="m 3941.77,4569.84 c -13.23,2.85 -23.52,15.91 -23.52,29.45 v 24.21 c 8.63,-17.39 16.46,-35.32 23.52,-53.66" /><path
             id="path228"
             style="fill:#7d161a;fill-opacity:1;fill-rule:nonzero;stroke:none"
             d="m 3771.92,4759.19 h -13.56 c -16.82,0 -29.27,13.75 -30,30 -0.58,12.96 8.93,24.39 20.79,28.44 18.28,-11.85 35.27,-24.71 51.16,-38.55 -4.23,-11.44 -16.11,-19.89 -28.39,-19.89" /><path
             id="path230"
             style="fill:#7d161a;fill-opacity:1;fill-rule:nonzero;stroke:none"
             d="m 3965.94,4174.64 c -17.71,0 -34.92,20.32 -28.02,37.99 4.29,10.99 8.57,21.97 12.86,32.96 5.17,13.24 15.64,21.85 29.14,21.85 2.49,0 5.08,-0.29 7.76,-0.9 4.05,-0.92 7.88,-3.02 11.19,-5.89 1.06,-28.32 1.25,-56.65 0.71,-84.69 -10.91,-0.43 -21.82,-0.87 -32.73,-1.3 -0.31,-0.01 -0.61,-0.02 -0.91,-0.02" /><path
             id="path232"
             style="fill:#dee3df;fill-opacity:1;fill-rule:nonzero;stroke:none"
             d="m 3220.65,4111.05 c 51.63,21.73 107.03,33.53 164.67,33.53 v 0 c -61.23,-3.24 -115.92,-15.3 -164.67,-33.53" /><path
             id="path234"
             style="fill:#971c1f;fill-opacity:1;fill-rule:nonzero;stroke:none"
             d="m 3906.77,3669.57 c -6.09,21.71 -15.7,52.51 -29.62,88.15 24.54,2.84 48.63,7.24 72.11,13.09 -8.77,-40.33 -17.05,-73.31 -23.24,-96.58 -6.37,-1.65 -12.81,-3.21 -19.25,-4.66 m -763.95,444.28 v 0 c 0.17,0.1 0.33,0.2 0.49,0.3 -0.16,-0.1 -0.32,-0.2 -0.49,-0.3 m 14.55,8.44 c -13.66,51.5 -21.03,105.54 -21.03,161.29 0,283.7 188.61,524.19 447.01,602.68 19.72,-4.56 38.62,-9.95 56.63,-16.09 -232.01,-72.62 -400.4,-289.27 -400.4,-545.21 0,-57.7 8.64,-113.37 24.55,-165.88 -37.29,-5.84 -73.49,-18.55 -106.76,-36.79" /><path
             id="path236"
             style="fill:#dadd9e;fill-opacity:1;fill-rule:nonzero;stroke:none"
             d="m 3011.15,4332.15 c -9.81,0 -20.41,32.38 -21.35,135.79 -1.63,179.4 134.85,323.11 134.85,323.11 17.52,21.41 71.79,40.06 98.03,40.06 18.98,0 23.31,-9.76 -11.54,-35.29 -83.03,-60.82 -178.6,-380.2 -183.8,-426.56 -2.2,-19.63 -8.98,-37.11 -16.19,-37.11" /><path
             id="path238"
             style="fill:#dadd9e;fill-opacity:1;fill-rule:nonzero;stroke:none"
             d="m 3020.16,4151.65 c -5.78,0 -12.56,3.99 -20.1,13.82 -24.38,31.8 0,89.14 0,89.14 10.64,16.49 18.52,23.01 24.37,23.01 18.51,0 16.51,-65.45 16.51,-86.7 0,-19.31 -7.87,-39.27 -20.78,-39.27" /><path
             id="path240"
             style="fill:#b47420;fill-opacity:1;fill-rule:nonzero;stroke:none"
             d="m 3096.89,4080.2 c -3.91,28.88 -6.11,58.32 -6.11,88.28 0,49.93 5.61,98.58 16.25,145.32 -0.45,-10.01 -0.69,-20.1 -0.69,-30.22 0,-61.48 8.64,-120.95 24.44,-177.45 3.96,2.66 7.98,5.23 12.04,7.72 v 0 c 0.01,-0.01 0.01,-0.02 0.01,-0.03 -0.17,-0.1 -0.34,-0.2 -0.51,-0.31 -16.01,-9.85 -31.21,-21.03 -45.43,-33.31" /><path
             id="path242"
             style="fill:#b47420;fill-opacity:1;fill-rule:nonzero;stroke:none"
             d="m 3915.29,3635.99 c 0,0 -0.33,1.57 -1.01,4.53 0.84,0.19 1.69,0.39 2.53,0.58 -0.99,-3.37 -1.52,-5.11 -1.52,-5.11" /><path
             id="path244"
             style="fill:#7d161a;fill-opacity:1;fill-rule:nonzero;stroke:none"
             d="m 3914.28,3640.52 c -1.25,5.4 -3.69,15.43 -7.51,29.05 6.44,1.45 12.88,3.01 19.25,4.66 -4.2,-15.78 -7.44,-27.07 -9.21,-33.13 -0.84,-0.19 -1.69,-0.39 -2.53,-0.58 m -783.5,465.61 c -15.8,56.5 -24.44,115.97 -24.44,177.45 0,10.12 0.24,20.21 0.69,30.22 12.01,265.16 181.3,490.02 416.55,583.32 20.78,-2.82 40.66,-6.45 59.77,-10.86 -258.4,-78.49 -447.01,-318.98 -447.01,-602.68 0,-55.75 7.37,-109.79 21.03,-161.29 v -0.01 c -4.74,-2.6 -9.43,-5.31 -14.06,-8.13 -0.16,-0.1 -0.32,-0.2 -0.49,-0.3 -4.06,-2.49 -8.08,-5.06 -12.04,-7.72" /><path
             id="path246"
             style="fill:#c22c2c;fill-opacity:1;fill-rule:nonzero;stroke:none"
             d="m 3277.72,1785.85 h -267.94 c 1.87,1.88 3.69,3.81 5.45,5.77 25.58,28.47 8.6,76.66 -31.81,76.82 -10.81,0.05 -21.61,0.09 -32.41,0.14 -2.94,16.16 -13.66,30.24 -30.62,35.33 116.62,-10.08 239.52,-43.99 357.33,-118.06 m -420.37,0 H 2713.9 c -0.73,39.48 0.92,77.88 3.93,113.76 39.46,4.82 80.79,7.67 123.39,7.67 20.09,0 40.46,-0.63 61.05,-1.99 -17.63,-2.28 -34.38,-14.52 -38.26,-32.52 -5.22,-24.26 -12.29,-58.94 -6.66,-86.92" /><path
             id="path248"
             style="fill:#c4634b;fill-opacity:1;fill-rule:nonzero;stroke:none"
             d="m 3009.78,1785.85 h -152.43 c -5.63,27.98 1.44,62.66 6.66,86.92 3.88,18 20.63,30.24 38.26,32.52 6.03,-0.4 12.06,-0.86 18.12,-1.38 16.96,-5.09 27.68,-19.17 30.62,-35.33 10.8,-0.05 21.6,-0.09 32.41,-0.14 40.41,-0.16 57.39,-48.35 31.81,-76.82 -1.76,-1.96 -3.58,-3.89 -5.45,-5.77" /><path
             id="path250"
             style="fill:#d1ac39;fill-opacity:1;fill-rule:nonzero;stroke:none"
             d="m 2548.87,1785.85 h -209.89 c 0,0 90.45,48.99 227.66,84.74 -7.61,-27.6 -13.57,-55.88 -17.77,-84.74" /><path
             id="path252"
             style="fill:#971c1f;fill-opacity:1;fill-rule:nonzero;stroke:none"
             d="m 2713.9,1785.85 h -69.08 c 2.59,35.8 8.18,71.02 16.68,105.39 18.28,3.19 37.09,6.01 56.33,8.37 -3.01,-35.88 -4.66,-74.28 -3.93,-113.76" /><path
             id="path254"
             style="fill:#b47420;fill-opacity:1;fill-rule:nonzero;stroke:none"
             d="m 2614.74,1785.85 h -65.87 c 4.2,28.86 10.16,57.14 17.77,84.74 19.92,5.19 40.78,10.08 62.54,14.52 -7.29,-32.46 -12.13,-65.62 -14.44,-99.26" /><path
             id="path256"
             style="fill:#7d161a;fill-opacity:1;fill-rule:nonzero;stroke:none"
             d="m 2644.82,1785.85 h -30.08 c 2.31,33.64 7.15,66.8 14.44,99.26 10.57,2.16 21.36,4.21 32.32,6.13 -8.5,-34.37 -14.09,-69.59 -16.68,-105.39" /><path
             id="path258"
             style="fill:#fdfbc2;fill-opacity:1;fill-rule:nonzero;stroke:none"
             d="m 3465.01,2802.68 c 0,0 169,174.23 426.11,142.16 l -426.11,-142.16" /><path
             id="path260"
             style="fill:#100f0d;fill-opacity:1;fill-rule:nonzero;stroke:none"
             d="m 5191.87,4731.79 c -778.37,310.38 -1597.84,467.73 -2436.09,467.73 -64.3,0 -128.47,-1.04 -192.54,-2.89 v 0.01 l -0.5,-0.02 c -771,-22.32 -1524.55,-178.32 -2243.052,-464.83 -201.895,162.2 -292.9966,433.9 -230.0903,686.9 851.7733,340.26 1748.6923,512.77 2666.1823,512.77 917.48,0 1814.4,-172.51 2666.18,-512.77 62.91,-253 -28.2,-524.7 -230.09,-686.9 z M 866.141,4849.31 c 456.779,138.94 925.599,226.58 1402.139,262.05 -40.97,-18.61 -83.35,-39.11 -127.45,-60.49 -225.6,-109.39 -481.29,-233.35 -794.32,-225.51 -206.09,5.17 -369.104,15.23 -480.369,23.95 z M 4627.43,3643.28 c -51.5,-116.4 -151,-411.4 -147.8,-565.7 2.1,-106.2 -28.7,-183.2 -86.7,-216.9 -49.4,-28.6 -117.8,-23.8 -178.4,12.6 -93.1,55.8 -56.2,192.1 -13.6,304.7 1.8,5 3.6,9.5 5,13.5 25,67.8 -1.2,144.3 -60.9,177.9 -8.78,4.97 -18.43,9 -28.81,11.86 v 0 c 41.74,-43.17 35.21,-112.08 28.77,-145.73 -0.74,-6.64 -2.26,-13.3 -4.66,-19.83 -1.5,-3.8 -3.1,-8.2 -4.9,-13 -30.7,-81 -112.2,-296.3 43.1,-389.5 7.4,-4.4 14.8,-8.4 22.4,-12.1 l -358.9,-708.8 -32.1,-63.4 c 17.1,-30.7 31.8,-63.2 43.6,-97.3 -45.3,-67.1 -258.8,-393.8 -409.4,-805 -7.9,-21.6 -47.3,-21.3 -99.4,-16.8 l -29.2,-57.6 -473.9,-936 c -14.6,-28.8011 -42.7,-46.098 -75,-46.1995 h -0.2 c -32.3,0 -60.4,17.1992 -75,45.8985 l -559.2,1094.201 c 13,5.3 25.2,12.2 36.2,20.8 47.1,36.6 93.7,203.2 -50.3,267.2 0,0 80.5,-155 7.4,-211.9 -37.4,-29.1 -90.5,-20 -127.7,-1.9 -46.1,22.6 -75.9,61 -75.9,97.7 0,151.9 -303.3,812.7 -394.8,1008.8 l -28.7,63.1 c -43.7,5.8 -86.5,16.1 -127.9,31.1 -35.1,75.3 -239.1,510.5 -381.6,757.7 85.7,31.4 171.7,123 171.7,228 0,63 16.1,108.6 45.3,128.3 32.4,21.8 78.2,10.7 111,-2.6 91.2,-36.9 177.3,-31.3 230.4,14.8 16.5,14.4 33,35.7 43.4,66.7 l 10.3,59.8 c -0.4,53.1 -80.7,110.7 -80.7,110.7 14.3,-56.9 22.1,-148.6 -18.9,-184.3 -31.9,-27.7 -94,-28.8 -158.3,-2.8 -87.9,35.5 -144.4,17.3 -176.3,-4.2 -34.8,-23.5 -76.2,-74.8 -76.2,-186.4 0,-75.2 -67.9,-143.7 -130.7,-164.2 -27.403,-8.9 -64.903,-12.7 -88.2,19.3 -34.703,47.7 -48.601,167.8 -62,284 -13.902,120.1 -28.3,244.2 -67.703,321.4 l -379.3,742.3 c 110.101,43.5 221.101,84.1 332.8,121.5 43.903,-5.1 277.602,-30.3 649.203,-39.6 9.9,-0.2 19.6,-0.4 29.3,-0.4 317,0 582.7,128.8 797.3,232.9 151.4,73.4 282.1,136.7 392,138.7 64,1.9 128.2,2.9 192.4,2.9 823.3,0 1628.2,-153.5 2393.2,-456.1 -101.1,-198.9 -510.9,-1006.1 -521.5,-1030.1 z m 857.64,1810.67 c -2.91,10.51 -10.55,19.07 -20.68,23.14 -864.97,347.95 -1776.28,524.37 -2708.61,524.37 -932.33,0 -1843.647,-176.42 -2708.6159,-524.37 -10.125,-4.07 -17.7696,-12.63 -20.6758,-23.14 -79.7891,-288.7 24.6367,-602.91 259.8597,-784.86 l 393.34,-769.81 c 33.652,-65.86 47.292,-183.64 60.484,-297.54 15.164,-130.92 29.484,-254.58 74.961,-317.11 25.828,-35.51 64.652,-54.24 109.258,-54.24 l 2.261,0.1 c 153.848,-262.4 392.148,-776.65 394.598,-781.95 3.28,-7.09 9.2,-12.62 16.49,-15.42 34.76,-13.31 70.4,-23.49 106.66,-30.84 115.83,-245.59 407.48,-891.76 407.48,-1020.31 0,-64.24 44.15,-125.75 115.23,-160.54 30.74,-15.05 62.49,-22.87 92.9,-23.77 L 2629.05,84.0508 C 2655.56,32.1797 2708.17,0 2766.42,0 h 0.3 c 58.35,0.109375 110.97,32.5195 137.33,84.582 l 487.54,962.808 c 47.54,0.42 91.72,11.65 108.91,58.56 v 0 c 165.61,452.09 408.34,800.28 410.77,803.74 5.4,7.69 6.89,17.47 4.02,26.42 -9.1,28.31 -19.99,55.63 -32.39,81.96 l 384.51,759.41 c 17.61,-3.8 35.19,-5.73 52.47,-5.73 38.41,0 75.4,9.43 108.14,28.41 46.96,27.22 125.2,99.65 121.54,278.87 -2.79,136.86 89.44,417.36 141.81,535.84 10.9,24.01 351.9,696 533.86,1054.23 235.21,181.95 339.63,496.15 259.84,784.85" /><path
             id="path262"
             style="fill:#100f0d;fill-opacity:1;fill-rule:nonzero;stroke:none"
             d="m 1716.03,3525.33 c -1.9,20.2 -3.1,40.7 -3.4,61.4 -0.2,4.8 -0.2,9.7 -0.2,14.5 0,359.2 237.6,651.5 529.7,651.5 292.1,0 529.7,-292.3 529.7,-651.5 0,-343.7 -217.5,-626.1 -492.2,-649.9 -12.4,-1.1 -24.9,-1.6 -37.5,-1.6 -7.5,0 -15,0.2 -22.5,0.6 -261,13.5 -473.8,260.4 -503.6,575 z m 512,-633.9 c 17.4,0 34.7,0.9 51.7,2.7 307,31.5 548,341.4 548,718.8 0,398.5 -268.5,721.5 -599.7,721.5 -331.2,0 -599.7,-323 -599.7,-721.5 0,-6 0.1,-12 0.3,-18 0.3,-20.3 1.4,-40.4 3.2,-60.3 17.8,-197.6 101.8,-371 224.9,-488 -44.9,5.7 -87.1,5.5 -122.9,2.1 -37.4,-3.7 -67.9,-10.7 -88.8,-17.1 -10.4,-2.9 -18.5,-6.1 -23.9,-8.2 -5.4,-2.1 -8.2,-3.5 -8.2,-3.5 0,0 3,-0.1 8.8,-0.4 5.8,-0.4 14.2,-0.9 24.9,-1.6 21.2,-1.7 51.2,-4.6 86.4,-9.6 17.6,-2.6 36.6,-5.5 56.3,-9.5 19.8,-3.6 40.5,-8.4 61.6,-13.7 21,-5.4 42.5,-11.6 64.1,-18.7 10.8,-3.3 21.3,-7.8 32.2,-11.3 10.6,-4.3 21.4,-8.1 31.9,-12.8 10.5,-4.6 21.2,-8.8 31.4,-14 5.1,-2.5 10.2,-4.9 15.4,-7.3 5.1,-2.6 10.1,-5.2 15.1,-7.8 10.1,-5.1 19.9,-10.6 29.5,-16.1 9.9,-5.2 19,-11.2 28.3,-16.9 9.4,-5.4 18.1,-11.6 26.9,-17.3 4.3,-2.9 8.7,-5.8 12.9,-8.6 4.2,-3.1 8.3,-6.1 12.3,-9 16.6,-11.4 31.3,-23.6 45.5,-34.3 4.2,-3.5 8.3,-6.9 12.2,-10.1 2.5,-2.2 5,-4.3 7.5,-6.3 3.2,-2.6 6.3,-5.1 9.3,-7.6 2.9,-2.5 5.7,-5 8.4,-7.5 9.6,-8.7 19,-16 26.3,-22.8 l 2.5,-2.4 c 7.6,-7.4 14.2,-12.8 18.5,-16.7 3.9,-3.3 6.2,-5.3 6.7,-5.7 -0.2,0.6 -1.4,3.4 -3.4,8 -2.5,5.3 -5.8,13.2 -10.8,22.9 -2.3,4.9 -5.2,10.2 -8.4,15.9 -3.2,5.7 -6.9,11.8 -10.8,18.3 -7.5,13.3 -18,26.8 -28.9,42.2 -3,3.7 -6.1,7.5 -9.2,11.3 -9.3,11.3 -19.3,23.2 -30.9,34.6 -2.9,3 -5.9,6.1 -8.9,9.2 14.3,-1.5 28.6,-2.5 43.1,-2.8 2.8,-0.1 5.6,-0.1 8.4,-0.1" /><path
             id="path264"
             style="fill:#100f0d;fill-opacity:1;fill-rule:nonzero;stroke:none"
             d="m 3643.23,3033.33 c -2.5,-0.7 -4.9,-1.3 -7.4,-1.9 -12.1,-3.2 -24.1,-7.1 -36.2,-11 -11.8,-4.5 -23.9,-8.6 -35.6,-13.6 -11.7,-5.2 -23.4,-10.1 -34.7,-16.1 -11.4,-5.5 -22.5,-11.6 -33.2,-18.2 -5.4,-3.2 -10.8,-6.2 -16.1,-9.6 -3.2,-2.2 -6.4,-4.4 -9.7,-6.6 -23.2,-4.3 -47,-6.6 -71.2,-6.6 -261.7,0 -474.6,262.5 -474.6,585.2 0,198.4 80.5,374 203.3,479.8 17.3,15.1 35.5,28.7 54.5,40.7 65,41.4 138.7,64.7 216.8,64.7 261.7,0 474.6,-262.5 474.6,-585.2 0,-4.5 0,-9 -0.2,-13.5 -0.3,-20.5 -1.5,-40.8 -3.6,-60.8 -13.7,-133.1 -63.9,-252.3 -137.7,-342 -14.9,-18.2 -30.8,-35.2 -47.6,-50.8 -13.3,-12.4 -27.1,-23.9 -41.4,-34.5 z m 305.9,-9.9 c -5.5,2.1 -13.5,5.3 -24,8.2 -3.7,1.1 -7.7,2.3 -12,3.4 -19.9,5.4 -46,10.7 -76.8,13.7 -28.8,2.7 -61.8,3.4 -96.9,0.6 14.4,14.9 28.2,30.6 41.2,47.2 78.5,99.8 131.2,229.2 145.2,372.8 2.1,20.5 3.3,41.2 3.6,62.2 0.2,5 0.2,10.1 0.2,15.1 0,361.9 -243.8,655.2 -544.6,655.2 -73.3,0 -143.1,-17.4 -206.9,-49 -20.8,-10.2 -40.9,-21.9 -60.2,-35.2 -165.7,-112.2 -277.5,-325.9 -277.5,-571 0,-361.8 243.8,-655.2 544.6,-655.2 2.1,0 4.1,0.2 6.1,0.2 -2.1,-2.1 -4.3,-4.3 -6.4,-6.5 -15.4,-15.3 -28.1,-31.4 -40,-45.9 -10.9,-15.4 -21.4,-28.9 -29,-42.2 -7.7,-13.1 -14.6,-24.3 -19.2,-34.2 -4.9,-9.7 -8.2,-17.6 -10.7,-22.9 -2,-4.6 -3.2,-7.4 -3.4,-8 0.5,0.4 2.8,2.4 6.7,5.7 4.3,3.9 10.8,9.3 18.5,16.7 7.5,7.5 18,15.4 28.8,25.2 2.7,2.5 5.5,5 8.4,7.5 3,2.5 6.1,5 9.3,7.6 6.2,5.2 12.8,10.6 19.7,16.4 14.2,10.7 28.9,22.9 45.4,34.3 4.1,2.9 8.2,5.9 12.3,9 4.3,2.8 8.6,5.7 13,8.6 8.8,5.7 17.4,11.9 26.9,17.3 9.2,5.7 18.4,11.7 28.2,16.9 9.7,5.5 19.4,11 29.5,16.1 3.1,1.6 6.2,3.2 9.2,4.7 24.8,8.8 48.8,19.6 72,32.2 4.2,1.7 8.5,3.3 12.7,5 10.9,3.5 21.4,8 32.2,11.3 21.5,7.1 43,13.3 64.1,18.7 21.1,5.3 41.7,10.1 61.5,13.7 19.8,4 38.7,6.9 56.3,9.5 35.3,5 65.3,7.9 86.5,9.6 10.7,0.7 19.1,1.2 24.8,1.6 5.8,0.3 8.9,0.4 8.9,0.4 0,0 -2.8,1.4 -8.2,3.5" /><path
             id="path266"
             style="fill:#100f0d;fill-opacity:1;fill-rule:nonzero;stroke:none"
             d="m 2308.01,3466.88 c -36.39,0 -65.88,29.49 -65.88,65.88 0,36.38 29.49,65.88 65.88,65.88 36.38,0 65.88,-29.5 65.88,-65.88 0,-36.39 -29.5,-65.88 -65.88,-65.88 z m -65.88,189.27 c -104.54,0 -189.28,-84.74 -189.28,-189.27 0,-104.53 84.74,-189.28 189.28,-189.28 104.53,0 189.27,84.75 189.27,189.28 0,104.53 -84.74,189.27 -189.27,189.27" /><path
             id="path268"
             style="fill:#100f0d;fill-opacity:1;fill-rule:nonzero;stroke:none"
             d="m 3465.01,3423.67 c -36.39,0 -65.88,29.5 -65.88,65.88 0,36.39 29.49,65.88 65.88,65.88 36.38,0 65.88,-29.49 65.88,-65.88 0,-36.38 -29.5,-65.88 -65.88,-65.88 z m -65.88,189.28 c -104.53,0 -189.28,-84.74 -189.28,-189.28 0,-104.53 84.75,-189.27 189.28,-189.27 104.53,0 189.27,84.74 189.27,189.27 0,104.54 -84.74,189.28 -189.27,189.28" /><path
             id="path270"
             style="fill:#100f0d;fill-opacity:1;fill-rule:nonzero;stroke:none"
             d="m 1667.39,4651.44 c 0,0 424.17,312.13 922.93,0 0,0 -136.21,347.13 -461.46,347.13 -367.73,0 -461.47,-347.13 -461.47,-347.13" /><path
             id="path272"
             style="fill:#100f0d;fill-opacity:1;fill-rule:nonzero;stroke:none"
             d="m 3903.74,4651.44 c 0,0 -424.17,312.13 -922.94,0 0,0 136.22,347.13 461.47,347.13 367.72,0 461.47,-347.13 461.47,-347.13" /><path
             id="path274"
             style="fill:#100f0d;fill-opacity:1;fill-rule:nonzero;stroke:none"
             d="m 2430.89,1847.9 c 0,0 10.92,5.54 30.91,13.07 10.02,3.54 22.2,8.2 36.44,12.21 14.18,4.49 30.32,8.77 48.06,13.18 17.78,3.88 37.1,8.4 57.71,11.65 10.31,1.65 20.91,3.34 31.74,5.07 10.86,1.55 21.99,2.63 33.3,3.98 22.63,2.85 46.11,4.1 69.98,5.53 23.87,1.35 48.14,1.16 72.42,1.57 24.25,-0.8 48.51,-1.35 72.34,-2.85 23.8,-1.82 47.19,-4.12 69.76,-6.53 22.53,-3.11 44.24,-6.5 64.76,-9.9 20.53,-3.37 39.72,-8.1 57.45,-12 17.7,-4.12 33.87,-7.99 48.02,-12.46 14.21,-4.04 26.47,-8.17 36.57,-11.43 10.12,-3.17 17.95,-6.21 23.33,-8.04 5.34,-1.99 8.19,-3.05 8.19,-3.05 0,0 -3.05,-0.12 -8.78,-0.34 -5.7,-0.06 -14.11,-0.49 -24.67,-0.35 -10.58,0.04 -23.42,-0.07 -38.01,0.5 -14.58,0.64 -31.14,0.21 -49.04,0.67 -17.93,0.2 -37.21,1.37 -57.65,1.56 -20.44,0.32 -41.92,0.83 -64.09,1.77 -22.21,0.23 -45.11,0.54 -68.34,1.45 -23.25,0.13 -46.84,0.55 -70.43,1.02 -23.59,0.1 -47.18,0.21 -70.4,0.32 -23.2,-0.41 -46.1,0.16 -68.22,-0.4 -11.09,-0.08 -21.99,-0.16 -32.65,-0.24 -10.68,-0.22 -21.12,-0.43 -31.28,-0.64 -20.4,-0.07 -39.6,-1.01 -57.48,-1.17 -17.88,-0.51 -34.28,-0.98 -48.81,-1.39 -14.61,-0.52 -27.36,-0.96 -37.86,-1.33 -21.17,-0.91 -33.27,-1.43 -33.27,-1.43" /><path
             id="path276"
             style="fill:#100f0d;fill-opacity:1;fill-rule:nonzero;stroke:none"
             d="m 2282.19,1977.09 -65.42,24.9 c 1.4,3.68 35.29,90.97 121.14,162.5 78.01,65.01 214.51,128.73 424.27,67.65 46.87,17.17 218.11,70.98 364.53,1.55 88.9,-42.16 150.99,-120.96 184.57,-234.2 l -67.11,-19.9 c -27.64,93.23 -77.15,157.39 -147.15,190.71 -139.28,66.26 -318.15,-6.7 -319.93,-7.43 l -11.7,-4.87 -12.14,3.73 c -354.49,109.69 -466.47,-172.56 -471.06,-184.64" /><path
             id="path278"
             style="fill:#100f0d;fill-opacity:1;fill-rule:nonzero;stroke:none"
             d="m 3453.7,1989.77 c 27.69,-5.18 55.45,4.23 74.2,25.26 18.84,21.12 25.08,49.91 16.7,77 -53.52,173.08 -180.25,395.27 -242.62,449.03 -167.21,144.08 -802.07,176.48 -1032.39,14.21 -87.54,-61.77 -209.15,-277.45 -260.23,-461.54 -7.57,-27.3 -0.52,-55.9 18.84,-76.51 19.14,-20.37 46.89,-29.1 74.19,-23.29 544.49,115.11 1080.35,46.81 1351.31,-4.16 z m 15.26,-71.43 c -9.33,0 -18.77,0.87 -28.2,2.64 -265.83,50 -791.3,117.07 -1323.89,4.47 -51.44,-10.9 -103.67,5.51 -139.69,43.83 -36.24,38.58 -49.43,92.08 -35.28,143.15 56.56,203.84 185.47,428.15 287.35,500.05 114.65,80.77 330.01,125.96 576.36,120.68 188.65,-3.98 430.12,-42.61 542.07,-139.07 79.1,-68.18 209.76,-306.61 263.79,-481.37 15.7,-50.73 4,-104.68 -31.32,-144.28 -28.84,-32.35 -69.01,-50.1 -111.19,-50.1" /><path
             id="path280"
             style="fill:#100f0d;fill-opacity:1;fill-rule:nonzero;stroke:none"
             d="m 1842.82,2111.35 c 0,0 0.55,-1.7 1.59,-4.86 0.88,-3.15 2.68,-7.72 4.36,-13.45 3.83,-11.45 9.23,-27.49 15.97,-45.87 3.54,-9.14 7.14,-18.96 11.54,-28.93 4.18,-10.03 8.99,-20.26 14.23,-30.44 5.09,-10.28 11.29,-20.07 17.37,-29.92 6.72,-9.35 13.2,-18.97 21.1,-27.16 3.55,-4.49 7.86,-8.13 11.7,-12.28 4.45,-3.41 8.16,-7.74 12.73,-10.92 4.45,-3.32 8.73,-6.88 13.43,-9.8 l 6.87,-4.58 c 2.44,-1.26 4.78,-2.7 7.15,-4.06 4.6,-3.01 9.63,-5.05 14.44,-7.51 4.73,-2.65 9.75,-4.41 14.6,-6.44 2.44,-1.04 4.85,-2.06 7.22,-3.06 2.46,-0.83 4.89,-1.64 7.27,-2.43 4.81,-1.6 9.42,-3.54 14.06,-4.75 9.24,-2.54 17.87,-5.47 25.79,-7.13 7.88,-1.87 14.91,-4.17 20.78,-5.19 5.86,-1.12 10.58,-2.55 13.8,-3.29 3.24,-0.9 4.97,-1.38 4.97,-1.38 0,0 -1.62,-0.72 -4.67,-2.06 -3.07,-1.17 -7.58,-3.24 -13.47,-5.18 -5.86,-2.26 -13.14,-4.19 -21.66,-6.09 -8.5,-2.23 -18.3,-3.16 -29.19,-4.26 -5.44,-0.64 -11.13,-0.2 -17.1,-0.32 -5.97,-0.13 -12.12,0.42 -18.49,1.25 -6.4,0.67 -12.94,1.63 -19.58,3.33 -6.71,1.41 -13.47,3.24 -20.22,5.81 -3.38,1.21 -6.85,2.38 -10.26,3.73 -3.32,1.6 -6.67,3.21 -10.03,4.83 -6.88,3.03 -13.31,7.12 -19.73,11.35 -6.55,4.06 -12.47,9.11 -18.55,13.98 -5.51,5.43 -11.56,10.51 -16.55,16.44 -10.46,11.57 -19.01,24.43 -26.36,37.48 -3.36,6.64 -6.92,13.17 -9.44,19.95 -2.85,6.65 -5.32,13.31 -7.25,19.99 -8.36,26.52 -10.71,51.97 -10.65,73.38 0.27,21.48 3.27,39.07 6.32,51.14 1.35,6.05 3.06,10.73 4.07,13.89 1.08,3.17 1.84,4.81 1.84,4.81" /><path
             id="path282"
             style="fill:#100f0d;fill-opacity:1;fill-rule:nonzero;stroke:none"
             d="m 3700.83,2111.35 c 0,0 0.76,-1.64 1.85,-4.81 1.01,-3.16 2.72,-7.84 4.07,-13.89 3.04,-12.07 6.04,-29.66 6.31,-51.14 0.06,-21.41 -2.28,-46.86 -10.65,-73.38 -1.92,-6.68 -4.4,-13.34 -7.24,-19.99 -2.52,-6.78 -6.09,-13.31 -9.44,-19.95 -7.36,-13.05 -15.9,-25.91 -26.36,-37.48 -4.99,-5.93 -11.04,-11.01 -16.55,-16.44 -6.09,-4.87 -12.01,-9.92 -18.55,-13.98 -6.43,-4.23 -12.85,-8.32 -19.73,-11.35 -3.37,-1.62 -6.71,-3.23 -10.04,-4.83 -3.41,-1.35 -6.87,-2.52 -10.26,-3.73 -6.74,-2.57 -13.51,-4.4 -20.21,-5.81 -6.64,-1.7 -13.19,-2.66 -19.58,-3.33 -6.38,-0.83 -12.52,-1.38 -18.5,-1.25 -5.96,0.12 -11.65,-0.32 -17.1,0.32 -10.89,1.1 -20.68,2.03 -29.19,4.26 -8.52,1.9 -15.79,3.83 -21.65,6.09 -5.89,1.94 -10.41,4.01 -13.48,5.18 -3.04,1.34 -4.67,2.06 -4.67,2.06 0,0 1.73,0.48 4.98,1.38 3.22,0.74 7.94,2.17 13.79,3.29 5.87,1.02 12.91,3.32 20.79,5.19 7.91,1.66 16.54,4.59 25.79,7.13 4.64,1.21 9.25,3.15 14.05,4.75 2.39,0.79 4.82,1.6 7.28,2.43 2.37,1 4.77,2.02 7.21,3.06 4.86,2.03 9.88,3.79 14.61,6.44 4.8,2.46 9.83,4.5 14.44,7.51 2.37,1.36 4.71,2.8 7.14,4.06 l 6.88,4.58 c 4.69,2.92 8.97,6.48 13.43,9.8 4.56,3.18 8.28,7.51 12.73,10.92 3.83,4.15 8.14,7.79 11.69,12.28 7.9,8.19 14.38,17.81 21.1,27.16 6.09,9.85 12.28,19.64 17.37,29.92 5.25,10.18 10.05,20.41 14.24,30.44 4.4,9.97 8,19.79 11.54,28.93 6.74,18.38 12.13,34.42 15.97,45.87 1.68,5.73 3.47,10.3 4.36,13.45 1.03,3.16 1.58,4.86 1.58,4.86" /></g></g></g></g></svg>