<?xml version="1.0" encoding="UTF-8" standalone="no"?>
<svg
   xmlns:dc="http://purl.org/dc/elements/1.1/"
   xmlns:cc="http://creativecommons.org/ns#"
   xmlns:rdf="http://www.w3.org/1999/02/22-rdf-syntax-ns#"
   xmlns:svg="http://www.w3.org/2000/svg"
   xmlns="http://www.w3.org/2000/svg"
   viewBox="0 0 734.88 836.50665"
   height="836.50665"
   width="734.88"
   xml:space="preserve"
   id="svg2"
   version="1.1"><metadata
     id="metadata8"><rdf:RDF><cc:Work
         rdf:about=""><dc:format>image/svg+xml</dc:format><dc:type
           rdf:resource="http://purl.org/dc/dcmitype/StillImage" /></cc:Work></rdf:RDF></metadata><defs
     id="defs6"><clipPath
       id="clipPath20"
       clipPathUnits="userSpaceOnUse"><path
         id="path18"
         d="M 0,6273.77 V 0 h 5511.56 v 6273.77 z" /></clipPath></defs><g
     transform="matrix(1.3333333,0,0,-1.3333333,0,836.50667)"
     id="g10"><g
       transform="scale(0.1)"
       id="g12"><g
         id="g14"><g
           clip-path="url(#clipPath20)"
           id="g16"><path
             id="path22"
             style="fill:#cb8e4c;fill-opacity:1;fill-rule:nonzero;stroke:none"
             d="m 5451.33,5445.32 c 77,-278.5 -23.2,-578.6 -253.8,-752.8 -783.4,315.2 -1612.6,472.7 -2441.7,472.7 -64,0 -128.1,-0.9 -192.1,-2.8 -4.4,-0.1 -8.8,-0.2 -13.3,-0.5 -628.2,-19.6 -1254.3,-129.8 -1858.203,-330.6 -127.098,-42.3 -253.2,-88.5 -378.2,-138.8 -230.5973,174.2 -330.8004,474.3 -253.8004,752.8 860.8004,346.3 1767.7034,521.9 2695.6034,521.9 927.8,0 1834.7,-175.6 2695.5,-521.9" /><path
             id="path24"
             style="fill:#f6cb53;fill-opacity:1;fill-rule:nonzero;stroke:none"
             d="m 4394.13,4128.32 c -66.2,-285.8 -322.3,-498.7 -628.2,-498.7 -356.1,0 -644.7,288.6 -644.7,644.7 0,40.3 3.7,79.7 10.8,118 55.4,299.7 318.1,526.7 633.9,526.7 356.1,0 644.8,-288.6 644.8,-644.7 0,-50.2 -5.7,-99.1 -16.6,-146 m -1638.3,1036.9 c -64,0 -128.1,-0.9 -192.1,-2.8 -4.4,-0.1 -8.8,-0.2 -13.3,-0.5 -100.6,-5.4 -213,-54.6 -340.1,-115.5 -8.6,-4.2 -17.3,-8.4 -26.1,-12.6 -228.6,-110.6 -503.5,-251.1 -838.6,-242.7 -151.3,3.8 -279.1,10.2 -380.403,16.8 -34.497,2.2 -66,4.5 -94.2,6.7 -116.5,8.9 -178.8,16.7 -178.8,16.7 -74.797,-24.9 -149.2,-51.1 -223.2,-78.8 h -0.199 c -51.801,-19.3 -103.398,-39.3 -154.801,-60 0,0 19,-37.3 48.903,-95.8 75.5,-147.6 220.097,-430.6 302.297,-591.5 19.203,-37.4 34.902,-68.3 45.601,-89.3 25.902,-50.6 40.399,-125.8 51.602,-207 v -0.2 c 21.199,-155.2 29.898,-332.5 81,-402.8 23.699,-32.5 59,-43.5 96.797,-38.9 15.601,1.9 31.503,6.5 47.3,13.3 34.103,14.7 67.003,39.8 92.203,71.2 27.7,34.4 45.9,76.3 45.9,119.9 v 2.2 c 0.8,144.4 78.5,206.8 204.4,156 85.9,-34.8 185.3,-32.5 221.8,45.8 4.6,9.9 8.3,20.9 10.7,33.3 h 0.1 c 5.4,0.1 10.9,0.2 16.5,0.2 291.6,0 538,-193.7 617.6,-459.3 l 0.1,-0.1 c 17.6,-58.7 27,-120.9 27,-185.3 0,-356.1 -288.6,-644.8 -644.7,-644.8 -35.5,0 -70.4,2.9 -104.5,8.4 l -1.1,-4.4 c 0,0 345.1,-730.5 404.7,-983 l 0.1,-0.1 c 5.5,-23.8 8.6,-43.3 8.6,-57.6 0,-85.7 104.9,-157.4 194.2,-148.8 l 5.1,-9.9 574,-1123.301 c 44.3,-86.7971 168.5,-86.5979 212.6,0.402 l 59.4,117.301 388.8,768 46.8,92.298 c -32.4,1.8 -66.8,6.8 -95.1,6.8 -356,0 -644.7,288.7 -644.7,644.8 0,356 288.7,644.7 644.7,644.7 13.4,0 26.8,-0.4 40,-1.2 233.1,-14.3 432.7,-152.4 533.9,-349.3 l 342.8,677.3 57.1,112.7 2.6,5.1 c 15.2,-5.1 30.6,-8.5 46,-10.4 36.9,-4.4 73.3,0.8 105.6,16.8 53.6,26.5 95.7,82.9 109.2,174.9 l 0.1,0.5 c 3.5,23.5 5.1,49.3 4.5,77.6 -0.9,46.5 7.9,106.5 22,170.3 31.6,142.8 89.5,305 122.9,380.5 9.1,20.7 352.5,697.2 485.9,959.9 32.2,63.5 52.2,102.8 52.2,102.8 -783.4,315.2 -1612.6,472.7 -2441.7,472.7" /><path
             id="path26"
             style="fill:#e53e47;fill-opacity:1;fill-rule:nonzero;stroke:none"
             d="m 4410.73,4274.32 c 0,-50.2 -5.7,-99.1 -16.6,-146 -66.2,-285.8 -322.3,-498.7 -628.2,-498.7 -356.1,0 -644.7,288.6 -644.7,644.7 0,356.1 288.6,644.7 644.7,644.7 10.8,0 21.5,-0.3 32.2,-0.8 341.1,-16.8 612.6,-298.6 612.6,-643.9" /><path
             id="path28"
             style="fill:#e53e47;fill-opacity:1;fill-rule:nonzero;stroke:none"
             d="m 3886.73,1927.72 c 0,0 -213.7,-304.2 -379.6,-719.8 -11.9,-29.7 -23.5,-60.1 -34.8,-90.9 -13.5,-36.9 -56.9,-41 -104.5,-38.3 -32.4,1.8 -66.8,6.8 -95.1,6.8 -356,0 -644.7,288.7 -644.7,644.8 0,144.4 47.5,277.7 127.7,385.1 l 0.1,0.2 c 117.6,157.4 305.3,259.4 516.9,259.4 204.3,0 386.3,-95 504.4,-243.1 26.6,-33.3 49.9,-69.2 69.5,-107.4 15.9,-30.9 29.3,-63.3 40.1,-96.8" /><path
             id="path30"
             style="fill:#e53e47;fill-opacity:1;fill-rule:nonzero;stroke:none"
             d="m 2223.83,3064.22 c 0,-77.9 -13.8,-152.5 -39.1,-221.7 -21.2,-57.9 -50.4,-111.9 -86.3,-160.6 -117.5,-159.2 -306.3,-262.5 -519.3,-262.5 -35.5,0 -70.4,2.9 -104.5,8.4 -43.6,7.1 -85.9,18.6 -126.2,34.1 0,0 -252.4,545.7 -408.203,805.1 86.503,10.6 185.403,102.8 185.403,204.4 0,146 77.9,209.3 204.4,158.2 96.7,-39.2 210.6,-31.3 232.5,79.1 h 0.1 c 5.4,0.1 10.9,0.2 16.5,0.2 35.5,0 70.3,-2.9 104.3,-8.4 l 0.2,-0.1 c 19.1,-3.1 38,-7.1 56.6,-11.9 278.1,-71.5 483.6,-324 483.6,-624.3" /><path
             id="path32"
             style="fill:#e53e47;fill-opacity:1;fill-rule:nonzero;stroke:none"
             d="m 2550.43,5161.92 c -105.3,-5.7 -223.6,-59.3 -358,-124.2 -230.3,-111.1 -507.7,-255.1 -846.8,-246.6 -163.3,4.1 -299.3,11.2 -404.103,18.3 -36,2.4 -68.3,4.9 -96.699,7.2 -99.601,8 -152.598,14.7 -152.598,14.7 36.899,12.3 73.899,24.2 110.997,35.8 569.403,178.1 1157.403,276.4 1747.203,294.8" /><path
             id="path34"
             style="fill:#e8816a;fill-opacity:1;fill-rule:nonzero;stroke:none"
             d="m 4116.18,4441.02 c -2.67,2.27 -5.26,4.6 -7.69,7.12 -0.99,1.02 -1.92,2.09 -2.87,3.14 -1.65,2.56 -3.37,5.05 -4.86,7.73 -0.84,1.53 -1.52,3.17 -2.41,4.66 l -0.16,0.23 c -4.18,10.09 -9.68,18.57 -19.57,24.36 -9.64,5.64 -23.86,8.04 -34.67,4.54 -21.37,-6.92 -40.43,-31.82 -31.43,-55.36 8.77,-22.93 21.08,-43.97 40.02,-60.06 9.26,-7.86 19.3,-13.18 31.82,-13.18 11.04,0 24.22,4.9 31.82,13.18 15.39,16.76 19.16,47.37 0,63.64" /><path
             id="path36"
             style="fill:#e8816a;fill-opacity:1;fill-rule:nonzero;stroke:none"
             d="m 3460.03,4421.93 c -16.44,14.59 -37.04,19.05 -58.49,17.41 -21.64,-1.66 -35.81,-13.15 -43.39,-33.04 -4.17,-10.93 -8.34,-21.86 -12.51,-32.79 -8.4,-22.04 9.29,-50.32 31.43,-55.36 13.91,-3.16 26.25,-0.46 36.17,6.3 3.54,-0.84 7.1,-1.47 10.58,-1.62 24.31,-1.09 46.99,15.42 53.84,38.66 6.3,21.38 -0.99,45.67 -17.63,60.44" /><path
             id="path38"
             style="fill:#e8816a;fill-opacity:1;fill-rule:nonzero;stroke:none"
             d="m 3761.59,4223.23 c -15.4,3.51 -30.43,-0.37 -41.31,-9.74 -11.02,-2.82 -20.95,-9.82 -27.88,-20.49 -11.1,-17.1 -19.17,-36.74 -22.83,-56.81 -3.49,-19.12 2.12,-41.01 20.68,-50.82 18.76,-9.91 38.66,-6.45 54.53,7.04 23.21,19.71 39.32,46.54 48.24,75.47 6.94,22.49 -8.23,50.07 -31.43,55.35" /><path
             id="path40"
             style="fill:#e8816a;fill-opacity:1;fill-rule:nonzero;stroke:none"
             d="m 3772.05,4629.8 c -6.46,15.01 -23.17,26.9 -38.62,31.09 -16.7,4.53 -35.4,2.88 -50.24,-6.46 -9.78,-6.16 -17.57,-15.62 -20.68,-26.9 -2.96,-10.77 -1.62,-25.11 4.54,-34.67 8.71,-13.51 24.1,-22.06 39.74,-22.15 4.75,-3.27 9.97,-5.79 14.44,-7.02 10.77,-2.96 25.11,-1.62 34.67,4.54 9.61,6.19 18.07,15.42 20.68,26.89 l 1.61,11.97 c -0.02,8.12 -2.07,15.69 -6.14,22.71" /><path
             id="path42"
             style="fill:#e8816a;fill-opacity:1;fill-rule:nonzero;stroke:none"
             d="m 4108.59,4055.25 c -21.32,8.58 -43.67,0.83 -56.2,-18.41 -16.92,-25.98 -40.23,-44.21 -68.08,-57.37 -16.16,-7.65 -23.43,-26.71 -21.6,-44.09 -4.37,-12.82 -3.54,-27.81 2.95,-38.91 13.52,-23.11 39.14,-25.74 61.57,-16.14 5,2.14 9.66,4.67 14.09,7.48 44.2,25.12 76.23,66.41 93.32,114.36 7.44,20.85 -6.69,45.3 -26.05,53.08" /><path
             id="path44"
             style="fill:#e8816a;fill-opacity:1;fill-rule:nonzero;stroke:none"
             d="m 1497.77,3379.04 c -14.99,7.92 -36.1,7.66 -50.24,-2.55 -2.04,0.95 -4.08,1.88 -6.43,2.53 -10.77,2.96 -25.12,1.63 -34.68,-4.54 -18.65,-12.03 -31.14,-41.35 -16.14,-61.57 15.04,-20.27 36.71,-34.29 63.05,-32.39 24.29,1.76 49.71,13.88 60.59,36.95 10.01,21.25 6.63,49.53 -16.15,61.57" /><path
             id="path46"
             style="fill:#e8816a;fill-opacity:1;fill-rule:nonzero;stroke:none"
             d="m 1869.24,3385.79 c -21.11,12.03 -49.21,4.99 -61.57,-16.14 -12.2,-20.87 -5.03,-49.5 16.15,-61.57 l 1.11,-0.65 0.16,-0.31 c 0.2,-1.19 1.74,-6.76 1.73,-6.75 0.42,-1.78 0.72,-3.59 1.04,-5.39 l 0.07,-1.85 c 0.21,-6.45 0.49,-12.84 0.42,-19.3 -0.25,-23.54 20.87,-46.08 45,-45 24.59,1.1 44.74,19.77 45,45 0.45,42.88 -8.81,89.01 -49.11,111.96" /><path
             id="path48"
             style="fill:#e8816a;fill-opacity:1;fill-rule:nonzero;stroke:none"
             d="m 1743.97,3015.56 c -7.29,17.26 -23.91,27.41 -41.93,27.3 -4.66,20.42 -20.96,38.28 -43.74,37.26 -22.79,-1.02 -46.99,-19.87 -45,-45 0.57,-7.2 0.47,-14.28 0.23,-21.48 l -0.03,-1.58 -0.16,-0.68 c -0.8,-3.5 -1.48,-7 -2.36,-10.49 -5.45,-21.48 6.95,-51.6 31.43,-55.35 29.36,-4.5 57.1,-1.46 83.14,13.83 19.38,11.38 27.04,35.75 18.42,56.19" /><path
             id="path50"
             style="fill:#e8816a;fill-opacity:1;fill-rule:nonzero;stroke:none"
             d="m 1839.32,2806.45 c -5.75,1.31 -11.27,1.51 -16.54,0.93 -2.19,1.94 -4.59,3.63 -7.17,5 -22.65,11.97 -47.59,4.8 -61.57,-16.14 -11.27,-16.88 -23.48,-32.79 -23.48,-54.22 0,-30.91 27.6,-51.73 56.49,-52.47 39.08,-1 71.12,26.11 83.7,61.55 7.89,22.21 -8.91,50.22 -31.43,55.35" /><path
             id="path52"
             style="fill:#e8816a;fill-opacity:1;fill-rule:nonzero;stroke:none"
             d="m 1375.29,3029.59 c -1.71,0.28 -3.32,0.71 -4.95,1.12 l -0.85,0.71 -0.7,1.55 c -2.18,22.54 -20.57,43.54 -44.66,42.46 -23.55,-1.06 -46.03,-19.81 -45,-45 1.67,-40.47 30.44,-80.81 72.24,-87.63 12.3,-2.01 23.51,-1.99 34.67,4.54 9.33,5.46 18.24,16.16 20.68,26.89 4.93,21.66 -6.59,51.3 -31.43,55.36" /><path
             id="path54"
             style="fill:#e8816a;fill-opacity:1;fill-rule:nonzero;stroke:none"
             d="m 3321.63,2148.04 c -2.69,23.33 -21.97,36.72 -44.46,39.52 -26.33,3.28 -52.37,4.2 -76.81,0.57 -19.91,-0.88 -39.8,-2.45 -59.7,-5.01 -24.1,-3.1 -45,-18.47 -45,-45 0,-5.86 1.52,-12.02 4.16,-17.85 -4.11,-15.13 1.12,-33.33 11.75,-43.96 15.27,-15.27 35.92,-15.07 54.53,-7.03 36.76,15.87 76.11,18.52 115.41,13.66 24.16,-2.98 45,22.82 45,45 0,7.7 -1.86,14.33 -4.88,20.1" /><path
             id="path56"
             style="fill:#e8816a;fill-opacity:1;fill-rule:nonzero;stroke:none"
             d="m 2983.36,1865.24 c -10.8,0.04 -21.6,0.08 -32.4,0.13 -3,16.48 -14.09,30.8 -31.64,35.63 -22.44,6.16 -50.22,-7.57 -55.36,-31.43 -9.08,-42.18 -23.75,-115.84 32.47,-131.08 22.14,-6 48.87,3.86 68.91,12.97 18.81,8.55 36.05,21.6 49.84,36.96 25.58,28.46 8.6,76.65 -31.82,76.82" /><path
             id="path58"
             style="fill:#e8816a;fill-opacity:1;fill-rule:nonzero;stroke:none"
             d="m 3407.03,1701.88 c -12.36,28.17 -32.26,49.49 -56.52,67.86 -2.72,2.05 -5.68,3.55 -8.77,4.62 -3.58,2.29 -7.4,4.07 -11.34,5.16 -25.4,6.98 -46.59,-8.67 -55.36,-31.43 -11.48,-29.81 -25.53,-74.09 -9.76,-104.25 18.53,-35.44 64.94,-36.17 99.55,-30.21 18.01,3.1 34.86,11.36 44.43,27.71 11.6,19.82 6.35,41.02 -2.23,60.54" /><path
             id="path60"
             style="fill:#e8816a;fill-opacity:1;fill-rule:nonzero;stroke:none"
             d="m 3655.49,1930.31 c -13.28,46.18 -51.74,84.5 -99.54,93.75 -23.04,4.46 -49.67,-6.48 -55.35,-31.43 -5.07,-22.25 6.71,-50.57 31.43,-55.36 3.88,-0.75 7.53,-1.69 11.34,-2.78 l 0.85,-0.28 c 3.13,-1.79 6.25,-3.45 9.33,-5.36 l 1.14,-0.67 0.47,-0.72 c 1.7,-2.15 4.12,-4.28 6.14,-6.26 0.58,-0.71 1.24,-1.58 1.82,-2.49 1.19,-1.88 2.2,-3.85 3.24,-5.81 0.2,-0.74 1.77,-4.51 2.34,-6.51 6.5,-22.61 32.05,-38.98 55.36,-31.43 22.99,7.44 38.4,31.12 31.43,55.35" /><path
             id="path62"
             style="fill:#e8816a;fill-opacity:1;fill-rule:nonzero;stroke:none"
             d="m 3122.7,1467.01 c -0.74,2.28 -1.76,4.44 -2.81,6.57 0.39,4.59 0.39,9.21 -0.12,13.82 -1.37,12.3 -4.11,22.75 -13.18,31.82 -7.81,7.81 -20.61,13.68 -31.82,13.18 -11.64,-0.52 -23.71,-4.34 -31.82,-13.18 -7.56,-8.23 -14.47,-20.2 -13.18,-31.82 0.23,-2.09 0.32,-4.15 0.32,-6.21 -0.28,-1.04 -0.68,-2.07 -1.03,-3.1 -3.45,-8.21 -5.05,-15.88 -3.81,-25.07 1.43,-10.67 6.43,-20.99 14.34,-28.51 13.54,-12.87 33.62,-18.37 51.68,-12.85 22.48,6.87 39.06,31.78 31.43,55.35" /><path
             id="path64"
             style="fill:#e8816a;fill-opacity:1;fill-rule:nonzero;stroke:none"
             d="m 3359.93,1439.5 c -8.8,8.08 -19.63,13.18 -31.82,13.18 h -14.07 c -11.54,0 -23.66,-5.02 -31.82,-13.18 -7.8,-7.8 -13.68,-20.61 -13.18,-31.82 0.52,-11.64 4.35,-23.71 13.18,-31.82 8.81,-8.08 19.63,-13.18 31.82,-13.18 h 14.07 c 11.54,0 23.66,5.02 31.82,13.18 7.81,7.81 13.68,20.61 13.18,31.82 -0.52,11.64 -4.34,23.71 -13.18,31.82" /><path
             id="path66"
             style="fill:#a21f26;fill-opacity:1;fill-rule:nonzero;stroke:none"
             d="m 1694.27,3439.79 c -7.44,0 -13.42,-2.27 -17.99,-5.87 l -0.83,0.33 c -7.18,1.97 -16.74,1.08 -23.12,-3.03 -6.4,-4.13 -12.04,-10.28 -13.78,-17.93 -1.68,-7.34 -1.71,-16.8 3.02,-23.11 4.47,-5.96 8.93,-11.91 13.4,-17.87 4.87,-6.49 9.79,-11.54 17.93,-13.79 7.18,-1.97 16.74,-1.08 23.12,3.03 6.4,4.13 12.04,10.28 13.78,17.93 0.37,1.59 0.61,3.31 0.78,5.05 21.11,14.08 15.77,55.26 -16.31,55.26" /><path
             id="path68"
             style="fill:#a21f26;fill-opacity:1;fill-rule:nonzero;stroke:none"
             d="m 1578.44,3179.74 c -5.27,11.19 -15.5,18.96 -25.83,25.22 -13.44,8.13 -33.56,3.41 -41.05,-10.76 -4.11,-7.78 -4.75,-16.44 -2.36,-24.18 -2.18,-6.87 -3.08,-13.77 -1.35,-21.55 2.17,-9.81 8.17,-18.57 16.93,-23.72 15.06,-8.86 34.3,-4.95 46.36,7.08 13.17,13.14 15,31.54 7.3,47.91" /><path
             id="path70"
             style="fill:#a21f26;fill-opacity:1;fill-rule:nonzero;stroke:none"
             d="m 1292.3,3212 c -2.38,0 -4.61,-0.24 -6.7,-0.67 -2.09,0.43 -4.32,0.67 -6.7,0.67 -38.61,0 -38.67,-60 0,-60 2.38,0 4.61,0.24 6.69,0.66 2.09,-0.42 4.32,-0.66 6.71,-0.66 38.6,0 38.67,60 0,60" /><path
             id="path72"
             style="fill:#a21f26;fill-opacity:1;fill-rule:nonzero;stroke:none"
             d="m 1533.48,2787.69 c -16.25,-0.73 -30,-13.18 -30,-30 v -26.8 c 0,-15.69 13.8,-30.72 30,-30 16.26,0.73 30,13.18 30,30 v 26.8 c 0,15.69 -13.79,30.73 -30,30" /><path
             id="path74"
             style="fill:#a21f26;fill-opacity:1;fill-rule:nonzero;stroke:none"
             d="m 1970.24,3018.6 c -2.53,3.93 -5.69,7.01 -9.2,9.38 l -0.05,2.16 c -0.3,15.68 -13.57,30.74 -30,30 -15.99,-0.71 -30.33,-13.18 -30,-30 0.22,-11.08 0.44,-22.17 0.66,-33.26 0.46,-23.48 24.93,-36.39 45.14,-25.91 4.23,2.2 8.46,4.39 12.68,6.59 13.96,7.24 19.24,27.9 10.77,41.04" /><path
             id="path76"
             style="fill:#a21f26;fill-opacity:1;fill-rule:nonzero;stroke:none"
             d="m 3297.23,1942.93 c -3.71,13.51 -15.65,20.79 -28.93,22.02 -20.58,1.91 -41.15,3.82 -61.73,5.72 -16.15,1.5 -30,-14.86 -30,-30 0,-9.82 4.45,-17.51 11.15,-22.71 l -0.12,-0.9 c -3.58,-25.9 18.96,-46.43 44.07,-33.88 l 51.77,25.87 c 11.76,5.88 17.13,21.7 13.79,33.88" /><path
             id="path78"
             style="fill:#a21f26;fill-opacity:1;fill-rule:nonzero;stroke:none"
             d="m 3549.4,1822.07 -5.71,0.63 c -2,0.48 -3.99,0.97 -5.95,1.62 l -1.15,0.32 -1.56,0.91 c -0.79,0.44 -7.77,4.96 -4.15,2.13 -5.85,4.58 -12.66,7.47 -19.51,8.17 l -1.69,0.22 -0.19,0.01 c -1.48,0.2 -2.97,0.4 -4.52,0.33 -16.09,-0.72 -30.21,-13.18 -30,-30 0.2,-16.1 0.4,-32.21 0.6,-48.32 0.34,-27.16 32,-38.03 51.22,-21.21 13.14,11.51 23.33,19.42 37.75,29.28 24.26,16.6 15.69,54.91 -15.14,55.91" /><path
             id="path80"
             style="fill:#a21f26;fill-opacity:1;fill-rule:nonzero;stroke:none"
             d="m 3150.29,1671.96 c -4.07,6.25 -8.14,12.49 -12.21,18.74 -1.57,2.42 -3.51,4.48 -5.58,6.37 0.24,3.28 0.39,6.58 0.35,9.87 -0.15,15.69 -13.68,30.73 -30,30 -16.12,-0.72 -30.16,-13.18 -30,-30 0.13,-13.35 -2.57,-22.28 -11.61,-35.04 -9.07,-12.81 -2.66,-34.01 10.77,-41.04 21.78,-11.42 45.74,-11.44 67.51,0.06 13.84,7.31 19.34,27.89 10.77,41.04" /><path
             id="path82"
             style="fill:#a21f26;fill-opacity:1;fill-rule:nonzero;stroke:none"
             d="m 2940.86,1520.68 c -1.15,9.3 -2.29,18.61 -3.43,27.91 -1.01,8.24 -2.68,15.1 -8.79,21.21 -5.2,5.21 -13.74,9.12 -21.21,8.79 -3.72,-0.17 -7.5,-0.88 -11.04,-2.19 -13.68,4.35 -29.61,-0.33 -37.49,-13.8 -9.1,-15.55 -3.12,-34.34 9.82,-45.47 6.92,-5.95 13.95,-11.78 20.92,-17.66 9.45,-7.97 20.91,-11.21 32.77,-6.2 9.89,4.17 19.87,15.79 18.45,27.41" /><path
             id="path84"
             style="fill:#a21f26;fill-opacity:1;fill-rule:nonzero;stroke:none"
             d="m 2985.6,2070.14 c -6.95,4.92 -14.91,8.74 -23.18,11.24 -1.54,8.6 -6.42,16.63 -14.16,20.72 -14.74,7.79 -32.14,3.46 -41.04,-10.76 -14.09,-22.52 -10.85,-54.84 9.67,-72.46 20.75,-17.84 56.72,-18.37 74.78,4.14 12.8,15.95 10.94,35.1 -6.07,47.12" /><path
             id="path86"
             style="fill:#a21f26;fill-opacity:1;fill-rule:nonzero;stroke:none"
             d="m 3432.77,2184.56 c -16.26,-0.73 -30,-13.18 -30,-30 v -27.13 c 0,-15.69 13.8,-30.73 30,-30 16.25,0.73 30,13.18 30,30 v 27.13 c 0,15.69 -13.8,30.72 -30,30" /><path
             id="path88"
             style="fill:#a21f26;fill-opacity:1;fill-rule:nonzero;stroke:none"
             d="m 3514.15,1506.36 c -16.25,-0.73 -30,-13.19 -30,-30 v -9.05 c 0,-15.69 13.8,-30.72 30,-30 16.26,0.73 30,13.19 30,30 v 9.05 c 0,15.69 -13.8,30.72 -30,30" /><path
             id="path90"
             style="fill:#a21f26;fill-opacity:1;fill-rule:nonzero;stroke:none"
             d="m 3781.24,3889.75 c 3.81,10.34 1.42,22.41 -6.55,31.98 -18.73,22.5 -55.3,8.64 -62.77,-16.74 l -0.08,-0.35 c -12.31,-13.2 -21.68,-28.83 -28.09,-46.47 -5.53,-15.23 6.22,-32.86 20.96,-36.91 16.27,-4.47 30.55,5.21 36.4,19.86 4.96,-4.6 11.42,-7.53 19.29,-7.53 14.92,0 31.69,13.79 30,30 -1.06,10.14 -3.74,18.41 -9.16,26.16" /><path
             id="path92"
             style="fill:#a21f26;fill-opacity:1;fill-rule:nonzero;stroke:none"
             d="m 3548.92,4109.16 -0.76,0.51 c 0.87,6.89 1.16,13.84 0.75,20.73 -0.94,16.18 -13.11,30 -30,30 -14.8,0 -29.38,-12.56 -29.86,-27.84 -12.12,-1.17 -23.02,-8.94 -26.48,-21.52 -3,-10.92 1.08,-23.44 9.55,-30.9 -6.09,-20.12 16.51,-43.87 37.51,-36.73 10.71,3.64 21.42,7.28 32.13,10.91 26.28,8.93 27.52,39.21 7.16,54.84" /><path
             id="path94"
             style="fill:#a21f26;fill-opacity:1;fill-rule:nonzero;stroke:none"
             d="m 3711.78,4391.32 c -19.53,15.32 -40.8,21.24 -65.38,16.4 -15.43,-3.04 -25.68,-22.28 -20.95,-36.91 5.31,-16.41 20.37,-24.2 36.9,-20.95 l 0.27,0.07 0.74,-0.14 1.99,-0.1 0.14,-0.04 c 0.6,-0.25 3.31,-1.42 4.46,-1.77 1.83,-1.26 3.84,-2.46 -0.6,1.02 6.53,-5.12 12.55,-8.79 21.21,-8.79 7.36,0 16.15,3.27 21.22,8.79 9.9,10.79 13.18,32.08 0,42.42" /><path
             id="path96"
             style="fill:#a21f26;fill-opacity:1;fill-rule:nonzero;stroke:none"
             d="m 3518.48,4629.23 c -6.49,1.48 -12.39,1.1 -17.56,-0.75 -5.53,6.9 -13.74,11.59 -22.94,11.17 -16.12,-0.72 -30.16,-13.18 -30,-30 0.15,-14.6 0.29,-29.21 0.44,-43.81 0.23,-23.9 25,-35.83 45.14,-25.9 22.16,10.92 36.74,29.96 45.88,52.38 5.93,14.58 -6.44,33.6 -20.96,36.91" /><path
             id="path98"
             style="fill:#a21f26;fill-opacity:1;fill-rule:nonzero;stroke:none"
             d="m 3948.2,4657.74 c -16.25,-0.73 -30,-13.18 -30,-30 v -31.65 c 0,-15.7 13.8,-30.73 30,-30 16.26,0.73 30,13.18 30,30 v 31.65 c 0,15.69 -13.8,30.72 -30,30" /><path
             id="path100"
             style="fill:#a21f26;fill-opacity:1;fill-rule:nonzero;stroke:none"
             d="m 3771.87,4815.98 h -13.56 c -15.7,0 -30.73,-13.79 -30,-30 0.72,-16.25 13.18,-30 30,-30 h 13.56 c 15.69,0 30.73,13.8 30,30 -0.73,16.26 -13.18,30 -30,30" /><path
             id="path102"
             style="fill:#a21f26;fill-opacity:1;fill-rule:nonzero;stroke:none"
             d="m 4009.91,4232.83 c 0.88,13.28 -9.67,27.63 -22.28,30.5 -17.22,3.93 -30.78,-5.26 -36.9,-20.95 -4.29,-10.98 -8.57,-21.97 -12.86,-32.95 -7.02,-17.99 10.91,-38.7 28.93,-37.98 13.39,0.53 26.78,1.07 40.17,1.6 15.66,0.62 30.75,13.35 30,30 -0.66,14.77 -11.79,28.69 -27.06,29.78" /><path
             id="path104"
             style="fill:#a21f26;fill-opacity:1;fill-rule:nonzero;stroke:none"
             d="m 4284.27,4233.55 c -1.92,6.96 -7.3,14.5 -13.79,17.93 -4.52,2.39 -9.66,3.85 -14.83,4.01 -4.77,10.47 -15.05,18.47 -27.12,17.93 -15.97,-0.71 -30.37,-13.19 -30,-30 l 0.57,-26.42 c 0.3,-13.52 9.16,-25 22.03,-28.93 9.84,-3 21.36,-2.99 31.15,0.29 12.52,4.21 21.11,11.6 28.96,22.08 4.36,5.82 4.86,16.44 3.03,23.11" /><path
             id="path106"
             style="fill:#a21f26;fill-opacity:1;fill-rule:nonzero;stroke:none"
             d="m 4163.83,4621.82 -9.04,9.04 c -11.11,11.12 -31.46,11.94 -42.42,0 -11,-11.97 -11.86,-30.56 0,-42.42 3.01,-3.02 6.02,-6.03 9.04,-9.04 11.11,-11.12 31.46,-11.94 42.42,0 11,11.97 11.86,30.56 0,42.42" /><path
             id="path108"
             style="fill:#d9933b;fill-opacity:1;fill-rule:nonzero;stroke:none"
             d="m 2765.03,3468.99 c 0,-15.41 -0.4,-30.7 -1.2,-45.91 -2,-38.2 -6.5,-75.5 -13.4,-111.8 -8.2,-44.19 -19.9,-86.89 -34.7,-127.49 -15.5,-42.3 -34.2,-82.3 -55.9,-119.61 -61.7,-106.29 -147.1,-190.19 -246.7,-239.79 -64.7,-32.3 -135.5,-50 -209.6,-50 -305.2,0 -553.5,301.19 -561.3,676.49 -0.1,6.01 -0.2,12.01 -0.2,18.11 0,116.29 23.1,226 64,322.29 68.2,160.81 185.8,284.51 327.9,340.1 53.5,21 110.4,32.3 169.6,32.3 229.6,0 427,-170.5 514,-414.69 29.9,-83.71 46.7,-176.1 47.4,-273.2 0.1,-2.21 0.1,-4.51 0.1,-6.8" /><path
             id="path110"
             style="fill:#d9933b;fill-opacity:1;fill-rule:nonzero;stroke:none"
             d="m 3869.53,3393.38 c 0,-46.69 -4.2,-92.2 -12.3,-136 -23.6,-128.99 -80.1,-242.7 -158.1,-327.3 -89.3,-96.9 -206.7,-155.69 -335.4,-155.69 -279.4,0 -505.9,277.1 -505.9,618.99 0,21.9 0.9,43.51 2.7,64.8 9.3,108.51 41.4,208.6 90.3,293 78.1,134.7 199.2,229.5 338.7,254.5 24.2,4.4 49,6.7 74.2,6.7 183.6,0 344.4,-119.69 433,-298.9 40.5,-81.79 65.9,-175.99 71.5,-276.9 0.6,-9.49 1,-19.09 1.1,-28.69 0.2,-4.81 0.2,-9.71 0.2,-14.51" /><path
             id="path112"
             style="fill:#c2dcdf;fill-opacity:1;fill-rule:nonzero;stroke:none"
             d="m 3371.33,1485.39 c -7.8,-43.81 -27.4,-77.81 -64.7,-90.11 -119.9,-39.4 -119.9,77.5 -112.7,170.9 7.2,93.41 -59,26.51 -80.9,-13.4 -21.9,-39.8 -103.5,-50 -117.4,68.3 -13.9,118.31 -62.4,233.2 -62.4,233.2 10.5,6.6 21.2,12.5 31.8,17.61 151.3,73.3 305.9,2.3 350.5,-82.21 32.9,-62.39 73.2,-207.3 55.8,-304.29" /><path
             id="path114"
             style="fill:#1d1312;fill-opacity:1;fill-rule:nonzero;stroke:none"
             d="m 2512.05,1836.43 386.57,28.77 c 0,0 243.1,49.15 370.39,-31.93 0,0 105.09,197.01 -165.85,329.33 -270.95,132.33 -876.41,10.96 -912.13,-164.66 -35.73,-175.63 52.18,-187.56 321.02,-161.51" /><path
             id="path116"
             style="fill:#d9933b;fill-opacity:1;fill-rule:nonzero;stroke:none"
             d="m 1551.88,3666.3 c -8.2,-24 -25.5,-44.8 -56.7,-57.61 -125.2,-51.09 -184,64.01 -294,15.41 -53.4,-23.6 -60.9,-79.2 -72.1,-141.5 -1.1,-6 -2.2,-12.01 -3.4,-18.1 -8.1,-41.1 -19.7,-84 -48.3,-121.9 l 2.4,-0.2 c -25.2,-31.4 -58.1,-56.5 -92.202,-71.21 -15.801,-6.8 -31.699,-11.39 -47.301,-13.29 -24.898,-3 -48.699,0.7 -68.898,13 -10.399,6.3 -19.801,14.8 -27.899,25.9 -35.601,49 -50.601,150.09 -63.601,259.39 l -0.102,0.51 c -5.597,47.3 -10.898,96.1 -17.297,142.9 v 0.2 c -11.203,81.2 -25.703,156.4 -51.601,207 -10.699,21 -26.399,51.9 -45.602,89.3 -114.797,224.7 -351.199,687.3 -351.199,687.3 35.5,14.3 71.102,28.1 106.801,41.8 2.5,-4.4 377.5,-662.9 425,-831.4 24.199,-85.8 6.898,-449.1 118.5,-459.6 87.101,69.1 101.701,366.9 261.501,330.6 159.8,-36.3 307,-115.41 294.5,75.2 0,0 56.4,-101.4 31.5,-173.7" /><path
             id="path118"
             style="fill:#d9933b;fill-opacity:1;fill-rule:nonzero;stroke:none"
             d="m 420.844,4725.26 0.054,-0.1 c 15.989,6.1 31.957,12.26 47.981,18.24 l -48.035,-18.14" /><path
             id="path120"
             style="fill:#d9933b;fill-opacity:1;fill-rule:nonzero;stroke:none"
             d="m 2775.08,166.602 -559.1,1152.388 -16.1,33.2 -13.9,28.61 c -20.9,57.1 -65.3,109.1 -68.1,112.19 2.3,-6.39 50.2,-144.2 -63.3,-163.89 -84,30.8 -75.3,229.49 -100.8,304.4 -40.4,118.6 -278.9,636.9 -278.9,636.9 400.11,148.68 542.55,365.77 579.76,556.92 -23.74,-17.3 -52.46,-29.66 -86.97,-35.49 -100.7,-224.82 -326.2,-381.54 -588.49,-381.54 -35.5,0 -70.4,2.9 -104.5,8.41 l -1.1,-4.4 c 0,0 345.1,-730.51 404.7,-983.01 l 0.1,-0.09 c 1.2,-5.31 2.3,-10.4 3.3,-15.2 3.4,-17.01 5.3,-31.31 5.3,-42.41 0,-85.69 104.9,-157.39 194.2,-148.79 l 5.1,-9.9 50.1,-98.01 523.9,-1025.2884 C 2704.58,4.80078 2828.78,5 2872.88,92 l 59.4,117.301 c -106.6,-101.602 -157.2,-42.699 -157.2,-42.699" /><path
             id="path122"
             style="fill:#d9933b;fill-opacity:1;fill-rule:nonzero;stroke:none"
             d="m 692.277,4822.2 c 0,0 96.301,-12 273,-23.4 -267.5,-77.2 -472.699,-156.2 -602.297,-211.2 -29.902,58.5 -48.902,95.8 -48.902,95.8 51.402,20.7 103,40.7 154.801,60 h 0.199 c 74,27.7 148.402,53.9 223.199,78.8" /><path
             id="path124"
             style="fill:#d9933b;fill-opacity:1;fill-rule:nonzero;stroke:none"
             d="m 5197.58,4683.4 c 0,0 -20,-39.3 -52.2,-102.8 -1105.5,446.3 -2132.7,516.7 -2961.1,444.1 137.8,66.6 258.8,122.3 366.2,128.1 4.5,0.3 8.9,0.4 13.3,0.5 64,1.9 128.1,2.8 192.1,2.8 829.1,0 1658.3,-157.5 2441.7,-472.7" /><path
             id="path126"
             style="fill:#bb5f2f;fill-opacity:1;fill-rule:nonzero;stroke:none"
             d="m 4504.68,2975.1 c -12.2,-35.2 -45.1,-115.3 -103.9,-158.21 -39.4,-28.8 -90.2,-40.79 -154.2,-11.49 -5.1,2.3 -10.3,4.9 -15.6,7.8 -135.1,73.69 -120,199.5 -92,296.19 l 14.3,34.71 c -1.6,-7.8 -37.8,-191.8 118.8,-247.3 117.3,-41.7 191.7,4 232.6,78.3" /><path
             id="path128"
             style="fill:#bb5f2f;fill-opacity:1;fill-rule:nonzero;stroke:none"
             d="m 780.078,3555.7 9.801,-30.71 c -5.699,15.71 -8.899,27.31 -9.801,30.71" /><path
             id="path130"
             style="fill:#bb5f2f;fill-opacity:1;fill-rule:nonzero;stroke:none"
             d="m 1129.08,3482.6 c -1.1,-6 -2.2,-12.01 -3.4,-18.1 -8.1,-41.1 -19.7,-84 -48.3,-121.9 l 2.4,-0.2 c -25.2,-31.4 -58.1,-56.5 -92.202,-71.21 -15.801,-6.8 -31.699,-11.39 -47.301,-13.29 -24.898,-3 -48.699,0.7 -68.898,13 l -81.102,253 c 17.903,-48.5 59.5,-135.1 132.203,-149.7 101.8,-20.3 200.2,98.5 200.2,152.8 0,15.1 2.6,-6 6.4,-44.4" /><path
             id="path132"
             style="fill:#bb5f2f;fill-opacity:1;fill-rule:nonzero;stroke:none"
             d="m 2136.38,1116.89 -50.1,98.01 -5.1,9.9 c -89.3,-8.61 -194.2,63.1 -194.2,148.8 0,11.1 -1.9,25.4 -5.3,42.4 l 31.8,-34.7 c 0,0 63.4,-103.7 156.3,-82.9 93,20.9 101.9,114.5 101.9,114.5 l 28.2,-60.7 3,14.4 c 0,0 8.3,-18.9 13.1,-47.6 8.9,-52.6 6.2,-138.3 -79.6,-202.11" /><path
             id="path134"
             style="fill:#bd2d35;fill-opacity:1;fill-rule:nonzero;stroke:none"
             d="M 2152.96,2789.94 C 1837.76,2382.98 1421.58,2528.1 1421.58,2528.1 l -315.2,671.99 c 152,130.8 103.7,283.81 155.6,324.91 30.57,24.25 55.88,8.73 104.11,-6.79 33.5,-10.78 78.05,-21.56 143.09,-19.01 69.96,2.69 112.13,40.34 137.44,81.61 -34.01,33.28 -13.22,80.47 -3.24,120.93 -11.81,0.64 -52.22,-1.94 -64.2,-1.94 -5.6,0 -11.1,-0.11 -16.5,-0.2 h -0.1 c -21.9,-110.4 -135.8,-118.31 -232.5,-79.11 -126.5,51.11 -204.4,-12.19 -204.4,-158.19 0,-101.61 -98.9,-193.8 -185.403,-204.4 155.803,-259.4 408.203,-805.11 408.203,-805.11 40.3,-15.49 82.6,-26.99 126.2,-34.09 34.1,-5.51 69,-8.41 104.5,-8.41 262.32,0 487.95,156.7 588.65,381.58 -4.8,-0.82 -9.84,-1.37 -14.87,-1.93" /><path
             id="path136"
             style="fill:#bd2d35;fill-opacity:1;fill-rule:nonzero;stroke:none"
             d="m 2881.08,1355.8 c -135.53,107.16 -168.81,287.61 -167.28,444.73 -26.77,1.18 -53.61,3.31 -80.09,5.56 -3.66,-27.78 -5.63,-56.1 -5.63,-84.89 0,-356.11 288.7,-644.8 644.7,-644.8 28.3,0 62.7,-5 95.1,-6.8 47.6,-2.71 91,1.4 104.5,38.3 11.3,30.8 22.9,61.2 34.8,90.89 -168.71,-20.47 -401.65,-20.47 -626.1,157.01" /><path
             id="path138"
             style="fill:#bd2d35;fill-opacity:1;fill-rule:nonzero;stroke:none"
             d="m 3761.28,4902.17 c -358.65,0 -649.44,-290.79 -649.44,-649.45 0,-90.57 18.59,-176.8 52.09,-255.12 15.89,7.49 32.89,12.03 49.95,12.63 37.92,1.35 75.77,0.25 113.23,-3.17 -55.38,87.99 -87.53,192.07 -87.53,303.71 0,315.43 255.75,571.18 571.18,571.18 315.43,0 571.19,-255.75 571.19,-571.18 0,-315.43 -255.76,-571.18 -571.19,-571.18 l -2.38,0.05 c 24.8,-39.8 44.35,-82.75 58.82,-127.62 308.34,50.56 543.62,318.04 543.62,640.7 0,358.66 -290.79,649.45 -649.54,649.45" /><path
             id="path140"
             style="fill:#bd2d35;fill-opacity:1;fill-rule:nonzero;stroke:none"
             d="m 2550.48,5152.8 c -105.3,-5.7 -223.6,-59.3 -358,-124.2 -449.3,-39.7 -1043.4,-177.8 -1250.902,-228.3 -48.098,-11.7 -75.398,-18.7 -75.398,-18.7 l -21.301,25.9 -41.602,50.5 c 569.403,178.1 1157.403,276.4 1747.203,294.8" /><path
             id="path142"
             style="fill:#fdfbc2;fill-opacity:1;fill-rule:nonzero;stroke:none"
             d="m 1249.97,3781.61 c 0,0 143.37,-57.65 190.04,-43.92 46.67,13.72 49.41,57.65 49.41,57.65 0,0 -56.12,-38.44 -239.45,-13.73" /><path
             id="path144"
             style="fill:#fdfbc2;fill-opacity:1;fill-rule:nonzero;stroke:none"
             d="m 4037.05,2680.4 c 0,0 -242.53,-387.64 -223.09,-431.7 19.44,-44.06 202.49,278.02 223.09,431.7" /><path
             id="path146"
             style="fill:#fdfbc2;fill-opacity:1;fill-rule:nonzero;stroke:none"
             d="m 1801.69,2131.87 c 0,0 125.29,-332.83 172.67,-414.46 47.39,-81.62 -64.29,297.88 -114.26,379.4 -49.98,81.52 -75.52,79.99 -58.41,35.06" /><path
             id="path148"
             style="fill:#fdfbc2;fill-opacity:1;fill-rule:nonzero;stroke:none"
             d="m 3027.34,666.141 c 0,0 -181.21,-338.61 -172.06,-380.942 9.14,-42.32 114.97,173.16 144.78,230.871 29.82,57.719 123.13,253.961 124.57,269.352 1.44,15.387 -72.89,-23.09 -97.29,-119.281" /><path
             id="path150"
             style="fill:#fdfbc2;fill-opacity:1;fill-rule:nonzero;stroke:none"
             d="m 639.68,4430.54 c 0,0 125.629,-266.26 163.597,-338.41 37.969,-72.14 108.453,-56.91 62.911,50.84 -45.543,107.75 -123.829,247.85 -156.79,305.53 -32.964,57.68 -126.906,102.47 -69.718,-17.96" /><path
             id="path152"
             style="fill:#fdfbc2;fill-opacity:1;fill-rule:nonzero;stroke:none"
             d="m 3124.65,4776.86 c 0,0 -136.48,-143.7 -134.85,-323.1 1.63,-179.41 32.34,-145.03 37.54,-98.68 5.2,46.35 100.77,365.73 183.8,426.56 83.03,60.82 -56.3,32.13 -86.49,-4.78" /><path
             id="path154"
             style="fill:#fdfbc2;fill-opacity:1;fill-rule:nonzero;stroke:none"
             d="m 3000.06,4240.43 c 0,0 -24.38,-57.35 0,-89.15 24.39,-31.8 40.88,-2.5 40.88,25.46 0,27.95 3.46,132.41 -40.88,63.69" /><path
             id="path156"
             style="fill:#fdfbc2;fill-opacity:1;fill-rule:nonzero;stroke:none"
             d="m 881.008,3991.05 c -16.754,-30.84 -7.692,-112.71 22.336,-123.56 30.031,-10.85 37.836,40.2 36.933,76.23 -0.898,36.04 -33.562,94.66 -59.269,47.33" /><path
             id="path158"
             style="fill:#d9933b;fill-opacity:1;fill-rule:nonzero;stroke:none"
             d="m 3177.03,4002.96 c -35.73,80.13 -55.75,168.82 -55.75,262.24 0,40.29 3.7,79.7 10.8,117.99 -26.7,-71.19 -41.3,-148.39 -41.3,-228.89 0,-65.78 9.83,-129.24 27.94,-189.09 16.41,16.8 36.63,30.07 58.31,37.75" /><path
             id="path160"
             style="fill:#d9933b;fill-opacity:1;fill-rule:nonzero;stroke:none"
             d="m 3861.73,3627.7 c 12.41,-35.24 21.84,-71.66 28.17,-108.72 278.39,64.11 488.72,306.21 504.28,600.21 -59.16,-255.38 -269.99,-452.42 -532.45,-491.49" /><path
             id="path162"
             style="fill:#d9933b;fill-opacity:1;fill-rule:nonzero;stroke:none"
             d="m 2852.8,2210.07 c 112.84,97.03 259.51,155.82 419.98,155.82 13.4,0 26.8,-0.4 40,-1.2 -24.1,2.5 -48.5,3.81 -73.2,3.81 -163.03,0 -312.88,-56.05 -431.68,-149.72 15.13,-2.28 30.14,-5.14 44.9,-8.71" /><path
             id="path164"
             style="fill:#d9933b;fill-opacity:1;fill-rule:nonzero;stroke:none"
             d="m 3272.78,1076.4 c -356,0 -644.7,288.69 -644.7,644.8 0,28.79 2.08,57.09 5.74,84.88 -26.43,2.26 -52.49,4.59 -77.8,6.22 -9.45,-45.8 -14.44,-93.21 -14.44,-141.81 0,-385.49 312.5,-697.99 698,-697.99 27.6,0 54.8,1.602 81.5,4.801 l 46.8,92.299 c -32.4,1.8 -66.8,6.8 -95.1,6.8" /><path
             id="path166"
             style="fill:#fdfbc2;fill-opacity:1;fill-rule:nonzero;stroke:none"
             d="m 2282.58,5032.6 c 0,0 -230.9,-166.6 -422.5,-251 -191.5,-84.3 -503.6,-107.1 -731,-76.7 -227.4,30.4 -262.9,76.7 -262.9,76.7 l 4.898,23.9 c 28.199,-2.2 59.699,-4.5 94.199,-6.7 101.303,-6.6 229.103,-13 380.403,-16.8 335.1,-8.4 610,132.1 838.6,242.7 8.8,4.2 17.5,8.4 26.1,12.6 l 72.2,-4.7" /><path
             id="path168"
             style="fill:#b97135;fill-opacity:1;fill-rule:nonzero;stroke:none"
             d="m 5197.58,4683.4 c -783.4,315.2 -1612.6,472.7 -2441.7,472.7 -64,0 -128.1,-0.9 -192.1,-2.8 -4.4,-0.11 -8.8,-0.21 -13.3,-0.5 C 1922.28,5133.2 1296.18,5023 692.277,4822.2 565.18,4779.9 439.078,4733.7 314.078,4683.4 83.4805,4857.6 -16.7227,5157.69 60.2773,5436.2 c 40.6017,16.3 81.3007,32.3 122.1017,47.9 -37.899,-200.9 -34.301,-391.5 131.699,-516.9 125,50.29 251.102,96.49 378.199,138.8 603.903,200.8 1230.003,311 1858.203,330.59 4.5,0.3 8.9,0.41 13.3,0.5 64,1.91 128.1,2.8 192.1,2.8 829.1,0 1658.3,-157.5 2441.7,-472.69 166,125.4 169.6,316 131.7,516.9 40.8,-15.6 81.5,-31.6 122.1,-47.9 77,-278.51 -23.2,-578.6 -253.8,-752.8" /><path
             id="path170"
             style="fill:#b97135;fill-opacity:1;fill-rule:nonzero;stroke:none"
             d="m 5197.58,4683.4 c -783.4,315.2 -1612.6,472.7 -2441.7,472.7 -64,0 -128.1,-0.9 -192.1,-2.8 -4.4,-0.11 -8.8,-0.21 -13.3,-0.5 C 1922.28,5133.2 1296.18,5023 692.277,4822.2 565.18,4779.9 439.078,4733.7 314.078,4683.4 83.4805,4857.6 -16.7227,5157.69 60.2773,5436.2 c 40.6017,16.3 81.3007,32.3 122.1017,47.9 -37.899,-200.9 -34.301,-391.5 131.699,-516.9 125,50.29 251.102,96.49 378.199,138.8 603.903,200.8 1230.003,311 1858.203,330.59 4.5,0.3 8.9,0.41 13.3,0.5 64,1.91 128.1,2.8 192.1,2.8 829.1,0 1658.3,-157.5 2441.7,-472.69 166,125.4 169.6,316 131.7,516.9 40.8,-15.6 81.5,-31.6 122.1,-47.9 77,-278.51 -23.2,-578.6 -253.8,-752.8" /><path
             id="path172"
             style="fill:#9f5825;fill-opacity:1;fill-rule:nonzero;stroke:none"
             d="m 5295.73,4790.01 c -814.89,327.87 -1677.42,491.7 -2539.85,491.7 -66.57,0 -133.25,-0.94 -199.82,-2.91 -4.58,-0.1 -9.16,-0.21 -13.84,-0.52 -653.45,-20.39 -1304.72,-135.02 -1932.892,-343.89 -132.211,-44 -263.379,-92.06 -393.402,-144.38 -13.969,10.55 -27.43,21.59 -40.465,33 38.848,-52.05 85.18,-99.25 138.617,-139.61 125,50.3 251.102,96.5 378.199,138.8 603.903,200.8 1230.003,311 1858.203,330.6 4.5,0.3 8.9,0.4 13.3,0.5 64,1.9 128.1,2.8 192.1,2.8 829.1,0 1658.3,-157.5 2441.7,-472.7 53.44,40.36 99.77,87.56 138.62,139.61 -13.04,-11.41 -26.5,-22.45 -40.47,-33" /><path
             id="path174"
             style="fill:#e1b169;fill-opacity:1;fill-rule:nonzero;stroke:none"
             d="m 5476.83,5262.06 c -1.19,58.1 -9.54,116.58 -25.45,174.14 -40.6,16.3 -81.3,32.3 -122.1,47.9 v 0 c 8.52,-45.18 14.94,-89.84 17.9,-133.35 -829.65,319.15 -1700.84,480.89 -2591.26,480.89 -890.58,0 -1761.744,-161.73 -2591.44,-480.92 2.95,43.52 9.375,88.19 17.899,133.38 v 0 c -40.801,-15.6 -81.5,-31.6 -122.1017,-47.9 C 46.1484,5385.08 37.9844,5333.25 35.5,5281.59 c 2.3047,52.48 10.457,105.16 24.8203,157.1 860.7967,346.3 1767.6997,521.9 2695.5997,521.9 927.8,0 1834.7,-175.6 2695.5,-521.9 16.14,-58.39 24.44,-117.71 25.41,-176.63" /><path
             id="path176"
             style="fill:#d79b4f;fill-opacity:1;fill-rule:nonzero;stroke:none"
             d="m 5473.97,5185.6 c -3.8,41.54 -11.2,83.07 -22.55,124.14 -34.68,13.95 -69.42,27.62 -104.24,41.01 -2.96,43.51 -9.38,88.17 -17.9,133.35 v 0 c 40.8,-15.6 81.5,-31.6 122.1,-47.9 15.91,-57.56 24.26,-116.04 25.45,-174.14 0.42,-25.6 -0.55,-51.12 -2.86,-76.46 m -5436.2044,0 c -2.8945,31.77 -3.6758,63.85 -2.2656,95.99 2.4844,51.66 10.6484,103.49 24.7773,154.61 40.6017,16.3 81.3007,32.3 122.1017,47.9 v 0 c -8.524,-45.19 -14.949,-89.86 -17.899,-133.38 -34.773,-13.37 -69.5386,-27.05 -104.1597,-40.98 -11.3555,-41.07 -18.7578,-82.6 -22.5547,-124.14" /><path
             id="path178"
             style="fill:#f68c60;fill-opacity:1;fill-rule:nonzero;stroke:none"
             d="m 2126.15,2788.24 c -3.26,-14.33 -6.73,-28.79 -10.67,-43.55 -6.9,-25.99 -12.6,-49.89 -17,-71.9 27.17,36.86 50.48,76.77 69.41,119.09 -13.04,-2.22 -27.01,-3.37 -41.74,-3.64" /><path
             id="path180"
             style="fill:#f68c60;fill-opacity:1;fill-rule:nonzero;stroke:none"
             d="m 3272.78,2365.89 c -160.52,0 -307.26,-58.74 -420.1,-155.79 14.23,-3.44 28.22,-7.53 41.82,-12.43 186.01,100.36 533.48,212.12 882.68,-74.88 -118.1,148.1 -300.1,243.1 -504.4,243.1" /><path
             id="path182"
             style="fill:#f68c60;fill-opacity:1;fill-rule:nonzero;stroke:none"
             d="m 4410.78,4265.2 c 0,-50.2 -5.7,-99.1 -16.6,-146 -43.8,682.2 -632.9,783 -632.9,783 l 36.9,6.9 c 341.1,-16.8 612.6,-298.6 612.6,-643.9" /><path
             id="path184"
             style="fill:#bb5f2f;fill-opacity:1;fill-rule:nonzero;stroke:none"
             d="m 4129.58,2951.5 c 0,125.39 101.77,364.15 -9.43,416.15 -3.97,1.86 -7.87,3.36 -11.72,4.68 12.51,-71.41 -24.51,-210.2 -24.51,-210.2 l -0.03,-0.04 c -8.02,-24.79 -19.42,-57.1 -33.11,-100.6 -34.6,-109.9 -17.3,-300.79 138.7,-368.79 l 57.1,112.7 2.6,5.1 c 15.2,-5.1 30.6,-8.5 46,-10.4 -48.9,12.39 -165.6,52.39 -165.6,151.4" /><path
             id="path186"
             style="fill:#d9933b;fill-opacity:1;fill-rule:nonzero;stroke:none"
             d="m 4536.58,3240.2 c -24.2,7.89 -39.1,6.1 -37.9,-11.4 5.5,-81.31 -88.6,-290.8 -163,-290.8 -68.46,0 -114.83,53.27 -86.4,135.14 l -0.18,-0.12 c 101.68,307.62 -140.68,299.31 -140.68,299.31 57.4,-29.85 65.78,-94.93 65.88,-129.65 0.42,-7.77 0.06,-15.47 -1.22,-22.88 -4.1,-24 -20.6,-63.8 -34.1,-110.41 -28,-96.69 -43.1,-222.5 92,-296.19 5.3,-2.9 10.5,-5.5 15.6,-7.8 64,-29.3 114.8,-17.31 154.2,11.49 58.8,42.91 91.7,123.01 103.9,158.21 3.1,8.9 4.8,14.89 5.3,16.7 l 0.1,0.5 c 3.5,23.5 5.1,49.3 4.5,77.6 -0.9,46.5 7.9,106.5 22,170.3" /><path
             id="path188"
             style="fill:#a21f26;fill-opacity:1;fill-rule:nonzero;stroke:none"
             d="m 3798.95,4928.28 c -11.7,0.54 -22.46,0.81 -32.9,0.81 -363.76,0 -659.71,-295.94 -659.71,-659.7 0,-96.68 21.08,-188.47 58.61,-271.29 9.24,4.27 18.85,7.46 28.6,9.53 -36.62,79.78 -57.21,168.38 -57.21,261.76 0,347.22 282.49,629.7 629.71,629.7 9.96,0 20.26,-0.26 31.46,-0.78 335.51,-16.52 598.33,-292.78 598.33,-628.92 0,-48.37 -5.45,-96.35 -16.21,-142.61 -59.62,-257.4 -269.02,-445.02 -524.48,-480.79 3.69,-9.5 7.09,-19.11 10.31,-28.8 264.86,39.58 481.41,235.18 543.39,502.81 11.28,48.47 16.99,98.74 16.99,149.39 0,352.16 -275.35,641.57 -626.89,658.89" /><path
             id="path190"
             style="fill:#a21f26;fill-opacity:1;fill-rule:nonzero;stroke:none"
             d="m 3901.13,1927.4 c -11.07,34.31 -24.87,67.64 -41.04,99.04 -19.86,38.71 -43.79,75.68 -71.11,109.9 -126.06,158.09 -314.19,248.75 -516.13,248.75 -166.55,0 -322.08,-60.99 -442.24,-170.22 12.08,-2.33 24.02,-5.1 35.77,-8.36 112.41,95.56 254.67,148.58 406.47,148.58 192.76,0 372.33,-86.54 492.68,-237.46 26.09,-32.66 48.92,-67.96 67.87,-104.9 14.33,-27.83 26.72,-57.25 36.88,-87.55 -31.18,-45.68 -225.23,-336.52 -376.95,-716.61 -11.48,-28.63 -23.24,-59.35 -34.98,-91.33 -8.52,-23.35 -34.47,-31.6 -89.58,-28.47 -12.84,0.71 -26.26,1.96 -39.25,3.17 -20.13,1.88 -39.13,3.65 -56.67,3.65 -347.22,0 -629.7,282.53 -629.7,629.8 0,26.8 1.71,53.32 4.99,79.5 -10.03,0.82 -20.01,1.68 -29.94,2.53 -3.32,-27.01 -5.05,-54.39 -5.05,-82.03 0,-363.81 295.94,-659.8 659.7,-659.8 16.14,0 34.47,-1.71 53.88,-3.51 13.27,-1.24 26.98,-2.52 40.37,-3.26 6.26,-0.36 14.3,-0.81 23.28,-0.81 33.73,0 80.62,6.45 96.15,48.91 11.62,31.69 23.28,62.13 34.66,90.51 163.28,409.05 375.81,713.71 377.94,716.74 l 4.29,6.11 -2.29,7.12" /><path
             id="path192"
             style="fill:#a21f26;fill-opacity:1;fill-rule:nonzero;stroke:none"
             d="m 2148.3,2789.41 c -17.25,-36.35 -37.88,-71.04 -61.82,-103.51 -118.5,-160.55 -308.13,-256.41 -507.24,-256.41 -33.98,0 -68.34,2.76 -102.08,8.21 -40.18,6.54 -79.7,17.01 -117.58,31.15 -26.46,56.92 -249.03,533.6 -395.463,782.6 86.053,22.57 176.633,113.91 176.633,215.04 0,70.93 18.71,121.04 54.11,144.92 31.4,21.18 76.24,20.95 129.66,-0.62 69.78,-28.28 139.68,-29.92 187,-4.38 31.26,16.87 52.89,45.27 63.06,82.56 12.54,0.11 59.12,1.36 71.89,0.68 1.67,10.09 4.38,20.02 8.16,29.58 -13.86,0.87 -61.57,-0.23 -75.39,-0.23 -5.52,0 -10.95,-0.1 -16.59,-0.21 h -12.31 l -2.41,-12.07 c -6.86,-34.6 -23.9,-59.47 -50.66,-73.91 -39.55,-21.34 -99.9,-19.18 -161.5,5.79 -63.09,25.5 -117.64,24.69 -157.69,-2.32 -44.05,-29.72 -67.33,-88.43 -67.33,-169.79 0,-94.84 -92.58,-179.75 -172.23,-189.51 l -22.93,-2.81 11.894,-19.8 c 153.606,-255.74 404.936,-798.23 407.456,-803.68 l 2.55,-5.51 5.68,-2.19 c 41.5,-15.96 84.96,-27.71 129.19,-34.91 35.35,-5.7 71.31,-8.59 106.88,-8.59 208.61,0 407.25,100.41 531.38,268.6 29.14,39.53 53.64,82.15 73.27,127.07 -11.17,-2.69 -23.07,-4.57 -35.59,-5.75" /><path
             id="path194"
             style="fill:#bb5f2f;fill-opacity:1;fill-rule:nonzero;stroke:none"
             d="m 2659.83,3064.19 55.9,119.59 c -15.5,-42.3 -34.2,-82.3 -55.9,-119.59" /><path
             id="path196"
             style="fill:#bb5f2f;fill-opacity:1;fill-rule:nonzero;stroke:none"
             d="m 1873.33,3228.79 c 0,0 93.7,-394.2 539.8,-404.4 -64.7,-32.3 -135.5,-50 -209.6,-50 -305.2,0 -553.5,301.19 -561.3,676.49 -0.1,6.01 -0.2,12.01 -0.2,18.11 0,116.29 23.1,226 64,322.29 68.2,160.81 185.8,284.51 327.9,340.1 -56.4,-75 -235.2,-350.99 -188.9,-785.29 0,0 603.1,-139.2 918.8,76.99 -2,-38.2 -6.5,-75.5 -13.4,-111.8 -96.4,-56.69 -388.3,-189.3 -877.1,-82.49" /><path
             id="path198"
             style="fill:#bb5f2f;fill-opacity:1;fill-rule:nonzero;stroke:none"
             d="m 3027.33,3228.79 c 0,0 200.3,-447.61 671.8,-298.71 -89.3,-96.9 -206.7,-155.69 -335.4,-155.69 -279.4,0 -505.9,277.1 -505.9,618.99 0,21.9 0.9,43.51 2.7,64.8 9.3,108.51 41.4,208.6 90.3,293 78.1,134.7 199.2,229.5 338.7,254.5 -85.9,-68.79 -250.2,-248.19 -308.7,-642.6 0,0 572.3,-184.7 888.5,44.81 0.2,-4.81 0.2,-9.71 0.2,-14.51 0,-46.69 -4.2,-92.2 -12.3,-136 -118.5,-49.69 -367.6,-106.1 -829.9,-28.59" /><path
             id="path200"
             style="fill:#fdfbc2;fill-opacity:1;fill-rule:nonzero;stroke:none"
             d="m 3415.96,3876.61 c 0,0 182.53,-24.07 320.48,-336.27 0,0 32.69,321.91 -320.48,336.27" /><path
             id="path202"
             style="fill:#fdfbc2;fill-opacity:1;fill-rule:nonzero;stroke:none"
             d="m 2223.83,4043.23 c 0,0 230.09,-32.28 403.99,-450.92 0,0 41.21,431.67 -403.99,450.92" /><path
             id="path204"
             style="fill:#d1ac39;fill-opacity:1;fill-rule:nonzero;stroke:none"
             d="m 1642.19,3719.55 c -1.84,0.01 -3.79,0.02 -5.82,0.02 -1.58,0 -3.22,-0.01 -4.89,-0.01 -80.02,330.13 47.9,851.27 540.22,851.27 7.12,0 14.32,-0.11 21.6,-0.33 405.57,-12.28 494.48,-727.01 494.48,-727.01 -11.13,13.57 -22.15,26.59 -33.13,39.17 -97.32,162.23 -250.49,270.14 -424.34,280.25 -19.95,3.01 -39.4,4.43 -58.44,4.43 -305.44,0 -492.59,-367.77 -529.68,-447.79" /><path
             id="path206"
             style="fill:#b47420;fill-opacity:1;fill-rule:nonzero;stroke:none"
             d="m 2654.65,3882.66 c -157.8,180.85 -299.88,261.46 -424.34,280.25 173.85,-10.11 327.02,-118.02 424.34,-280.25" /><path
             id="path208"
             style="fill:#7d161a;fill-opacity:1;fill-rule:nonzero;stroke:none"
             d="m 1635.36,3704.3 c -1.34,5.03 -2.64,10.13 -3.88,15.26 1.67,0 3.31,0.01 4.89,0.01 2.03,0 3.98,-0.01 5.82,-0.02 -4.53,-9.77 -6.83,-15.25 -6.83,-15.25" /><path
             id="path210"
             style="fill:#d1ac39;fill-opacity:1;fill-rule:nonzero;stroke:none"
             d="m 3861.73,3555.7 c 0,0 -6.87,15.66 -20.16,41.15 -3.45,12.15 -7.21,24.14 -11.25,35.94 9.55,0.95 19.07,2.11 28.5,3.47 0.23,-0.64 0.47,-1.29 0.71,-1.93 0.79,-2.2 1.57,-4.4 2.35,-6.61 -0.05,0 -0.1,-0.01 -0.15,-0.02 3.75,-10.65 7.23,-21.4 10.43,-32.25 -3.51,-13.64 -7.01,-26.92 -10.43,-39.75" /><path
             id="path212"
             style="fill:#c22c2c;fill-opacity:1;fill-rule:nonzero;stroke:none"
             d="m 3830.32,3632.79 c -9.61,28.01 -20.85,54.96 -33.59,80.69 -19.82,40.09 -43.24,77.19 -69.74,110.65 6.26,3.7 11.22,9.73 14.12,16.99 4.96,-4.6 11.42,-7.53 19.29,-7.53 14.92,0 31.69,13.79 30,30 -1.06,10.14 -3.74,18.41 -9.16,26.16 3.81,10.34 1.42,22.41 -6.55,31.98 -6.58,7.91 -15.38,11.33 -24.34,11.33 -16.51,0 -33.59,-11.61 -38.43,-28.07 l -0.08,-0.35 c -9.84,-10.56 -17.81,-22.67 -23.88,-36.12 -87.79,89.82 -200.86,143.86 -324.23,143.86 -13.05,0 -26,-0.61 -38.81,-1.82 -54.03,87.25 -85.34,190.05 -85.34,300.21 0,59.07 8.97,116.05 25.62,169.65 41.12,13.39 87.02,21.27 138.15,22.25 7.04,0.14 14.07,0.21 20.93,0.21 545.31,0 548.02,-422.31 482.81,-755.2 -31.31,-5.32 -63.5,-8.09 -96.33,-8.09 l -2.38,0.05 c 20.3,-32.58 37.08,-67.26 50.44,-103.38 -9.43,-1.36 -18.95,-2.52 -28.5,-3.47 m -311.41,527.61 c -14.8,0 -29.38,-12.56 -29.86,-27.84 -12.12,-1.17 -23.02,-8.94 -26.48,-21.52 -3,-10.92 1.08,-23.44 9.55,-30.9 -5.33,-17.62 11.35,-38.03 29.68,-38.03 2.6,0 5.23,0.41 7.83,1.3 10.71,3.64 21.42,7.28 32.13,10.91 26.28,8.93 27.52,39.21 7.16,54.84 l -0.76,0.51 c 0.87,6.89 1.16,13.84 0.75,20.73 -0.94,16.18 -13.11,30 -30,30 m 231.48,64.11 c -11.32,0 -21.89,-3.94 -30.11,-11.02 -11.02,-2.82 -20.95,-9.82 -27.88,-20.49 -11.1,-17.1 -19.17,-36.74 -22.83,-56.81 -3.49,-19.12 2.12,-41.01 20.68,-50.82 7.31,-3.86 14.79,-5.69 22.14,-5.69 11.51,0 22.7,4.5 32.39,12.73 23.21,19.71 39.32,46.54 48.24,75.47 6.94,22.49 -8.23,50.07 -31.43,55.35 -3.77,0.86 -7.53,1.28 -11.2,1.28 m -340.6,215.15 c -2.73,0 -5.48,-0.11 -8.25,-0.32 -21.64,-1.66 -35.81,-13.15 -43.39,-33.04 -4.17,-10.93 -8.34,-21.86 -12.51,-32.79 -8.4,-22.04 9.29,-50.32 31.43,-55.36 3.92,-0.89 7.72,-1.32 11.37,-1.32 9.31,0 17.68,2.77 24.8,7.62 3.54,-0.84 7.1,-1.47 10.58,-1.62 0.76,-0.04 1.52,-0.05 2.27,-0.05 23.44,0 44.94,16.2 51.57,38.71 6.3,21.38 -0.99,45.67 -17.63,60.44 -14.32,12.71 -31.79,17.73 -50.24,17.73 m 259.56,-90.76 c 6.53,-5.12 12.55,-8.79 21.21,-8.79 7.36,0 16.15,3.27 21.22,8.79 9.9,10.79 13.18,32.08 0,42.42 -15.07,11.82 -31.18,18.05 -49.05,18.05 -5.28,0 -10.72,-0.55 -16.33,-1.65 -15.43,-3.04 -25.68,-22.28 -20.95,-36.91 4.51,-13.95 16.08,-21.68 29.6,-21.68 2.39,0 4.83,0.24 7.3,0.73 l 0.27,0.07 0.74,-0.14 1.99,-0.1 0.14,-0.04 c 0.6,-0.25 3.31,-1.42 4.46,-1.77 0.93,-0.64 1.91,-1.27 2.06,-1.27 0.14,0 -0.48,0.58 -2.66,2.29" /><path
             id="path214"
             style="fill:#c4634b;fill-opacity:1;fill-rule:nonzero;stroke:none"
             d="m 3388.44,4316.83 c -3.65,0 -7.45,0.43 -11.37,1.32 -22.14,5.04 -39.83,33.32 -31.43,55.36 4.17,10.93 8.34,21.86 12.51,32.79 7.58,19.89 21.75,31.38 43.39,33.04 2.77,0.21 5.52,0.32 8.25,0.32 18.45,0 35.92,-5.02 50.24,-17.73 16.64,-14.77 23.93,-39.06 17.63,-60.44 -6.63,-22.51 -28.13,-38.71 -51.57,-38.71 -0.75,0 -1.51,0.01 -2.27,0.05 -3.48,0.15 -7.04,0.78 -10.58,1.62 -7.12,-4.85 -15.49,-7.62 -24.8,-7.62" /><path
             id="path216"
             style="fill:#c4634b;fill-opacity:1;fill-rule:nonzero;stroke:none"
             d="m 3712.39,4079.68 c -7.35,0 -14.83,1.83 -22.14,5.69 -18.56,9.81 -24.17,31.7 -20.68,50.82 3.66,20.07 11.73,39.71 22.83,56.81 6.93,10.67 16.86,17.67 27.88,20.49 8.22,7.08 18.79,11.02 30.11,11.02 3.67,0 7.43,-0.42 11.2,-1.28 23.2,-5.28 38.37,-32.86 31.43,-55.35 -8.92,-28.93 -25.03,-55.76 -48.24,-75.47 -9.69,-8.23 -20.88,-12.73 -32.39,-12.73" /><path
             id="path218"
             style="fill:#7d161a;fill-opacity:1;fill-rule:nonzero;stroke:none"
             d="m 3726.99,3824.13 c -12.36,15.61 -25.39,30.44 -39.03,44.39 6.07,13.45 14.04,25.56 23.88,36.12 l 0.08,0.35 c 4.84,16.46 21.92,28.07 38.43,28.07 8.96,0 17.76,-3.42 24.34,-11.33 7.97,-9.57 10.36,-21.64 6.55,-31.98 5.42,-7.75 8.1,-16.02 9.16,-26.16 1.69,-16.21 -15.08,-30 -30,-30 -7.87,0 -14.33,2.93 -19.29,7.53 -2.9,-7.26 -7.86,-13.29 -14.12,-16.99" /><path
             id="path220"
             style="fill:#7d161a;fill-opacity:1;fill-rule:nonzero;stroke:none"
             d="m 3501.8,4042.11 c -18.33,0 -35.01,20.41 -29.68,38.03 -8.47,7.46 -12.55,19.98 -9.55,30.9 3.46,12.58 14.36,20.35 26.48,21.52 0.48,15.28 15.06,27.84 29.86,27.84 16.89,0 29.06,-13.82 30,-30 0.41,-6.89 0.12,-13.84 -0.75,-20.73 l 0.76,-0.51 c 20.36,-15.63 19.12,-45.91 -7.16,-54.84 -10.71,-3.63 -21.42,-7.27 -32.13,-10.91 -2.6,-0.89 -5.23,-1.3 -7.83,-1.3" /><path
             id="path222"
             style="fill:#7d161a;fill-opacity:1;fill-rule:nonzero;stroke:none"
             d="m 3690.56,4340.11 c -8.66,0 -14.68,3.67 -21.21,8.79 2.18,-1.71 2.8,-2.29 2.66,-2.29 -0.15,0 -1.13,0.63 -2.06,1.27 -1.15,0.35 -3.86,1.52 -4.46,1.77 l -0.14,0.04 -1.99,0.1 -0.74,0.14 -0.27,-0.07 c -2.47,-0.49 -4.91,-0.73 -7.3,-0.73 -13.52,0 -25.09,7.73 -29.6,21.68 -4.73,14.63 5.52,33.87 20.95,36.91 5.61,1.1 11.05,1.65 16.33,1.65 17.87,0 33.98,-6.23 49.05,-18.05 13.18,-10.34 9.9,-31.63 0,-42.42 -5.07,-5.52 -13.86,-8.79 -21.22,-8.79" /><path
             id="path224"
             style="fill:#b47420;fill-opacity:1;fill-rule:nonzero;stroke:none"
             d="m 3841.57,3596.85 c -58.28,111.78 -240.44,412.9 -510.97,412.9 -1.73,0 -3.42,-0.01 -5.16,-0.03 -0.17,0.28 -0.34,0.56 -0.52,0.84 12.81,1.21 25.76,1.82 38.81,1.82 123.37,0 236.44,-54.04 324.23,-143.86 13.64,-13.95 26.67,-28.78 39.03,-44.39 26.5,-33.46 49.92,-70.56 69.74,-110.65 12.74,-25.73 23.98,-52.68 33.59,-80.69 4.04,-11.8 7.8,-23.79 11.25,-35.94" /><path
             id="path226"
             style="fill:#d1ac39;fill-opacity:1;fill-rule:nonzero;stroke:none"
             d="m 2908.87,3775.66 c 0,0 -7.77,235.9 83.36,438.96 -4.16,-19.32 -5.93,-45.4 7.83,-63.34 7.54,-9.83 14.32,-13.82 20.1,-13.82 12.91,0 20.78,19.96 20.78,39.28 0,21.25 2,86.69 -16.51,86.69 -3.13,0 -6.84,-1.86 -11.25,-6.13 27.33,50.94 61.77,98.4 105.17,137.75 -6.02,-31.1 -9.85,-62.97 -11.32,-95.45 -10.64,-46.73 -16.25,-95.38 -16.25,-145.3 0,-65.78 9.83,-129.24 27.94,-189.09 16.41,16.8 36.63,30.07 58.31,37.75 0,0.01 -0.01,0.02 -0.01,0.03 1.12,0.4 2.24,0.77 3.37,1.14 3.24,-7.02 6.6,-13.96 10.09,-20.83 -87.16,-32.66 -181.26,-97.79 -281.61,-207.64" /><path
             id="path228"
             style="fill:#c22c2c;fill-opacity:1;fill-rule:nonzero;stroke:none"
             d="m 3190.48,3983.3 c -3.49,6.87 -6.85,13.81 -10.09,20.83 4.35,1.39 8.74,2.56 13.16,3.5 0,0.02 -0.01,0.04 -0.02,0.06 6.73,1.43 13.53,2.3 20.35,2.54 10.53,0.37 21.06,0.56 31.57,0.56 19.77,0 39.5,-0.66 59.14,-1.96 -36.52,-2.59 -74.62,-10.73 -114.11,-25.53" /><path
             id="path230"
             style="fill:#971c1f;fill-opacity:1;fill-rule:nonzero;stroke:none"
             d="m 3859.53,3634.33 c -0.24,0.64 -0.48,1.29 -0.71,1.93 -13.36,36.12 -30.14,70.8 -50.44,103.38 l 2.38,-0.05 c 32.83,0 65.02,2.77 96.33,8.09 -6.51,-33.25 -13.71,-65.65 -21.1,-96.6 -10.2,-1.94 -20.48,-3.64 -30.84,-5.09 1.51,-3.87 2.96,-7.76 4.38,-11.66 m -666,373.36 c -36.61,79.76 -57.19,168.34 -57.19,261.7 0,53.81 6.79,106.06 19.55,155.95 32.11,22.94 68.33,41.74 109.31,55.08 -16.65,-53.6 -25.62,-110.58 -25.62,-169.65 0,-110.16 31.31,-212.96 85.34,-300.21 0.18,-0.28 0.35,-0.56 0.52,-0.84 -6.89,-0.1 -13.84,-0.39 -20.85,-0.89 -19.64,1.3 -39.37,1.96 -59.14,1.96 -10.51,0 -21.04,-0.19 -31.57,-0.56 -6.82,-0.24 -13.62,-1.11 -20.35,-2.54" /><path
             id="path232"
             style="fill:#dadd9e;fill-opacity:1;fill-rule:nonzero;stroke:none"
             d="m 3020.16,4137.46 c -5.78,0 -12.56,3.99 -20.1,13.82 -13.76,17.94 -11.99,44.02 -7.83,63.34 6.47,14.43 13.44,28.68 20.95,42.68 4.41,4.27 8.12,6.13 11.25,6.13 18.51,0 16.51,-65.44 16.51,-86.69 0,-19.32 -7.87,-39.28 -20.78,-39.28" /><path
             id="path234"
             style="fill:#b47420;fill-opacity:1;fill-rule:nonzero;stroke:none"
             d="m 3118.72,3965.21 c -18.11,59.85 -27.94,123.31 -27.94,189.09 0,49.92 5.61,98.57 16.25,145.3 -0.46,-10.01 -0.69,-20.09 -0.69,-30.21 0,-96.68 21.08,-188.47 58.61,-271.29 3.96,1.83 7.99,3.46 12.07,4.89 0,-0.01 0.01,-0.02 0.01,-0.03 -21.68,-7.68 -41.9,-20.95 -58.31,-37.75" /><path
             id="path236"
             style="fill:#b47420;fill-opacity:1;fill-rule:nonzero;stroke:none"
             d="m 3872.16,3595.45 c -3.2,10.85 -6.68,21.6 -10.43,32.25 0.05,0.01 0.1,0.02 0.15,0.02 1.22,-3.5 2.41,-7.01 3.58,-10.53 4.25,0.64 8.5,1.32 12.73,2.03 -2.01,-8.03 -4.02,-15.97 -6.03,-23.77" /><path
             id="path238"
             style="fill:#7d161a;fill-opacity:1;fill-rule:nonzero;stroke:none"
             d="m 3865.46,3617.19 c -1.17,3.52 -2.36,7.03 -3.58,10.53 -0.78,2.21 -1.56,4.41 -2.35,6.61 -1.42,3.9 -2.87,7.79 -4.38,11.66 10.36,1.45 20.64,3.15 30.84,5.09 -2.59,-10.81 -5.19,-21.41 -7.8,-31.86 -4.23,-0.71 -8.48,-1.39 -12.73,-2.03 m -700.51,380.91 c -37.53,82.82 -58.61,174.61 -58.61,271.29 0,10.12 0.23,20.2 0.69,30.21 1.47,32.48 5.3,64.35 11.32,95.45 11.83,10.73 24.34,20.86 37.54,30.29 -12.76,-49.89 -19.55,-102.14 -19.55,-155.95 0,-93.36 20.58,-181.94 57.19,-261.7 0.01,-0.02 0.02,-0.04 0.02,-0.06 -4.42,-0.94 -8.81,-2.11 -13.16,-3.5 -1.13,-0.37 -2.25,-0.74 -3.37,-1.14 -4.08,-1.43 -8.11,-3.06 -12.07,-4.89" /><path
             id="path240"
             style="fill:#a5b9ba;fill-opacity:1;fill-rule:nonzero;stroke:none"
             d="m 3371.33,1485.39 c -7.8,-43.81 -27.4,-77.81 -64.7,-90.11 -119.9,-39.4 -119.9,77.5 -112.7,170.9 7.2,93.41 -59,26.51 -80.9,-13.4 -21.9,-39.8 -103.5,-50 -117.4,68.3 -13.9,118.31 -62.4,233.2 -62.4,233.2 10.5,6.6 21.2,12.5 31.8,17.61 l 24.8,1.19 c 0,0 63.5,-78.2 59.7,-177.1 -3.8,-98.8 1.9,43.21 115.5,11 113.7,-32.19 22.8,-330.2 179.9,-235.09 10.1,6.09 18.9,10.6 26.4,13.5" /><path
             id="path242"
             style="fill:#ffffff;fill-opacity:1;fill-rule:nonzero;stroke:none"
             d="m 3274.4,1744.1 c -12.86,24.27 -29.94,46.51 -51.04,64.23 -17.95,15.07 -42.95,35.5 -67.93,32.36 -25.19,-3.18 -25.51,-43.22 0,-40 16.63,2.09 37.96,-18.43 49.25,-29.27 14.47,-13.9 25.81,-29.82 35.18,-47.51 12.06,-22.75 46.6,-2.56 34.54,20.19" /><path
             id="path244"
             style="fill:#ffffff;fill-opacity:1;fill-rule:nonzero;stroke:none"
             d="m 3273.86,1702.64 c -25.74,0 -25.78,-40 0,-40 25.74,0 25.78,40 0,40" /><path
             id="path246"
             style="fill:#100f0d;fill-opacity:1;fill-rule:nonzero;stroke:none"
             d="m 5191.87,4731.79 c -778.37,310.39 -1597.84,467.74 -2436.09,467.74 -64.3,0 -128.47,-1.04 -192.54,-2.89 v 0.01 l -0.5,-0.03 C 1791.74,5174.31 1038.19,5018.31 319.688,4731.79 117.793,4894 26.6914,5165.7 89.5977,5418.7 941.371,5758.96 1838.29,5931.47 2755.78,5931.47 c 917.48,0 1814.4,-172.51 2666.18,-512.77 62.91,-253 -28.2,-524.7 -230.09,-686.91 z M 866.141,4849.32 c 456.779,138.93 925.599,226.57 1402.139,262.05 -40.97,-18.61 -83.35,-39.11 -127.45,-60.49 -225.6,-109.39 -481.29,-233.35 -794.32,-225.52 -206.09,5.18 -369.104,15.23 -480.369,23.96 z M 4627.43,3643.28 c -51.5,-116.4 -151,-411.4 -147.8,-565.7 2.1,-106.2 -28.7,-183.2 -86.7,-216.9 -49.4,-28.6 -117.8,-23.8 -178.4,12.6 -93.1,55.8 -56.2,192.1 -13.6,304.7 1.8,5 3.6,9.5 5,13.5 25,67.8 -1.2,144.3 -60.9,177.9 -8.78,4.97 -18.43,9.01 -28.81,11.87 v 0 c 41.74,-43.17 35.21,-112.08 28.77,-145.74 -0.74,-6.63 -2.26,-13.29 -4.66,-19.83 -1.5,-3.8 -3.1,-8.2 -4.9,-13 -30.7,-81 -112.2,-296.3 43.1,-389.5 7.4,-4.4 14.8,-8.4 22.4,-12.1 l -358.9,-708.8 -32.1,-63.4 c 17.1,-30.7 31.8,-63.2 43.6,-97.3 -45.3,-67.1 -258.8,-393.8 -409.4,-805 -7.9,-21.6 -47.3,-21.3 -99.4,-16.8 l -29.2,-57.6 -473.9,-936 c -14.6,-28.8011 -42.7,-46.1019 -75,-46.1995 h -0.2 c -32.3,0 -60.4,17.1992 -75,45.8985 l -559.2,1094.201 c 13,5.3 25.2,12.2 36.2,20.8 47.1,36.6 93.7,203.2 -50.3,267.2 0,0 80.5,-155 7.4,-211.9 -37.4,-29.1 -90.5,-20 -127.7,-1.9 -46.1,22.6 -75.9,61 -75.9,97.7 0,151.9 -303.3,812.7 -394.8,1008.8 l -28.7,63.1 c -43.7,5.8 -86.5,16.1 -127.9,31.1 -35.1,75.3 -239.1,510.5 -381.6,757.7 85.7,31.4 171.7,123 171.7,228 0,63 16.1,108.6 45.3,128.3 32.4,21.8 78.2,10.7 111,-2.6 91.2,-36.9 177.3,-31.3 230.4,14.8 16.5,14.4 33,35.7 43.4,66.7 l 10.3,59.8 c -0.4,53.1 -80.7,110.7 -80.7,110.7 14.3,-56.9 22.1,-148.6 -18.9,-184.3 -31.9,-27.7 -94,-28.8 -158.3,-2.8 -87.9,35.5 -144.4,17.3 -176.3,-4.2 -34.8,-23.5 -76.2,-74.8 -76.2,-186.4 0,-75.2 -67.9,-143.7 -130.7,-164.2 -27.403,-8.9 -64.903,-12.7 -88.2,19.3 -34.703,47.7 -48.601,167.8 -62,284 -13.902,120.1 -28.3,244.2 -67.703,321.4 l -379.3,742.3 c 110.101,43.5 221.101,84.1 332.8,121.5 43.903,-5.1 277.602,-30.3 649.203,-39.6 9.9,-0.2 19.6,-0.4 29.3,-0.4 317,0 582.7,128.8 797.3,232.9 151.4,73.4 282.1,136.7 392,138.7 64,1.9 128.2,2.9 192.4,2.9 823.3,0 1628.2,-153.5 2393.2,-456.1 -101.1,-198.9 -510.9,-1006.1 -521.5,-1030.1 z m 857.64,1810.67 c -2.91,10.52 -10.55,19.08 -20.68,23.15 -864.97,347.95 -1776.28,524.37 -2708.61,524.37 -932.33,0 -1843.647,-176.42 -2708.6159,-524.37 -10.125,-4.07 -17.7696,-12.63 -20.6758,-23.15 -79.7891,-288.7 24.6367,-602.91 259.8597,-784.86 l 393.34,-769.8 c 33.652,-65.86 47.292,-183.64 60.484,-297.54 15.164,-130.93 29.484,-254.58 74.961,-317.11 25.828,-35.52 64.652,-54.24 109.258,-54.24 l 2.261,0.09 C 1080.5,2968.1 1318.8,2453.85 1321.25,2448.55 c 3.28,-7.09 9.2,-12.62 16.49,-15.42 34.76,-13.31 70.4,-23.5 106.66,-30.84 115.83,-245.59 407.48,-891.76 407.48,-1020.31 0,-64.24 44.15,-125.76 115.23,-160.54 30.74,-15.05 62.49,-22.87 92.9,-23.77 L 2629.05,84.0586 C 2655.56,32.1914 2708.17,0 2766.42,0 h 0.3 c 58.35,0.109375 110.97,32.5313 137.33,84.5898 l 487.54,962.8002 c 47.54,0.43 91.72,11.66 108.91,58.56 v 0.01 c 165.61,452.09 408.34,800.27 410.77,803.74 5.4,7.69 6.89,17.47 4.02,26.42 -9.1,28.31 -19.99,55.62 -32.39,81.95 l 384.51,759.42 c 17.61,-3.8 35.19,-5.73 52.47,-5.73 38.41,0 75.4,9.42 108.14,28.4 46.96,27.23 125.2,99.66 121.54,278.88 -2.79,136.86 89.44,417.35 141.81,535.84 10.9,24 351.9,695.99 533.86,1054.23 235.21,181.95 339.63,496.15 259.84,784.84" /><path
             id="path248"
             style="fill:#100f0d;fill-opacity:1;fill-rule:nonzero;stroke:none"
             d="m 1686.73,3393.13 c -1.9,20.21 -3.1,40.71 -3.4,61.41 -0.2,4.79 -0.2,9.69 -0.2,14.49 0,359.21 237.6,651.5 529.7,651.5 292.1,0 529.7,-292.29 529.7,-651.5 0,-343.7 -217.5,-626.1 -492.2,-649.9 -12.4,-1.1 -24.9,-1.6 -37.5,-1.6 -7.5,0 -15,0.21 -22.5,0.6 -261,13.5 -473.8,260.4 -503.6,575 z m 512,-633.9 c 17.4,0 34.7,0.91 51.7,2.7 307,31.5 548,341.41 548,718.81 0,398.49 -268.5,721.49 -599.7,721.49 -331.2,0 -599.7,-323 -599.7,-721.49 0,-6.01 0.1,-12.01 0.3,-18 0.3,-20.31 1.4,-40.41 3.2,-60.31 17.8,-197.6 101.8,-370.99 224.9,-488 -44.9,5.71 -87.1,5.5 -122.9,2.1 -37.4,-3.7 -67.9,-10.69 -88.8,-17.1 -10.4,-2.9 -18.5,-6.09 -23.9,-8.2 -5.4,-2.1 -8.2,-3.49 -8.2,-3.49 0,0 3,-0.1 8.8,-0.41 5.8,-0.4 14.2,-0.89 24.9,-1.59 21.2,-1.71 51.2,-4.61 86.4,-9.61 17.6,-2.6 36.6,-5.5 56.3,-9.5 19.8,-3.6 40.5,-8.39 61.6,-13.7 21,-5.4 42.5,-11.59 64.1,-18.7 10.8,-3.3 21.3,-7.79 32.2,-11.3 10.6,-4.3 21.4,-8.1 31.9,-12.79 10.5,-4.61 21.2,-8.8 31.4,-14.01 5.1,-2.5 10.2,-4.9 15.4,-7.29 5.1,-2.61 10.1,-5.21 15.1,-7.81 10.1,-5.1 19.9,-10.6 29.5,-16.1 9.9,-5.2 19,-11.2 28.3,-16.9 9.4,-5.39 18.1,-11.59 26.9,-17.29 4.3,-2.91 8.7,-5.81 12.9,-8.61 4.2,-3.1 8.3,-6.1 12.3,-9 16.6,-11.4 31.3,-23.59 45.5,-34.29 4.2,-3.51 8.3,-6.91 12.2,-10.11 2.5,-2.2 5,-4.3 7.5,-6.3 3.2,-2.6 6.3,-5.1 9.3,-7.6 2.9,-2.5 5.7,-5 8.4,-7.5 9.6,-8.7 19,-15.99 26.3,-22.79 l 2.5,-2.41 c 7.6,-7.4 14.2,-12.8 18.5,-16.7 3.9,-3.3 6.2,-5.29 6.7,-5.7 -0.2,0.6 -1.4,3.4 -3.4,8.01 -2.5,5.29 -5.8,13.19 -10.8,22.89 -2.3,4.9 -5.2,10.21 -8.4,15.9 -3.2,5.7 -6.9,11.81 -10.8,18.3 -7.5,13.3 -18,26.8 -28.9,42.21 -3,3.7 -6.1,7.5 -9.2,11.3 -9.3,11.29 -19.3,23.19 -30.9,34.59 -2.9,3 -5.9,6.1 -8.9,9.2 14.3,-1.5 28.6,-2.5 43.1,-2.8 2.8,-0.1 5.6,-0.1 8.4,-0.1" /><path
             id="path250"
             style="fill:#100f0d;fill-opacity:1;fill-rule:nonzero;stroke:none"
             d="m 3613.93,2901.13 c -2.5,-0.7 -4.9,-1.3 -7.4,-1.9 -12.1,-3.2 -24.1,-7.1 -36.2,-10.99 -11.8,-4.51 -23.9,-8.61 -35.6,-13.61 -11.7,-5.2 -23.4,-10.09 -34.7,-16.1 -11.4,-5.5 -22.5,-11.6 -33.2,-18.2 -5.4,-3.2 -10.8,-6.2 -16.1,-9.59 -3.2,-2.21 -6.4,-4.4 -9.7,-6.61 -23.2,-4.3 -47,-6.6 -71.2,-6.6 -261.7,0 -474.6,262.5 -474.6,585.21 0,198.39 80.5,373.99 203.3,479.79 17.3,15.11 35.5,28.7 54.5,40.71 65,41.39 138.7,64.69 216.8,64.69 261.7,0 474.6,-262.5 474.6,-585.19 0,-4.5 0,-9.01 -0.2,-13.51 -0.3,-20.5 -1.5,-40.8 -3.6,-60.8 -13.7,-133.1 -63.9,-252.3 -137.7,-341.99 -14.9,-18.2 -30.8,-35.21 -47.6,-50.81 -13.3,-12.39 -27.1,-23.9 -41.4,-34.5 z m 305.9,-9.9 c -5.5,2.11 -13.5,5.3 -24,8.2 -3.7,1.1 -7.7,2.3 -12,3.4 -19.9,5.41 -46,10.7 -76.8,13.7 -28.8,2.7 -61.8,3.4 -96.9,0.6 14.4,14.91 28.2,30.61 41.2,47.2 78.5,99.8 131.2,229.2 145.2,372.8 2.1,20.51 3.3,41.21 3.6,62.2 0.2,5 0.2,10.1 0.2,15.1 0,361.91 -243.8,655.2 -544.6,655.2 -73.3,0 -143.1,-17.4 -206.9,-49 -20.8,-10.2 -40.9,-21.9 -60.2,-35.2 -165.7,-112.19 -277.5,-325.89 -277.5,-571 0,-361.79 243.8,-655.2 544.6,-655.2 2.1,0 4.1,0.2 6.1,0.2 -2.1,-2.1 -4.3,-4.29 -6.4,-6.5 -15.4,-15.29 -28.1,-31.4 -40,-45.89 -10.9,-15.41 -21.4,-28.91 -29,-42.21 -7.7,-13.1 -14.6,-24.3 -19.2,-34.2 -4.9,-9.7 -8.2,-17.6 -10.7,-22.89 -2,-4.61 -3.2,-7.41 -3.4,-8.01 0.5,0.41 2.8,2.4 6.7,5.7 4.3,3.9 10.8,9.3 18.5,16.7 7.5,7.5 18,15.4 28.8,25.2 2.7,2.5 5.5,5 8.4,7.5 3,2.5 6.1,5 9.3,7.6 6.2,5.21 12.8,10.6 19.7,16.41 14.2,10.7 28.9,22.89 45.4,34.29 4.1,2.9 8.2,5.9 12.3,9 4.3,2.8 8.6,5.7 13,8.61 8.8,5.7 17.4,11.9 26.9,17.29 9.2,5.7 18.4,11.7 28.2,16.9 9.7,5.5 19.4,11 29.5,16.1 3.1,1.61 6.2,3.2 9.2,4.71 24.8,8.8 48.8,19.59 72,32.19 4.2,1.7 8.5,3.3 12.7,5 10.9,3.51 21.4,8 32.2,11.3 21.5,7.11 43,13.3 64.1,18.7 21.1,5.31 41.7,10.1 61.5,13.7 19.8,4 38.7,6.9 56.3,9.5 35.3,5 65.3,7.9 86.5,9.61 10.7,0.7 19.1,1.19 24.8,1.59 5.8,0.31 8.9,0.41 8.9,0.41 0,0 -2.8,1.39 -8.2,3.49" /><path
             id="path252"
             style="fill:#100f0d;fill-opacity:1;fill-rule:nonzero;stroke:none"
             d="m 1667.39,4241.35 c 0,0 424.17,312.14 922.93,0 0,0 -136.21,347.14 -461.46,347.14 -367.73,0 -461.47,-347.14 -461.47,-347.14" /><path
             id="path254"
             style="fill:#100f0d;fill-opacity:1;fill-rule:nonzero;stroke:none"
             d="m 3903.74,4241.35 c 0,0 -424.17,312.14 -922.94,0 0,0 136.22,347.14 461.47,347.14 367.72,0 461.47,-347.14 461.47,-347.14" /><path
             id="path256"
             style="fill:#100f0d;fill-opacity:1;fill-rule:nonzero;stroke:none"
             d="m 2240.57,3267.45 c -329.29,0 -601.91,96.21 -618.99,102.36 l 23.72,65.86 c 6.08,-2.19 614.65,-216.47 1096.23,-0.99 l 28.6,-63.88 c -173.24,-77.52 -359.03,-103.35 -529.56,-103.35" /><path
             id="path258"
             style="fill:#100f0d;fill-opacity:1;fill-rule:nonzero;stroke:none"
             d="m 3469.06,3254.1 c -71.43,0 -148.88,6.19 -232.23,18.59 -215.8,32.1 -388.9,94.51 -396.17,97.16 l 23.92,65.78 c 6.81,-2.45 683.77,-244.28 986.6,-7.1 l 43.17,-55.1 C 3792.93,3293.99 3650.41,3254.1 3469.06,3254.1" /><path
             id="path260"
             style="fill:#100f0d;fill-opacity:1;fill-rule:nonzero;stroke:none"
             d="m 2742.52,2192.93 c -108.75,0 -217.49,-22.66 -318.79,-67.99 -114.99,-51.36 -181.81,-113.82 -198.62,-185.64 -7.65,-32.73 -5.39,-55.91 6.71,-68.86 39.23,-42.01 185.06,-18.25 302.23,0.82 76.19,12.41 148.16,24.13 208.48,24.13 30.78,0 66.58,-2.62 109.21,-7.98 183.23,59.51 316.67,59 407.65,-1.54 0.94,-0.63 1.88,-1.25 2.8,-1.89 3.31,11.24 4.05,28.47 -2.24,55.33 -16.81,71.81 -83.63,134.26 -198.6,185.62 -101.31,45.33 -210.07,68 -318.83,68 z m 385.79,-511.52 c 12.08,0 24.61,-3.7 36.08,-11.03 38.6,-24.7 56.26,-81.51 47.27,-151.95 -5.75,-45.09 -0.8,-78.56 13.96,-94.23 11.34,-12.05 29,-13.58 41.83,-12.69 16.51,1.1 25.92,4.97 33.58,13.82 11.28,13.04 29.03,50.36 21.06,153.93 -7.26,94.24 -24.97,197.44 -101.46,248.32 -56.17,37.38 -140.92,43.76 -252.69,19.27 21.33,-26.5 51.48,-76.88 47.02,-146.19 -5.99,-92.89 1.72,-114.07 26.46,-127.16 5.92,-3.16 10.09,-2.98 15.38,0.65 11.71,8.01 19.72,27.35 17.88,43.09 -2.79,23.67 6.42,44.61 24.64,56.03 8.7,5.44 18.68,8.14 28.99,8.14 z m 133.42,-340.1 c -35.08,0 -65.71,12.21 -87.08,34.91 -30.22,32.1 -41.12,82.93 -32.42,151.08 3.16,24.76 1.91,43 -1.02,56.07 -6.88,-27.16 -22.93,-51.96 -44.86,-66.98 -26.8,-18.35 -58.74,-20.08 -87.69,-4.75 -73.53,38.91 -68.23,121.05 -63.56,193.53 3.41,52.73 -23.89,89.48 -36.39,103.39 -18.34,2.84 -38.5,5.88 -58.08,8.42 -43.16,5.66 -78.5,8.41 -108.1,8.41 -54.66,0 -123.91,-11.28 -197.22,-23.22 -154.24,-25.11 -299.89,-48.83 -364.65,20.48 -29.03,31.09 -37.01,75.7 -23.71,132.6 22.07,94.26 102.21,172.84 238.21,233.58 220.74,98.8 473.98,98.79 694.76,-0.01 135.98,-60.73 216.13,-139.31 238.2,-233.56 11.89,-50.84 7.57,-91.5 -12.79,-121.42 55.21,-70.71 70.26,-167.36 76.55,-249.21 7.67,-99.69 -4.74,-166.79 -37.93,-205.12 -29.77,-34.38 -68.97,-36.98 -81.85,-37.84 -3.49,-0.24 -6.95,-0.36 -10.37,-0.36" /><path
             id="path262"
             style="fill:#100f0d;fill-opacity:1;fill-rule:nonzero;stroke:none"
             d="m 3142.42,5641.85 353.3,157.26 38,-85.37 -105.08,-281.42 204.09,90.85 44.38,-99.71 -379.48,-168.92 -42.15,94.69 99.61,267.81 -168.29,-74.91 -44.38,99.72" /><path
             id="path264"
             style="fill:#100f0d;fill-opacity:1;fill-rule:nonzero;stroke:none"
             d="m 3763.91,6116.51 353.31,157.26 37.99,-85.37 -105.08,-281.42 204.09,90.85 44.39,-99.71 -379.49,-168.92 -42.15,94.69 99.61,267.81 -168.28,-74.9 -44.39,99.71" /><path
             id="path266"
             style="fill:#100f0d;fill-opacity:1;fill-rule:nonzero;stroke:none"
             d="m 4280.54,5526.82 384.51,-41.29 -9.98,-92.9 -232.12,-190.68 222.12,-23.85 -11.66,-108.52 -413.01,44.35 11.07,103.06 220.56,181.64 -183.15,19.67 11.66,108.52" /></g></g></g></g></svg>