<?xml version="1.0" encoding="UTF-8" standalone="no"?>
<svg
   xmlns:dc="http://purl.org/dc/elements/1.1/"
   xmlns:cc="http://creativecommons.org/ns#"
   xmlns:rdf="http://www.w3.org/1999/02/22-rdf-syntax-ns#"
   xmlns:svg="http://www.w3.org/2000/svg"
   xmlns="http://www.w3.org/2000/svg"
   viewBox="0 0 734.88 800.20001"
   height="800.20001"
   width="734.88"
   xml:space="preserve"
   id="svg2"
   version="1.1"><metadata
     id="metadata8"><rdf:RDF><cc:Work
         rdf:about=""><dc:format>image/svg+xml</dc:format><dc:type
           rdf:resource="http://purl.org/dc/dcmitype/StillImage" /></cc:Work></rdf:RDF></metadata><defs
     id="defs6"><clipPath
       id="clipPath20"
       clipPathUnits="userSpaceOnUse"><path
         id="path18"
         d="M 0,0 H 5511.56 V 6001 H 0 Z" /></clipPath></defs><g
     transform="matrix(1.3333333,0,0,-1.3333333,0,800.2)"
     id="g10"><g
       transform="scale(0.1)"
       id="g12"><g
         id="g14"><g
           clip-path="url(#clipPath20)"
           id="g16"><path
             id="path22"
             style="fill:#cb8e4c;fill-opacity:1;fill-rule:nonzero;stroke:none"
             d="m 5451.38,5444.55 c 77,-278.5 -23.2,-578.59 -253.8,-752.79 -783.4,315.2 -1612.6,472.7 -2441.7,472.7 -64,0 -128.1,-0.91 -192.1,-2.8 -4.4,-0.11 -8.8,-0.2 -13.3,-0.5 -628.2,-19.61 -1254.3,-129.8 -1858.203,-330.6 -127.097,-42.3 -253.199,-88.5 -378.199,-138.8 -230.5975,174.2 -330.8007,474.29 -253.7967,752.79 860.7967,346.31 1767.6987,521.91 2695.5987,521.91 927.8,0 1834.7,-175.6 2695.5,-521.91" /><path
             id="path24"
             style="fill:#f6cb53;fill-opacity:1;fill-rule:nonzero;stroke:none"
             d="m 4394.13,4127.58 c -66.2,-285.8 -322.3,-498.7 -628.2,-498.7 -356.1,0 -644.7,288.6 -644.7,644.7 0,10.7 0.3,21.3 0.8,31.8 0.1,3.2 0.3,6.4 0.6,9.6 0.4,7.3 1,14.5 1.7,21.7 0.3,3.4 0.7,6.9 1.1,10.4 0.7,6.5 1.5,12.9 2.5,19.3 0.4,3.3 0.9,6.6 1.5,9.9 2.1,13.4 4.6,26.6 7.6,39.6 0.8,3.8 1.7,7.5 2.7,11.3 1.5,6.6 3.2,13.2 5.1,19.7 0.8,3.1 1.7,6.2 2.7,9.3 0.8,3.1 1.8,6.2 2.7,9.2 1.5,5 3.2,10 4.9,15 1,3.1 2.1,6.2 3.3,9.3 1.2,3.4 2.4,6.9 3.7,10.3 2.2,6 4.5,12 7,17.8 1.3,3.3 2.7,6.5 4.1,9.8 3.4,8.1 7,16.1 10.8,23.9 2,4.1 4,8.3 6.1,12.4 2.9,5.7 5.9,11.4 8.9,17 0.9,1.7 1.8,3.4 2.8,5 2.8,5.1 5.6,10.1 8.6,15 3.5,6 7.1,11.9 10.8,17.7 1.1,1.8 2.2,3.5 3.3,5.2 4,6.2 8.2,12.4 12.4,18.4 3,4.4 6.1,8.7 9.3,12.9 2.4,3.4 4.9,6.7 7.5,10 9.6,12.6 19.6,24.8 30.2,36.6 2.6,2.9 5.3,5.9 7.9,8.8 12.3,13.4 25.1,26.2 38.5,38.4 3.2,2.9 6.3,5.7 9.5,8.5 3.9,3.5 7.9,6.9 12,10.3 2.7,2.3 5.4,4.6 8.2,6.8 4.2,3.4 8.4,6.8 12.7,10 3.6,2.8 7.3,5.6 11,8.3 3.7,2.7 7.4,5.4 11.2,8.1 6.6,4.6 13.2,9.1 19.9,13.5 5.5,3.6 11.1,7.1 16.8,10.6 2.6,1.6 5.2,3.2 7.9,4.6 2.2,1.4 4.4,2.6 6.7,3.9 4.1,2.4 8.2,4.7 12.4,7 6.3,3.4 12.6,6.7 19,9.9 4.2,2.1 8.3,4.1 12.5,6.1 4.4,2.1 8.9,4.1 13.4,6.1 4.5,2 9,4 13.5,5.9 4.6,1.9 9.1,3.7 13.7,5.5 17.5,6.9 35.5,13.1 53.8,18.4 2.9,0.9 5.8,1.7 8.7,2.5 5.3,1.5 10.7,2.9 16.2,4.2 2.2,0.6 4.4,1.2 6.7,1.7 l 1.9,0.4 c 1.6,0.4 3.2,0.8 4.8,1.1 4.4,1.1 8.7,2 13.2,2.9 5.2,1.1 10.5,2.1 15.8,3 3.2,0.6 6.4,1.2 9.7,1.6 4.5,0.8 9,1.4 13.6,2.1 5.5,0.8 10.9,1.5 16.5,2.1 3.6,0.5 7.2,0.8 10.9,1.2 8.2,0.8 16.4,1.5 24.7,1.9 3.1,0.2 6.2,0.4 9.3,0.5 4.8,0.2 9.7,0.4 14.6,0.5 4.9,0.1 9.8,0.2 14.8,0.2 10.8,0 21.5,-0.3 32.2,-0.8 9.4,-0.5 18.7,-1.1 27.9,-2 3.5,-0.3 7.1,-0.7 10.7,-1.1 6,-0.6 11.9,-1.3 17.8,-2.2 5.9,-0.8 11.8,-1.7 17.6,-2.7 2.3,-0.4 4.7,-0.8 7.1,-1.2 4.3,-0.7 8.6,-1.5 12.9,-2.4 5.1,-1 10.2,-2 15.2,-3.2 10.1,-2.2 20.1,-4.7 30,-7.5 3.8,-1 7.5,-2 11.3,-3.2 l 1.6,-0.5 c 3.1,-0.9 6.2,-1.8 9.2,-2.8 12.3,-3.8 24.3,-8 36.3,-12.6 4.8,-1.8 9.5,-3.6 14.2,-5.6 3.5,-1.4 7.1,-2.9 10.6,-4.5 3.1,-1.3 6.2,-2.7 9.3,-4.1 12.2,-5.4 24.1,-11.2 35.9,-17.4 4.2,-2.2 8.4,-4.4 12.5,-6.8 4.4,-2.4 8.8,-4.9 13.1,-7.5 2.7,-1.5 5.4,-3.1 8.1,-4.8 3.9,-2.3 7.8,-4.7 11.6,-7.2 6.2,-3.9 12.4,-8 18.5,-12.2 4.1,-2.7 8.3,-5.6 12.3,-8.6 4.1,-2.9 8.1,-5.8 12.1,-8.9 12,-9 23.7,-18.5 35,-28.4 7.5,-6.4 14.7,-13 21.8,-19.8 3.8,-3.6 7.5,-7.2 11.1,-10.9 3.6,-3.5 7,-7 10.5,-10.7 l 0.3,-0.3 c 6.8,-7.1 13.5,-14.4 19.9,-21.9 3.3,-3.7 6.6,-7.6 9.8,-11.5 2.8,-3.3 5.6,-6.7 8.2,-10.1 l 1.2,-1.5 c 2.4,-2.9 4.8,-6 7.1,-9.1 l 0.1,-0.1 c 2.8,-3.7 5.6,-7.4 8.3,-11.2 l 0.5,-0.7 c 1.8,-2.5 3.6,-5 5.4,-7.6 1.8,-2.5 3.6,-5 5.3,-7.6 2.6,-3.6 5,-7.3 7.4,-11 3.8,-5.7 7.5,-11.5 11,-17.4 3.2,-5.2 6.3,-10.5 9.3,-15.9 4,-6.8 7.8,-13.7 11.4,-20.8 2.3,-4.2 4.5,-8.5 6.6,-12.8 1.3,-2.6 2.6,-5.2 3.8,-7.9 2,-4.1 3.9,-8.2 5.8,-12.4 5.5,-12.2 10.7,-24.6 15.4,-37.2 1.6,-4.2 3.2,-8.5 4.7,-12.8 1.4,-3.8 2.7,-7.7 4,-11.6 1.5,-4.5 3,-9.1 4.4,-13.7 1.4,-4.5 2.7,-9 4,-13.5 1.3,-4.6 2.6,-9.1 3.7,-13.7 0.5,-1.7 0.9,-3.3 1.3,-5 0.5,-1.6 0.9,-3.3 1.2,-5 1,-3.8 1.9,-7.6 2.7,-11.5 1,-4 1.8,-8.1 2.7,-12.3 2.2,-11.1 4.2,-22.4 5.9,-33.7 0.8,-5.1 1.4,-10.2 2.1,-15.3 0.5,-4 0.9,-7.9 1.3,-11.9 0.3,-2.7 0.6,-5.4 0.8,-8.1 1.9,-19.7 2.8,-39.8 2.8,-60 0,-50.2 -5.7,-99.1 -16.6,-146 m -1638.3,1036.9 c -64,0 -128.1,-0.9 -192.1,-2.8 -4.4,-0.1 -8.8,-0.2 -13.3,-0.5 -6.3,-0.3 -12.6,-0.8 -19,-1.5 l -0.9,-0.1 c -5.3,-0.6 -10.7,-1.3 -16.1,-2.1 -7.2,-1 -14.5,-2.3 -21.8,-3.8 -3.3,-0.6 -6.5,-1.3 -9.7,-2 -1.8,-0.3 -3.6,-0.7 -5.4,-1.2 -1.8,-0.4 -3.6,-0.8 -5.4,-1.3 -4,-1 -8,-2 -12,-3 -8.1,-2 -16.3,-4.3 -24.5,-6.9 -4.1,-1.2 -8.2,-2.5 -12.3,-3.8 -4.2,-1.3 -8.3,-2.7 -12.5,-4.1 -4.1,-1.4 -8.3,-2.8 -12.5,-4.3 -4.2,-1.5 -8.5,-3 -12.7,-4.6 -8.5,-3.1 -17.1,-6.4 -25.8,-9.9 -7.5,-3 -15.2,-6.1 -22.8,-9.3 -14.3,-5.9 -28.7,-12.2 -43.3,-18.8 -9.1,-4 -18.2,-8.1 -27.4,-12.4 -18.3,-8.4 -37,-17.3 -56,-26.4 -5.9,-2.9 -11.9,-5.8 -17.9,-8.7 -2.7,-1.3 -5.5,-2.6 -8.2,-3.9 -4.3,-2.1 -8.6,-4.2 -12.9,-6.3 -63.7,-30.9 -131,-63.8 -202.1,-94.9 -7.9,-3.4 -15.9,-6.9 -23.9,-10.3 -5,-2.2 -10,-4.3 -15,-6.3 -11.1,-4.7 -22.3,-9.3 -33.5,-13.8 -5.4,-2.2 -10.8,-4.3 -16.3,-6.4 -13.8,-5.4 -27.7,-10.7 -41.8,-15.9 -1.4,-0.6 -2.9,-1.1 -4.3,-1.6 -6.3,-2.3 -12.8,-4.6 -19.2,-6.8 -7.9,-2.8 -15.8,-5.5 -23.8,-8.2 -7,-2.4 -14.1,-4.7 -21.2,-7 -8.7,-2.8 -17.4,-5.5 -26.2,-8.1 -11,-3.3 -22.1,-6.5 -33.2,-9.6 -6.7,-1.9 -13.5,-3.7 -20.2,-5.5 -6.9,-1.8 -13.9,-3.6 -21,-5.3 -5.3,-1.3 -10.6,-2.6 -15.9,-3.8 -5.1,-1.2 -10.3,-2.4 -15.4,-3.6 -10.8,-2.4 -21.8,-4.6 -32.8,-6.8 -4.2,-0.9 -8.4,-1.7 -12.7,-2.4 -5,-0.9 -10,-1.8 -15.1,-2.7 -8.6,-1.5 -17.3,-2.9 -26,-4.3 -4.7,-0.7 -9.5,-1.4 -14.3,-2 -7.1,-1 -14.4,-1.9 -21.6,-2.8 -7.3,-0.9 -14.6,-1.7 -21.9,-2.5 -4.9,-0.5 -9.8,-1 -14.7,-1.4 -6.5,-0.6 -13.2,-1.1 -19.8,-1.6 -37.1,-2.8 -75.1,-3.8 -113.8,-2.8 -16.1,0.4 -31.9,0.8 -47.4,1.3 -6.7,0.1 -13.4,0.3 -20,0.6 -36.4,1.1 -71.3,2.4 -104.6,3.8 -16.9,0.7 -33.3,1.5 -49.3,2.2 -7.6,0.4 -15.1,0.7 -22.5,1.1 -6.5,0.3 -12.9,0.6 -19.3,1 -24.9,1.2 -48.7,2.5 -71.4,3.9 -4.9,0.3 -9.7,0.6 -14.501,0.9 -12,0.7 -23.699,1.4 -35.102,2.2 -6.8,0.4 -13.398,0.9 -20,1.3 -7.3,0.5 -14.398,1 -21.297,1.5 -17.3,1.3 -33.8,2.5 -49.203,3.7 -7.097,0.5 -14.097,1.1 -20.898,1.6 -1.801,0.1 -3.602,0.3 -5.301,0.4 -1.598,0.1 -3.199,0.3 -4.699,0.4 -3.301,0.3 -6.5,0.5 -9.699,0.8 -9.102,0.7 -17.7,1.5 -25.903,2.2 -6.5,0.6 -12.8,1.1 -18.797,1.7 -3.101,0.2 -6.003,0.5 -8.902,0.8 -2.898,0.3 -5.699,0.5 -8.398,0.8 -5.5,0.5 -10.7,1 -15.7,1.5 -3.101,0.3 -6.101,0.6 -9,0.9 -23.203,2.3 -38.8,4.1 -46.3,5 -1.102,0.1 -2,0.2 -2.703,0.3 -1.7,0.2 -2.5,0.3 -2.5,0.3 -37.797,-12.6 -75.399,-25.5 -113,-38.8 -18.2,-6.4 -36.399,-12.9 -54.598,-19.5 -9.301,-3.3 -18.602,-6.7 -27.801,-10.2 -9.301,-3.4 -18.5,-6.9 -27.801,-10.3 h -0.199 c -15.598,-5.8 -31.199,-11.7 -46.699,-17.6 -10.301,-3.9 -20.602,-7.9 -30.801,-11.9 -25.801,-10 -51.601,-20.1 -77.301,-30.5 0,0 19,-37.3 48.903,-95.8 75.5,-147.6 220.097,-430.6 302.3,-591.5 19.2,-37.4 34.899,-68.3 45.598,-89.3 25.899,-50.6 40.402,-125.8 51.602,-207 v -0.2 c 21.199,-155.2 29.898,-332.5 81,-402.8 23.699,-32.5 59,-43.5 96.8,-38.9 2.399,0.3 4.899,0.7 7.399,1.1 1.699,0.3 3.5,0.6 5.301,1 1.597,0.4 3.3,0.7 5,1.2 6.398,1.5 13,3.5 19.5,6 3.398,1.2 6.699,2.6 10.097,4 2.102,0.9 4.2,1.9 6.403,2.9 2.097,0.9 4.199,2 6.3,3.1 4.2,2.2 8.4,4.5 12.5,6.9 2.1,1.3 4.2,2.5 6.2,3.8 2.1,1.3 4.1,2.6 6.1,4 2,1.3 4,2.7 6,4.2 2,1.4 3.9,2.9 5.9,4.4 3.6,2.8 7.3,5.7 10.8,8.8 l 1.2,1.1 c 3,2.6 5.9,5.3 8.8,8.1 1.5,1.3 3,2.8 4.4,4.3 1.9,1.8 3.8,3.7 5.5,5.7 1.3,1.3 2.6,2.7 3.8,4.2 l 0.4,0.4 c 2.7,2.9 5.2,5.9 7.6,9 5.4,6.5 10.3,13.3 14.8,20.4 1.5,2.3 3,4.6 4.3,7 3.1,5.2 6,10.5 8.6,15.9 1,2 1.9,4 2.7,6 1.1,2.5 2.2,5 3.2,7.5 3.1,7.6 5.6,15.4 7.5,23.3 0.6,2.2 1.1,4.4 1.5,6.6 l 0.4,2 c 0.5,2.3 0.9,4.7 1.3,7 l 0.1,0.6 c 0.3,2 0.6,4 0.8,6.1 0.3,2.7 0.5,5.5 0.7,8.3 0.2,3.2 0.3,6.3 0.3,9.5 v 4.4 c 0,2.7 0.1,5.4 0.2,8.1 0.3,10.7 1.1,21 2.4,30.7 0.2,2.5 0.6,5 1,7.4 0.3,2.5 0.7,4.9 1.2,7.3 0.5,2.8 1,5.6 1.7,8.3 0.1,1.1 0.4,2.1 0.6,3.1 0.5,2.3 1.1,4.6 1.7,6.8 0.7,2.7 1.4,5.3 2.2,7.9 15.1,49.5 45.1,80.2 87.3,89 3.7,0.8 7.5,1.4 11.4,1.9 27.2,3 59,-2.3 94.7,-16.7 39.4,-16 81.6,-24.1 119.3,-20.7 1.9,0.1 3.7,0.3 5.6,0.6 4.9,0.6 9.8,1.4 14.5,2.4 2.5,0.5 4.9,1.1 7.3,1.8 l 2.3,0.6 c 2.6,0.8 5.2,1.6 7.8,2.5 6,2.1 11.8,4.7 17.4,7.7 2.2,1.1 4.3,2.4 6.3,3.7 l 0.4,0.2 c 2.1,1.3 4.1,2.7 6.1,4.1 5.1,3.8 9.9,8 14.4,12.6 1.8,1.9 3.5,3.9 5.1,5.9 l 0.7,0.8 c 1.8,2.2 3.5,4.6 5.2,7 3.4,5.1 6.6,10.6 9.4,16.5 1.2,2.5 2.3,5.1 3.3,7.7 1,2.6 1.9,5.2 2.8,7.9 0.7,2.1 1.3,4.2 1.9,6.3 0.4,1.6 0.8,3.2 1.2,4.9 0.6,2.1 1.1,4.3 1.5,6.6 h 0.1 c 5.4,0.1 10.9,0.2 16.5,0.2 5,0 10,-0.1 15,-0.2 8.3,-0.2 16.5,-0.5 24.6,-1 10.4,-0.6 20.6,-1.5 30.8,-2.6 10.8,58.2 27.6,113.6 49.5,165.2 93.9,221.4 281.4,372.4 497.5,372.4 216.2,0 403.8,-151.1 497.6,-372.6 12,-24.7 22.8,-50.5 32.3,-77.1 29.9,-83.7 46.7,-176.1 47.4,-273.2 0.1,-2.2 0.1,-4.5 0.1,-6.8 0,-383.6 -251.4,-694.6 -561.5,-694.6 -12.2,0 -24.4,0.5 -36.4,1.5 l -0.1,-0.1 c -2.8,-6.7 -5.6,-13.4 -8.6,-20 l -0.4,-1 c -3,-6.6 -6.1,-13.2 -9.4,-19.7 -2.5,-5.2 -5.1,-10.4 -7.9,-15.5 -1.1,-2.3 -2.4,-4.5 -3.6,-6.8 -2.6,-4.8 -5.3,-9.7 -8.1,-14.5 -1.4,-2.5 -2.9,-4.9 -4.4,-7.4 -3,-5.2 -6.2,-10.4 -9.5,-15.5 -3.3,-5.3 -6.7,-10.5 -10.3,-15.7 -1.4,-2.2 -2.9,-4.4 -4.6,-6.6 -2.8,-4.3 -5.8,-8.5 -8.8,-12.6 -0.6,-0.9 -1.3,-1.7 -1.9,-2.6 -1.6,-2.2 -3.3,-4.4 -5,-6.6 -8.4,-11.1 -17.1,-22 -26.3,-32.5 -3.9,-4.6 -8,-9.1 -12.1,-13.6 -3.1,-3.3 -6.1,-6.6 -9.2,-9.8 -10.6,-11.2 -21.7,-22.1 -33.2,-32.5 -7.6,-6.9 -15.4,-13.7 -23.4,-20.2 -4,-3.3 -8,-6.5 -12.1,-9.7 -3.6,-2.9 -7.2,-5.7 -10.9,-8.4 -8.7,-6.6 -17.6,-13 -26.6,-19 -4.3,-2.9 -8.6,-5.8 -13,-8.6 -4.4,-2.8 -8.8,-5.5 -13.2,-8.2 -4.4,-2.7 -8.9,-5.4 -13.4,-7.9 -4.5,-2.6 -9,-5.2 -13.6,-7.7 -9.2,-5 -18.5,-9.7 -27.8,-14.2 -9.4,-4.5 -18.9,-8.8 -28.6,-12.9 -4.7,-2 -9.4,-4 -14.2,-5.9 l -0.8,-0.3 c -4.4,-1.7 -8.9,-3.4 -13.3,-5.1 -15.2,-5.5 -30.5,-10.5 -46.1,-14.9 -4.8,-1.4 -9.6,-2.7 -14.5,-3.9 l -1.8,-0.5 c -3.7,-1 -7.4,-1.9 -11.1,-2.7 -2.5,-0.7 -5,-1.2 -7.5,-1.8 -3.2,-0.7 -6.4,-1.4 -9.7,-2.1 -16.4,-3.4 -33,-6.2 -49.8,-8.3 -3.4,-0.5 -6.8,-0.9 -10.3,-1.2 -3.7,-0.5 -7.4,-0.8 -11.1,-1.1 -1.3,-0.2 -2.7,-0.3 -4.1,-0.4 -4.6,-0.5 -9.2,-0.8 -13.9,-1.1 -1.5,-0.1 -3,-0.2 -4.5,-0.3 -5.4,-0.3 -10.8,-0.6 -16.3,-0.7 -7.3,-0.3 -14.6,-0.4 -21.9,-0.4 -35.5,0 -70.4,2.9 -104.5,8.4 l -1.1,-4.4 c 0,0 345.1,-730.5 404.7,-983 l 0.1,-0.1 c 5.5,-23.8 8.6,-43.3 8.6,-57.6 0,-85.7 104.9,-157.4 194.2,-148.8 l 5.1,-9.9 574,-1123.2995 c 44.3,-86.8008 168.5,-86.6016 212.6,0.3985 l 59.4,117.301 388.8,768 46.8,92.3 c -32.4,1.8 -66.8,6.8 -95.1,6.8 -356,0 -644.7,288.7 -644.7,644.8 0,5.4 0.1,10.7 0.2,16 0.2,7 0.4,14 0.8,20.9 0.2,4.3 0.5,8.4 0.9,12.7 0.2,3.5 0.5,6.9 0.9,10.3 0.3,3.5 0.7,6.9 1,10.3 0.5,5.1 1.1,10.2 1.9,15.2 0.8,6.4 1.7,12.8 2.8,19.1 0.8,4.8 1.6,9.6 2.5,14.4 0.5,3 1.1,6 1.8,9 l 0.2,1.1 c 1,5.2 2.1,10.3 3.3,15.4 1.5,6.9 3.2,13.8 5.1,20.7 0.6,2.5 1.3,5 2,7.5 1.7,6.3 3.6,12.5 5.5,18.7 1.7,5.5 3.5,11 5.4,16.4 4.3,12.8 9,25.4 14.2,37.8 1.1,2.9 2.3,5.8 3.6,8.6 1.6,3.9 3.4,7.8 5.1,11.6 1.2,2.8 2.5,5.5 3.9,8.3 1.8,4.1 3.8,8.1 5.8,12.1 2.3,4.7 4.6,9.2 7,13.8 0.8,1.5 1.5,2.9 2.3,4.3 2.8,5.1 5.6,10.2 8.5,15.2 3.1,5.5 6.3,10.9 9.6,16.2 3.2,5.4 6.6,10.7 10,15.9 2.9,4.4 5.8,8.8 8.8,13.2 4.7,6.9 9.6,13.7 14.6,20.4 l 0.1,0.2 c 2.6,3.5 5.3,7 8.1,10.5 l 1.7,2.2 c 1.4,1.8 2.8,3.6 4.2,5.3 5.8,7.3 11.9,14.5 18.1,21.5 1.8,2.2 3.7,4.3 5.7,6.4 3.3,3.8 6.8,7.5 10.3,11.2 3.9,4.2 7.9,8.3 12,12.4 3.5,3.5 7,7 10.6,10.4 l 1.1,1.1 c 3.2,3.1 6.5,6.1 9.7,9 2.6,2.5 5.3,4.9 8,7.2 2.7,2.5 5.3,4.8 8,7 1.4,1.2 2.8,2.4 4.3,3.6 1.4,1.3 2.8,2.5 4.3,3.6 3.7,3.1 7.4,6.1 11.1,9 14.6,11.7 29.7,22.6 45.3,32.8 4.1,2.8 8.2,5.4 12.4,8 4.8,3 9.6,6 14.4,8.8 l 1.4,0.8 c 5.3,3.2 10.7,6.3 16.1,9.2 5.4,3 10.9,5.9 16.4,8.7 5.5,2.8 11.1,5.6 16.7,8.2 5.6,2.7 11.2,5.3 16.9,7.8 5.7,2.5 11.4,5 17.2,7.3 5.8,2.4 11.6,4.7 17.4,6.8 5.8,2.2 11.7,4.3 17.6,6.3 6,2.1 11.9,4 17.9,5.8 5.4,1.7 10.6,3.3 16.1,4.7 6,1.7 12.1,3.4 18.3,4.8 1.3,0.4 2.7,0.7 4,1 l 1.9,0.5 c 4.9,1.2 9.8,2.3 14.8,3.3 6.2,1.4 12.4,2.6 18.7,3.7 4.9,1 9.8,1.8 14.8,2.5 l 1.9,0.3 c 1.8,0.3 3.6,0.6 5.5,0.9 3.4,0.5 6.8,1 10.2,1.3 2.6,0.4 5.3,0.7 8,1 5.6,0.7 11.3,1.3 17,1.8 5.9,0.6 11.9,1 17.9,1.4 l 2.5,0.1 c 4.3,0.3 8.6,0.6 12.8,0.6 8.5,0.4 17,0.6 25.6,0.6 5.4,0 10.7,-0.1 16,-0.3 3.1,0 6.3,-0.1 9.4,-0.3 h 1.3 c 2.8,0 5.5,-0.2 8.3,-0.4 l 1.8,-0.1 c 2.2,-0.1 4.4,-0.2 6.5,-0.4 5.2,-0.3 10.5,-0.7 15.7,-1.2 3.5,-0.3 7.2,-0.6 10.8,-1.1 2.4,-0.2 4.9,-0.5 7.3,-0.8 4.5,-0.5 8.9,-1 13.3,-1.7 5.6,-0.8 11.1,-1.6 16.6,-2.6 5.4,-0.9 10.7,-1.8 16,-2.9 1.4,-0.2 2.7,-0.4 4.1,-0.8 2.8,-0.5 5.6,-1.1 8.3,-1.7 2.8,-0.5 5.6,-1.1 8.3,-1.8 4,-0.9 7.9,-1.8 11.9,-2.8 1.3,-0.3 2.7,-0.7 4,-1 3.6,-0.9 7.2,-1.9 10.7,-2.8 1.8,-0.5 3.5,-1 5.3,-1.5 4,-1.2 8,-2.3 11.9,-3.5 3.1,-0.9 6.2,-1.9 9.3,-2.9 2.9,-0.9 5.9,-1.9 8.8,-2.9 2.8,-0.9 5.6,-1.9 8.4,-2.8 3.7,-1.4 7.4,-2.7 11,-4.1 7.6,-2.8 15.2,-5.8 22.6,-8.9 4.9,-2 9.7,-4.1 14.5,-6.3 5.5,-2.5 11.1,-5 16.5,-7.6 5.5,-2.6 10.9,-5.3 16.3,-8.1 2.7,-1.4 5.5,-2.9 8.2,-4.3 8.7,-4.6 17.3,-9.4 25.7,-14.5 2.9,-1.7 5.8,-3.4 8.6,-5.2 2,-1.1 4,-2.4 5.9,-3.6 3.5,-2.3 7,-4.5 10.4,-6.8 2,-1.2 4,-2.5 5.9,-3.9 2,-1.3 3.9,-2.7 5.9,-4.1 4.7,-3.3 9.4,-6.5 14,-9.8 18.4,-13.4 36,-27.7 52.8,-42.9 4.2,-3.8 8.2,-7.5 12.2,-11.4 4.3,-4 8.5,-8.1 12.7,-12.4 8.3,-8.3 16.4,-16.9 24.3,-25.8 7.9,-8.8 15.5,-17.9 22.9,-27.1 3.3,-4.2 6.6,-8.4 9.8,-12.6 3.3,-4.3 6.4,-8.6 9.5,-12.9 3,-4.1 5.9,-8.2 8.7,-12.4 15.3,-22.2 29.1,-45.4 41.5,-69.5 l 342.8,677.3 57.1,112.7 2.6,5.1 c 15.2,-5.1 30.6,-8.5 46,-10.4 36.9,-4.4 73.3,0.8 105.6,16.8 53.6,26.5 95.7,82.9 109.2,174.9 l 0.1,0.5 c 3.5,23.5 5.1,49.3 4.5,77.6 -0.9,46.5 7.9,106.5 22,170.3 31.6,142.8 89.5,305 122.9,380.5 9.1,20.7 352.5,697.2 485.9,959.9 32.2,63.5 52.2,102.8 52.2,102.8 -783.4,315.2 -1612.6,472.7 -2441.7,472.7" /><path
             id="path26"
             style="fill:#e53e47;fill-opacity:1;fill-rule:nonzero;stroke:none"
             d="m 4410.78,4273.56 c 0,-50.2 -5.7,-99.1 -16.6,-146 -66.2,-285.8 -322.3,-498.7 -628.2,-498.7 -356.1,0 -644.7,288.6 -644.7,644.7 0,356.1 288.6,644.7 644.7,644.7 10.8,0 21.5,-0.3 32.2,-0.8 341.1,-16.8 612.6,-298.6 612.6,-643.9" /><path
             id="path28"
             style="fill:#e53e47;fill-opacity:1;fill-rule:nonzero;stroke:none"
             d="m 3886.78,1926.96 c 0,0 -213.7,-304.2 -379.6,-719.8 -11.9,-29.7 -23.5,-60.1 -34.8,-90.9 -13.5,-36.9 -56.9,-41 -104.5,-38.3 -32.4,1.8 -66.8,6.8 -95.1,6.8 -356,0 -644.7,288.7 -644.7,644.8 0,144.4 47.5,277.7 127.7,385.1 l 0.1,0.2 c 117.6,157.4 305.3,259.4 516.9,259.4 204.3,0 386.3,-95 504.4,-243.1 26.6,-33.3 49.9,-69.2 69.5,-107.4 15.9,-30.9 29.3,-63.3 40.1,-96.8" /><path
             id="path30"
             style="fill:#e53e47;fill-opacity:1;fill-rule:nonzero;stroke:none"
             d="m 2188.55,2852.77 c -258.49,4.4 -474.8,225 -536.09,522.21 v 0.09 c -3.3,15.8 -6.1,31.91 -8.4,48.1 -5.1,34.5 -8.01,69.9 -8.8,106 -0.11,6 -0.2,12 -0.2,18.11 0,53.99 5,106.59 14.5,157.09 -10.2,1.1 -20.4,2 -30.81,2.61 -8.09,0.5 -16.29,0.79 -24.59,0.99 -5,0.1 -10,0.2 -15,0.2 -5.61,0 -11.1,-0.1 -16.51,-0.2 h -0.09 c -0.4,-2.3 -0.9,-4.5 -1.51,-6.6 -0.39,-1.7 -0.79,-3.3 -1.19,-4.9 -0.61,-2.1 -1.2,-4.19 -1.9,-6.3 -0.9,-2.69 -1.8,-5.3 -2.81,-7.89 -0.99,-2.61 -2.09,-5.21 -3.29,-7.71 -2.8,-5.9 -5.91,-11.4 -9.4,-16.5 -1.61,-2.4 -3.4,-4.8 -5.2,-7 l -0.7,-0.8 c -1.6,-2 -3.31,-4 -5.1,-5.9 -4.5,-4.59 -9.3,-8.8 -14.4,-12.6 -2,-1.4 -4,-2.8 -6.11,-4.1 l -0.39,-0.19 c -2.01,-1.31 -4.1,-2.61 -6.31,-3.71 -5.59,-3 -11.4,-5.6 -17.39,-7.7 -2.61,-0.9 -5.2,-1.7 -7.8,-2.5 l -2.31,-0.6 c -2.39,-0.69 -4.79,-1.3 -7.29,-1.8 -4.7,-1 -9.6,-1.8 -14.5,-2.4 -1.9,-0.3 -3.71,-0.5 -5.6,-0.6 -37.7,-3.39 -79.9,4.7 -119.3,20.7 -35.7,14.4 -67.5,19.7 -94.7,16.7 -3.9,-0.5 -7.71,-1.1 -11.4,-1.9 -42.2,-8.8 -72.2,-39.5 -87.3,-89 -0.8,-2.6 -1.51,-5.2 -2.2,-7.9 -0.6,-2.2 -1.21,-4.49 -1.7,-6.79 -0.2,-1.01 -0.5,-2.01 -0.6,-3.11 -0.7,-2.7 -1.2,-5.5 -1.7,-8.3 -0.5,-2.4 -0.9,-4.8 -1.2,-7.3 -0.4,-2.4 -0.8,-4.9 -1.01,-7.4 -1.29,-9.7 -2.09,-20 -2.39,-30.7 -0.11,-2.7 -0.2,-5.4 -0.2,-8.1 v -4.4 c 0,-3.19 -0.1,-6.3 -0.3,-9.5 -0.21,-2.8 -0.4,-5.6 -0.7,-8.3 -0.2,-2.1 -0.5,-4.1 -0.8,-6.1 l -0.11,-0.6 c -0.39,-2.3 -0.79,-4.7 -1.29,-7 l -0.4,-1.99 c -0.4,-2.2 -0.9,-4.41 -1.5,-6.61 -1.9,-7.9 -4.4,-15.7 -7.5,-23.29 -1,-2.5 -2.01,-5 -3.2,-7.5 -0.8,-2.01 -1.7,-4.01 -2.7,-6 -2.6,-5.41 -5.5,-10.71 -8.61,-15.9 -1.29,-2.41 -2.8,-4.7 -4.29,-7.01 -4.5,-7.09 -9.4,-13.89 -14.8,-20.4 -2.4,-3.1 -4.9,-6.1 -7.6,-9 l -0.4,-0.4 c -1.2,-1.49 -2.5,-2.89 -3.81,-4.2 -1.69,-2 -3.59,-3.9 -5.49,-5.7 -1.41,-1.49 -2.9,-2.99 -4.4,-4.3 -2.8,-2.8 -5.8,-5.5 -8.8,-8.09 l -1.2,-1.11 c -3.5,-3.09 -7.2,-6 -10.8,-8.8 -2,-1.5 -3.9,-3 -5.91,-4.39 -1.99,-1.51 -3.99,-2.91 -5.99,-4.21 -2,-1.4 -4.01,-2.7 -6.1,-3.99 -2,-1.41 -4.1,-2.61 -6.2,-3.8 -4.1,-2.5 -8.3,-4.81 -12.5,-6.91 -2.104,-1.09 -4.205,-2.2 -6.303,-3.09 -2.199,-1.11 -4.301,-2.1 -6.402,-2.9 -3.399,-1.51 -6.7,-2.91 -10.098,-4.01 -6.5,-2.5 -13.102,-4.5 -19.504,-5.99 -1.699,-0.51 -3.398,-0.8 -5,-1.21 -1.797,-0.4 -3.598,-0.69 -5.297,-1 -2.5,-0.39 -5,-0.8 -7.398,-1.09 155.792,-259.41 408.192,-805.11 408.192,-805.11 40.3,-15.49 82.6,-27 126.21,-34.09 34.09,-5.5 69,-8.41 104.5,-8.41 7.3,0 14.59,0.1 21.89,0.41 5.51,0.09 10.91,0.39 16.31,0.7 1.5,0.1 2.99,0.2 4.5,0.29 4.7,0.3 9.3,0.61 13.89,1.1 1.41,0.1 2.8,0.2 4.11,0.41 3.69,0.29 7.4,0.59 11.09,1.1 3.51,0.29 6.9,0.69 10.3,1.19 16.81,2.1 33.41,4.9 49.8,8.3 3.31,0.7 6.51,1.4 9.7,2.11 2.5,0.6 5,1.09 7.5,1.79 3.71,0.8 7.41,1.7 11.11,2.7 l 1.8,0.51 c 4.89,1.19 9.7,2.5 14.5,3.9 15.59,4.39 30.9,9.39 46.1,14.89 4.4,1.71 8.9,3.4 13.3,5.11 l 0.8,0.29 c 4.8,1.9 9.49,3.91 14.2,5.9 9.7,4.1 19.2,8.4 28.6,12.91 9.3,4.5 18.6,9.19 27.8,14.19 4.59,2.5 9.1,5.11 13.6,7.7 4.5,2.5 9,5.2 13.39,7.91 4.4,2.7 8.81,5.4 13.21,8.19 4.39,2.8 8.69,5.7 13,8.6 9,6.01 17.9,12.4 26.59,19 3.71,2.7 7.3,5.5 10.91,8.4 4.09,3.2 8.1,6.41 12.1,9.7 8,6.51 15.8,13.31 23.4,20.2 11.5,10.41 22.6,21.31 33.2,32.5 3.1,3.2 6.1,6.51 9.2,9.8 4.1,4.5 8.19,9.01 12.1,13.61 9.2,10.49 17.9,21.39 26.29,32.5 1.71,2.2 3.41,4.39 5,6.59 0.61,0.91 1.31,1.7 1.9,2.6 3.01,4.1 6.01,8.31 8.81,12.6 1.7,2.2 3.2,4.4 4.59,6.6 3.61,5.21 7,10.4 10.31,15.7 3.3,5.1 6.5,10.3 9.49,15.5 1.51,2.5 3.01,4.9 4.41,7.4 2.79,4.8 5.49,9.7 8.09,14.5 1.21,2.3 2.5,4.5 3.61,6.8 2.7,5.1 5.4,10.31 7.9,15.5 3.3,6.5 6.39,13.1 9.4,19.7 l 0.4,1 c 2.99,6.61 5.79,13.3 8.59,20 l 1.01,2.5 c 2.7,6.7 5.3,13.41 7.8,20.21 1.29,3.69 2.6,7.29 3.9,10.99 h -0.11" /><path
             id="path32"
             style="fill:#e53e47;fill-opacity:1;fill-rule:nonzero;stroke:none"
             d="m 2550.48,5161.16 c -105.3,-5.7 -223.6,-59.3 -358,-124.2 -230.3,-111.1 -507.7,-255.1 -846.8,-246.6 -163.3,4.1 -299.3,11.2 -404.102,18.3 -36,2.4 -68.301,4.9 -96.699,7.2 -99.602,8 -152.602,14.7 -152.602,14.7 36.903,12.3 73.903,24.2 111,35.8 569.403,178.1 1157.403,276.4 1747.203,294.8" /><path
             id="path34"
             style="fill:#e8816a;fill-opacity:1;fill-rule:nonzero;stroke:none"
             d="m 4116.23,4440.26 c -2.66,2.27 -5.26,4.6 -7.69,7.12 -0.99,1.02 -1.92,2.09 -2.87,3.14 -1.65,2.56 -3.37,5.05 -4.86,7.73 -0.84,1.52 -1.52,3.16 -2.41,4.66 l -0.16,0.23 c -4.18,10.08 -9.68,18.57 -19.57,24.36 -9.64,5.64 -23.86,8.03 -34.67,4.53 -21.37,-6.91 -40.43,-31.81 -31.43,-55.35 8.77,-22.94 21.08,-43.97 40.02,-60.06 9.26,-7.87 19.31,-13.18 31.82,-13.18 11.04,0 24.22,4.9 31.82,13.18 15.39,16.76 19.16,47.36 0,63.64" /><path
             id="path36"
             style="fill:#e8816a;fill-opacity:1;fill-rule:nonzero;stroke:none"
             d="m 3460.08,4421.17 c -16.43,14.58 -37.04,19.05 -58.49,17.41 -21.64,-1.66 -35.81,-13.16 -43.39,-33.04 -4.17,-10.93 -8.34,-21.86 -12.51,-32.8 -8.4,-22.04 9.29,-50.31 31.43,-55.35 13.91,-3.17 26.26,-0.46 36.17,6.3 3.55,-0.84 7.1,-1.47 10.58,-1.63 24.31,-1.09 46.99,15.43 53.84,38.67 6.3,21.38 -0.99,45.67 -17.63,60.44" /><path
             id="path38"
             style="fill:#e8816a;fill-opacity:1;fill-rule:nonzero;stroke:none"
             d="m 3761.64,4222.47 c -15.4,3.51 -30.43,-0.37 -41.31,-9.74 -11.02,-2.82 -20.95,-9.82 -27.88,-20.49 -11.1,-17.11 -19.17,-36.74 -22.83,-56.81 -3.49,-19.12 2.12,-41.01 20.68,-50.82 18.76,-9.91 38.66,-6.45 54.53,7.04 23.21,19.71 39.32,46.54 48.24,75.46 6.94,22.5 -8.23,50.08 -31.43,55.36" /><path
             id="path40"
             style="fill:#e8816a;fill-opacity:1;fill-rule:nonzero;stroke:none"
             d="m 3772.1,4629.04 c -6.46,15 -23.17,26.9 -38.62,31.09 -16.7,4.52 -35.39,2.87 -50.24,-6.47 -9.77,-6.15 -17.57,-15.62 -20.68,-26.89 -2.96,-10.77 -1.62,-25.11 4.54,-34.67 8.71,-13.51 24.1,-22.07 39.75,-22.15 4.74,-3.27 9.96,-5.79 14.43,-7.02 10.77,-2.97 25.12,-1.63 34.68,4.54 9.6,6.19 18.06,15.42 20.68,26.89 l 1.6,11.96 c -0.02,8.13 -2.07,15.7 -6.14,22.72" /><path
             id="path42"
             style="fill:#e8816a;fill-opacity:1;fill-rule:nonzero;stroke:none"
             d="m 4108.64,4054.49 c -21.32,8.57 -43.67,0.83 -56.2,-18.41 -16.92,-25.99 -40.23,-44.21 -68.08,-57.38 -16.16,-7.64 -23.43,-26.7 -21.6,-44.09 -4.37,-12.81 -3.54,-27.8 2.96,-38.9 13.51,-23.11 39.13,-25.74 61.56,-16.15 5,2.14 9.66,4.68 14.1,7.49 44.19,25.12 76.22,66.41 93.31,114.35 7.44,20.86 -6.69,45.3 -26.05,53.09" /><path
             id="path44"
             style="fill:#e8816a;fill-opacity:1;fill-rule:nonzero;stroke:none"
             d="m 1497.82,3378.28 c -14.98,7.92 -36.1,7.66 -50.24,-2.56 -2.04,0.95 -4.08,1.89 -6.43,2.54 -10.77,2.96 -25.12,1.62 -34.68,-4.54 -18.65,-12.03 -31.14,-41.35 -16.14,-61.57 15.04,-20.28 36.71,-34.29 63.05,-32.39 24.29,1.76 49.71,13.88 60.59,36.95 10.01,21.25 6.63,49.53 -16.15,61.57" /><path
             id="path46"
             style="fill:#e8816a;fill-opacity:1;fill-rule:nonzero;stroke:none"
             d="m 1744.02,3014.8 c -7.29,17.26 -23.91,27.41 -41.93,27.3 -4.66,20.42 -20.96,38.27 -43.74,37.25 -22.79,-1.02 -46.99,-19.87 -45,-45 0.57,-7.19 0.47,-14.27 0.23,-21.48 l -0.03,-1.58 -0.16,-0.67 c -0.8,-3.5 -1.48,-7.01 -2.36,-10.49 -5.45,-21.48 6.95,-51.6 31.43,-55.35 29.36,-4.5 57.1,-1.47 83.14,13.83 19.39,11.38 27.04,35.75 18.42,56.19" /><path
             id="path48"
             style="fill:#e8816a;fill-opacity:1;fill-rule:nonzero;stroke:none"
             d="m 1839.37,2805.69 c -5.74,1.31 -11.27,1.5 -16.54,0.93 -2.19,1.94 -4.58,3.63 -7.17,5 -22.65,11.96 -47.59,4.8 -61.57,-16.14 -11.27,-16.88 -23.48,-32.79 -23.48,-54.22 0,-30.91 27.6,-51.73 56.49,-52.47 39.08,-1 71.12,26.1 83.7,61.54 7.89,22.22 -8.91,50.23 -31.43,55.36" /><path
             id="path50"
             style="fill:#e8816a;fill-opacity:1;fill-rule:nonzero;stroke:none"
             d="m 1375.34,3028.82 c -1.71,0.28 -3.32,0.72 -4.95,1.12 l -0.85,0.72 -0.7,1.54 c -2.18,22.55 -20.57,43.54 -44.66,42.46 -23.55,-1.05 -46.03,-19.8 -45,-45 1.67,-40.46 30.44,-80.8 72.24,-87.62 12.3,-2.01 23.51,-1.99 34.67,4.54 9.34,5.46 18.24,16.16 20.68,26.89 4.94,21.66 -6.58,51.3 -31.43,55.35" /><path
             id="path52"
             style="fill:#e8816a;fill-opacity:1;fill-rule:nonzero;stroke:none"
             d="m 3321.68,2147.27 c -2.69,23.33 -21.97,36.73 -44.45,39.53 -26.34,3.28 -52.38,4.2 -76.82,0.57 -19.91,-0.89 -39.8,-2.46 -59.7,-5.01 -24.1,-3.1 -45,-18.47 -45,-45 0,-5.86 1.52,-12.02 4.16,-17.85 -4.11,-15.14 1.13,-33.34 11.75,-43.96 15.27,-15.27 35.92,-15.07 54.53,-7.04 36.76,15.88 76.11,18.52 115.41,13.67 24.17,-2.98 45,22.82 45,45 0,7.7 -1.86,14.32 -4.88,20.09" /><path
             id="path54"
             style="fill:#e8816a;fill-opacity:1;fill-rule:nonzero;stroke:none"
             d="m 2983.41,1864.47 c -10.8,0.05 -21.6,0.09 -32.4,0.14 -3,16.48 -14.09,30.8 -31.64,35.62 -22.44,6.17 -50.22,-7.56 -55.36,-31.43 -9.08,-42.17 -23.75,-115.83 32.47,-131.07 22.14,-6 48.87,3.86 68.91,12.97 18.82,8.55 36.05,21.6 49.84,36.95 25.58,28.47 8.6,76.66 -31.82,76.82" /><path
             id="path56"
             style="fill:#e8816a;fill-opacity:1;fill-rule:nonzero;stroke:none"
             d="m 3407.08,1701.12 c -12.36,28.17 -32.26,49.48 -56.52,67.85 -2.72,2.06 -5.68,3.55 -8.77,4.63 -3.58,2.29 -7.4,4.07 -11.34,5.15 -25.4,6.98 -46.59,-8.66 -55.36,-31.43 -11.48,-29.8 -25.53,-74.08 -9.76,-104.24 18.53,-35.44 64.94,-36.17 99.55,-30.21 18.01,3.1 34.87,11.36 44.43,27.71 11.6,19.82 6.35,41.01 -2.23,60.54" /><path
             id="path58"
             style="fill:#e8816a;fill-opacity:1;fill-rule:nonzero;stroke:none"
             d="m 3655.54,1929.55 c -13.28,46.18 -51.74,84.49 -99.54,93.75 -23.04,4.46 -49.67,-6.48 -55.35,-31.43 -5.07,-22.25 6.71,-50.58 31.43,-55.36 3.88,-0.75 7.53,-1.7 11.34,-2.78 l 0.85,-0.29 c 3.14,-1.78 6.25,-3.44 9.33,-5.35 l 1.14,-0.67 0.48,-0.72 c 1.69,-2.15 4.12,-4.28 6.13,-6.27 0.58,-0.7 1.24,-1.57 1.82,-2.48 1.19,-1.88 2.2,-3.85 3.25,-5.81 0.19,-0.75 1.76,-4.52 2.34,-6.52 6.5,-22.6 32.04,-38.97 55.35,-31.43 22.99,7.44 38.4,31.12 31.43,55.36" /><path
             id="path60"
             style="fill:#e8816a;fill-opacity:1;fill-rule:nonzero;stroke:none"
             d="m 3122.75,1466.25 c -0.74,2.28 -1.76,4.44 -2.81,6.57 0.39,4.59 0.39,9.21 -0.12,13.82 -1.37,12.29 -4.11,22.75 -13.18,31.82 -7.81,7.8 -20.61,13.68 -31.82,13.18 -11.64,-0.52 -23.71,-4.35 -31.82,-13.18 -7.56,-8.23 -14.47,-20.2 -13.18,-31.82 0.23,-2.09 0.32,-4.15 0.32,-6.21 -0.28,-1.04 -0.68,-2.07 -1.03,-3.1 -3.45,-8.21 -5.05,-15.88 -3.81,-25.07 1.43,-10.67 6.43,-20.99 14.34,-28.52 13.54,-12.87 33.62,-18.37 51.68,-12.84 22.48,6.87 39.06,31.77 31.43,55.35" /><path
             id="path62"
             style="fill:#e8816a;fill-opacity:1;fill-rule:nonzero;stroke:none"
             d="m 3359.98,1438.74 c -8.8,8.08 -19.62,13.18 -31.82,13.18 h -14.07 c -11.54,0 -23.66,-5.02 -31.82,-13.18 -7.8,-7.81 -13.68,-20.61 -13.18,-31.82 0.52,-11.64 4.35,-23.71 13.18,-31.82 8.81,-8.08 19.63,-13.18 31.82,-13.18 h 14.07 c 11.54,0 23.66,5.02 31.82,13.18 7.81,7.8 13.68,20.61 13.18,31.82 -0.52,11.64 -4.34,23.71 -13.18,31.82" /><path
             id="path64"
             style="fill:#a21f26;fill-opacity:1;fill-rule:nonzero;stroke:none"
             d="m 1652.46,3375.07 c -3.7,4.81 -7.3,9.61 -10.8,14.3 -4.8,6.4 -4.7,15.8 -3.11,23.2 0.91,3.9 2.91,7.5 5.51,10.6 2.3,-16.2 5.1,-32.3 8.4,-48.1" /><path
             id="path66"
             style="fill:#a21f26;fill-opacity:1;fill-rule:nonzero;stroke:none"
             d="m 1578.49,3178.98 c -5.27,11.19 -15.49,18.96 -25.83,25.22 -13.44,8.13 -33.56,3.41 -41.05,-10.77 -4.1,-7.77 -4.75,-16.44 -2.36,-24.18 -2.18,-6.86 -3.08,-13.77 -1.35,-21.54 2.18,-9.81 8.17,-18.57 16.93,-23.72 15.06,-8.86 34.3,-4.96 46.36,7.08 13.17,13.14 15,31.54 7.3,47.91" /><path
             id="path68"
             style="fill:#a21f26;fill-opacity:1;fill-rule:nonzero;stroke:none"
             d="m 1292.35,3211.24 c -2.38,0 -4.61,-0.24 -6.7,-0.67 -2.09,0.43 -4.32,0.67 -6.7,0.67 -38.61,0 -38.67,-60 0,-60 2.38,0 4.61,0.23 6.69,0.66 2.09,-0.43 4.32,-0.66 6.71,-0.66 38.61,0 38.67,60 0,60" /><path
             id="path70"
             style="fill:#a21f26;fill-opacity:1;fill-rule:nonzero;stroke:none"
             d="m 1533.53,2786.93 c -16.25,-0.73 -30,-13.18 -30,-30 v -26.8 c 0,-15.69 13.8,-30.73 30,-30 16.26,0.73 30,13.18 30,30 v 26.8 c 0,15.69 -13.79,30.72 -30,30" /><path
             id="path72"
             style="fill:#a21f26;fill-opacity:1;fill-rule:nonzero;stroke:none"
             d="m 3297.28,1942.17 c -3.71,13.51 -15.65,20.79 -28.93,22.02 -20.57,1.91 -41.15,3.82 -61.73,5.72 -16.15,1.5 -30,-14.86 -30,-30 0,-9.82 4.45,-17.51 11.15,-22.72 l -0.12,-0.9 c -3.58,-25.89 18.96,-46.43 44.07,-33.88 l 51.77,25.88 c 11.76,5.87 17.14,21.7 13.79,33.88" /><path
             id="path74"
             style="fill:#a21f26;fill-opacity:1;fill-rule:nonzero;stroke:none"
             d="m 3549.45,1821.3 -5.71,0.64 c -2,0.47 -3.99,0.97 -5.95,1.62 l -1.15,0.32 -1.56,0.9 c -0.79,0.45 -7.76,4.97 -4.15,2.14 -5.85,4.58 -12.66,7.47 -19.51,8.16 l -1.69,0.23 -0.19,0.01 c -1.48,0.2 -2.97,0.4 -4.52,0.33 -16.09,-0.72 -30.21,-13.19 -30,-30 0.2,-16.11 0.4,-32.21 0.6,-48.32 0.34,-27.17 32,-38.03 51.22,-21.21 13.14,11.51 23.33,19.42 37.75,29.28 24.27,16.6 15.7,54.91 -15.14,55.9" /><path
             id="path76"
             style="fill:#a21f26;fill-opacity:1;fill-rule:nonzero;stroke:none"
             d="m 3150.34,1671.2 c -4.07,6.25 -8.14,12.49 -12.21,18.74 -1.57,2.42 -3.51,4.48 -5.58,6.36 0.24,3.29 0.39,6.58 0.35,9.88 -0.15,15.68 -13.68,30.73 -30,30 -16.12,-0.72 -30.16,-13.19 -30,-30 0.13,-13.35 -2.57,-22.28 -11.61,-35.04 -9.07,-12.81 -2.66,-34.01 10.77,-41.05 21.78,-11.41 45.74,-11.43 67.52,0.07 13.84,7.3 19.33,27.88 10.76,41.04" /><path
             id="path78"
             style="fill:#a21f26;fill-opacity:1;fill-rule:nonzero;stroke:none"
             d="m 2940.91,1519.92 c -1.15,9.3 -2.29,18.61 -3.43,27.91 -1.01,8.24 -2.68,15.1 -8.79,21.21 -5.2,5.2 -13.74,9.12 -21.21,8.79 -3.72,-0.17 -7.5,-0.88 -11.04,-2.19 -13.68,4.35 -29.61,-0.33 -37.49,-13.8 -9.1,-15.55 -3.12,-34.35 9.82,-45.47 6.92,-5.95 13.95,-11.78 20.92,-17.66 9.45,-7.98 20.91,-11.21 32.78,-6.21 9.88,4.18 19.86,15.8 18.44,27.42" /><path
             id="path80"
             style="fill:#a21f26;fill-opacity:1;fill-rule:nonzero;stroke:none"
             d="m 2985.65,2069.38 c -6.95,4.92 -14.91,8.74 -23.18,11.24 -1.54,8.6 -6.42,16.63 -14.16,20.72 -14.74,7.79 -32.14,3.45 -41.04,-10.77 -14.09,-22.51 -10.85,-54.83 9.67,-72.45 20.75,-17.84 56.72,-18.38 74.79,4.14 12.79,15.94 10.93,35.1 -6.08,47.12" /><path
             id="path82"
             style="fill:#a21f26;fill-opacity:1;fill-rule:nonzero;stroke:none"
             d="m 3432.82,2183.8 c -16.25,-0.73 -30,-13.19 -30,-30 v -27.13 c 0,-15.69 13.8,-30.73 30,-30 16.25,0.73 30,13.18 30,30 v 27.13 c 0,15.69 -13.8,30.72 -30,30" /><path
             id="path84"
             style="fill:#a21f26;fill-opacity:1;fill-rule:nonzero;stroke:none"
             d="m 3514.2,1505.59 c -16.25,-0.72 -30,-13.18 -30,-30 v -9.04 c 0,-15.69 13.8,-30.72 30,-30 16.26,0.73 30,13.18 30,30 v 9.04 c 0,15.7 -13.79,30.73 -30,30" /><path
             id="path86"
             style="fill:#a21f26;fill-opacity:1;fill-rule:nonzero;stroke:none"
             d="m 3781.29,3888.98 c 3.82,10.34 1.42,22.42 -6.55,31.99 -18.73,22.5 -55.3,8.64 -62.77,-16.74 l -0.08,-0.35 c -12.3,-13.2 -21.68,-28.83 -28.09,-46.47 -5.53,-15.23 6.22,-32.86 20.96,-36.91 16.27,-4.47 30.55,5.21 36.4,19.86 4.96,-4.6 11.42,-7.53 19.29,-7.53 14.92,0 31.69,13.78 30,30 -1.06,10.14 -3.74,18.41 -9.16,26.15" /><path
             id="path88"
             style="fill:#a21f26;fill-opacity:1;fill-rule:nonzero;stroke:none"
             d="m 3548.98,4108.39 -0.76,0.52 c 0.86,6.89 1.15,13.84 0.74,20.73 -0.94,16.18 -13.11,30 -30,30 -14.8,0 -29.38,-12.56 -29.86,-27.84 -12.11,-1.17 -23.02,-8.94 -26.48,-21.52 -3,-10.93 1.08,-23.44 9.55,-30.91 -6.09,-20.11 16.52,-43.86 37.51,-36.72 10.71,3.64 21.42,7.27 32.13,10.91 26.28,8.93 27.52,39.21 7.17,54.83" /><path
             id="path90"
             style="fill:#a21f26;fill-opacity:1;fill-rule:nonzero;stroke:none"
             d="m 3711.83,4390.56 c -19.52,15.32 -40.8,21.24 -65.38,16.4 -15.42,-3.04 -25.68,-22.29 -20.95,-36.91 5.31,-16.41 20.37,-24.21 36.9,-20.95 l 0.27,0.06 0.74,-0.13 1.99,-0.1 0.14,-0.04 c 0.61,-0.25 3.31,-1.42 4.46,-1.77 1.84,-1.27 3.84,-2.47 -0.6,1.02 6.53,-5.13 12.55,-8.79 21.21,-8.79 7.36,0 16.15,3.27 21.22,8.79 9.9,10.79 13.18,32.08 0,42.42" /><path
             id="path92"
             style="fill:#a21f26;fill-opacity:1;fill-rule:nonzero;stroke:none"
             d="m 3518.53,4628.47 c -6.49,1.47 -12.39,1.1 -17.56,-0.75 -5.53,6.9 -13.74,11.58 -22.94,11.17 -16.12,-0.72 -30.16,-13.18 -30,-30 0.15,-14.6 0.29,-29.21 0.44,-43.81 0.23,-23.9 25,-35.83 45.14,-25.91 22.16,10.93 36.74,29.97 45.88,52.39 5.93,14.58 -6.44,33.6 -20.96,36.91" /><path
             id="path94"
             style="fill:#a21f26;fill-opacity:1;fill-rule:nonzero;stroke:none"
             d="m 3948.25,4656.97 c -16.25,-0.72 -30,-13.18 -30,-30 v -31.65 c 0,-15.69 13.8,-30.72 30,-30 16.26,0.73 30,13.19 30,30 v 31.65 c 0,15.7 -13.8,30.73 -30,30" /><path
             id="path96"
             style="fill:#a21f26;fill-opacity:1;fill-rule:nonzero;stroke:none"
             d="m 3771.92,4815.22 h -13.56 c -15.7,0 -30.73,-13.8 -30,-30 0.73,-16.25 13.18,-30 30,-30 h 13.56 c 15.69,0 30.73,13.8 30,30 -0.73,16.26 -13.18,30 -30,30" /><path
             id="path98"
             style="fill:#a21f26;fill-opacity:1;fill-rule:nonzero;stroke:none"
             d="m 4009.96,4232.07 c 0.88,13.28 -9.67,27.63 -22.28,30.5 -17.22,3.92 -30.78,-5.26 -36.9,-20.95 -4.29,-10.99 -8.57,-21.97 -12.86,-32.96 -7.02,-17.98 10.91,-38.69 28.93,-37.97 13.39,0.53 26.78,1.07 40.17,1.6 15.66,0.62 30.75,13.35 30,30 -0.66,14.77 -11.79,28.69 -27.06,29.78" /><path
             id="path100"
             style="fill:#a21f26;fill-opacity:1;fill-rule:nonzero;stroke:none"
             d="m 4284.32,4232.79 c -1.92,6.96 -7.3,14.5 -13.79,17.93 -4.52,2.39 -9.66,3.85 -14.83,4 -4.77,10.48 -15.05,18.48 -27.12,17.94 -15.96,-0.72 -30.37,-13.19 -30,-30 l 0.57,-26.42 c 0.3,-13.52 9.16,-25.01 22.03,-28.93 9.85,-3 21.36,-3 31.15,0.29 12.52,4.21 21.11,11.6 28.96,22.07 4.37,5.82 4.86,16.45 3.03,23.12" /><path
             id="path102"
             style="fill:#a21f26;fill-opacity:1;fill-rule:nonzero;stroke:none"
             d="m 4163.88,4621.06 -9.04,9.04 c -11.11,11.11 -31.46,11.94 -42.42,0 -11,-11.97 -11.86,-30.57 0,-42.42 3.01,-3.02 6.02,-6.03 9.04,-9.05 11.11,-11.11 31.46,-11.94 42.42,0 11,11.98 11.86,30.57 0,42.43" /><path
             id="path104"
             style="fill:#ffffff;fill-opacity:1;fill-rule:nonzero;stroke:none"
             d="m 2773.93,3512.28 c 0,-203.6 -70.8,-386.7 -183.7,-513.7 -99.7,-112.4 -232.3,-180.9 -377.8,-180.9 -305.2,0 -553.5,301.2 -561.3,676.5 -0.1,6 -0.2,12 -0.2,18.1 0,116.3 23.1,226 64,322.3 83,195.8 239.2,336.5 423.7,366.4 24.2,4 48.8,6 73.8,6 229.6,0 427,-170.5 514,-414.7 29.9,-83.7 46.7,-176.1 47.4,-273.2 0.1,-2.2 0.1,-4.5 0.1,-6.8" /><path
             id="path106"
             style="fill:#ffffff;fill-opacity:1;fill-rule:nonzero;stroke:none"
             d="m 1699.33,3664.78 0.2,-0.1 c 3.5,-0.6 6.9,-1.2 10.4,-1.8 -3.5,0.7 -7,1.3 -10.6,1.9" /><path
             id="path108"
             style="fill:#d9933b;fill-opacity:1;fill-rule:nonzero;stroke:none"
             d="m 1551.83,3673.42 c -8.2,-24 -25.5,-44.8 -56.7,-57.6 -125.2,-51.1 -184,64 -294,15.4 -53.4,-23.6 -60.9,-79.2 -72.1,-141.5 -1.1,-6 -2.2,-12 -3.4,-18.1 -8.1,-41.1 -19.7,-84 -48.3,-121.9 l 2.4,-0.2 c -25.2,-31.4 -58.1,-56.5 -92.203,-71.2 -15.8,-6.8 -31.699,-11.4 -47.3,-13.3 -24.899,-3 -48.7,0.7 -68.899,13 -10.398,6.3 -19.801,14.8 -27.898,25.9 -35.602,49 -50.602,150.1 -63.602,259.4 l -0.101,0.5 c -5.598,47.3 -10.899,96.1 -17.297,142.9 v 0.2 c -11.203,81.2 -25.703,156.4 -51.602,207 -10.699,21 -26.398,51.9 -45.601,89.3 -114.797,224.7 -351.2,687.3 -351.2,687.3 35.5,14.3 71.102,28.1 106.801,41.8 2.5,-4.4 377.5,-662.9 425,-831.4 24.199,-85.8 6.899,-449.1 118.5,-459.6 87.102,69.1 101.702,366.9 261.502,330.6 159.8,-36.3 307,-115.4 294.5,75.2 0,0 56.4,-101.4 31.5,-173.7" /><path
             id="path110"
             style="fill:#d9933b;fill-opacity:1;fill-rule:nonzero;stroke:none"
             d="m 420.793,4732.38 0.055,-0.1 c 15.988,6.1 31.957,12.27 47.98,18.24 l -48.035,-18.14" /><path
             id="path112"
             style="fill:#d9933b;fill-opacity:1;fill-rule:nonzero;stroke:none"
             d="m 2775.03,173.719 -559.1,1152.401 -16.1,33.2 -13.9,28.6 c -20.9,57.1 -65.3,109.1 -68.1,112.2 2.3,-6.4 50.2,-144.2 -63.3,-163.9 -84,30.8 -75.3,229.5 -100.8,304.4 -40.4,118.6 -278.9,636.9 -278.9,636.9 397.58,147.75 540.73,363.03 579.04,553.3 -22.04,-3.42 -44.17,-5.21 -66.09,-5.21 -2.97,0 -5.9,0.17 -8.85,0.23 -94.29,-239.12 -327.18,-408.42 -599.8,-408.42 -35.5,0 -70.4,2.9 -104.5,8.4 l -1.1,-4.4 c 0,0 345.1,-730.5 404.7,-983 l 0.1,-0.1 c 1.2,-5.3 2.3,-10.4 3.3,-15.2 3.4,-17 5.3,-31.3 5.3,-42.4 0,-85.7 104.9,-157.4 194.2,-148.8 l 5.1,-9.9 50.1,-98 523.9,-1025.3012 c 44.3,-86.7969 168.5,-86.5977 212.6,0.4023 l 59.4,117.3009 c -106.6,-101.602 -157.2,-42.703 -157.2,-42.703" /><path
             id="path114"
             style="fill:#d9933b;fill-opacity:1;fill-rule:nonzero;stroke:none"
             d="m 692.227,4829.32 c 0,0 96.3,-12 273,-23.4 -267.5,-77.2 -472.7,-156.2 -602.297,-211.2 -29.903,58.5 -48.903,95.8 -48.903,95.8 51.403,20.7 103,40.7 154.801,60 h 0.199 c 74,27.7 148.403,53.9 223.2,78.8" /><path
             id="path116"
             style="fill:#d9933b;fill-opacity:1;fill-rule:nonzero;stroke:none"
             d="m 5197.53,4690.52 c 0,0 -20,-39.3 -52.2,-102.8 -1105.5,446.3 -2132.7,516.7 -2961.1,444.1 137.8,66.6 258.8,122.3 366.2,128.1 4.5,0.3 8.9,0.4 13.3,0.5 64,1.9 128.1,2.8 192.1,2.8 829.1,0 1658.3,-157.5 2441.7,-472.7" /><path
             id="path118"
             style="fill:#bb5f2f;fill-opacity:1;fill-rule:nonzero;stroke:none"
             d="m 4504.63,2982.22 c -12.2,-35.2 -45.1,-115.3 -103.9,-158.2 -39.4,-28.8 -90.2,-40.8 -154.2,-11.5 -5.1,2.3 -10.3,4.9 -15.6,7.8 -135.1,73.7 -120,199.5 -92,296.2 l 14.3,34.7 c -1.6,-7.8 -37.8,-191.8 118.8,-247.3 117.3,-41.7 191.7,4 232.6,78.3" /><path
             id="path120"
             style="fill:#bb5f2f;fill-opacity:1;fill-rule:nonzero;stroke:none"
             d="m 780.027,3562.82 9.801,-30.7 c -5.699,15.7 -8.898,27.3 -9.801,30.7" /><path
             id="path122"
             style="fill:#bb5f2f;fill-opacity:1;fill-rule:nonzero;stroke:none"
             d="m 1129.03,3489.72 c -1.1,-6 -2.2,-12 -3.4,-18.1 -8.1,-41.1 -19.7,-84 -48.3,-121.9 l 2.4,-0.2 c -25.2,-31.4 -58.1,-56.5 -92.203,-71.2 -15.8,-6.8 -31.699,-11.4 -47.3,-13.3 -24.899,-3 -48.7,0.7 -68.899,13 l -81.101,253 c 17.902,-48.5 59.5,-135.1 132.203,-149.7 101.8,-20.3 200.2,98.5 200.2,152.8 0,15.1 2.6,-6 6.4,-44.4" /><path
             id="path124"
             style="fill:#bb5f2f;fill-opacity:1;fill-rule:nonzero;stroke:none"
             d="m 2136.33,1124.02 -50.1,98 -5.1,9.9 c -89.3,-8.6 -194.2,63.1 -194.2,148.8 0,11.1 -1.9,25.4 -5.3,42.4 l 31.8,-34.7 c 0,0 63.4,-103.7 156.3,-82.9 93,20.9 101.9,114.5 101.9,114.5 l 28.2,-60.7 3,14.4 c 0,0 8.3,-18.9 13.1,-47.6 8.9,-52.6 6.2,-138.3 -79.6,-202.1" /><path
             id="path126"
             style="fill:#bd2d35;fill-opacity:1;fill-rule:nonzero;stroke:none"
             d="m 2174.39,2825.96 c -317.41,-442.52 -752.86,-290.74 -752.86,-290.74 l -315.2,672 c 152,130.8 103.7,283.8 155.6,324.9 30.57,24.25 55.88,8.73 104.12,-6.79 33.49,-10.78 78.04,-21.55 143.08,-19.01 158.7,6.1 174.5,192.1 174.5,192.1 l -0.2,0.1 c -34,5.5 -68.8,8.4 -104.3,8.4 -5.6,0 -11.1,-0.1 -16.5,-0.2 h -0.1 c -21.9,-110.4 -135.8,-118.3 -232.5,-79.1 -126.5,51.1 -204.4,-12.2 -204.4,-158.2 0,-101.6 -98.9,-193.8 -185.4,-204.4 155.8,-259.4 408.2,-805.1 408.2,-805.1 40.3,-15.5 82.6,-27 126.2,-34.1 34.1,-5.5 69,-8.4 104.5,-8.4 272.63,0 505.6,169.27 599.9,408.42 -1.55,0.03 -3.09,0.07 -4.64,0.12" /><path
             id="path128"
             style="fill:#bd2d35;fill-opacity:1;fill-rule:nonzero;stroke:none"
             d="m 3507.13,1205.92 c -11.9,-29.7 -23.5,-60.1 -34.8,-90.9 -13.5,-36.9 -56.9,-41 -104.5,-38.3 -32.4,1.8 -66.8,6.8 -95.1,6.8 -356,0 -644.7,288.7 -644.7,644.8 0,144.4 47.5,277.7 127.7,385.1 -2.3,-8.4 -151.13,-531.92 125.3,-750.5 224.44,-177.48 457.39,-177.48 626.1,-157" /><path
             id="path130"
             style="fill:#bd2d35;fill-opacity:1;fill-rule:nonzero;stroke:none"
             d="m 3810.71,3746.71 c -315.43,0 -571.18,255.75 -571.18,571.18 0,315.43 255.75,571.19 571.18,571.19 315.43,0 571.19,-255.76 571.19,-571.19 0,-315.43 -255.76,-571.18 -571.19,-571.18 m -49.48,1162.58 c -358.65,0 -649.44,-290.79 -649.44,-649.44 0,-358.75 290.79,-649.44 649.44,-649.44 358.75,0 649.54,290.69 649.54,649.44 0,358.65 -290.79,649.44 -649.54,649.44" /><path
             id="path132"
             style="fill:#bd2d35;fill-opacity:1;fill-rule:nonzero;stroke:none"
             d="m 2550.43,5159.92 c -105.3,-5.7 -223.6,-59.3 -358,-124.2 -449.3,-39.7 -1043.4,-177.8 -1250.903,-228.3 -48.097,-11.7 -75.398,-18.7 -75.398,-18.7 l -21.301,25.9 -41.601,50.5 c 569.403,178.1 1157.403,276.4 1747.203,294.8" /><path
             id="path134"
             style="fill:#fdfbc2;fill-opacity:1;fill-rule:nonzero;stroke:none"
             d="m 1249.92,3788.73 c 0,0 143.37,-57.65 190.04,-43.92 46.67,13.72 49.41,57.65 49.41,57.65 0,0 -56.12,-38.44 -239.45,-13.73" /><path
             id="path136"
             style="fill:#fdfbc2;fill-opacity:1;fill-rule:nonzero;stroke:none"
             d="m 4037,2687.52 c 0,0 -242.53,-387.64 -223.09,-431.7 19.44,-44.06 202.49,278.02 223.09,431.7" /><path
             id="path138"
             style="fill:#fdfbc2;fill-opacity:1;fill-rule:nonzero;stroke:none"
             d="m 1801.64,2138.99 c 0,0 125.29,-332.83 172.67,-414.46 47.39,-81.62 -64.29,297.88 -114.26,379.4 -49.98,81.52 -75.52,80 -58.41,35.06" /><path
             id="path140"
             style="fill:#fdfbc2;fill-opacity:1;fill-rule:nonzero;stroke:none"
             d="m 3027.29,673.262 c 0,0 -181.21,-338.614 -172.06,-380.934 9.14,-42.328 114.97,173.152 144.78,230.863 29.82,57.719 123.13,253.957 124.57,269.348 1.44,15.391 -72.89,-23.09 -97.29,-119.277" /><path
             id="path142"
             style="fill:#fdfbc2;fill-opacity:1;fill-rule:nonzero;stroke:none"
             d="m 639.629,4437.66 c 0,0 125.633,-266.26 163.598,-338.4 37.968,-72.15 108.457,-56.92 62.91,50.83 -45.543,107.76 -123.828,247.85 -156.789,305.53 -32.961,57.68 -126.907,102.47 -69.719,-17.96" /><path
             id="path144"
             style="fill:#fdfbc2;fill-opacity:1;fill-rule:nonzero;stroke:none"
             d="m 3124.6,4783.98 c 0,0 -136.48,-143.7 -134.85,-323.1 1.63,-179.41 32.34,-145.03 37.54,-98.68 5.2,46.35 100.77,365.73 183.8,426.56 83.03,60.82 -56.3,32.13 -86.49,-4.78" /><path
             id="path146"
             style="fill:#fdfbc2;fill-opacity:1;fill-rule:nonzero;stroke:none"
             d="m 3000.01,4247.55 c 0,0 -24.38,-57.35 0,-89.15 24.39,-31.8 40.88,-2.5 40.88,25.46 0,27.95 3.46,132.41 -40.88,63.69" /><path
             id="path148"
             style="fill:#fdfbc2;fill-opacity:1;fill-rule:nonzero;stroke:none"
             d="m 880.957,3998.17 c -16.754,-30.84 -7.691,-112.71 22.34,-123.56 30.027,-10.85 37.832,40.2 36.93,76.24 -0.899,36.03 -33.559,94.65 -59.27,47.32" /><path
             id="path150"
             style="fill:#d9933b;fill-opacity:1;fill-rule:nonzero;stroke:none"
             d="m 4394.13,4126.32 c -18.2,-343.9 -302.8,-617 -651.2,-617 -360.2,0 -652.2,291.9 -652.2,652.1 0,80.5 14.6,157.7 41.3,228.9 -7.1,-38.3 -10.8,-77.7 -10.8,-118 0,-356.1 288.6,-644.7 644.7,-644.7 305.9,0 562,212.9 628.2,498.7" /><path
             id="path152"
             style="fill:#d9933b;fill-opacity:1;fill-rule:nonzero;stroke:none"
             d="m 3367.83,1076.72 -46.8,-92.298 c -26.7,-3.203 -53.9,-4.801 -81.5,-4.801 -385.5,0 -698,312.499 -698,697.999 0,385.5 312.5,698 698,698 24.7,0 49.1,-1.3 73.2,-3.8 -13.2,0.8 -26.6,1.2 -40,1.2 -356,0 -644.7,-288.7 -644.7,-644.7 0,-356.1 288.7,-644.8 644.7,-644.8 28.3,0 62.7,-5 95.1,-6.8" /><path
             id="path154"
             style="fill:#fdfbc2;fill-opacity:1;fill-rule:nonzero;stroke:none"
             d="m 2282.53,5039.72 c 0,0 -230.9,-166.6 -422.5,-251 -191.5,-84.3 -503.6,-107.1 -731,-76.7 -227.401,30.4 -262.901,76.7 -262.901,76.7 l 4.898,23.9 c 28.2,-2.2 59.7,-4.5 94.2,-6.7 101.303,-6.6 229.103,-13 380.403,-16.8 335.1,-8.4 610,132.1 838.6,242.7 8.8,4.2 17.5,8.4 26.1,12.6 l 72.2,-4.7" /><path
             id="path156"
             style="fill:#b97135;fill-opacity:1;fill-rule:nonzero;stroke:none"
             d="m 5197.53,4690.52 c -783.4,315.2 -1612.6,472.7 -2441.7,472.7 -64,0 -128.1,-0.9 -192.1,-2.8 -4.4,-0.1 -8.8,-0.21 -13.3,-0.5 -628.2,-19.6 -1254.3,-129.8 -1858.203,-330.6 -127.098,-42.3 -253.2,-88.5 -378.2,-138.8 -230.5973,174.2 -330.7965,474.3 -253.8004,752.8 40.6014,16.3 81.3004,32.3 122.1014,47.9 -37.898,-200.9 -34.301,-391.5 131.699,-516.9 125,50.3 251.102,96.5 378.2,138.8 603.903,200.8 1230.003,311 1858.203,330.6 4.5,0.3 8.9,0.4 13.3,0.5 64,1.9 128.1,2.8 192.1,2.8 829.1,0 1658.3,-157.5 2441.7,-472.7 166,125.4 169.6,316 131.7,516.9 40.8,-15.6 81.5,-31.6 122.1,-47.9 77,-278.5 -23.2,-578.6 -253.8,-752.8" /><path
             id="path158"
             style="fill:#b97135;fill-opacity:1;fill-rule:nonzero;stroke:none"
             d="m 5197.53,4690.52 c -783.4,315.2 -1612.6,472.7 -2441.7,472.7 -64,0 -128.1,-0.9 -192.1,-2.8 -4.4,-0.1 -8.8,-0.21 -13.3,-0.5 -628.2,-19.6 -1254.3,-129.8 -1858.203,-330.6 -127.098,-42.3 -253.2,-88.5 -378.2,-138.8 -230.5973,174.2 -330.7965,474.3 -253.8004,752.8 40.6014,16.3 81.3004,32.3 122.1014,47.9 -37.898,-200.9 -34.301,-391.5 131.699,-516.9 125,50.3 251.102,96.5 378.2,138.8 603.903,200.8 1230.003,311 1858.203,330.6 4.5,0.3 8.9,0.4 13.3,0.5 64,1.9 128.1,2.8 192.1,2.8 829.1,0 1658.3,-157.5 2441.7,-472.7 166,125.4 169.6,316 131.7,516.9 40.8,-15.6 81.5,-31.6 122.1,-47.9 77,-278.5 -23.2,-578.6 -253.8,-752.8" /><path
             id="path160"
             style="fill:#9f5825;fill-opacity:1;fill-rule:nonzero;stroke:none"
             d="m 5295.68,4797.13 c -814.89,327.87 -1677.42,491.7 -2539.85,491.7 -66.57,0 -133.25,-0.94 -199.82,-2.91 -4.58,-0.1 -9.16,-0.21 -13.84,-0.52 -653.45,-20.39 -1304.72,-135.02 -1932.893,-343.89 -132.207,-44 -263.379,-92.06 -393.402,-144.38 -13.969,10.55 -27.43,21.59 -40.469,33 38.852,-52.05 85.184,-99.25 138.621,-139.61 125,50.3 251.102,96.5 378.2,138.8 603.903,200.8 1230.003,311 1858.203,330.6 4.5,0.3 8.9,0.4 13.3,0.5 64,1.9 128.1,2.8 192.1,2.8 829.1,0 1658.3,-157.5 2441.7,-472.7 53.43,40.36 99.77,87.56 138.62,139.61 -13.04,-11.41 -26.5,-22.45 -40.47,-33" /><path
             id="path162"
             style="fill:#f8d7ba;fill-opacity:1;fill-rule:nonzero;stroke:none"
             d="m 35.582,5291.61 c 2.4766,51.52 10.5899,103.23 24.6836,154.2 860.8004,346.3 1767.7044,521.9 2695.6044,521.9 927.8,0 1834.7,-175.6 2695.5,-521.9 13.28,-48.05 21.26,-96.74 24.2,-145.32 -3.04,48.15 -11.02,96.44 -24.19,144.06 -860.8,346.31 -1767.7,521.91 -2695.5,521.91 -927.9,0 -1834.802,-175.6 -2695.5987,-521.91 C 46.2969,5393.98 38.1602,5342.72 35.582,5291.61" /><path
             id="path164"
             style="fill:#e1b169;fill-opacity:1;fill-rule:nonzero;stroke:none"
             d="m 5476.77,5269.32 c -1.2,58.05 -9.54,116.49 -25.44,174 -40.6,16.3 -81.3,32.3 -122.1,47.9 v 0 c 8.52,-45.18 14.94,-89.84 17.9,-133.34 -829.65,319.14 -1700.84,480.88 -2591.26,480.88 -890.58,0 -1761.745,-161.73 -2591.44,-480.92 2.949,43.52 9.375,88.19 17.898,133.38 v 0 c -40.801,-15.6 -81.5,-31.6 -122.1014,-47.9 -14.1524,-51.2 -22.3203,-103.13 -24.7891,-154.87 0.0469,1.05 0.0938,2.1 0.1445,3.16 2.5782,51.11 10.7149,102.37 24.6993,152.94 860.7967,346.31 1767.6987,521.91 2695.5987,521.91 927.8,0 1834.7,-175.6 2695.5,-521.91 13.17,-47.62 21.15,-95.91 24.19,-144.06 0.63,-10.4 1.03,-20.79 1.2,-31.17" /><path
             id="path166"
             style="fill:#d79b4f;fill-opacity:1;fill-rule:nonzero;stroke:none"
             d="m 5473.92,5192.72 c -3.8,41.54 -11.2,83.07 -22.55,124.14 -34.68,13.95 -69.42,27.62 -104.24,41.02 -2.96,43.5 -9.38,88.16 -17.9,133.34 v 0 c 40.8,-15.6 81.5,-31.6 122.1,-47.9 15.9,-57.51 24.24,-115.95 25.44,-174 0.43,-25.65 -0.54,-51.22 -2.85,-76.6 m -5436.2052,0 c -2.8867,31.69 -3.6718,63.67 -2.2773,95.73 2.4688,51.74 10.6367,103.67 24.7891,154.87 40.6014,16.3 81.3004,32.3 122.1014,47.9 v 0 c -8.523,-45.19 -14.949,-89.86 -17.898,-133.38 -34.774,-13.37 -69.5394,-27.05 -104.1644,-40.98 -11.3515,-41.07 -18.75,-82.6 -22.5508,-124.14" /><path
             id="path168"
             style="fill:#f68c60;fill-opacity:1;fill-rule:nonzero;stroke:none"
             d="m 2133.36,2829.1 c -4.93,-25.07 -10.87,-50.82 -17.93,-77.28 -6.9,-26 -12.6,-49.9 -17,-71.9 32.84,44.54 59.99,93.57 80.62,145.92 -15.45,0.3 -30.68,1.4 -45.69,3.26" /><path
             id="path170"
             style="fill:#f68c60;fill-opacity:1;fill-rule:nonzero;stroke:none"
             d="m 3777.13,2129.92 c -512.5,421.2 -1021.4,-16.5 -1021.4,-16.5 l 0.1,0.2 c 117.6,157.4 305.3,259.4 516.9,259.4 204.3,0 386.3,-95 504.4,-243.1" /><path
             id="path172"
             style="fill:#f68c60;fill-opacity:1;fill-rule:nonzero;stroke:none"
             d="m 4410.73,4272.32 c 0,-50.2 -5.7,-99.1 -16.6,-146 -43.8,682.2 -632.9,783 -632.9,783 l 36.9,6.9 c 341.1,-16.8 612.6,-298.6 612.6,-643.9" /><path
             id="path174"
             style="fill:#bb5f2f;fill-opacity:1;fill-rule:nonzero;stroke:none"
             d="m 4129.53,2958.62 c 0,125.4 101.77,364.15 -9.43,416.15 -3.97,1.86 -7.87,3.36 -11.73,4.68 12.51,-71.41 -24.5,-210.2 -24.5,-210.2 l -0.03,-0.04 c -8.03,-24.78 -19.42,-57.1 -33.11,-100.6 -34.6,-109.9 -17.3,-300.79 138.7,-368.79 l 57.1,112.7 2.6,5.1 c 15.2,-5.1 30.6,-8.5 46,-10.4 -48.9,12.4 -165.6,52.4 -165.6,151.4" /><path
             id="path176"
             style="fill:#d9933b;fill-opacity:1;fill-rule:nonzero;stroke:none"
             d="m 4536.53,3247.32 c -24.2,7.9 -39.1,6.1 -37.9,-11.4 5.5,-81.3 -88.6,-290.8 -163,-290.8 -68.46,0 -114.83,53.27 -86.4,135.15 l -0.18,-0.13 c 101.68,307.62 -140.68,299.31 -140.68,299.31 57.4,-29.85 65.77,-94.93 65.88,-129.65 0.42,-7.77 0.06,-15.47 -1.22,-22.88 -4.1,-24 -20.6,-63.8 -34.1,-110.4 -28,-96.7 -43.1,-222.5 92,-296.2 5.3,-2.9 10.5,-5.5 15.6,-7.8 64,-29.3 114.8,-17.3 154.2,11.5 58.8,42.9 91.7,123 103.9,158.2 3.1,8.9 4.8,14.9 5.3,16.7 l 0.1,0.5 c 3.5,23.5 5.1,49.3 4.5,77.6 -0.9,46.5 7.9,106.5 22,170.3" /><path
             id="path178"
             style="fill:#a21f26;fill-opacity:1;fill-rule:nonzero;stroke:none"
             d="m 3766,4906.21 c -347.22,0 -629.71,-282.48 -629.71,-629.7 0,-347.22 282.49,-629.7 629.71,-629.7 294.83,0 547.15,200.3 613.58,487.09 10.76,46.26 16.22,94.24 16.22,142.61 0,336.14 -262.83,612.4 -598.34,628.92 -11.2,0.52 -21.5,0.78 -31.46,0.78 m 0,-1289.4 c -363.76,0 -659.71,295.94 -659.71,659.7 0,363.76 295.95,659.7 659.71,659.7 10.44,0 21.2,-0.27 32.9,-0.81 351.54,-17.32 626.9,-306.73 626.9,-658.89 0,-50.65 -5.72,-100.92 -17,-149.4 -69.59,-300.45 -333.92,-510.3 -642.8,-510.3" /><path
             id="path180"
             style="fill:#a21f26;fill-opacity:1;fill-rule:nonzero;stroke:none"
             d="m 2768.72,2109.91 -0.9,-1.27 c -81.6,-109.27 -124.72,-239.33 -124.72,-376.13 0,-347.27 282.48,-629.8 629.7,-629.8 17.54,0 36.54,-1.77 56.67,-3.65 12.99,-1.21 26.41,-2.46 39.25,-3.17 55.11,-3.13 81.06,5.12 89.59,28.47 11.73,31.98 23.49,62.7 34.97,91.33 151.72,380.09 345.77,670.93 376.95,716.61 -10.16,30.3 -22.55,59.72 -36.88,87.54 -18.95,36.95 -41.78,72.25 -67.87,104.91 -120.35,150.91 -299.92,237.46 -492.68,237.46 -200.09,0 -383.75,-91.94 -504.08,-252.3 m 621.61,-1044.78 c -8.98,0 -17.02,0.45 -23.29,0.81 -13.38,0.74 -27.09,2.02 -40.36,3.26 -19.41,1.8 -37.74,3.51 -53.88,3.51 -363.76,0 -659.7,295.99 -659.7,659.8 0,142.84 44.88,278.68 129.82,392.94 l 0.96,1.34 c 126.04,168.68 318.82,265.42 528.92,265.42 201.94,0 390.07,-90.66 516.13,-248.75 27.32,-34.21 51.25,-71.19 71.11,-109.9 16.17,-31.4 29.97,-64.73 41.04,-99.04 l 2.29,-7.12 -4.29,-6.11 c -2.13,-3.03 -214.66,-307.69 -377.94,-716.74 -11.38,-28.38 -23.04,-58.82 -34.66,-90.5 -15.53,-42.47 -62.42,-48.92 -96.15,-48.92" /><path
             id="path182"
             style="fill:#a21f26;fill-opacity:1;fill-rule:nonzero;stroke:none"
             d="m 2187.78,2825.61 c -8.82,0 -17.55,0.33 -26.22,0.84 -19.52,-47.36 -44.7,-92.16 -75.13,-133.43 -118.5,-160.55 -308.12,-256.41 -507.24,-256.41 -33.98,0 -68.34,2.76 -102.08,8.21 -40.18,6.54 -79.7,17.01 -117.57,31.15 -26.47,56.92 -249.04,533.6 -395.474,782.6 86.054,22.57 176.634,113.91 176.634,215.04 0,70.93 18.71,121.04 54.11,144.92 31.4,21.18 76.24,20.95 129.66,-0.62 69.78,-28.28 139.68,-29.93 187,-4.38 31.26,16.87 52.89,45.26 63.06,82.56 34.29,0.29 69.84,-2.37 104.32,-7.83 l 2.44,-0.45 c 7.17,-1.17 14.4,-2.59 21.63,-4.03 1.1,10.07 3.33,19.86 6.47,29.29 -7.02,1.41 -14.04,2.82 -21.02,3.98 l -2.48,0.47 c -35.24,5.7 -71.14,8.59 -106.7,8.59 -5.52,0 -10.95,-0.09 -16.59,-0.2 h -12.31 l -2.41,-12.08 c -6.86,-34.6 -23.9,-59.46 -50.66,-73.9 -39.55,-21.35 -99.9,-19.18 -161.5,5.79 -63.09,25.5 -117.64,24.69 -157.69,-2.32 -44.05,-29.72 -67.33,-88.43 -67.33,-169.79 0,-94.84 -92.58,-179.75 -172.227,-189.51 l -22.93,-2.81 11.895,-19.8 c 153.602,-255.74 404.932,-798.23 407.452,-803.68 l 2.55,-5.51 5.68,-2.19 c 41.5,-15.96 84.96,-27.71 129.19,-34.91 35.35,-5.7 71.31,-8.59 106.88,-8.59 208.61,0 407.25,100.41 531.38,268.6 34.17,46.36 61.98,96.97 82.99,150.56 -1.93,-0.03 -3.86,-0.16 -5.78,-0.16" /><path
             id="path184"
             style="fill:#d1ac39;fill-opacity:1;fill-rule:nonzero;stroke:none"
             d="m 3924.9,3255.03 c -195.85,73.32 -387.33,94.98 -545.28,94.98 -228.29,0 -386.53,-45.27 -386.53,-45.27 -70.05,366.68 -28.71,617.14 106.21,750.69 50.64,-309.76 319.53,-546.11 643.63,-546.11 78.85,0 154.45,13.99 224.42,39.63 -6.49,-162.55 -42.45,-293.92 -42.45,-293.92" /><path
             id="path186"
             style="fill:#b47420;fill-opacity:1;fill-rule:nonzero;stroke:none"
             d="m 3742.93,3509.32 c -324.1,0 -592.99,236.35 -643.63,546.11 11.05,10.95 22.75,21.12 35.05,30.49 81.96,-271.14 334.12,-469.11 631.65,-469.11 69.94,0 137.63,10.77 201.26,30.91 1.5,-33.65 1.36,-66.78 0.09,-98.77 -69.97,-25.64 -145.57,-39.63 -224.42,-39.63" /><path
             id="path188"
             style="fill:#c22c2c;fill-opacity:1;fill-rule:nonzero;stroke:none"
             d="m 3810.71,3746.71 c -256.98,0 -474.36,169.77 -546.09,403.25 46.26,13.16 97.45,19.75 153.3,19.75 62.97,0 131.9,-8.37 206.42,-25.13 15.58,-3.5 30.53,-7.63 44.79,-12.31 -2.34,-18.32 3.63,-38.39 21.17,-47.66 7.31,-3.86 14.79,-5.69 22.14,-5.69 11.51,0 22.7,4.49 32.39,12.73 1.72,1.46 3.4,2.95 5.04,4.49 123.23,-72.29 181.29,-198.31 204.83,-331.13 -46,-11.94 -94.26,-18.3 -143.99,-18.3 m -60.31,185.59 c -16.51,0 -33.59,-11.61 -38.43,-28.07 l -0.08,-0.35 c -12.3,-13.2 -21.68,-28.83 -28.09,-46.47 -5.53,-15.23 6.22,-32.86 20.96,-36.91 2.72,-0.74 5.38,-1.1 7.96,-1.1 12.85,0 23.57,8.76 28.44,20.96 4.96,-4.6 11.42,-7.53 19.29,-7.53 14.92,0 31.69,13.78 30,30 -1.06,10.14 -3.74,18.41 -9.16,26.15 3.82,10.34 1.42,22.42 -6.55,31.99 -6.58,7.91 -15.38,11.33 -24.34,11.33 m -231.44,227.34 c -14.8,0 -29.38,-12.56 -29.86,-27.84 -12.11,-1.17 -23.02,-8.94 -26.48,-21.52 -3,-10.93 1.08,-23.44 9.55,-30.91 -5.33,-17.62 11.35,-38.02 29.68,-38.02 2.6,0 5.23,0.41 7.83,1.3 10.71,3.64 21.42,7.27 32.13,10.91 26.28,8.93 27.52,39.21 7.17,54.83 l -0.76,0.52 c 0.86,6.89 1.15,13.84 0.74,20.73 -0.94,16.18 -13.11,30 -30,30" /><path
             id="path190"
             style="fill:#c4634b;fill-opacity:1;fill-rule:nonzero;stroke:none"
             d="m 3712.44,4078.92 c -7.35,0 -14.83,1.83 -22.14,5.69 -17.54,9.27 -23.51,29.34 -21.17,47.66 29.62,-9.72 56.42,-21.87 80.74,-36.13 -1.64,-1.54 -3.32,-3.03 -5.04,-4.49 -9.69,-8.24 -20.88,-12.73 -32.39,-12.73" /><path
             id="path192"
             style="fill:#7d161a;fill-opacity:1;fill-rule:nonzero;stroke:none"
             d="m 3712.72,3819.4 c -2.58,0 -5.24,0.36 -7.96,1.1 -14.74,4.05 -26.49,21.68 -20.96,36.91 6.41,17.64 15.79,33.27 28.09,46.47 l 0.08,0.35 c 4.84,16.46 21.92,28.07 38.43,28.07 8.96,0 17.76,-3.42 24.34,-11.33 7.97,-9.57 10.37,-21.65 6.55,-31.99 5.42,-7.74 8.1,-16.01 9.16,-26.15 1.69,-16.22 -15.08,-30 -30,-30 -7.87,0 -14.33,2.93 -19.29,7.53 -4.87,-12.2 -15.59,-20.96 -28.44,-20.96" /><path
             id="path194"
             style="fill:#7d161a;fill-opacity:1;fill-rule:nonzero;stroke:none"
             d="m 3501.85,4041.35 c -18.33,0 -35.01,20.4 -29.68,38.02 -8.47,7.47 -12.55,19.98 -9.55,30.91 3.46,12.58 14.37,20.35 26.48,21.52 0.48,15.28 15.06,27.84 29.86,27.84 16.89,0 29.06,-13.82 30,-30 0.41,-6.89 0.12,-13.84 -0.74,-20.73 l 0.76,-0.52 c 20.35,-15.62 19.11,-45.9 -7.17,-54.83 -10.71,-3.64 -21.42,-7.27 -32.13,-10.91 -2.6,-0.89 -5.23,-1.3 -7.83,-1.3" /><path
             id="path196"
             style="fill:#971c1f;fill-opacity:1;fill-rule:nonzero;stroke:none"
             d="m 3766,3646.81 c -287.41,0 -530.47,193.55 -605.68,457.16 31.34,19.8 66.14,35.13 104.3,45.99 71.73,-233.48 289.11,-403.25 546.09,-403.25 49.73,0 97.99,6.36 143.99,18.3 5.07,-28.63 8.53,-57.54 10.7,-86.34 -62.85,-20.74 -129.96,-31.86 -199.4,-31.86" /><path
             id="path198"
             style="fill:#7d161a;fill-opacity:1;fill-rule:nonzero;stroke:none"
             d="m 3766,3616.81 c -297.53,0 -549.69,197.97 -631.65,469.11 8.37,6.38 17.04,12.4 25.97,18.05 75.21,-263.61 318.27,-457.16 605.68,-457.16 69.44,0 136.55,11.12 199.4,31.86 0.78,-10.32 1.4,-20.69 1.86,-30.95 -63.63,-20.14 -131.32,-30.91 -201.26,-30.91" /><path
             id="path200"
             style="fill:#211c1d;fill-opacity:1;fill-rule:nonzero;stroke:none"
             d="m 1678.65,3802.46 c -0.11,0.4 -0.18,0.83 -0.24,1.29 0.15,-0.85 0.24,-1.29 0.24,-1.29 m -0.24,1.29 c -0.26,1.44 -0.71,4.09 -1.29,7.82 6.59,19.81 13.91,39.16 21.91,58.01 93.9,221.4 281.4,372.4 497.5,372.4 143.52,0 274.44,-66.6 373.68,-176.16 -83.67,77.57 -191.76,143.42 -317.61,143.42 -13.22,0 -26.61,-0.72 -40.22,-2.24 -0.08,-0.01 -0.13,-0.01 -0.21,-0.02 -24.91,-0.02 -49.42,-2.02 -73.54,-6 -127.15,-20.61 -240.85,-93.83 -326.43,-201.45 -87.71,-87.67 -136.38,-174.17 -133.79,-195.78" /><path
             id="path202"
             style="fill:#d1ac39;fill-opacity:1;fill-rule:nonzero;stroke:none"
             d="m 1677.12,3811.57 c -10.7,68.75 -63.82,506.77 297,627.33 88.1,29.44 175.67,45.35 258.59,45.35 285.96,0 517.02,-189.1 527.19,-664.85 0,0 -69.78,135.25 -189.69,246.42 -99.24,109.56 -230.16,176.16 -373.68,176.16 -216.1,0 -403.6,-151 -497.5,-372.4 -8,-18.85 -15.32,-38.2 -21.91,-58.01" /><path
             id="path204"
             style="fill:#dee3df;fill-opacity:1;fill-rule:nonzero;stroke:none"
             d="m 1812.2,3999.53 c 85.58,107.62 199.28,180.84 326.43,201.45 24.12,3.98 48.63,5.98 73.54,6 -167.98,-18.78 -306.26,-113.79 -399.97,-207.45" /><path
             id="path206"
             style="fill:#d1ac39;fill-opacity:1;fill-rule:nonzero;stroke:none"
             d="m 2767.25,2249.92 c -347.49,0 -648.48,77.69 -845.65,145.85 46.05,28.52 86.35,58.24 121.48,88.74 234.81,-67.81 465.49,-93.02 678.77,-93.02 618.8,0.01 1090.95,212.27 1090.95,212.27 l 21.35,-68.83 c -123.08,-72.5 -246.87,-128.48 -369.68,-170.89 -61.3,18.51 -125.75,28.17 -191.67,28.17 -97.81,0 -191.87,-20.96 -277.18,-60.39 -54.99,-20.51 -106.66,-47.74 -154.09,-80.71 -25,-0.81 -49.72,-1.19 -74.28,-1.19" /><path
             id="path208"
             style="fill:#b47420;fill-opacity:1;fill-rule:nonzero;stroke:none"
             d="m 1921.6,2395.77 c -48.78,16.86 -91.21,33.14 -126.41,47.51 51.92,18.08 101.48,42.58 147.4,72.83 33.54,-11.42 67.09,-21.95 100.49,-31.6 -35.13,-30.5 -75.43,-60.22 -121.48,-88.74" /><path
             id="path210"
             style="fill:#b47420;fill-opacity:1;fill-rule:nonzero;stroke:none"
             d="m 2841.53,2251.11 c 47.43,32.97 99.1,60.2 154.09,80.71 -46.15,-21.33 -89.75,-48.07 -129.99,-79.81 -8.01,-0.34 -16.14,-0.64 -24.1,-0.9" /><path
             id="path212"
             style="fill:#c22c2c;fill-opacity:1;fill-rule:nonzero;stroke:none"
             d="m 3029.82,2265.15 c 76.61,27.18 165.62,47.22 262.24,47.77 -88.67,-22.09 -176.39,-37.65 -262.24,-47.77" /><path
             id="path214"
             style="fill:#c22c2c;fill-opacity:1;fill-rule:nonzero;stroke:none"
             d="m 1678.1,2514.55 7.55,107.66 c 51.06,-25 102.27,-47.59 153.44,-67.93 -56.43,-21.9 -110.96,-33.95 -160.99,-39.73" /><path
             id="path216"
             style="fill:#971c1f;fill-opacity:1;fill-rule:nonzero;stroke:none"
             d="m 1752.6,2461.2 c -49.06,21.29 -75.77,35.26 -75.77,35.26 l 1.27,18.09 c 50.03,5.78 104.56,17.83 160.99,39.73 22.48,-8.94 44.95,-17.44 67.41,-25.53 -48.01,-29.18 -99.81,-51.95 -153.9,-67.55" /><path
             id="path218"
             style="fill:#d46d43;fill-opacity:1;fill-rule:nonzero;stroke:none"
             d="m 2920.58,2255.04 c 102.42,69.39 223.94,107.17 352.22,107.17 47.49,0 94.2,-5.25 139.4,-15.43 -40.2,-12.67 -80.29,-23.93 -120.14,-33.86 -96.62,-0.55 -185.63,-20.59 -262.24,-47.77 -36.75,-4.33 -73.2,-7.67 -109.24,-10.11" /><path
             id="path220"
             style="fill:#7d161a;fill-opacity:1;fill-rule:nonzero;stroke:none"
             d="m 2865.63,2252.01 c 40.24,31.74 83.84,58.48 129.99,79.81 85.31,39.43 179.37,60.39 277.18,60.39 65.92,0 130.37,-9.66 191.67,-28.17 -17.45,-6.03 -34.87,-11.78 -52.27,-17.26 -45.2,10.18 -91.91,15.43 -139.4,15.43 -128.28,0 -249.8,-37.78 -352.22,-107.17 -18.47,-1.24 -36.69,-2.24 -54.95,-3.03" /><path
             id="path222"
             style="fill:#7d161a;fill-opacity:1;fill-rule:nonzero;stroke:none"
             d="m 1795.19,2443.28 c -15.64,6.39 -29.88,12.4 -42.59,17.92 54.09,15.6 105.89,38.37 153.9,67.55 12.06,-4.34 24.04,-8.53 36.09,-12.64 -45.92,-30.25 -95.48,-54.75 -147.4,-72.83" /><path
             id="path224"
             style="fill:#c22c2c;fill-opacity:1;fill-rule:nonzero;stroke:none"
             d="m 3090.73,2063.1 c 0,0 -50.61,10.23 -128.96,20.62 -2.06,7.39 -6.66,14.03 -13.46,17.62 -4.88,2.58 -10.06,3.83 -15.13,3.83 -10.21,0 -19.96,-5.09 -25.91,-14.6 -0.04,-0.06 -0.08,-0.12 -0.12,-0.18 -43.45,4.86 -92.31,9.25 -143.94,12 1.52,2.09 3.06,4.18 4.61,6.25 l 0.9,1.27 c 8.88,11.85 18.12,23.32 27.67,34.4 11.38,8.02 24.98,17.2 40.63,27.03 83.18,-8.15 171.64,-38.26 253.71,-108.24" /><path
             id="path226"
             style="fill:#7d161a;fill-opacity:1;fill-rule:nonzero;stroke:none"
             d="m 2961.77,2083.72 c -16.98,2.25 -35.26,4.51 -54.62,6.67 0.04,0.06 0.08,0.12 0.12,0.18 5.95,9.51 15.7,14.6 25.91,14.6 5.07,0 10.25,-1.25 15.13,-3.83 6.8,-3.59 11.4,-10.23 13.46,-17.62" /><path
             id="path228"
             style="fill:#d1ac39;fill-opacity:1;fill-rule:nonzero;stroke:none"
             d="m 2489.2,2096.64 c 0,0 111.89,64.86 257.83,75.6 -21.17,-21.07 -41,-43.51 -59.33,-67.15 -10.85,0.19 -21.78,0.29 -32.73,0.29 -55.16,0 -111.32,-2.51 -165.77,-8.74" /><path
             id="path230"
             style="fill:#b47420;fill-opacity:1;fill-rule:nonzero;stroke:none"
             d="m 2727.62,2104 c -13.19,0.49 -26.5,0.86 -39.92,1.09 18.33,23.64 38.16,46.08 59.33,67.15 11.56,0.85 23.32,1.36 35.27,1.48 -13.4,-14.95 -26.23,-30.61 -38.42,-46.93 l -0.96,-1.34 c -5.25,-7.07 -10.35,-14.22 -15.3,-21.45" /><path
             id="path232"
             style="fill:#d46d43;fill-opacity:1;fill-rule:nonzero;stroke:none"
             d="m 2796.39,2144.31 c 8.38,9.71 17.01,19.14 25.87,28.26 4.89,-0.34 9.82,-0.74 14.76,-1.23 -15.65,-9.83 -29.25,-19.01 -40.63,-27.03" /><path
             id="path234"
             style="fill:#7d161a;fill-opacity:1;fill-rule:nonzero;stroke:none"
             d="m 2763.21,2102.39 c -11.73,0.63 -23.6,1.17 -35.59,1.61 4.95,7.23 10.05,14.38 15.3,21.45 l 0.96,1.34 c 12.19,16.32 25.02,31.98 38.42,46.93 1.67,0.01 3.33,0.02 5.01,0.02 11.51,0 23.16,-0.37 34.95,-1.17 -8.86,-9.12 -17.49,-18.55 -25.87,-28.26 -9.55,-11.08 -18.79,-22.55 -27.67,-34.4 l -0.9,-1.27 c -1.55,-2.07 -3.09,-4.16 -4.61,-6.25" /><path
             id="path236"
             style="fill:#e1dabc;fill-opacity:1;fill-rule:nonzero;stroke:none"
             d="m 2590.23,2998.58 c -99.7,-112.4 -232.3,-180.9 -377.8,-180.9 -305.2,0 -553.5,301.2 -561.3,676.5 -0.1,6 -0.2,12 -0.2,18.1 0,116.3 23.1,226 64,322.3 83,195.8 239.2,336.5 423.7,366.4 -7.7,-3.1 -436.16,-202.81 -222.5,-946 111.67,-388.41 395.2,-374.1 674.1,-256.4" /><path
             id="path238"
             style="fill:#100f0d;fill-opacity:1;fill-rule:nonzero;stroke:none"
             d="m 5191.87,4731.79 c -778.37,310.38 -1597.84,467.73 -2436.09,467.73 -64.3,0 -128.47,-1.04 -192.54,-2.89 v 0.01 l -0.5,-0.02 c -771,-22.32 -1524.55,-178.32 -2243.052,-464.83 -201.895,162.2 -292.9966,433.9 -230.0903,686.9 851.7733,340.26 1748.6923,512.77 2666.1823,512.77 917.48,0 1814.4,-172.51 2666.18,-512.77 62.91,-253 -28.2,-524.7 -230.09,-686.9 z M 866.141,4849.31 c 456.779,138.94 925.599,226.58 1402.139,262.05 -40.97,-18.61 -83.35,-39.11 -127.45,-60.49 -225.6,-109.39 -481.29,-233.35 -794.32,-225.51 -206.09,5.17 -369.104,15.23 -480.369,23.95 z M 4627.43,3643.28 c -51.5,-116.4 -151,-411.4 -147.8,-565.7 2.1,-106.2 -28.7,-183.2 -86.7,-216.9 -49.4,-28.6 -117.8,-23.8 -178.4,12.6 -93.1,55.8 -56.2,192.1 -13.6,304.7 1.8,5 3.6,9.5 5,13.5 25,67.8 -1.2,144.3 -60.9,177.9 -8.78,4.97 -18.43,9 -28.81,11.86 v 0 c 41.74,-43.17 35.21,-112.08 28.77,-145.73 -0.74,-6.64 -2.26,-13.3 -4.66,-19.83 -1.5,-3.8 -3.1,-8.2 -4.9,-13 -30.7,-81 -112.2,-296.3 43.1,-389.5 7.4,-4.4 14.8,-8.4 22.4,-12.1 l -358.9,-708.8 -32.1,-63.4 c 17.1,-30.7 31.8,-63.2 43.6,-97.3 -45.3,-67.1 -258.8,-393.8 -409.4,-805 -7.9,-21.6 -47.3,-21.3 -99.4,-16.8 l -29.2,-57.6 -473.9,-936 c -14.6,-28.8011 -42.7,-46.098 -75,-46.1995 h -0.2 c -32.3,0 -60.4,17.1992 -75,45.8985 l -559.2,1094.201 c 13,5.3 25.2,12.2 36.2,20.8 47.1,36.6 93.7,203.2 -50.3,267.2 0,0 80.5,-155 7.4,-211.9 -37.4,-29.1 -90.5,-20 -127.7,-1.9 -46.1,22.6 -75.9,61 -75.9,97.7 0,151.9 -303.3,812.7 -394.8,1008.8 l -28.7,63.1 c -43.7,5.8 -86.5,16.1 -127.9,31.1 -35.1,75.3 -239.1,510.5 -381.6,757.7 85.7,31.4 171.7,123 171.7,228 0,63 16.1,108.6 45.3,128.3 32.4,21.8 78.2,10.7 111,-2.6 91.2,-36.9 177.3,-31.3 230.4,14.8 16.5,14.4 33,35.7 43.4,66.7 l 10.3,59.8 c -0.4,53.1 -80.7,110.7 -80.7,110.7 14.3,-56.9 22.1,-148.6 -18.9,-184.3 -31.9,-27.7 -94,-28.8 -158.3,-2.8 -87.9,35.5 -144.4,17.3 -176.3,-4.2 -34.8,-23.5 -76.2,-74.8 -76.2,-186.4 0,-75.2 -67.9,-143.7 -130.7,-164.2 -27.403,-8.9 -64.903,-12.7 -88.2,19.3 -34.703,47.7 -48.601,167.8 -62,284 -13.902,120.1 -28.3,244.2 -67.703,321.4 l -379.3,742.3 c 110.101,43.5 221.101,84.1 332.8,121.5 43.903,-5.1 277.602,-30.3 649.203,-39.6 9.9,-0.2 19.6,-0.4 29.3,-0.4 317,0 582.7,128.8 797.3,232.9 151.4,73.4 282.1,136.7 392,138.7 64,1.9 128.2,2.9 192.4,2.9 823.3,0 1628.2,-153.5 2393.2,-456.1 -101.1,-198.9 -510.9,-1006.1 -521.5,-1030.1 z m 857.64,1810.67 c -2.91,10.51 -10.55,19.07 -20.68,23.14 -864.97,347.95 -1776.28,524.37 -2708.61,524.37 -932.33,0 -1843.647,-176.42 -2708.6159,-524.37 -10.125,-4.07 -17.7696,-12.63 -20.6758,-23.14 -79.7891,-288.7 24.6367,-602.91 259.8597,-784.86 l 393.34,-769.81 c 33.652,-65.86 47.292,-183.64 60.484,-297.54 15.164,-130.92 29.484,-254.58 74.961,-317.11 25.828,-35.51 64.652,-54.24 109.258,-54.24 l 2.261,0.1 c 153.848,-262.4 392.148,-776.65 394.598,-781.95 3.28,-7.09 9.2,-12.62 16.49,-15.42 34.76,-13.31 70.4,-23.49 106.66,-30.84 115.83,-245.59 407.48,-891.76 407.48,-1020.31 0,-64.24 44.15,-125.75 115.23,-160.54 30.74,-15.05 62.49,-22.87 92.9,-23.77 L 2629.05,84.0508 C 2655.56,32.1797 2708.17,0 2766.42,0 h 0.3 c 58.35,0.109375 110.97,32.5195 137.33,84.582 l 487.54,962.808 c 47.54,0.42 91.72,11.65 108.91,58.56 v 0 c 165.61,452.09 408.34,800.28 410.77,803.74 5.4,7.69 6.89,17.47 4.02,26.42 -9.1,28.31 -19.99,55.63 -32.39,81.96 l 384.51,759.41 c 17.61,-3.8 35.19,-5.73 52.47,-5.73 38.41,0 75.4,9.43 108.14,28.41 46.96,27.22 125.2,99.65 121.54,278.87 -2.79,136.86 89.44,417.36 141.81,535.84 10.9,24.01 351.9,696 533.86,1054.23 235.21,181.95 339.63,496.15 259.84,784.85" /><path
             id="path240"
             style="fill:#100f0d;fill-opacity:1;fill-rule:nonzero;stroke:none"
             d="m 1708.08,3436.45 c -1.9,20.2 -3.1,40.7 -3.4,61.4 -0.2,4.8 -0.2,9.7 -0.2,14.5 0,359.2 237.6,651.5 529.7,651.5 292.1,0 529.7,-292.3 529.7,-651.5 0,-343.7 -217.5,-626.1 -492.2,-649.9 -12.4,-1.1 -24.9,-1.6 -37.5,-1.6 -7.5,0 -15,0.2 -22.5,0.6 -261,13.5 -473.8,260.4 -503.6,575 z m 512,-633.9 c 17.4,0 34.7,0.9 51.7,2.7 307,31.5 548,341.4 548,718.8 0,398.5 -268.5,721.5 -599.7,721.5 -331.2,0 -599.7,-323 -599.7,-721.5 0,-6 0.1,-12 0.3,-18 0.3,-20.3 1.4,-40.4 3.2,-60.3 17.8,-197.6 101.8,-371 224.9,-488 -44.9,5.7 -87.1,5.5 -122.9,2.1 -37.4,-3.7 -67.9,-10.7 -88.8,-17.1 -10.4,-2.9 -18.5,-6.1 -23.9,-8.2 -5.4,-2.1 -8.2,-3.5 -8.2,-3.5 0,0 3,-0.1 8.8,-0.4 5.8,-0.4 14.2,-0.9 24.9,-1.6 21.2,-1.7 51.2,-4.6 86.4,-9.6 17.6,-2.6 36.6,-5.5 56.3,-9.5 19.8,-3.6 40.5,-8.4 61.6,-13.7 21,-5.4 42.5,-11.6 64.1,-18.7 10.8,-3.3 21.3,-7.8 32.2,-11.3 10.6,-4.3 21.4,-8.1 31.9,-12.8 10.5,-4.6 21.2,-8.8 31.4,-14 5.1,-2.5 10.2,-4.9 15.4,-7.3 5.1,-2.6 10.1,-5.2 15.1,-7.8 10.1,-5.1 19.9,-10.6 29.5,-16.1 9.9,-5.2 19,-11.2 28.3,-16.9 9.4,-5.4 18.1,-11.6 26.9,-17.3 4.3,-2.9 8.7,-5.8 12.9,-8.6 4.2,-3.1 8.3,-6.1 12.3,-9 16.6,-11.4 31.3,-23.6 45.51,-34.3 4.19,-3.5 8.29,-6.9 12.19,-10.1 2.5,-2.2 5,-4.3 7.5,-6.3 3.2,-2.6 6.3,-5.1 9.3,-7.6 2.9,-2.5 5.7,-5 8.4,-7.5 9.6,-8.7 19,-16 26.3,-22.8 l 2.5,-2.4 c 7.6,-7.4 14.2,-12.8 18.5,-16.7 3.9,-3.3 6.2,-5.3 6.7,-5.7 -0.2,0.6 -1.39,3.4 -3.4,8 -2.5,5.3 -5.8,13.2 -10.8,22.9 -2.3,4.9 -5.2,10.2 -8.4,15.9 -3.2,5.7 -6.9,11.8 -10.8,18.3 -7.5,13.3 -17.99,26.8 -28.9,42.2 -3,3.7 -6.1,7.5 -9.2,11.3 -9.3,11.3 -19.3,23.2 -30.9,34.6 -2.9,3 -5.9,6.1 -8.9,9.2 14.3,-1.5 28.6,-2.5 43.1,-2.8 2.8,-0.1 5.6,-0.1 8.4,-0.1" /><path
             id="path242"
             style="fill:#100f0d;fill-opacity:1;fill-rule:nonzero;stroke:none"
             d="m 2300.06,3378 c -36.38,0 -65.88,29.5 -65.88,65.88 0,36.39 29.5,65.88 65.88,65.88 36.39,0 65.88,-29.49 65.88,-65.88 0,-36.38 -29.49,-65.88 -65.88,-65.88 z m -65.88,189.28 c -104.53,0 -189.27,-84.75 -189.27,-189.28 0,-104.53 84.74,-189.27 189.27,-189.27 104.54,0 189.28,84.74 189.28,189.27 0,104.53 -84.74,189.28 -189.28,189.28" /><path
             id="path244"
             style="fill:#100f0d;fill-opacity:1;fill-rule:nonzero;stroke:none"
             d="m 1722.66,4245.55 c 0,0 424.17,312.14 922.94,0 0,0 -136.22,347.14 -461.47,347.14 -367.73,0 -461.47,-347.14 -461.47,-347.14" /><path
             id="path246"
             style="fill:#100f0d;fill-opacity:1;fill-rule:nonzero;stroke:none"
             d="m 3916.03,3898.42 c 0,0 -424.17,312.13 -922.94,0 0,0 136.22,347.13 461.47,347.13 367.73,0 461.47,-347.13 461.47,-347.13" /><path
             id="path248"
             style="fill:#100f0d;fill-opacity:1;fill-rule:nonzero;stroke:none"
             d="m 3295.41,3446.95 c 204.04,111.53 531.44,82.23 531.44,82.23 -231.62,69.68 -400.37,57.36 -511.99,27.06 72.23,63.73 127.41,76.32 127.41,76.32 -288.95,8.98 -450.45,-330.42 -450.45,-330.42 358.98,73.76 925.49,-47.11 925.49,-47.11 -203.44,174.85 -485.5,194.13 -621.9,191.92" /><path
             id="path250"
             style="fill:#100f0d;fill-opacity:1;fill-rule:nonzero;stroke:none"
             d="m 2609.65,2126.2 c 0,0 1.03,1.3 3.21,3.45 2.19,2.15 5.37,5.47 9.79,9.05 4.34,3.79 9.83,8 16.3,12.72 6.63,4.31 14.08,9.56 22.76,14.08 4.34,2.3 8.87,4.7 13.56,7.18 4.86,2.14 9.87,4.35 15.03,6.62 10.31,4.72 21.79,7.96 33.58,11.82 5.96,1.68 12.13,2.97 18.37,4.38 6.23,1.43 12.54,2.95 19.07,3.55 12.96,1.8 26.19,3.37 39.57,3.28 6.68,-0.01 13.36,0.15 20,-0.08 6.65,-0.49 13.25,-1.31 19.79,-1.99 13.14,-0.86 25.77,-4.31 37.9,-7.26 12.25,-2.49 23.43,-7.51 34.03,-11.66 5.24,-2.29 10.43,-4.12 15.19,-6.6 4.64,-2.68 9.13,-5.28 13.44,-7.78 8.43,-5.25 16.29,-9.53 22.53,-14.63 6.24,-5.11 11.42,-9.85 15.66,-13.66 8.46,-7.68 12.82,-12.47 12.82,-12.47 0,0 -6.69,1.1 -17.57,3.73 -5.42,1.35 -11.98,2.86 -19.21,4.95 -7.26,2 -15.88,3.05 -24.74,5.08 -4.42,0.99 -9.01,2.01 -13.77,3.08 -4.78,0.89 -9.83,1.41 -14.9,2.16 -10.19,1.38 -20.58,3.76 -31.7,4.23 -5.52,0.39 -11.06,1.04 -16.67,1.64 -5.56,0.84 -11.36,0.46 -17.09,0.86 -5.75,0.23 -11.54,0.33 -17.33,0.77 -5.81,0.07 -11.67,-0.28 -17.51,-0.35 -11.7,0.4 -23.37,-0.9 -34.96,-1.42 -11.57,-0.56 -22.91,-2.34 -34.07,-3.12 -10.97,-1.89 -21.93,-2.54 -32.08,-4.55 -5.17,-0.79 -10.19,-1.56 -15.04,-2.3 -4.86,-0.89 -9.55,-1.74 -14.06,-2.57 -9.18,-1.36 -17.37,-3.41 -24.97,-4.61 -7.36,-1.7 -14.16,-2.64 -19.53,-3.94 -11.07,-2.32 -17.4,-3.64 -17.4,-3.64" /><path
             id="path252"
             style="fill:#100f0d;fill-opacity:1;fill-rule:nonzero;stroke:none"
             d="m 2838.61,2354.38 c -139.48,0 -290.22,10.22 -452.4,33.88 -413.79,60.36 -701.87,178.17 -713.93,183.15 l 26.73,64.7 c 2.89,-1.19 293.54,-119.92 699.16,-178.85 372.55,-54.13 921.44,-67.48 1420.62,176.35 l 30.72,-62.9 c -218.14,-106.55 -553.88,-216.33 -1010.9,-216.33" /><path
             id="path254"
             style="fill:#100f0d;fill-opacity:1;fill-rule:nonzero;stroke:none"
             d="m 1780.61,2731.11 c 0,0 -2.91,-5.14 -8.02,-14.14 -2.45,-4.24 -5.41,-9.39 -8.82,-15.3 -3.12,-6.01 -7.07,-12.13 -10.7,-19.19 -1.83,-3.52 -3.9,-6.96 -5.91,-10.59 -1.89,-3.65 -3.84,-7.43 -5.85,-11.31 -4.4,-7.38 -7.57,-15.87 -12,-23.69 -3.17,-8.51 -7.86,-16.43 -10.73,-25.16 -1.62,-4.29 -3.28,-8.56 -5.13,-12.77 -1.6,-4.29 -2.7,-8.74 -4.19,-13.06 -3.46,-8.53 -5.04,-17.49 -7.53,-26.19 -2.99,-8.64 -3.25,-17.65 -5.61,-26.28 -1.36,-4.32 -1.25,-8.7 -1.91,-13.01 -0.59,-4.32 -1,-8.58 -1.73,-12.81 -0.83,-4.24 -1.41,-8.4 -1.42,-12.46 -0.28,-4.13 -0.55,-8.13 -0.81,-11.96 -0.52,-7.76 -2.07,-15.32 -1.8,-21.85 -0.18,-6.62 -0.48,-12.59 -0.91,-17.65 -0.87,-10.13 -1.89,-16.44 -1.89,-16.44 0,0 -4.48,3.96 -11.39,11.81 -3.45,3.94 -7.43,8.89 -11.81,14.79 -4.78,5.77 -7.9,13.19 -11.97,21.28 -3.55,8.22 -8.47,17.09 -10.46,27.35 -1.33,5.07 -2.36,10.36 -3.58,15.81 -1.24,5.44 -2.3,11.05 -2.38,16.86 -0.4,5.8 -0.41,11.73 -0.48,17.76 -0.03,3.02 -0.05,6.06 -0.08,9.12 0.22,3.04 0.76,6.06 1.14,9.12 1.79,12.2 3.61,24.74 8.09,36.49 2.11,5.9 3.87,11.96 6.46,17.6 2.7,5.59 5.56,11.08 8.43,16.48 1.5,2.66 2.81,5.42 4.46,7.94 l 5.19,7.34 c 3.45,4.84 6.78,9.65 10.44,14.07 7.8,8.41 15.02,16.71 23.26,23.09 4.07,3.23 7.84,6.5 11.78,9.32 4.11,2.65 7.96,5.27 11.8,7.58 7.55,4.76 15.2,8.09 21.74,11.07 6.88,2.62 12.72,4.82 17.92,6.04 5.01,1.43 9.29,2.01 12.06,2.49 2.78,0.45 4.34,0.45 4.34,0.45" /><path
             id="path256"
             style="fill:#100f0d;fill-opacity:1;fill-rule:nonzero;stroke:none"
             d="m 3731.04,2731.11 c 0,0 1.57,0 4.35,-0.45 2.77,-0.48 7.05,-1.06 12.06,-2.49 5.2,-1.22 11.04,-3.42 17.92,-6.04 6.54,-2.98 14.19,-6.31 21.74,-11.07 3.84,-2.31 7.68,-4.93 11.79,-7.58 3.95,-2.82 7.71,-6.09 11.79,-9.32 8.24,-6.38 15.46,-14.68 23.26,-23.09 3.66,-4.42 6.98,-9.23 10.43,-14.07 l 5.2,-7.34 c 1.65,-2.52 2.95,-5.28 4.45,-7.94 2.88,-5.4 5.74,-10.89 8.44,-16.48 2.58,-5.64 4.35,-11.7 6.46,-17.6 4.48,-11.75 6.3,-24.29 8.09,-36.49 0.38,-3.06 0.92,-6.08 1.14,-9.12 -0.03,-3.06 -0.05,-6.1 -0.08,-9.12 -0.07,-6.03 -0.09,-11.96 -0.48,-17.76 -0.08,-5.81 -1.15,-11.42 -2.39,-16.86 -1.21,-5.45 -2.24,-10.74 -3.58,-15.81 -1.99,-10.26 -6.9,-19.13 -10.45,-27.35 -4.07,-8.09 -7.2,-15.51 -11.97,-21.28 -4.38,-5.9 -8.36,-10.85 -11.81,-14.79 -6.91,-7.85 -11.39,-11.81 -11.39,-11.81 0,0 -1.02,6.31 -1.89,16.44 -0.43,5.06 -0.74,11.03 -0.91,17.65 0.27,6.53 -1.28,14.09 -1.8,21.85 -0.26,3.83 -0.53,7.83 -0.81,11.96 -0.02,4.06 -0.59,8.22 -1.42,12.46 -0.73,4.23 -1.15,8.49 -1.73,12.81 -0.66,4.31 -0.55,8.69 -1.91,13.01 -2.36,8.63 -2.62,17.64 -5.61,26.28 -2.5,8.7 -4.07,17.66 -7.53,26.19 -1.49,4.32 -2.6,8.77 -4.2,13.06 -1.84,4.21 -3.51,8.48 -5.12,12.77 -2.87,8.73 -7.56,16.65 -10.74,25.16 -4.42,7.82 -7.59,16.31 -11.99,23.69 -2.01,3.88 -3.96,7.66 -5.85,11.31 -2.01,3.63 -4.08,7.07 -5.91,10.59 -3.63,7.06 -7.58,13.18 -10.71,19.19 -3.4,5.91 -6.37,11.06 -8.81,15.3 -5.11,9 -8.03,14.14 -8.03,14.14" /></g></g></g></g></svg>