<?xml version="1.0" encoding="UTF-8" standalone="no"?>
<svg
   xmlns:dc="http://purl.org/dc/elements/1.1/"
   xmlns:cc="http://creativecommons.org/ns#"
   xmlns:rdf="http://www.w3.org/1999/02/22-rdf-syntax-ns#"
   xmlns:svg="http://www.w3.org/2000/svg"
   xmlns="http://www.w3.org/2000/svg"
   viewBox="0 0 918.40002 685.41333"
   height="685.41333"
   width="918.40002"
   xml:space="preserve"
   id="svg2"
   version="1.1"><metadata
     id="metadata8"><rdf:RDF><cc:Work
         rdf:about=""><dc:format>image/svg+xml</dc:format><dc:type
           rdf:resource="http://purl.org/dc/dcmitype/StillImage" /></cc:Work></rdf:RDF></metadata><defs
     id="defs6"><clipPath
       id="clipPath20"
       clipPathUnits="userSpaceOnUse"><path
         id="path18"
         d="M 0,0 H 6888 V 5140.6 H 0 Z" /></clipPath></defs><g
     transform="matrix(1.3333333,0,0,-1.3333333,0,685.41333)"
     id="g10"><g
       transform="scale(0.1)"
       id="g12"><g
         id="g14"><g
           clip-path="url(#clipPath20)"
           id="g16"><path
             id="path22"
             style="fill:#deecf9;fill-opacity:1;fill-rule:nonzero;stroke:none"
             d="m 6028.26,2670.18 c 179,40.3 425.3,28.9 644,-216 375.8,-420.8 120.4,-1256 -644,-1212 -967,-1365.7 -2090.1,-234.4 -2090.1,-234.4 -113.7,-111.698 -309.1,-244.401 -597.4,-247.698 -179,-2.102 -307.9,32.098 -399.6,76.797 -191.9,-393.199 -1022.5,-458.699 -1341.3,0 -86.6,124.703 -132.9,249.301 -154.3,364.801 0,0 -1276.9,-241.5 -1391.5991,762.6 -86.3007,755.4 477.5981,1045 850.0001,1037.4 0,0 101.099,624.9 697.799,379.9 h 0.1 c 39.9,102.7 141.1,197.2 390.2,138.5 l 1.7,0.1 c -14.5,297.2 52.5,984.9 895.1,1413.5 1041.1,529.5 2209,-312.6 2181.5,-1438.4 8.1,2.4 837.6,242.5 957.9,-825.1" /><path
             id="path24"
             style="fill:#ffffff;fill-opacity:1;fill-rule:nonzero;stroke:none"
             d="m 3462.28,2647.45 c 0,-383.6 -251.4,-694.6 -561.5,-694.6 -305.2,0 -553.5,301.2 -561.3,676.5 -0.1,6 -0.2,12 -0.2,18.1 0,116.3 23.1,226 64,322.3 93.9,221.4 281.4,372.4 497.5,372.4 229.6,0 427,-170.5 514,-414.7 29.9,-83.7 46.7,-176.1 47.4,-273.2 0.1,-2.2 0.1,-4.5 0.1,-6.8" /><path
             id="path26"
             style="fill:#ffffff;fill-opacity:1;fill-rule:nonzero;stroke:none"
             d="m 4566.84,2571.85 c 0,-341.9 -226.5,-619 -505.8,-619 -279.4,0 -505.9,277.1 -505.9,619 0,21.9 0.9,43.5 2.7,64.8 9.3,108.5 41.4,208.6 90.3,293 91.7,158.1 242.5,261.2 412.9,261.2 183.6,0 344.4,-119.7 433,-298.9 40.5,-81.8 65.9,-176 71.5,-276.9 0.9,-14.3 1.3,-28.7 1.3,-43.2" /><path
             id="path28"
             style="fill:#fdfbc2;fill-opacity:1;fill-rule:nonzero;stroke:none"
             d="m 3966.93,1634.44 c 0,-33.3 -27.42,-60.29 -61.24,-60.29 -33.82,0 -61.23,26.99 -61.23,60.29 0,33.3 27.41,60.3 61.23,60.3 33.82,0 61.24,-27 61.24,-60.3" /><path
             id="path30"
             style="fill:#fdfbc2;fill-opacity:1;fill-rule:nonzero;stroke:none"
             d="m 4067.62,1729.36 c 0,-21.53 -16.56,-38.98 -36.97,-38.98 -20.42,0 -36.98,17.45 -36.98,38.98 0,21.53 16.56,38.98 36.98,38.98 20.41,0 36.97,-17.45 36.97,-38.98" /><path
             id="path32"
             style="fill:#fdfbc2;fill-opacity:1;fill-rule:nonzero;stroke:none"
             d="m 4031.15,1234.69 c 0,-31.67 -28.08,-57.34 -62.73,-57.34 -34.64,0 -62.73,25.67 -62.73,57.34 0,31.66 28.09,57.33 62.73,57.33 34.65,0 62.73,-25.67 62.73,-57.33" /><path
             id="path34"
             style="fill:#deecf9;fill-opacity:1;fill-rule:nonzero;stroke:none"
             d="m 1061.91,361.961 c -47.2,-76 -172.398,-53.602 -172.398,-53.602 0,0 -8.399,-39.199 -0.301,-65.699 8.102,-26.398 35.504,-99.801 -20.398,-154.1014 C 812.914,34.1602 743.512,78.1602 743.512,78.1602 c -100,-85.69926 -199.5,-1.8985 -199.5,-1.8985 0,0 -35.399,-26.3008 -105.5,0 -70,26.2973 -162,186.0003 -87.5,440.6993 74.402,254.598 240.801,290.398 240.801,290.398 l 43.199,441.201 c 115.5,-51.9 243.699,-55.8 243.699,-55.8 -37.5,-90.5 -45,-390.401 -45,-390.401 111.102,-9.699 117.5,-138.699 121.203,-188.597 3.598,-49.903 12.098,-92.5 52.296,-131.403 40.1,-38.898 102,-44.5 54.7,-120.398" /><path
             id="path36"
             style="fill:#8cb1d5;fill-opacity:1;fill-rule:nonzero;stroke:none"
             d="M 868.813,88.5586 C 812.914,34.1602 743.512,78.1602 743.512,78.1602 c -100,-85.69926 -199.5,-1.8985 -199.5,-1.8985 0,0 74,33.5973 61.601,146.7973 -12.402,113.203 -42,279.101 99.899,274.402 0,0 47.699,-136.301 184,-189.102 0,0 -8.399,-39.199 -0.301,-65.699 8.102,-26.398 35.504,-99.801 -20.398,-154.1014" /><path
             id="path38"
             style="fill:#deecf9;fill-opacity:1;fill-rule:nonzero;stroke:none"
             d="m 5826.63,361.961 c 47.2,-76 172.4,-53.602 172.4,-53.602 0,0 8.4,-39.199 0.3,-65.699 -8.1,-26.398 -35.5,-99.801 20.4,-154.1014 55.9,-54.3984 125.3,-10.3984 125.3,-10.3984 100,-85.69926 199.5,-1.8985 199.5,-1.8985 0,0 35.4,-26.3008 105.5,0 70,26.2973 162,186.0003 87.5,440.6993 -74.4,254.598 -240.8,290.398 -240.8,290.398 l -43.2,441.201 c -115.5,-51.9 -257.61,-21.9 -257.61,-21.9 37.5,-90.5 58.91,-424.301 58.91,-424.301 -111.1,-9.699 -117.5,-138.699 -121.2,-188.597 -3.6,-49.903 -12.1,-92.5 -52.3,-131.403 -40.1,-38.898 -102,-44.5 -54.7,-120.398" /><path
             id="path40"
             style="fill:#8cb1d5;fill-opacity:1;fill-rule:nonzero;stroke:none"
             d="m 6019.73,88.5586 c 55.9,-54.3984 125.3,-10.3984 125.3,-10.3984 100,-85.69926 199.5,-1.8985 199.5,-1.8985 0,0 -74,33.5973 -61.6,146.7973 12.4,113.203 42,279.101 -99.9,274.402 0,0 -47.7,-136.301 -184,-189.102 0,0 8.4,-39.199 0.3,-65.699 -8.1,-26.398 -35.5,-99.801 20.4,-154.1014" /><path
             id="path42"
             style="fill:#b7cee8;fill-opacity:1;fill-rule:nonzero;stroke:none"
             d="m 5054.82,3396.76 15.5,98.5 c 8.1,2.4 828.9,240 955.9,-808.3 -56.2,-19.6 -122.4,-53.6 -186.2,-112.8 0,0 -48.9,770.8 -785.2,822.6" /><path
             id="path44"
             style="fill:#b7cee8;fill-opacity:1;fill-rule:nonzero;stroke:none"
             d="m 6672.22,2454.16 c -130.9,146.6 -271.7,209.5 -402.1,227.8 226.8,-118.1 457.8,-543.7 185.7,-872.2 -313.3,-378.1 -858.6,-297.6 -858.6,-297.6 l 120.2,-194.6 c 0,0 -463.6,-366.298 -944.4,-354.9 -439.69,10.422 -678.2,241 -715.79,280.38 -12.37,10.93 -25.3,21.2 -38.05,31.69 -3.38,-14.48 -0.69,-29.74 -3,-50.28 -3.01,-26.84 -27.51,-56.23 -58.47,-44.54 -32.96,12.44 -57.65,36.69 -54.4,74.34 0.18,2.03 0.47,3.99 0.85,5.88 -136.57,-90.61 -343.26,-195.07 -570.54,-195.07 -401.3,0 -678.1,202.5 -678.1,202.5 -24.1,-227 82.5,-364.501 82.5,-364.501 0,0 -355.2,-130 -775.9,16.5 -420.8,146.601 -462,721.701 -462,721.701 l -49.3,-160.8 c 0,0 -980.8,12.7 -1010.199,639.8 -29.5,627.2 655.499,813.2 655.499,813.2 -18.2,216.2 102.3,394 202.7,502.4 -330.3,-35.3 -394.902,-434.2 -394.902,-434.2 -372.398,7.6 -936.2969,-282 -850,-1037.4 114.703,-1004.1 1391.602,-762.6 1391.602,-762.6 21.4,-115.5 67.7,-240.101 154.3,-364.801 318.8,-458.699 1149.4,-393.199 1341.3,0 91.7,-44.699 220.6,-78.898 399.6,-76.8 288.3,3.3 483.7,136 597.4,247.701 0,0 1123.1,-1131.299 2090.1,234.4 764.4,-44 1019.8,791.2 644,1212" /><path
             id="path46"
             style="fill:#8cb1d5;fill-opacity:1;fill-rule:nonzero;stroke:none"
             d="m 5070.32,3495.26 c 8.1,2.4 828.9,240 955.9,-808.3 0.7,-5.6 1.4,-11.2 2,-16.8 l -116.3,-52.5 c 0,0 43.1,892 -841.6,877.6" /><path
             id="path48"
             style="fill:#8cb1d5;fill-opacity:1;fill-rule:nonzero;stroke:none"
             d="m 6028.22,1242.16 c -967,-1365.699 -2090.1,-234.4 -2090.1,-234.4 -113.7,-111.701 -309.1,-244.401 -597.4,-247.701 -179,-2.098 -307.9,32.101 -399.6,76.8 -191.9,-393.199 -1022.5,-458.699 -1341.3,0 -86.6,124.7 -132.9,249.301 -154.3,364.801 0,0 -1276.899,-241.5 -1391.602,762.6 -86.2969,755.4 477.602,1045 850,1037.4 0,0 55.801,344.4 328.702,421.4 -48.6,-47.9 -214.1,-226.5 -221.6,-441.8 0,0 -862.602,-142.2 -752.2,-1004.9 110.297,-862.7 1161.7,-636.1 1161.7,-636.1 l 19,117.8 c 0,0 41.8,-547.298 570.1,-718.298 528.3,-171 851.3,136.797 851.3,136.797 0,0 -117.8,60.8 -125.4,235.601 0,0 222.9,-175.101 590.2,-187.301 367.3,-12.097 678.1,209.901 678.1,209.901 0,0 347.1,-367.299 940.4,-342.998 593.3,24.199 916.2,480.298 916.2,480.298 0,0 -93.5,40.4 -141.2,137.2 0,0 1075.6,-114.6 1083.7,821.1 152.4,-437.6 -130.3,-1025.3 -774.7,-988.2" /><path
             id="path50"
             style="fill:#ffffff;fill-opacity:1;fill-rule:nonzero;stroke:none"
             d="m 5066.82,3645.16 c -42.4,120.2 -467.79,1351.12 -1681.19,1238.22 -1281,-119.2 -1379.31,-1460.32 -1379.31,-1460.32 -253.2,78.6 -439.4,-138.2 -439.4,-138.2 l 13.3,105.2 c 7.1,-2.7 14.3,-5.5 21.5,-8.5 h 0.1 c 39.9,102.7 141.1,197.2 390.2,138.5 l 1.7,0.1 c -14.5,297.2 52.5,984.9 895.1,1413.5 994.3,505.7 2104.3,-239.7 2178,-1288.5" /><path
             id="path52"
             style="fill:#ffffff;fill-opacity:1;fill-rule:nonzero;stroke:none"
             d="m 4101.14,1861.84 c 0,0 272.39,204.35 455.44,179.57 183.06,-24.78 -455.44,-179.57 -455.44,-179.57" /><path
             id="path54"
             style="fill:#ffffff;fill-opacity:1;fill-rule:nonzero;stroke:none"
             d="m 2843.55,1861.11 c 0,0 -285.55,217.21 -471.27,182.38 -185.72,-34.83 471.27,-182.38 471.27,-182.38" /><path
             id="path56"
             style="fill:#cfdde8;fill-opacity:1;fill-rule:nonzero;stroke:none"
             d="m 3260.74,2167.08 c -99.7,-112.1 -232.1,-180.3 -377.3,-180.3 -305.2,0 -553.5,301.2 -561.3,676.5 -0.1,6 -0.2,12 -0.2,18.1 0,116.3 23.1,226 64,322.3 57.4,135.4 149.9,244.5 262.5,308.7 -48.7,-54.5 -89.6,-119.5 -120.3,-192.1 -40.9,-96.3 -64,-206 -64,-322.3 0,-6.1 0.1,-12.1 0.2,-18.1 7.8,-375.3 256.1,-676.5 561.3,-676.5 83.9,0 163.6,22.8 235.1,63.7" /><path
             id="path58"
             style="fill:#cfdde8;fill-opacity:1;fill-rule:nonzero;stroke:none"
             d="m 4391.84,2156.88 c -90.6,-105.4 -213.3,-170.1 -348.2,-170.1 -257,0 -469.2,234.4 -501.6,538.1 v 0.1 c -2.8,26.4 -4.3,53.4 -4.3,80.8 0,21.9 0.9,43.5 2.7,64.8 5.9,69.1 21.1,134.7 44,195.1 v 0.1 c 13,34.5 28.5,67.2 46.3,97.8 52.2,90 123.5,162.1 206.7,207.6 -23.7,-27.6 -45.4,-58.1 -64.4,-91 -48.9,-84.4 -81,-184.5 -90.3,-293 -1.8,-21.3 -2.7,-42.9 -2.7,-64.8 0,-341.9 226.5,-619 505.9,-619 73.4,0 143,19.1 205.9,53.5" /><path
             id="path60"
             style="fill:#b7cee8;fill-opacity:1;fill-rule:nonzero;stroke:none"
             d="m 2312.45,2754.91 c 0,0 -120.76,735.73 229.75,887.57 350.52,151.83 804.92,117.3 902.74,-826.68 0,0 -98.72,573.87 -627.69,518.65 -434.39,-45.35 -376.04,-393.55 -504.8,-579.54" /><path
             id="path62"
             style="fill:#b7cee8;fill-opacity:1;fill-rule:nonzero;stroke:none"
             d="m 3584.44,2865.68 c 0,0 -86.65,771.06 425.18,833.4 511.83,62.33 766.07,-219.9 539.06,-1154.89 0,0 -18.15,622.41 -454.04,681.44 -435.89,59.03 -510.2,-359.95 -510.2,-359.95" /><path
             id="path64"
             style="fill:#ffffff;fill-opacity:1;fill-rule:nonzero;stroke:none"
             d="m 2620.32,1622.02 c 0,0 194.55,-155.73 102.29,-368.69 0,0 88.25,107.95 62.18,222.27 -26.08,114.33 -164.47,146.42 -164.47,146.42" /><path
             id="path66"
             style="fill:#8cb1d5;fill-opacity:1;fill-rule:nonzero;stroke:none"
             d="m 2874.68,1371.53 c 0,0 289.17,97.28 524.09,-22.31 234.93,-119.6 581.58,-74.97 692.3,22.31 l -10.37,83.25 c 0,0 -187.77,-104.25 -401.55,-73.42 -213.77,30.82 -532.13,211.96 -805.62,96.32 l 1.15,-106.15" /><path
             id="path68"
             style="fill:#8cb1d5;fill-opacity:1;fill-rule:nonzero;stroke:none"
             d="m 868.422,806.66 c -35.102,38.301 -12.723,48.09 -17.324,96.59 -4.7,8.602 -7.2,19.301 -6.403,32.102 5.36,77.308 23.453,151.178 46.883,223.648 -31.851,3.72 -64.223,9.91 -96.98,17.28 -50.563,11.38 -99.547,27.42 -146.118,48.47 -14.011,-72.34 -37.054,-191.32 -37.054,-191.39 3.898,-5.8 189.371,29.99 222.871,-225.508 0,0 119.801,-85 135.398,-201.903 15.602,-116.898 80.505,-161.097 80.505,-161.097 0,0 6.7,-78.602 -137.7,-26 -144.301,52.597 -234.602,230.796 -380.902,52 -146.2,-178.903 -50.301,-272 -167.2,-277.602 0,0 3.801,-63.5 39.7,-100.6992 8.601,-8.9024 19.101,-16.4024 31.797,-21 0.105,0 0.304,-0.1016 0.402,-0.1992 65.301,-23.7032 125.199,0.1992 125.199,0.1992 0,0 66.004,-44.6992 151.801,-28.4024 h 0.098 c 10.105,1.9024 20.402,4.7032 31.003,8.5039 7.2,2.5 14.598,5.5977 22,9.1993 0,0 7.2,-2.4024 19.098,-3.3008 0.102,0 0.102,0 0.102,0 19.5,-1.4024 51.5,1.0976 85.297,24.5 0.601,0.3984 1.3,0.8984 2.101,1.3984 3.602,2.6016 7.203,5.4024 10.902,8.5 0.2,0.1992 0.399,0.3008 0.598,0.5 39.801,34.1018 30.504,118.1018 20,169.9998 -5.199,25.699 -10.699,43.602 -10.699,43.602 0,0 158.303,7.199 179.603,63.199 3.7,9.902 6.8,29.5 9.3,55.199 -13.4,24.903 -72.68,48.313 -86.778,69.711 -60.102,91.199 -50.699,228.5 -127.5,312.5" /><path
             id="path70"
             style="fill:#8cb1d5;fill-opacity:1;fill-rule:nonzero;stroke:none"
             d="m 6378.64,470.852 c -146.3,178.796 -236.6,0.597 -380.9,-52 -144.4,-52.602 -137.7,26 -137.7,26 0,0 64.9,44.199 80.5,161.097 15.6,116.903 135.4,201.903 135.4,201.903 33.5,255.498 218.97,219.708 222.88,225.508 0,0.07 -28.98,132.38 -43.65,206.79 -79.43,-10.51 -159.39,-16.55 -239.56,-18.77 21.93,-77.76 44.99,-214.75 49.93,-286.028 0.8,-12.801 -1.7,-23.5 -6.4,-32.102 -4.6,-48.5 -30.2,-79.602 -65.3,-117.898 -76.8,-84 -56.2,-200.5 -116.3,-291.704 -14.1,-21.398 -36.6,-44.296 -50,-69.199 2.5,-25.699 5.6,-45.297 9.3,-55.199 21.3,-56 179.6,-63.199 179.6,-63.199 0,0 -5.5,-17.903 -10.7,-43.602 -10.5,-51.898 -19.8,-135.898 20,-169.9998 0.2,-0.1992 0.4,-0.3008 0.6,-0.5 3.7,-3.0976 7.3,-5.8984 10.9,-8.5 0.8,-0.5 1.5,-1 2.1,-1.3984 33.8,-23.4024 65.8,-25.9024 85.3,-24.5 0,0 0,0 0.1,0 11.9,0.8984 19.1,3.3008 19.1,3.3008 7.4,-3.6016 14.8,-6.6993 22,-9.1993 10.6,-3.8007 20.9,-6.6015 31,-8.5039 h 0.1 c 85.8,-16.2968 151.8,28.4024 151.8,28.4024 0,0 59.9,-23.9024 125.2,-0.1992 0.1,0.0976 0.3,0.1992 0.4,0.1992 12.7,4.5976 23.2,12.0976 31.8,21 35.9,37.1992 39.7,100.6992 39.7,100.6992 -116.9,5.602 -21,98.699 -167.2,277.602" /><path
             id="path72"
             style="fill:#100f0d;fill-opacity:1;fill-rule:nonzero;stroke:none"
             d="m 2375.12,2575.47 c -1.9,20.2 -3.1,40.7 -3.4,61.4 -0.2,4.8 -0.2,9.7 -0.2,14.5 0,359.2 237.6,651.5 529.7,651.5 292.1,0 529.7,-292.3 529.7,-651.5 0,-343.7 -217.5,-626.1 -492.2,-649.9 -12.4,-1.1 -24.9,-1.6 -37.5,-1.6 -7.5,0 -15,0.2 -22.5,0.6 -261,13.5 -473.79,260.4 -503.6,575 z m 512,-633.9 c 17.4,0 34.7,0.9 51.7,2.7 307,31.5 548,341.4 548,718.8 0,398.5 -268.5,721.5 -599.7,721.5 -331.2,0 -599.69,-323 -599.69,-721.5 0,-6 0.1,-12 0.29,-18 0.3,-20.3 1.4,-40.4 3.2,-60.3 17.8,-197.6 101.8,-371 224.9,-488 -44.9,5.7 -87.1,5.5 -122.9,2.1 -37.4,-3.7 -67.89,-10.7 -88.8,-17.1 -10.4,-2.9 -18.5,-6.1 -23.9,-8.2 -5.39,-2.1 -8.2,-3.5 -8.2,-3.5 0,0 3.01,-0.1 8.8,-0.4 5.8,-0.4 14.21,-0.9 24.9,-1.6 21.2,-1.7 51.2,-4.6 86.4,-9.6 17.61,-2.6 36.6,-5.5 56.3,-9.5 19.8,-3.6 40.5,-8.4 61.61,-13.7 20.99,-5.4 42.5,-11.6 64.09,-18.7 10.81,-3.3 21.3,-7.8 32.2,-11.3 10.6,-4.3 21.4,-8.1 31.9,-12.8 10.5,-4.6 21.2,-8.8 31.4,-14 5.11,-2.5 10.21,-4.9 15.41,-7.3 5.1,-2.6 10.1,-5.2 15.1,-7.8 10.09,-5.1 19.9,-10.6 29.49,-16.1 9.9,-5.2 19,-11.2 28.3,-16.9 9.41,-5.4 18.1,-11.6 26.91,-17.3 4.29,-2.9 8.69,-5.8 12.89,-8.6 4.2,-3.1 8.3,-6.1 12.31,-9 16.59,-11.4 31.29,-23.6 45.5,-34.3 4.2,-3.5 8.29,-6.9 12.19,-10.1 2.5,-2.2 5,-4.3 7.5,-6.3 3.2,-2.6 6.3,-5.1 9.3,-7.6 2.91,-2.5 5.7,-5 8.4,-7.5 9.61,-8.7 19,-16 26.3,-22.8 0.81,-0.8 1.7,-1.6 2.5,-2.4 7.6,-7.4 14.2,-12.8 18.5,-16.7 3.9,-3.3 6.2,-5.3 6.7,-5.7 -0.2,0.6 -1.39,3.4 -3.4,8 -2.5,5.3 -5.8,13.2 -10.8,22.9 -2.3,4.9 -5.19,10.2 -8.4,15.9 -3.2,5.7 -6.89,11.8 -10.8,18.3 -7.5,13.3 -17.99,26.8 -28.9,42.2 -3,3.7 -6.1,7.5 -9.2,11.3 -9.3,11.3 -19.3,23.2 -30.9,34.6 -2.9,3 -5.9,6.1 -8.9,9.2 14.31,-1.5 28.6,-2.5 43.1,-2.8 2.8,-0.1 5.6,-0.1 8.4,-0.1" /><path
             id="path74"
             style="fill:#100f0d;fill-opacity:1;fill-rule:nonzero;stroke:none"
             d="m 4302.33,2083.47 c -2.5,-0.7 -4.9,-1.3 -7.4,-1.9 -12.1,-3.2 -24.11,-7.1 -36.21,-11 -11.8,-4.5 -23.89,-8.6 -35.6,-13.6 -11.7,-5.2 -23.39,-10.1 -34.7,-16.1 -11.4,-5.5 -22.5,-11.6 -33.2,-18.2 -5.39,-3.2 -10.8,-6.2 -16.1,-9.6 -3.2,-2.2 -6.4,-4.4 -9.7,-6.6 -23.2,-4.3 -46.99,-6.6 -71.2,-6.6 -261.7,0 -474.6,262.5 -474.6,585.2 0,198.4 80.5,374 203.3,479.8 17.3,15.1 35.51,28.7 54.5,40.7 65,41.4 138.71,64.7 216.8,64.7 261.71,0 474.61,-262.5 474.61,-585.2 0,-4.5 0,-9 -0.2,-13.5 -0.3,-20.5 -1.51,-40.8 -3.61,-60.8 -13.69,-133.1 -63.89,-252.3 -137.7,-342 -14.9,-18.2 -30.79,-35.2 -47.6,-50.8 -13.3,-12.4 -27.1,-23.9 -41.39,-34.5 z m 305.89,-9.9 c -5.5,2.1 -13.49,5.3 -24,8.2 -3.69,1.1 -7.7,2.3 -11.99,3.4 -19.9,5.4 -46.01,10.7 -76.81,13.7 -28.8,2.7 -61.8,3.4 -96.9,0.6 14.4,14.9 28.2,30.6 41.21,47.2 78.49,99.8 131.19,229.2 145.2,372.8 2.09,20.5 3.29,41.2 3.59,62.2 0.2,5 0.2,10.1 0.2,15.1 0,361.9 -243.79,655.2 -544.6,655.2 -73.3,0 -143.1,-17.4 -206.89,-49 -20.81,-10.2 -40.91,-21.9 -60.21,-35.2 -165.7,-112.2 -277.5,-325.9 -277.5,-571 0,-361.8 243.8,-655.2 544.6,-655.2 2.1,0 4.1,0.2 6.1,0.2 -2.1,-2.1 -4.3,-4.3 -6.4,-6.5 -15.4,-15.3 -28.1,-31.4 -40,-45.9 -10.9,-15.4 -21.39,-28.9 -28.99,-42.2 -7.71,-13.1 -14.61,-24.3 -19.21,-34.2 -4.9,-9.7 -8.19,-17.6 -10.69,-22.9 -2.01,-4.6 -3.21,-7.4 -3.41,-8 0.5,0.4 2.8,2.4 6.7,5.7 4.31,3.9 10.8,9.3 18.5,16.7 7.5,7.5 18.01,15.4 28.81,25.2 2.69,2.5 5.49,5 8.39,7.5 3,2.5 6.11,5 9.3,7.6 6.2,5.2 12.8,10.6 19.7,16.4 14.2,10.7 28.9,22.9 45.4,34.3 4.11,2.9 8.2,5.9 12.3,9 4.31,2.8 8.6,5.7 13,8.6 8.81,5.7 17.4,11.9 26.91,17.3 9.2,5.7 18.39,11.7 28.19,16.9 9.7,5.5 19.4,11 29.5,16.1 3.1,1.6 6.2,3.2 9.21,4.7 24.8,8.8 48.79,19.6 71.99,32.2 4.2,1.7 8.5,3.3 12.7,5 10.91,3.5 21.4,8 32.2,11.3 21.5,7.1 43.01,13.3 64.1,18.7 21.1,5.3 41.71,10.1 61.51,13.7 19.8,4 38.69,6.9 56.29,9.5 35.3,5 65.3,7.9 86.5,9.6 10.7,0.7 19.1,1.2 24.81,1.6 5.79,0.3 8.89,0.4 8.89,0.4 0,0 -2.8,1.4 -8.2,3.5" /><path
             id="path76"
             style="fill:#100f0d;fill-opacity:1;fill-rule:nonzero;stroke:none"
             d="m 2967.1,2517.02 c -36.38,0 -65.88,29.5 -65.88,65.88 0,36.39 29.5,65.88 65.88,65.88 36.39,0 65.88,-29.49 65.88,-65.88 0,-36.38 -29.49,-65.88 -65.88,-65.88 z m -65.88,189.28 c -104.53,0 -189.27,-84.75 -189.27,-189.28 0,-104.53 84.74,-189.27 189.27,-189.27 104.54,0 189.28,84.74 189.28,189.27 0,104.53 -84.74,189.28 -189.28,189.28" /><path
             id="path78"
             style="fill:#100f0d;fill-opacity:1;fill-rule:nonzero;stroke:none"
             d="m 4124.1,2473.81 c -36.38,0 -65.88,29.5 -65.88,65.88 0,36.39 29.5,65.88 65.88,65.88 36.39,0 65.88,-29.49 65.88,-65.88 0,-36.38 -29.49,-65.88 -65.88,-65.88 z m -65.88,189.28 c -104.53,0 -189.27,-84.74 -189.27,-189.28 0,-104.53 84.74,-189.27 189.27,-189.27 104.54,0 189.28,84.74 189.28,189.27 0,104.54 -84.74,189.28 -189.28,189.28" /><path
             id="path80"
             style="fill:#100f0d;fill-opacity:1;fill-rule:nonzero;stroke:none"
             d="m 2355.79,3423.69 c 0,0 424.16,312.14 922.93,0 0,0 -136.22,347.13 -461.47,347.13 -367.72,0 -461.46,-347.13 -461.46,-347.13" /><path
             id="path82"
             style="fill:#100f0d;fill-opacity:1;fill-rule:nonzero;stroke:none"
             d="m 4582.13,3413.69 c 0,0 -424.17,312.14 -922.93,0 0,0 136.21,347.13 461.46,347.13 367.73,0 461.47,-347.13 461.47,-347.13" /><path
             id="path84"
             style="fill:#100f0d;fill-opacity:1;fill-rule:nonzero;stroke:none"
             d="m 4278.42,1725.69 c -5.21,0.08 -12.73,0.45 -22.78,-0.97 -5.12,-0.38 -10.6,-1.36 -16.44,-2.65 -5.98,-1.1 -12.35,-2.68 -19.01,-4.87 -6.84,-1.89 -13.84,-4.55 -21.13,-7.68 -7.51,-2.84 -14.77,-6.88 -22.6,-10.92 -7.81,-4.08 -15.3,-9.27 -23.32,-14.46 -7.63,-5.6 -15.63,-11.47 -23.13,-18.26 -15.41,-13.24 -30.06,-29.13 -43.22,-47.14 -13.4,-17.86 -25.02,-38.1 -34.28,-59.81 -4.84,-10.78 -8.8,-22.06 -12.45,-33.49 -3.04,-11.61 -6.3,-23.23 -8.27,-35.17 -1.36,-8.13 -2.35,-16.33 -3.15,-24.55 -50.21,-36.72 -234.26,-139.34 -584.58,2.51 -220.38,89.24 -460.17,50.75 -557.64,28.69 -0.78,4.06 -1.48,8.13 -2.47,12.14 -6.54,25.74 -16.49,50.6 -29.83,72.9 -13.38,22.25 -29.9,41.86 -47.79,58.39 -17.72,16.75 -37.59,29.66 -57.12,39.74 -19.49,10.29 -39.47,16.56 -57.86,20.79 -9.37,1.68 -18.11,3.62 -26.75,4.01 -4.25,0.32 -8.38,0.62 -12.4,0.92 -4.04,-0.06 -7.95,-0.11 -11.75,-0.17 -7.52,0 -14.54,-0.73 -20.95,-1.71 -3.18,-0.44 -6.23,-0.86 -9.15,-1.27 -2.92,-0.69 -5.71,-1.36 -8.36,-1.98 -10.62,-2.2 -17.92,-5.44 -23.1,-7.44 -5.14,-2.12 -7.88,-3.25 -7.88,-3.25 0,0 2.93,-0.45 8.43,-1.29 2.74,-0.35 6.12,-0.79 10.1,-1.3 3.98,-0.6 8.29,-1.78 13.07,-2.7 2.35,-0.49 4.82,-1 7.42,-1.54 2.6,-0.74 5.32,-1.51 8.16,-2.32 5.63,-1.62 11.64,-3.09 17.85,-5.62 3.09,-1.1 6.28,-2.23 9.56,-3.39 3.18,-1.41 6.46,-2.86 9.81,-4.35 6.72,-2.7 13.44,-6.4 20.37,-10.04 13.65,-7.78 27.9,-16.63 41.27,-27.99 13.47,-11.09 26.72,-23.67 38.36,-38.21 11.71,-14.45 22.27,-30.26 31.13,-47.18 8.38,-17.14 15.3,-35.14 19.67,-53.8 5.05,-18.52 6.52,-37.78 6.78,-56.83 0.23,-9.55 -0.76,-19.04 -1.39,-28.54 -0.26,-4.75 -1.42,-9.4 -2.05,-14.09 -0.84,-4.66 -1.16,-9.41 -2.44,-13.96 -1.05,-4.63 -2.09,-9.21 -3.12,-13.75 -0.94,-4.59 -2.7,-8.94 -3.86,-13.44 -1.36,-4.43 -2.46,-8.93 -4,-13.24 -1.65,-4.28 -3.33,-8.5 -4.82,-12.78 -2.74,-8.65 -6.78,-16.54 -10.18,-24.53 -3.15,-8.14 -7.31,-15.48 -10.98,-22.81 -1.83,-3.7 -3.62,-7.31 -5.37,-10.85 -1.97,-3.43 -3.9,-6.79 -5.77,-10.07 -3.77,-6.66 -7.35,-12.99 -10.7,-18.93 -7.35,-11.82 -13.75,-22.11 -19.03,-30.59 -11.18,-16.79 -17.33,-27.21 -17.33,-27.21 0,0 10.55,5.18 28.59,15.73 8.93,5.37 19,12.9 30.87,21.52 5.75,4.5 11.43,9.78 17.72,15.16 6.37,5.3 12.43,11.51 18.68,18.18 6.3,6.62 12.84,13.6 18.85,21.56 6.15,7.84 12.56,15.98 18.15,25.16 2.86,4.56 5.75,9.19 8.68,13.87 2.78,4.78 5.19,9.89 7.84,14.96 5.62,10 9.59,21.09 13.94,32.33 7.37,21.28 13.16,44.46 14.83,68.66 79.89,18.92 317.27,62.79 527.69,-22.42 142.54,-57.72 261.12,-77.71 357.02,-77.71 121.02,0 205.84,31.84 257.13,59.87 2.23,-12.19 5.2,-24.07 8.9,-35.43 6.39,-21.57 16.17,-40.99 25.97,-58.62 5.46,-8.54 10.67,-16.83 16.16,-24.46 5.95,-7.36 11.35,-14.59 17.08,-21.05 6.03,-6.26 11.66,-12.25 17.18,-17.74 5.88,-5.19 11.42,-10.04 16.74,-14.43 10.57,-8.82 20.85,-15.19 28.86,-20.67 8.46,-5.02 15.44,-8.42 19.99,-10.91 4.67,-2.33 7.16,-3.56 7.16,-3.56 0,0 -5.65,9.93 -15.76,25.82 -4.49,8.47 -10.72,17.87 -16.64,29.27 -2.97,5.6 -6.13,11.55 -9.46,17.83 -2.98,6.33 -6.11,12.99 -9.37,19.93 -2.89,6.96 -5.9,14.21 -9.01,21.71 -2.63,7.53 -5.35,15.31 -8.15,23.3 -4.65,16.17 -9.37,32.93 -11.86,50.58 -1.66,8.73 -2.24,17.73 -3.37,26.68 -0.18,4.53 -0.37,9.07 -0.55,13.64 -0.43,4.53 -0.44,9.11 -0.31,13.71 -0.01,18.35 1.61,36.97 5.05,55.29 2.84,18.44 7.92,36.55 14.02,54.06 2.89,8.82 6.64,17.26 9.99,25.8 3.87,8.28 7.64,16.55 11.88,24.45 8.4,15.82 17.49,30.86 27.46,44.28 9.65,13.72 20.08,25.86 30.32,36.75 5.17,5.38 10.2,10.63 15.36,15.17 2.54,2.38 5.03,4.7 7.44,6.95 2.55,2.09 5.03,4.12 7.43,6.1 4.72,4.22 9.51,7.58 13.94,10.88 4.42,3.43 8.57,6.31 12.39,8.75 3.86,2.47 7.26,4.94 10.47,6.93 3.28,1.87 6.06,3.46 8.32,4.75 4.48,2.7 6.88,4.14 6.88,4.14 0,0 -2.79,0.1 -8.03,0.28" /><path
             id="path86"
             style="fill:#100f0d;fill-opacity:1;fill-rule:nonzero;stroke:none"
             d="m 3975.84,1274.27 c -52.1,0 -56.42,-11.29 -56.42,-23.86 0,-24.81 24.23,-63.06 56.42,-63.06 25.96,0 33.07,9.35 33.07,43.46 0,34.11 -7.11,43.46 -33.07,43.46 z m 0,-116.92 c -52.75,0 -86.42,55.12 -86.42,93.06 0,53.86 60.56,53.86 86.42,53.86 63.07,0 63.07,-53.37 63.07,-73.46 0,-20.09 0,-73.46 -63.07,-73.46" /><path
             id="path88"
             style="fill:#100f0d;fill-opacity:1;fill-rule:nonzero;stroke:none"
             d="m 3916.09,1677.95 c -52.1,0 -56.41,-11.29 -56.41,-23.86 0,-20.18 11.02,-56 28.3,-66.18 4.19,-2.46 10.36,-4.57 20.85,1.24 l 1.46,0.81 c 35.59,19.7 38.88,22.16 38.88,44.53 0,34.11 -7.11,43.46 -33.08,43.46 z m -19.48,-122.56 c -9.78,0 -17.85,3.13 -23.87,6.67 -29.38,17.31 -43.06,65.16 -43.06,92.03 0,53.86 60.55,53.86 86.41,53.86 63.08,0 63.08,-53.37 63.08,-73.46 0,-40.69 -18.16,-50.75 -54.35,-70.78 l -1.46,-0.81 c -9.89,-5.48 -18.88,-7.51 -26.75,-7.51" /><path
             id="path90"
             style="fill:#100f0d;fill-opacity:1;fill-rule:nonzero;stroke:none"
             d="m 4020.14,1750.59 c -1.14,0 -2.2,-0.1 -3.12,-0.35 -1.14,-0.3 -4.61,-1.22 -7.73,-10.89 -1.47,-4.53 -5.91,-18.29 -5.01,-26.4 0.36,-3.25 1.09,-4.46 4.93,-5.7 6.72,-2.18 16.51,-1.48 24.93,1.81 5.23,2.04 14.47,6.91 17.59,16.59 3.65,11.27 3.17,15.44 -16.41,21.77 v 0 c -2.65,0.86 -9.8,3.17 -15.18,3.17 z m -2.01,-74.57 c -6.4,0 -12.57,0.87 -18.13,2.67 -14.78,4.78 -23.85,15.76 -25.53,30.95 -1.12,10.04 0.81,22.04 6.27,38.92 5.41,16.78 15.04,27.1 28.64,30.69 12.13,3.23 24.58,0.14 35.16,-3.27 h 0.01 c 12.31,-3.99 49.77,-16.1 35.73,-59.55 -5.13,-15.91 -17.65,-28.46 -35.25,-35.32 -8.67,-3.38 -18,-5.09 -26.9,-5.09" /><path
             id="path92"
             style="fill:#100f0d;fill-opacity:1;fill-rule:nonzero;stroke:none"
             d="m 6690.35,1603.97 c -83.44,-134.52 -338.43,-430.66 -902.43,-275.39 0,0 98.46,-115.77 157.55,-123.21 -273.91,-362.561 -583.83,-560.679 -922.11,-588.999 -489.78,-40.98 -903.75,289.231 -1020.41,392.699 33.28,81.08 18.99,173.3 18.99,173.3 -2.08,-3.72 -213.16,-371.839 -681.7,-377.28 -5.1,-0.059 -10.08,-0.09 -15.1,-0.09 -446.11,0 -547.57,232.92 -551.72,242.95 0,0 -37.2,-145.7 105.72,-229.348 -90.56,-139.973 -283.54,-235.864 -516.66,-253.762 -363.07,-27.91 -612.89,135.5 -725.62,297.691 -125.21,180.149 -178.23,381.019 -157.6,597.029 15.55,162.71 69.37,273.57 69.91,274.68 0,0 -196.73,-200.15 -156.11,-495.12 -152.09,-20.66 -663.138,-67.22 -996.326,178.32 -170.277,125.48 -270.55,311.17 -298.0465,551.89 -25.8672,226.54 -11.1172,640.96 378.3715,871.19 243.929,144.19 521.687,143.57 639.131,60.29 0,0 -71.4,133.57 -156.206,142.33 22.336,78.96 81.326,233.5 214.196,307.63 99.47,55.5 224.5,56.67 371.96,3.89 -13.33,-146.15 78.98,-201.04 78.98,-201.04 -0.22,1.61 -22.22,204.83 69.4,288.21 54.36,49.47 140.55,63.14 256.27,40.96 10.31,-110.6 98.23,-167.23 98.23,-167.23 -0.53,2.39 -46.74,312.55 32.06,618.26 105.98,411.15 384.63,734.04 828.21,959.7 480.21,244.28 1031.27,201.21 1474.07,-115.26 467.39,-334.04 720.81,-936.36 626.98,-1531.47 0,0 104.12,119.44 103.49,212.62 82.99,16.93 318.98,48.03 523.93,-87.84 183.53,-121.67 298.1,-346.14 340.93,-667.45 -134.14,-37.14 -177.44,-174.74 -177.44,-174.74 1.18,0.79 119.91,80.15 282.6,105.66 213.29,33.43 400,-37.49 554.82,-210.87 191.64,-214.61 213.38,-559.55 51.68,-820.2 z m 15.45,880.14 c -220.74,247.22 -469.22,266.64 -638.94,239.36 -47.26,344.25 -174.72,587.45 -379.36,723.12 -219.45,145.47 -463.4,124.58 -572.32,104.86 -6.36,513.15 -253.76,995.77 -679.49,1300.03 -470.62,336.36 -1056.49,382.06 -1567.21,122.25 -582.44,-296.29 -797.07,-716.83 -874.56,-1017.45 -37.94,-147.22 -47.75,-279.48 -46.92,-381.42 -135.17,21.93 -240.34,-0.29 -313.05,-66.46 -23.05,-20.98 -40.98,-44.84 -54.95,-69.87 -174.32,62.99 -325.31,59.91 -449.23,-9.47 C 954.617,3330.99 888.309,3130.31 867.57,3046.56 731.926,3043.13 576.676,3003.96 431.258,2918 245.313,2808.08 -56.7656,2537.35 9.26953,1959.12 39.7188,1692.54 152.117,1485.91 343.34,1344.99 c 237.301,-174.88 547.695,-214.45 780.17,-214.45 126.69,0 230.22,11.76 286.15,19.79 25.62,-108.42 72.96,-223.58 153.3,-339.158 174.62,-251.25 476.4,-339.082 726.8,-339.082 27.22,0 53.84,1.039 79.61,3.019 265.57,20.383 487.11,135.321 590.96,303.539 90.71,-37.179 209.71,-63.648 364.89,-63.648 5.3,0 10.68,0.039 16.07,0.102 279.22,3.238 474.68,120.117 597.34,230.32 113.14,-102.621 505.51,-422.641 998.39,-422.641 30.66,0 61.75,1.239 93.14,3.848 379.47,31.512 722.83,257.101 1020.93,670.321 10.76,-0.33 21.51,-0.59 32.15,-0.58 293.33,0 537.89,125.29 683.59,360.15 182.25,293.79 156.58,683.9 -61.03,927.59" /><path
             id="path94"
             style="fill:#100f0d;fill-opacity:1;fill-rule:nonzero;stroke:none"
             d="m 1052.33,489.77 c -30.73,19.582 -59.748,38.082 -60.725,131.269 -1.476,139.75 -66.804,198.481 -120.835,217.012 -0.942,61.91 2.785,210.389 50.32,362.819 -26.289,5.12 -52.485,10.75 -78.598,16.85 -63.926,-209.41 -51.187,-405.56 -50.484,-415.49 l 1.832,-36.789 36.906,-0.351 c 8.125,-0.418 79.422,-8.051 80.859,-144.891 1.442,-136.519 59.379,-173.449 97.715,-197.89 21.08,-13.43 24.78,-17.059 26.41,-25.887 1.62,-8.84 -9.97,-28.461 -35.972,-42.293 -43.289,-23.02 -113.903,-23.699 -182.305,43.363 -64.238,62.988 -73.754,104.598 -74.844,110.68 l 1.223,29.859 -32.844,7.028 c -6.105,1.312 -61.152,11.781 -106.23,-24.657 -33.32,-26.941 -50.215,-70.101 -50.215,-128.312 0,-29.711 2.297,-60.481 4.516,-90.231 10.578,-141.629 2.574,-187.179 -68.02,-196.23 -25.351,-3.27 -44.996,2.363 -61.773,17.641 -49.914,45.472 -64.086,164.171 -61.059,252.011 3.438,99.59 75.262,353.16 232.656,389.61 l 31.34,7.269 -0.367,32.16 c -0.035,3.059 -1.531,219.16 53.594,454.84 -22.016,6.38 -43.981,12.98 -65.918,19.66 -3.875,0.75 -7.703,1.61 -11.489,2.58 C 561.371,1085.2 553.313,903.832 552.035,833.559 374.922,767.52 292.809,510.012 288.254,378.031 286.414,324.691 287.27,144.422 375.387,64.1406 403.883,38.1797 439.07,24.7813 478.18,24.7813 c 7.539,0 15.226,0.5 23.035,1.5 157.137,20.1406 145.859,171.2307 137.625,281.5387 -2.113,28.289 -4.297,57.539 -4.297,84.27 0,22.379 3.496,51.961 20.141,65.789 5.214,4.34 11.308,6.793 17.129,8.113 11.125,-29.183 35.652,-72.691 89.636,-125.621 99.27,-97.32 207.598,-93.18 275.871,-56.871 54.78,29.129 85.75,80.34 77.08,127.422 -8.2,44.508 -39.34,64.359 -62.07,78.848" /><path
             id="path96"
             style="fill:#100f0d;fill-opacity:1;fill-rule:nonzero;stroke:none"
             d="M 643.039,0 C 598.148,0 551.813,15.5586 515.934,52.7695 l 57.597,55.5315 c 35.348,-36.6721 90.313,-34.5315 126.324,-13.4924 19.313,11.2814 49.524,37.4924 34.934,86.3634 -43.211,144.668 -0.363,217.527 4.66,225.367 l 67.324,-43.23 0.528,0.863 c -0.281,-0.5 -28.293,-51.524 4.137,-160.113 C 832.883,132.25 805.59,63.9219 740.207,25.7305 712.527,9.55859 678.219,0.0117188 643.039,0" /><path
             id="path98"
             style="fill:#100f0d;fill-opacity:1;fill-rule:nonzero;stroke:none"
             d="m 795.395,18.832 c -23.899,0 -49.071,5.5899 -74.446,16.8868 l 32.539,73.0822 c 22.91,-10.1994 55.5,-17.7697 80.602,4.121 20.5,17.859 29.84,49.957 22.207,76.32 -15.902,54.817 -12.141,99.238 -6.172,126.86 l 78.191,-16.883 C 925.031,283.988 921.285,252.352 933.137,211.5 949.508,154.949 930.824,91.1094 886.652,52.6094 860.934,30.1992 829.461,18.832 795.395,18.832" /><path
             id="path100"
             style="fill:#100f0d;fill-opacity:1;fill-rule:nonzero;stroke:none"
             d="m 6336.51,833.559 c -1.28,69.75 -9.24,248.971 -54.98,443.501 -26.77,-3.86 -53.62,-6.77 -80.55,-8.75 57.33,-239.2 55.76,-460.888 55.73,-463.99 l -0.37,-32.172 31.34,-7.257 c 157.39,-36.45 229.22,-290.02 232.65,-389.61 3.03,-87.84 -11.14,-206.539 -61.06,-252.011 -16.78,-15.278 -36.42,-20.918 -61.76,-17.641 -70.6,9.051 -78.61,54.601 -68.03,196.242 2.22,29.738 4.52,60.508 4.52,90.219 0,58.211 -16.9,101.371 -50.22,128.312 -45.08,36.438 -100.11,25.977 -106.23,24.657 l -32.84,-4.047 1.22,-32.832 c -1.07,-6.032 -10.56,-47.66 -74.84,-110.68 -68.41,-67.07 -139.02,-66.391 -182.31,-43.371 -26,13.832 -37.59,33.453 -35.97,42.293 1.63,8.828 5.33,12.457 26.41,25.887 38.34,24.441 96.28,61.371 97.72,197.89 1.43,136.84 72.73,144.473 80.07,144.871 l 36.91,0.352 2.61,36.808 c 0.76,10.649 15.39,235.54 -65.65,461.26 -28.43,-0.37 -57.1,-0.41 -85.68,0.51 68.53,-172.6 73.55,-355.441 72.54,-425.961 -54.03,-18.539 -119.33,-77.277 -120.8,-217 -0.98,-93.187 -30,-111.687 -60.73,-131.269 -22.73,-14.489 -53.87,-34.34 -62.07,-78.848 -8.67,-47.082 22.3,-98.293 77.08,-127.422 68.28,-36.32 176.61,-40.449 275.87,56.871 53.99,52.93 78.51,96.438 89.64,125.621 5.83,-1.332 11.92,-3.781 17.12,-8.113 16.65,-13.828 20.15,-43.41 20.15,-65.789 0,-26.731 -2.19,-55.981 -4.3,-84.27 -8.23,-110.308 -19.51,-261.3981 137.63,-281.5387 7.81,-1 15.49,-1.5 23.03,-1.5 39.11,0 74.3,13.3984 102.79,39.3593 88.12,80.2814 88.98,260.5504 87.14,313.8984 -4.56,131.973 -86.67,389.481 -263.78,455.52" /><path
             id="path102"
             style="fill:#100f0d;fill-opacity:1;fill-rule:nonzero;stroke:none"
             d="m 6245.5,0 c -35.19,0 -69.48,9.55859 -97.17,25.7305 -65.38,38.1914 -92.67,106.5195 -71.23,178.3285 32.48,108.773 4.96,158.8 4.67,159.25 l 67.32,43.23 c 5.02,-7.84 47.87,-80.699 4.66,-225.367 -14.59,-48.871 15.62,-75.082 34.93,-86.3634 36.02,-21.0391 90.99,-23.168 126.33,13.4924 L 6372.6,52.7695 C 6336.73,15.5586 6290.39,0 6245.5,0" /><path
             id="path104"
             style="fill:#100f0d;fill-opacity:1;fill-rule:nonzero;stroke:none"
             d="m 6093.15,18.832 c -34.08,0 -65.54,11.3594 -91.26,33.7774 -44.17,38.5 -62.86,102.3396 -46.49,158.8706 11.85,40.86 8.11,72.508 4.82,87.739 l 78.2,16.883 c 5.96,-27.622 9.73,-72.051 -6.19,-126.891 -7.62,-26.332 1.72,-58.43 22.22,-76.289 25.1,-21.8712 57.69,-14.3204 80.6,-4.121 l 32.54,-73.0822 C 6142.22,24.4219 6117.04,18.832 6093.15,18.832" /></g></g></g></g></svg>