<?xml version="1.0" encoding="UTF-8" standalone="no"?>
<svg
   xmlns:dc="http://purl.org/dc/elements/1.1/"
   xmlns:cc="http://creativecommons.org/ns#"
   xmlns:rdf="http://www.w3.org/1999/02/22-rdf-syntax-ns#"
   xmlns:svg="http://www.w3.org/2000/svg"
   xmlns="http://www.w3.org/2000/svg"
   viewBox="0 0 918.40002 685.41333"
   height="685.41333"
   width="918.40002"
   xml:space="preserve"
   id="svg2"
   version="1.1"><metadata
     id="metadata8"><rdf:RDF><cc:Work
         rdf:about=""><dc:format>image/svg+xml</dc:format><dc:type
           rdf:resource="http://purl.org/dc/dcmitype/StillImage" /></cc:Work></rdf:RDF></metadata><defs
     id="defs6"><clipPath
       id="clipPath20"
       clipPathUnits="userSpaceOnUse"><path
         id="path18"
         d="M 0,0 H 6888 V 5140.6 H 0 Z" /></clipPath></defs><g
     transform="matrix(1.3333333,0,0,-1.3333333,0,685.41333)"
     id="g10"><g
       transform="scale(0.1)"
       id="g12"><g
         id="g14"><g
           clip-path="url(#clipPath20)"
           id="g16"><path
             id="path22"
             style="fill:#deecf9;fill-opacity:1;fill-rule:nonzero;stroke:none"
             d="m 6028.26,2670.18 c 179,40.3 425.3,28.9 644,-216 375.8,-420.8 120.4,-1256 -644,-1212 -967,-1365.7 -2090.1,-234.4 -2090.1,-234.4 -113.7,-111.698 -309.1,-244.401 -597.4,-247.698 -179,-2.102 -307.9,32.098 -399.6,76.797 -191.9,-393.199 -1022.5,-458.699 -1341.3,0 -86.6,124.703 -132.9,249.301 -154.3,364.801 0,0 -1276.9,-241.5 -1391.5991,762.6 -86.3007,755.4 477.5981,1045 850.0001,1037.4 0,0 101.099,624.9 697.799,379.9 h 0.1 c 39.9,102.7 141.1,197.2 390.2,138.5 l 1.7,0.1 c -14.5,297.2 52.5,984.9 895.1,1413.5 1041.1,529.5 2209,-312.6 2181.5,-1438.4 8.1,2.4 837.6,242.5 957.9,-825.1" /><path
             id="path24"
             style="fill:#b7cee8;fill-opacity:1;fill-rule:nonzero;stroke:none"
             d="m 3423.34,2519.4 c 0,-383.6 -251.4,-694.6 -561.5,-694.6 -305.2,0 -553.5,301.2 -561.3,676.5 -0.1,6 -0.2,12 -0.2,18.1 0,116.3 23.1,226 64,322.3 93.9,221.4 281.4,372.4 497.5,372.4 229.6,0 427,-170.5 514,-414.7 29.9,-83.7 46.7,-176.1 47.4,-273.2 0.1,-2.2 0.1,-4.5 0.1,-6.8" /><path
             id="path26"
             style="fill:#b7cee8;fill-opacity:1;fill-rule:nonzero;stroke:none"
             d="m 4527.9,2443.8 c 0,-341.9 -226.5,-619 -505.8,-619 -279.4,0 -505.9,277.1 -505.9,619 0,21.9 0.9,43.5 2.7,64.8 9.3,108.5 41.4,208.6 90.3,293 91.7,158.1 242.5,261.2 412.9,261.2 183.6,0 344.4,-119.7 433,-298.9 40.5,-81.8 65.9,-176 71.5,-276.9 0.9,-14.3 1.3,-28.7 1.3,-43.2" /><path
             id="path28"
             style="fill:#c2dcdf;fill-opacity:1;fill-rule:nonzero;stroke:none"
             d="m 4030.34,819.949 c -7.79,-43.801 -27.4,-77.801 -64.7,-90.097 -119.9,-39.403 -119.9,77.5 -112.7,170.898 7.2,93.402 -58.99,26.5 -80.89,-13.398 -21.91,-39.801 -103.5,-50 -117.4,68.296 -13.91,118.302 -62.41,233.202 -62.41,233.202 10.5,6.6 21.21,12.5 31.81,17.6 151.29,73.3 305.89,2.3 350.5,-82.2 32.89,-62.4 73.19,-207.301 55.79,-304.301" /><path
             id="path30"
             style="fill:#1d1312;fill-opacity:1;fill-rule:nonzero;stroke:none"
             d="m 3171.07,1170.99 386.57,28.78 c 0,0 243.1,49.15 370.39,-31.93 0,0 105.09,197.01 -165.86,329.33 -270.94,132.33 -876.4,10.96 -912.12,-164.67 -35.73,-175.62 52.18,-187.55 321.02,-161.51" /><path
             id="path32"
             style="fill:#deecf9;fill-opacity:1;fill-rule:nonzero;stroke:none"
             d="m 1061.91,361.961 c -47.2,-76 -172.398,-53.602 -172.398,-53.602 0,0 -8.399,-39.199 -0.301,-65.699 8.102,-26.398 35.504,-99.801 -20.398,-154.1014 C 812.914,34.1602 743.512,78.1602 743.512,78.1602 c -100,-85.69926 -199.5,-1.8985 -199.5,-1.8985 0,0 -35.399,-26.3008 -105.5,0 -70,26.2973 -162,186.0003 -87.5,440.6993 74.402,254.598 240.801,290.398 240.801,290.398 l 43.199,441.201 c 115.5,-51.9 243.699,-55.8 243.699,-55.8 -37.5,-90.5 -45,-390.401 -45,-390.401 111.102,-9.699 117.5,-138.699 121.203,-188.597 3.598,-49.903 12.098,-92.5 52.296,-131.403 40.1,-38.898 102,-44.5 54.7,-120.398" /><path
             id="path34"
             style="fill:#8cb1d5;fill-opacity:1;fill-rule:nonzero;stroke:none"
             d="M 868.813,88.5586 C 812.914,34.1602 743.512,78.1602 743.512,78.1602 c -100,-85.69926 -199.5,-1.8985 -199.5,-1.8985 0,0 74,33.5973 61.601,146.7973 -12.402,113.203 -42,279.101 99.899,274.402 0,0 47.699,-136.301 184,-189.102 0,0 -8.399,-39.199 -0.301,-65.699 8.102,-26.398 35.504,-99.801 -20.398,-154.1014" /><path
             id="path36"
             style="fill:#deecf9;fill-opacity:1;fill-rule:nonzero;stroke:none"
             d="m 5826.63,361.961 c 47.2,-76 172.4,-53.602 172.4,-53.602 0,0 8.4,-39.199 0.3,-65.699 -8.1,-26.398 -35.5,-99.801 20.4,-154.1014 55.9,-54.3984 125.3,-10.3984 125.3,-10.3984 100,-85.69926 199.5,-1.8985 199.5,-1.8985 0,0 35.4,-26.3008 105.5,0 70,26.2973 162,186.0003 87.5,440.6993 -74.4,254.598 -240.8,290.398 -240.8,290.398 l -43.2,441.201 c -115.5,-51.9 -243.7,-55.8 -243.7,-55.8 37.5,-90.5 45,-390.401 45,-390.401 -111.1,-9.699 -117.5,-138.699 -121.2,-188.597 -3.6,-49.903 -12.1,-92.5 -52.3,-131.403 -40.1,-38.898 -102,-44.5 -54.7,-120.398" /><path
             id="path38"
             style="fill:#8cb1d5;fill-opacity:1;fill-rule:nonzero;stroke:none"
             d="m 6019.73,88.5586 c 55.9,-54.3984 125.3,-10.3984 125.3,-10.3984 100,-85.69926 199.5,-1.8985 199.5,-1.8985 0,0 -74,33.5973 -61.6,146.7973 12.4,113.203 42,279.101 -99.9,274.402 0,0 -47.7,-136.301 -184,-189.102 0,0 8.4,-39.199 0.3,-65.699 -8.1,-26.398 -35.5,-99.801 20.4,-154.1014" /><path
             id="path40"
             style="fill:#ffffff;fill-opacity:1;fill-rule:nonzero;stroke:none"
             d="m 4055.72,1670 c 0,0 272.39,204.36 455.45,179.58 C 4694.22,1824.8 4055.72,1670 4055.72,1670" /><path
             id="path42"
             style="fill:#ffffff;fill-opacity:1;fill-rule:nonzero;stroke:none"
             d="m 2798.13,1669.28 c 0,0 -285.55,217.21 -471.27,182.38 -185.72,-34.83 471.27,-182.38 471.27,-182.38" /><path
             id="path44"
             style="fill:#8cb1d5;fill-opacity:1;fill-rule:nonzero;stroke:none"
             d="m 3332.71,2109.25 55.9,119.6 c -15.5,-42.3 -34.2,-82.3 -55.9,-119.6" /><path
             id="path46"
             style="fill:#8cb1d5;fill-opacity:1;fill-rule:nonzero;stroke:none"
             d="m 2546.21,2273.85 c 0,0 93.7,-394.2 539.8,-404.4 -64.7,-32.3 -135.5,-50 -209.6,-50 -305.2,0 -553.5,301.2 -561.3,676.5 -0.1,6 -0.2,12 -0.2,18.1 0,116.3 23.1,226 64,322.3 68.2,160.8 185.8,284.5 327.9,340.1 -56.4,-75 -235.2,-351 -188.9,-785.3 0,0 603.1,-139.2 918.8,77 -2,-38.2 -6.5,-75.5 -13.4,-111.8 -96.4,-56.7 -388.3,-189.3 -877.1,-82.5" /><path
             id="path48"
             style="fill:#8cb1d5;fill-opacity:1;fill-rule:nonzero;stroke:none"
             d="m 3700.21,2273.85 c 0,0 200.3,-447.6 671.8,-298.7 -89.3,-96.9 -206.7,-155.7 -335.4,-155.7 -279.4,0 -505.9,277.1 -505.9,619 0,21.9 0.9,43.5 2.7,64.8 9.3,108.5 41.4,208.6 90.3,293 78.1,134.7 199.2,229.5 338.7,254.5 -85.9,-68.8 -250.2,-248.2 -308.7,-642.6 0,0 572.3,-184.7 888.5,44.8 0.2,-4.8 0.2,-9.7 0.2,-14.5 0,-46.7 -4.2,-92.2 -12.3,-136 -118.5,-49.7 -367.6,-106.1 -829.9,-28.6" /><path
             id="path50"
             style="fill:#ffffff;fill-opacity:1;fill-rule:nonzero;stroke:none"
             d="m 4088.84,2921.68 c 0,0 182.53,-24.07 320.48,-336.27 0,0 32.69,321.91 -320.48,336.27" /><path
             id="path52"
             style="fill:#ffffff;fill-opacity:1;fill-rule:nonzero;stroke:none"
             d="m 2896.71,3088.3 c 0,0 230.09,-32.28 403.99,-450.93 0,0 41.21,431.67 -403.99,450.93" /><path
             id="path54"
             style="fill:#b7cee8;fill-opacity:1;fill-rule:nonzero;stroke:none"
             d="m 2308.24,2749.36 c 0,0 394,941.72 1052.42,139.19 0,0 -88.91,714.73 -494.48,727.01 -517.98,15.69 -646.97,-532.45 -557.94,-866.2" /><path
             id="path56"
             style="fill:#b7cee8;fill-opacity:1;fill-rule:nonzero;stroke:none"
             d="m 4534.61,2600.76 c 0,0 -373.92,853.67 -952.86,219.97 0,0 -23.64,717.04 494.48,727.01 682.68,13.13 547.41,-613.23 458.38,-946.98" /><path
             id="path58"
             style="fill:#a5b9ba;fill-opacity:1;fill-rule:nonzero;stroke:none"
             d="m 4028.07,814.441 c -7.8,-43.8 -27.4,-77.8 -64.7,-90.101 -119.9,-39.399 -119.9,77.5 -112.7,170.898 7.2,93.403 -59,26.504 -80.9,-13.398 -21.9,-39.801 -103.5,-50 -117.4,68.301 -13.9,118.299 -62.4,233.199 -62.4,233.199 10.5,6.6 21.2,12.5 31.8,17.6 l 24.8,1.2 c 0,0 63.5,-78.2 59.7,-177.1 -3.8,-98.798 1.9,43.2 115.5,11 113.7,-32.2 22.8,-330.2 179.9,-235.099 10.1,6.098 18.9,10.598 26.4,13.5" /><path
             id="path60"
             style="fill:#ffffff;fill-opacity:1;fill-rule:nonzero;stroke:none"
             d="m 3931.15,1073.16 c -12.87,24.27 -29.95,46.5 -51.05,64.22 -17.95,15.07 -42.95,35.51 -67.92,32.36 -25.2,-3.18 -25.52,-43.21 0,-40 16.63,2.1 37.95,-18.43 49.24,-29.27 14.47,-13.89 25.81,-29.82 35.19,-47.5 12.06,-22.76 46.59,-2.57 34.54,20.19" /><path
             id="path62"
             style="fill:#ffffff;fill-opacity:1;fill-rule:nonzero;stroke:none"
             d="m 3946.74,747.711 c -25.74,0 -25.78,-40 0,-40 25.74,0 25.78,40 0,40" /><path
             id="path64"
             style="fill:#b7cee8;fill-opacity:1;fill-rule:nonzero;stroke:none"
             d="m 5054.82,3396.76 15.5,98.5 c 8.1,2.4 828.9,240 955.9,-808.3 -56.2,-19.6 -122.4,-53.6 -186.2,-112.8 0,0 -48.9,770.8 -785.2,822.6" /><path
             id="path66"
             style="fill:#b7cee8;fill-opacity:1;fill-rule:nonzero;stroke:none"
             d="m 6672.22,2454.16 c -130.9,146.6 -271.7,209.51 -402.1,227.81 226.8,-118.1 457.8,-543.7 185.7,-872.21 -313.3,-378.1 -858.6,-297.6 -858.6,-297.6 l 120.2,-194.6 c 0,0 -463.6,-366.298 -944.4,-354.9 -480.8,11.41 -721.2,286.21 -721.2,286.21 l 20.4,141.9 c 0,0 -45.08,-43.45 -121.65,-98.54 2.88,-9.45 3.11,-20.32 -0.54,-32.4 -5.17,-17.13 33.95,-72.38 42.52,-91.31 15.82,-34.97 30.06,-70.48 37.4,-108.29 8.24,-42.47 13.11,-91.218 1.44,-134.488 288.66,-233.402 1196.24,-814.254 1996.83,316.418 764.4,-44 1019.8,791.2 644,1212" /><path
             id="path68"
             style="fill:#b7cee8;fill-opacity:1;fill-rule:nonzero;stroke:none"
             d="m 3664.79,876.82 c -28.07,27.332 -34.8,70.801 -40.01,107.629 -6.15,43.491 -7.39,87.171 -8.45,130.851 -87.52,-30.16 -183.14,-50.24 -282.71,-50.24 -401.3,0 -678.1,202.5 -678.1,202.5 -24.1,-227 82.5,-364.501 82.5,-364.501 0,0 -355.2,-130 -775.9,16.5 -420.8,146.611 -462,721.701 -462,721.701 l -49.3,-160.8 c 0,0 -980.8,12.7 -1010.203,639.8 -29.496,627.2 655.503,813.21 655.503,813.21 -18.2,216.19 102.3,393.99 202.7,502.39 -330.3,-35.3 -394.898,-434.2 -394.898,-434.2 -372.402,7.6 -936.3009,-282 -850.004,-1037.4 114.703,-1004.1 1391.602,-762.6 1391.602,-762.6 21.4,-115.49 67.7,-240.09 154.3,-364.801 318.8,-458.699 1149.4,-393.187 1341.3,0 91.7,-44.699 220.6,-78.898 399.6,-76.8 155.81,1.793 284.43,41.39 387.74,95.023 -22.31,-2.492 -45.04,3.598 -63.67,21.738" /><path
             id="path70"
             style="fill:#8cb1d5;fill-opacity:1;fill-rule:nonzero;stroke:none"
             d="m 5070.32,3495.26 c 8.1,2.4 828.9,240 955.9,-808.3 0.7,-5.6 1.4,-11.2 2,-16.8 l -116.3,-52.5 c 0,0 43.1,892 -841.6,877.6" /><path
             id="path72"
             style="fill:#8cb1d5;fill-opacity:1;fill-rule:nonzero;stroke:none"
             d="m 3664.79,876.82 c -22.83,22.231 -31.48,55.11 -36.74,86.442 -91.65,-25.262 -194.51,-41.953 -302.33,-38.403 -367.3,12.2 -590.2,187.301 -590.2,187.301 7.6,-174.801 125.4,-235.59 125.4,-235.59 0,0 -323,-307.808 -851.3,-136.808 -528.3,171.008 -570.1,718.298 -570.1,718.298 l -19,-117.8 c 0,0 -1051.399,-226.59 -1161.7,636.11 -110.402,862.7 752.2,1004.89 752.2,1004.89 7.5,215.31 173,393.9 221.6,441.8 -272.901,-77 -328.698,-421.4 -328.698,-421.4 -372.402,7.6 -936.3009,-282 -850.004,-1037.4 114.703,-1004.1 1391.602,-762.6 1391.602,-762.6 21.4,-115.49 67.7,-240.09 154.3,-364.801 318.8,-458.699 1149.4,-393.187 1341.3,0 91.7,-44.699 220.6,-78.898 399.6,-76.8 155.81,1.793 284.43,41.39 387.74,95.023 -22.31,-2.492 -45.04,3.598 -63.67,21.738" /><path
             id="path74"
             style="fill:#8cb1d5;fill-opacity:1;fill-rule:nonzero;stroke:none"
             d="m 6802.92,2230.36 c -8.1,-935.7 -1083.7,-821.1 -1083.7,-821.1 47.7,-96.8 141.2,-137.2 141.2,-137.2 0,0 -322.9,-456.091 -916.2,-480.298 -550.65,-22.551 -889.16,292.158 -935,337.538 8.76,-22.41 16.11,-45.28 20.73,-69.07 8.24,-42.47 13.11,-91.218 1.44,-134.488 288.66,-233.402 1196.24,-814.254 1996.83,316.418 644.4,-37.1 927.1,550.6 774.7,988.2" /><path
             id="path76"
             style="fill:#ffffff;fill-opacity:1;fill-rule:nonzero;stroke:none"
             d="m 5066.82,3645.16 c -42.4,120.2 -467.79,1351.12 -1681.19,1238.22 -1281,-119.2 -1379.31,-1460.32 -1379.31,-1460.32 -253.2,78.6 -439.4,-138.2 -439.4,-138.2 l 13.3,105.2 c 7.1,-2.7 14.3,-5.5 21.5,-8.5 h 0.1 c 39.9,102.7 141.1,197.2 390.2,138.5 l 1.7,0.1 c -14.5,297.2 52.5,984.9 895.1,1413.5 994.3,505.7 2104.3,-239.7 2178,-1288.5" /><path
             id="path78"
             style="fill:#8cb1d5;fill-opacity:1;fill-rule:nonzero;stroke:none"
             d="m 882.02,798.672 c -35.098,38.297 -26.321,56.078 -30.922,104.578 -4.7,8.602 -7.2,19.301 -6.403,32.102 5.36,77.308 23.453,151.178 46.883,223.648 -31.851,3.72 -64.223,9.91 -96.98,17.28 -50.563,11.38 -99.547,27.42 -146.118,48.47 -14.011,-72.34 -37.054,-191.32 -37.054,-191.39 3.898,-5.8 189.371,29.99 222.871,-225.508 0,0 119.801,-85 135.398,-201.903 15.602,-116.898 80.505,-161.097 80.505,-161.097 0,0 6.7,-78.602 -137.7,-26 -144.301,52.597 -234.602,230.796 -380.902,52 -146.2,-178.903 -50.301,-272 -167.2,-277.602 0,0 3.801,-63.5 39.7,-100.6992 8.601,-8.9024 19.101,-16.4024 31.797,-21 0.105,0 0.304,-0.1016 0.402,-0.1992 65.301,-23.7032 125.199,0.1992 125.199,0.1992 0,0 66.004,-44.6992 151.801,-28.4024 h 0.098 c 10.105,1.9024 20.402,4.7032 31.003,8.5039 7.2,2.5 14.598,5.5977 22,9.1993 0,0 7.2,-2.4024 19.098,-3.3008 0.102,0 0.102,0 0.102,0 19.5,-1.4024 51.5,1.0976 85.297,24.5 0.601,0.3984 1.3,0.8984 2.101,1.3984 3.602,2.6016 7.203,5.4024 10.902,8.5 0.2,0.1992 0.399,0.3008 0.598,0.5 39.801,34.1018 30.504,118.1018 20,169.9998 -5.199,25.699 -10.699,43.602 -10.699,43.602 0,0 158.303,7.199 179.603,63.199 3.7,9.902 6.8,29.5 9.3,55.199 -13.4,24.903 -66.58,50.321 -80.68,71.723 -60.098,91.199 -43.2,218.5 -120,302.5" /><path
             id="path80"
             style="fill:#8cb1d5;fill-opacity:1;fill-rule:nonzero;stroke:none"
             d="m 6378.64,470.852 c -146.3,178.796 -236.6,0.597 -380.9,-52 -144.4,-52.602 -137.7,26 -137.7,26 0,0 64.9,44.199 80.5,161.097 15.6,116.903 135.4,201.903 135.4,201.903 33.5,255.498 218.97,219.708 222.88,225.508 0,0.07 -28.98,132.38 -43.65,206.79 -79.43,-10.51 -159.39,-16.55 -239.56,-18.77 21.93,-77.76 44.99,-214.75 49.93,-286.028 0.8,-12.801 -1.7,-23.5 -6.4,-32.102 -4.6,-48.5 -30.2,-79.602 -65.3,-117.898 -76.8,-84 -56.2,-200.5 -116.3,-291.704 -14.1,-21.398 -36.6,-44.296 -50,-69.199 2.5,-25.699 5.6,-45.297 9.3,-55.199 21.3,-56 179.6,-63.199 179.6,-63.199 0,0 -5.5,-17.903 -10.7,-43.602 -10.5,-51.898 -19.8,-135.898 20,-169.9998 0.2,-0.1992 0.4,-0.3008 0.6,-0.5 3.7,-3.0976 7.3,-5.8984 10.9,-8.5 0.8,-0.5 1.5,-1 2.1,-1.3984 33.8,-23.4024 65.8,-25.9024 85.3,-24.5 0,0 0,0 0.1,0 11.9,0.8984 19.1,3.3008 19.1,3.3008 7.4,-3.6016 14.8,-6.6993 22,-9.1993 10.6,-3.8007 20.9,-6.6015 31,-8.5039 h 0.1 c 85.8,-16.2968 151.8,28.4024 151.8,28.4024 0,0 59.9,-23.9024 125.2,-0.1992 0.1,0.0976 0.3,0.1992 0.4,0.1992 12.7,4.5976 23.2,12.0976 31.8,21 35.9,37.1992 39.7,100.6992 39.7,100.6992 -116.9,5.602 -21,98.699 -167.2,277.602" /><path
             id="path82"
             style="fill:#100f0d;fill-opacity:1;fill-rule:nonzero;stroke:none"
             d="m 2348.35,2440.22 c -1.9,20.2 -3.1,40.7 -3.4,61.4 -0.2,4.8 -0.2,9.7 -0.2,14.5 0,359.2 237.6,651.5 529.7,651.5 292.1,0 529.7,-292.3 529.7,-651.5 0,-343.7 -217.5,-626.1 -492.2,-649.9 -12.4,-1.1 -24.9,-1.6 -37.5,-1.6 -7.5,0 -15,0.2 -22.5,0.6 -261,13.5 -473.8,260.4 -503.6,575 z m 512,-633.9 c 17.4,0 34.7,0.9 51.7,2.7 307,31.5 548,341.4 548,718.8 0,398.5 -268.5,721.5 -599.7,721.5 -331.2,0 -599.7,-323 -599.7,-721.5 0,-6 0.1,-12 0.3,-18 0.3,-20.3 1.4,-40.4 3.2,-60.3 17.8,-197.6 101.8,-371 224.9,-488 -44.9,5.7 -87.1,5.5 -122.9,2.1 -37.4,-3.7 -67.9,-10.7 -88.8,-17.1 -10.4,-2.9 -18.5,-6.1 -23.9,-8.2 -5.4,-2.1 -8.2,-3.5 -8.2,-3.5 0,0 3,-0.1 8.8,-0.4 5.8,-0.4 14.2,-0.9 24.9,-1.6 21.2,-1.7 51.2,-4.6 86.4,-9.6 17.6,-2.6 36.6,-5.5 56.3,-9.5 19.8,-3.6 40.5,-8.4 61.6,-13.7 21,-5.4 42.5,-11.6 64.1,-18.7 10.8,-3.3 21.3,-7.8 32.2,-11.3 10.6,-4.3 21.4,-8.1 31.9,-12.8 10.5,-4.6 21.2,-8.8 31.4,-14 5.1,-2.5 10.2,-4.9 15.4,-7.3 5.1,-2.6 10.1,-5.2 15.1,-7.8 10.1,-5.1 19.9,-10.6 29.5,-16.1 9.9,-5.2 19,-11.2 28.3,-16.9 9.4,-5.4 18.1,-11.6 26.9,-17.3 4.3,-2.9 8.7,-5.8 12.9,-8.6 4.2,-3.1 8.3,-6.1 12.3,-9 16.6,-11.4 31.3,-23.6 45.5,-34.3 4.2,-3.5 8.3,-6.9 12.2,-10.1 2.5,-2.2 5,-4.3 7.5,-6.3 3.2,-2.6 6.3,-5.1 9.3,-7.6 2.9,-2.5 5.7,-5 8.4,-7.5 9.6,-8.7 19,-16 26.3,-22.8 0.8,-0.8 1.7,-1.6 2.5,-2.4 7.6,-7.4 14.2,-12.8 18.5,-16.7 3.9,-3.3 6.2,-5.3 6.7,-5.7 -0.2,0.6 -1.4,3.4 -3.4,8 -2.5,5.3 -5.8,13.2 -10.8,22.9 -2.3,4.9 -5.2,10.2 -8.4,15.9 -3.2,5.7 -6.9,11.8 -10.8,18.3 -7.5,13.3 -18,26.8 -28.9,42.2 -3,3.7 -6.1,7.5 -9.2,11.3 -9.3,11.3 -19.3,23.2 -30.9,34.6 -2.9,3 -5.9,6.1 -8.9,9.2 14.3,-1.5 28.6,-2.5 43.1,-2.8 2.8,-0.1 5.6,-0.1 8.4,-0.1" /><path
             id="path84"
             style="fill:#100f0d;fill-opacity:1;fill-rule:nonzero;stroke:none"
             d="m 4275.55,1948.22 c -2.5,-0.7 -4.9,-1.3 -7.4,-1.9 -12.1,-3.2 -24.1,-7.1 -36.2,-11 -11.8,-4.5 -23.9,-8.6 -35.6,-13.6 -11.7,-5.2 -23.4,-10.1 -34.7,-16.1 -11.4,-5.5 -22.5,-11.6 -33.2,-18.2 -5.4,-3.2 -10.8,-6.2 -16.1,-9.6 -3.2,-2.2 -6.4,-4.4 -9.7,-6.6 -23.2,-4.3 -47,-6.6 -71.2,-6.6 -261.7,0 -474.6,262.5 -474.6,585.2 0,198.4 80.5,374 203.3,479.8 17.3,15.1 35.5,28.7 54.5,40.7 65,41.4 138.7,64.7 216.8,64.7 261.7,0 474.6,-262.5 474.6,-585.2 0,-4.5 0,-9 -0.2,-13.5 -0.3,-20.5 -1.5,-40.8 -3.6,-60.8 -13.7,-133.1 -63.9,-252.3 -137.7,-342 -14.9,-18.2 -30.8,-35.2 -47.6,-50.8 -13.3,-12.4 -27.1,-23.9 -41.4,-34.5 z m 305.9,-9.9 c -5.5,2.1 -13.5,5.3 -24,8.2 -3.7,1.1 -7.7,2.3 -12,3.4 -19.9,5.4 -46,10.7 -76.8,13.7 -28.8,2.7 -61.8,3.4 -96.9,0.6 14.4,14.9 28.2,30.6 41.2,47.2 78.5,99.8 131.2,229.2 145.2,372.8 2.1,20.5 3.3,41.2 3.6,62.2 0.2,5 0.2,10.1 0.2,15.1 0,361.9 -243.8,655.2 -544.6,655.2 -73.3,0 -143.1,-17.4 -206.9,-49 -20.8,-10.2 -40.9,-21.9 -60.2,-35.2 -165.7,-112.2 -277.5,-325.9 -277.5,-571 0,-361.8 243.8,-655.2 544.6,-655.2 2.1,0 4.1,0.2 6.1,0.2 -2.1,-2.1 -4.3,-4.3 -6.4,-6.5 -15.4,-15.3 -28.1,-31.4 -40,-45.9 -10.9,-15.4 -21.4,-28.9 -29,-42.2 -7.7,-13.1 -14.6,-24.3 -19.2,-34.2 -4.9,-9.7 -8.2,-17.6 -10.7,-22.9 -2,-4.6 -3.2,-7.4 -3.4,-8 0.5,0.4 2.8,2.4 6.7,5.7 4.3,3.9 10.8,9.3 18.5,16.7 7.5,7.5 18,15.4 28.8,25.2 2.7,2.5 5.5,5 8.4,7.5 3,2.5 6.1,5 9.3,7.6 6.2,5.2 12.8,10.6 19.7,16.4 14.2,10.7 28.9,22.9 45.4,34.3 4.1,2.9 8.2,5.9 12.3,9 4.3,2.8 8.6,5.7 13,8.6 8.8,5.7 17.4,11.9 26.9,17.3 9.2,5.7 18.4,11.7 28.2,16.9 9.7,5.5 19.4,11 29.5,16.1 3.1,1.6 6.2,3.2 9.2,4.7 24.8,8.8 48.8,19.6 72,32.2 4.2,1.7 8.5,3.3 12.7,5 10.9,3.5 21.4,8 32.2,11.3 21.5,7.1 43,13.3 64.1,18.7 21.1,5.3 41.7,10.1 61.5,13.7 19.8,4 38.7,6.9 56.3,9.5 35.3,5 65.3,7.9 86.5,9.6 10.7,0.7 19.1,1.2 24.8,1.6 5.8,0.3 8.9,0.4 8.9,0.4 0,0 -2.8,1.4 -8.2,3.5" /><path
             id="path86"
             style="fill:#100f0d;fill-opacity:1;fill-rule:nonzero;stroke:none"
             d="m 2329.01,3288.44 c 0,0 424.17,312.14 922.93,0 0,0 -136.21,347.13 -461.46,347.13 -367.73,0 -461.47,-347.13 -461.47,-347.13" /><path
             id="path88"
             style="fill:#100f0d;fill-opacity:1;fill-rule:nonzero;stroke:none"
             d="m 4565.35,3288.44 c 0,0 -424.16,312.14 -922.93,0 0,0 136.22,347.13 461.47,347.13 367.72,0 461.46,-347.13 461.46,-347.13" /><path
             id="path90"
             style="fill:#100f0d;fill-opacity:1;fill-rule:nonzero;stroke:none"
             d="m 2902.19,2314.53 c -329.29,0 -601.91,96.22 -618.99,102.37 l 23.72,65.86 c 6.08,-2.19 614.65,-216.48 1096.23,-0.99 l 28.6,-63.89 c -173.24,-77.52 -359.03,-103.35 -529.56,-103.35" /><path
             id="path92"
             style="fill:#100f0d;fill-opacity:1;fill-rule:nonzero;stroke:none"
             d="m 4130.68,2301.18 c -71.43,0 -148.88,6.2 -232.23,18.6 -215.81,32.1 -388.9,94.51 -396.17,97.16 l 23.92,65.78 c 6.81,-2.45 683.77,-244.28 986.6,-7.1 l 43.17,-55.1 c -101.42,-79.44 -243.94,-119.34 -425.29,-119.34" /><path
             id="path94"
             style="fill:#100f0d;fill-opacity:1;fill-rule:nonzero;stroke:none"
             d="m 3404.14,1535.06 c -108.75,0 -217.49,-22.66 -318.79,-67.99 -114.99,-51.36 -181.81,-113.82 -198.62,-185.64 -7.65,-32.73 -5.39,-55.91 6.71,-68.86 39.23,-42.01 185.06,-18.25 302.23,0.82 76.19,12.41 148.16,24.13 208.48,24.13 30.78,0 66.58,-2.62 109.21,-7.98 183.23,59.51 316.67,59 407.65,-1.54 0.94,-0.63 1.88,-1.25 2.8,-1.89 3.31,11.24 4.05,28.47 -2.24,55.33 -16.81,71.81 -83.63,134.26 -198.6,185.62 -101.31,45.33 -210.07,68 -318.83,68 z m 385.79,-511.52 c 12.08,0 24.61,-3.7 36.07,-11.03 38.61,-24.701 56.27,-81.51 47.28,-151.951 -5.75,-45.09 -0.8,-78.559 13.95,-94.227 11.35,-12.051 29.01,-13.582 41.84,-12.691 16.5,1.101 25.92,4.968 33.57,13.82 11.29,13.039 29.04,50.359 21.07,153.93 -7.26,94.239 -24.97,197.439 -101.47,248.319 -56.16,37.38 -140.91,43.76 -252.68,19.27 21.33,-26.5 51.48,-76.88 47.02,-146.19 -6,-92.892 1.72,-114.071 26.46,-127.161 5.92,-3.16 10.09,-2.981 15.38,0.652 11.71,8.008 19.72,27.348 17.88,43.09 -2.8,23.668 6.42,44.609 24.64,56.029 8.7,5.44 18.68,8.14 28.99,8.14 z m 133.42,-340.099 c -35.08,0 -65.71,12.207 -87.08,34.911 -30.22,32.097 -41.13,82.929 -32.42,151.078 3.16,24.761 1.91,43 -1.02,56.082 -6.88,-27.172 -22.93,-51.973 -44.86,-66.992 -26.8,-18.348 -58.74,-20.079 -87.69,-4.75 -73.53,38.91 -68.23,121.05 -63.56,193.53 3.41,52.73 -23.89,89.48 -36.39,103.39 -18.34,2.84 -38.51,5.88 -58.09,8.42 -43.15,5.66 -78.49,8.41 -108.09,8.41 -54.66,0 -123.91,-11.28 -197.22,-23.22 -154.24,-25.11 -299.89,-48.83 -364.65,20.48 -29.03,31.09 -37.01,75.7 -23.71,132.6 22.07,94.26 102.21,172.84 238.21,233.58 220.74,98.8 473.98,98.79 694.76,-0.01 135.98,-60.73 216.12,-139.31 238.19,-233.56 11.9,-50.84 7.58,-91.5 -12.78,-121.42 55.21,-70.71 70.26,-167.36 76.54,-249.208 7.68,-99.692 -4.73,-166.793 -37.93,-205.121 -29.76,-34.379 -68.96,-36.981 -81.84,-37.84 -3.49,-0.242 -6.95,-0.36 -10.37,-0.36" /><path
             id="path96"
             style="fill:#100f0d;fill-opacity:1;fill-rule:nonzero;stroke:none"
             d="m 4406.69,3961.46 353.31,157.26 37.99,-85.37 -105.08,-281.42 204.09,90.85 44.39,-99.72 -379.49,-168.91 -42.15,94.69 99.61,267.81 -168.28,-74.91 -44.39,99.72" /><path
             id="path98"
             style="fill:#100f0d;fill-opacity:1;fill-rule:nonzero;stroke:none"
             d="m 5158.94,4371.8 353.31,157.27 37.99,-85.37 -105.08,-281.41 204.09,90.84 44.39,-99.72 -379.49,-168.91 -42.15,94.69 99.61,267.81 -168.28,-74.91 -44.39,99.71" /><path
             id="path100"
             style="fill:#100f0d;fill-opacity:1;fill-rule:nonzero;stroke:none"
             d="m 5924.48,3869.7 384.51,-41.29 -9.97,-92.91 -232.13,-190.67 222.12,-23.86 -11.65,-108.52 -413.01,44.35 11.06,103.06 220.56,181.65 -183.14,19.66 11.65,108.53" /><path
             id="path102"
             style="fill:#100f0d;fill-opacity:1;fill-rule:nonzero;stroke:none"
             d="m 6705.8,2484.11 c -220.74,247.22 -469.22,266.65 -638.94,239.36 -47.26,344.25 -174.72,587.45 -379.36,723.12 -219.45,145.47 -463.4,124.58 -572.32,104.86 -6.36,513.15 -253.76,995.77 -679.49,1300.03 -470.62,336.36 -1056.49,382.06 -1567.21,122.25 -582.44,-296.29 -797.07,-716.83 -874.56,-1017.45 -37.94,-147.21 -47.75,-279.48 -46.92,-381.42 -135.17,21.93 -240.34,-0.29 -313.05,-66.46 -23.05,-20.98 -40.98,-44.84 -54.95,-69.87 -174.32,62.99 -325.31,59.91 -449.23,-9.47 C 954.617,3330.99 888.309,3130.32 867.57,3046.56 731.926,3043.13 576.676,3003.96 431.258,2918 245.313,2808.08 -56.7656,2537.35 9.26953,1959.12 39.7188,1692.54 152.117,1485.91 343.34,1344.99 c 237.301,-174.88 547.695,-214.45 780.17,-214.45 126.69,0 230.22,11.76 286.15,19.79 25.62,-108.42 72.96,-223.58 153.3,-339.158 174.62,-251.25 476.4,-339.082 726.8,-339.082 27.22,0 53.84,1.039 79.61,3.019 265.57,20.383 487.11,135.321 590.96,303.551 90.71,-37.191 209.71,-63.66 364.89,-63.66 5.3,0 10.68,0.039 16.07,0.102 219.69,2.546 387.49,75.449 508.81,160.089 -18.8,22.09 -30.08,52.649 -37.89,81.989 -5.38,-10.528 -25.08,-27.469 -32.31,-34.782 -28.8,-29.168 -61.83,-47.347 -103.41,-47.558 -3.51,-0.008 -6.8,0.301 -9.97,0.769 -90.38,-40.57 -198.71,-69.039 -326.28,-70.519 -5.1,-0.059 -10.08,-0.09 -15.1,-0.09 -446.11,0 -547.57,232.92 -551.72,242.95 0,0 -37.21,-145.7 105.72,-229.348 -90.56,-139.961 -283.55,-235.864 -516.66,-253.762 -363.07,-27.91 -612.89,135.5 -725.62,297.691 -125.21,180.149 -178.23,381.019 -157.6,597.029 15.55,162.71 69.37,273.57 69.91,274.68 0,0 -196.73,-200.15 -156.11,-495.12 -152.09,-20.66 -663.138,-67.22 -996.326,178.32 -170.277,125.48 -270.55,311.17 -298.0465,551.89 -25.8672,226.54 -11.1172,640.96 378.3715,871.19 243.929,144.19 521.687,143.57 639.131,60.29 0,0 -71.4,133.56 -156.206,142.33 22.336,78.96 81.326,233.5 214.196,307.63 99.47,55.5 224.5,56.67 371.96,3.89 -13.33,-146.16 78.98,-201.04 78.98,-201.04 -0.22,1.61 -22.22,204.83 69.4,288.21 54.36,49.47 140.55,63.14 256.27,40.96 10.31,-110.6 98.23,-167.23 98.23,-167.23 -0.53,2.39 -46.74,312.55 32.06,618.26 105.98,411.15 384.63,734.04 828.21,959.7 480.21,244.28 1031.27,201.21 1474.07,-115.26 467.39,-334.04 720.81,-936.36 626.98,-1531.47 0,0 104.12,119.44 103.49,212.62 82.99,16.94 318.98,48.03 523.93,-87.84 183.53,-121.67 298.1,-346.14 340.93,-667.45 -134.15,-37.14 -177.44,-174.74 -177.44,-174.74 1.18,0.79 119.91,80.15 282.6,105.66 213.29,33.43 400,-37.49 554.82,-210.87 191.64,-214.61 213.38,-559.55 51.68,-820.2 -83.44,-134.52 -338.43,-430.66 -902.43,-275.39 0,0 98.46,-115.77 157.55,-123.21 -273.91,-362.55 -583.83,-560.679 -922.11,-588.999 -465.91,-38.98 -863,257.781 -1001.05,375.879 0.73,-4.941 1.47,-9.879 1.92,-14.891 2.83,-31.64 -4.16,-63.289 -20.15,-87.929 162.33,-131.828 510.65,-366.649 932.94,-366.649 30.66,0 61.75,1.239 93.14,3.848 379.47,31.512 722.83,257.101 1020.93,670.321 10.76,-0.33 21.51,-0.58 32.15,-0.58 293.33,0 537.89,125.29 683.59,360.15 182.25,293.79 156.58,683.9 -61.03,927.59" /><path
             id="path104"
             style="fill:#100f0d;fill-opacity:1;fill-rule:nonzero;stroke:none"
             d="m 1052.33,489.77 c -30.73,19.582 -59.748,38.082 -60.725,131.269 -1.476,139.75 -66.804,198.481 -120.835,217.012 -0.942,61.91 2.785,210.389 50.32,362.819 -26.289,5.12 -52.485,10.75 -78.598,16.85 -63.926,-209.41 -51.187,-405.56 -50.484,-415.49 l 1.832,-36.789 36.906,-0.351 c 8.125,-0.418 79.422,-8.051 80.859,-144.891 1.442,-136.519 59.379,-173.449 97.715,-197.89 21.08,-13.43 24.78,-17.059 26.41,-25.887 1.62,-8.84 -9.97,-28.461 -35.972,-42.293 -43.289,-23.02 -113.903,-23.699 -182.305,43.363 -64.238,62.988 -73.754,104.598 -74.844,110.68 l 1.223,29.859 -32.844,7.028 c -6.105,1.312 -61.152,11.781 -106.23,-24.657 -33.32,-26.941 -50.215,-70.101 -50.215,-128.312 0,-29.711 2.297,-60.481 4.516,-90.231 10.578,-141.629 2.574,-187.179 -68.02,-196.23 -25.351,-3.27 -44.996,2.363 -61.773,17.641 -49.914,45.472 -64.086,164.171 -61.059,252.011 3.438,99.59 75.262,353.16 232.656,389.61 l 31.34,7.269 -0.367,32.16 c -0.035,3.059 -1.531,219.16 53.594,454.84 -22.016,6.38 -43.981,12.98 -65.918,19.66 -3.875,0.75 -7.703,1.61 -11.489,2.58 C 561.371,1085.2 553.313,903.832 552.035,833.559 374.922,767.52 292.809,510.012 288.254,378.031 286.414,324.691 287.27,144.422 375.387,64.1406 403.883,38.1797 439.07,24.7813 478.18,24.7813 c 7.539,0 15.226,0.5 23.035,1.5 157.137,20.1406 145.859,171.2307 137.625,281.5387 -2.113,28.289 -4.297,57.539 -4.297,84.27 0,22.379 3.496,51.961 20.141,65.789 5.214,4.34 11.308,6.793 17.129,8.113 11.125,-29.183 35.652,-72.691 89.636,-125.621 99.27,-97.32 207.598,-93.18 275.871,-56.871 54.78,29.129 85.75,80.34 77.08,127.422 -8.2,44.508 -39.34,64.359 -62.07,78.848" /><path
             id="path106"
             style="fill:#100f0d;fill-opacity:1;fill-rule:nonzero;stroke:none"
             d="M 643.039,0 C 598.148,0 551.813,15.5586 515.934,52.7695 l 57.597,55.5315 c 35.348,-36.6721 90.313,-34.5315 126.324,-13.4924 19.313,11.2814 49.524,37.4924 34.934,86.3634 -43.211,144.668 -0.363,217.527 4.66,225.367 l 67.324,-43.23 0.528,0.863 c -0.281,-0.5 -28.293,-51.524 4.137,-160.113 C 832.883,132.25 805.59,63.9219 740.207,25.7305 712.527,9.55859 678.219,0.0117188 643.039,0" /><path
             id="path108"
             style="fill:#100f0d;fill-opacity:1;fill-rule:nonzero;stroke:none"
             d="m 795.395,18.832 c -23.899,0 -49.071,5.5899 -74.446,16.8868 l 32.539,73.0822 c 22.91,-10.1994 55.5,-17.7697 80.602,4.121 20.5,17.859 29.84,49.957 22.207,76.32 -15.902,54.817 -12.141,99.238 -6.172,126.86 l 78.191,-16.883 C 925.031,283.988 921.285,252.352 933.137,211.5 949.508,154.949 930.824,91.1094 886.652,52.6094 860.934,30.1992 829.461,18.832 795.395,18.832" /><path
             id="path110"
             style="fill:#100f0d;fill-opacity:1;fill-rule:nonzero;stroke:none"
             d="m 6336.51,833.559 c -1.28,69.75 -9.24,248.971 -54.98,443.501 -26.77,-3.86 -53.62,-6.77 -80.55,-8.75 57.33,-239.2 55.76,-460.888 55.73,-463.99 l -0.37,-32.172 31.34,-7.257 c 157.39,-36.45 229.22,-290.02 232.65,-389.61 3.03,-87.84 -11.14,-206.539 -61.06,-252.011 -16.78,-15.278 -36.42,-20.918 -61.76,-17.641 -70.6,9.051 -78.61,54.601 -68.03,196.242 2.22,29.738 4.52,60.508 4.52,90.219 0,58.211 -16.9,101.371 -50.22,128.312 -45.08,36.438 -100.11,25.977 -106.23,24.657 l -32.84,-4.047 1.22,-32.832 c -1.07,-6.032 -10.56,-47.66 -74.84,-110.68 -68.41,-67.07 -139.02,-66.391 -182.31,-43.371 -26,13.832 -37.59,33.453 -35.97,42.293 1.63,8.828 5.33,12.457 26.41,25.887 38.34,24.441 96.28,61.371 97.72,197.89 1.43,136.84 72.73,144.473 80.07,144.871 l 36.91,0.352 2.61,36.808 c 0.76,10.649 15.39,235.54 -65.65,461.26 -28.43,-0.37 -57.1,-0.41 -85.68,0.51 68.53,-172.6 73.55,-355.441 72.54,-425.961 -54.03,-18.539 -119.33,-77.277 -120.8,-217 -0.98,-93.187 -30,-111.687 -60.73,-131.269 -22.73,-14.489 -53.87,-34.34 -62.07,-78.848 -8.67,-47.082 22.3,-98.293 77.08,-127.422 68.28,-36.32 176.61,-40.449 275.87,56.871 53.99,52.93 78.51,96.438 89.64,125.621 5.83,-1.332 11.92,-3.781 17.12,-8.113 16.65,-13.828 20.15,-43.41 20.15,-65.789 0,-26.731 -2.19,-55.981 -4.3,-84.27 -8.23,-110.308 -19.51,-261.3981 137.63,-281.5387 7.81,-1 15.49,-1.5 23.03,-1.5 39.11,0 74.3,13.3984 102.79,39.3593 88.12,80.2814 88.98,260.5504 87.14,313.8984 -4.56,131.973 -86.67,389.481 -263.78,455.52" /><path
             id="path112"
             style="fill:#100f0d;fill-opacity:1;fill-rule:nonzero;stroke:none"
             d="m 6245.5,0 c -35.19,0 -69.48,9.55859 -97.17,25.7305 -65.38,38.1914 -92.67,106.5195 -71.23,178.3285 32.48,108.773 4.96,158.8 4.67,159.25 l 67.32,43.23 c 5.02,-7.84 47.87,-80.699 4.66,-225.367 -14.59,-48.871 15.62,-75.082 34.93,-86.3634 36.02,-21.0391 90.99,-23.168 126.33,13.4924 L 6372.6,52.7695 C 6336.73,15.5586 6290.39,0 6245.5,0" /><path
             id="path114"
             style="fill:#100f0d;fill-opacity:1;fill-rule:nonzero;stroke:none"
             d="m 6093.15,18.832 c -34.08,0 -65.54,11.3594 -91.26,33.7774 -44.17,38.5 -62.86,102.3396 -46.49,158.8706 11.85,40.86 8.11,72.508 4.82,87.739 l 78.2,16.883 c 5.96,-27.622 9.73,-72.051 -6.19,-126.891 -7.62,-26.332 1.72,-58.43 22.22,-76.289 25.1,-21.8712 57.69,-14.3204 80.6,-4.121 l 32.54,-73.0822 C 6142.22,24.4219 6117.04,18.832 6093.15,18.832" /></g></g></g></g></svg>