<?xml version="1.0" encoding="UTF-8" standalone="no"?>
<svg
   xmlns:dc="http://purl.org/dc/elements/1.1/"
   xmlns:cc="http://creativecommons.org/ns#"
   xmlns:rdf="http://www.w3.org/1999/02/22-rdf-syntax-ns#"
   xmlns:svg="http://www.w3.org/2000/svg"
   xmlns="http://www.w3.org/2000/svg"
   viewBox="0 0 1422.5601 1154.6667"
   height="1154.6667"
   width="1422.5601"
   xml:space="preserve"
   id="svg2"
   version="1.1"><metadata
     id="metadata8"><rdf:RDF><cc:Work
         rdf:about=""><dc:format>image/svg+xml</dc:format><dc:type
           rdf:resource="http://purl.org/dc/dcmitype/StillImage" /></cc:Work></rdf:RDF></metadata><defs
     id="defs6" /><g
     transform="matrix(1.3333333,0,0,-1.3333333,0,1154.6667)"
     id="g10"><g
       transform="scale(0.1)"
       id="g12"><path
         id="path14"
         style="fill:#b88630;fill-opacity:1;fill-rule:nonzero;stroke:none"
         d="m 10586.7,6147.51 -0.2,0.16 c -17.1,339.37 38.7,1743.82 60.4,2261.47 4.3,102.72 -79,187.61 -181.7,185.61 -451.6,-8.82 -1540.46,-2.93 -2724.41,6.96 -362.01,3.13 -732.75,6.56 -1097.11,10 -1183.65,11.38 -2297.29,23.47 -2808.77,25.76 -106.2,0.48 -192.96,-84.26 -195,-190.44 -9.84,-511.57 -10.47,-1788.93 -14.72,-2087.14 -11.47,-50.74 -0.26,-746.37 0,-770 0.47,-52.5 -0.63,-130.32 0,-200 5.2,-472.54 -0.86,-1269.85 1.51,-1672.87 0.56,-93.87 75.52,-170.22 169.38,-172.49 388.13,-9.39 1151.43,-14.65 2032.19,-17.3 179.52,-0.47 363.88,-0.94 550.9,-1.25 422.48,-0.63 858.85,-0.78 1283.82,-0.78 203.73,0.15 404.82,0.31 600.42,0.46 916.94,1.19 1715.64,3.7 2111.39,6.14 99.3,0.62 179.5,80.82 180.2,180.08 2.3,360.33 25,1122.21 27.6,1581.95 0.3,63.75 4.1,853.68 4.1,853.68" /><path
         id="path16"
         style="fill:#2c3e3c;fill-opacity:1;fill-rule:nonzero;stroke:none"
         d="m 9662.3,8402.33 c -976.77,0 -2609.99,15.88 -3907.29,28.49 -888.37,8.63 -1657.84,16.11 -1936.4,15.69 -11.84,-563.62 -23.26,-4127.37 -19.5,-4728.7 846.72,-31.65 5780.69,-22.14 6562.49,-15.41 12.7,242.57 111.6,4086.05 93.6,4708.75 -117.4,-6.29 -402.8,-8.82 -792.9,-8.82" /><path
         id="path18"
         style="fill:#76909d;fill-opacity:1;fill-rule:nonzero;stroke:none"
         d="m 5623.36,6729.22 c 21.6,-125.8 -1371,-1341.7 -1426.1,-1404.1 -53.3,18.6 -125.8,15.8 -102.7,-54.9 11.2,-34.4 82.6,-54 77.3,-94.1 l -1.4,-3.5 c -37.1,14.7 -86.8,16.2 -119.8,14 -129.8,-8.5 -128.4,-92.9 -28.6,-105.5 -20.7,3.1 -92.7,0.8 -108.1,-21.4 -91.9,-37.7 -42.1,67.5 -15.8,103 36.8,49.7 87,109.5 133.1,152.4 28.7,26.7 57.4,54 86.1,81.5 101.6,97.4 203.3,198.1 306.6,291 195.9,176.1 761.3,677.5 848,748.8 18,14.8 316.8,293 329.3,300.1 22.3,12.9 19.9,-10.1 22.1,-7.3" /><path
         id="path20"
         style="fill:#f6c8aa;fill-opacity:1;fill-rule:nonzero;stroke:none"
         d="m 4227.16,5311.12 c 73.4,-46.5 108.5,-180.8 0,-185 l -6.8,-2.6 c -5.3,13.9 -13.3,26.3 -22.7,33.8 -7.7,6.2 -17,11.3 -27.2,15.3 l 1.4,3.5 c 5.3,40.1 -66.1,59.7 -77.3,94.1 -23.1,70.7 49.4,73.5 102.7,54.9 11.2,-3.8 21.5,-8.7 29.9,-14" /><path
         id="path22"
         style="fill:#f6c8aa;fill-opacity:1;fill-rule:nonzero;stroke:none"
         d="m 4220.36,5123.52 c 13.1,-34.6 9.4,-79.2 -30.2,-85.8 -1.9,-0.2 -3.7,-0.5 -5.7,-0.6 0,0 -62.6,31.5 -162.4,44 -99.8,12.6 -101.2,97 28.6,105.5 33,2.2 82.7,0.7 119.8,-14 10.2,-4 19.5,-9.1 27.2,-15.3 9.4,-7.5 17.4,-19.9 22.7,-33.8" /><path
         id="path24"
         style="fill:#f6c8aa;fill-opacity:1;fill-rule:nonzero;stroke:none"
         d="m 4165.16,4970.02 c -34.5,-11 -88,-4.2 -112.3,-0.7 -34,4.9 -67.1,13.1 -100.8,19.9 -1.8,0.3 -3.5,0.7 -5.2,1.2 -32,8.5 -56.4,35.6 -32.9,69.3 15.4,22.2 87.4,24.5 108.1,21.4 99.8,-12.5 162.4,-44 162.4,-44 2,0.1 3.8,0.4 5.7,0.6 l 1.7,-7.9 c 13.2,-34.6 -1.8,-51.8 -26.7,-59.8" /><path
         id="path26"
         style="fill:#f6c8aa;fill-opacity:1;fill-rule:nonzero;stroke:none"
         d="m 4121.86,5499.92 c 35.2,-21.3 30.5,-69.6 -4.5,-103.3 -28.7,-27.5 -57.4,-54.8 -86.1,-81.5 -46.1,-42.9 -96.3,-102.7 -133.1,-152.4 -26.3,-35.5 -76.1,-140.7 15.8,-103 -23.5,-33.7 0.9,-60.8 32.9,-69.3 v -0.1 c -53.8,5.4 -70.9,-53.6 -17.4,-83.2 l -0.1,-4.4 c -8.9,-14.8 -36.2,-7.9 -53.3,-11.6 l -5.7,-3.3 c -48.4,83 -111.4,173.3 -140.7,265.2 18.5,49.9 7.4,122.3 48.2,176.7 41.1,54.7 100.9,63.4 157,88.3 65.8,29.2 135.9,112.8 187,81.9" /><path
         id="path28"
         style="fill:#f6c8aa;fill-opacity:1;fill-rule:nonzero;stroke:none"
         d="m 4052.86,4969.32 c 24.3,-3.5 77.8,-10.3 112.3,0.7 -29,-90.2 -104.8,-82.2 -170.8,-78.9 -28.1,1.4 -49.4,7.5 -64.9,16 -53.5,29.6 -36.4,88.6 17.4,83.2 v 0.1 c 1.7,-0.5 3.4,-0.9 5.2,-1.2 33.7,-6.8 66.8,-15 100.8,-19.9" /><path
         id="path30"
         style="fill:#f8f9fa;fill-opacity:1;fill-rule:nonzero;stroke:none"
         d="m 908.559,5296.02 -17.301,4.5 c -272.297,-133.1 -470.797,-485.7 -473.199,-781.2 -1.899,-224.5 101.5,-400.1 280.199,-526.7 11.601,-8.2 16.402,-21.1 15.801,-37.3 -1.5,-47.8 -50.2,-123.4 -107.7,-184 -26.601,-28 -55.101,-52.8 -81.699,-70.2 -59.402,-38.8 -256.801,187.6 -287.101,225.7 -81.301,102.2 -138.8012,221.2 -178.1996,345.2 -146.3985,461.4 138.4996,990.2 501.6996,1267.9 175.402,134.1 247.199,181.5 566.401,269.6 14.3,-64.3 241.2,-241.1 314.9,-255.9 47.1,36.5 64.8,135.3 101.3,189.8 l 4.6,-0.4 c -5.6,-25.2 -0.1,-90.4 57.9,-172.9 l -4.7,-7.6 c -139.1,-530.9 -189,-1219.2 -198.5,-1318 -3.8,-39.4 179.2,-269.8 230.1,-300.8 0,0 128.8,163.8 160.8,250.5 18,48.4 -77.3,1127.1 -65.3,1349.3 l -0.7,4.7 c 2.2,0.4 3.4,0.6 3.4,0.6 0,0 83.9,141 65.6,178.1 l 5.5,1.7 c 30.5,-58.1 37.5,-158.3 80.6,-199.5 74.7,6.8 220.7,151.3 241.7,213.6 4.5,13.5 -2.1,35.9 -14,60.3 l 18.1,0.1 c 642.6,-81.7 430.2,-933.2 1025.3,-860.2 108.9,13.3 227.8,49.5 339.8,98.2 83.5,36.3 163.1,79.4 231.8,125.2 1.2,-4.4 2.6,-8.9 4,-13.3 29.3,-91.9 92.3,-182.2 140.7,-265.2 3.1,-5.3 6.1,-10.6 9.1,-15.9 -117.1,-110.1 -203.2,-159.8 -341,-223.9 -14.2,-6.6 -29.1,-12.9 -44.6,-18.7 -158.8,-60.4 -377.4,-81.7 -533.8,-59 -347.5,50.6 -605.3,337.3 -715.5,654.9 7,-43.7 13.6,-84.6 19.8,-123.1 l 16,-99.9 c 45,-284 62,-416.5 61.8,-549.6 l -29.1,-393.2 c -11.3,-106.9 -25,-240.7 -39.8,-420.4 -288,0 -991.4,-75.8 -1369.1,62.1 -32.601,53.6 -47.699,122.7 -56.902,191.9 -6.899,51.8 -10.5,103.7 -15.598,149.3 -16.5,145.6 -24.601,292.7 -24,439.2 1,273.8 31.699,549.3 100.899,814.5" /><path
         id="path32"
         style="fill:#373737;fill-opacity:1;fill-rule:nonzero;stroke:none"
         d="m 2032.86,365.32 c 17.4,8.7 37,16.301 58.5,22.801 226.1,68.199 650.5,11.199 689.4,-194 62.2,-327.902 -782,-107.4999 -960.2,-25.301 -6.3,53.5 11.9,139 32.1,189.602 15.9,0.297 32.4,2.098 49.2,4.699 0,0 0,0.102 0.1,0 44.7,1.598 96.5,1.199 130.9,2.199" /><path
         id="path34"
         style="fill:#1e3860;fill-opacity:1;fill-rule:nonzero;stroke:none"
         d="m 1808.96,3310.42 c -133.4,68.6 -282.4,-10.4 -329.4,-58.2 -179.2,-182.4 -375.4,-813.8 -346.6,-1313.6 35.9,-621.8 356.2,-1280.8 309.3,-1564.698 -3.7,-0.902 -7.3,-1.801 -10.9,-2.602 -21.5,-2.398 -45,-6.199 -68.8,-10.398 -87,-5.402 -158.2,20.699 -252.5,54.598 -74.9,500.199 -311.4,937.9 -407.099,1438.9 -84.102,440.4 206.098,1214.5 210.398,1701 0.5,52.1 -2.3,100.9 -9.199,145.7 377.7,-137.9 1081.1,-62.1 1369.1,-62.1 27.5,-271.5 69.3,-569.9 70.2,-762.9 4.4,-863.5 19.5,-1572.9 -252.1,-2487.999 -59.7,5.199 -126.6,-15.301 -189.4,-25 -0.1,0.102 -0.1,0 -0.1,0 -17.8,-0.5 -34.5,-1.5 -48.5,-2.902 -0.2,-0.598 -0.5,-1.199 -0.7,-1.797 -11.4,-0.301 -22.6,0.297 -33.5,1.797 -44.5,173.101 98.9,1267.501 98.9,1504.501 0,473.5 120.8,924.2 -111.4,1441.2 l 2.3,4.5" /><path
         id="path36"
         style="fill:#261813;fill-opacity:1;fill-rule:nonzero;stroke:none"
         d="m 2337.06,7572.22 c -21.6,-27.5 -68.3,-77.6 -84.6,-94.6 -30.9,-32 -63.3,-62.4 -97.8,-90.4 -20,-16.3 -40.7,-31.9 -62,-46.6 -51.6,-35.7 -107,-66.1 -165.5,-88.5 -214.1,-81.9 -459.3,-65.9 -682.9,-41.8 -85.1,9.1 -170.3,19.1 -255.1,30.7 70.2,-379.1 226.7,-467 -8.101,-610 l -46.2,-1.5 c -157.699,216.9 -421.101,730.9 -140.8,870.3 -10.2,312.6 461.401,352.2 683.401,342.1 187,-8.6 538.6,-45.9 498.7,246 116.4,-88.1 153.7,-203.5 90.4,-339.4 85.6,81.3 140.4,171.3 207.3,265.7 55.3,-115.3 -101.4,-394.6 -202.9,-464.4 79.3,-39.6 181.2,7.5 266.1,22.4" /><path
         id="path38"
         style="fill:#f6c8aa;fill-opacity:1;fill-rule:nonzero;stroke:none"
         d="m 1470.46,6836.72 c 82.7,-28.4 8.6,180.4 -30.4,121.4 -6.5,-9.8 -5.8,-31.2 -4.9,-42.2 1.8,-22.1 10,-70.6 35.3,-79.2 z m 539.3,67.3 c 82.7,-28.4 8.6,180.4 -30.4,121.4 -6.5,-9.8 -5.8,-31.2 -4.9,-42.2 1.8,-22.1 10,-70.5 35.3,-79.2 z m -1028.1,-293.7 -0.601,20.7 c 234.801,143 78.301,230.9 8.101,610 84.8,-11.6 170,-21.6 255.1,-30.7 223.6,-24.1 468.8,-40.1 682.9,41.8 58.5,22.4 113.9,52.8 165.5,88.5 l 2.9,-4.2 26.4,-37.7 c 539.4,-881.3 -463,-2261.4 -1035.8,-927.5 -95.601,1.1 -153.199,2.8 -177.699,31.7 -24.602,28.9 -52.301,138.7 20.598,195 18,8.9 35.902,12.3 52.601,12.4" /><path
         id="path40"
         style="fill:#f8f9fa;fill-opacity:1;fill-rule:nonzero;stroke:none"
         d="m 2110.66,5803.02 c 11.9,-24.4 18.5,-46.8 14,-60.3 -21,-62.3 -167,-206.8 -241.7,-213.6 -43.1,41.2 -50.1,141.4 -80.6,199.5 150.6,52.5 186.9,88.1 231.1,185 20.8,-19.9 56.7,-68.3 77.2,-110.6" /><path
         id="path42"
         style="fill:#e6e5e6;fill-opacity:1;fill-rule:nonzero;stroke:none"
         d="m 1979.36,7025.42 c 39,59 113.1,-149.8 30.4,-121.4 -25.3,8.7 -33.5,57.1 -35.3,79.2 -0.9,11 -1.6,32.4 4.9,42.2" /><path
         id="path44"
         style="fill:#e62030;fill-opacity:1;fill-rule:nonzero;stroke:none"
         d="m 1796.86,5726.92 c 18.3,-37.1 -65.6,-178.1 -65.6,-178.1 0,0 -1.2,-0.2 -3.4,-0.6 -12.9,-2.2 -61.1,-9 -106,0.8 -5.6,7.2 -10.9,14.2 -15.7,21.1 -58,82.5 -63.5,147.7 -57.9,172.9 1.1,4.7 2.6,8.1 4.2,9.9 36,40.1 216.4,8.3 242.3,-22.7 0.8,-1 1.5,-2.1 2.1,-3.3" /><path
         id="path46"
         style="fill:#e62030;fill-opacity:1;fill-rule:nonzero;stroke:none"
         d="m 1728.56,5543.52 c -12,-222.2 83.3,-1300.9 65.3,-1349.3 -32,-86.7 -160.8,-250.5 -160.8,-250.5 -50.9,31 -233.9,261.4 -230.1,300.8 9.5,98.8 59.4,787.1 198.5,1318 l 4.7,7.6 c 4.8,-6.9 10.1,-13.9 15.7,-21.1 44.9,-9.8 93.1,-3 106,-0.8 l 0.7,-4.7" /><path
         id="path48"
         style="fill:#f8f9fa;fill-opacity:1;fill-rule:nonzero;stroke:none"
         d="m 1543.66,5743.42 c -36.5,-54.5 -54.2,-153.3 -101.3,-189.8 -73.7,14.8 -300.6,191.6 -314.9,255.9 -8.4,37.8 109.6,147.1 145.6,174.9 33.7,-101.1 126.4,-172.8 270.6,-241" /><path
         id="path50"
         style="fill:#e6e5e6;fill-opacity:1;fill-rule:nonzero;stroke:none"
         d="m 1440.06,6958.12 c 39,59 113.1,-149.8 30.4,-121.4 -25.3,8.6 -33.5,57.1 -35.3,79.2 -0.9,11 -1.6,32.4 4.9,42.2" /><path
         id="path52"
         style="fill:#373737;fill-opacity:1;fill-rule:nonzero;stroke:none"
         d="m 1228.06,336.82 0.1,0.102 c 34.9,4.598 85.1,15.297 134.4,24 21.7,1.297 44.4,4.598 68.8,10.398 9.8,1.102 19.1,1.903 27.8,2.301 14.4,-56.801 40.2,-140 25.8,-196.801 -209,-32 -899.101,-264.6013 -955.601,-46.898 -70.398,271.5 453.7,415.297 698.701,206.898" /><path
         id="path54"
         style="fill:#f6c8aa;fill-opacity:1;fill-rule:nonzero;stroke:none"
         d="m 712.359,3712.02 2.399,2.9 c -23.199,20 -54.199,35.6 -98.699,50.3 l -9.7,6.1 c 57.5,60.6 106.2,136.2 107.7,184 h 0.101 c 70.199,-44.7 74.801,-17.3 119.098,-64.2 l 14,1.9 c 9.203,-69.2 24.301,-138.3 56.902,-191.9 6.899,-44.8 9.699,-93.6 9.199,-145.7 l -8.398,0.1 c -19.801,-152 -241.301,-149.3 -316.703,-31.2 -94,147.3 83.203,204.6 113.101,194.1 4.2,-1.5 7.801,-3.6 11,-6.4" /><path
         id="path56"
         style="fill:#4d251e;fill-opacity:1;fill-rule:nonzero;stroke:none"
         d="m 2274.85,8006.82 c -3.52,-1.28 -6.33,-4.59 -6.09,-9.34 -1.55,-1.85 -2.66,-4.02 -3.73,-6.25 -1.82,-0.92 -3.68,-2.43 -4.17,-5.06 -12.08,-66.16 -46.97,-125.35 -92.67,-176.92 -40.9,-46.12 -77.5,-88.57 -142.46,-102.19 7.54,14.25 23.67,101.58 23.98,117.47 1.25,13.63 1.27,27.56 1.1,41 -0.77,63.68 -9.65,125 -39.14,181.1 -0.63,1.18 -1.57,2.08 -2.58,2.87 l -0.22,0.96 c -2.4,11.22 -19.84,7.48 -17.42,-3.75 l 1.21,-5.61 c -0.15,-2.77 -0.19,-5.53 -0.06,-8.21 -1.25,-1.73 -1.87,-4 -1.29,-6.72 0.45,-2.11 0.82,-4.15 1.16,-6.2 0.09,-0.77 0.17,-1.57 0.27,-2.34 0.23,-2.29 0.35,-4.58 -0.06,-6.98 -0.29,-1.94 0.12,-3.45 0.72,-4.98 0.88,-34.17 -3.9,-69.63 -18.26,-100.9 -16.48,-35.88 -53.26,-75.21 -84.63,-98.56 -34.18,-25.46 -74.8,-36.24 -116.85,-38.88 -25.69,-1.6 -51.68,-0.96 -77.38,0.35 -110.67,5.66 -225.71,0.41 -336.76,-0.76 -93.44,-0.99 -183.15,-6.18 -275.96,-16.72 -9.06,-1.04 -17.68,-2.79 -26.02,-4.97 -32.18,-2.3 -62.185,-12.05 -94.392,-28.94 -77.578,-40.66 -113.75,-127.71 -114.043,-211.6 -1.64,-4.37 -3.515,-8.52 -4.941,-13.08 -10.312,-12.26 -21.406,-22.93 -33.769,-31.03 -60.04,-39.45 -87.325,-111 -89.356,-178.22 -2.207,-71.19 13.379,-143.65 33.027,-211.59 16.954,-69.7 41.817,-138.5 68.247,-205.56 19.246,-48.85 44.472,-94.97 67.312,-142.16 11.414,-23.6 22.328,-47.47 31.527,-72.03 9.028,-24.1 15.121,-39.81 45.153,-34.18 18.472,3.47 35.525,27.86 49.085,40.19 35,31.82 71.73,58.75 80.85,107.9 12.22,65.85 -3.22,131.4 -24.4,193.68 -17.68,51.99 -36.28,103.67 -54,155.65 -11.93,35.02 -45.235,96.34 -26.262,132.57 46.132,-3.85 92.552,-16.2 138.562,-22.7 110.64,-15.63 222.16,-25.14 333.86,-28.22 107.41,-2.97 210.03,3.69 316.1,20.09 81.91,12.67 171.48,45 244.33,84.12 39.63,21.28 76.28,47.61 111.35,75.67 23.86,19.1 45.04,34.78 66.2,57.28 25.1,26.69 50.19,53.37 75.29,80.05 9.18,9.76 47.18,40.57 21.59,52.77 -11.47,5.45 -21.73,-4.61 -30.85,-10 -11.44,-6.75 -20.66,-10.2 -34.2,-12.65 -26.53,-4.82 -52.95,-2.5 -79.46,-5.38 -20.52,-2.22 -37.98,-7.15 -58.99,-0.16 -19.42,6.45 -18.19,10.04 -8.11,26.07 1.41,-0.24 62.74,44.01 103.6,111.21 53.96,88.75 82.39,192.53 99.15,294.19 1.35,8.22 3.49,47.16 -15.15,37.65" /><path
         id="path58"
         style="fill:#232e2c;fill-opacity:1;fill-rule:nonzero;stroke:none"
         d="m 10458.5,8400.9 c -437.1,-20.56 -2859.56,2.84 -4641.95,20.07 -879.07,8.5 -1640.51,15.87 -1918.24,15.47 0.03,1.61 0.06,3.08 0.1,4.66 h -58.58 c -6.79,-307.26 -14.8,-1824.29 -18.88,-3068.73 1.3,1.09 2.51,2.23 3.98,3.24 10.6,7.26 20.08,14.43 31.67,20 7.28,3.49 14.98,4.76 22.48,4.31 3.61,1202.58 10.86,2642.02 17.96,2977.97 276.06,0.41 1038.59,-6.96 1918.94,-15.46 1285.62,-12.43 2904.12,-28.08 3872.09,-28.08 366.33,0 639.43,2.24 766.03,7.75 -6.2,18.97 -4.5,40.74 4.4,58.8" /><path
         id="path60"
         style="fill:#232e2c;fill-opacity:1;fill-rule:nonzero;stroke:none"
         d="m 3877.69,4866.77 c -16.79,-15.53 -36.78,-27.82 -58.31,-37.33 -1.25,-506.78 -1.53,-913.02 -0.41,-1084.05 h 58.56 c -1.17,177.81 -0.98,599.59 0.16,1121.38" /><path
         id="path62"
         style="fill:#a05d1d;fill-opacity:1;fill-rule:nonzero;stroke:none"
         d="m 10637.8,8434.22 c 0.1,19.51 -60.2,144.36 -82.1,144.52 -924.57,6.89 -2761.45,24.49 -2761.47,23.44 -971.71,5.85 -3079.62,32.68 -3937.22,39.06 -34,0.25 -161.81,-40.06 -160.14,-66.4 -10.58,-10.54 -62.7,-146.66 -62.5,-160.14 3.65,-248.41 18.29,-1984.82 12.45,-3290.16 27.28,19.64 54.67,38.9 76.48,65.02 1.03,1226.92 10.13,2984.65 8.22,3114.48 -4.37,298.23 264.6,247.16 559.42,244.97 748.3,-5.58 3602.59,-43.78 3602.62,-43.39 724.59,-9.41 1450.64,-2.42 2217.24,6.63 339.5,4 423.7,-22.24 444.5,-245.97 l -50.8,-3917.69 c -23.5,-721.31 42.9,-699.17 -382.3,-710.9 -703.91,-19.42 -5337.84,-26.16 -6062.82,-13.17 -389.92,7 -323.91,233.19 -330.61,421.45 -3.43,96.44 -5.02,360.1 -5.44,711.97 -3.33,-2.57 -6.56,-5.24 -9.96,-7.71 -18.99,-21.43 -39.51,-38.58 -69.33,-45.72 -4.41,-483.03 -12.81,-858.67 -27.34,-996.66 -2.05,-19.46 145.96,-167.83 166.09,-167.81 939.7,0.58 3055.86,2.68 4007.82,3.33 v -11.09 c 855.43,0.74 1712.03,1.47 2586.59,2.01 26.2,0.01 166.6,66.45 166.8,99.49 4.2,753.41 37.8,1247.24 26.7,2015.68 l 17.6,519.3 c -6.7,555.14 46.4,1709 49.5,2265.46" /><path
         id="path64"
         style="fill:#272525;fill-opacity:1;fill-rule:nonzero;stroke:none"
         d="M 1474.12,226.629 C 1199.3,146.922 843.645,61.0703 557.844,89.5117 525.723,92.7109 613.852,56.7188 645.836,53.5391 935.57,24.7109 1198.2,90.5625 1472.9,187.18 c 29.96,10.539 32.18,48.429 1.22,39.449" /><path
         id="path66"
         style="fill:#47474a;fill-opacity:1;fill-rule:nonzero;stroke:none"
         d="m 833.316,422.371 c -129.886,0.231 -331.765,-136.562 -295.73,-280.18 2.906,-11.589 12.801,-28.859 12.855,-20.699 0.743,112.719 143.164,235.637 266.039,277.129 8.813,2.969 24.364,23.738 16.836,23.75" /><path
         id="path68"
         style="fill:#272525;fill-opacity:1;fill-rule:nonzero;stroke:none"
         d="M 2657.66,63.1602 C 2362.36,50.8711 2105.2,135.941 1824.34,217.27 c 0,0 -26.11,-49.372 5.27,-56.719 285.39,-66.8401 611.72,-173.8791 865.84,-108.969 48.12,12.2969 -5.55,12.9297 -37.79,11.5782" /><path
         id="path70"
         style="fill:#47474a;fill-opacity:1;fill-rule:nonzero;stroke:none"
         d="m 2591.85,378.23 c -9.18,4.2 -63.75,-11.468 -57.52,-14.32 104.63,-47.969 258.32,-159.008 184.8,-284.0389 -9.84,-16.7188 26.38,-2.9297 31.06,5.0195 76.87,130.7384 -43.35,240.6214 -158.34,293.3394" /><path
         id="path72"
         style="fill:#272525;fill-opacity:1;fill-rule:nonzero;stroke:none"
         d="m 1998.52,356.563 c -0.68,0.617 -0.43,12.808 -33.33,3.328 -38.39,8.988 -74.82,-3.121 -113.63,-10 -13.41,-2.391 -39.74,-42.821 -20.52,-39.411 31.79,5.641 63.13,5.329 94.47,-0.378 -7.21,-12.852 -10.99,-27.36 -9.11,-42.262 0.74,-5.809 8.93,-3.25 11.84,-1.809 8.65,4.27 17.15,12.949 21.16,21.739 5.83,12.769 11.66,25.55 17.49,38.32 5.5,8.492 58.31,34.32 31.63,30.473" /><path
         id="path74"
         style="fill:#272525;fill-opacity:1;fill-rule:nonzero;stroke:none"
         d="m 1467.5,367.059 c -60.52,-11.18 -146.79,-12.657 -207.31,-23.829 -11.29,-2.089 -10.12,-35.898 -0.97,-48.23 l 14.86,-20.031 c 5.88,-7.918 28.88,11.793 33.66,26.972 46.41,8.571 92.82,17.141 139.24,25.719 13.39,2.469 39.65,42.942 20.52,39.399" /><path
         id="path76"
         style="fill:#182b47;fill-opacity:1;fill-rule:nonzero;stroke:none"
         d="m 2255.99,3638.69 c -360.2,-20.77 -844.21,-46.29 -1273.748,26.66 -11.785,13.67 -58.64,17.76 -60.625,18.12 -26.558,4.78 0.324,-87.32 3.75,-144.37 C 869.813,2975.84 661.91,2221.41 720.063,1858.45 c 37.488,-234 139.367,-492.08 203.332,-720 68.203,-243.02 142.195,-375.278 196.665,-733.341 4.09,-26.898 108.83,-51.64 86.08,-37.48 -22.32,13.891 -145.45,521.684 -210.066,751.911 -64.367,229.34 -164.344,468.91 -205.14,699.31 -84.02,474.54 119.019,909.39 177.64,1373.19 6.864,54.29 22.102,166.87 29.344,220.25 9.712,71.63 28.662,153.77 100.652,147.25 310.9,-28.17 884.23,-11.15 1167.22,32.89 26.91,4.19 29.33,48.51 -9.8,46.26" /><path
         id="path78"
         style="fill:#182b47;fill-opacity:1;fill-rule:nonzero;stroke:none"
         d="m 2112.48,427.66 c -28.34,26.66 -139.97,2.27 -198.34,-3.34 -24.66,-2.371 -33.22,14.45 -35.77,36.879 -0.28,3 -0.22,98.422 -0.91,140.633 -0.01,0.898 0,1.789 0.04,2.688 13.85,319.039 103.59,912.7 115.94,1249.18 8.82,240.41 15.95,481.24 15.35,721.83 -0.55,223.06 -17.34,436.13 -83.97,650.18 -1.3,4.18 -12.46,24.27 -13.75,26.25 -14.28,21.87 -54.44,31.58 -60,40 -5.09,7.7 -22.09,-25.82 -7.47,-40.79 7.84,-8.03 39.63,-116.8 39.97,-117.96 59.49,-202.72 69.61,-363.65 70.83,-574.17 1.36,-233.94 -15.12,-456.23 -23.33,-690 -16.86,-479.74 -154.17,-1138.329 -107.5,-1458.329 0.99,-6.781 0.55,-37.461 7.5,-40 10.37,-8.832 119.97,10.418 162.5,8.75 22.56,-0.891 141.31,27.121 118.91,48.199" /><path
         id="path80"
         style="fill:#c8c5b6;fill-opacity:1;fill-rule:nonzero;stroke:none"
         d="m 1881.51,5531.93 c -2.27,3.38 -10.34,10.89 -11.25,15 -4.18,12.98 -13.98,18.14 -17.99,31.18 -7.03,22.82 -28.77,88.53 -35.79,111.35 -6.13,19.94 -37.79,-25.3 -32.5,-42.5 7.02,-22.82 20.48,-60.46 27.51,-83.29 6.11,-19.86 18.04,-41.19 28.74,-59.21 16.94,-28.51 57.53,1.22 91.28,31.22 12.7,11.28 -38.45,5.53 -50,-3.75" /><path
         id="path82"
         style="fill:#c8c5b6;fill-opacity:1;fill-rule:nonzero;stroke:none"
         d="m 2827.73,4655.71 c -100.32,41.58 -202.01,114.81 -276.81,186.07 -89.85,85.59 -203.19,245.59 -283.19,443.93 -20,23.33 -28.43,-55.75 -25.05,-61.61 -6.61,46.61 4.93,-14.1 5.57,-15.46 65.75,-196.51 234.48,-446.27 487.82,-571.27 126.47,-62.4 267.7,-83.28 400.14,-71.32 73.19,-8.68 282.25,41.93 306.52,62.99 -124.59,-29.16 -481.08,-28.83 -615,26.67" /><path
         id="path84"
         style="fill:#b31d23;fill-opacity:1;fill-rule:nonzero;stroke:none"
         d="m 1619.89,5763.62 c -15.13,19.31 -100.02,-10.47 -79.65,-36.46 35.59,-45.39 -7.92,-29.9 52.08,-133.95 30.71,-53.27 -63.96,-300.88 -83.75,-557.5 -9.08,-117.61 -40,-218.84 -51.25,-336.25 -12.98,-135.42 -45,-452.5 -45,-452.5 4.62,-4.12 93.06,-143.28 127.08,-184.59 28.32,-34.38 45.62,-77.17 80.42,-105.41 22.82,-18.53 68.6,30.3 48.75,52.5 -19.49,21.78 -54.98,62.38 -92.5,132.5 -47.2,88.19 -42.99,192.79 -30.84,292.08 32.76,267.73 84.09,741.45 107.06,879.14 29.54,177.07 60.95,331.35 -32.4,450.44" /><path
         id="path86"
         style="fill:#c8c5b6;fill-opacity:1;fill-rule:nonzero;stroke:none"
         d="m 904.816,5295.71 c 0,0 18.75,40 16.336,75.36 -1.285,18.86 -21.179,1.35 -34.203,-17.8 -9.613,-14.14 -20.605,-27.27 -33.183,-38.85 l -50.2,-46.21 c -8.894,-22.93 92.668,5.38 101.25,27.5" /><path
         id="path88"
         style="fill:#e0ae93;fill-opacity:1;fill-rule:nonzero;stroke:none"
         d="m 743.836,3676.16 c -3.434,-0.64 -6.867,-1.27 -10.305,-1.91 0.387,8.47 -1.355,16.65 -6.277,23.22 -14.871,19.88 -40.051,3.3 -52.449,-9.69 -14.434,-15.12 -28.871,-30.25 -43.305,-45.38 -17.371,-18.2 -30.594,-81.14 12.914,-73.07 28.07,5.21 56.145,10.41 84.215,15.62 23.723,4.4 41.094,30.78 44.785,53.03 3.258,19.63 -6.062,42.54 -29.578,38.18" /><path
         id="path90"
         style="fill:#e0ae93;fill-opacity:1;fill-rule:nonzero;stroke:none"
         d="m 881.066,3753.21 c -4.476,13.46 -10,50 -27.5,102.5 -5.062,15.18 -55.878,66.37 -68.75,60 20,-43.75 4.829,-135.3 49.582,-205 15.282,-23.8 31.715,-52.08 36.668,-88.34 5.743,-42.04 -6.668,-88.33 -36.668,-140 -20.023,-34.48 78.516,26.53 78.848,52.18 1.106,84.59 -3.277,131.76 -32.18,218.66" /><path
         id="path92"
         style="fill:#c8c5b6;fill-opacity:1;fill-rule:nonzero;stroke:none"
         d="m 696.066,3987.37 c -13.332,-60 -131.382,-200.5 -170.265,-218.03 -51.164,-23.07 -213.121,110.4 -249.735,146.37 -21.816,21.43 50.024,-80.59 70,-105 41.243,-50.39 93.969,-115.44 161.348,-101.08 66.367,14.15 107.953,77.01 148.109,126.38 68.875,84.7 48.668,187.93 40.543,151.36" /><path
         id="path94"
         style="fill:#c8c5b6;fill-opacity:1;fill-rule:nonzero;stroke:none"
         d="m 1598.57,5595.71 c -20.6,31.05 -47.75,73.24 -52.91,109.71 -2.28,16.06 -54.59,-114.71 -98.76,-153.88 -78.33,5 -326.29,256.2 -326.67,256.67 l -70.83,-14.17 C 661.605,5670.92 509.207,5533.83 261.066,5217.37 131.996,5052.77 55.6289,4860.9 27.7344,4649.04 2.88281,4460.34 36.8516,4226.56 191.852,4026.56 c -48.332,71.67 -65.789,144.15 -82.454,215.81 -49.9996,215 -51.6636,335 -31.6636,421.67 46.5426,201.69 89.9996,325 201.6636,483.33 209.598,297.2 428.614,473.46 778.292,585.86 35,11.25 46.71,-6.94 52.5,-15 65.1,-90.75 189.08,-154.04 300.04,-203.36 37.5,-16.66 57.29,8.68 62.5,18.34 19.55,36.22 34.74,47.03 47.5,88.33 4.58,-14.34 31.99,-35.78 29.17,-67.5 -3.29,-37.04 -65.22,-235.69 -110.88,-479.15 -65.09,-347.05 -118.3,-773.02 -102.45,-847.93 11.25,-53.21 168.06,-266.66 251.25,-308.75 18.43,-9.33 29.45,5.93 38.75,15 -105,110 -217.63,298.99 -217.5,305 10.92,542.58 210.12,1327.17 190,1357.5" /><path
         id="path96"
         style="fill:#e0ae93;fill-opacity:1;fill-rule:nonzero;stroke:none"
         d="m 1988.52,5956.14 c 35.86,58.26 -72.01,-61.41 -134.15,-90.22 -30.01,-13.91 -101.21,-30.27 -133.33,-38.33 -2.33,-0.58 -78.16,-32.34 -248.09,47.14 -89.78,41.76 -153.55,96.37 -188.58,162.86 0,0 3.99,-47.92 2.95,-61.88 -2.2,-29.21 26.45,-60.04 28.72,-63.12 46,-62.6 210.4,-148.5 215.86,-150.63 12.35,-4.83 87.71,16.51 201.67,6.25 58.74,-35.73 71.61,-25.55 137.5,-7.5 85.82,23.51 159.27,126.91 140.78,122.52 -8.85,-2.11 -32.33,58.3 -23.33,72.91" /><path
         id="path98"
         style="fill:#e0ae93;fill-opacity:1;fill-rule:nonzero;stroke:none"
         d="m 926.129,6475.39 c 13.937,-30.36 47.238,-50.41 81.071,-47.93 31.31,0.89 67.27,44.18 54.72,83.3 -2.08,6.46 -6.2,12.16 -11.49,16.65 -53.18,45.15 -116.075,40.74 -128.664,-6.04 -4.012,-14.91 -2.485,-31.08 4.363,-45.98 v 0" /><path
         id="path100"
         style="fill:#e0ae93;fill-opacity:1;fill-rule:nonzero;stroke:none"
         d="m 1035.23,6606.54 c 61.67,26.67 111.28,112.47 122.53,169.97 8.85,45.18 14.53,69 -6.95,135.94 -4.62,14.41 -25.97,85.3 -46.06,148.37 -12.34,38.74 -31.18,83.73 -23.86,101.5 11.67,28.33 25.8,26.92 73.41,21.81 225.89,-24.24 300.89,-9.24 300.89,-9.24 -20.18,2.51 -461.413,67.05 -459.124,53.32 13.934,-83.56 87.284,-279.15 101.224,-362.7 13.57,-81.38 12.36,-176.35 -109.56,-238.97 l 47.5,-20" /><path
         id="path102"
         style="fill:#e0ae93;fill-opacity:1;fill-rule:nonzero;stroke:none"
         d="m 1861.9,5869.04 c 54.61,41.79 18.69,38.06 35,50 -125.07,-68.93 -257.14,-49.94 -380.29,5.92 -118.64,53.82 -278.71,242.66 -368.88,449.08 -9.62,22.03 -42.01,19.61 -47.05,15.33 -6.78,-5.75 -18.33,1.36 -12.64,-8.48 100.56,-173.96 127.18,-341.41 387.19,-506.85 80.47,-51.2 201.63,-77.06 386.67,-5" /><path
         id="path104"
         style="fill:#2f1a14;fill-opacity:1;fill-rule:nonzero;stroke:none"
         d="m 2226.9,7542.37 c -113.75,-176.25 -360.12,-259.41 -567.89,-276.53 -214.94,-17.72 -422.97,9.67 -637.12,30.38 -21.11,2.04 -61.347,-49.05 -41.308,-50.99 246.078,-23.8 532.348,-63.14 777.988,-26.19 205.53,30.91 440.65,153.31 546.66,337.5 23.7,41.17 -61.62,11.73 -78.33,-14.17" /><path
         id="path106"
         style="fill:#e0ae93;fill-opacity:1;fill-rule:nonzero;stroke:none"
         d="m 2028.2,6903.04 c -31,-29.49 -52.98,24.28 -57.47,45.92 -6.7,32.24 -2.32,81.69 10.26,94.87 -13.49,6.66 -38.85,-4.84 -48.02,-28.1 -16.18,-41.05 1.22,-87.16 14.51,-110.81 17.11,-30.43 55.4,-44.21 80.4,-20.43 6.61,6.29 14.33,31.89 0.32,18.55" /><path
         id="path108"
         style="fill:#e0ae93;fill-opacity:1;fill-rule:nonzero;stroke:none"
         d="m 1490.54,6834.34 c -30.5,-30 -53.24,23.5 -58.05,45.1 -7.16,32.17 0.63,82.96 13,96.35 -13.57,6.47 -43.66,-10.79 -52.46,-34.21 -15.54,-41.35 3.3,-83.11 16.92,-106.58 17.53,-30.21 55.95,-43.43 80.54,-19.24 6.51,6.41 13.84,32.15 0.05,18.58" /><path
         id="path110"
         style="fill:#e0ae93;fill-opacity:1;fill-rule:nonzero;stroke:none"
         d="m 1714.02,6258.59 c 9.12,12.22 -98.46,8.59 -100.9,8.91 -40.12,5.31 -25.74,-40.05 -22.93,-65.94 5.97,-55.08 102.61,-82.21 146.51,-93.96 19.29,-5.16 40.73,18.08 27.32,22.24 -36.25,11.25 -78.13,91.08 -50,128.75" /><path
         id="path112"
         style="fill:#e0ae93;fill-opacity:1;fill-rule:nonzero;stroke:none"
         d="m 3903.01,4911.43 c -13.19,32.62 -13.6,64.01 -1.19,96.91 2.8,7.43 0.69,12.72 -6.12,16.43 -26.37,14.34 -38.67,42.32 -29.73,71.45 7.29,23.7 16.34,59 1.31,48.27 -17.5,-12.5 -50.87,-80.74 -33.12,-106.88 0,0 -77.5,105.63 -71.88,150.63 5.3,42.33 -30.88,-47.04 -21.64,-63.9 42.66,-77.78 85.32,-155.55 127.98,-233.33 9.39,-17.13 41.4,3.09 34.39,20.42" /><path
         id="path114"
         style="fill:#e0ae93;fill-opacity:1;fill-rule:nonzero;stroke:none"
         d="m 4142.32,4946.43 c -75.91,-5.78 -148.81,6.95 -218.55,37.4 -8.18,3.57 -21.59,-10.45 -11.18,-14.99 72.54,-31.67 148.44,-44.14 227.33,-38.13 9.95,0.76 15.47,16.72 2.4,15.72" /><path
         id="path116"
         style="fill:#e0ae93;fill-opacity:1;fill-rule:nonzero;stroke:none"
         d="m 4190.55,5008.78 c -44.8,37.21 -115.13,47.43 -171.37,54.93 -38.01,5.07 -90.56,6.53 -105.43,-35.73 -4.11,-11.7 10.48,-19.05 13.53,-10.37 22.06,62.72 213.31,7.4 248.62,-21.92 7.01,-5.82 22.6,6.5 14.65,13.09" /><path
         id="path118"
         style="fill:#e0ae93;fill-opacity:1;fill-rule:nonzero;stroke:none"
         d="m 4221.53,5102.76 c -26.76,54.68 -83.66,74.99 -142.24,71.43 -42.71,-2.59 -110.24,-1.21 -117.35,-55.96 -1.45,-11.21 14.82,-15.08 15.97,-6.24 5.9,45.45 102.63,43.15 129.37,41.25 42.45,-3.02 86.6,-27.38 105,-65 4.15,-8.48 13.48,5.86 9.25,14.52" /><path
         id="path120"
         style="fill:#e0ae93;fill-opacity:1;fill-rule:nonzero;stroke:none"
         d="m 4245.73,5271.55 c -33.86,41.07 -114.28,87.47 -146.57,27.31 -5.79,-10.79 8.98,-24.03 14.37,-16.87 34.38,45.62 108.25,-10.13 128.75,-35 16.97,-20.57 47.92,-96.04 -1.25,-106.25 -9.51,-1.98 -15.3,-14.32 -2.48,-11.66 72.3,15.02 38.68,104.28 7.18,142.47" /><path
         id="path122"
         style="fill:#556975;fill-opacity:1;fill-rule:nonzero;stroke:none"
         d="m 4155.41,5200.74 c -23.16,21.94 -100.3,102.41 -55.63,136.87 10.47,8.08 -16.87,5.63 -30.62,-11.87 -59.98,-76.33 17.19,-110.73 48.75,-140.63 6.57,-6.22 45.05,8.47 37.5,15.63" /><path
         id="path124"
         style="fill:#556975;fill-opacity:1;fill-rule:nonzero;stroke:none"
         d="m 3950.46,5094.09 c -15.42,14.28 -14.17,39.55 -6.3,59.15 2.7,6.73 35.64,32.42 28.12,31.25 -40,-6.25 -50.37,-30.47 -51.78,-33.99 -7.45,-18.55 -6.23,-37.91 3.04,-54.14 -20.34,-2.76 -37.9,-15.19 -47.53,-35.59 -5.26,-11.16 21.16,-17.61 25.02,-9.41 8.41,17.83 34.29,33.56 53.75,28.75 6.79,-1.67 3.47,6.76 -4.32,13.98" /><path
         id="path126"
         style="fill:#e0ae93;fill-opacity:1;fill-rule:nonzero;stroke:none"
         d="m 4106.39,5501.07 c -42.17,-5.3 -69.01,-26.3 -102.02,-49.91 -75.91,-54.31 -208.77,-58.28 -246.27,-156.72 -8.83,-23.18 12.23,-27.94 18.77,-10.78 23.97,62.92 128.86,73.65 183.52,97.23 21.23,9.16 41.02,21.02 60.33,33.62 10.3,6.72 20.18,14.7 29.85,22.26 2.1,1.64 78.3,54.2 74.63,8.55 -1.82,-22.65 22.07,-7.88 23.51,9.93 2.01,25.05 -13.49,49.44 -42.32,45.82" /><path
         id="path128"
         style="fill:#92a6af;fill-opacity:1;fill-rule:nonzero;stroke:none"
         d="m 5588.53,6711.99 c -461.33,-411.2 -917.69,-836.61 -1379.02,-1247.81 -19.69,-17.55 -103.79,-110.7 -87.23,-95.94 461.34,411.2 1024.92,913.8 1486.25,1325 19.69,17.55 -3.44,33.51 -20,18.75" /><path
         id="path130"
         style="fill:#232e2c;fill-opacity:1;fill-rule:nonzero;stroke:none"
         d="m 5621.85,6713.22 -95,-135 -1299.43,-1224.09 c -32.44,-32.44 -6.63,-78.62 21.1,-50.9 0,0 1191.67,1086.66 1368.33,1298.33 50.95,61.04 32.73,139.38 5,111.66" /><path
         id="path132"
         style="fill:#232e2c;fill-opacity:1;fill-rule:nonzero;stroke:none"
         d="m 4301.44,5259.48 c -19.47,27.57 -58.93,13.23 -37.92,-11.25 30.99,-36.13 30.99,-114.04 -23.13,-134.33 -12.28,-4.61 -26.83,-15.74 -28.15,-30.02 -1.76,-19.02 -5.62,-34.8 -15.94,-51.25 -5.55,-8.85 -13.35,-14.13 -15.02,-24.98 -3.11,-20.21 2.47,-33.13 -18.69,-45.96 -11.47,-6.95 -19.3,-19.28 -28.3,-28.67 -57.65,-60.17 -145.26,-67.36 -219.78,-39.02 -16.05,6.11 -36.18,-3.75 -45.74,-16.76 -10.59,-14.41 -21.18,-28.81 -31.78,-43.22 -27.21,-37.02 31.85,-46.82 52.35,-18.96 4.35,5.92 8.7,11.85 13.06,17.77 92.23,-25.48 185.05,-3.06 260.93,57.87 30.62,24.58 66.9,56.39 79.45,94.38 5.61,17.01 3.7,25.14 13.3,40.44 9.72,15.51 15.43,32.4 18.61,50.01 66.55,39.67 76.75,113.11 26.75,183.95" /><path
         id="path134"
         style="fill:#100f0d;fill-opacity:1;fill-rule:nonzero;stroke:none"
         d="m 934.871,6609.52 c -6.18,0 -12.285,2.86 -16.199,8.24 -73.723,101.42 -146.68,232.36 -195.149,350.26 -66.23,161.09 -87.507,292.97 -63.25,391.98 16.668,68.03 54.864,119.05 113.602,151.83 0.488,75.3 27.871,140.22 81.477,193.14 170.838,168.64 548.938,160.33 623.048,156.94 11.5,-0.53 23.61,-1.16 36.22,-1.82 129.24,-6.77 324.52,-17.02 405.31,70.8 33.68,36.63 45.58,87.1 36.38,154.33 -1.1,8.01 2.73,15.89 9.72,19.97 6.96,4.08 15.72,3.56 22.16,-1.31 101.46,-76.79 143.66,-171.3 124.81,-276.85 38.62,45.64 71.75,93.66 106.16,143.56 12.55,18.2 25.24,36.59 38.4,55.16 4.1,5.78 10.95,8.96 18.01,8.37 7.06,-0.6 13.27,-4.89 16.33,-11.28 56.59,-117.86 -76.99,-367.72 -180.61,-465.63 46.42,-9.03 100.36,4.97 152.87,18.6 23.08,5.98 46.93,12.17 69.46,16.13 8.16,1.43 16.38,-2.33 20.63,-9.44 4.25,-7.12 3.67,-16.12 -1.46,-22.64 -22.61,-28.72 -70.88,-80.48 -85.89,-96.08 -33.72,-34.94 -66.3,-65.07 -99.63,-92.13 -75.81,-61.58 -154.17,-108.09 -232.92,-138.24 -221.24,-84.62 -473.33,-66.54 -692.26,-42.96 -83.3,8.93 -158.22,17.8 -228.02,27.01 20.94,-102.89 47.93,-183.28 69.96,-248.9 53.62,-159.68 83.16,-247.64 -92.546,-354.61 -9.445,-5.74 -21.757,-2.75 -27.48,6.69 -5.754,9.43 -2.754,21.74 6.68,27.48 148.406,90.35 128.536,149.54 75.426,307.71 -24.33,72.48 -54.618,162.68 -76.649,281.5 -1.16,6.31 0.762,12.8 5.187,17.44 4.434,4.65 10.868,6.88 17.176,6.02 77.236,-10.49 160.496,-20.49 254.536,-30.57 214.32,-23.09 460.76,-40.89 673.69,40.55 74.79,28.63 149.48,73.02 222,131.93 32.07,26.03 63.49,55.09 96.05,88.83 8.09,8.41 26.06,27.55 44.18,47.65 -2.68,-0.69 -5.37,-1.39 -8.07,-2.09 -68.66,-17.82 -146.5,-38.01 -212.19,-5.15 -6.33,3.16 -10.52,9.43 -11,16.49 -0.49,7.06 2.78,13.86 8.61,17.87 87.71,60.36 212.94,281.52 205.42,400.34 -4.35,-6.27 -8.66,-12.53 -12.96,-18.76 -52.15,-75.61 -101.42,-147.02 -171.72,-213.87 -6.96,-6.62 -17.66,-7.35 -25.45,-1.75 -7.8,5.61 -10.52,15.97 -6.46,24.68 50.87,109.33 34.27,205.08 -49.24,285.19 -0.45,-56.36 -17.13,-102.74 -49.85,-138.31 -93.52,-101.69 -291.97,-91.28 -436.84,-83.68 -12.52,0.66 -24.54,1.29 -35.96,1.82 -196.45,8.96 -469.82,-23.75 -593.113,-145.46 -48.332,-47.7 -71.691,-106.91 -69.434,-176 0.254,-7.81 -4.074,-15.07 -11.085,-18.55 -54.872,-27.3 -88.829,-70.31 -103.817,-131.47 -48.762,-199.01 123.934,-533.16 251.914,-709.2 6.492,-8.93 4.512,-21.44 -4.426,-27.93 -3.543,-2.59 -7.664,-3.83 -11.738,-3.83" /><path
         id="path136"
         style="fill:#100f0d;fill-opacity:1;fill-rule:nonzero;stroke:none"
         d="m 972.195,6446.77 c -5.136,0 -10.273,1.97 -14.179,5.9 -28.399,28.55 -38.856,54.24 -31.102,76.34 7.5,21.36 30.027,34.32 66.973,38.52 10.733,1.2 20.883,-6.63 22.133,-17.62 1.25,-10.97 -6.65,-20.88 -17.622,-22.13 -25.226,-2.86 -32.91,-9.65 -33.742,-12.02 -0.937,-2.68 1.125,-14.18 21.719,-34.89 7.793,-7.83 7.754,-20.5 -0.078,-28.29 -3.906,-3.87 -9.004,-5.81 -14.102,-5.81" /><path
         id="path138"
         style="fill:#100f0d;fill-opacity:1;fill-rule:nonzero;stroke:none"
         d="m 975.438,6495.66 c -3.036,0 -6.122,0.7 -9.024,2.17 -2.617,1.32 -4.383,1.53 -7.098,0.83 -10.683,-2.78 -21.613,3.62 -24.406,14.31 -2.781,10.69 3.625,21.61 14.309,24.4 12.109,3.16 23.992,1.86 35.281,-3.87 9.855,-4.99 13.789,-17.03 8.801,-26.88 -3.535,-6.95 -10.567,-10.96 -17.863,-10.96" /><path
         id="path140"
         style="fill:#100f0d;fill-opacity:1;fill-rule:nonzero;stroke:none"
         d="m 1661.73,5796.71 c -9.06,0 -18.15,0.32 -27.23,0.95 -150.96,10.6 -370.33,115.63 -561.58,553.68 -89.951,1.16 -149.846,3.46 -179.736,38.64 -18.567,21.87 -35.403,72.65 -30.039,123.69 4.382,41.73 22.957,76.34 53.699,100.09 1.054,0.81 2.187,1.52 3.39,2.11 66.082,32.58 130.646,2.62 149.966,-16.04 14.53,-14.04 11.05,-26.73 8.88,-31.54 -2.13,-4.67 -8.97,-15.39 -27.81,-13.91 -11.01,0.88 -19.22,10.51 -18.35,21.52 0.05,0.6 0.13,1.2 0.22,1.78 -17.96,9.89 -55.749,20.81 -93.425,3.18 -21.231,-17.08 -33.602,-41.08 -36.785,-71.37 -4.571,-43.51 11.258,-82.44 20.742,-93.62 18.562,-21.85 73.914,-23.62 162.698,-24.69 7.9,-0.1 15.01,-4.84 18.13,-12.1 184.5,-429.61 391.58,-531.6 532.8,-541.51 167.54,-11.78 334.44,98.38 458.21,302.17 176.61,290.79 248.03,758.69 9.43,1148.49 -5.76,9.42 -2.8,21.73 6.62,27.5 9.43,5.78 21.73,2.79 27.5,-6.62 247.39,-404.17 173.55,-888.96 -9.36,-1190.13 -125.27,-206.25 -294.5,-322.27 -467.97,-322.27" /><path
         id="path142"
         style="fill:#100f0d;fill-opacity:1;fill-rule:nonzero;stroke:none"
         d="m 1372.81,6999.65 c -2.72,0 -5.5,0.56 -8.14,1.75 -10.09,4.5 -14.61,16.33 -10.11,26.41 17.83,39.93 49.79,67.07 92.39,78.52 10.69,2.86 21.63,-3.46 24.51,-14.13 2.86,-10.67 -3.46,-21.64 -14.14,-24.5 -30.58,-8.22 -53.48,-27.65 -66.24,-56.2 -3.32,-7.44 -10.62,-11.85 -18.27,-11.85" /><path
         id="path144"
         style="fill:#100f0d;fill-opacity:1;fill-rule:nonzero;stroke:none"
         d="m 2030.97,7118.06 c -6.08,-0.01 -12.08,2.75 -16.01,7.98 -20.59,27.4 -69.35,30.15 -89.07,17.34 -9.28,-6.01 -21.67,-3.38 -27.67,5.88 -6.02,9.26 -3.39,21.65 5.87,27.67 37.33,24.24 109.39,17.68 142.84,-26.86 6.64,-8.83 4.87,-21.37 -3.97,-28 -3.59,-2.71 -7.81,-4.01 -11.99,-4.01" /><path
         id="path146"
         style="fill:none;stroke:#100f0d;stroke-width:40;stroke-linecap:round;stroke-linejoin:round;stroke-miterlimit:10;stroke-dasharray:none;stroke-opacity:1"
         d="m 1470.49,6836.69 c -25.31,8.68 -33.53,57.13 -35.33,79.2 -0.88,10.98 -1.62,32.39 4.87,42.22 39,58.97 113.18,-149.77 30.46,-121.42 z" /><path
         id="path148"
         style="fill:none;stroke:#100f0d;stroke-width:40;stroke-linecap:round;stroke-linejoin:round;stroke-miterlimit:10;stroke-dasharray:none;stroke-opacity:1"
         d="m 2009.79,6904.01 c -25.31,8.68 -33.53,57.13 -35.33,79.2 -0.88,10.99 -1.62,32.4 4.86,42.23 39.01,58.96 113.19,-149.78 30.47,-121.43 z" /><path
         id="path150"
         style="fill:#100f0d;fill-opacity:1;fill-rule:nonzero;stroke:none"
         d="m 1867.55,6446.43 c -8.07,0 -15.67,4.92 -18.7,12.91 -3.92,10.33 1.28,21.87 11.6,25.79 110.83,42.07 123.72,73.07 124.12,84.45 1.28,36.48 -94.52,80.76 -157.91,110.06 -44.33,20.49 -82.6,38.18 -105.21,56.5 -8.59,6.95 -9.91,19.54 -2.96,28.13 6.95,8.58 19.57,9.9 28.13,2.95 18.74,-15.18 56.67,-32.71 96.83,-51.27 90.11,-41.65 183.31,-84.73 181.1,-147.78 -1.54,-43.93 -49.18,-82.2 -149.9,-120.43 -2.34,-0.89 -4.74,-1.31 -7.1,-1.31" /><path
         id="path152"
         style="fill:#100f0d;fill-opacity:1;fill-rule:nonzero;stroke:none"
         d="m 1738.14,6087.23 c -19.09,0 -38.26,2.51 -56.83,8.21 -48.47,14.9 -109.98,57.29 -127.77,174.69 -1.04,6.82 1.52,13.69 6.75,18.18 5.24,4.49 12.42,5.96 19.01,3.9 148.82,-46.7 316.85,7.18 367.78,48.47 -8.21,17.39 -18.83,24.46 -32.65,33.66 -20.96,13.97 -47.07,31.35 -65.79,85.57 -3.6,10.44 1.94,21.83 12.39,25.43 10.39,3.61 21.81,-1.93 25.43,-12.38 14.31,-41.46 31.72,-53.05 50.15,-65.33 18.7,-12.46 39.91,-26.58 52.98,-65.85 2.26,-6.78 0.72,-14.25 -4.01,-19.59 -44.57,-50.25 -223.29,-113.39 -386.33,-76.71 15.36,-59.81 46.82,-97.36 93.81,-111.8 71.53,-22 157.11,15.54 188.89,49.88 7.49,8.12 20.16,8.59 28.26,1.1 8.11,-7.5 8.6,-20.16 1.1,-28.26 -31.39,-33.92 -101.6,-69.16 -173.17,-69.17" /><path
         id="path154"
         style="fill:#100f0d;fill-opacity:1;fill-rule:nonzero;stroke:none"
         d="m 1829.56,5717.08 c 8.33,-20.79 14.89,-44.12 21.28,-66.86 10.64,-37.88 21.61,-76.91 39.54,-99.61 69.18,16.7 197.59,145.82 215.33,198.54 6.11,18.14 -32.45,86.47 -67.12,129.07 -39.41,-77.27 -82.75,-115.04 -209.03,-161.14 z m 53.35,-207.96 c -5.14,0 -10.1,1.97 -13.84,5.55 -29.69,28.45 -43.44,77.39 -56.74,124.72 -8.44,30.07 -16.42,58.47 -27.69,79.93 -2.71,5.16 -3.04,11.23 -0.9,16.64 2.14,5.42 6.53,9.63 12.02,11.54 145.61,50.72 177.64,82.76 219.46,174.44 2.69,5.89 8.07,10.12 14.43,11.34 6.38,1.23 12.92,-0.72 17.6,-5.19 28.34,-27.12 113.8,-139.91 96.37,-191.7 -13.69,-40.68 -65.71,-98.67 -106.1,-135.97 -27.91,-25.78 -98.68,-86.28 -152.79,-91.22 -0.61,-0.06 -1.21,-0.08 -1.82,-0.08" /><path
         id="path156"
         style="fill:#100f0d;fill-opacity:1;fill-rule:nonzero;stroke:none"
         d="m 1633.11,5567.18 c 12.47,-2.18 26.24,-3.29 41.03,-3.29 18.83,0 35.18,1.82 44.63,3.16 38.8,66.97 66.58,136.3 60.18,151.12 -9.1,10.7 -82.03,33.6 -152.62,33.6 -33.51,0 -51.84,-5.87 -58,-11.26 -4.04,-11.74 -6.97,-79.32 64.78,-173.33 z m 41.03,-43.29 c -20.45,0 -39.45,1.87 -56.48,5.56 -4.54,0.99 -8.61,3.53 -11.48,7.18 -89.57,113.79 -88.76,207.15 -68.57,229.66 15.17,16.91 45.02,25.48 88.72,25.48 59.72,0 158.53,-18.52 183.79,-48.67 30.49,-36.47 -25.56,-143.79 -61.68,-204.52 -2.9,-4.89 -7.76,-8.3 -13.33,-9.4 -1.1,-0.21 -27.28,-5.29 -60.97,-5.29" /><path
         id="path158"
         style="fill:#100f0d;fill-opacity:1;fill-rule:nonzero;stroke:none"
         d="m 1633.09,3923.67 c -3.57,0 -7.17,0.96 -10.4,2.93 -46.55,28.39 -244.86,265.53 -239.63,319.79 0.88,9.07 2.09,23.13 3.68,41.59 45.56,528.17 111.31,958.7 195.4,1279.62 2.79,10.68 13.7,17.1 24.41,14.28 10.69,-2.8 17.08,-13.73 14.28,-24.41 -83.52,-318.74 -148.87,-747.01 -194.24,-1272.92 -1.61,-18.64 -2.83,-32.83 -3.71,-41.98 2.58,-32.58 145.38,-217.93 206.45,-271 32.35,42.52 120.83,162.07 145.8,229.55 6.45,26.85 -11.13,292.09 -28.12,548.6 -20.99,316.92 -44.79,676.13 -38.38,794.92 0.61,11.02 10.25,19.47 21.05,18.89 11.03,-0.6 19.49,-10.02 18.89,-21.05 -6.28,-116.38 17.44,-474.32 38.35,-790.11 25.35,-382.53 34.77,-540.75 25.72,-565.14 -32.76,-88.53 -158.48,-249.12 -163.81,-255.91 -3.93,-4.98 -9.79,-7.65 -15.74,-7.65" /><path
         id="path160"
         style="fill:#100f0d;fill-opacity:1;fill-rule:nonzero;stroke:none"
         d="m 1264.43,5951.43 c -51.62,-44.72 -118.82,-117.55 -117.39,-137.87 11.26,-50.64 210.4,-212.39 290.02,-237.87 20.3,20.64 35.4,58.39 50.04,95.01 8.77,21.92 17.76,44.41 28.25,64.19 -136.5,67.12 -213.85,133.64 -250.92,216.54 z m 177.89,-417.78 c -1.3,0 -2.61,0.12 -3.92,0.39 -45.63,9.12 -129.92,66.76 -188.24,113.34 -39.17,31.29 -131.45,109.3 -142.22,157.82 -13.5,60.93 151.22,193.74 152.89,195.03 5.14,3.96 11.88,5.19 18.05,3.3 6.2,-1.89 11.09,-6.66 13.14,-12.81 29.44,-88.32 107.24,-156.86 260.17,-229.18 5.25,-2.49 9.17,-7.14 10.72,-12.75 1.55,-5.61 0.58,-11.61 -2.66,-16.45 -13.46,-20.14 -24.41,-47.51 -36,-76.5 -18.26,-45.66 -37.15,-92.88 -69.7,-118.02 -3.53,-2.73 -7.84,-4.17 -12.23,-4.17" /><path
         id="path162"
         style="fill:#100f0d;fill-opacity:1;fill-rule:nonzero;stroke:none"
         d="m 508.699,3676.7 c -35.008,0 -84.414,30.64 -152.117,93.81 -65.168,60.8 -122.805,128.94 -134.668,143.86 -77.246,97.13 -138.3398,215.43 -181.5742,351.59 -69.6836,219.54 -48.79683,467.45 60.4102,716.93 96.309,219.99 259.641,428.8 448.117,572.88 178.446,136.42 250.301,183.83 573.273,273.04 10.64,2.96 21.65,-3.3 24.6,-13.95 2.94,-10.65 -3.3,-21.66 -13.96,-24.6 C 816.961,5703.02 746.922,5656.83 573.164,5523.99 389.902,5383.9 231.074,5180.83 137.402,4966.85 63.9961,4799.18 -5.8125,4543.56 78.4648,4278.07 c 41.7582,-131.51 100.5472,-245.5 174.7582,-338.8 17.019,-21.4 73.543,-86.24 130.644,-139.51 83.145,-77.57 121.387,-87.48 129.891,-81.87 84.883,55.42 179.289,180.47 180.39,238.93 0.266,14.06 -5.312,18.01 -7.41,19.5 -193.449,137 -290.586,319.75 -288.722,543.17 2.636,316.62 215.449,667.57 484.492,798.97 9.941,4.86 21.906,0.73 26.75,-9.19 4.851,-9.92 0.73,-21.9 -9.192,-26.75 -256.57,-125.31 -459.531,-460.62 -462.05,-763.37 -1.746,-209.54 89.707,-381.2 271.847,-510.19 11.375,-8.06 24.832,-23.78 24.278,-52.9 -1.223,-64.73 -93.059,-202.81 -198.508,-271.67 -7.832,-5.11 -16.778,-7.69 -26.934,-7.69" /><path
         id="path164"
         style="fill:#100f0d;fill-opacity:1;fill-rule:nonzero;stroke:none"
         d="m 780.496,3582.17 c -8.379,0 -16.18,5.3 -18.973,13.68 -28.117,84.32 -53.984,117.88 -151.738,150.44 -10.48,3.49 -16.144,14.82 -12.656,25.3 3.484,10.47 14.766,16.16 25.293,12.65 114.012,-37.97 146.766,-84.9 177.051,-175.74 3.496,-10.48 -2.168,-21.81 -12.649,-25.3 -2.097,-0.7 -4.238,-1.03 -6.328,-1.03" /><path
         id="path166"
         style="fill:#100f0d;fill-opacity:1;fill-rule:nonzero;stroke:none"
         d="m 755.449,3418.18 c -73.664,-0.01 -146.261,36.17 -184.054,95.38 -49.383,77.37 -29.805,131.3 -4.676,162.92 37.91,47.72 112.558,70.93 141.269,60.78 21.895,-7.75 36.192,-28.3 38.25,-54.99 2.793,-36.1 -17.8,-87.68 -69.609,-115.61 -9.727,-5.24 -21.863,-1.61 -27.098,8.11 -5.234,9.72 -1.601,21.86 8.114,27.1 34.472,18.58 50.597,52.96 48.71,77.32 -0.476,6.23 -2.636,17.15 -11.707,20.36 -11.015,2.48 -71.347,-11.83 -99.699,-52.07 -21.433,-30.43 -18.015,-68.25 10.156,-112.4 36.575,-57.3 117.793,-88.56 188.958,-72.71 30.222,6.73 82.253,28.12 91.074,95.73 1.445,10.96 11.543,18.66 22.422,17.24 10.957,-1.42 18.671,-11.46 17.246,-22.41 -8.75,-67.04 -53.235,-114.28 -122.051,-129.61 -15.586,-3.47 -31.477,-5.14 -47.305,-5.14" /><path
         id="path168"
         style="fill:#100f0d;fill-opacity:1;fill-rule:nonzero;stroke:none"
         d="m 833.281,3871.1 c -5.312,0 -10.605,2.1 -14.543,6.27 -20.293,21.48 -29.023,24.02 -44.89,28.62 -15.149,4.39 -35.899,10.41 -70.469,32.42 -9.316,5.93 -12.063,18.29 -6.133,27.61 5.938,9.31 18.301,12.07 27.617,6.13 29.727,-18.93 45.879,-23.62 60.125,-27.75 18.821,-5.45 35.059,-10.16 62.832,-39.57 7.59,-8.03 7.219,-20.69 -0.808,-28.27 -3.867,-3.65 -8.801,-5.46 -13.731,-5.46" /><path
         id="path170"
         style="fill:#100f0d;fill-opacity:1;fill-rule:nonzero;stroke:none"
         d="m 1589.48,3598.43 c -250,0 -509.61,17.28 -692.175,83.92 -4.27,1.56 -7.871,4.51 -10.235,8.39 -49.765,81.78 -60.343,193.95 -69.668,292.91 -1.847,19.53 -3.632,38.46 -5.664,56.41 -16.543,145.96 -24.64,294.52 -24.082,441.56 1.18,314.2 41.258,611.61 119.11,883.98 3.039,10.62 14.093,16.77 24.726,13.73 10.617,-3.03 16.77,-14.1 13.731,-24.72 C 868.379,5085.77 828.828,4792 827.656,4481.47 c -0.558,-145.49 7.461,-292.49 23.828,-436.91 2.059,-18.18 3.868,-37.37 5.731,-57.16 8.691,-92.13 18.515,-196.24 60.508,-269.89 290.497,-102.95 781.787,-81.12 1107.717,-66.64 89.17,3.97 167.31,7.44 229.43,8.05 13.63,164.17 26.46,290.46 38.32,402.64 l 28.92,391.77 c 0.18,134.81 -18.02,271.47 -61.51,545.77 l -15.97,99.91 c -6.51,40.54 -13.52,83.8 -21.01,130.09 l -5.22,32.3 c -1.76,10.9 5.64,21.18 16.55,22.94 11,1.79 21.16,-5.66 22.94,-16.55 l 5.23,-32.3 c 7.49,-46.31 14.49,-89.59 21,-130.16 l 15.98,-99.94 c 43.93,-277.03 62.25,-415.06 62.01,-552.84 0,-0.48 -0.02,-0.96 -0.06,-1.44 l -29.02,-393.12 c -12.34,-116.7 -25.65,-247.9 -39.8,-420.62 -0.85,-10.37 -9.52,-18.36 -19.93,-18.36 -63.91,0 -148.33,-3.75 -246.08,-8.1 -127.85,-5.68 -280.9,-12.48 -437.74,-12.48" /><path
         id="path172"
         style="fill:#100f0d;fill-opacity:1;fill-rule:nonzero;stroke:none"
         d="m 1339.73,340.16 c -79.08,0 -147.33,24.531 -232.14,55.02 l -4.32,1.55 c -6.92,2.489 -11.92,8.583 -13.01,15.86 -39.38,263.121 -125.721,514.39 -209.205,757.38 -74.953,218.13 -152.453,443.69 -197.735,680.73 -49.054,256.77 26.942,623.85 100.438,978.84 69.14,333.97 134.445,649.43 100.637,868.55 -1.692,10.91 5.8,21.13 16.718,22.81 10.762,1.69 21.121,-5.8 22.813,-16.71 34.91,-226.26 -31.106,-545.15 -100.996,-882.76 -72.707,-351.16 -147.883,-714.27 -100.313,-963.22 44.735,-234.25 121.766,-458.44 196.258,-675.24 82.835,-241.079 168.445,-490.22 209.145,-752.63 109.95,-39.488 185.65,-65.371 296.35,-40.18 16.24,135.59 -46.72,357.809 -119.26,613.85 -81.38,287.25 -173.61,612.82 -192.11,933.44 -29.27,507.74 168.82,1142.1 352.33,1328.81 37.05,37.67 135.68,95.6 243.64,90.71 80.13,-3.66 148.85,-39.84 204.26,-107.54 6.99,-8.55 5.73,-21.15 -2.81,-28.15 -8.56,-6.99 -21.15,-5.73 -28.14,2.82 -47.91,58.53 -106.83,89.79 -175.13,92.91 -94.58,4.27 -181.09,-46.04 -213.29,-78.79 -211.51,-215.19 -364.25,-893.84 -340.92,-1298.47 18.24,-316.24 109.84,-639.57 190.65,-924.84 76.21,-269 142.03,-501.308 118.41,-644.25 -1.3,-7.82 -7.08,-14.14 -14.75,-16.109 -39.12,-10.051 -74.28,-14.391 -107.52,-14.391" /><path
         id="path174"
         style="fill:#100f0d;fill-opacity:1;fill-rule:nonzero;stroke:none"
         d="m 1847.22,338.34 c -10.48,0 -20.78,0.629 -30.87,2.058 -8.01,1.133 -14.54,6.981 -16.56,14.813 -28.52,110.828 15.57,566.359 54.47,968.279 23.48,242.67 43.77,452.26 43.77,541.27 0,121.41 8.01,243 15.75,360.59 22.4,340.11 45.57,691.8 -125.32,1072.38 -4.53,10.08 -0.03,21.91 10.05,26.44 10.05,4.52 21.91,0.03 26.43,-10.05 174.97,-389.67 151.48,-746.41 128.75,-1091.39 -7.69,-116.95 -15.66,-237.88 -15.66,-357.97 0,-90.94 -20.37,-301.42 -43.96,-545.13 -35.27,-364.458 -78.85,-814.661 -58.29,-940.989 35.7,-2.059 75.82,5.98 117.97,14.441 40.74,8.188 82.73,16.578 122.92,15.848 255.71,869.64 251.84,1563.91 247.36,2367.12 l -0.53,100 c -0.69,137.98 -22.16,328.3 -44.9,529.79 -8.6,76.3 -17.51,155.21 -25.2,231.15 -1.11,10.99 6.89,20.8 17.89,21.92 10.98,1.14 20.8,-6.9 21.91,-17.88 7.67,-75.73 16.56,-154.51 25.16,-230.71 22.85,-202.59 44.44,-393.94 45.14,-534.07 l 0.53,-99.98 c 4.52,-811.02 8.42,-1511.43 -253.47,-2393.821 -2.71,-9.109 -11.2,-15.078 -20.92,-14.238 -39.47,3.461 -84.45,-5.59 -128.01,-14.34 -38.13,-7.66 -77.27,-15.531 -114.41,-15.531" /><path
         id="path176"
         style="fill:#100f0d;fill-opacity:1;fill-rule:nonzero;stroke:none"
         d="m 918.484,417.441 c -80.429,0 -164.441,-17.859 -242.148,-58.82 C 572.598,303.941 526.094,222.43 548.758,134.98 587.781,-15.6289 1023.12,89.7188 1283.2,152.66 c 73.67,17.832 138.26,33.449 184.73,41.59 5.86,44.719 -10.43,106.691 -22.62,153.039 -0.47,1.742 -0.92,3.481 -1.36,5.191 -38.93,-3.589 -87.38,-12.789 -130.77,-21.031 -14.64,-2.777 -28.88,-5.488 -42.26,-7.886 2.68,-2.872 5.3,-5.782 7.89,-8.75 7.25,-8.333 6.39,-20.961 -1.94,-28.223 -8.33,-7.258 -20.96,-6.379 -28.22,1.949 -67.44,77.422 -193.64,128.902 -330.166,128.902 z M 734.629,17.7109 c -117.004,0 -204.016,27.8086 -224.59,107.2381 -27.715,106.93 26.102,205 147.656,269.063 165.469,87.207 421.455,88.207 576.155,-36.082 20.43,3.039 45.51,7.8 71.87,12.82 50.9,9.672 108.6,20.621 152.39,22.859 9.6,0.5 18.06,-5.82 20.4,-15.046 1.7,-6.704 3.55,-13.762 5.48,-21.102 15.3,-58.16 34.33,-130.531 20.34,-185.602 -1.99,-7.789 -8.42,-13.629 -16.37,-14.847 -45.34,-6.93 -114.85,-23.75 -195.35,-43.231 C 1113.31,70.3906 895.594,17.7188 734.629,17.7109" /><path
         id="path178"
         style="fill:#100f0d;fill-opacity:1;fill-rule:nonzero;stroke:none"
         d="m 1839.49,182.211 c 179.04,-77.629 738.55,-213.6407 888.34,-96.5899 31.16,24.3479 42.05,58.6209 33.3,104.7579 -24.4,128.66 -221.26,189.312 -382.41,202.152 -198.8,15.84 -376.06,-31.449 -403.58,-107.672 -3.76,-10.379 -15.28,-15.757 -25.6,-12.019 -10.39,3.75 -15.77,15.223 -12.02,25.609 6.12,16.961 16.56,32.281 30.55,45.981 -34.6,-0.328 -71.71,-0.84 -100.48,-3.039 -16.53,-45.399 -30.36,-112.629 -28.1,-159.18 z M 2522.25,0 c -83.86,0 -174.38,11.1992 -253.19,24.7305 -183.27,31.4804 -376.23,88.7185 -456.9,125.8785 -6.33,2.911 -10.69,8.911 -11.5,15.832 -6.7,57.168 12.14,147.258 34.22,201.321 2.8,6.828 9.11,11.57 16.45,12.328 34.49,3.601 83.62,4.051 126.96,4.441 18.58,0.168 36.04,0.328 50.64,0.719 89.2,42.57 226.09,57.262 352.96,47.152 183.61,-14.632 389.97,-83.933 418.54,-234.57 11.65,-61.402 -4.49,-109.75 -47.97,-143.7304 C 2701.06,13.9414 2615.81,0.0117188 2522.25,0" /><path
         id="path180"
         style="fill:#100f0d;fill-opacity:1;fill-rule:nonzero;stroke:none"
         d="m 3094.46,4541.32 c -47.87,0 -94.24,2.99 -137.23,9.23 -167.41,24.36 -325.81,104.93 -458.1,233.03 -120.86,117.02 -215.52,267.75 -273.75,435.89 -3.61,10.43 1.91,21.82 12.35,25.44 10.44,3.62 21.84,-1.92 25.44,-12.35 145.38,-419.75 456.82,-607.08 699.81,-642.42 178.26,-25.88 416.73,6.11 567.09,76.05 131.34,61.07 215.03,108.96 324.17,209.59 -11.14,19.18 -23.09,38.73 -35.59,59.19 -39.45,64.61 -80.11,131.17 -104.1,200.2 -173,-110.23 -384.49,-190.89 -558.09,-212.15 -314.97,-38.6 -413.85,169.66 -518.52,390.15 -100.61,211.91 -204.63,431.04 -511.67,470.09 -10.96,1.39 -18.71,11.41 -17.32,22.36 1.39,10.97 11.6,18.69 22.36,17.32 328.76,-41.82 442.45,-281.31 542.76,-492.62 102.58,-216.09 191.24,-402.67 477.53,-367.59 175.3,21.46 391.05,105.85 563.03,220.22 5.33,3.54 12.04,4.32 18.03,2.1 5.99,-2.22 10.56,-7.18 12.29,-13.34 20.54,-72.95 64.92,-145.61 107.84,-215.89 15.67,-25.64 30.45,-49.85 44.1,-74.03 4.53,-8.02 2.99,-18.09 -3.72,-24.4 -118.86,-111.8 -206.35,-162.43 -346.23,-227.47 -120.24,-55.93 -294.35,-88.59 -452.48,-88.6" /><path
         id="path182"
         style="fill:#100f0d;fill-opacity:1;fill-rule:nonzero;stroke:none"
         d="m 3881.49,5031.78 c -13.89,0 -24.62,4.79 -32.08,14.36 -30.62,39.32 32.05,127.65 32.71,128.52 43.11,58.29 93.77,116.29 135.5,155.15 54.5,50.72 109.98,104.35 163.62,156.21 74.8,72.31 152.15,147.08 229.38,216.5 206.04,185.17 763.04,678.91 848.64,749.32 6.59,5.42 59.11,53.82 114.7,105.07 167.02,153.92 209.67,192.58 217.39,197.01 11.95,6.87 22.86,8.37 32.41,4.44 10.42,-4.3 14.71,-13.15 16.58,-18.64 1.32,-2.14 2.25,-4.54 2.69,-7.1 4.12,-23.88 12.68,-73.58 -454.93,-521.97 -255.16,-244.67 -561.47,-521.53 -764.16,-704.73 -111.67,-100.93 -199.89,-180.66 -211.67,-194.02 -7.32,-8.29 -19.94,-9.08 -28.24,-1.77 -8.28,7.31 -9.07,19.95 -1.76,28.23 12.72,14.42 78.72,74.2 214.85,197.24 200.67,181.38 503.95,455.49 757.54,698.4 328.84,314.99 419.76,430.43 442.22,472.69 -37.2,-33.02 -130.3,-118.82 -195.81,-179.2 -67.54,-62.25 -109.3,-100.71 -116.4,-106.54 -85.27,-70.14 -641.47,-563.19 -847.31,-748.18 -76.7,-68.93 -153.78,-143.45 -228.32,-215.51 -53.78,-51.99 -109.39,-105.75 -164.17,-156.73 -40.03,-37.28 -88.85,-93.23 -130.6,-149.66 -20.24,-27.35 -35.6,-67.21 -33.41,-79.13 2.92,-0.18 10.25,0.26 25.51,6.53 10.19,4.2 21.89,-0.69 26.09,-10.9 4.2,-10.22 -0.68,-21.9 -10.9,-26.1 -15.4,-6.33 -28.78,-9.49 -40.07,-9.49" /><path
         id="path184"
         style="fill:#100f0d;fill-opacity:1;fill-rule:nonzero;stroke:none"
         d="m 3729.59,5132.71 c -2.32,0 -4.68,0.4 -6.98,1.26 -10.35,3.86 -15.62,15.38 -11.76,25.73 6.16,16.53 8.78,37.21 11.54,59.11 5.02,39.69 10.72,84.67 39.5,122.96 34.45,45.78 79.92,62.42 123.89,78.5 13.59,4.98 27.66,10.12 41.02,16.05 20.36,9.03 42.38,24.59 63.67,39.64 47.53,33.59 96.69,68.31 141.73,41.1 19.07,-11.52 30.92,-29.94 33.38,-51.87 3.15,-28.22 -9.7,-59.24 -34.36,-82.96 -7.96,-7.65 -20.61,-7.41 -28.28,0.55 -7.66,7.96 -7.41,20.63 0.55,28.28 15.53,14.94 24.09,33.98 22.33,49.69 -1.06,9.56 -5.88,16.98 -14.31,22.07 -22.59,13.66 -59.22,-12.15 -97.96,-39.53 -22.88,-16.17 -46.55,-32.9 -70.54,-43.54 -14.58,-6.47 -29.28,-11.84 -43.49,-17.04 -40.28,-14.74 -78.33,-28.66 -105.65,-64.98 -22.41,-29.8 -27.18,-67.49 -31.79,-103.94 -3.07,-24.27 -5.97,-47.18 -13.75,-68.06 -3,-8.05 -10.63,-13.02 -18.74,-13.02" /><path
         id="path186"
         style="fill:#100f0d;fill-opacity:1;fill-rule:nonzero;stroke:none"
         d="m 4227.15,5106.09 c -10.69,0 -19.55,8.44 -19.97,19.21 -0.44,11.04 8.15,20.34 19.19,20.77 26.94,1.07 42.55,10.96 47.73,30.24 9.61,35.75 -18.41,93.04 -57.64,117.88 -31.22,19.77 -83.92,27.14 -100.74,14.09 -6.65,-5.17 -7.38,-15.89 -2.18,-31.86 2.91,-8.9 17.52,-19.85 30.42,-29.5 23.26,-17.43 52.21,-39.12 47.71,-73.42 -1.46,-10.95 -11.46,-18.66 -22.44,-17.22 -10.95,1.44 -18.66,11.49 -17.23,22.44 1.47,11.09 -15.56,23.85 -32.03,36.18 -18.5,13.86 -37.63,28.19 -44.45,49.12 -14.42,44.2 3.62,66.49 15.66,75.85 37,28.74 110.2,11.21 146.68,-11.88 54.85,-34.74 89.14,-108.95 74.87,-162.06 -9.75,-36.28 -40.65,-58.09 -84.78,-59.83 -0.27,-0.01 -0.54,-0.01 -0.8,-0.01" /><path
         id="path188"
         style="fill:#100f0d;fill-opacity:1;fill-rule:nonzero;stroke:none"
         d="m 4075.47,5167.46 c -7.97,0 -15.87,-0.25 -23.49,-0.75 -59.1,-3.91 -81.67,-23.68 -82.02,-35.23 -0.28,-9.76 16.47,-25.66 54.61,-30.47 86.09,-10.85 145.26,-35.19 163.24,-43.33 9.1,1.73 14.53,6.71 17.36,15.7 7.06,22.51 -5.09,56.4 -19.98,68.37 -20.29,16.35 -60.27,25.71 -109.72,25.71 z m 109.03,-150.33 c -3.1,0 -6.17,0.73 -8.95,2.12 -0.92,0.45 -61.5,30.16 -155.98,42.07 -63.11,7.96 -90.48,41.57 -89.59,71.35 0.96,32 32.81,68.24 119.38,73.95 8.48,0.56 17.27,0.84 26.11,0.84 34.33,0 97.5,-4.49 134.78,-34.55 28.95,-23.25 44.42,-75.36 33.08,-111.5 -8.2,-26.16 -29.15,-42.28 -57.46,-44.23 -0.45,-0.03 -0.91,-0.05 -1.37,-0.05" /><path
         id="path190"
         style="fill:#100f0d;fill-opacity:1;fill-rule:nonzero;stroke:none"
         d="m 4117.68,4944.01 c -19.44,0 -41.91,1.86 -67.62,5.55 -23.98,3.44 -47.58,8.5 -70.4,13.4 -10.48,2.25 -20.98,4.5 -31.52,6.6 -28.6,5.69 -50.88,22.01 -59.6,43.64 -7.42,18.39 -4.21,38.99 9.01,58 24.87,35.7 114.74,31.6 127.41,29.76 10.93,-1.6 18.5,-11.75 16.91,-22.68 -1.61,-10.94 -11.77,-18.5 -22.69,-16.9 -25.65,3.74 -81.3,-3.18 -88.82,-13.06 -8.14,-11.7 -5.57,-18.07 -4.73,-20.17 3.5,-8.67 15.69,-16.45 30.33,-19.36 10.73,-2.14 21.41,-4.43 32.09,-6.72 22.16,-4.76 45.08,-9.67 67.69,-12.92 92.74,-13.31 113.97,3.17 118.27,8.55 3.91,4.87 3.63,13.29 -0.85,25.02 -3.92,10.32 1.25,21.88 11.58,25.81 10.29,3.92 21.88,-1.24 25.81,-11.57 12.29,-32.27 3.9,-52.75 -5.3,-64.25 -15.4,-19.26 -43.79,-28.7 -87.57,-28.7" /><path
         id="path192"
         style="fill:#100f0d;fill-opacity:1;fill-rule:nonzero;stroke:none"
         d="m 4039.37,4869.41 c -12.95,0 -25.6,0.65 -37.43,1.27 l -8.56,0.43 c -54.06,2.64 -94.13,22.56 -109.92,54.63 -9.84,19.96 -8.6,42.11 3.31,59.26 12.79,18.43 35.96,27.85 62.09,25.24 10.98,-1.1 19,-10.9 17.9,-21.89 -1.11,-10.99 -10.76,-19.02 -21.91,-17.91 -11.59,1.17 -20.77,-1.84 -25.22,-8.24 -3.55,-5.11 -3.65,-11.96 -0.29,-18.79 3.38,-6.88 18.88,-29.55 75.99,-32.35 l 8.68,-0.44 c 74.1,-3.83 120.69,-1.35 142.07,65.55 3.38,10.51 14.57,16.32 25.15,12.96 10.52,-3.37 16.32,-14.63 12.96,-25.15 -26.29,-82.17 -88.49,-94.57 -144.82,-94.57" /><path
         id="path194"
         style="fill:#100f0d;fill-opacity:1;fill-rule:nonzero;stroke:none"
         d="m 3876,4871.08 c -9.2,0 -17.48,6.39 -19.53,15.75 -2.35,10.79 4.5,21.45 15.29,23.8 7.63,1.66 15.57,1.75 23.24,1.84 5.53,0.07 14.58,0.17 17.77,1.47 5.91,8.77 17.72,11.46 26.88,5.96 9.47,-5.69 12.54,-17.97 6.85,-27.44 -11.73,-19.53 -34.45,-19.79 -51.04,-19.99 -5.67,-0.06 -11.52,-0.12 -15.19,-0.92 -1.43,-0.31 -2.87,-0.47 -4.27,-0.47" /><path
         id="path196"
         style="fill:#100f0d;fill-opacity:1;fill-rule:nonzero;stroke:none"
         d="m 7410.91,3502.63 c -1457.52,0 -2983.32,4.59 -3603.18,19.16 -113.46,2.66 -202.89,93.61 -203.58,207.04 -0.88,144.88 -1.79,481.33 -1.46,952.74 0.01,12.42 10.07,22.49 22.5,22.49 h 0.02 c 12.42,-0.01 22.49,-10.09 22.48,-22.52 -0.33,-471.3 0.58,-807.63 1.46,-952.43 0.55,-88.94 70.66,-160.24 159.64,-162.34 1142.97,-26.85 5368.94,-19.79 6561.41,-12.55 88.9,0.54 161.7,73.32 162.3,162.25 3.1,474.46 68.9,4142.84 91.5,4685.5 1.9,45.5 -14.5,88.47 -46.3,120.99 -31.8,32.52 -74.5,49.94 -119.8,49.09 -721.1,-13.61 -3053.52,9.52 -4756.56,26.41 -807.52,8.02 -1504.91,14.93 -1874.8,16.54 -0.23,0 -0.48,0 -0.71,0 -88.4,0 -161.56,-71.73 -163.27,-160.24 -6.64,-342.98 -12.1,-1977.64 -13.86,-3341.56 -0.02,-12.41 -10.09,-22.47 -22.5,-22.47 h -0.03 c -12.42,0.02 -22.49,10.1 -22.47,22.53 1.76,1364.12 7.22,2999.13 13.86,3342.37 2.19,112.88 95.53,204.37 208.27,204.37 0.3,0 0.61,0 0.91,0 370.01,-1.61 1067.46,-8.52 1875.04,-16.54 1702.78,-16.89 4034.76,-40.01 4755.22,-26.42 57.5,1.1 112.3,-21.14 152.9,-62.62 40.5,-41.49 61.5,-96.3 59.1,-154.33 -22.7,-542.41 -88.4,-4209.58 -91.5,-4683.91 -0.8,-113.43 -93.7,-206.28 -207.1,-206.96 -546.03,-3.31 -1728.44,-6.59 -2959.49,-6.59" /><path
         id="path198"
         style="fill:#100f0d;fill-opacity:1;fill-rule:nonzero;stroke:none"
         d="m 9649.67,8382.43 c -967.72,0 -2586.69,15.65 -3872.58,28.08 -898.45,8.68 -1674.33,16.17 -1935.64,15.43 -0.02,0 -0.04,0 -0.04,0 -11.04,0 -19.99,8.92 -20.02,19.94 -0.03,11.05 8.89,20.03 19.94,20.06 261.54,0.72 1037.57,-6.74 1936.15,-15.44 1833.55,-17.72 4344.62,-42 4675.72,-18.17 11.2,0.74 20.6,-7.5 21.4,-18.52 0.7,-11.01 -7.5,-20.59 -18.6,-21.38 -99.4,-7.16 -393.7,-10 -806.33,-10" /><path
         id="path200"
         style="fill:#100f0d;fill-opacity:1;fill-rule:nonzero;stroke:none"
         d="m 3816.33,5354.9 h -0.08 c -11.04,0.04 -19.96,9.03 -19.92,20.07 2.73,719.69 12.05,3079.97 17.25,3235.69 0.38,11.04 9.61,19.63 20.66,19.32 11.04,-0.37 19.7,-9.62 19.32,-20.66 -4.12,-123.3 -11.61,-1751.69 -17.23,-3234.5 -0.04,-11.02 -8.99,-19.92 -20,-19.92" /><path
         id="path202"
         style="fill:#100f0d;fill-opacity:1;fill-rule:nonzero;stroke:none"
         d="m 3810.46,3539.57 c -11.05,0 -20,8.95 -20,20 -0.01,110.72 1.44,589.21 3.81,1248.73 0.04,11.04 9.24,20.4 20.07,19.93 11.04,-0.04 19.97,-9.03 19.93,-20.08 -2.37,-659.47 -3.82,-1137.9 -3.81,-1248.58 0,-11.04 -8.96,-20 -20,-20" /><path
         id="path204"
         style="fill:#100f0d;fill-opacity:1;fill-rule:nonzero;stroke:none"
         d="m 7461.03,3686.17 c -1564.03,0 -3239.13,5.23 -3651.43,22.97 -11.04,0.48 -19.6,9.81 -19.12,20.85 0.48,11.02 9.69,19.68 20.84,19.12 763.27,-32.86 5859.77,-22.76 6555.78,-16.05 h 0.2 c 11,0 19.9,-8.83 20,-19.81 0.2,-11.05 -8.7,-20.09 -19.8,-20.19 -320.4,-3.09 -1573.06,-6.89 -2906.47,-6.89" /><path
         id="path206"
         style="fill:#100f0d;fill-opacity:1;fill-rule:nonzero;stroke:none"
         d="m 10370.3,3511.72 c 0,0 -0.1,0 -0.2,0 -11,0.1 -19.9,9.14 -19.8,20.19 1.7,174.29 102.4,5010.14 103.4,5058.97 0.3,11.05 9.9,19.81 20.4,19.58 11.1,-0.23 19.8,-9.37 19.6,-20.42 -1,-48.82 -101.7,-4884.44 -103.4,-5058.51 -0.1,-10.98 -9,-19.81 -20,-19.81" /></g></g></svg>