<?xml version="1.0" encoding="UTF-8" standalone="no"?>
<svg
   xmlns:dc="http://purl.org/dc/elements/1.1/"
   xmlns:cc="http://creativecommons.org/ns#"
   xmlns:rdf="http://www.w3.org/1999/02/22-rdf-syntax-ns#"
   xmlns:svg="http://www.w3.org/2000/svg"
   xmlns="http://www.w3.org/2000/svg"
   viewBox="0 0 4270.9331 3220.04"
   height="3220.04"
   width="4270.9331"
   xml:space="preserve"
   id="svg2"
   version="1.1"><metadata
     id="metadata8"><rdf:RDF><cc:Work
         rdf:about=""><dc:format>image/svg+xml</dc:format><dc:type
           rdf:resource="http://purl.org/dc/dcmitype/StillImage" /></cc:Work></rdf:RDF></metadata><defs
     id="defs6"><clipPath
       id="clipPath18"
       clipPathUnits="userSpaceOnUse"><path
         id="path16"
         d="M 0,2415.034 H 3203.199 V 0 H 0 Z" /></clipPath><clipPath
       id="clipPath94"
       clipPathUnits="userSpaceOnUse"><path
         id="path92"
         d="m 1319.76,1828.03 h 491.77 v -413 h -491.77 z" /></clipPath><clipPath
       id="clipPath114"
       clipPathUnits="userSpaceOnUse"><path
         id="path112"
         d="M 455.199,2349.84 H 2949.2 V 45.8593 H 455.199 Z" /></clipPath></defs><g
     transform="matrix(1.3333333,0,0,-1.3333333,0,3220.04)"
     id="g10"><g
       id="g12"><g
         clip-path="url(#clipPath18)"
         id="g14"><g
           transform="translate(3111.199,1776.0339)"
           id="g20"><path
             id="path22"
             style="fill:#0a0804;fill-opacity:1;fill-rule:nonzero;stroke:none"
             d="m 0,0 c 0,0 39.954,20 50,62 0,0 -69.74,-83.384 -216,-92 -101.857,-6 -154,66 -154,66 C -45.848,28.018 3,166 3,166 -74.255,84.004 -210,80 -210,80 c 37.131,23.579 67,72 67,72 C 43.643,210.328 24,344 24,344 -0.315,256.413 -44.844,216.067 -106,192 c -61.156,-24.066 -51,27 -51,27 C -199.953,86.235 -319,96 -319,96 c 85.169,47.561 91,136 91,136 -26.118,-77.193 -78,-93 -78,-93 10.334,34.685 -8,74 -8,74 -29.606,-154.729 -98.155,-177.865 -210,-202 -111.845,-24.135 -170,21 -170,21 50.864,12.829 92.867,66.993 125,118 32.133,51.007 162.169,63.406 210,71 47.831,7.594 69,75 69,75 151.433,40.022 149,191 149,191 -29.615,-114.876 -130,-154 -130,-154 34.688,55.736 11,125 11,125 3.101,-82.678 -72.305,-186.058 -123,-197 -50.696,-10.942 -162,-40 -162,-40 90.735,151.275 18,248 18,248 15.576,-87.643 -7.592,-173.111 -74,-240 -66.409,-66.889 -149,-58 -149,-58 53.42,90.632 7.798,180.765 26,266 18.202,85.235 102,128 102,128 -71.439,-12.929 -130.849,-82.858 -139,-165 -8.152,-82.142 -13.142,-165.308 -69,-221 -55.858,-55.692 -186.354,-61.381 -242,-64 -55.646,-2.618 -77,-43 -77,-43 -2.224,39.526 18.194,90.852 71,128 52.806,37.149 72.292,50.656 78,83 5.707,32.344 -5.708,84.729 101,135 106.707,50.271 101,115 101,115 -37.167,-79.519 -101,-75 -101,-75 l 21.741,68.757 c 6.128,19.38 9.283,39.607 8.984,59.93 -0.453,30.752 -8.225,42.813 -8.225,42.813 -49,-173 -91.944,-197.912 -107.5,-211.5 -15.556,-13.587 2.248,88.089 -3,123 -2.599,17.29 2.107,40.723 -22.557,60.443 -23.986,19.178 -89.005,33.197 -93.943,28.258 -4.938,-4.938 26.902,-136.136 31.5,-158.701 8.234,-40.41 -24.204,-89.967 -72,-143 -47.796,-53.033 -133.198,-93.308 -192,-96 -58.802,-2.692 -96,-51 -96,-51 39.5,105.954 130.847,176.086 139,221 8.153,44.914 26.449,50.874 40,149 1.38,9.994 1.529,25.271 0.75,32.25 -16.5,27.5 -79.083,15.25 -88.75,7.75 -3,-15.667 -16.048,-108.858 -32,-143 -15.952,-34.142 -42.605,-90.914 -77,-83 -30.18,6.944 -43.288,162.91 -76.707,224.419 -6.752,12.428 -18.837,21.076 -32.755,23.594 -54.044,9.778 -115.107,-1.701 -138.538,-11.013 8.383,-22.404 66.8,-173.073 69,-242 2.2,-68.927 -34.141,-197.148 -53,-210 -18.86,-12.851 -55.667,-43.024 -80,-8 -24.333,35.024 -52.856,42.137 -98,53 -45.144,10.863 -79.954,2.441 -56,34 23.954,31.559 29.279,93.497 35,125 5.721,31.503 58.468,71.927 58,133 -0.468,61.073 -42,91 -42,91 24.382,-71.769 -0.427,-178.341 -46,-181 -45.573,-2.658 -16,130 -16,130 -72.219,-122.769 13.662,-140.645 14,-189 0.337,-48.355 -26.954,-66.058 -86,-50 -59.046,16.058 -76.7,127.623 -111,237 -34.301,109.377 -99,114 -99,114 0,0 5.54,-77.036 32,-138 26.459,-60.964 69.714,-119.574 30,-112 -39.714,7.574 -88.4,95.803 -139,170 -50.6,74.197 -85,56 -85,56 0,0 50.427,-106.25 82,-167 31.573,-60.75 104,-120 104,-120 10.475,-98.266 61.39,-122.576 83,-162 21.609,-39.423 20.977,-130.865 5,-155 -15.977,-24.135 -87.828,-7.794 -125,19 -37.172,26.794 -90.588,76.976 -131,85 -40.412,8.025 -90.01,37.208 -53,80 37.01,42.792 22,138 22,138 0,0 -35.055,-124.916 -80,-120 -44.945,4.916 -72.169,85.55 -22,155 50.169,69.45 123,42 123,42 -26.457,36.949 -117.274,26.909 -165,-40 -47.726,-66.909 10,-149 10,-149 -74.99,34.202 -87.387,112.461 -74,195 13.387,82.539 74,106 74,106 -76.104,-16.283 -107.347,-73.18 -112.759,-137.964 C -2769.166,450.555 -2776,602 -2776,602 c -24.236,-196.771 146.398,-273.908 146.398,-273.908 8.959,-78.113 57.046,-133.386 91.602,-155.092 72.342,-45.441 100.313,-60.703 132,-114 31.687,-53.297 88,-85 88,-85 -37.352,-5.259 -36.852,-18.67 -85,-56 -48.148,-37.33 -77.274,-21.224 -69,27 8.274,48.224 42,26 42,26 0,0 -10.349,61.475 -64,8 -53.652,-53.474 14,-104 14,-104 -212.999,68.725 -107,192 -107,192 -98.741,-45.297 -37,-122 -37,-122 -31.936,24.277 -51,10 -51,10 23.231,2.76 69.922,-54.748 119,-88 39.993,-27.097 86,-31 86,-31 -61.592,-31.508 -209.899,-40.333 -287,53 -77.101,93.333 16,141 16,141 -37.146,13.49 -119.893,-50.74 -51,-149 68.893,-98.259 184,-99 184,-99 -372.6,-56.239 -341,152 -341,152 -50.844,-66.545 14,-125 14,-125 -156.619,-109.062 -173,51 -173,51 -20.793,-122.752 64.167,-124.375 128,-105 41.076,12.468 69,35 69,35 0,0 12.844,-31.583 196,-53 183.156,-21.417 370.471,82.614 400,128 29.528,45.386 101,53 101,53 40.031,-31.991 122,-43 122,-43 42.256,-27.097 93.489,-20.796 131,-53 37.511,-32.204 39.677,-138.084 56,-175 16.322,-36.916 42,-32 42,-32 -48.144,-98.184 -8,-179 -8,-179 -37.513,-19.091 -61,-85 -61,-85 0,0 -79.82,-68.858 -114,-138 -34.181,-69.142 -40.346,-178.308 -46,-221 -5.654,-42.692 -36.933,-69.06 -80,-88 -43.067,-18.94 -122,-74.789 -122,-74.789 -122.023,-2.545 -200,-57.211 -200,-57.211 -6.729,-5.49 -7.155,-12.484 -6.076,-17.836 0.808,-4.008 2.669,-7.723 5.21,-10.927 4.687,-5.91 16.617,-20.13 31.033,-31.07 27.526,-20.891 64.019,-43.961 110.937,-63.372 22.934,-9.489 46.956,-16.114 71.483,-19.91 L -2224,-1380 c 0,0 -109.096,-38.943 -70,-70 33.059,-26.261 157.195,-39.092 224.023,-37.392 12.206,0.31 7.866,-24.556 20.862,-26.056 60.01,4 69.629,-21.364 101.369,31.598 10.701,17.855 32.753,25.667 53.445,27.941 62.973,6.919 175.761,-0.496 196.301,-31.091 0,0 -132.545,-40.674 -162.96,-79.238 -6.142,-7.787 -6.373,-18.593 -0.628,-26.676 9.951,-13.999 32.418,-32.06 121.848,-1.679 24.611,8.361 38.053,12.321 72.372,22.253 20.077,5.81 37.388,10.894 43.368,13.086 81.064,29.721 168.541,73.783 300,-15.746 40.344,-35.679 75.07,-57.92 105.545,-69.732 40.597,-9.237 65.455,13.732 65.455,13.732 12.969,-4.269 35.667,-21 82.667,22.333 86.047,87.595 104.153,60.798 210.997,17.335 18.572,-7.555 46.613,-23.966 62.089,-36.713 53.919,-44.408 139.201,-31.909 147.694,-13.913 5.329,11.292 -0.747,28.814 -11.593,47.067 10.478,3.451 91.383,-13.991 120.703,21.099 7.482,8.955 9.14,21.412 4.678,32.195 -20.355,49.189 -116.472,97.09 -141.339,103.833 14.416,18.021 20.445,32.229 6.104,46.764 l -14,16 -71.171,90.581 c -8.873,11.293 -16.99,23.157 -24.288,35.527 -21.63,36.665 -58.541,71.892 -58.541,71.892 0,0 -16.217,20.046 -23.515,41.46 -8.232,24.156 -20.092,46.859 -32.329,69.182 -23.573,43.003 -50.904,89.885 -91.101,119.443 -1.743,1.282 -3.516,2.525 -5.322,3.719 l -37.571,24.835 L -1043,-907 c 0,0 -30.342,23.896 -40.983,31.569 -8.505,6.132 -14.746,14.904 -17.709,24.962 -1.159,20.09 5.237,40.995 10.182,60.263 6.54,25.48 9.813,52.12 11.305,78.352 1.089,19.15 0.962,37.356 -2.706,56.374 0,0 -5.083,19.907 -5.083,19.908 -5.704,22.343 -16.566,43.985 -25.541,65.135 -10.393,24.493 -19.805,49.395 -30.276,73.874 -11.853,27.713 -30.189,55.515 -30.189,86.563 2.411,24 61.631,222 104,262 42.368,40 87.665,50 122,62 34.335,12 41.691,38 82,52 40.309,14 137.767,-4 216,-18 78.233,-14 221.827,42 252,64 0,0 27.834,6 42,12 0,0 43.915,-74 164,-76 120.085,-2 168,40 168,40 0,0 59.98,-34 116,12 0,0 -36.081,-16 -92,0" /></g><g
           transform="translate(2645.7302,277.1628)"
           id="g24"><path
             id="path26"
             style="fill:#524d3e;fill-opacity:1;fill-rule:nonzero;stroke:none"
             d="m 0,0 c -51.081,0.001 -61.227,8.186 -64.415,14.342 -2.079,4.015 -1.836,8.51 0.686,12.656 9.472,15.573 51.686,26.449 102.656,26.449 2.521,0 5.096,-0.025 7.652,-0.077 36.279,-0.73 80.684,-17.988 84.894,-27.217 0.99,-2.171 0.797,-4.6 -0.533,-6.666 C 129.424,17.127 125.871,11.603 81.779,5.663 55.454,2.117 24.884,0 0.006,0 Z" /></g><g
           transform="translate(2684.656,336.1104)"
           id="g28"><path
             id="path30"
             style="fill:#0a0804;fill-opacity:1;fill-rule:nonzero;stroke:none"
             d="m 0,0 c -26.183,0 -50.222,-2.722 -69.519,-7.872 -19.746,-5.27 -32.476,-12.409 -37.835,-21.219 -3.506,-5.765 -3.824,-12.342 -0.871,-18.044 3.849,-7.432 12.461,-11.927 27.923,-14.574 10.613,-1.817 24.534,-2.738 41.376,-2.738 25.111,0 55.957,2.135 82.514,5.712 12.744,1.717 23.811,3.684 32.005,5.689 12.307,3.012 18.011,5.888 21.048,10.611 2.326,3.617 2.666,8.075 0.91,11.924 -1.75,3.835 -5.512,6.998 -12.985,10.915 -5.505,2.886 -12.38,5.813 -19.881,8.466 C 53.589,-7.207 31.44,-0.555 7.764,-0.079 5.171,-0.026 2.559,0 0,0 m 0,-11 c 2.476,0 4.994,-0.025 7.543,-0.076 38.201,-0.769 77.733,-19.032 80,-24 3.583,-7.854 -70.567,-18.371 -126.469,-18.371 -30.3,0 -55.243,3.091 -59.531,11.371 C -105.391,-28.688 -65.817,-11 0,-11" /></g><g
           transform="translate(831.1988,344.034)"
           id="g32"><path
             id="path34"
             style="fill:#524d3e;fill-opacity:1;fill-rule:nonzero;stroke:none"
             d="m 0,0 c 5.525,-24.87 112.225,-44.391 221,-35 0,0 26.5,53 28,85 0,0 -46.5,17.5 -126,6 C 84.975,50.5 -5.065,22.801 0,0" /></g><g
           transform="translate(907.1988,411.034)"
           id="g36"><path
             id="path38"
             style="fill:#524d3e;fill-opacity:1;fill-rule:nonzero;stroke:none"
             d="m 0,0 c 84.5,25.5 181,1 181,1 12.5,61 42,98 42,98 -44.5,4.5 -102,49 -102,49 C 67,138.5 0.5,165 -79,172 -183.937,181.24 -274,123 -274,123 -238,37.5 0,0 0,0" /></g><g
           transform="translate(1855.1989,330.034)"
           id="g40"><path
             id="path42"
             style="fill:#524d3e;fill-opacity:1;fill-rule:nonzero;stroke:none"
             d="m 0,0 c 0,0 -10.5,9 -2,21 8.5,12 -19,7.5 -45,9 -26,1.5 -36,-30 -36,-30 0,0 55,1.5 83,0" /></g><g
           transform="translate(1385.5295,7.9998)"
           id="g44"><path
             id="path46"
             style="fill:#524d3e;fill-opacity:1;fill-rule:nonzero;stroke:none"
             d="m 0,0 c -47.724,0 -96.086,1.367 -117.223,17.704 -15.999,12.365 -21.886,29.093 -16.151,45.892 5.51,16.137 21.577,30.577 45.242,40.656 25.777,10.979 60.288,16.782 99.801,16.782 78.894,0 143.588,-19.682 160.981,-48.976 5.456,-9.189 5.827,-19.08 1.043,-27.853 C 157.979,15.384 75.307,0.034 21.669,0.034 18.318,0.034 14.869,0.026 11.342,0.018 7.65,0.009 3.875,0 0.04,0 Z" /></g><g
           transform="translate(1397.1987,137.034)"
           id="g48"><path
             id="path50"
             style="fill:#0a0804;fill-opacity:1;fill-rule:nonzero;stroke:none"
             d="m 0,0 c -40.582,0 -76.177,-6.024 -102.936,-17.422 -26.156,-11.14 -43.334,-26.85 -49.678,-45.432 -6.808,-19.943 0.231,-40.431 18.83,-54.806 11.261,-8.704 28.871,-14.063 55.417,-16.865 20.895,-2.205 44.407,-2.509 66.702,-2.509 3.852,0 7.646,0.009 11.354,0.018 3.522,0.008 6.967,0.016 10.311,0.016 29.759,0 64.594,4.397 93.185,11.761 35.447,9.13 57.607,21.437 65.863,36.58 6.189,11.351 5.767,24.053 -1.188,35.766 -9.26,15.596 -29.876,28.84 -59.619,38.302 C 78.234,-5.046 40.805,0 0,0 m 0,-16 c 108.296,0 170.611,-36.368 155,-65 -12.715,-23.32 -87.768,-40 -145,-40 -6.867,0 -14.155,-0.034 -21.665,-0.034 -42.921,0 -93.027,1.111 -112.335,16.034 -40.041,30.947 -1.433,89 124,89" /></g><g
           transform="translate(1796.1989,316.034)"
           id="g52"><path
             id="path54"
             style="fill:#524d3e;fill-opacity:1;fill-rule:nonzero;stroke:none"
             d="m 0,0 c 0,0 107,-79 132,-118 0,0 8,15 24,27 16,12 106,47 100,55 -6,8 -88,48 -256,36" /></g><g
           transform="translate(1362.199,1312.0341)"
           id="g56"><path
             id="path58"
             style="fill:#101d10;fill-opacity:1;fill-rule:nonzero;stroke:none"
             d="m 0,0 c -7.613,-3.803 -21.686,-61.549 -21,-80 0.686,-18.451 0.441,-99.859 2,-126 1.559,-26.141 -2.686,-69.634 3,-67 5.686,2.634 3.329,77.366 2,108 -1.329,30.634 2.456,75.282 9,107 6.544,31.718 12.612,61.803 5,58 m 396,-98 c 0.226,63.595 -2.089,172.959 -31,173 -28.911,0.041 -28.829,-77.34 -29,-104 -0.171,-26.66 4.828,-47.845 -4,-83 -8.828,-35.155 -29,-124 -29,-124 -48.278,102.85 -43.195,257.874 -39,303 4.194,45.126 -10.852,87.573 -38,79 -53.084,-16.764 -44.423,-140.89 -47,-187 -2.577,-46.111 -5.805,-130.839 -9,-174 -3.195,-43.161 -7.049,-77.91 -22,-83 -14.951,-5.09 -20.438,47.93 -21,102 -0.562,54.07 -4.094,119.155 -15,187 -10.906,67.845 -39.384,10.385 -49,-34 -9.616,-44.385 -2.491,-183.787 -2,-219 0.491,-35.213 -18.186,-64.438 -30,-93 -11.815,-28.562 -5.88,-87.852 0,-87 5.88,0.852 10.883,14.98 16,33 5.117,18.02 13.509,31.34 25,31 11.491,-0.34 22.036,3.134 35,15 12.964,11.866 27.081,54.257 45,57 17.919,2.743 23.058,-12.987 29,-29 5.942,-16.013 8.958,-19.377 28,-16 19.041,3.377 43.355,5.005 57,7 13.645,1.995 33.851,44.57 51,43 17.149,-1.57 22.896,-58.965 51,-57 12.436,0.87 23.187,42.767 27,91 4.803,60.765 0.874,133.547 1,169 M 240,210 c 0,0 -15.69,37.324 -26,35 -10.311,-2.324 -25,-43 -25,-43 0,0 28.713,14.76 51,8 m -112.399,64.664 c 0.144,-1.21 0.278,-2.431 0.399,-3.664 0,0 -0.053,1.388 -0.399,3.664 M 45,140 c -21.21,7.746 -26.865,40.831 -20,86 6.865,45.169 44.098,97.915 73,87 22.819,-8.618 28.302,-29.798 29.601,-38.336 C 118.141,354.316 60,384 60,384 35.209,372.732 23.881,367.38 7,334 -9.882,300.62 -7.037,276.479 1,211 9.036,145.521 45,140 45,140 m 279,170 c 23.93,-17.746 36.801,-50.507 36,-73 -0.801,-22.493 -12.631,-47.592 -27,-48 0,0 31.01,-29.31 41,-25 9.99,4.31 13.838,44.268 23,81 9.162,36.732 8.272,152.296 -45,197 0,0 -86.396,-24.211 -74,-129 0,0 22.07,14.746 46,-3" /></g><g
           transform="translate(1459.1989,1605.0339)"
           id="g60"><path
             id="path62"
             style="fill:#20a8ff;fill-opacity:1;fill-rule:nonzero;stroke:none"
             d="m 0,0 c -22.174,-3.76 -56.708,-30.042 -62,-82 -5.292,-51.958 13.18,-62.972 33,-63 19.82,-0.028 48.92,31.578 53,56 4.08,24.423 -1.826,92.76 -24,89 m 210,11 c -21.048,-0.479 -38.982,1.155 -21,-56 17.982,-57.155 59.563,-56.591 63,-18 3.437,38.592 -20.952,74.479 -42,74" /></g><g
           transform="translate(1668.1989,1561.0339)"
           id="g64"><path
             id="path66"
             style="fill:#5df9ff;fill-opacity:1;fill-rule:nonzero;stroke:none"
             d="m 0,0 c -10.013,-6.58 0.581,-24.069 9,-21 8.419,3.069 1.013,27.58 -9,21 M -9,41 C -22.511,30.627 -4.921,5.794 14,17 32.921,28.206 4.511,51.373 -9,41 M -212,4 c 15.3,0.222 12.995,23.774 0,23 -12.995,-0.774 -15.3,-23.222 0,-23 m 5,-10 c -19.732,0.78 -26.641,-12.568 -38,-32 -11.359,-19.432 -5.932,-48.937 15,-49 20.932,-0.063 29.37,19.709 35,36 5.63,16.291 7.732,44.22 -12,45" /></g><g
           transform="translate(1116.2083,213.3855)"
           id="g68"><path
             id="path70"
             style="fill:#525734;fill-opacity:1;fill-rule:nonzero;stroke:none"
             d="m 0,0 c -8.437,0 -51.079,0.939 -62.063,19.446 -2.422,4.081 -4.328,10.745 0.348,19.316 l 0.474,0.869 0.711,0.688 c 0.841,0.814 8.768,7.951 27.95,7.951 4.55,0 9.452,-0.404 14.569,-1.199 C 0.824,44.145 35.352,29.386 35.25,14.053 35.192,5.349 26.329,2.266 18.903,1.213 13.308,0.419 6.772,0 0.005,0 Z" /></g><g
           transform="translate(1083.6283,268.1552)"
           id="g72"><path
             id="path74"
             style="fill:#0a0804;fill-opacity:1;fill-rule:nonzero;stroke:none"
             d="m 0,0 c -8.799,0 -16.563,-1.359 -23.076,-4.038 -5.436,-2.237 -8.381,-4.761 -9.394,-5.742 l -1.423,-1.377 -0.949,-1.738 c -4.791,-8.782 -4.873,-17.926 -0.231,-25.747 12.463,-20.996 54.932,-22.628 67.652,-22.628 7.071,0 13.924,0.442 19.817,1.278 5.569,0.789 9.937,2.226 13.354,4.392 5.412,3.43 8.54,8.84 8.579,14.84 0.064,9.638 -7.438,18.44 -22.935,26.91 C 40.174,-7.719 26.781,-3.018 15.566,-1.275 10.12,-0.429 4.883,0 0,0 m 0,-13 c 3.935,0 8.441,-0.324 13.57,-1.121 27.429,-4.262 67.061,-28.737 37,-33 -5.319,-0.754 -11.495,-1.149 -17.991,-1.149 -30.217,0 -67.251,8.543 -56.009,29.149 0,0 6.325,6.121 23.43,6.121" /></g><g
           transform="translate(1229.1873,206.5173)"
           id="g76"><path
             id="path78"
             style="fill:#525734;fill-opacity:1;fill-rule:nonzero;stroke:none"
             d="m 0,0 c -9.613,0.001 -17.127,5.208 -17.479,12.113 -0.137,2.694 0.754,11.617 17.982,13.377 1.844,0.189 3.617,0.284 5.27,0.284 15.182,0 17.133,-7.753 17.37,-10.128 C 23.818,8.851 16.928,2.811 5.997,0.614 3.966,0.207 1.95,0 0.002,0 Z" /></g><g
           transform="translate(1234.9609,237.2921)"
           id="g80"><path
             id="path82"
             style="fill:#0a0804;fill-opacity:1;fill-rule:nonzero;stroke:none"
             d="m 0,0 c -1.822,0 -3.767,-0.104 -5.779,-0.31 -22.171,-2.266 -22.606,-15.898 -22.467,-18.607 0.489,-9.611 10.151,-16.858 22.472,-16.858 2.279,0 4.628,0.24 6.981,0.713 5.699,1.145 10.624,3.246 14.24,6.076 4.909,3.842 7.422,9.073 6.897,14.352 C 21.641,-7.56 15.401,0 0,0 m 0,-10 c 17.527,0 15.781,-11.935 -0.762,-15.258 -1.769,-0.356 -3.446,-0.517 -5.012,-0.517 -14.29,0 -19.246,13.447 1.012,15.517 C -3.04,-10.082 -1.454,-10 0,-10" /></g><g
           transform="translate(1900.1989,1158.0341)"
           id="g84"><path
             id="path86"
             style="fill:#525734;fill-opacity:1;fill-rule:nonzero;stroke:none"
             d="m 0,0 c 10.611,-49.517 47.814,-89.352 57,-122 9.186,-32.648 2.734,-59.232 36,-94 0,0 22.26,133.97 18,169 C 106.74,-11.97 33.518,121.929 20,179 20,179 -10.611,49.517 0,0 m -54,-28 c -7.824,-68.217 18.45,-203.006 -4,-189 -22.45,14.006 -17.066,59.48 -21,128 -3.934,68.52 5.374,261.321 15,227 9.626,-34.321 17.824,-97.783 10,-166 m -62,517 c 11.957,-81.13 -27,-168 -27,-168 0,0 5.858,-16.067 22,-26 0,0 -63.401,3.277 -94,32 -30.599,28.723 -56.841,54.843 -58,102 -1.159,47.157 -5.126,86.683 13,129 18.126,42.317 55.57,58.087 89,80 33.43,21.913 72,75 72,75 0,0 -32.278,-74.659 -65,-97 0,0 36.043,-45.87 48,-127 m -19,-649 c -13.745,-54.169 -32.994,-70.871 -60,-47 -27.007,23.871 -19.676,54.404 -37,41 -17.325,-13.404 -24.04,-37.489 -48,-36 -23.96,1.489 -77.811,-26.602 -90,16 -12.189,42.602 -28.351,2.585 -42,-19 -13.649,-21.585 -29.924,-28.55 -46,-35 -16.076,-6.45 -13.848,-23.954 -28,-45 -14.152,-21.047 -35.771,-44.061 -38,-22 -2.229,22.06 -9.023,99.358 13,147 22.023,47.642 15.702,69.514 17,107 1.298,37.486 -3.043,219.437 37,252 40.043,32.563 49.331,-68.734 54,-123 4.669,-54.266 1.738,-216.749 15,-192 13.261,24.749 8.046,114.724 15,197 6.954,82.276 -13.02,221.651 59,244 44.702,13.872 59.467,-41.585 54,-106 -5.467,-64.416 -1.444,-187.058 22,-253 0,0 21.106,69.281 26,119 4.894,49.719 -14.497,143.222 25,166 39.497,22.778 63.603,-42.465 59,-116 -4.603,-73.535 6.745,-240.831 -7,-295 m -30,-266 c -10.046,-18.143 -47.073,-31.521 -79,-64 -31.927,-32.479 -47.543,-51.949 -128,-88 -80.457,-36.051 -81,-164 -81,-164 -12.417,129.126 65,176 65,176 -75.381,59.445 29.404,223.947 73,256 43.596,32.053 76.851,6.437 95,-22 18.149,-28.437 65.046,-75.857 55,-94 m -375,320 c 1.354,-29.948 -33.553,-69.318 -31,23 2.553,92.318 4.414,126.287 1,154 -3.414,27.713 16.02,101.718 33,115 16.98,13.282 14.129,-48.358 5,-97 -9.129,-48.642 -9.354,-165.052 -8,-195 m -30,776 c 0,0 42.891,-65.479 93,-98 50.109,-32.522 76.364,-84.977 80,-114 3.636,-29.023 0.593,-129.362 -37,-163 -37.593,-33.638 -91,-54 -91,-54 0,0 23.56,21.29 36,32 0,0 -45.454,24.996 -55,70 -9.546,45.004 -43.252,165.851 47,224 0,0 -74.242,59.544 -73,103 m 234,-248 c 20.113,16.614 27.073,-12.889 41,-38 13.927,-25.111 27,-38 27,-38 -37.301,23.8 -110,-14 -110,-14 28.56,34.765 21.887,73.386 42,90 M 966,691 c 0,0 37.175,17.484 56,41 18.825,23.516 36,48 36,48 0,0 46.112,9.921 66,25 0,0 -64.275,-23.837 -70,-5 0,0 -59.579,-111.993 -168,-95 l -29,-23 21,35 c 0,0 40.755,26.276 54,39 l -40,-17 c 0,0 7.215,28.787 6,45 0,0 -16.954,-81.149 -78,-120 -61.046,-38.852 -225.404,-95.51 -327,-20 h -25 c 0,0 42.689,17.53 65,31 22.311,13.47 62.494,45.27 84,84 21.507,38.73 64.036,60.331 120,73 55.964,12.669 115.457,12.117 137,33 21.543,20.883 48,63 48,63 0,0 59.109,12.441 84,46 0,0 -45.576,-41.688 -77,-31 0,0 17.579,35.025 20,56 0,0 -52.864,-111.085 -96,-127 -43.136,-15.915 -174.497,-35.455 -220,-55 0,0 69.099,80.805 64,181 0,0 -21.004,-161.032 -147,-208 -69.192,-25.793 -111,-16 -111,-16 l -34,-23 c 0,0 15.368,7.417 40,1 24.632,-6.417 62.656,3.585 84,11 21.344,7.415 65,31 65,31 0,0 -45.775,-42.684 -77,-53 -31.225,-10.316 -108.109,10.457 -164,-8 0,0 63.026,34.371 84,52 20.974,17.629 34.401,75.312 36,121 1.599,45.687 -14.444,152.966 24,203 0,0 -25.732,-14.681 -34,-104 C 454.732,915.681 448.684,808.397 350,759 223.013,695.436 94.904,753.757 60,664 l -3,-36 c 0,0 29.106,45.047 63,56 33.894,10.953 100,1 100,1 0,0 -115.646,16.837 -159,-78 -43.354,-94.837 -89,-122 -89,-122 0,0 58.487,72.026 67,106 8.513,33.974 2.795,82.658 7,119 4.205,36.341 18.457,73.848 59,105 40.543,31.152 82.821,57.111 89,82 6.179,24.889 2.295,67.924 21,88 18.705,20.076 71.407,58.26 91,64 19.044,5.579 36.412,15.675 47.995,27.941 -4.514,-4.496 -24.261,-21.396 -57.995,-11.941 0,0 19.924,57 26,78 6.076,21 9,61 9,61 0,0 -11.682,-48.948 -34,-96 -22.318,-47.052 -47.069,-81.801 -86,-93 0,0 -6.354,41.489 -3,76 3.354,34.511 2.03,84.027 -7,110 -29.5,25.5 -75.667,33.667 -79.333,30.333 C 118,1228 135.244,1179.842 137,1164 c 4.818,-43.456 18.281,-68.74 18,-82 0,0 11.798,28.966 8,60 0,0 12.841,-48.11 -11,-95 C 128.159,1000.11 64.431,910.466 28,887 -8.43,863.534 -113.311,838.612 -154,825 c -40.689,-13.613 -92.457,-57.396 -115,-110 -22.543,-52.604 -46.46,-110.008 -91,-108 0,0 34.785,15.839 51,53 16.215,37.161 40.864,88.955 72,127 0,0 5.689,34.909 24,70 18.311,35.091 80.934,111.918 106,147 25.066,35.082 16.341,43.04 32,86 15.659,42.96 24.616,88.611 22,108 -5.75,8.583 -48,11.5 -67,-3 0,0 -6.079,-76.217 -23,-125 -16.921,-48.783 -53.533,-103.62 -88,-106 -34.467,-2.38 -43,37 -43,37 l 17,-120 c 0,0 -28.974,106.878 -33,149 -4.027,42.122 -23.163,158.328 -53.333,177.333 -21.167,13.334 -69.131,13.419 -121.667,3.667 0,0 60.089,-161.984 64,-251 0,0 14.089,30.428 9,75 0,0 13.099,-60.81 -14,-118 -27.099,-57.19 -18.682,-111.959 -46,-149 l 71,24 c 0,0 -104.344,-69.375 -149,-61 0,0 77.212,-105.182 133,-108 0,0 -48.003,-12.858 -106,53 -57.997,65.858 -61.036,85.11 -94,103 -52.368,28.421 -98.987,21.472 -128,39 -29.013,17.528 -31,37 -31,37 0,0 13.179,-17.495 24,-20 10.821,-2.505 25.377,34.493 33,52 7.623,17.507 8,41 8,41 0,0 -15.669,-38.158 -49,-42 -33.331,-3.842 -77,16 -77,16 0,0 43.828,-67.449 81,-102 37.172,-34.552 94,-59 94,-59 0,0 -73.758,17.258 -128,73 -54.242,55.742 -83.464,129.536 -103,187 -19.536,57.464 -29.798,189.532 -106,234 0,0 2.238,-46.021 22,-97 19.762,-50.979 51.679,-107.419 50,-127 -1.679,-19.581 -31.45,-23.318 -54,-13 -50.742,23.217 -127.076,203.37 -169,212 0,0 13.344,-34.639 37,-84 23.656,-49.361 78.437,-142.305 132,-167 0,0 11.063,-52.877 23,-81 11.937,-28.123 35.702,-57.314 53,-75 l -6,104 c 0,0 18.285,-94.852 27,-148 8.715,-53.148 7.997,-145.592 -32,-154 l 62,-26 c 0,0 -125.864,14.328 -178,48 -52.136,33.671 -86.616,80.591 -145,94 -58.384,13.409 -69.407,44.371 -67,68 2.407,23.629 44.133,52.97 45,104 0,0 -28.904,-79.528 -72,-75 -43.096,4.528 -111.911,109.456 -4,206 0,0 -42.894,-19.131 -60,-60 -17.106,-40.869 -2.232,-112.14 40,-151 0,0 -96.182,17.434 -117,124 -20.818,106.565 23,160 23,160 0,0 -34.248,-18.816 -44,-112 0,0 -98,44.376 -129,121 0,0 22.546,-90.816 131,-150 0,0 11.238,-88.005 55,-125 43.762,-36.995 100.208,-68.925 129,-90 28.792,-21.075 45.464,-51.182 72,-86 26.536,-34.818 115,-81 115,-81 0,0 -64.911,11.139 -84,-4 -19.089,-15.139 -74.881,-65.298 -101,-69 -26.119,-3.702 -72.715,28.745 -39,87 0,0 -14.871,-2.653 -21,-20 -6.129,-17.347 -2.934,-64.983 47,-84 0,0 -58.775,-3.962 -105,27 -46.225,30.962 -65,76 -65,76 0,0 8.172,-44.399 47,-77 38.828,-32.601 112.725,-50.433 136,-44 0,0 -35.368,-33.87 -88,-46 -52.633,-12.13 -167.801,8.668 -199,38 0,0 52.56,-53.662 169,-55 0,0 -113.411,-43.212 -240,-26 0,0 164.288,-38.258 315,23 150.712,61.258 151.003,86.454 167,108 15.997,21.546 76.182,42.105 97,43 20.818,0.894 52.176,-23.506 111,-38 58.824,-14.494 112,-12 112,-12 0,0 -41.023,-12.057 -62,-11 0,0 79.354,-15.533 95,-24 15.646,-8.467 35.459,-49.05 45,-93 9.541,-43.95 9.617,-121.099 57,-123 0,0 21.509,33.531 41,64 19.491,30.469 14,96 14,96 0,0 14.364,-30.67 8,-72 -6.364,-41.33 -38.468,-74.277 -55,-113 -16.532,-38.723 -30.13,-102.682 0,-167 0,0 -43.782,-34.899 -62,-83 l 43,-6 c 0,0 -70.097,-7.607 -130,-94 -59.903,-86.394 -67.735,-222.296 -75,-275 -7.265,-52.704 -49.219,-78.077 -88,-97 -38.781,-18.923 -85.485,-38.171 -103,-59 0,0 50.89,-11.149 83,-21 32.11,-9.851 75.819,-3.087 101,-3 0,0 25.35,46.023 75,67 49.65,20.977 91,55 91,55 0,0 -33.589,13.305 -34,81 -0.411,67.695 27.857,88.897 65,118 37.143,29.103 79,94 79,94 0,0 -13.468,-46.678 -40,-82 -26.532,-35.322 -66.987,-44.554 -83,-102 -16.013,-57.447 15.821,-88.151 40,-94 l 40,16 c 0,0 -13.937,26.976 -1,60 12.938,33.024 48,58 48,58 0,0 -59.103,-60.782 -23,-127 0,0 -49.305,-17.439 -78,-35 -28.695,-17.561 -84.209,-52.601 -110,-65 -25.791,-12.399 -49,-51 -49,-51 0,0 50.245,-38.965 94,-46 0,0 31.95,29.647 72,38 40.05,8.353 131.503,22.601 146,49 0,0 -2.874,-34.246 -60,-48 -57.126,-13.754 -118.911,-21.751 -147,-55 -28.089,-33.249 -55.967,-103.276 -65,-144 -9.033,-40.724 -43.351,-87.237 -20,-85 23.351,2.236 61.772,-7.928 73,7 11.229,14.928 31.169,42.987 51,78 19.831,35.013 32.944,76.491 122,93 0,0 -33.907,-8.839 -55,-39 0,0 68.351,24.987 118,3 49.649,-21.987 32.166,-96.86 62,-119 0,0 51.003,29.482 87,26 0,0 -47.331,-33.405 -87,-47 -39.669,-13.595 -119.666,-29.151 -161,-58 -41.334,-28.85 -17.331,-60.808 52,-38 69.331,22.808 134.321,26.146 177,52 42.679,25.854 117.248,36.079 142,32 24.752,-4.079 98.858,-19.56 145,-59 46.142,-39.44 85.344,-64.212 121,-63 35.656,1.212 36.45,13.663 -31,72 -67.45,58.337 -125.248,110.751 -205,128 -79.752,17.249 -101.964,34.249 -107,81 -5.036,46.751 51.44,147.989 166,152 114.56,4.011 163.497,-64.536 162,-106 -1.497,-41.464 -38.219,-108.035 -36,-130 2.219,-21.965 67.391,-12.928 118,-28 50.609,-15.072 98.139,-23.955 93,-40 -5.139,-16.045 -81.722,-36.634 -108,-58 -26.278,-21.366 -41.391,-43.245 -9,-59 32.391,-15.755 60.414,9.742 88,33 27.586,23.258 47.285,46.568 81,45 33.715,-1.568 120.718,-31.279 169,-65 48.281,-33.721 64,-35 64,-35 0,0 53.079,-4.487 71,-6 17.921,-1.513 30.07,20.713 1,38 -29.07,17.287 -180.838,110.536 -250,126 -69.162,15.464 -102.219,35.061 -141,58 -38.781,22.939 -44.339,41.844 -25,61 0,0 -43.523,-13.414 -58,7 0,0 22.274,-6.414 53,7 30.726,13.414 97.406,18.257 138,-9 40.594,-27.257 61.796,-54.309 124,-104 62.204,-49.691 119.791,-99.803 148,-112 18.227,-7.881 137.344,-15.479 146,19 4.74,18.883 -81.569,82.195 -101,91 -54.911,24.881 -145.04,53.622 -200,104 -54.96,50.378 -98.919,74.128 -195,71 -43.948,-1.431 -97,78 -97,78 0,0 56.965,-54.018 90,-56 0,0 -26.181,73.459 -31,130 -4.819,56.541 -53.965,109.051 -118,124 -64.035,14.949 -32.085,74.936 -30,98 2.085,23.064 9,87 9,87 0,0 10.915,-83.558 2,-111 -8.915,-27.442 -7.167,-48.176 23,-57 30.167,-8.824 91.007,-34.889 111,-70 19.993,-35.111 18.831,-65.011 25,-96 6.169,-30.989 29,-109 29,-109 0,0 87.464,3.531 136,-30 48.536,-33.531 75.159,-64.732 114,-87 38.841,-22.268 80,-41 80,-41 0,0 27.225,21.295 1,41 -26.225,19.705 -55.546,62.928 -83,106 -27.454,43.072 -62.858,89.809 -106,113 -43.142,23.191 -74,80 -74,80 0,0 47.815,-53.534 71,-62 0,0 -16.748,56.025 -39,102 -22.252,45.975 -72.238,87.377 -159,148 -86.762,60.623 -69.788,99.425 -82,139 -12.212,39.575 -54.669,104.541 -62,136 -7.331,31.459 4.838,132.571 18,195 13.162,62.429 -23.824,90.721 -55,143 0,0 61.212,-52.557 75,-110 0,0 18.543,62.198 42,130 23.457,67.802 59.338,162.858 99,200 0,0 -17.95,-20.668 -30,-65 0,0 23.646,26.005 51,38 27.354,11.995 74.967,19.79 94,37 19.033,17.21 50.464,36.301 72,46 21.536,9.699 100,35 100,35 l -64,-36 c 0,0 107.788,-8.968 146,-19 38.212,-10.032 113.642,-13.705 215,26 101.358,39.705 123.722,52.913 156,55 32.278,2.087 144.97,-3.134 201,33 0,0 -89.894,-25.852 -138,-11" /></g><g
           id="g88"><g
             id="g90" /><g
             id="g102"><g
               style="opacity:0.41960102"
               id="g100"
               clip-path="url(#clipPath94)"><g
                 id="g98"
                 transform="translate(1632.701,1538.0786)"><path
                   id="path96"
                   style="fill:#20a8ff;fill-opacity:1;fill-rule:nonzero;stroke:none"
                   d="M 0,0 C 0.92,-1.408 1.498,-2.045 1.498,-2.045 0.981,-1.366 0.499,-0.682 0,0 m 76.498,254.955 c 18.93,10.666 41,35 41,35 0,0 -42.571,-26.276 -64,-38 -21.43,-11.723 -72.211,-49.895 -76,-98 C -27.495,90.565 -31.136,42.518 0,0 c -3.715,5.682 -13.103,24.13 -13.502,65.955 -0.498,52.187 -2.474,93.138 19,129 21.473,35.863 52.07,49.335 71,60 m 100,-146 c -9.2,69.623 -39.34,128.076 -25,167 l -35,-44 c 0,0 34.079,-48.143 45,-124 10.921,-75.856 -29,-164 -29,-164 l 13,-17 c 0,0 4.224,19.195 12,39 7.775,19.806 28.2,73.378 19,143 m -446,-183 c -18.894,24.971 -38.539,128.606 -24,186 14.538,57.395 50,77 50,77 l -40,36 c 19.461,-43.021 -1.932,-42.28 -17,-78 -15.068,-35.719 -15.66,-70.81 -6,-138 9.66,-67.189 26.19,-88.508 41,-106 14.81,-17.491 11,-26 11,-26 l 21,15 c 0,0 -17.106,9.03 -36,34 m 91,263 c -34.257,22.596 -63.466,40.441 -86,64 0,0 28.285,-32.573 59,-56 30.715,-23.426 62.828,-47.581 78,-97 15.171,-49.418 0.581,-109.662 -8,-141 0,0 28.877,57.546 25,114 -3.877,56.455 -33.744,93.405 -68,116 m 253,-30 c -29.09,19.623 -54,-10 -54,-10 0,0 55.54,21.052 94,-52 0,0 -10.911,42.378 -40,62 m -267,-26 -18,10 c 0,0 -44.238,-5.632 -56,-69 0,0 9.305,21.765 30,32 0,0 -28.024,-31.051 -27,-71 0,0 25.998,92.227 85,79 0,0 -27.991,16.446 -48,-3 0,0 5.042,19.4 34,22 m -62,-98 c -8.87,-37.922 0,-75 0,-75 -5.943,64.093 22.403,102.849 48,125 25.596,22.151 43,7 43,7 -35.85,43.022 -82.131,-19.078 -91,-57 m 290,100 c 0,0 35.56,-6.021 55,-57 0,0 -26.883,41.39 -74,25 0,0 30.07,6.273 51,-20 20.93,-26.272 29.948,-53.829 28,-80 -1.949,-26.17 -19,-42 -19,-42 0,0 20.487,12.514 28,34 7.513,21.487 -2.076,59.884 -6,69 0,0 17.341,-23.608 19,-39 0,0 1.948,38.081 -11,60 -12.949,21.92 -31.745,48.376 -71,50" /></g></g></g></g><g
           transform="translate(1922.199,697.034)"
           id="g104"><path
             id="path106"
             style="fill:#392f17;fill-opacity:1;fill-rule:nonzero;stroke:none"
             d="M 0,0 C -46.448,-8.669 -21.582,-38.548 11,-28 43.582,-17.452 46.448,8.669 0,0 m 71,245 c 0,0 22.26,133.97 18,169 -1.238,10.179 -8.299,28.707 -18.027,51.273 -24,-42 -80.262,-40.978 -80.262,-40.978 C 6.064,391.254 28.203,363.159 35,339 c 9.185,-32.648 2.734,-59.232 36,-94 m 85,-665 c -5.139,-16.045 -81.722,-36.634 -108,-58 0,0 83.392,48.657 79,-26 27.586,23.258 47.285,46.568 81,45 17.524,-0.815 49.445,-9.233 82.842,-21.866 0,0 -16.477,55.422 82.335,33.464 -41.183,21.381 -82.361,40.183 -110.177,46.402 -98.813,30.741 -107,-19 -107,-19 m -104,82 c 28.911,17.529 70,-5 70,-5 -38.781,22.939 -44.34,41.844 -25,61 0,0 -43.524,-13.414 -58,7 0,0 22.274,-6.414 53,7 0,0 -49.736,4.682 -37,31 12.736,26.318 23.801,46.831 54.543,46.831 C 79.805,-167.139 55,-130 55,-130 c 0,0 56.965,-54.018 90,-56 0,0 -26.181,73.459 -31,130 -30.742,24.154 -55.048,25.373 -90,10 -34.953,-15.373 -31,-64 -31,-64 -41.798,-22.283 -10.504,-70.536 -12,-112 -1.497,-41.463 -38.219,-108.035 -36,-130 2.219,-21.965 67.391,-12.927 118,-28 0,0 -39.911,24.471 -11,42 m 444,31 c -26.225,19.705 -55.546,62.928 -83,106 -27.454,43.072 -62.858,89.809 -106,113 -43.143,23.191 -74,80 -74,80 0,0 47.814,-53.534 71,-62 0,0 -16.749,56.025 -39,102 -12.688,26.216 -34.395,50.945 -66.796,78.598 C 84.021,145.731 62.295,58.166 62.295,58.166 82.647,46.426 101.467,31.741 111,15 c 19.993,-35.111 18.831,-65.011 25,-96 6.169,-30.989 29,-109 29,-109 0,0 87.463,3.531 136,-30 48.536,-33.531 75.159,-64.732 114,-87 38.841,-22.268 80,-41 80,-41 0,0 27.225,21.295 1,41 m -26.177,-43.63 c -4.025,1.857 -7.895,3.529 -11.646,5.058 3.896,-1.719 7.782,-3.405 11.646,-5.058 m -202.743,44.979 c 22.689,-19.636 45.881,-42.565 86.92,-75.349 0,0 1.541,77.298 104.177,35.428 -39.885,17.601 -80.876,38.797 -111.177,66.572 -81.246,37.329 -79.92,-26.651 -79.92,-26.651 M -119,35 c -15.281,13.422 40.341,50.566 115,33 -40.299,9.408 -42.583,36.652 -38.22,61.306 0,0 -78.905,63.791 -144.78,-94.306 -10.047,-18.143 -47.073,-31.521 -79,-64 -12.661,-12.88 -22.756,-23.714 -35.348,-34.347 0,0 51.183,-13.565 44.348,-26.653 -6.835,-13.088 -50.069,3.14 0.435,-45.167 21.454,10.954 46.661,18.155 75.565,19.167 0,0 -21.348,36.193 5,52 26.348,15.807 -32.069,26.515 18,53 50.069,26.485 54.281,32.578 39,46 M -298.409,-332.292 C -324.759,-338.879 -328,-369 -328,-369 c 0,0 -39.04,19.984 -81,20 -41.96,0.016 -71,-45 -71,-45 0,0 51.003,29.482 87,26 0,0 -47.331,-33.405 -87,-47 0,0 65.804,2.112 68,-44 42.679,25.854 117.248,36.079 142,32 15.232,-2.51 49.157,-9.339 83.753,-23.413 0,0 -31.858,54.729 53.779,52.533 -32.976,22.692 -67.487,40.219 -107.532,48.88 -24.516,5.302 -43.595,10.581 -58.409,16.708 M -738,112 c -16.013,-57.446 15.821,-88.151 40,-94 l 40,16 c 0,0 -13.938,26.976 -1,60 -59.288,17.566 -36.597,81.552 -36.597,81.552 C -712.877,160.727 -729.162,143.708 -738,112 m 496,17 c 8.425,-13.201 23.045,-30.492 35.287,-47.046 96.617,191.033 174.069,98.153 174.069,98.153 C -29.842,208.234 -25,253 -25,253 c 0,0 10.915,-83.558 2,-111 0,0 36.775,90.699 129,38 -86.762,60.623 -69.788,99.425 -82,139 0,0 -72.775,-3.974 -94.733,-54.477 C -71.034,248.541 -73.432,239.902 -80,244 c -10.043,6.265 -14.516,18.827 -16.744,36.931 -30.742,-4.392 -63.887,-54.65 -103.256,-84.931 -39.369,-30.281 -77.414,-34.335 -77.414,-34.335 14.852,-6.38 26.825,-19.207 35.414,-32.665 M -660.239,14.906 c 0,0 43.812,-48.083 98.239,-47.906 54.427,0.177 79.844,30.811 125.957,0.07 4.29,50.324 36.38,109.826 65.798,148.519 C -469.058,126.568 -509.769,48.422 -560,44 -610.231,39.578 -644.632,84.013 -644.632,84.013 -647.283,66.017 -645.327,45.776 -634,25 c 0,0 -11.305,-3.999 -26.239,-10.094 M -426,-252 c 24.481,15.772 79,-16 79,-16 -2.502,23.221 10.173,59.886 37.604,91.401 0,0 -17.998,27.407 -46.604,29.599 -28.606,2.192 19.092,32.196 -38,30 -80.457,-36.051 -81,-164 -81,-164 -12.417,129.126 65,176 65,176 -52.7,-4.391 -51.461,-31.025 -87,-60 -35.54,-28.975 -36.923,-58.856 -54,-63 -17.077,-4.144 -15.861,32.689 -40,24 -24.139,-8.689 -24.169,-46.206 -48,-20 -23.831,26.206 -91.932,60.734 -91.932,60.734 -14.203,-6.407 -26.283,-14.335 -35.068,-24.734 -27.96,-33.097 -55.704,-102.623 -64.868,-143.426 1.954,8.18 26.147,100.25 103.868,-0.574 19.831,35.013 32.944,76.491 122,93 0,0 -33.907,-8.839 -55,-39 0,0 68.351,24.987 118,3 19.55,-8.658 28.692,-25.516 34.411,-44.126 0,41.72 35.589,20.126 35.589,20.126 0,0 21.518,31.228 46,47 m -268,454 c 15.659,12.27 32.156,30.901 46.001,48.349 0,0 10.871,65.959 -53.001,83.651 -63.873,17.692 -37.377,71.767 -37.377,71.767 C -760.229,391.835 -785.405,370.029 -809,336 c -17.372,-25.055 -30.365,-54.273 -40.235,-84.419 0,0 32.268,-84.714 155.235,-49.581 m -11,-336 c 40.05,8.353 131.503,22.601 146,49 0,0 -51.131,-27.479 -80,-14 -28.869,13.479 3.854,99.979 -73,89 -28.695,-17.561 -84.209,-52.601 -110,-65 -25.792,-12.399 -49,-51 -49,-51 0,0 50.245,-38.965 94,-46 0,0 31.95,29.647 72,38 m -111,82 c 49.65,20.977 91,55 91,55 0,0 -33.59,13.306 -34,81 -98.813,4.392 -125,-23 -125,-23 -7.265,-52.704 -49.219,-78.077 -88,-97 0,0 107.691,-31.37 156,-16" /></g><g
           id="g108"><g
             id="g110" /><g
             id="g210"><g
               style="opacity:0.36077899"
               id="g208"
               clip-path="url(#clipPath114)"><g
                 id="g118"
                 transform="translate(970.1989,382.0341)"><path
                   id="path116"
                   style="fill:#edbb7b;fill-opacity:1;fill-rule:nonzero;stroke:none"
                   d="M 0,0 C -76.279,-6 -95.663,-42 12,-42 119.663,-42 76.279,6 0,0" /></g><g
                 id="g122"
                 transform="translate(1862.1989,1310.0341)"><path
                   id="path120"
                   style="fill:#edbb7b;fill-opacity:1;fill-rule:nonzero;stroke:none"
                   d="m 0,0 c 3.512,-47.815 9,-107 9,-107 -0.37,57.66 29.795,160.034 19,192 -10.795,31.966 -29.901,59.394 -49,79 -19.099,19.606 -23,66 -23,66 -6.284,-38.68 -24,-82 -24,-82 l 29,-25 c 0,0 -36.971,5.298 -68,9 -31.029,3.702 -72.024,28.491 -99,45 -26.976,16.509 -45.484,17.294 -73,14 -27.516,-3.294 -77.147,-19.242 -85,-35 -7.853,-15.759 -56.556,-45.408 -90,-62 -33.444,-16.592 -65,-25 -65,-25 15.881,19.575 21,46 21,46 -27.528,22.115 -37,62 -37,62 0,0 -6.322,-34.215 -22,-55 -15.678,-20.785 -44.069,-58.085 -25,-95 19.069,-36.916 37.458,-190.05 39,-166 1.542,24.05 -7.983,53.213 -6,85 1.983,31.787 27.001,105.034 53,113 25.999,7.966 17.477,-36.94 21,-72 3.523,-35.06 -9.964,-87.274 -10,-166 -0.036,-78.726 16.138,-93.507 15,-68 -1.138,25.507 10.799,153.165 12,201 1.201,47.835 8.46,101.863 29,118 20.54,16.137 56.751,12.837 66,-66 9.25,-78.837 16.514,-125.59 17,-90 0.486,35.589 -10.147,180.105 17,224 27.147,43.895 71.075,60.732 103,24 31.925,-36.732 13.161,-83.992 12,-129 -1.161,-45.008 7.602,-170.686 14,-151 6.398,19.686 12.925,118.745 16,180 3.075,61.255 35.57,69.127 74,42 38.43,-27.127 35.639,-141.887 34,-195 -1.639,-53.113 -8.022,-114.292 11,-116 19.022,-1.708 8.352,56.437 8,108 -0.352,51.563 10.013,139.986 21,161 C -25.013,85.014 -3.512,47.815 0,0" /></g><g
                 id="g126"
                 transform="translate(768.1989,1826.0339)"><path
                   id="path124"
                   style="fill:#edbb7b;fill-opacity:1;fill-rule:nonzero;stroke:none"
                   d="m 0,0 c 20,-21 53,-57 86,-74 l -19,26 c 0,0 40,-23 76,-41 36,-18 133,-43 133,-43 l -32,-8 c 0,0 23,-10 67,-15 44,-5 89,5 89,5 l -25,-24 c 0,0 13,-1 65,-9 52,-8 90,-19 103,-51 0,0 -8,40 3,77 11,37 30,67 24,86 -6,19 -23,55 -23,55 l -2,-36 c 0,0 -15,30 -12,71 L 546,9 c 0,0 1,24 9,38 0,0 25.764,-50.154 48,-71 48,-45 85,-52 132,-101 47,-49 29,-146 17,-191 0,0 16,28 24,58 8,30 24,34 37,29 13,-5 21,-43 39,-58 0,0 -20,32 -23,81 -3,49 -6,98 22,134 28,36 84,55 119,91 35,36 52,62 52,62 0,0 -40,-30 -65,-41 0,0 13,19 32,34 19,15 62,38 100,53 l -42,-32 c 0,0 16,-6 36,10 0,0 -16,-41 -24,-67 -8,-26 -20.884,-73.044 -22,-87 -4,-50 22,-112 18,-184 0,0 35,137 45,175 0,0 7,-27 -4,-51 0,0 31,40 41,86 10,46 -1,99 30,139 0,0 -24,-3 -35,-43 -11,-40 -20,-71 -20,-71 0,0 -4,64 15,98 19,34 57,39 80,58 l -17,-22 c 0,0 53,47 78,65 25,18 35,49 41,74 6,25 18,44 18,44 0,0 -24,-12 -32,-40 0,0 7,32 18,49 11,17 14,62 14,84 0,22 4,73 -5,91 -9,18 -46,20 -42,-3 l 8,-46 5,30 c 0,0 11,-14 13,-40 2,-26 -18,-81 -53,-129 -35,-48 -64,-88 -83,-101 l 31,12 c 0,0 -31,-27 -95,-44 C 1042,165 989,158 944,128 899,98 876,60 860,25 c -16,-35 -30,-85 -88,-94 0,0 20,-9 45,-2 0,0 -34,-25 -103,-4 l 39,6 c 0,0 -1,7 -36,15 -35,8 -46,7 -86,45 -40,38 -55,83 -90,106 -35,23 -55,27 -109,39 -30.67,6.816 -47.466,20.727 -56.256,31.476 C 385.526,154.038 404.964,133.021 441,112 501,77 541,68 541,68 c 0,0 -29,-6 -60,-1 -31,5 -98,31 -156,111 -58,80 -66,136 -81,186 -15,50 -23,125 -55,152 -32,27 -14,-22 1,-56 15,-34 29,-65 29,-65 l -5,43 c 0,0 18,-65 24,-96 6,-31 -44.83,-31.421 -71,-18 -39,20 -107,146 -132,184 0,0 -9,-11 9,-36 18,-25 54,-103 84,-132 30,-29 62,-46 93,-43 l -11,7 c 0,0 18,0 27,5 0,0 -2,-30 -33,-23 0,0 0,-56 28,-97 0,0 -4,40 5,76 0,0 24,-51 37,-102 13,-51 19,-151 19,-151 0,0 9,33 7,56 0,0 12,-35 16,-53 4,-18 66,-87 105,-101 39,-14 79,-35 79,-35 0,0 -43,9 -72,16 -29,7 -72,26 -93,52 0,0 1,-32 31,-49 30,-17 83,-31 96,-41 0,0 -24,-3 -57,7 -33,10 -50,25 -100,36 -50,11 -106,17 -136,31 l 47,-28 c 0,0 -63,15 -117,49 l 27,-4 c 0,0 -14,5 -39,27 C 62,-3 36,19 3,34 -30,49 -52,50 -68,63 -68,63 -20,21 0,0" /></g><g
                 id="g130"
                 transform="translate(1143.9427,1993.5099)"><path
                   id="path128"
                   style="fill:#edbb7b;fill-opacity:1;fill-rule:nonzero;stroke:none"
                   d="M 0,0 C -6.506,8.937 -8.744,14.524 -8.744,14.524 -8.744,14.524 -6.687,8.176 0,0" /></g><g
                 id="g134"
                 transform="translate(1216.199,1088.0339)"><path
                   id="path132"
                   style="fill:#edbb7b;fill-opacity:1;fill-rule:nonzero;stroke:none"
                   d="m 0,0 c -38.857,-8.286 -34,-21.714 -90,-99 -56,-77.286 -42.572,-192.714 -45,-233 -2.429,-40.286 -28,-69 -28,-69 0,0 77.571,38.572 71,64 -6.572,25.429 -8.429,86 41,157 49.428,71 74.857,81.143 98,111 C 70.143,-39.143 38.857,8.286 0,0" /></g><g
                 id="g138"
                 transform="translate(1054.1989,466.034)"><path
                   id="path136"
                   style="fill:#edbb7b;fill-opacity:1;fill-rule:nonzero;stroke:none"
                   d="m 0,0 c -24.319,22 -57.724,58 -114,76 -56.276,18 -151.793,36 -214,14 -62.207,-22 -51.74,-48 26,-70 77.74,-22 138.316,-44 202,-40 63.684,4 124.319,-2 100,20" /></g><g
                 id="g142"
                 transform="translate(1238.1989,863.034)"><path
                   id="path140"
                   style="fill:#edbb7b;fill-opacity:1;fill-rule:nonzero;stroke:none"
                   d="M 0,0 C -38.857,-30.286 -38,-96.714 -2,-56 34,-15.286 38.857,30.286 0,0" /></g><g
                 id="g146"
                 transform="translate(1437.199,1887.0339)"><path
                   id="path144"
                   style="fill:#edbb7b;fill-opacity:1;fill-rule:nonzero;stroke:none"
                   d="m 0,0 c 0,0 0,-21.428 41,-54 41,-32.571 81.143,9 103,54 21.857,45 53,75 53,75 l -53,34 v 95 l 23,-41 c 0,0 -14.857,113.429 -21,163 -6.143,49.572 -43,133 -43,133 H 60 l 21,-120 15,42 c 0,0 11.143,-38.143 13,-77 C 110.857,265.143 103.286,194.714 82,163 60.714,131.286 62,77 62,77 98.428,89.714 171,73 171,73 171,73 152.143,68.572 107,54 61.857,39.429 0,0 0,0" /></g><g
                 id="g150"
                 transform="translate(2677.1987,318.034)"><path
                   id="path148"
                   style="fill:#edbb7b;fill-opacity:1;fill-rule:nonzero;stroke:none"
                   d="M 0,0 C -63.789,-4 -90.165,-14 0,-16 90.165,-18 63.789,4 0,0" /></g><g
                 id="g154"
                 transform="translate(2789.1987,1853.0339)"><path
                   id="path152"
                   style="fill:#edbb7b;fill-opacity:1;fill-rule:nonzero;stroke:none"
                   d="m 0,0 -21,-16 31,4 c 61,-14 133,2 133,2 -37,-8 -87,6 -87,6 74,26 104,94 104,94 C 149,68 100,19 67,9 34,-1 0,0 0,0" /></g><g
                 id="g158"
                 transform="translate(1931.1989,1188.0339)"><path
                   id="path156"
                   style="fill:#edbb7b;fill-opacity:1;fill-rule:nonzero;stroke:none"
                   d="m 0,0 c 12.901,-36.727 38.001,-36 43,-64 4.999,-28 0.727,-67.909 13,-86 12.273,-18.091 13.815,44.909 17,60 3.185,15.091 -15.002,39.455 -26,66 -10.998,26.546 -57,130 -57,130 0,0 -2.901,-69.273 10,-106" /></g><g
                 id="g162"
                 transform="translate(1300.1989,1124.0341)"><path
                   id="path160"
                   style="fill:#edbb7b;fill-opacity:1;fill-rule:nonzero;stroke:none"
                   d="M 0,0 C 0,0 -2.186,50.074 -36,71 -36,71 -58.456,59.976 -68,31 -77.544,2.024 -41.611,51.094 0,0" /></g><g
                 id="g166"
                 transform="translate(1788.1989,2198.0339)"><path
                   id="path164"
                   style="fill:#edbb7b;fill-opacity:1;fill-rule:nonzero;stroke:none"
                   d="M 0,0 C 16.714,49.572 33,133 33,133 L 0,143 c 0,0 -6,-113.286 -27,-152 -21,-38.714 -65,-77 -65,-77 0,0 75.286,36.429 92,86" /></g><g
                 id="g170"
                 transform="translate(2575.1987,2072.0339)"><path
                   id="path168"
                   style="fill:#edbb7b;fill-opacity:1;fill-rule:nonzero;stroke:none"
                   d="M 0,0 C -32,-80 -97,-118 -97,-118 -24,-101 0,0 0,0" /></g><g
                 id="g174"
                 transform="translate(1966.1989,1821.0341)"><path
                   id="path172"
                   style="fill:#edbb7b;fill-opacity:1;fill-rule:nonzero;stroke:none"
                   d="M 0,0 -2,-12 C 29,83 201,18 201,18 34,38 15,-47 0,-74 c -15,-27 -29,-65 -50,-97 -21,-32 -1,-132 -1,-132 0,0 80,128 97,157 17,29 75,57 75,57 l -14,-29 c 40,28 116,78 116,78 L 116,-74 c 0,0 38,22 98,47 60,25 198,57 198,57 L 302,-21 c 0,0 57,17 129,41 72,24 86,70 135,113 49,43 185,51 215,62 30,11 46,43 46,43 0,0 -11,-22 -43,-33 C 752,194 601,163 577,153 553,143 533,127 514,111 495,95 476,75 447,71 418,67 335,70 310,69 291.521,68.261 248.461,60.966 227.253,57.211 214.644,53.188 215,55 215,55 c 0,0 4.769,0.885 12.253,2.211 8.322,2.654 22.289,7.849 45.747,17.789 59,25 102,63 117,110 15,47 8,116 8,116 C 397,274 386,185 346,138 306,91 251,71 188,61 125,51 87,57 40,40 9.369,28.921 0,0 0,0" /></g><g
                 id="g178"
                 transform="translate(2213.1987,273.034)"><path
                   id="path176"
                   style="fill:#edbb7b;fill-opacity:1;fill-rule:nonzero;stroke:none"
                   d="m 0,0 c -54.933,19 -126.538,45.182 -153,58 -26.462,12.818 -52.807,8.636 -26,-2 26.807,-10.636 71.926,-31.909 68,-44 -3.925,-12.091 -21.72,-20.091 -46,-32 -24.28,-11.909 -66.986,-43.545 -22,-25 44.987,18.546 88.481,44.364 114,41 25.519,-3.364 135.59,-50.273 146,-45 10.41,5.273 -26.066,30 -81,49" /></g><g
                 id="g182"
                 transform="translate(1776.1989,295.0339)"><path
                   id="path180"
                   style="fill:#edbb7b;fill-opacity:1;fill-rule:nonzero;stroke:none"
                   d="M 0,0 C -49.714,27.714 -76.286,36 -123,49 -169.714,62 -184.143,48.571 -133,36 -81.857,23.429 -39.286,-3.571 -7,-19 25.286,-34.429 101.143,-105.429 90,-86 78.857,-66.571 49.714,-27.714 0,0" /></g><g
                 id="g186"
                 transform="translate(1441.199,271.034)"><path
                   id="path184"
                   style="fill:#edbb7b;fill-opacity:1;fill-rule:nonzero;stroke:none"
                   d="m 0,0 c -49.858,-16.619 -92.714,-32.714 -118,-43 -25.286,-10.286 13.286,-21 69,-6 C 6.714,-34 86.286,10.143 114,17 114,17 96.428,32.143 0,0" /></g><g
                 id="g190"
                 transform="translate(2261.199,576.0341)"><path
                   id="path188"
                   style="fill:#edbb7b;fill-opacity:1;fill-rule:nonzero;stroke:none"
                   d="m 0,0 c -24.194,32.672 -57.927,30.105 -106,88 -19.523,23.512 -51.76,112.728 -24,72 27.76,-40.728 66,-69 66,-69 0,0 -8.418,42.123 -26,71 -17.582,28.877 -72.59,82.189 -123,113 -50.41,30.811 -96.119,59.33 -104,90 -7.881,30.67 -3.391,69.129 -15,93 -11.609,23.871 -46,90 -46,90 -22.724,40 -26.711,-45.636 -16,-62 10.711,-16.364 5.65,-53.636 5,-86 -0.651,-32.364 -13.893,-59.455 -28,-56 -14.107,3.454 -31.342,40.182 -30,69 1.341,28.818 -4.068,64.818 -12,69 -7.932,4.182 -10.248,-26.909 -13,-47 -2.752,-20.091 -30.88,-54.455 -44,-68 -13.12,-13.546 -25.057,-14.636 -46,4 -20.944,18.636 -19.051,35 -25,39 -5.949,4 -14.048,-5.818 -23,-22 -8.952,-16.182 -14.682,-13.818 -27,-13 -12.319,0.818 -30.403,-2.636 -53,-8 -22.597,-5.364 -33.759,-4.636 -39,6 -5.241,10.636 -6.576,32.091 -14,32 -7.424,-0.091 -7,-16 -7,-16 16.419,1.551 -0.384,-48.012 33,-38 33.384,10.012 71.347,10.694 94,12 22.653,1.306 19.433,34.01 32,26 12.567,-8.01 3.314,-61.109 55,-97 51.686,-35.891 32.045,-104.149 47,-90 14.955,14.149 45,-4 45,-4 -30.217,0.491 -41,-26 -41,-26 30.226,14.732 66,-12 66,-12 -50.303,14 -75.294,-15.61 -90,-33 -14.707,-17.39 -22.328,-22.851 -100,-68 -77.672,-45.149 -149.368,-130.304 -154,-162 -4.632,-31.696 -11,-84 -11,-84 l 75,-7 -51,31 35,-6 5,30 c 0,0 -24.215,11.358 -21,40 3.214,28.642 49.922,84.034 103,119 53.078,34.966 120.825,51.956 177,52 56.175,0.044 112.897,-53.163 135,-114 22.103,-60.837 50.356,-71.155 116,-68 65.644,3.155 92.157,-4.765 147,-50 54.843,-45.235 122,-64 122,-64 0,0 -45.298,26.753 -73,64 -27.702,37.247 -68.418,50.064 -118,58 -49.582,7.936 -82.456,-4.716 -136,42 -31.329,27.334 -37,74 -37,74 28.611,-33.811 78,-53 78,-53 0,0 -5.168,62.666 -24,80 -18.832,17.334 -58,16 -58,16 19.78,25.286 61,2 61,2 0,0 1.34,24.223 -13,56 -14.34,31.777 -54.899,56.754 -92,65 -37.101,8.245 -54.681,11.07 -53,38 1.681,26.93 11.201,58.382 14,97 2.799,38.618 10,98 10,98 0,0 19.405,-20.722 32,-90 12.595,-69.278 56.644,-86.859 108,-106 51.356,-19.141 74.24,-103.193 84,-147 9.76,-43.807 1.512,-54.382 19,-58 17.488,-3.618 75.904,-20.527 53,-16 -22.904,4.527 -61,-32 -61,-32 0,0 25.936,1.718 77,-8 51.063,-9.718 90.635,-73.984 137,-109 46.365,-35.016 29.315,7.652 7,37 C 61.685,-86.652 24.194,-32.672 0,0" /></g><g
                 id="g194"
                 transform="translate(2528.1987,1748.0341)"><path
                   id="path192"
                   style="fill:#edbb7b;fill-opacity:1;fill-rule:nonzero;stroke:none"
                   d="m 0,0 c 95.372,20.23 144,46 144,46 0,0 -84,-37 -156,-36 -72,1 -115,27 -115,27 -20,3 -24,-11 -24,-11 0,0 85,-40 151,-26" /></g><g
                 id="g198"
                 transform="translate(1402.199,108.0341)"><path
                   id="path196"
                   style="fill:#edbb7b;fill-opacity:1;fill-rule:nonzero;stroke:none"
                   d="M 0,0 C -164.381,0 -109.535,-66 6,-62 121.534,-58 164.381,0 0,0" /></g><g
                 id="g202"
                 transform="translate(1409.1989,496.034)"><path
                   id="path200"
                   style="fill:#edbb7b;fill-opacity:1;fill-rule:nonzero;stroke:none"
                   d="m 0,0 c 6.286,27.572 52,88 52,88 0,0 6,90.143 -35,112 -41,21.857 -55.429,76.714 -40,105 15.429,28.286 57.429,40.286 70,70 12.571,29.714 37,62 37,62 0,0 -43.143,-27.429 -54,-47 -10.857,-19.571 -36.286,-72.571 -64,-64 -27.714,8.571 -15,148 -15,148 -27.714,-55.571 -6.571,-133 -34,-157 -27.429,-24 -26.143,-89.571 -9,-107 17.143,-17.429 45,-23 45,-23 -30,-8.286 -58,4 -58,4 0,0 0.143,-30 -58,-41 -58.143,-11 -81.143,-21.143 -109,-40 -27.857,-18.857 -6,-43 -6,-43 0,0 23.143,19 60,43 36.857,24 98.143,6 132,15 33.857,9 80,40 80,40 0,0 -2.429,-44.714 -9,-64 -6.571,-19.286 -49.143,-47.143 -92,-54 -42.857,-6.857 -68.572,-12.429 -103,-30 -34.428,-17.571 -72.714,-181.714 -43,-124 29.714,57.714 90.286,92.286 163,109 72.714,16.714 83.714,-29.571 90,-2" /></g><g
                 id="g206"
                 transform="translate(577.1987,1550.0339)"><path
                   id="path204"
                   style="fill:#edbb7b;fill-opacity:1;fill-rule:nonzero;stroke:none"
                   d="m 0,0 c 85.411,27.362 128.818,46.645 161,81 32.182,34.355 66,59 66,59 l -55,-26 c 0,0 28.815,47.901 86,60 0,0 -20.982,12.249 -44,1 -23.018,-11.249 -78.02,-73.755 -122,-70 0,0 7.211,-14.355 41,-2 0,0 -30.325,-18.157 -67,-15 0,0 32.716,-14.355 75,1 0,0 -46.229,-31.163 -85,-53 -38.771,-21.837 -129.176,-47.066 -178,-53 0,0 36.59,-10.362 122,17" /></g></g></g></g></g></g></g></svg>